<svg id="Layer_1" data-name="Layer 1" xmlns="http://www.w3.org/2000/svg" viewBox="0 0 45.82 45.82"><defs><style>.cls-1{fill:none;stroke:#fff;stroke-miterlimit:10;stroke-width:1.63px;}.cls-2{fill:#fff;}</style></defs><circle class="cls-1" cx="22.91" cy="22.91" r="22.1"/><path class="cls-2" d="M22.32,12.83a.94.94,0,0,0-.63.28l-9.8,9.8,9.8,9.79A.91.91,0,1,0,23,31.41l-8.5-8.5L23,14.4a.91.91,0,0,0-.66-1.57Z"/><path class="cls-2" d="M30.26,12.83a.92.92,0,0,0-.62.28l-9.8,9.8,9.8,9.79a.91.91,0,1,0,1.29-1.29l-8.5-8.5,8.5-8.51a.92.92,0,0,0-.67-1.57Z"/></svg>