<svg id="Layer_1" data-name="Layer 1" xmlns="http://www.w3.org/2000/svg" xmlns:xlink="http://www.w3.org/1999/xlink" viewBox="0 0 2251.27 1562.27"><defs><style>.cls-1{fill:none;}.cls-2{clip-path:url(#clip-path);}.cls-3{fill:#fff;}</style><clipPath id="clip-path"><rect class="cls-1" y="291.71" width="1920" height="1080"/></clipPath></defs><g class="cls-2"><path class="cls-3" d="M1255.67,1268.07a9.34,9.34,0,0,0,.25,12.93l.27.26c30.65,28.31,184.14,169.93,196.58,176.89a9.33,9.33,0,1,0,9.11-16.29c-9.82-6.12-123.62-110.17-193-174.31A9.35,9.35,0,0,0,1255.67,1268.07Z"/><path class="cls-3" d="M1553.34,1366.65a9.34,9.34,0,0,0-3.58-12.7c-10.69-6.18-125.41-108.91-195.21-172.21a9.33,9.33,0,0,0-12.87,13.49c.11.11.22.22.34.32,30.54,27.71,183.67,166.32,198.63,174.68A9.32,9.32,0,0,0,1553.34,1366.65Z"/><path class="cls-3" d="M1641.21,1278.73a9.33,9.33,0,0,0-3.58-12.69c-12.18-6.81-124.72-105.47-197.39-170.12a9.32,9.32,0,0,0-12.8,13.55c.13.13.26.26.4.38,18.66,16.6,182.82,162.49,200.68,172.47A9.32,9.32,0,0,0,1641.21,1278.73Z"/><path class="cls-3" d="M1469.92,1053.84a9.34,9.34,0,0,0,.4,12.76l.44.41c18.63,16.41,182.55,160.65,201.69,171.35a9.33,9.33,0,1,0,9.11-16.28c-13.18-7.37-125.91-105.15-198.47-169.07A9.33,9.33,0,0,0,1469.92,1053.84Z"/><path class="cls-3" d="M1562.82,961a9.33,9.33,0,0,0,.45,12.69c.17.16.33.32.51.47,18.57,16,182,157,203.74,169.15a9.33,9.33,0,1,0,9.11-16.29c-15.18-8.49-128.32-104.51-200.66-167A9.32,9.32,0,0,0,1562.82,961Z"/><path class="cls-3" d="M1605.67,918.11a9.32,9.32,0,0,0,.48,12.65c.18.17.36.34.55.5,18.53,15.85,181.76,155.18,204.76,168a9.33,9.33,0,0,0,9.11-16.28c-18.1-10.12-151.77-123.22-201.75-165.94A9.32,9.32,0,0,0,1605.67,918.11Z"/><path class="cls-3" d="M1648.51,875.26a9.35,9.35,0,0,0,.52,12.62c.19.18.38.36.58.53,7.38,6.25,181.08,153.12,205.78,166.93a9.33,9.33,0,1,0,9.11-16.28c-19.21-10.75-152.94-122.67-202.84-164.89A9.33,9.33,0,0,0,1648.51,875.26Z"/><path class="cls-3" d="M1709,814.76a9.33,9.33,0,0,0,.57,12.54q.32.32.66.6c7.36,6.09,180.5,149.43,207.82,164.71a9.33,9.33,0,1,0,9.11-16.28c-20.69-11.57-143.16-111.55-205-162.8A9.33,9.33,0,0,0,1709,814.76Z"/><path class="cls-3" d="M1810.33,712.63a9.3,9.3,0,0,0,.84,13.17c7.08,6.23,173.85,152.94,203.08,170.89a9.33,9.33,0,0,0,9.76-15.9c-22.31-13.7-140.92-116.54-200.52-169A9.32,9.32,0,0,0,1810.33,712.63Z"/><path class="cls-3" d="M1879.18,643.8a9.32,9.32,0,0,0,.13,12.48,9.13,9.13,0,0,0,.7.69c7.09,6.24,173.85,152.94,203.09,170.89a9.33,9.33,0,0,0,9.76-15.9c-22.31-13.7-140.92-116.53-200.52-169A9.33,9.33,0,0,0,1879.18,643.8Z"/><path class="cls-3" d="M1649.22,1318.85a9.34,9.34,0,0,0,.41,12.75l.45.42L1771,1438.12a9.33,9.33,0,0,0,12.31-14L1662.38,1318A9.32,9.32,0,0,0,1649.22,1318.85Z"/><path class="cls-3" d="M1747.07,1221a9.33,9.33,0,0,0,.57,12.54c.21.21.43.4.66.59L1872.46,1337a9.33,9.33,0,1,0,11.9-14.37L1760.2,1219.81A9.32,9.32,0,0,0,1747.07,1221Z"/><path class="cls-3" d="M1987,1234.35a9.29,9.29,0,0,0-1.6-13.09L1858,1121.63a9.33,9.33,0,0,0-12.35,13.93,9,9,0,0,0,.86.76l127.4,99.64A9.33,9.33,0,0,0,1987,1234.35Z"/><path class="cls-3" d="M1930.78,1037.41a9.35,9.35,0,0,0,.9,12.13,10.56,10.56,0,0,0,1.07.92l130.63,96.4a9.33,9.33,0,1,0,11.08-15l-130.63-96.41A9.35,9.35,0,0,0,1930.78,1037.41Z"/><path class="cls-3" d="M1973.72,994.5a9.34,9.34,0,0,0,1,12,8.73,8.73,0,0,0,1.17,1l132.24,94.79a9.33,9.33,0,0,0,10.87-15.17l-132.24-94.78A9.33,9.33,0,0,0,1973.72,994.5Z"/><path class="cls-3" d="M2050.24,918a9.31,9.31,0,0,0,1.05,11.91,8.77,8.77,0,0,0,1.27,1.07l133.87,93.17a9.32,9.32,0,1,0,10.65-15.31l-133.86-93.17A9.32,9.32,0,0,0,2050.24,918Z"/><path class="cls-3" d="M2100.42,867.83a9.34,9.34,0,0,0,1,11.92,8.85,8.85,0,0,0,1.28,1.07L2236.61,974a9.33,9.33,0,0,0,10.66-15.31L2113.4,865.51A9.32,9.32,0,0,0,2100.42,867.83Z"/><path class="cls-3" d="M983.72,982.41c-64.14-69.4-168.2-183.21-174.31-193a9.33,9.33,0,0,0-16.29,9.11c7,12.43,148.57,165.93,176.89,196.57a3.38,3.38,0,0,0,.26.27,9.33,9.33,0,0,0,13.45-12.93Z"/><path class="cls-3" d="M881,710.62c8.37,15,147,168.09,174.69,198.63.1.12.21.23.31.34a9.33,9.33,0,0,0,13.5-12.87c-63.3-69.8-166-184.52-172.21-195.21A9.33,9.33,0,0,0,881,710.62Z"/><path class="cls-3" d="M969,622.75c10,17.86,155.86,182,172.47,200.68l.37.4a9.33,9.33,0,0,0,13.56-12.8C1090.7,738.35,992,625.82,985.23,613.64A9.33,9.33,0,1,0,969,622.75Z"/><path class="cls-3" d="M1198.26,768.18c-63.92-72.56-161.7-185.3-169.07-198.47a9.33,9.33,0,0,0-16.29,9.1c10.71,19.15,154.95,183.07,171.36,201.7.14.15.27.3.41.44a9.33,9.33,0,0,0,13.59-12.77Z"/><path class="cls-3" d="M1291.28,675.29c-62.47-72.34-158.5-185.47-167-200.65a9.33,9.33,0,1,0-16.29,9.11c12.15,21.71,153.11,185.17,169.15,203.74.15.17.31.34.47.5a9.33,9.33,0,0,0,13.65-12.7Z"/><path class="cls-3" d="M1334.19,632.45c-42.72-50-155.82-183.65-165.94-201.75a9.33,9.33,0,1,0-16.28,9.11c12.86,23,152.19,186.23,168,204.76.16.19.33.37.5.54a9.33,9.33,0,0,0,13.68-12.66Z"/><path class="cls-3" d="M1377.1,589.61C1334.88,539.7,1223,406,1212.21,386.77a9.33,9.33,0,1,0-16.28,9.1c13.81,24.71,160.68,198.41,166.93,205.79.17.2.35.39.53.58a9.33,9.33,0,0,0,13.71-12.63Z"/><path class="cls-3" d="M1437.74,529.11c-51.25-61.87-151.23-184.34-162.8-205a9.33,9.33,0,1,0-16.29,9.11c15.28,27.32,158.63,200.46,164.72,207.82a7.45,7.45,0,0,0,.6.65,9.33,9.33,0,0,0,13.77-12.55Z"/><path class="cls-3" d="M1539.48,427.77c-52.47-59.59-155.3-178.2-169-200.51a9.33,9.33,0,1,0-15.9,9.76c18,29.23,164.66,196,170.89,203.08a9.13,9.13,0,0,0,.69.7,9.33,9.33,0,0,0,13.32-13Z"/><path class="cls-3" d="M1608.3,358.93c-52.46-59.6-155.3-178.21-169-200.52a9.33,9.33,0,1,0-15.9,9.76c17.94,29.24,164.65,196,170.89,203.08a9.32,9.32,0,1,0,14-12.32Z"/><path class="cls-3" d="M933.27,588.88,827.17,468a9.33,9.33,0,1,0-14,12.31l106.1,120.93.42.45a9.33,9.33,0,0,0,13.6-12.76Z"/><path class="cls-3" d="M1031.46,491.07,928.59,366.9a9.33,9.33,0,1,0-14.36,11.91L1017.1,503a6.07,6.07,0,0,0,.59.65,9.33,9.33,0,0,0,13.77-12.55Z"/><path class="cls-3" d="M1015.31,277.35,1115,404.75a9,9,0,0,0,.76.86,9.33,9.33,0,0,0,13.93-12.35L1030,265.86a9.33,9.33,0,0,0-14.7,11.49Z"/><path class="cls-3" d="M1215.82,307.44l-96.4-130.63a9.33,9.33,0,1,0-15,11.08l96.4,130.63a10.56,10.56,0,0,0,.92,1.07,9.33,9.33,0,0,0,14.09-12.15Z"/><path class="cls-3" d="M1258.91,264.53l-94.78-132.24A9.33,9.33,0,1,0,1149,143.16l94.79,132.24a8,8,0,0,0,1,1.17,9.33,9.33,0,0,0,14.17-12Z"/><path class="cls-3" d="M1335.58,188.05,1242.41,54.19a9.32,9.32,0,1,0-15.31,10.65l93.17,133.86a9.49,9.49,0,0,0,1.06,1.28,9.33,9.33,0,0,0,14.25-11.93Z"/><path class="cls-3" d="M1385.76,137.86,1292.59,4a9.33,9.33,0,1,0-15.31,10.66l93.17,133.86a8.85,8.85,0,0,0,1.07,1.28,9.33,9.33,0,0,0,14.24-11.94Z"/><path class="cls-3" d="M908.23,1546.35l-.05-.06c-1-.94-96.28-94.86-102.31-100.89s-100-101.35-100.9-102.32l-.05,0a9.33,9.33,0,0,0-13.24,13.15c3.88,3.93,94.91,96.33,101,102.41s98.48,97.12,102.41,101a9.33,9.33,0,0,0,13.14-13.24Z"/><path class="cls-3" d="M1049.5,1405.08l-.07-.08c-.94-.91-94-91.94-102.6-100.56s-99.65-101.66-100.57-102.6l-.07-.07a9.33,9.33,0,0,0-13.26,13.12c3.75,3.83,92,94,100.71,102.74s98.91,97,102.74,100.71a9.33,9.33,0,0,0,13.12-13.26Z"/><path class="cls-3" d="M924.69,1123.09c3.67,3.78,90.09,92.53,100.52,103s99.19,96.85,103,100.53a9.33,9.33,0,0,0,13.11-13.28l-.09-.09c-.92-.9-92.44-90-102.78-100.35S939,1111,938.06,1110.08L938,1110a9.33,9.33,0,0,0-13.28,13.1Z"/><path class="cls-3" d="M970.57,1077.19c3.64,3.75,89.13,91.77,100.43,103.08s99.33,96.79,103.07,100.43a9.33,9.33,0,0,0,13.1-13.29l-.1-.1c-.91-.89-91.67-89-102.88-100.24s-99.35-102-100.24-102.87l-.09-.1a9.33,9.33,0,0,0-13.29,13.09Z"/><path class="cls-3" d="M1062.33,985.4c3.56,3.68,87.21,90.25,100.25,103.29s99.61,96.69,103.29,100.24a9.33,9.33,0,0,0,13.08-13.3l-.12-.11c-.9-.87-90.13-87.09-103.06-100s-99.15-102.17-100-103.06l-.11-.12a9.33,9.33,0,0,0-13.31,13.08Z"/><path class="cls-3" d="M1108.22,939.5c3.51,3.65,86.24,89.49,100.15,103.4s99.75,96.64,103.4,100.15a9.32,9.32,0,1,0,12.94-13.43c-.89-.86-89.36-86.12-103.15-99.91s-99-102.26-99.91-103.16l-.12-.12a9.33,9.33,0,0,0-13.31,13.07Z"/><path class="cls-3" d="M1154.1,893.6c3.47,3.62,85.27,88.73,100.05,103.51s99.9,96.59,103.52,100.06a9.33,9.33,0,0,0,13.06-13.32l-.14-.13c-.88-.85-88.59-85.15-103.24-99.8s-98.95-102.36-99.8-103.25a9.33,9.33,0,0,0-13.45,12.93Z"/><path class="cls-3" d="M1253.05,794.61c3.4,3.55,83.35,87.21,99.88,103.73s100.18,96.48,103.73,99.88a9.33,9.33,0,1,0,12.89-13.49c-.87-.83-87.06-83.21-103.43-99.58s-98.75-102.56-99.58-103.43l-.15-.16a9.33,9.33,0,0,0-13.34,13.05Z"/><path class="cls-3" d="M1298.93,748.71c3.36,3.52,82.39,86.45,99.78,103.84S1499,949,1502.56,952.34a9.33,9.33,0,1,0,12.87-13.51c-.86-.82-86.29-82.23-103.52-99.47s-98.65-102.66-99.47-103.52a9.33,9.33,0,0,0-13.51,12.87Z"/><path class="cls-3" d="M1344.81,702.81c3.32,3.49,81.43,85.69,99.69,104s100.47,96.37,104,99.69a9.33,9.33,0,0,0,12.85-13.53c-.85-.81-85.52-81.26-103.62-99.36S1359.15,690.81,1358.34,690a9.33,9.33,0,0,0-13.53,12.85Z"/><path class="cls-3" d="M1390.69,656.91c3.28,3.46,80.47,84.94,99.6,104.07s100.61,96.32,104.07,99.6A9.33,9.33,0,0,0,1607.19,847c-.85-.8-84.75-80.29-103.71-99.24S1405,644.93,1404.24,644.08a9.33,9.33,0,1,0-13.55,12.83Z"/><path class="cls-3" d="M1482.14,565.44c3.24,3.42,79.5,84.17,99.51,104.18s100.75,96.27,104.18,99.5a9.33,9.33,0,1,0,12.81-13.56c-.84-.79-84-79.32-103.8-99.13s-98.34-103-99.13-103.8a9.33,9.33,0,0,0-13.57,12.81Z"/><path class="cls-3" d="M1754.73,699.43c-.82-.77-82.44-77.37-104-98.91s-98.14-103.16-98.91-104a9.33,9.33,0,1,0-13.61,12.77c3.16,3.36,77.58,82.66,99.33,104.4s101,96.17,104.4,99.32a9.33,9.33,0,1,0,12.77-13.6Z"/><path class="cls-3" d="M1810.78,643.36c-.81-.76-81.67-76.4-104.07-98.8s-98-103.26-98.8-104.07a9.32,9.32,0,0,0-13.62,12.74c3.11,3.34,76.61,81.9,99.23,104.52S1794.7,653.86,1798,657a9.32,9.32,0,0,0,12.74-13.62Z"/><path class="cls-3" d="M1650.38,397.1c3,3.27,74.69,80.38,99,104.74s101.47,96,104.74,99.05a9.33,9.33,0,0,0,12.7-13.67c-.8-.74-80.14-74.45-104.25-98.57S1664.79,385.2,1664,384.4a2.83,2.83,0,0,0-.24-.25,9.33,9.33,0,0,0-13.42,13Z"/><path class="cls-3" d="M1698.88,348.89c3.63,3.74,89.13,91.77,100.43,103.07s99.33,96.8,103.07,100.43a9.33,9.33,0,0,0,13.1-13.28l-.1-.1c-.92-.89-91.67-89-102.88-100.24s-99.35-102-100.24-102.88l-.1-.1a9.33,9.33,0,0,0-13.28,13.1Z"/></g></svg>