<svg id="Layer_8_copy_3" data-name="Layer 8 copy 3" xmlns="http://www.w3.org/2000/svg" viewBox="0 0 1920 7565.56"><defs><style>.cls-1{fill:none;stroke:rgba(255,255,255,.03);stroke-linecap:round;stroke-miterlimit:10;stroke-width:13px;}</style></defs><line class="cls-1" x1="811.79" y1="81.37" x2="917.98" y2="238.59"/><line class="cls-1" x1="889.01" x2="995.19" y2="157.22"/><line class="cls-1" x1="1124.54" y1="67.07" x2="1230.73" y2="224.3"/><line class="cls-1" x1="1059.76" y1="135.35" x2="1165.94" y2="292.58"/><line class="cls-1" x1="1027.36" y1="169.48" x2="1133.55" y2="326.71"/><line class="cls-1" x1="865.38" y1="340.17" x2="971.56" y2="497.4"/><line class="cls-1" x1="1156.94" y1="32.94" x2="1263.13" y2="190.16"/><line class="cls-1" x1="1053.78" y1="459.14" x2="1159.96" y2="616.37"/><line class="cls-1" x1="1248.16" y1="254.32" x2="1354.34" y2="411.55"/><line class="cls-1" x1="1345.34" y1="151.91" x2="1451.53" y2="309.14"/><line class="cls-1" x1="1118.57" y1="390.86" x2="1224.75" y2="548.09"/><line class="cls-1" x1="1183.36" y1="322.59" x2="1289.55" y2="479.82"/><line class="cls-1" x1="1280.55" y1="220.18" x2="1386.73" y2="377.41"/><line class="cls-1" x1="1312.95" y1="186.05" x2="1419.13" y2="343.28"/><line class="cls-1" x1="1086.17" y1="425" x2="1192.36" y2="582.23"/><line class="cls-1" x1="1410.14" y1="83.64" x2="1516.32" y2="240.87"/><line class="cls-1" x1="1474.93" y1="15.36" x2="1581.11" y2="172.59"/><line class="cls-1" x1="1377.74" y1="117.77" x2="1483.93" y2="275"/><line class="cls-1" x1="1442.53" y1="49.5" x2="1548.72" y2="206.73"/><line class="cls-1" x1="1489.49" y1="0.02" x2="1595.67" y2="157.24"/><line class="cls-1" x1="1424.7" y1="68.3" x2="1530.88" y2="225.53"/><line class="cls-1" x1="1167.27" y1="643.24" x2="1273.46" y2="800.47"/><line class="cls-1" x1="1310.37" y1="492.46" x2="1416.55" y2="649.69"/><line class="cls-1" x1="1231.57" y1="575.49" x2="1337.76" y2="732.72"/><line class="cls-1" x1="974.2" y1="1156.4" x2="1080.39" y2="1313.63"/><line class="cls-1" x1="1167.25" y1="952.98" x2="1273.43" y2="1110.21"/><line class="cls-1" x1="1244.47" y1="871.62" x2="1350.65" y2="1028.85"/><line class="cls-1" x1="935.6" y1="1197.08" x2="1041.78" y2="1354.31"/><line class="cls-1" x1="1156.04" y1="1280.06" x2="1262.22" y2="1437.29"/><line class="cls-1" x1="1480.01" y1="938.7" x2="1586.18" y2="1095.92"/><line class="cls-1" x1="1577.19" y1="836.28" x2="1683.38" y2="993.51"/><line class="cls-1" x1="1415.21" y1="1006.97" x2="1521.4" y2="1164.19"/><line class="cls-1" x1="1382.81" y1="1041.11" x2="1489" y2="1198.33"/><line class="cls-1" x1="1363.43" y1="1063.59" x2="1469.62" y2="1220.81"/><line class="cls-1" x1="1341.79" y1="1088.69" x2="1447.98" y2="1245.92"/><line class="cls-1" x1="1220.83" y1="1211.79" x2="1327.02" y2="1369.02"/><line class="cls-1" x1="1237.96" y1="1191.93" x2="1344.13" y2="1349.16"/><line class="cls-1" x1="1253.46" y1="1173.94" x2="1359.64" y2="1331.17"/><line class="cls-1" x1="1123.65" y1="1314.2" x2="1229.83" y2="1471.43"/><line class="cls-1" x1="1512.4" y1="904.55" x2="1618.58" y2="1061.78"/><line class="cls-1" x1="1495.19" y1="297.71" x2="1601.37" y2="454.94"/><line class="cls-1" x1="1534.57" y1="256.21" x2="1640.75" y2="413.44"/><line class="cls-1" x1="1450.18" y1="345.14" x2="1556.36" y2="502.37"/><line class="cls-1" x1="1405.17" y1="392.57" x2="1511.35" y2="549.8"/><line class="cls-1" x1="1585.2" y1="202.86" x2="1691.39" y2="360.09"/><line class="cls-1" x1="1321.68" y1="790.25" x2="1427.87" y2="947.48"/><line class="cls-1" x1="1342.04" y1="766.64" x2="1448.21" y2="923.87"/><line class="cls-1" x1="1398.9" y1="708.88" x2="1505.09" y2="866.11"/><line class="cls-1" x1="1383.4" y1="726.87" x2="1489.58" y2="884.1"/><line class="cls-1" x1="1364.34" y1="748.98" x2="1470.53" y2="906.21"/><line class="cls-1" x1="1663.59" y1="745.25" x2="1769.76" y2="902.48"/><line class="cls-1" x1="1682.78" y1="725.02" x2="1788.96" y2="882.25"/><line class="cls-1" x1="1605.99" y1="805.94" x2="1712.17" y2="963.17"/><line class="cls-1" x1="1634.79" y1="775.6" x2="1740.97" y2="932.82"/><line class="cls-1" x1="1437.51" y1="668.21" x2="1543.69" y2="825.44"/><line class="cls-1" x1="1514.73" y1="586.84" x2="1620.91" y2="744.07"/><line class="cls-1" x1="1476.12" y1="627.52" x2="1582.3" y2="784.75"/><line class="cls-1" x1="1534.03" y1="566.49" x2="1640.22" y2="723.72"/><line class="cls-1" x1="1591.95" y1="505.47" x2="1698.13" y2="662.7"/><line class="cls-1" x1="1669.16" y1="424.11" x2="1775.35" y2="581.33"/><line class="cls-1" x1="1630.55" y1="464.79" x2="1736.74" y2="622.02"/><line class="cls-1" x1="1572.64" y1="525.81" x2="1678.83" y2="683.04"/><line class="cls-1" x1="1649.86" y1="444.45" x2="1756.04" y2="601.68"/><line class="cls-1" x1="1409.24" y1="1330.76" x2="1515.42" y2="1487.99"/><line class="cls-1" x1="1279.65" y1="1467.31" x2="1385.83" y2="1624.54"/><line class="cls-1" x1="1603.61" y1="1125.94" x2="1709.8" y2="1283.17"/><line class="cls-1" x1="1214.86" y1="1535.58" x2="1321.04" y2="1692.81"/><line class="cls-1" x1="1182.46" y1="1569.71" x2="1288.65" y2="1726.94"/><line class="cls-1" x1="1166.63" y1="1588.08" x2="1272.82" y2="1745.31"/><line class="cls-1" x1="1474.03" y1="1262.49" x2="1580.21" y2="1419.72"/><line class="cls-1" x1="1538.82" y1="1194.21" x2="1645.01" y2="1351.44"/><line class="cls-1" x1="1344.44" y1="1399.03" x2="1450.63" y2="1556.26"/><line class="cls-1" x1="1636.01" y1="1091.8" x2="1742.19" y2="1249.03"/><line class="cls-1" x1="1668.4" y1="1057.67" x2="1774.59" y2="1214.89"/><line class="cls-1" x1="1441.63" y1="1296.62" x2="1547.81" y2="1453.85"/><line class="cls-1" x1="1517.69" y1="274" x2="1623.87" y2="431.23"/><line class="cls-1" x1="1568.33" y1="220.65" x2="1674.51" y2="377.88"/><line class="cls-1" x1="1472.68" y1="321.43" x2="1578.87" y2="478.65"/><line class="cls-1" x1="1423.47" y1="373.29" x2="1529.65" y2="530.52"/><line class="cls-1" x1="1436.73" y1="359.31" x2="1542.91" y2="516.54"/><line class="cls-1" x1="1551.45" y1="238.43" x2="1657.63" y2="395.66"/><line class="cls-1" x1="1249.08" y1="557.04" x2="1355.26" y2="714.27"/><line class="cls-1" x1="1063.98" y1="1993.43" x2="1170.15" y2="2150.66"/><line class="cls-1" x1="999.67" y1="2061.18" x2="1105.86" y2="2218.41"/><line class="cls-1" x1="838.93" y1="2230.56" x2="945.12" y2="2387.79"/><line class="cls-1" x1="1160.42" y1="1891.8" x2="1266.61" y2="2049.03"/><line class="cls-1" x1="1224.71" y1="1824.05" x2="1330.9" y2="1981.28"/><line class="cls-1" x1="935.38" y1="2128.93" x2="1041.56" y2="2286.16"/><line class="cls-1" x1="1128.27" y1="1925.68" x2="1234.46" y2="2082.91"/><line class="cls-1" x1="992.32" y1="2387.42" x2="1098.49" y2="2544.65"/><line class="cls-1" x1="1063.95" y1="2303.17" x2="1170.13" y2="2460.4"/><line class="cls-1" x1="1141.17" y1="2221.8" x2="1247.35" y2="2379.03"/><line class="cls-1" x1="1052.74" y1="2630.25" x2="1158.93" y2="2787.48"/><line class="cls-1" x1="1376.7" y1="2288.87" x2="1482.89" y2="2446.1"/><line class="cls-1" x1="1473.89" y1="2186.46" x2="1580.08" y2="2343.69"/><line class="cls-1" x1="1311.91" y1="2357.15" x2="1418.1" y2="2514.38"/><line class="cls-1" x1="1279.52" y1="2391.29" x2="1385.7" y2="2548.51"/><line class="cls-1" x1="1020.34" y1="2664.38" x2="1126.53" y2="2821.61"/><line class="cls-1" x1="1409.1" y1="2254.74" x2="1515.29" y2="2411.97"/><line class="cls-1" x1="1617.88" y1="2034.75" x2="1724.06" y2="2191.98"/><line class="cls-1" x1="1391.89" y1="1647.9" x2="1498.07" y2="1805.13"/><line class="cls-1" x1="1436.9" y1="1600.47" x2="1543.08" y2="1757.7"/><line class="cls-1" x1="1256.86" y1="1790.17" x2="1363.05" y2="1947.4"/><line class="cls-1" x1="1346.88" y1="1695.33" x2="1453.06" y2="1852.55"/><line class="cls-1" x1="1301.87" y1="1742.75" x2="1408.05" y2="1899.98"/><line class="cls-1" x1="1481.9" y1="1553.05" x2="1588.09" y2="1710.28"/><line class="cls-1" x1="1218.39" y1="2140.43" x2="1324.57" y2="2297.66"/><line class="cls-1" x1="1295.6" y1="2059.07" x2="1401.79" y2="2216.3"/><line class="cls-1" x1="1560.28" y1="2095.44" x2="1666.47" y2="2252.66"/><line class="cls-1" x1="1656.27" y1="1994.29" x2="1762.46" y2="2151.52"/><line class="cls-1" x1="1579.48" y1="2075.2" x2="1685.66" y2="2232.43"/><line class="cls-1" x1="1502.69" y1="2156.12" x2="1608.88" y2="2313.35"/><line class="cls-1" x1="1598.68" y1="2054.98" x2="1704.86" y2="2212.21"/><line class="cls-1" x1="1531.48" y1="2125.78" x2="1637.67" y2="2283.01"/><line class="cls-1" x1="1334.21" y1="2018.39" x2="1440.4" y2="2175.62"/><line class="cls-1" x1="1372.82" y1="1977.7" x2="1479" y2="2134.93"/><line class="cls-1" x1="1430.73" y1="1916.68" x2="1536.92" y2="2073.91"/><line class="cls-1" x1="1488.65" y1="1855.66" x2="1594.83" y2="2012.88"/><line class="cls-1" x1="1565.86" y1="1774.29" x2="1672.05" y2="1931.52"/><line class="cls-1" x1="1527.26" y1="1814.97" x2="1633.44" y2="1972.2"/><line class="cls-1" x1="1585.17" y1="1753.95" x2="1691.35" y2="1911.18"/><line class="cls-1" x1="1469.34" y1="1876" x2="1575.53" y2="2033.23"/><line class="cls-1" x1="1546.56" y1="1794.63" x2="1652.74" y2="1951.86"/><line class="cls-1" x1="1604.47" y1="1733.61" x2="1710.66" y2="1890.84"/><line class="cls-1" x1="1305.94" y1="2680.94" x2="1412.12" y2="2838.17"/><line class="cls-1" x1="1176.35" y1="2817.49" x2="1282.53" y2="2974.72"/><line class="cls-1" x1="1500.32" y1="2476.13" x2="1606.49" y2="2633.35"/><line class="cls-1" x1="1597.5" y1="2373.72" x2="1703.69" y2="2530.94"/><line class="cls-1" x1="1111.56" y1="2885.76" x2="1217.74" y2="3042.99"/><line class="cls-1" x1="1079.16" y1="2919.9" x2="1185.35" y2="3077.13"/><line class="cls-1" x1="1370.72" y1="2612.67" x2="1476.91" y2="2769.9"/><line class="cls-1" x1="1435.52" y1="2544.4" x2="1541.71" y2="2701.63"/><line class="cls-1" x1="1532.71" y1="2441.99" x2="1638.89" y2="2599.21"/><line class="cls-1" x1="1565.1" y1="2407.85" x2="1671.29" y2="2565.08"/><line class="cls-1" x1="1338.33" y1="2646.81" x2="1444.51" y2="2804.04"/><line class="cls-1" x1="1662.3" y1="2305.44" x2="1768.48" y2="2462.67"/><line class="cls-1" x1="1629.9" y1="2339.58" x2="1736.09" y2="2496.8"/><line class="cls-1" x1="1676.85" y1="2290.1" x2="1783.04" y2="2447.33"/><line class="cls-1" x1="1637.08" y1="2014.52" x2="1743.26" y2="2171.75"/><line class="cls-1" x1="1674.87" y1="1973.17" x2="1781.06" y2="2130.4"/><line class="cls-1" x1="1414.39" y1="1624.18" x2="1520.58" y2="1781.41"/><line class="cls-1" x1="1369.38" y1="1671.61" x2="1475.57" y2="1828.84"/><line class="cls-1" x1="1320.17" y1="1723.48" x2="1426.35" y2="1880.7"/><line class="cls-1" x1="830.83" y1="1611.17" x2="937.02" y2="1768.4"/><line class="cls-1" x1="895.62" y1="1542.89" x2="1001.81" y2="1700.12"/><line class="cls-1" x1="798.44" y1="1645.31" x2="904.62" y2="1802.53"/><line class="cls-1" x1="1504.93" y1="1535.62" x2="1611.12" y2="1692.85"/><line class="cls-1" x1="1549.93" y1="1488.19" x2="1656.12" y2="1645.42"/><line class="cls-1" x1="1527.44" y1="1511.9" x2="1633.62" y2="1669.13"/><line class="cls-1" x1="1568.63" y1="1466.67" x2="1674.82" y2="1623.9"/><line class="cls-1" x1="1613.64" y1="1419.24" x2="1719.82" y2="1576.47"/><line class="cls-1" x1="1591.14" y1="1442.96" x2="1697.32" y2="1600.19"/><line class="cls-1" x1="1618.84" y1="1723.51" x2="1725.03" y2="1880.74"/><line class="cls-1" x1="1663.85" y1="1676.08" x2="1770.03" y2="1833.31"/><line class="cls-1" x1="1641.35" y1="1699.8" x2="1747.53" y2="1857.02"/><line class="cls-1" x1="1262.72" y1="3057.82" x2="1368.9" y2="3215.05"/><line class="cls-1" x1="1198.42" y1="3125.58" x2="1304.61" y2="3282.81"/><line class="cls-1" x1="1037.68" y1="3294.96" x2="1143.86" y2="3452.19"/><line class="cls-1" x1="1359.17" y1="2956.2" x2="1465.35" y2="3113.43"/><line class="cls-1" x1="1423.46" y1="2888.45" x2="1529.65" y2="3045.68"/><line class="cls-1" x1="941.23" y1="3396.58" x2="1047.42" y2="3553.81"/><line class="cls-1" x1="1134.13" y1="3193.33" x2="1240.31" y2="3350.56"/><line class="cls-1" x1="1005.54" y1="3328.83" x2="1111.71" y2="3486.06"/><line class="cls-1" x1="1327.02" y1="2990.08" x2="1433.2" y2="3147.31"/><line class="cls-1" x1="1069.66" y1="3570.98" x2="1175.84" y2="3728.21"/><line class="cls-1" x1="1262.7" y1="3367.56" x2="1368.88" y2="3524.79"/><line class="cls-1" x1="1339.92" y1="3286.2" x2="1446.1" y2="3443.43"/><line class="cls-1" x1="1031.05" y1="3611.67" x2="1137.23" y2="3768.89"/><line class="cls-1" x1="1251.49" y1="3694.64" x2="1357.68" y2="3851.87"/><line class="cls-1" x1="1575.45" y1="3353.27" x2="1681.64" y2="3510.5"/><line class="cls-1" x1="1672.64" y1="3250.86" x2="1778.83" y2="3408.09"/><line class="cls-1" x1="1510.66" y1="3421.55" x2="1616.84" y2="3578.77"/><line class="cls-1" x1="1478.27" y1="3455.69" x2="1584.45" y2="3612.91"/><line class="cls-1" x1="1316.29" y1="3626.37" x2="1422.46" y2="3783.6"/><line class="cls-1" x1="1219.09" y1="3728.78" x2="1325.28" y2="3886.01"/><line class="cls-1" x1="1607.85" y1="3319.13" x2="1714.04" y2="3476.37"/><line class="cls-1" x1="1590.64" y1="2712.29" x2="1696.82" y2="2869.52"/><line class="cls-1" x1="1635.65" y1="2664.87" x2="1741.83" y2="2822.1"/><line class="cls-1" x1="1455.61" y1="2854.57" x2="1561.8" y2="3011.8"/><line class="cls-1" x1="1545.63" y1="2759.72" x2="1651.81" y2="2916.95"/><line class="cls-1" x1="1500.62" y1="2807.15" x2="1606.8" y2="2964.38"/><line class="cls-1" x1="1680.65" y1="2617.45" x2="1786.84" y2="2774.68"/><line class="cls-1" x1="1417.14" y1="3204.83" x2="1523.32" y2="3362.06"/><line class="cls-1" x1="1494.35" y1="3123.47" x2="1600.54" y2="3280.7"/><line class="cls-1" x1="1532.96" y1="3082.79" x2="1639.15" y2="3240.02"/><line class="cls-1" x1="1610.17" y1="3001.42" x2="1716.36" y2="3158.65"/><line class="cls-1" x1="1571.57" y1="3042.1" x2="1677.75" y2="3199.33"/><line class="cls-1" x1="1629.48" y1="2981.08" x2="1735.67" y2="3138.31"/><line class="cls-1" x1="1668.09" y1="2940.4" x2="1774.28" y2="3097.63"/><line class="cls-1" x1="1504.68" y1="3745.34" x2="1610.87" y2="3902.57"/><line class="cls-1" x1="1375.1" y1="3881.89" x2="1481.28" y2="4039.12"/><line class="cls-1" x1="1310.31" y1="3950.16" x2="1416.49" y2="4107.39"/><line class="cls-1" x1="1277.91" y1="3984.3" x2="1384.09" y2="4141.53"/><line class="cls-1" x1="1569.47" y1="3677.07" x2="1675.66" y2="3834.3"/><line class="cls-1" x1="1634.27" y1="3608.8" x2="1740.45" y2="3766.03"/><line class="cls-1" x1="1439.89" y1="3813.62" x2="1546.08" y2="3970.85"/><line class="cls-1" x1="1537.08" y1="3711.21" x2="1643.26" y2="3868.44"/><line class="cls-1" x1="1613.14" y1="2688.58" x2="1719.33" y2="2845.81"/><line class="cls-1" x1="1658.14" y1="2641.16" x2="1764.33" y2="2798.39"/><line class="cls-1" x1="1568.13" y1="2736.01" x2="1674.32" y2="2893.24"/><line class="cls-1" x1="1518.92" y1="2787.87" x2="1625.1" y2="2945.1"/><line class="cls-1" x1="1340.78" y1="4807.32" x2="1446.97" y2="4964.55"/><line class="cls-1" x1="1231.44" y1="4931.87" x2="1337.62" y2="5089.1"/><line class="cls-1" x1="1535.16" y1="4602.5" x2="1641.35" y2="4759.72"/><line class="cls-1" x1="1632.36" y1="4500.08" x2="1738.54" y2="4657.31"/><line class="cls-1" x1="1146.41" y1="5012.14" x2="1252.59" y2="5169.37"/><line class="cls-1" x1="1114.01" y1="5046.27" x2="1220.19" y2="5203.5"/><line class="cls-1" x1="1098.19" y1="5064.64" x2="1204.37" y2="5221.87"/><line class="cls-1" x1="1405.58" y1="4739.05" x2="1511.77" y2="4896.28"/><line class="cls-1" x1="1470.38" y1="4670.77" x2="1576.55" y2="4828"/><line class="cls-1" x1="1276" y1="4875.59" x2="1382.18" y2="5032.82"/><line class="cls-1" x1="1567.56" y1="4568.36" x2="1673.75" y2="4725.59"/><line class="cls-1" x1="1599.96" y1="4534.22" x2="1706.15" y2="4691.45"/><line class="cls-1" x1="1373.18" y1="4773.18" x2="1479.37" y2="4930.41"/><line class="cls-1" x1="1664.75" y1="4465.95" x2="1770.93" y2="4623.18"/><line class="cls-1" x1="1311.13" y1="4245.13" x2="1417.32" y2="4402.36"/><line class="cls-1" x1="1408.32" y1="4142.72" x2="1514.51" y2="4299.95"/><line class="cls-1" x1="1246.34" y1="4313.4" x2="1352.53" y2="4470.63"/><line class="cls-1" x1="1213.94" y1="4347.54" x2="1320.13" y2="4504.77"/><line class="cls-1" x1="1194.56" y1="4370.02" x2="1300.75" y2="4527.25"/><line class="cls-1" x1="1172.92" y1="4395.13" x2="1279.11" y2="4552.36"/><line class="cls-1" x1="1343.53" y1="4210.99" x2="1449.71" y2="4368.22"/><line class="cls-1" x1="1552.3" y1="3991.01" x2="1658.49" y2="4148.23"/><line class="cls-1" x1="1494.71" y1="4051.69" x2="1600.9" y2="4208.92"/><line class="cls-1" x1="1590.7" y1="3950.54" x2="1696.88" y2="4107.77"/><line class="cls-1" x1="1513.91" y1="4031.46" x2="1620.1" y2="4188.69"/><line class="cls-1" x1="1628.5" y1="3909.19" x2="1734.68" y2="4066.42"/><line class="cls-1" x1="1437.12" y1="4112.38" x2="1543.3" y2="4269.6"/><line class="cls-1" x1="1533.11" y1="4011.23" x2="1639.29" y2="4168.46"/><line class="cls-1" x1="1465.92" y1="4082.03" x2="1572.1" y2="4239.26"/><line class="cls-1" x1="1666.9" y1="3868.74" x2="1773.08" y2="4025.97"/><line class="cls-1" x1="1571.5" y1="3970.77" x2="1677.69" y2="4128"/><line class="cls-1" x1="1609.3" y1="3929.42" x2="1715.48" y2="4086.65"/><line class="cls-1" x1="1647.7" y1="3888.96" x2="1753.88" y2="4046.19"/><line class="cls-1" x1="1167.27" y1="643.24" x2="1273.46" y2="800.47"/><line class="cls-1" x1="1310.37" y1="492.46" x2="1416.55" y2="649.69"/><line class="cls-1" x1="1231.57" y1="575.49" x2="1337.76" y2="732.72"/><line class="cls-1" x1="974.2" y1="1156.4" x2="1080.39" y2="1313.63"/><line class="cls-1" x1="1167.25" y1="952.98" x2="1273.43" y2="1110.21"/><line class="cls-1" x1="1244.47" y1="871.62" x2="1350.65" y2="1028.85"/><line class="cls-1" x1="935.6" y1="1197.08" x2="1041.78" y2="1354.31"/><line class="cls-1" x1="1156.04" y1="1280.06" x2="1262.22" y2="1437.29"/><line class="cls-1" x1="1480.01" y1="938.7" x2="1586.18" y2="1095.92"/><line class="cls-1" x1="1577.19" y1="836.28" x2="1683.38" y2="993.51"/><line class="cls-1" x1="1415.21" y1="1006.97" x2="1521.4" y2="1164.19"/><line class="cls-1" x1="1382.81" y1="1041.11" x2="1489" y2="1198.33"/><line class="cls-1" x1="1363.43" y1="1063.59" x2="1469.62" y2="1220.81"/><line class="cls-1" x1="1341.79" y1="1088.69" x2="1447.98" y2="1245.92"/><line class="cls-1" x1="1220.83" y1="1211.79" x2="1327.02" y2="1369.02"/><line class="cls-1" x1="1237.96" y1="1191.93" x2="1344.13" y2="1349.16"/><line class="cls-1" x1="1253.46" y1="1173.94" x2="1359.64" y2="1331.17"/><line class="cls-1" x1="1123.65" y1="1314.2" x2="1229.83" y2="1471.43"/><line class="cls-1" x1="1512.4" y1="904.55" x2="1618.58" y2="1061.78"/><line class="cls-1" x1="1495.19" y1="297.71" x2="1601.37" y2="454.94"/><line class="cls-1" x1="1534.57" y1="256.21" x2="1640.75" y2="413.44"/><line class="cls-1" x1="1450.18" y1="345.14" x2="1556.36" y2="502.37"/><line class="cls-1" x1="1405.17" y1="392.57" x2="1511.35" y2="549.8"/><line class="cls-1" x1="1585.2" y1="202.86" x2="1691.39" y2="360.09"/><line class="cls-1" x1="1321.68" y1="790.25" x2="1427.87" y2="947.48"/><line class="cls-1" x1="1342.04" y1="766.64" x2="1448.21" y2="923.87"/><line class="cls-1" x1="1398.9" y1="708.88" x2="1505.09" y2="866.11"/><line class="cls-1" x1="1383.4" y1="726.87" x2="1489.58" y2="884.1"/><line class="cls-1" x1="1364.34" y1="748.98" x2="1470.53" y2="906.21"/><line class="cls-1" x1="1663.59" y1="745.25" x2="1769.76" y2="902.48"/><line class="cls-1" x1="1682.78" y1="725.02" x2="1788.96" y2="882.25"/><line class="cls-1" x1="1605.99" y1="805.94" x2="1712.17" y2="963.17"/><line class="cls-1" x1="1634.79" y1="775.6" x2="1740.97" y2="932.82"/><line class="cls-1" x1="1437.51" y1="668.21" x2="1543.69" y2="825.44"/><line class="cls-1" x1="1514.73" y1="586.84" x2="1620.91" y2="744.07"/><line class="cls-1" x1="1476.12" y1="627.52" x2="1582.3" y2="784.75"/><line class="cls-1" x1="1534.03" y1="566.49" x2="1640.22" y2="723.72"/><line class="cls-1" x1="1591.95" y1="505.47" x2="1698.13" y2="662.7"/><line class="cls-1" x1="1669.16" y1="424.11" x2="1775.35" y2="581.33"/><line class="cls-1" x1="1630.55" y1="464.79" x2="1736.74" y2="622.02"/><line class="cls-1" x1="1572.64" y1="525.81" x2="1678.83" y2="683.04"/><line class="cls-1" x1="1649.86" y1="444.45" x2="1756.04" y2="601.68"/><line class="cls-1" x1="1409.24" y1="1330.76" x2="1515.42" y2="1487.99"/><line class="cls-1" x1="1279.65" y1="1467.31" x2="1385.83" y2="1624.54"/><line class="cls-1" x1="1603.61" y1="1125.94" x2="1709.8" y2="1283.17"/><line class="cls-1" x1="1214.86" y1="1535.58" x2="1321.04" y2="1692.81"/><line class="cls-1" x1="1182.46" y1="1569.71" x2="1288.65" y2="1726.94"/><line class="cls-1" x1="1166.63" y1="1588.08" x2="1272.82" y2="1745.31"/><line class="cls-1" x1="1474.03" y1="1262.49" x2="1580.21" y2="1419.72"/><line class="cls-1" x1="1538.82" y1="1194.21" x2="1645.01" y2="1351.44"/><line class="cls-1" x1="1344.44" y1="1399.03" x2="1450.63" y2="1556.26"/><line class="cls-1" x1="1636.01" y1="1091.8" x2="1742.19" y2="1249.03"/><line class="cls-1" x1="1668.4" y1="1057.67" x2="1774.59" y2="1214.89"/><line class="cls-1" x1="1441.63" y1="1296.62" x2="1547.81" y2="1453.85"/><line class="cls-1" x1="1517.69" y1="274" x2="1623.87" y2="431.23"/><line class="cls-1" x1="1568.33" y1="220.65" x2="1674.51" y2="377.88"/><line class="cls-1" x1="1472.68" y1="321.43" x2="1578.87" y2="478.65"/><line class="cls-1" x1="1423.47" y1="373.29" x2="1529.65" y2="530.52"/><line class="cls-1" x1="1436.73" y1="359.31" x2="1542.91" y2="516.54"/><line class="cls-1" x1="1551.45" y1="238.43" x2="1657.63" y2="395.66"/><line class="cls-1" x1="1249.08" y1="557.04" x2="1355.26" y2="714.27"/><line class="cls-1" x1="1063.98" y1="1993.43" x2="1170.15" y2="2150.66"/><line class="cls-1" x1="999.67" y1="2061.18" x2="1105.86" y2="2218.41"/><line class="cls-1" x1="838.93" y1="2230.56" x2="945.12" y2="2387.79"/><line class="cls-1" x1="1160.42" y1="1891.8" x2="1266.61" y2="2049.03"/><line class="cls-1" x1="1224.71" y1="1824.05" x2="1330.9" y2="1981.28"/><line class="cls-1" x1="935.38" y1="2128.93" x2="1041.56" y2="2286.16"/><line class="cls-1" x1="1128.27" y1="1925.68" x2="1234.46" y2="2082.91"/><line class="cls-1" x1="992.32" y1="2387.42" x2="1098.49" y2="2544.65"/><line class="cls-1" x1="1063.95" y1="2303.17" x2="1170.13" y2="2460.4"/><line class="cls-1" x1="1141.17" y1="2221.8" x2="1247.35" y2="2379.03"/><line class="cls-1" x1="1052.74" y1="2630.25" x2="1158.93" y2="2787.48"/><line class="cls-1" x1="1376.7" y1="2288.87" x2="1482.89" y2="2446.1"/><line class="cls-1" x1="1473.89" y1="2186.46" x2="1580.08" y2="2343.69"/><line class="cls-1" x1="1311.91" y1="2357.15" x2="1418.1" y2="2514.38"/><line class="cls-1" x1="1279.52" y1="2391.29" x2="1385.7" y2="2548.51"/><line class="cls-1" x1="1112.29" y1="2565.72" x2="1218.47" y2="2722.95"/><line class="cls-1" x1="838.98" y1="2743.82" x2="945.17" y2="2901.05"/><line class="cls-1" x1="1409.1" y1="2254.74" x2="1515.29" y2="2411.97"/><line class="cls-1" x1="1617.88" y1="2034.75" x2="1724.06" y2="2191.98"/><line class="cls-1" x1="1391.89" y1="1647.9" x2="1498.07" y2="1805.13"/><line class="cls-1" x1="1436.9" y1="1600.47" x2="1543.08" y2="1757.7"/><line class="cls-1" x1="1256.86" y1="1790.17" x2="1363.05" y2="1947.4"/><line class="cls-1" x1="1346.88" y1="1695.33" x2="1453.06" y2="1852.55"/><line class="cls-1" x1="1301.87" y1="1742.75" x2="1408.05" y2="1899.98"/><line class="cls-1" x1="1481.9" y1="1553.05" x2="1588.09" y2="1710.28"/><line class="cls-1" x1="1218.39" y1="2140.43" x2="1324.57" y2="2297.66"/><line class="cls-1" x1="1295.6" y1="2059.07" x2="1401.79" y2="2216.3"/><line class="cls-1" x1="1560.28" y1="2095.44" x2="1666.47" y2="2252.66"/><line class="cls-1" x1="1656.27" y1="1994.29" x2="1762.46" y2="2151.52"/><line class="cls-1" x1="1579.48" y1="2075.2" x2="1685.66" y2="2232.43"/><line class="cls-1" x1="1502.69" y1="2156.12" x2="1608.88" y2="2313.35"/><line class="cls-1" x1="1598.68" y1="2054.98" x2="1704.86" y2="2212.21"/><line class="cls-1" x1="1531.48" y1="2125.78" x2="1637.67" y2="2283.01"/><line class="cls-1" x1="1334.21" y1="2018.39" x2="1440.4" y2="2175.62"/><line class="cls-1" x1="1372.82" y1="1977.7" x2="1479" y2="2134.93"/><line class="cls-1" x1="1427.73" y1="1917.43" x2="1533.92" y2="2074.66"/><line class="cls-1" x1="1488.65" y1="1855.66" x2="1594.83" y2="2012.88"/><line class="cls-1" x1="1565.86" y1="1774.29" x2="1672.05" y2="1931.52"/><line class="cls-1" x1="1527.26" y1="1814.97" x2="1633.44" y2="1972.2"/><line class="cls-1" x1="1585.17" y1="1753.95" x2="1691.35" y2="1911.18"/><line class="cls-1" x1="1469.34" y1="1876" x2="1575.53" y2="2033.23"/><line class="cls-1" x1="1546.56" y1="1794.63" x2="1652.74" y2="1951.86"/><line class="cls-1" x1="1604.47" y1="1733.61" x2="1710.66" y2="1890.84"/><line class="cls-1" x1="1305.94" y1="2680.94" x2="1412.12" y2="2838.17"/><line class="cls-1" x1="1176.35" y1="2817.49" x2="1282.53" y2="2974.72"/><line class="cls-1" x1="1500.32" y1="2476.13" x2="1606.49" y2="2633.35"/><line class="cls-1" x1="1597.5" y1="2373.72" x2="1703.69" y2="2530.94"/><line class="cls-1" x1="1111.56" y1="2885.76" x2="1217.74" y2="3042.99"/><line class="cls-1" x1="1079.16" y1="2919.9" x2="1185.35" y2="3077.13"/><line class="cls-1" x1="1370.72" y1="2612.67" x2="1476.91" y2="2769.9"/><line class="cls-1" x1="1435.52" y1="2544.4" x2="1541.71" y2="2701.63"/><line class="cls-1" x1="1532.71" y1="2441.99" x2="1638.89" y2="2599.21"/><line class="cls-1" x1="1565.1" y1="2407.85" x2="1671.29" y2="2565.08"/><line class="cls-1" x1="1338.33" y1="2646.81" x2="1444.51" y2="2804.04"/><line class="cls-1" x1="1662.3" y1="2305.44" x2="1768.48" y2="2462.67"/><line class="cls-1" x1="1629.9" y1="2339.58" x2="1736.09" y2="2496.8"/><line class="cls-1" x1="1676.85" y1="2290.1" x2="1783.04" y2="2447.33"/><line class="cls-1" x1="1637.08" y1="2014.52" x2="1743.26" y2="2171.75"/><line class="cls-1" x1="1674.87" y1="1973.17" x2="1781.06" y2="2130.4"/><line class="cls-1" x1="1414.39" y1="1624.18" x2="1520.58" y2="1781.41"/><line class="cls-1" x1="1369.38" y1="1671.61" x2="1475.57" y2="1828.84"/><line class="cls-1" x1="1320.17" y1="1723.48" x2="1426.35" y2="1880.7"/><line class="cls-1" x1="830.83" y1="1611.17" x2="937.02" y2="1768.4"/><line class="cls-1" x1="895.62" y1="1542.89" x2="1001.81" y2="1700.12"/><line class="cls-1" x1="798.44" y1="1645.31" x2="904.62" y2="1802.53"/><line class="cls-1" x1="1504.93" y1="1535.62" x2="1611.12" y2="1692.85"/><line class="cls-1" x1="1549.93" y1="1488.19" x2="1656.12" y2="1645.42"/><line class="cls-1" x1="1527.44" y1="1511.9" x2="1633.62" y2="1669.13"/><line class="cls-1" x1="1568.63" y1="1466.67" x2="1674.82" y2="1623.9"/><line class="cls-1" x1="1613.64" y1="1419.24" x2="1719.82" y2="1576.47"/><line class="cls-1" x1="1591.14" y1="1442.96" x2="1697.32" y2="1600.19"/><line class="cls-1" x1="1618.84" y1="1723.51" x2="1725.03" y2="1880.74"/><line class="cls-1" x1="1663.85" y1="1676.08" x2="1770.03" y2="1833.31"/><line class="cls-1" x1="1641.35" y1="1699.8" x2="1747.53" y2="1857.02"/><line class="cls-1" x1="1502.89" y1="5247.41" x2="1609.07" y2="5404.64"/><line class="cls-1" x1="1438.59" y1="5315.16" x2="1544.78" y2="5472.38"/><line class="cls-1" x1="1277.85" y1="5484.54" x2="1384.03" y2="5641.76"/><line class="cls-1" x1="1599.34" y1="5145.78" x2="1705.52" y2="5303.01"/><line class="cls-1" x1="1663.63" y1="5078.03" x2="1769.82" y2="5235.26"/><line class="cls-1" x1="1181.4" y1="5586.16" x2="1287.59" y2="5743.39"/><line class="cls-1" x1="1392.28" y1="5363.43" x2="1498.46" y2="5520.66"/><line class="cls-1" x1="1245.7" y1="5518.41" x2="1351.88" y2="5675.64"/><line class="cls-1" x1="1567.19" y1="5179.66" x2="1673.37" y2="5336.89"/><line class="cls-1" x1="863.16" y1="5566.46" x2="969.35" y2="5723.69"/><line class="cls-1" x1="1394.95" y1="5658.32" x2="1501.13" y2="5815.55"/><line class="cls-1" x1="1580.08" y1="5475.78" x2="1686.27" y2="5633.01"/><line class="cls-1" x1="824.56" y1="5607.14" x2="930.73" y2="5764.37"/><line class="cls-1" x1="1045" y1="5690.12" x2="1151.18" y2="5847.35"/><line class="cls-1" x1="1109.79" y1="5621.85" x2="1215.97" y2="5779.07"/><line class="cls-1" x1="1012.6" y1="5724.26" x2="1118.79" y2="5881.48"/><line class="cls-1" x1="1657.3" y1="5394.41" x2="1763.48" y2="5551.64"/><line class="cls-1" x1="1168.6" y1="5877.37" x2="1274.79" y2="6034.6"/><line class="cls-1" x1="1103.82" y1="5945.64" x2="1210" y2="6102.87"/><line class="cls-1" x1="1071.42" y1="5979.78" x2="1177.6" y2="6137.01"/><line class="cls-1" x1="1233.4" y1="5809.1" x2="1339.59" y2="5966.33"/><line class="cls-1" x1="1570.97" y1="4275.49" x2="1677.16" y2="4432.71"/><line class="cls-1" x1="1635.77" y1="4207.22" x2="1741.95" y2="4364.44"/><line class="cls-1" x1="1652.88" y1="4187.36" x2="1759.07" y2="4344.58"/><line class="cls-1" x1="1668.39" y1="4169.37" x2="1774.58" y2="4326.59"/><line class="cls-1" x1="1538.58" y1="4309.62" x2="1644.76" y2="4466.85"/><line class="cls-1" x1="1245.76" y1="4606.59" x2="1351.95" y2="4763.82"/><line class="cls-1" x1="1504.94" y1="4333.5" x2="1611.12" y2="4490.73"/><line class="cls-1" x1="1472.54" y1="4367.64" x2="1578.73" y2="4524.87"/><line class="cls-1" x1="1213.37" y1="4640.73" x2="1319.55" y2="4797.96"/><line class="cls-1" x1="1077.86" y1="6242.19" x2="1184.04" y2="6399.42"/><line class="cls-1" x1="1618.47" y1="5742.09" x2="1724.66" y2="5899.32"/><line class="cls-1" x1="1488.89" y1="5878.64" x2="1595.07" y2="6035.86"/><line class="cls-1" x1="1553.68" y1="5810.37" x2="1659.87" y2="5967.59"/><line class="cls-1" x1="1650.87" y1="5707.95" x2="1757.05" y2="5865.18"/><line class="cls-1" x1="1456.49" y1="5912.78" x2="1562.68" y2="6070"/><line class="cls-1" x1="1238.85" y1="5222.5" x2="1345.04" y2="5379.73"/><line class="cls-1" x1="1381.96" y1="5071.72" x2="1488.14" y2="5228.95"/><line class="cls-1" x1="1531.73" y1="5524.22" x2="1637.92" y2="5681.45"/><line class="cls-1" x1="1566.77" y1="4876.97" x2="1672.96" y2="5034.2"/><line class="cls-1" x1="1606.16" y1="4835.48" x2="1712.34" y2="4992.71"/><line class="cls-1" x1="1521.76" y1="4924.4" x2="1627.95" y2="5081.63"/><line class="cls-1" x1="1476.76" y1="4971.83" x2="1582.94" y2="5129.06"/><line class="cls-1" x1="1656.79" y1="4782.12" x2="1762.97" y2="4939.35"/><line class="cls-1" x1="1589.28" y1="4853.26" x2="1695.46" y2="5010.49"/><line class="cls-1" x1="1639.91" y1="4799.91" x2="1746.1" y2="4957.14"/><line class="cls-1" x1="1544.27" y1="4900.68" x2="1650.46" y2="5057.91"/><line class="cls-1" x1="1508.32" y1="4938.57" x2="1614.5" y2="5095.8"/><line class="cls-1" x1="1623.03" y1="4817.69" x2="1729.22" y2="4974.92"/><line class="cls-1" x1="1320.67" y1="5136.3" x2="1426.85" y2="5293.53"/><line class="cls-1" x1="1004.62" y1="5171.79" x2="1110.81" y2="5329.02"/><line class="cls-1" x1="939.83" y1="5240.06" x2="1046.01" y2="5397.29"/><line class="cls-1" x1="907.44" y1="5274.2" x2="1013.62" y2="5431.43"/><line class="cls-1" x1="1069.42" y1="5103.52" x2="1175.6" y2="5260.75"/><line class="cls-1" x1="991.72" y1="4289.12" x2="1097.89" y2="4446.35"/><line class="cls-1" x1="1068.93" y1="4207.75" x2="1175.12" y2="4364.98"/><line class="cls-1" x1="1146.15" y1="4126.39" x2="1252.33" y2="4283.62"/><line class="cls-1" x1="1166.5" y1="4102.78" x2="1272.68" y2="4260.01"/><line class="cls-1" x1="959.6" y1="4885.3" x2="1065.77" y2="5042.52"/><line class="cls-1" x1="1102.69" y1="4734.51" x2="1208.88" y2="4891.74"/><line class="cls-1" x1="1023.89" y1="4817.54" x2="1130.08" y2="4974.77"/><line class="cls-1" x1="1041.4" y1="4799.09" x2="1147.59" y2="4956.32"/><line class="cls-1" x1="1312.54" y1="6382.65" x2="1418.72" y2="6539.88"/><line class="cls-1" x1="1409.73" y1="6280.24" x2="1515.92" y2="6437.47"/><line class="cls-1" x1="1247.75" y1="6450.92" x2="1353.94" y2="6608.15"/><line class="cls-1" x1="1215.35" y1="6485.06" x2="1321.54" y2="6642.29"/><line class="cls-1" x1="1344.94" y1="6348.51" x2="1451.12" y2="6505.74"/><line class="cls-1" x1="1553.71" y1="6128.52" x2="1659.9" y2="6285.75"/><line class="cls-1" x1="1231.44" y1="6152.84" x2="1337.62" y2="6310.07"/><line class="cls-1" x1="1496.12" y1="6189.21" x2="1602.3" y2="6346.44"/><line class="cls-1" x1="1592.11" y1="6088.06" x2="1698.29" y2="6245.29"/><line class="cls-1" x1="1515.32" y1="6168.98" x2="1621.51" y2="6326.21"/><line class="cls-1" x1="1629.91" y1="6046.71" x2="1736.09" y2="6203.94"/><line class="cls-1" x1="1438.52" y1="6249.89" x2="1544.71" y2="6407.12"/><line class="cls-1" x1="1534.52" y1="6148.75" x2="1640.7" y2="6305.98"/><line class="cls-1" x1="1467.33" y1="6219.55" x2="1573.51" y2="6376.78"/><line class="cls-1" x1="1668.31" y1="6006.25" x2="1774.49" y2="6163.48"/><line class="cls-1" x1="1270.05" y1="6112.16" x2="1376.23" y2="6269.39"/><line class="cls-1" x1="1347.27" y1="6030.79" x2="1453.45" y2="6188.02"/><line class="cls-1" x1="1308.66" y1="6071.48" x2="1414.84" y2="6228.71"/><line class="cls-1" x1="1366.57" y1="6010.45" x2="1472.75" y2="6167.68"/><line class="cls-1" x1="1424.48" y1="5949.43" x2="1530.67" y2="6106.66"/><line class="cls-1" x1="1405.18" y1="5969.77" x2="1511.36" y2="6127"/><line class="cls-1" x1="1572.91" y1="6108.29" x2="1679.1" y2="6265.52"/><line class="cls-1" x1="1610.71" y1="6066.94" x2="1716.89" y2="6224.17"/><line class="cls-1" x1="1649.11" y1="6026.48" x2="1755.29" y2="6183.71"/><line class="cls-1" x1="1665.02" y1="6310.87" x2="1771.21" y2="6468.11"/><line class="cls-1" x1="1649.2" y1="6329.24" x2="1755.38" y2="6486.47"/><line class="cls-1" x1="1555.64" y1="6436.39" x2="1661.82" y2="6593.61"/><line class="cls-1" x1="1490.84" y1="6504.66" x2="1597.03" y2="6661.89"/><line class="cls-1" x1="1458.44" y1="6538.8" x2="1564.63" y2="6696.03"/><line class="cls-1" x1="1620.43" y1="6368.12" x2="1726.61" y2="6525.34"/></svg>
