<svg id="Layer_8_copy_3" data-name="Layer 8 copy 3" xmlns="http://www.w3.org/2000/svg" viewBox="0 0 1920 10931"><defs><style>.cls-1{fill:none;stroke:rgba(255,255,255,.03);stroke-linecap:round;stroke-miterlimit:10;stroke-width:13px;}</style></defs><line class="cls-1" x1="762.24" y1="944.46" x2="903.93" y2="1154.25"/><line class="cls-1" x1="865.27" y1="835.89" x2="1006.96" y2="1045.68"/><line class="cls-1" x1="1179.56" y1="925.39" x2="1321.25" y2="1135.18"/><line class="cls-1" x1="1093.11" y1="1016.49" x2="1234.79" y2="1226.29"/><line class="cls-1" x1="1049.88" y1="1062.04" x2="1191.57" y2="1271.84"/><line class="cls-1" x1="833.74" y1="1289.79" x2="975.43" y2="1499.59"/><line class="cls-1" x1="1222.79" y1="879.84" x2="1364.48" y2="1089.63"/><line class="cls-1" x1="1085.13" y1="1448.54" x2="1226.82" y2="1658.34"/><line class="cls-1" x1="1344.5" y1="1175.24" x2="1486.19" y2="1385.04"/><line class="cls-1" x1="1474.18" y1="1038.59" x2="1615.87" y2="1248.39"/><line class="cls-1" x1="1171.59" y1="1357.44" x2="1313.27" y2="1567.24"/><line class="cls-1" x1="1258.04" y1="1266.34" x2="1399.73" y2="1476.14"/><line class="cls-1" x1="1387.73" y1="1129.69" x2="1529.41" y2="1339.49"/><line class="cls-1" x1="1430.96" y1="1084.14" x2="1572.64" y2="1293.94"/><line class="cls-1" x1="1128.36" y1="1402.99" x2="1270.05" y2="1612.79"/><line class="cls-1" x1="1560.64" y1="947.49" x2="1702.33" y2="1157.29"/><line class="cls-1" x1="1647.1" y1="856.39" x2="1788.78" y2="1066.18"/><line class="cls-1" x1="1517.41" y1="993.04" x2="1659.1" y2="1202.84"/><line class="cls-1" x1="1603.87" y1="901.94" x2="1745.56" y2="1111.74"/><line class="cls-1" x1="1666.52" y1="835.92" x2="1808.21" y2="1045.71"/><line class="cls-1" x1="1580.07" y1="927.02" x2="1721.75" y2="1136.82"/><line class="cls-1" x1="1236.57" y1="1694.2" x2="1378.26" y2="1904"/><line class="cls-1" x1="1427.51" y1="1493" x2="1569.2" y2="1702.8"/><line class="cls-1" x1="1322.37" y1="1603.8" x2="1464.06" y2="1813.6"/><line class="cls-1" x1="978.95" y1="2378.93" x2="1120.64" y2="2588.73"/><line class="cls-1" x1="1236.54" y1="2107.5" x2="1378.23" y2="2317.3"/><line class="cls-1" x1="1339.58" y1="1998.93" x2="1481.27" y2="2208.73"/><line class="cls-1" x1="927.44" y1="2433.22" x2="1069.12" y2="2643.01"/><line class="cls-1" x1="1221.59" y1="2543.94" x2="1363.27" y2="2753.74"/><line class="cls-1" x1="1653.87" y1="2088.44" x2="1795.55" y2="2298.23"/><line class="cls-1" x1="1783.55" y1="1951.78" x2="1925.24" y2="2161.58"/><line class="cls-1" x1="1567.41" y1="2179.54" x2="1709.1" y2="2389.33"/><line class="cls-1" x1="1524.18" y1="2225.09" x2="1665.87" y2="2434.88"/><line class="cls-1" x1="1498.32" y1="2255.09" x2="1640.01" y2="2464.88"/><line class="cls-1" x1="1469.44" y1="2288.59" x2="1611.13" y2="2498.38"/><line class="cls-1" x1="1308.04" y1="2452.84" x2="1449.73" y2="2662.64"/><line class="cls-1" x1="1330.89" y1="2426.34" x2="1472.57" y2="2636.14"/><line class="cls-1" x1="1351.58" y1="2402.34" x2="1493.26" y2="2612.14"/><line class="cls-1" x1="1178.36" y1="2589.49" x2="1320.05" y2="2799.29"/><line class="cls-1" x1="1697.1" y1="2042.88" x2="1838.78" y2="2252.68"/><line class="cls-1" x1="1674.13" y1="1233.14" x2="1815.81" y2="1442.94"/><line class="cls-1" x1="1726.68" y1="1177.77" x2="1868.36" y2="1387.57"/><line class="cls-1" x1="1614.07" y1="1296.43" x2="1755.76" y2="1506.23"/><line class="cls-1" x1="1554.01" y1="1359.71" x2="1695.7" y2="1569.51"/><line class="cls-1" x1="1794.24" y1="1106.58" x2="1935.93" y2="1316.38"/><line class="cls-1" x1="1442.61" y1="1890.36" x2="1584.3" y2="2100.16"/><line class="cls-1" x1="1469.77" y1="1858.86" x2="1611.45" y2="2068.66"/><line class="cls-1" x1="1545.65" y1="1781.79" x2="1687.34" y2="1991.59"/><line class="cls-1" x1="1524.96" y1="1805.79" x2="1666.65" y2="2015.59"/><line class="cls-1" x1="1499.53" y1="1835.29" x2="1641.22" y2="2045.09"/><line class="cls-1" x1="1898.83" y1="1830.32" x2="2040.51" y2="2040.11"/><line class="cls-1" x1="1924.44" y1="1803.32" x2="2066.13" y2="2013.12"/><line class="cls-1" x1="1821.98" y1="1911.29" x2="1963.66" y2="2121.09"/><line class="cls-1" x1="1860.4" y1="1870.81" x2="2002.09" y2="2080.6"/><line class="cls-1" x1="1597.17" y1="1727.51" x2="1738.85" y2="1937.31"/><line class="cls-1" x1="1700.2" y1="1618.94" x2="1841.89" y2="1828.74"/><line class="cls-1" x1="1648.68" y1="1673.22" x2="1790.37" y2="1883.02"/><line class="cls-1" x1="1725.96" y1="1591.79" x2="1867.65" y2="1801.59"/><line class="cls-1" x1="1803.24" y1="1510.37" x2="1944.92" y2="1720.16"/><line class="cls-1" x1="1906.27" y1="1401.8" x2="2047.96" y2="1611.59"/><line class="cls-1" x1="1854.75" y1="1456.08" x2="1996.44" y2="1665.88"/><line class="cls-1" x1="1777.48" y1="1537.51" x2="1919.17" y2="1747.31"/><line class="cls-1" x1="1880.51" y1="1428.94" x2="2022.2" y2="1638.74"/><line class="cls-1" x1="1559.44" y1="2611.59" x2="1701.12" y2="2821.39"/><line class="cls-1" x1="1386.52" y1="2793.79" x2="1528.21" y2="3003.59"/><line class="cls-1" x1="1818.8" y1="2338.29" x2="1960.49" y2="2548.09"/><line class="cls-1" x1="1300.07" y1="2884.89" x2="1441.76" y2="3094.69"/><line class="cls-1" x1="1256.84" y1="2930.44" x2="1398.53" y2="3140.24"/><line class="cls-1" x1="1235.72" y1="2954.94" x2="1377.41" y2="3164.74"/><line class="cls-1" x1="1645.89" y1="2520.49" x2="1787.58" y2="2730.29"/><line class="cls-1" x1="1732.35" y1="2429.39" x2="1874.04" y2="2639.19"/><line class="cls-1" x1="1472.98" y1="2702.69" x2="1614.67" y2="2912.49"/><line class="cls-1" x1="1862.03" y1="2292.74" x2="2003.72" y2="2502.54"/><line class="cls-1" x1="1905.26" y1="2247.19" x2="2046.95" y2="2456.98"/><line class="cls-1" x1="1602.66" y1="2566.04" x2="1744.35" y2="2775.84"/><line class="cls-1" x1="1704.15" y1="1201.5" x2="1845.84" y2="1411.3"/><line class="cls-1" x1="1771.72" y1="1130.31" x2="1913.41" y2="1340.11"/><line class="cls-1" x1="1644.1" y1="1264.79" x2="1785.79" y2="1474.58"/><line class="cls-1" x1="1578.43" y1="1333.99" x2="1720.11" y2="1543.79"/><line class="cls-1" x1="1596.12" y1="1315.34" x2="1737.81" y2="1525.14"/><line class="cls-1" x1="1749.2" y1="1154.04" x2="1890.88" y2="1363.84"/><line class="cls-1" x1="1345.74" y1="1579.18" x2="1487.42" y2="1788.98"/><line class="cls-1" x1="1098.74" y1="3495.82" x2="1240.42" y2="3705.62"/><line class="cls-1" x1="1012.94" y1="3586.23" x2="1154.63" y2="3796.03"/><line class="cls-1" x1="798.45" y1="3812.24" x2="940.14" y2="4022.04"/><line class="cls-1" x1="1227.43" y1="3360.22" x2="1369.12" y2="3570.02"/><line class="cls-1" x1="1313.22" y1="3269.81" x2="1454.91" y2="3479.61"/><line class="cls-1" x1="927.15" y1="3676.63" x2="1068.83" y2="3886.43"/><line class="cls-1" x1="1184.53" y1="3405.42" x2="1326.22" y2="3615.22"/><line class="cls-1" x1="1003.12" y1="4021.55" x2="1144.8" y2="4231.35"/><line class="cls-1" x1="1098.71" y1="3909.12" x2="1240.39" y2="4118.92"/><line class="cls-1" x1="1201.74" y1="3800.55" x2="1343.43" y2="4010.35"/><line class="cls-1" x1="1083.75" y1="4345.56" x2="1225.44" y2="4555.36"/><line class="cls-1" x1="1516.03" y1="3890.05" x2="1657.72" y2="4099.85"/><line class="cls-1" x1="1645.71" y1="3753.4" x2="1787.4" y2="3963.2"/><line class="cls-1" x1="1429.57" y1="3981.15" x2="1571.26" y2="4190.95"/><line class="cls-1" x1="1386.35" y1="4026.71" x2="1528.03" y2="4236.5"/><line class="cls-1" x1="1040.52" y1="4391.11" x2="1182.21" y2="4600.91"/><line class="cls-1" x1="1559.26" y1="3844.5" x2="1700.95" y2="4054.3"/><line class="cls-1" x1="1837.84" y1="3550.96" x2="1979.53" y2="3760.76"/><line class="cls-1" x1="1536.29" y1="3034.76" x2="1677.98" y2="3244.56"/><line class="cls-1" x1="1596.35" y1="2971.48" x2="1738.03" y2="3181.28"/><line class="cls-1" x1="1356.12" y1="3224.61" x2="1497.81" y2="3434.41"/><line class="cls-1" x1="1476.23" y1="3098.05" x2="1617.92" y2="3307.84"/><line class="cls-1" x1="1416.18" y1="3161.33" x2="1557.86" y2="3371.13"/><line class="cls-1" x1="1656.4" y1="2908.2" x2="1798.09" y2="3118"/><line class="cls-1" x1="1304.78" y1="3691.98" x2="1446.46" y2="3901.78"/><line class="cls-1" x1="1407.81" y1="3583.41" x2="1549.5" y2="3793.21"/><line class="cls-1" x1="1760.99" y1="3631.94" x2="1902.68" y2="3841.73"/><line class="cls-1" x1="1889.07" y1="3496.97" x2="2030.76" y2="3706.77"/><line class="cls-1" x1="1786.61" y1="3604.94" x2="1928.29" y2="3814.74"/><line class="cls-1" x1="1684.14" y1="3712.91" x2="1825.83" y2="3922.71"/><line class="cls-1" x1="1812.22" y1="3577.95" x2="1953.91" y2="3787.75"/><line class="cls-1" x1="1722.56" y1="3672.42" x2="1864.25" y2="3882.22"/><line class="cls-1" x1="1459.33" y1="3529.13" x2="1601.02" y2="3738.93"/><line class="cls-1" x1="1510.85" y1="3474.84" x2="1652.53" y2="3684.64"/><line class="cls-1" x1="1588.12" y1="3393.41" x2="1729.81" y2="3603.21"/><line class="cls-1" x1="1665.4" y1="3311.99" x2="1807.09" y2="3521.78"/><line class="cls-1" x1="1768.43" y1="3203.42" x2="1910.12" y2="3413.21"/><line class="cls-1" x1="1716.92" y1="3257.7" x2="1858.6" y2="3467.5"/><line class="cls-1" x1="1794.19" y1="3176.27" x2="1935.88" y2="3386.07"/><line class="cls-1" x1="1639.64" y1="3339.13" x2="1781.33" y2="3548.93"/><line class="cls-1" x1="1742.68" y1="3230.56" x2="1884.36" y2="3440.36"/><line class="cls-1" x1="1819.95" y1="3149.13" x2="1961.64" y2="3358.93"/><line class="cls-1" x1="1421.6" y1="4413.21" x2="1563.29" y2="4623.01"/><line class="cls-1" x1="1248.69" y1="4595.41" x2="1390.37" y2="4805.21"/><line class="cls-1" x1="1680.97" y1="4139.91" x2="1822.65" y2="4349.7"/><line class="cls-1" x1="1810.65" y1="4003.26" x2="1952.34" y2="4213.05"/><line class="cls-1" x1="1162.23" y1="4686.51" x2="1303.92" y2="4896.31"/><line class="cls-1" x1="1119" y1="4732.06" x2="1260.69" y2="4941.86"/><line class="cls-1" x1="1508.05" y1="4322.11" x2="1649.74" y2="4531.91"/><line class="cls-1" x1="1594.51" y1="4231.01" x2="1736.2" y2="4440.81"/><line class="cls-1" x1="1724.19" y1="4094.36" x2="1865.88" y2="4304.15"/><line class="cls-1" x1="1767.42" y1="4048.81" x2="1909.11" y2="4258.6"/><line class="cls-1" x1="1464.83" y1="4367.66" x2="1606.51" y2="4577.46"/><line class="cls-1" x1="1897.11" y1="3912.15" x2="2038.79" y2="4121.95"/><line class="cls-1" x1="1853.88" y1="3957.71" x2="1995.57" y2="4167.5"/><line class="cls-1" x1="1916.53" y1="3891.68" x2="2058.22" y2="4101.48"/><line class="cls-1" x1="1863.46" y1="3523.96" x2="2005.14" y2="3733.76"/><line class="cls-1" x1="1913.89" y1="3468.79" x2="2055.58" y2="3678.59"/><line class="cls-1" x1="1566.32" y1="3003.12" x2="1708.01" y2="3212.92"/><line class="cls-1" x1="1506.26" y1="3066.4" x2="1647.95" y2="3276.2"/><line class="cls-1" x1="1440.59" y1="3135.61" x2="1582.28" y2="3345.4"/><line class="cls-1" x1="787.64" y1="2985.76" x2="929.33" y2="3195.55"/><line class="cls-1" x1="874.1" y1="2894.65" x2="1015.79" y2="3104.45"/><line class="cls-1" x1="744.42" y1="3031.31" x2="886.1" y2="3241.1"/><line class="cls-1" x1="1687.13" y1="2884.94" x2="1828.82" y2="3094.74"/><line class="cls-1" x1="1747.18" y1="2821.66" x2="1888.87" y2="3031.46"/><line class="cls-1" x1="1717.16" y1="2853.3" x2="1858.84" y2="3063.1"/><line class="cls-1" x1="1772.13" y1="2792.94" x2="1913.82" y2="3002.74"/><line class="cls-1" x1="1832.18" y1="2729.66" x2="1973.87" y2="2939.46"/><line class="cls-1" x1="1802.16" y1="2761.3" x2="1943.84" y2="2971.1"/><line class="cls-1" x1="1839.13" y1="3135.66" x2="1980.82" y2="3345.45"/><line class="cls-1" x1="1899.18" y1="3072.37" x2="2040.87" y2="3282.17"/><line class="cls-1" x1="1869.16" y1="3104.02" x2="2010.84" y2="3313.81"/><line class="cls-1" x1="1363.94" y1="4916.1" x2="1505.62" y2="5125.9"/><line class="cls-1" x1="1278.14" y1="5006.51" x2="1419.83" y2="5216.31"/><line class="cls-1" x1="1063.65" y1="5232.52" x2="1205.34" y2="5442.32"/><line class="cls-1" x1="1492.63" y1="4780.5" x2="1634.32" y2="4990.3"/><line class="cls-1" x1="1578.42" y1="4690.09" x2="1720.11" y2="4899.89"/><line class="cls-1" x1="934.96" y1="5368.12" x2="1076.65" y2="5577.92"/><line class="cls-1" x1="1192.35" y1="5096.91" x2="1334.03" y2="5306.71"/><line class="cls-1" x1="1020.76" y1="5277.72" x2="1162.44" y2="5487.52"/><line class="cls-1" x1="1449.73" y1="4825.7" x2="1591.42" y2="5035.5"/><line class="cls-1" x1="1106.32" y1="5600.83" x2="1248" y2="5810.63"/><line class="cls-1" x1="1363.91" y1="5329.4" x2="1505.59" y2="5539.2"/><line class="cls-1" x1="1466.94" y1="5220.83" x2="1608.63" y2="5430.63"/><line class="cls-1" x1="1054.8" y1="5655.12" x2="1196.49" y2="5864.91"/><line class="cls-1" x1="1348.95" y1="5765.84" x2="1490.64" y2="5975.64"/><line class="cls-1" x1="1781.23" y1="5310.33" x2="1922.92" y2="5520.13"/><line class="cls-1" x1="1910.91" y1="5173.68" x2="2052.6" y2="5383.48"/><line class="cls-1" x1="1694.77" y1="5401.44" x2="1836.46" y2="5611.23"/><line class="cls-1" x1="1651.55" y1="5446.99" x2="1793.23" y2="5656.78"/><line class="cls-1" x1="1435.41" y1="5674.74" x2="1577.09" y2="5884.54"/><line class="cls-1" x1="1305.72" y1="5811.39" x2="1447.41" y2="6021.19"/><line class="cls-1" x1="1824.46" y1="5264.78" x2="1966.15" y2="5474.58"/><line class="cls-1" x1="1801.49" y1="4455.04" x2="1943.18" y2="4664.84"/><line class="cls-1" x1="1861.55" y1="4391.76" x2="2003.23" y2="4601.56"/><line class="cls-1" x1="1621.32" y1="4644.89" x2="1763.01" y2="4854.69"/><line class="cls-1" x1="1741.43" y1="4518.33" x2="1883.12" y2="4728.13"/><line class="cls-1" x1="1681.38" y1="4581.61" x2="1823.06" y2="4791.41"/><line class="cls-1" x1="1921.6" y1="4328.48" x2="2063.29" y2="4538.28"/><line class="cls-1" x1="1569.98" y1="5112.26" x2="1711.66" y2="5322.06"/><line class="cls-1" x1="1673.01" y1="5003.69" x2="1814.7" y2="5213.49"/><line class="cls-1" x1="1724.53" y1="4949.41" x2="1866.22" y2="5159.21"/><line class="cls-1" x1="1827.56" y1="4840.84" x2="1969.25" y2="5050.64"/><line class="cls-1" x1="1776.05" y1="4895.12" x2="1917.73" y2="5104.92"/><line class="cls-1" x1="1853.32" y1="4813.69" x2="1995.01" y2="5023.49"/><line class="cls-1" x1="1904.84" y1="4759.41" x2="2046.53" y2="4969.21"/><line class="cls-1" x1="1686.8" y1="5833.49" x2="1828.49" y2="6043.29"/><line class="cls-1" x1="1513.89" y1="6015.69" x2="1655.57" y2="6225.49"/><line class="cls-1" x1="1427.43" y1="6106.79" x2="1569.12" y2="6316.59"/><line class="cls-1" x1="1384.2" y1="6152.34" x2="1525.89" y2="6362.14"/><line class="cls-1" x1="1773.25" y1="5742.39" x2="1914.94" y2="5952.19"/><line class="cls-1" x1="1859.71" y1="5651.29" x2="2001.4" y2="5861.09"/><line class="cls-1" x1="1600.34" y1="5924.59" x2="1742.03" y2="6134.39"/><line class="cls-1" x1="1730.03" y1="5787.94" x2="1871.71" y2="5997.74"/><line class="cls-1" x1="1831.52" y1="4423.4" x2="1973.21" y2="4633.2"/><line class="cls-1" x1="1891.57" y1="4360.12" x2="2033.26" y2="4569.92"/><line class="cls-1" x1="1771.46" y1="4486.69" x2="1913.15" y2="4696.48"/><line class="cls-1" x1="1705.79" y1="4555.89" x2="1847.48" y2="4765.68"/><line class="cls-1" x1="1468.1" y1="7250.54" x2="1609.79" y2="7460.34"/><line class="cls-1" x1="1322.19" y1="7416.74" x2="1463.88" y2="7626.54"/><line class="cls-1" x1="1727.47" y1="6977.24" x2="1869.16" y2="7187.03"/><line class="cls-1" x1="1857.16" y1="6840.58" x2="1998.84" y2="7050.38"/><line class="cls-1" x1="1208.74" y1="7523.84" x2="1350.42" y2="7733.64"/><line class="cls-1" x1="1165.51" y1="7569.39" x2="1307.19" y2="7779.19"/><line class="cls-1" x1="1144.39" y1="7593.89" x2="1286.08" y2="7803.69"/><line class="cls-1" x1="1554.56" y1="7159.44" x2="1696.25" y2="7369.24"/><line class="cls-1" x1="1641.02" y1="7068.34" x2="1782.7" y2="7278.13"/><line class="cls-1" x1="1381.65" y1="7341.64" x2="1523.34" y2="7551.44"/><line class="cls-1" x1="1770.7" y1="6931.69" x2="1912.39" y2="7141.48"/><line class="cls-1" x1="1813.93" y1="6886.13" x2="1955.62" y2="7095.93"/><line class="cls-1" x1="1511.33" y1="7204.99" x2="1653.02" y2="7414.79"/><line class="cls-1" x1="1900.38" y1="6795.03" x2="2042.07" y2="7004.83"/><line class="cls-1" x1="1428.53" y1="6500.38" x2="1570.22" y2="6710.18"/><line class="cls-1" x1="1558.22" y1="6363.73" x2="1699.91" y2="6573.53"/><line class="cls-1" x1="1342.08" y1="6591.48" x2="1483.77" y2="6801.28"/><line class="cls-1" x1="1298.85" y1="6637.03" x2="1440.54" y2="6846.83"/><line class="cls-1" x1="1272.99" y1="6667.03" x2="1414.68" y2="6876.83"/><line class="cls-1" x1="1244.11" y1="6700.53" x2="1385.8" y2="6910.33"/><line class="cls-1" x1="1471.76" y1="6454.83" x2="1613.45" y2="6664.63"/><line class="cls-1" x1="1750.34" y1="6161.29" x2="1892.03" y2="6371.08"/><line class="cls-1" x1="1673.49" y1="6242.26" x2="1815.18" y2="6452.06"/><line class="cls-1" x1="1801.58" y1="6107.3" x2="1943.26" y2="6317.1"/><line class="cls-1" x1="1699.11" y1="6215.27" x2="1840.8" y2="6425.07"/><line class="cls-1" x1="1852.01" y1="6052.12" x2="1993.7" y2="6261.92"/><line class="cls-1" x1="1596.64" y1="6323.24" x2="1738.33" y2="6533.04"/><line class="cls-1" x1="1724.73" y1="6188.28" x2="1866.41" y2="6398.08"/><line class="cls-1" x1="1635.07" y1="6282.75" x2="1776.76" y2="6492.55"/><line class="cls-1" x1="1903.25" y1="5998.14" x2="2044.93" y2="6207.94"/><line class="cls-1" x1="1775.96" y1="6134.29" x2="1917.65" y2="6344.09"/><line class="cls-1" x1="1826.4" y1="6079.12" x2="1968.08" y2="6288.92"/><line class="cls-1" x1="1877.63" y1="6025.13" x2="2019.32" y2="6234.93"/><line class="cls-1" x1="1236.57" y1="1694.2" x2="1378.26" y2="1904"/><line class="cls-1" x1="1427.51" y1="1493" x2="1569.2" y2="1702.8"/><line class="cls-1" x1="1322.37" y1="1603.8" x2="1464.06" y2="1813.6"/><line class="cls-1" x1="978.95" y1="2378.93" x2="1120.64" y2="2588.73"/><line class="cls-1" x1="1236.54" y1="2107.5" x2="1378.23" y2="2317.3"/><line class="cls-1" x1="1339.58" y1="1998.93" x2="1481.27" y2="2208.73"/><line class="cls-1" x1="927.44" y1="2433.22" x2="1069.12" y2="2643.01"/><line class="cls-1" x1="1221.59" y1="2543.94" x2="1363.27" y2="2753.74"/><line class="cls-1" x1="1653.87" y1="2088.44" x2="1795.55" y2="2298.23"/><line class="cls-1" x1="1783.55" y1="1951.78" x2="1925.24" y2="2161.58"/><line class="cls-1" x1="1567.41" y1="2179.54" x2="1709.1" y2="2389.33"/><line class="cls-1" x1="1524.18" y1="2225.09" x2="1665.87" y2="2434.88"/><line class="cls-1" x1="1498.32" y1="2255.09" x2="1640.01" y2="2464.88"/><line class="cls-1" x1="1469.44" y1="2288.59" x2="1611.13" y2="2498.38"/><line class="cls-1" x1="1308.04" y1="2452.84" x2="1449.73" y2="2662.64"/><line class="cls-1" x1="1330.89" y1="2426.34" x2="1472.57" y2="2636.14"/><line class="cls-1" x1="1351.58" y1="2402.34" x2="1493.26" y2="2612.14"/><line class="cls-1" x1="1178.36" y1="2589.49" x2="1320.05" y2="2799.29"/><line class="cls-1" x1="1697.1" y1="2042.88" x2="1838.78" y2="2252.68"/><line class="cls-1" x1="1674.13" y1="1233.14" x2="1815.81" y2="1442.94"/><line class="cls-1" x1="1726.68" y1="1177.77" x2="1868.36" y2="1387.57"/><line class="cls-1" x1="1614.07" y1="1296.43" x2="1755.76" y2="1506.23"/><line class="cls-1" x1="1554.01" y1="1359.71" x2="1695.7" y2="1569.51"/><line class="cls-1" x1="1794.24" y1="1106.58" x2="1935.93" y2="1316.38"/><line class="cls-1" x1="1442.61" y1="1890.36" x2="1584.3" y2="2100.16"/><line class="cls-1" x1="1469.77" y1="1858.86" x2="1611.45" y2="2068.66"/><line class="cls-1" x1="1545.65" y1="1781.79" x2="1687.34" y2="1991.59"/><line class="cls-1" x1="1524.96" y1="1805.79" x2="1666.65" y2="2015.59"/><line class="cls-1" x1="1499.53" y1="1835.29" x2="1641.22" y2="2045.09"/><line class="cls-1" x1="1898.83" y1="1830.32" x2="2040.51" y2="2040.11"/><line class="cls-1" x1="1924.44" y1="1803.32" x2="2066.13" y2="2013.12"/><line class="cls-1" x1="1821.98" y1="1911.29" x2="1963.66" y2="2121.09"/><line class="cls-1" x1="1860.4" y1="1870.81" x2="2002.09" y2="2080.6"/><line class="cls-1" x1="1597.17" y1="1727.51" x2="1738.85" y2="1937.31"/><line class="cls-1" x1="1700.2" y1="1618.94" x2="1841.89" y2="1828.74"/><line class="cls-1" x1="1648.68" y1="1673.22" x2="1790.37" y2="1883.02"/><line class="cls-1" x1="1725.96" y1="1591.79" x2="1867.65" y2="1801.59"/><line class="cls-1" x1="1803.24" y1="1510.37" x2="1944.92" y2="1720.16"/><line class="cls-1" x1="1906.27" y1="1401.8" x2="2047.96" y2="1611.59"/><line class="cls-1" x1="1854.75" y1="1456.08" x2="1996.44" y2="1665.88"/><line class="cls-1" x1="1777.48" y1="1537.51" x2="1919.17" y2="1747.31"/><line class="cls-1" x1="1880.51" y1="1428.94" x2="2022.2" y2="1638.74"/><line class="cls-1" x1="1559.44" y1="2611.59" x2="1701.12" y2="2821.39"/><line class="cls-1" x1="1386.52" y1="2793.79" x2="1528.21" y2="3003.59"/><line class="cls-1" x1="1818.8" y1="2338.29" x2="1960.49" y2="2548.09"/><line class="cls-1" x1="1300.07" y1="2884.89" x2="1441.76" y2="3094.69"/><line class="cls-1" x1="1256.84" y1="2930.44" x2="1398.53" y2="3140.24"/><line class="cls-1" x1="1235.72" y1="2954.94" x2="1377.41" y2="3164.74"/><line class="cls-1" x1="1645.89" y1="2520.49" x2="1787.58" y2="2730.29"/><line class="cls-1" x1="1732.35" y1="2429.39" x2="1874.04" y2="2639.19"/><line class="cls-1" x1="1472.98" y1="2702.69" x2="1614.67" y2="2912.49"/><line class="cls-1" x1="1862.03" y1="2292.74" x2="2003.72" y2="2502.54"/><line class="cls-1" x1="1905.26" y1="2247.19" x2="2046.95" y2="2456.98"/><line class="cls-1" x1="1602.66" y1="2566.04" x2="1744.35" y2="2775.84"/><line class="cls-1" x1="1704.15" y1="1201.5" x2="1845.84" y2="1411.3"/><line class="cls-1" x1="1771.72" y1="1130.31" x2="1913.41" y2="1340.11"/><line class="cls-1" x1="1644.1" y1="1264.79" x2="1785.79" y2="1474.58"/><line class="cls-1" x1="1578.43" y1="1333.99" x2="1720.11" y2="1543.79"/><line class="cls-1" x1="1596.12" y1="1315.34" x2="1737.81" y2="1525.14"/><line class="cls-1" x1="1749.2" y1="1154.04" x2="1890.88" y2="1363.84"/><line class="cls-1" x1="1345.74" y1="1579.18" x2="1487.42" y2="1788.98"/><line class="cls-1" x1="1098.74" y1="3495.82" x2="1240.42" y2="3705.62"/><line class="cls-1" x1="1012.94" y1="3586.23" x2="1154.63" y2="3796.03"/><line class="cls-1" x1="798.45" y1="3812.24" x2="940.14" y2="4022.04"/><line class="cls-1" x1="1227.43" y1="3360.22" x2="1369.12" y2="3570.02"/><line class="cls-1" x1="1313.22" y1="3269.81" x2="1454.91" y2="3479.61"/><line class="cls-1" x1="927.15" y1="3676.63" x2="1068.83" y2="3886.43"/><line class="cls-1" x1="1184.53" y1="3405.42" x2="1326.22" y2="3615.22"/><line class="cls-1" x1="1003.12" y1="4021.55" x2="1144.8" y2="4231.35"/><line class="cls-1" x1="1098.71" y1="3909.12" x2="1240.39" y2="4118.92"/><line class="cls-1" x1="1201.74" y1="3800.55" x2="1343.43" y2="4010.35"/><line class="cls-1" x1="1083.75" y1="4345.56" x2="1225.44" y2="4555.36"/><line class="cls-1" x1="1516.03" y1="3890.05" x2="1657.72" y2="4099.85"/><line class="cls-1" x1="1645.71" y1="3753.4" x2="1787.4" y2="3963.2"/><line class="cls-1" x1="1429.57" y1="3981.15" x2="1571.26" y2="4190.95"/><line class="cls-1" x1="1386.35" y1="4026.71" x2="1528.03" y2="4236.5"/><line class="cls-1" x1="1163.21" y1="4259.46" x2="1304.89" y2="4469.26"/><line class="cls-1" x1="798.52" y1="4497.11" x2="940.21" y2="4706.91"/><line class="cls-1" x1="1559.26" y1="3844.5" x2="1700.95" y2="4054.3"/><line class="cls-1" x1="1837.84" y1="3550.96" x2="1979.53" y2="3760.76"/><line class="cls-1" x1="1536.29" y1="3034.76" x2="1677.98" y2="3244.56"/><line class="cls-1" x1="1596.35" y1="2971.48" x2="1738.03" y2="3181.28"/><line class="cls-1" x1="1356.12" y1="3224.61" x2="1497.81" y2="3434.41"/><line class="cls-1" x1="1476.23" y1="3098.05" x2="1617.92" y2="3307.84"/><line class="cls-1" x1="1416.18" y1="3161.33" x2="1557.86" y2="3371.13"/><line class="cls-1" x1="1656.4" y1="2908.2" x2="1798.09" y2="3118"/><line class="cls-1" x1="1304.78" y1="3691.98" x2="1446.46" y2="3901.78"/><line class="cls-1" x1="1407.81" y1="3583.41" x2="1549.5" y2="3793.21"/><line class="cls-1" x1="1760.99" y1="3631.94" x2="1902.68" y2="3841.73"/><line class="cls-1" x1="1889.07" y1="3496.97" x2="2030.76" y2="3706.77"/><line class="cls-1" x1="1786.61" y1="3604.94" x2="1928.29" y2="3814.74"/><line class="cls-1" x1="1684.14" y1="3712.91" x2="1825.83" y2="3922.71"/><line class="cls-1" x1="1812.22" y1="3577.95" x2="1953.91" y2="3787.75"/><line class="cls-1" x1="1722.56" y1="3672.42" x2="1864.25" y2="3882.22"/><line class="cls-1" x1="1459.33" y1="3529.13" x2="1601.02" y2="3738.93"/><line class="cls-1" x1="1510.85" y1="3474.84" x2="1652.53" y2="3684.64"/><line class="cls-1" x1="1584.12" y1="3394.41" x2="1725.81" y2="3604.21"/><line class="cls-1" x1="1665.4" y1="3311.99" x2="1807.09" y2="3521.78"/><line class="cls-1" x1="1768.43" y1="3203.42" x2="1910.12" y2="3413.21"/><line class="cls-1" x1="1716.92" y1="3257.7" x2="1858.6" y2="3467.5"/><line class="cls-1" x1="1794.19" y1="3176.27" x2="1935.88" y2="3386.07"/><line class="cls-1" x1="1639.64" y1="3339.13" x2="1781.33" y2="3548.93"/><line class="cls-1" x1="1742.68" y1="3230.56" x2="1884.36" y2="3440.36"/><line class="cls-1" x1="1819.95" y1="3149.13" x2="1961.64" y2="3358.93"/><line class="cls-1" x1="1421.6" y1="4413.21" x2="1563.29" y2="4623.01"/><line class="cls-1" x1="1248.69" y1="4595.41" x2="1390.37" y2="4805.21"/><line class="cls-1" x1="1680.97" y1="4139.91" x2="1822.65" y2="4349.7"/><line class="cls-1" x1="1810.65" y1="4003.26" x2="1952.34" y2="4213.05"/><line class="cls-1" x1="1162.23" y1="4686.51" x2="1303.92" y2="4896.31"/><line class="cls-1" x1="1119" y1="4732.06" x2="1260.69" y2="4941.86"/><line class="cls-1" x1="1508.05" y1="4322.11" x2="1649.74" y2="4531.91"/><line class="cls-1" x1="1594.51" y1="4231.01" x2="1736.2" y2="4440.81"/><line class="cls-1" x1="1724.19" y1="4094.36" x2="1865.88" y2="4304.15"/><line class="cls-1" x1="1767.42" y1="4048.81" x2="1909.11" y2="4258.6"/><line class="cls-1" x1="1464.83" y1="4367.66" x2="1606.51" y2="4577.46"/><line class="cls-1" x1="1897.11" y1="3912.15" x2="2038.79" y2="4121.95"/><line class="cls-1" x1="1853.88" y1="3957.71" x2="1995.57" y2="4167.5"/><line class="cls-1" x1="1916.53" y1="3891.68" x2="2058.22" y2="4101.48"/><line class="cls-1" x1="1863.46" y1="3523.96" x2="2005.14" y2="3733.76"/><line class="cls-1" x1="1913.89" y1="3468.79" x2="2055.58" y2="3678.59"/><line class="cls-1" x1="1566.32" y1="3003.12" x2="1708.01" y2="3212.92"/><line class="cls-1" x1="1506.26" y1="3066.4" x2="1647.95" y2="3276.2"/><line class="cls-1" x1="1440.59" y1="3135.61" x2="1582.28" y2="3345.4"/><line class="cls-1" x1="787.64" y1="2985.76" x2="929.33" y2="3195.55"/><line class="cls-1" x1="874.1" y1="2894.65" x2="1015.79" y2="3104.45"/><line class="cls-1" x1="744.42" y1="3031.31" x2="886.1" y2="3241.1"/><line class="cls-1" x1="1687.13" y1="2884.94" x2="1828.82" y2="3094.74"/><line class="cls-1" x1="1747.18" y1="2821.66" x2="1888.87" y2="3031.46"/><line class="cls-1" x1="1717.16" y1="2853.3" x2="1858.84" y2="3063.1"/><line class="cls-1" x1="1772.13" y1="2792.94" x2="1913.82" y2="3002.74"/><line class="cls-1" x1="1832.18" y1="2729.66" x2="1973.87" y2="2939.46"/><line class="cls-1" x1="1802.16" y1="2761.3" x2="1943.84" y2="2971.1"/><line class="cls-1" x1="1839.13" y1="3135.66" x2="1980.82" y2="3345.45"/><line class="cls-1" x1="1899.18" y1="3072.37" x2="2040.87" y2="3282.17"/><line class="cls-1" x1="1869.16" y1="3104.02" x2="2010.84" y2="3313.81"/><line class="cls-1" x1="1684.4" y1="7837.77" x2="1826.09" y2="8047.57"/><line class="cls-1" x1="1598.61" y1="7928.18" x2="1740.3" y2="8137.97"/><line class="cls-1" x1="1384.12" y1="8154.19" x2="1525.81" y2="8363.98"/><line class="cls-1" x1="1813.1" y1="7702.17" x2="1954.78" y2="7911.96"/><line class="cls-1" x1="1898.89" y1="7611.76" x2="2040.58" y2="7821.56"/><line class="cls-1" x1="1255.43" y1="8289.79" x2="1397.12" y2="8499.59"/><line class="cls-1" x1="1536.81" y1="7992.58" x2="1678.5" y2="8202.38"/><line class="cls-1" x1="1341.22" y1="8199.39" x2="1482.91" y2="8409.19"/><line class="cls-1" x1="1770.2" y1="7747.37" x2="1911.89" y2="7957.17"/><line class="cls-1" x1="830.78" y1="8263.5" x2="972.47" y2="8473.3"/><line class="cls-1" x1="1540.37" y1="8386.07" x2="1682.06" y2="8595.87"/><line class="cls-1" x1="1787.41" y1="8142.5" x2="1929.1" y2="8352.3"/><line class="cls-1" x1="779.27" y1="8317.78" x2="920.95" y2="8527.58"/><line class="cls-1" x1="1073.42" y1="8428.51" x2="1215.1" y2="8638.3"/><line class="cls-1" x1="1159.87" y1="8337.41" x2="1301.56" y2="8547.2"/><line class="cls-1" x1="1030.19" y1="8474.06" x2="1171.88" y2="8683.85"/><line class="cls-1" x1="1890.44" y1="8033.93" x2="2032.13" y2="8243.73"/><line class="cls-1" x1="1238.35" y1="8678.36" x2="1380.04" y2="8888.16"/><line class="cls-1" x1="1151.9" y1="8769.46" x2="1293.59" y2="8979.26"/><line class="cls-1" x1="1108.67" y1="8815.01" x2="1250.36" y2="9024.81"/><line class="cls-1" x1="1324.81" y1="8587.26" x2="1466.5" y2="8797.06"/><line class="cls-1" x1="1775.25" y1="6540.89" x2="1916.94" y2="6750.68"/><line class="cls-1" x1="1861.71" y1="6449.79" x2="2003.4" y2="6659.58"/><line class="cls-1" x1="1884.55" y1="6423.29" x2="2026.24" y2="6633.08"/><line class="cls-1" x1="1905.24" y1="6399.29" x2="2046.93" y2="6609.08"/><line class="cls-1" x1="1732.03" y1="6586.44" x2="1873.71" y2="6796.24"/><line class="cls-1" x1="1341.31" y1="6982.7" x2="1483" y2="7192.5"/><line class="cls-1" x1="1687.14" y1="6618.3" x2="1828.82" y2="6828.1"/><line class="cls-1" x1="1643.91" y1="6663.85" x2="1785.6" y2="6873.65"/><line class="cls-1" x1="1298.08" y1="7028.25" x2="1439.77" y2="7238.05"/><line class="cls-1" x1="1117.27" y1="9165.16" x2="1258.95" y2="9374.96"/><line class="cls-1" x1="1838.63" y1="8497.85" x2="1980.32" y2="8707.65"/><line class="cls-1" x1="1665.72" y1="8680.06" x2="1807.41" y2="8889.85"/><line class="cls-1" x1="1752.18" y1="8588.96" x2="1893.87" y2="8798.75"/><line class="cls-1" x1="1881.86" y1="8452.3" x2="2023.55" y2="8662.1"/><line class="cls-1" x1="1622.49" y1="8725.61" x2="1764.18" y2="8935.4"/><line class="cls-1" x1="1332.09" y1="7804.54" x2="1473.78" y2="8014.34"/><line class="cls-1" x1="1523.04" y1="7603.34" x2="1664.72" y2="7813.14"/><line class="cls-1" x1="1722.89" y1="8207.14" x2="1864.58" y2="8416.94"/><line class="cls-1" x1="1769.65" y1="7343.48" x2="1911.34" y2="7553.28"/><line class="cls-1" x1="1822.2" y1="7288.11" x2="1963.89" y2="7497.91"/><line class="cls-1" x1="1709.59" y1="7406.76" x2="1851.28" y2="7616.56"/><line class="cls-1" x1="1649.54" y1="7470.05" x2="1791.22" y2="7679.85"/><line class="cls-1" x1="1889.76" y1="7216.92" x2="2031.45" y2="7426.71"/><line class="cls-1" x1="1799.68" y1="7311.84" x2="1941.36" y2="7521.64"/><line class="cls-1" x1="1867.24" y1="7240.65" x2="2008.93" y2="7450.45"/><line class="cls-1" x1="1739.62" y1="7375.12" x2="1881.31" y2="7584.92"/><line class="cls-1" x1="1691.65" y1="7425.68" x2="1833.33" y2="7635.47"/><line class="cls-1" x1="1844.72" y1="7264.38" x2="1986.41" y2="7474.18"/><line class="cls-1" x1="1441.26" y1="7689.51" x2="1582.94" y2="7899.31"/><line class="cls-1" x1="1019.54" y1="7736.87" x2="1161.23" y2="7946.67"/><line class="cls-1" x1="933.09" y1="7827.97" x2="1074.77" y2="8037.77"/><line class="cls-1" x1="889.86" y1="7873.52" x2="1031.55" y2="8083.32"/><line class="cls-1" x1="1106" y1="7645.77" x2="1247.69" y2="7855.57"/><line class="cls-1" x1="1002.32" y1="6559.08" x2="1144" y2="6768.88"/><line class="cls-1" x1="1105.35" y1="6450.51" x2="1247.04" y2="6660.31"/><line class="cls-1" x1="1208.39" y1="6341.94" x2="1350.07" y2="6551.74"/><line class="cls-1" x1="1235.54" y1="6310.44" x2="1377.23" y2="6520.24"/><line class="cls-1" x1="959.46" y1="7354.59" x2="1101.14" y2="7564.38"/><line class="cls-1" x1="1150.4" y1="7153.39" x2="1292.09" y2="7363.18"/><line class="cls-1" x1="1045.25" y1="7264.18" x2="1186.94" y2="7473.98"/><line class="cls-1" x1="1068.62" y1="7239.56" x2="1210.31" y2="7449.36"/><line class="cls-1" x1="1430.41" y1="9352.58" x2="1572.1" y2="9562.38"/><line class="cls-1" x1="1560.1" y1="9215.93" x2="1701.79" y2="9425.73"/><line class="cls-1" x1="1343.96" y1="9443.68" x2="1485.65" y2="9653.48"/><line class="cls-1" x1="1300.73" y1="9489.23" x2="1442.42" y2="9699.03"/><line class="cls-1" x1="1473.64" y1="9307.03" x2="1615.33" y2="9516.83"/><line class="cls-1" x1="1752.22" y1="9013.48" x2="1893.91" y2="9223.28"/><line class="cls-1" x1="1322.19" y1="9045.94" x2="1463.88" y2="9255.74"/><line class="cls-1" x1="1675.37" y1="9094.46" x2="1817.06" y2="9304.26"/><line class="cls-1" x1="1803.46" y1="8959.5" x2="1945.14" y2="9169.3"/><line class="cls-1" x1="1700.99" y1="9067.47" x2="1842.68" y2="9277.27"/><line class="cls-1" x1="1853.89" y1="8904.32" x2="1995.58" y2="9114.12"/><line class="cls-1" x1="1598.52" y1="9175.44" x2="1740.21" y2="9385.24"/><line class="cls-1" x1="1726.61" y1="9040.48" x2="1868.29" y2="9250.28"/><line class="cls-1" x1="1636.95" y1="9134.95" x2="1778.64" y2="9344.75"/><line class="cls-1" x1="1905.13" y1="8850.34" x2="2046.81" y2="9060.13"/><line class="cls-1" x1="1373.71" y1="8991.65" x2="1515.4" y2="9201.45"/><line class="cls-1" x1="1476.75" y1="8883.08" x2="1618.44" y2="9092.88"/><line class="cls-1" x1="1425.23" y1="8937.37" x2="1566.92" y2="9147.17"/><line class="cls-1" x1="1502.51" y1="8855.94" x2="1644.19" y2="9065.74"/><line class="cls-1" x1="1579.78" y1="8774.51" x2="1721.47" y2="8984.31"/><line class="cls-1" x1="1554.02" y1="8801.66" x2="1695.71" y2="9011.45"/><line class="cls-1" x1="1777.84" y1="8986.49" x2="1919.53" y2="9196.29"/><line class="cls-1" x1="1828.28" y1="8931.31" x2="1969.96" y2="9141.11"/><line class="cls-1" x1="1879.51" y1="8877.33" x2="2021.2" y2="9087.13"/><line class="cls-1" x1="1900.75" y1="9256.81" x2="2042.44" y2="9466.61"/><line class="cls-1" x1="1879.63" y1="9281.31" x2="2021.32" y2="9491.11"/><line class="cls-1" x1="1754.79" y1="9424.29" x2="1896.47" y2="9634.08"/><line class="cls-1" x1="1668.33" y1="9515.39" x2="1810.02" y2="9725.19"/><line class="cls-1" x1="1625.1" y1="9560.94" x2="1766.79" y2="9770.74"/><line class="cls-1" x1="1841.24" y1="9333.19" x2="1982.93" y2="9542.98"/></svg>
