<svg id="Layer_1" data-name="Layer 1" xmlns="http://www.w3.org/2000/svg" viewBox="0 0 45.5 46.55"><defs><style>.cls-1{fill:#fff;}.cls-2{fill:none;stroke:#fff;stroke-miterlimit:10;stroke-width:1.64px;}</style></defs><path class="cls-1" d="M22.85,8.77a.58.58,0,0,0-.36.12L8.29,20a.62.62,0,0,0-.1.87.61.61,0,0,0,.86.11l.86-.67V36.51a.61.61,0,0,0,.61.62h24.7a.62.62,0,0,0,.62-.62V20.28l.85.67a.62.62,0,1,0,.76-1h0l-4.7-3.66V11.82h-3.7v1.59l-5.8-4.52A.63.63,0,0,0,22.85,8.77Zm0,1.4L34.6,19.32V35.9H27.19V24.17H18.55V35.9H11.14V19.32Zm7.41,2.88h1.23v2.29l-1.23-1ZM19.78,25.4H26V35.9H19.78Z"/><path class="cls-2" d="M22.75.82C10.66.82.82,10.89.82,23.27s9.84,22.46,21.93,22.46S44.68,35.66,44.68,23.27,34.84.82,22.75.82Z"/></svg>