<svg id="Layer_1" data-name="Layer 1" xmlns="http://www.w3.org/2000/svg" viewBox="0 0 49.5 50.55"><defs><style>.cls-1{fill:#fff;}.cls-2{fill:none;stroke:#fff;stroke-miterlimit:10;stroke-width:1.64px;}</style></defs><path class="cls-1" d="M24.85,10.77a.58.58,0,0,0-.36.12L10.29,22a.62.62,0,0,0-.1.87.61.61,0,0,0,.86.11l.86-.67V38.51a.61.61,0,0,0,.61.62h24.7a.62.62,0,0,0,.62-.62V22.28l.85.67a.62.62,0,1,0,.76-1h0l-4.7-3.66V13.82h-3.7v1.59l-5.8-4.52A.63.63,0,0,0,24.85,10.77Zm0,1.4L36.6,21.32V37.9H29.19V26.17H20.55V37.9H13.14V21.32Zm7.41,2.88h1.23v2.29l-1.23-1ZM21.78,27.4H28V37.9H21.78Z"/><path class="cls-2" d="M24.75,2.82C12.66,2.82,2.82,12.89,2.82,25.27s9.84,22.46,21.93,22.46S46.68,37.66,46.68,25.27,36.84,2.82,24.75,2.82Z"/></svg>