<svg id="Layer_1" data-name="Layer 1" xmlns="http://www.w3.org/2000/svg" xmlns:xlink="http://www.w3.org/1999/xlink" viewBox="0 0 1920 1080"><defs><style>.cls-1{fill:none;}.cls-2{clip-path:url(#clip-path);}.cls-3{fill:#fff;fill-opacity:0.3;}</style><clipPath id="clip-path"><rect class="cls-1" width="1920" height="1080"/></clipPath></defs><g class="cls-2"><path class="cls-3" d="M1255.67,976.36a9.33,9.33,0,0,0,.25,12.92l.27.26c30.65,28.32,184.14,169.94,196.58,176.89a9.33,9.33,0,1,0,9.11-16.28c-9.82-6.12-123.62-110.17-193-174.31A9.35,9.35,0,0,0,1255.67,976.36Z"/><path class="cls-3" d="M1553.34,1074.93a9.33,9.33,0,0,0-3.58-12.69c-10.69-6.18-125.41-108.91-195.21-172.22a9.33,9.33,0,0,0-12.87,13.5c.11.11.22.22.34.32,30.54,27.7,183.67,166.31,198.63,174.68A9.32,9.32,0,0,0,1553.34,1074.93Z"/><path class="cls-3" d="M1641.21,987a9.33,9.33,0,0,0-3.58-12.69c-12.18-6.81-124.72-105.47-197.39-170.13a9.33,9.33,0,0,0-12.8,13.56c.13.13.26.26.4.38,18.66,16.6,182.82,162.48,200.68,172.47A9.32,9.32,0,0,0,1641.21,987Z"/><path class="cls-3" d="M1469.92,762.13a9.33,9.33,0,0,0,.4,12.75l.44.41c18.63,16.41,182.55,160.66,201.69,171.36a9.33,9.33,0,1,0,9.11-16.28c-13.18-7.37-125.91-105.15-198.47-169.08A9.33,9.33,0,0,0,1469.92,762.13Z"/><path class="cls-3" d="M1562.82,669.24a9.33,9.33,0,0,0,.45,12.69c.17.16.33.32.51.47,18.57,16,182,157,203.74,169.14a9.33,9.33,0,1,0,9.11-16.28c-15.18-8.49-128.32-104.51-200.66-167A9.32,9.32,0,0,0,1562.82,669.24Z"/><path class="cls-3" d="M1605.67,626.4a9.32,9.32,0,0,0,.48,12.65c.18.17.36.34.55.5,18.53,15.84,181.76,155.17,204.76,168a9.33,9.33,0,0,0,9.11-16.29c-18.1-10.11-151.77-123.21-201.75-165.93A9.32,9.32,0,0,0,1605.67,626.4Z"/><path class="cls-3" d="M1648.51,583.55a9.35,9.35,0,0,0,.52,12.62c.19.18.38.36.58.53,7.38,6.24,181.08,153.11,205.78,166.93a9.33,9.33,0,1,0,9.11-16.28c-19.21-10.75-152.94-122.67-202.84-164.89A9.33,9.33,0,0,0,1648.51,583.55Z"/><path class="cls-3" d="M1709,523.05a9.33,9.33,0,0,0,.57,12.54q.32.31.66.6c7.36,6.09,180.5,149.43,207.82,164.71a9.33,9.33,0,1,0,9.11-16.28c-20.69-11.57-143.16-111.55-205-162.8A9.33,9.33,0,0,0,1709,523.05Z"/><path class="cls-3" d="M1810.33,420.92a9.33,9.33,0,0,0,.13,12.48c.22.23.46.46.71.68,7.08,6.24,173.85,153,203.08,170.89a9.33,9.33,0,1,0,9.76-15.9c-22.31-13.69-140.92-116.53-200.52-169A9.31,9.31,0,0,0,1810.33,420.92Z"/><path class="cls-3" d="M1879.18,352.09a9.32,9.32,0,0,0,.13,12.48,9.13,9.13,0,0,0,.7.69c7.09,6.23,173.85,152.94,203.09,170.89a9.33,9.33,0,0,0,9.76-15.9c-22.31-13.7-140.92-116.53-200.52-169A9.32,9.32,0,0,0,1879.18,352.09Z"/><path class="cls-3" d="M1649.22,1027.14a9.32,9.32,0,0,0,.41,12.74,6.14,6.14,0,0,0,.45.43L1771,1146.41a9.33,9.33,0,0,0,12.31-14l-120.94-106.1A9.33,9.33,0,0,0,1649.22,1027.14Z"/><path class="cls-3" d="M1747.07,929.33a9.33,9.33,0,0,0,.57,12.54c.21.2.43.4.66.59l124.16,102.87a9.33,9.33,0,1,0,11.9-14.37L1760.2,928.1A9.32,9.32,0,0,0,1747.07,929.33Z"/><path class="cls-3" d="M1987,942.64a9.29,9.29,0,0,0-1.6-13.09L1858,829.91a9.33,9.33,0,0,0-12.35,13.94,9,9,0,0,0,.86.76l127.4,99.63A9.32,9.32,0,0,0,1987,942.64Z"/><path class="cls-3" d="M983.72,690.7c-64.14-69.4-168.2-183.21-174.31-193a9.33,9.33,0,0,0-16.29,9.1c7,12.44,148.57,165.94,176.89,196.58l.26.27a9.33,9.33,0,0,0,13.45-12.93Z"/><path class="cls-3" d="M881,418.91c8.37,15,147,168.09,174.69,198.63l.31.33a9.33,9.33,0,0,0,13.5-12.86c-63.3-69.81-166-184.52-172.21-195.21A9.33,9.33,0,0,0,881,418.91Z"/><path class="cls-3" d="M969,331c10,17.85,155.86,182,172.47,200.67l.37.41a9.33,9.33,0,0,0,13.56-12.81C1090.7,446.64,992,334.11,985.23,321.93A9.33,9.33,0,1,0,969,331Z"/><path class="cls-3" d="M1198.26,476.47c-63.92-72.56-161.7-185.3-169.07-198.48a9.33,9.33,0,0,0-16.29,9.11c10.71,19.14,154.95,183.07,171.36,201.7.14.15.27.3.41.44a9.33,9.33,0,0,0,13.59-12.77Z"/><path class="cls-3" d="M1291.28,383.58c-62.47-72.34-158.5-185.47-167-200.65A9.33,9.33,0,0,0,1108,192c12.15,21.72,153.11,185.18,169.15,203.75.15.17.31.34.47.5a9.33,9.33,0,0,0,13.65-12.7Z"/><path class="cls-3" d="M1334.19,340.74c-42.72-50-155.82-183.66-165.94-201.75A9.33,9.33,0,1,0,1152,148.1c12.86,23,152.19,186.22,168,204.76.16.19.33.37.5.54a9.33,9.33,0,0,0,13.68-12.66Z"/><path class="cls-3" d="M1377.1,297.9C1334.88,248,1223,114.27,1212.21,95.05a9.33,9.33,0,0,0-16.28,9.11c13.81,24.71,160.68,198.4,166.93,205.79.17.2.35.39.53.57a9.33,9.33,0,0,0,13.71-12.62Z"/><path class="cls-3" d="M1437.74,237.4c-51.25-61.87-151.23-184.34-162.8-205a9.33,9.33,0,0,0-16.29,9.1c15.28,27.33,158.63,200.47,164.72,207.83.19.23.39.44.6.65a9.33,9.33,0,0,0,13.77-12.55Z"/><path class="cls-3" d="M1539.48,136.06c-52.47-59.6-155.3-178.2-169-200.52a9.34,9.34,0,0,0-12.83-3.07,9.33,9.33,0,0,0-3.07,12.83c18,29.24,164.66,196,170.89,203.09a9.13,9.13,0,0,0,.69.7,9.33,9.33,0,0,0,13.32-13Z"/><path class="cls-3" d="M1608.3,67.22C1555.84,7.62,1453-111,1439.31-133.3a9.32,9.32,0,0,0-12.83-3.07,9.32,9.32,0,0,0-3.07,12.83c17.94,29.23,164.65,196,170.89,203.08a9.32,9.32,0,1,0,14-12.32Z"/><path class="cls-3" d="M933.27,297.17,827.17,176.24a9.33,9.33,0,1,0-14,12.3l106.1,120.94.42.45a9.33,9.33,0,0,0,13.6-12.76Z"/><path class="cls-3" d="M1031.46,199.36,928.59,75.19a9.32,9.32,0,1,0-14.36,11.9L1017.1,211.26a6.07,6.07,0,0,0,.59.65,9.33,9.33,0,0,0,13.77-12.55Z"/><path class="cls-3" d="M1015.31-14.36,1115,113a10.38,10.38,0,0,0,.76.86,9.33,9.33,0,0,0,13.93-12.35L1030-25.85a9.29,9.29,0,0,0-13.1-1.6A9.33,9.33,0,0,0,1015.31-14.36Z"/><path class="cls-3" d="M1215.82,15.73l-96.4-130.63a9.31,9.31,0,0,0-13-2,9.33,9.33,0,0,0-2,13.05l96.4,130.63a9.46,9.46,0,0,0,.92,1.06,9.33,9.33,0,0,0,14.09-12.14Z"/><path class="cls-3" d="M908.23,1254.63l-.05-.05c-1-.94-96.28-94.86-102.31-100.89s-100-101.36-100.9-102.32l-.05,0a9.33,9.33,0,0,0-13.24,13.15c3.88,3.93,94.91,96.32,101,102.41s98.48,97.12,102.41,101a9.33,9.33,0,0,0,13.14-13.24Z"/><path class="cls-3" d="M1049.5,1113.37l-.07-.08c-.94-.91-94-91.94-102.6-100.56s-99.65-101.66-100.57-102.6l-.07-.08a9.33,9.33,0,0,0-13.26,13.12c3.75,3.84,92,94.06,100.71,102.75s98.91,97,102.74,100.71a9.33,9.33,0,0,0,13.12-13.26Z"/><path class="cls-3" d="M924.69,831.38c3.67,3.77,90.09,92.53,100.52,103s99.19,96.85,103,100.53a9.33,9.33,0,0,0,13.11-13.28l-.09-.09c-.92-.9-92.44-90-102.78-100.35S939,819.29,938.06,818.37l-.09-.09a9.33,9.33,0,0,0-13.28,13.1Z"/><path class="cls-3" d="M970.57,785.48c3.64,3.74,89.13,91.77,100.43,103.07s99.33,96.8,103.07,100.43a9.33,9.33,0,0,0,13.1-13.28l-.1-.1c-.91-.89-91.67-89-102.88-100.24S984.84,773.4,984,772.48l-.09-.09a9.33,9.33,0,0,0-13.29,13.09Z"/><path class="cls-3" d="M1062.33,693.69c3.56,3.67,87.21,90.25,100.25,103.29s99.61,96.69,103.29,100.24a9.33,9.33,0,0,0,13.08-13.3l-.12-.11c-.9-.87-90.13-87.09-103.06-100s-99.15-102.17-100-103.07l-.11-.11a9.33,9.33,0,0,0-13.31,13.08Z"/><path class="cls-3" d="M1108.22,647.79c3.51,3.64,86.24,89.49,100.15,103.4s99.75,96.64,103.4,100.15a9.32,9.32,0,1,0,12.94-13.43c-.89-.86-89.36-86.12-103.15-99.91s-99-102.27-99.91-103.16l-.12-.12a9.33,9.33,0,0,0-13.31,13.07Z"/><path class="cls-3" d="M1154.1,601.89c3.47,3.61,85.27,88.73,100.05,103.51s99.9,96.59,103.52,100.06a9.33,9.33,0,0,0,13.06-13.32l-.14-.13c-.88-.85-88.59-85.15-103.24-99.8S1168.4,589.85,1167.55,589a9.33,9.33,0,0,0-13.45,12.93Z"/><path class="cls-3" d="M1253.05,502.9c3.4,3.55,83.35,87.21,99.88,103.73s100.18,96.48,103.73,99.87A9.33,9.33,0,1,0,1469.55,693c-.87-.83-87.06-83.21-103.43-99.58S1267.37,490.87,1266.54,490l-.15-.16a9.33,9.33,0,0,0-13.34,13Z"/><path class="cls-3" d="M1298.93,457c3.36,3.52,82.39,86.45,99.78,103.84s100.33,96.43,103.85,99.78a9.33,9.33,0,1,0,12.87-13.5c-.86-.82-86.29-82.23-103.52-99.47S1313.26,445,1312.44,444.13A9.33,9.33,0,0,0,1298.93,457Z"/><path class="cls-3" d="M1344.81,411.1c3.32,3.49,81.43,85.69,99.69,103.95s100.47,96.38,104,99.69a9.33,9.33,0,1,0,12.85-13.52c-.85-.81-85.52-81.26-103.62-99.36s-98.54-102.76-99.35-103.61a9.33,9.33,0,1,0-13.53,12.85Z"/><path class="cls-3" d="M1390.69,365.2c3.28,3.46,80.47,84.93,99.6,104.07s100.61,96.32,104.07,99.6a9.33,9.33,0,0,0,12.83-13.55c-.85-.8-84.75-80.29-103.71-99.24S1405,353.21,1404.24,352.37a9.33,9.33,0,1,0-13.55,12.83Z"/><path class="cls-3" d="M1482.14,273.73c3.24,3.42,79.5,84.17,99.51,104.18s100.75,96.27,104.18,99.5a9.33,9.33,0,1,0,12.81-13.56c-.84-.79-84-79.32-103.8-99.14s-98.34-103-99.13-103.79a9.33,9.33,0,0,0-13.57,12.81Z"/><path class="cls-3" d="M1754.73,407.72c-.82-.77-82.44-77.38-104-98.91s-98.14-103.16-98.91-104a9.33,9.33,0,0,0-13.61,12.76c3.16,3.37,77.58,82.66,99.33,104.41s101,96.17,104.4,99.32a9.33,9.33,0,1,0,12.77-13.6Z"/><path class="cls-3" d="M1810.78,351.65c-.81-.77-81.67-76.41-104.07-98.8s-98-103.26-98.8-104.07a9.32,9.32,0,0,0-13.62,12.74c3.11,3.33,76.61,81.9,99.23,104.52S1794.7,362.15,1798,365.27a9.32,9.32,0,1,0,12.74-13.62Z"/><path class="cls-3" d="M1650.38,105.39c3,3.27,74.69,80.38,99,104.74s101.47,96,104.74,99.05a9.33,9.33,0,0,0,12.7-13.67c-.8-.74-80.14-74.46-104.25-98.57S1664.79,93.49,1664,92.69a2.83,2.83,0,0,0-.24-.25,9.33,9.33,0,0,0-13.42,13Z"/><path class="cls-3" d="M1698.88,57.18c3.63,3.74,89.13,91.77,100.43,103.07s99.33,96.79,103.07,100.43a9.33,9.33,0,0,0,13.1-13.29l-.1-.09c-.92-.89-91.67-89-102.88-100.24s-99.35-102-100.24-102.88l-.1-.1a9.33,9.33,0,0,0-13.28,13.1Z"/></g></svg>
