{
  "accessors": [
    {
      "bufferView": 0,
      "componentType": 5125,
      "count": 48354,
      "type": "SCALAR"
    },
    {
      "bufferView": 1,
      "componentType": 5126,
      "count": 11302,
      "max": [
        0.0855660289525986,
        0.0857708975672722,
        0.919920206069946
      ],
      "min": [
        -0.0855660289525986,
        -0.0849627554416656,
        0.00202983617782593
      ],
      "type": "VEC3"
    },
    {
      "bufferView": 2,
      "componentType": 5126,
      "count": 11302,
      "type": "VEC3"
    },
    {
      "bufferView": 3,
      "componentType": 5126,
      "count": 11302,
      "type": "VEC2"
    }
  ],
  "asset": {
    "generator": "Substance Painter 6.2.2",
    "version": "2.0"
  },
  "bufferViews": [
    {
      "buffer": 0,
      "byteLength": 193416,
      "target": 34963
    },
    {
      "buffer": 0,
      "byteLength": 135624,
      "byteOffset": 193416,
      "target": 34962
    },
    {
      "buffer": 0,
      "byteLength": 135624,
      "byteOffset": 329040,
      "target": 34962
    },
    {
      "buffer": 0,
      "byteLength": 90416,
      "byteOffset": 464664,
      "target": 34962
    }
  ],
  "buffers": [
    {
      "byteLength": 555080,
      "uri": "Solar_Bollard_Solar.bin"
    }
  ],
  "images": [
    {
      "uri": "Solar_Bollard_Solar_baseColor.png"
    },
    {
      "uri": "Solar_Bollard_Solar_occlusionRoughnessMetallic.png"
    },
    {
      "uri": "Solar_Bollard_Solar_normal.png"
    },
    {
      "uri": "Solar_Bollard_Solar_emissive.png"
    }
  ],
  "materials": [
    {
      "alphaMode": "OPAQUE",
      "emissiveFactor": [
        1.0,
        1.0,
        1.0
      ],
      "emissiveTexture": {
        "index": 3
      },
      "name": "Solar_Bollard_Solar",
      "normalTexture": {
        "index": 2
      },
      "occlusionTexture": {
        "index": 1
      },
      "pbrMetallicRoughness": {
        "baseColorTexture": {
          "index": 0
        },
        "metallicRoughnessTexture": {
          "index": 1
        }
      }
    }
  ],
  "meshes": [
    {
      "name": "Solar_Bollard_Solar",
      "primitives": [
        {
          "attributes": {
            "NORMAL": 2,
            "POSITION": 1,
            "TEXCOORD_0": 3
          },
          "indices": 0,
          "material": 0,
          "mode": 4
        }
      ]
    }
  ],
  "nodes": [
    {
      "children": [
        1
      ],
      "name": "RootNode"
    },
    {
      "children": [
        2
      ],
      "name": "Solar_Bollard_Solar",
      "rotation": [
        -0.70710676908493,
        0.0,
        0.0,
        0.70710676908493
      ],
      "translation": [
        0.0,
        -0.00201915972866118,
        -8.73114913702011e-11
      ]
    },
    {
      "mesh": 0,
      "name": "Solar_Bollard_Solar"
    }
  ],
  "samplers": [
    {
      "magFilter": 9729,
      "minFilter": 9985,
      "wrapS": 10497,
      "wrapT": 10497
    }
  ],
  "scene": 0,
  "scenes": [
    {
      "name": "Scene",
      "nodes": [
        0
      ]
    }
  ],
  "textures": [
    {
      "sampler": 0,
      "source": 0
    },
    {
      "sampler": 0,
      "source": 1
    },
    {
      "sampler": 0,
      "source": 2
    },
    {
      "sampler": 0,
      "source": 3
    }
  ]
}