{
  "accessors": [
    {
      "bufferView": 0,
      "componentType": 5125,
      "count": 127128,
      "type": "SCALAR"
    },
    {
      "bufferView": 1,
      "componentType": 5126,
      "count": 25107,
      "max": [
        0.0829297080636024,
        0.0830963775515556,
        0.920726001262665
      ],
      "min": [
        -0.0829297229647636,
        -0.0832281187176704,
        -1.78813934326172e-07
      ],
      "type": "VEC3"
    },
    {
      "bufferView": 2,
      "componentType": 5126,
      "count": 25107,
      "type": "VEC3"
    },
    {
      "bufferView": 3,
      "componentType": 5126,
      "count": 25107,
      "type": "VEC2"
    }
  ],
  "asset": {
    "generator": "Substance Painter 6.2.2",
    "version": "2.0"
  },
  "bufferViews": [
    {
      "buffer": 0,
      "byteLength": 508512,
      "target": 34963
    },
    {
      "buffer": 0,
      "byteLength": 301284,
      "byteOffset": 508512,
      "target": 34962
    },
    {
      "buffer": 0,
      "byteLength": 301284,
      "byteOffset": 809796,
      "target": 34962
    },
    {
      "buffer": 0,
      "byteLength": 200856,
      "byteOffset": 1111080,
      "target": 34962
    }
  ],
  "buffers": [
    {
      "byteLength": 1311936,
      "uri": "Aptos_Bollard_Solar.bin"
    }
  ],
  "images": [
    {
      "uri": "Aptos_Bollard_Solar_baseColor.png"
    },
    {
      "uri": "Aptos_Bollard_Solar_occlusionRoughnessMetallic.png"
    },
    {
      "uri": "Aptos_Bollard_Solar_normal.png"
    },
    {
      "uri": "Aptos_Bollard_Solar_emissive.png"
    }
  ],
  "materials": [
    {
      "alphaMode": "OPAQUE",
      "emissiveFactor": [
        1.0,
        1.0,
        1.0
      ],
      "emissiveTexture": {
        "index": 3
      },
      "name": "Aptos_Bollard_Solar",
      "normalTexture": {
        "index": 2
      },
      "occlusionTexture": {
        "index": 1
      },
      "pbrMetallicRoughness": {
        "baseColorTexture": {
          "index": 0
        },
        "metallicRoughnessTexture": {
          "index": 1
        }
      }
    }
  ],
  "meshes": [
    {
      "name": "Aptos_Bollard_Solar",
      "primitives": [
        {
          "attributes": {
            "NORMAL": 2,
            "POSITION": 1,
            "TEXCOORD_0": 3
          },
          "indices": 0,
          "material": 0,
          "mode": 4
        }
      ]
    }
  ],
  "nodes": [
    {
      "children": [
        1
      ],
      "name": "RootNode"
    },
    {
      "children": [
        2
      ],
      "name": "Aptos_Bollard_Solar",
      "rotation": [
        -0.70710676908493,
        4.11590310445131e-11,
        -4.11590310445131e-11,
        0.70710676908493
      ]
    },
    {
      "mesh": 0,
      "name": "Aptos_Bollard_Solar"
    }
  ],
  "samplers": [
    {
      "magFilter": 9729,
      "minFilter": 9985,
      "wrapS": 10497,
      "wrapT": 10497
    }
  ],
  "scene": 0,
  "scenes": [
    {
      "name": "Scene",
      "nodes": [
        0
      ]
    }
  ],
  "textures": [
    {
      "sampler": 0,
      "source": 0
    },
    {
      "sampler": 0,
      "source": 1
    },
    {
      "sampler": 0,
      "source": 2
    },
    {
      "sampler": 0,
      "source": 3
    }
  ]
}