{
  "accessors": [
    {
      "bufferView": 0,
      "componentType": 5125,
      "count": 580428,
      "type": "SCALAR"
    },
    {
      "bufferView": 1,
      "componentType": 5126,
      "count": 112880,
      "max": [
        0.815494000911713,
        0.244516342878342,
        3.65825581550598
      ],
      "min": [
        -0.815494000911713,
        -0.243908405303955,
        2.38418579101563e-07
      ],
      "type": "VEC3"
    },
    {
      "bufferView": 2,
      "componentType": 5126,
      "count": 112880,
      "type": "VEC3"
    },
    {
      "bufferView": 3,
      "componentType": 5126,
      "count": 112880,
      "type": "VEC2"
    }
  ],
  "asset": {
    "generator": "Substance Painter 6.2.2",
    "version": "2.0"
  },
  "bufferViews": [
    {
      "buffer": 0,
      "byteLength": 2321712,
      "target": 34963
    },
    {
      "buffer": 0,
      "byteLength": 1354560,
      "byteOffset": 2321712,
      "target": 34962
    },
    {
      "buffer": 0,
      "byteLength": 1354560,
      "byteOffset": 3676272,
      "target": 34962
    },
    {
      "buffer": 0,
      "byteLength": 903040,
      "byteOffset": 5030832,
      "target": 34962
    }
  ],
  "buffers": [
    {
      "byteLength": 5933872,
      "uri": "Aptos_Pedestrian_Dual_luminaire.bin"
    }
  ],
  "images": [
    {
      "uri": "Aptos_Pedestrian_Dual_luminaire_baseColor.png"
    },
    {
      "uri": "Aptos_Pedestrian_Dual_luminaire_occlusionRoughnessMetallic.png"
    },
    {
      "uri": "Aptos_Pedestrian_Dual_luminaire_normal.png"
    },
    {
      "uri": "Aptos_Pedestrian_Dual_luminaire_emissive.png"
    }
  ],
  "materials": [
    {
      "alphaMode": "OPAQUE",
      "emissiveFactor": [
        1.0,
        1.0,
        1.0
      ],
      "emissiveTexture": {
        "index": 3
      },
      "name": "Aptos_Pedestrian_Dual_luminaire",
      "normalTexture": {
        "index": 2
      },
      "occlusionTexture": {
        "index": 1
      },
      "pbrMetallicRoughness": {
        "baseColorTexture": {
          "index": 0
        },
        "metallicRoughnessTexture": {
          "index": 1
        }
      }
    }
  ],
  "meshes": [
    {
      "name": "Aptos_Pedestrian_Dual_luminaire",
      "primitives": [
        {
          "attributes": {
            "NORMAL": 2,
            "POSITION": 1,
            "TEXCOORD_0": 3
          },
          "indices": 0,
          "material": 0,
          "mode": 4
        }
      ]
    }
  ],
  "nodes": [
    {
      "children": [
        1
      ],
      "name": "RootNode"
    },
    {
      "children": [
        2
      ],
      "name": "Aptos_Pedestrian_Dual_luminaire",
      "rotation": [
        -0.70710676908493,
        0.0,
        0.0,
        0.70710676908493
      ]
    },
    {
      "mesh": 0,
      "name": "Aptos_Pedestrian_Dual_luminaire"
    }
  ],
  "samplers": [
    {
      "magFilter": 9729,
      "minFilter": 9985,
      "wrapS": 10497,
      "wrapT": 10497
    }
  ],
  "scene": 0,
  "scenes": [
    {
      "name": "Scene",
      "nodes": [
        0
      ]
    }
  ],
  "textures": [
    {
      "sampler": 0,
      "source": 0
    },
    {
      "sampler": 0,
      "source": 1
    },
    {
      "sampler": 0,
      "source": 2
    },
    {
      "sampler": 0,
      "source": 3
    }
  ]
}