{
  "accessors": [
    {
      "bufferView": 0,
      "componentType": 5125,
      "count": 646704,
      "type": "SCALAR"
    },
    {
      "bufferView": 1,
      "componentType": 5126,
      "count": 118570,
      "max": [
        0.815494060516357,
        0.244516342878342,
        4.31626081466675
      ],
      "min": [
        -0.815494060516357,
        -0.2439084649086,
        4.76837158203125e-07
      ],
      "type": "VEC3"
    },
    {
      "bufferView": 2,
      "componentType": 5126,
      "count": 118570,
      "type": "VEC3"
    },
    {
      "bufferView": 3,
      "componentType": 5126,
      "count": 118570,
      "type": "VEC2"
    },
    {
      "bufferView": 4,
      "componentType": 5125,
      "count": 2544,
      "type": "SCALAR"
    },
    {
      "bufferView": 5,
      "componentType": 5126,
      "count": 636,
      "max": [
        0.792020678520203,
        0.221247524023056,
        4.26858568191528
      ],
      "min": [
        -0.792020678520203,
        -0.221855953335762,
        4.26858520507813
      ],
      "type": "VEC3"
    },
    {
      "bufferView": 6,
      "componentType": 5126,
      "count": 636,
      "type": "VEC3"
    },
    {
      "bufferView": 7,
      "componentType": 5126,
      "count": 636,
      "type": "VEC2"
    }
  ],
  "asset": {
    "generator": "Substance Painter 6.2.1",
    "version": "2.0"
  },
  "bufferViews": [
    {
      "buffer": 0,
      "byteLength": 2586816,
      "target": 34963
    },
    {
      "buffer": 0,
      "byteLength": 1422840,
      "byteOffset": 2586816,
      "target": 34962
    },
    {
      "buffer": 0,
      "byteLength": 1422840,
      "byteOffset": 4009656,
      "target": 34962
    },
    {
      "buffer": 0,
      "byteLength": 948560,
      "byteOffset": 5432496,
      "target": 34962
    },
    {
      "buffer": 0,
      "byteLength": 10176,
      "byteOffset": 6381056,
      "target": 34963
    },
    {
      "buffer": 0,
      "byteLength": 7632,
      "byteOffset": 6391232,
      "target": 34962
    },
    {
      "buffer": 0,
      "byteLength": 7632,
      "byteOffset": 6398864,
      "target": 34962
    },
    {
      "buffer": 0,
      "byteLength": 5088,
      "byteOffset": 6406496,
      "target": 34962
    }
  ],
  "buffers": [
    {
      "byteLength": 6411584,
      "uri": "Aptos_Pedestrian_Dual_luminaire.bin"
    }
  ],
  "images": [
    {
      "uri": "Aptos_Pedestrian_Dual_luminaire_Light_baseColor.png"
    },
    {
      "uri": "Aptos_Pedestrian_Dual_luminaire_Light_occlusionRoughnessMetallic.png"
    },
    {
      "uri": "Aptos_Pedestrian_Dual_luminaire_Light_normal.png"
    },
    {
      "uri": "Aptos_Pedestrian_Dual_luminaire_Light_emissive.png"
    },
    {
      "uri": "Aptos_Pedestrian_Dual_luminaire_baseColor.png"
    },
    {
      "uri": "Aptos_Pedestrian_Dual_luminaire_occlusionRoughnessMetallic.png"
    },
    {
      "uri": "Aptos_Pedestrian_Dual_luminaire_normal.png"
    }
  ],
  "materials": [
    {
      "alphaMode": "OPAQUE",
      "emissiveFactor": [
        1.0,
        1.0,
        1.0
      ],
      "emissiveTexture": {
        "index": 3
      },
      "name": "Aptos_Pedestrian_Dual_luminaire_Light ",
      "normalTexture": {
        "index": 2
      },
      "occlusionTexture": {
        "index": 1
      },
      "pbrMetallicRoughness": {
        "baseColorTexture": {
          "index": 0
        },
        "metallicRoughnessTexture": {
          "index": 1
        }
      }
    },
    {
      "alphaMode": "OPAQUE",
      "name": "Aptos_Pedestrian_Dual_luminaire",
      "normalTexture": {
        "index": 6
      },
      "occlusionTexture": {
        "index": 5
      },
      "pbrMetallicRoughness": {
        "baseColorTexture": {
          "index": 4
        },
        "metallicRoughnessTexture": {
          "index": 5
        }
      }
    }
  ],
  "meshes": [
    {
      "name": "Aptos_Pedestrian_Dual_luminaire",
      "primitives": [
        {
          "attributes": {
            "NORMAL": 2,
            "POSITION": 1,
            "TEXCOORD_0": 3
          },
          "indices": 0,
          "material": 1,
          "mode": 4
        }
      ]
    },
    {
      "name": "Aptos_Pedestrian_Dual_luminaire_Light",
      "primitives": [
        {
          "attributes": {
            "NORMAL": 6,
            "POSITION": 5,
            "TEXCOORD_0": 7
          },
          "indices": 4,
          "material": 0,
          "mode": 4
        }
      ]
    }
  ],
  "nodes": [
    {
      "children": [
        1,
        3
      ],
      "name": "RootNode"
    },
    {
      "children": [
        2
      ],
      "name": "Aptos_Pedestrian_Dual_luminaire",
      "rotation": [
        -0.70710676908493,
        0.0,
        0.0,
        0.70710676908493
      ]
    },
    {
      "mesh": 0,
      "name": "Aptos_Pedestrian_Dual_luminaire"
    },
    {
      "children": [
        4
      ],
      "name": "Aptos_Pedestrian_Dual_luminaire_Light",
      "rotation": [
        -0.70710676908493,
        0.0,
        0.0,
        0.70710676908493
      ]
    },
    {
      "mesh": 1,
      "name": "Aptos_Pedestrian_Dual_luminaire_Light"
    }
  ],
  "samplers": [
    {
      "magFilter": 9729,
      "minFilter": 9985,
      "wrapS": 10497,
      "wrapT": 10497
    }
  ],
  "scene": 0,
  "scenes": [
    {
      "name": "Scene",
      "nodes": [
        0
      ]
    }
  ],
  "textures": [
    {
      "sampler": 0,
      "source": 0
    },
    {
      "sampler": 0,
      "source": 1
    },
    {
      "sampler": 0,
      "source": 2
    },
    {
      "sampler": 0,
      "source": 3
    },
    {
      "sampler": 0,
      "source": 4
    },
    {
      "sampler": 0,
      "source": 5
    },
    {
      "sampler": 0,
      "source": 6
    }
  ]
}