{
  "accessors": [
    {
      "bufferView": 0,
      "componentType": 5125,
      "count": 312996,
      "type": "SCALAR"
    },
    {
      "bufferView": 1,
      "componentType": 5126,
      "count": 111412,
      "max": [
        0.270877122879028,
        0.254606008529663,
        0.800652623176575
      ],
      "min": [
        -0.270877182483673,
        -0.291548848152161,
        -0.000912994146347046
      ],
      "type": "VEC3"
    },
    {
      "bufferView": 2,
      "componentType": 5126,
      "count": 111412,
      "type": "VEC3"
    },
    {
      "bufferView": 3,
      "componentType": 5126,
      "count": 111412,
      "type": "VEC2"
    }
  ],
  "asset": {
    "generator": "Substance Painter 6.2.2",
    "version": "2.0"
  },
  "bufferViews": [
    {
      "buffer": 0,
      "byteLength": 1251984,
      "target": 34963
    },
    {
      "buffer": 0,
      "byteLength": 1336944,
      "byteOffset": 1251984,
      "target": 34962
    },
    {
      "buffer": 0,
      "byteLength": 1336944,
      "byteOffset": 2588928,
      "target": 34962
    },
    {
      "buffer": 0,
      "byteLength": 891296,
      "byteOffset": 3925872,
      "target": 34962
    }
  ],
  "buffers": [
    {
      "byteLength": 4817168,
      "uri": "Parker_Cafe_Armed_Perforated.bin"
    }
  ],
  "images": [
    {
      "uri": "Parker_Cafe_Armed_Perforated_baseColor.png"
    },
    {
      "uri": "Parker_Cafe_Armed_Perforated_occlusionRoughnessMetallic.png"
    },
    {
      "uri": "Parker_Cafe_Armed_Perforated_normal.png"
    }
  ],
  "materials": [
    {
      "alphaMode": "OPAQUE",
      "name": "Parker_Cafe_Armed_Perforated",
      "normalTexture": {
        "index": 2
      },
      "occlusionTexture": {
        "index": 1
      },
      "pbrMetallicRoughness": {
        "baseColorTexture": {
          "index": 0
        },
        "metallicRoughnessTexture": {
          "index": 1
        }
      }
    }
  ],
  "meshes": [
    {
      "name": "Parker_Cafe_Armed_Perforated",
      "primitives": [
        {
          "attributes": {
            "NORMAL": 2,
            "POSITION": 1,
            "TEXCOORD_0": 3
          },
          "indices": 0,
          "material": 0,
          "mode": 4
        }
      ]
    }
  ],
  "nodes": [
    {
      "children": [
        1
      ],
      "name": "RootNode"
    },
    {
      "children": [
        2
      ],
      "name": "Parker_Cafe_Armed_Perforated",
      "rotation": [
        -0.70710676908493,
        0.0,
        0.0,
        0.70710676908493
      ],
      "translation": [
        0.0,
        0.000768720870837569,
        3.36018608770861e-11
      ]
    },
    {
      "mesh": 0,
      "name": "Parker_Cafe_Armed_Perforated"
    }
  ],
  "samplers": [
    {
      "magFilter": 9729,
      "minFilter": 9985,
      "wrapS": 10497,
      "wrapT": 10497
    }
  ],
  "scene": 0,
  "scenes": [
    {
      "name": "Scene",
      "nodes": [
        0
      ]
    }
  ],
  "textures": [
    {
      "sampler": 0,
      "source": 0
    },
    {
      "sampler": 0,
      "source": 1
    },
    {
      "sampler": 0,
      "source": 2
    }
  ]
}