{
  "accessors": [
    {
      "bufferView": 0,
      "componentType": 5125,
      "count": 191133,
      "type": "SCALAR"
    },
    {
      "bufferView": 1,
      "componentType": 5126,
      "count": 59915,
      "max": [
        0.293209075927734,
        1.19582450389862,
        0.300849497318268
      ],
      "min": [
        -0.294587016105652,
        2.38418579101563e-07,
        -0.292872786521912
      ],
      "type": "VEC3"
    },
    {
      "bufferView": 2,
      "componentType": 5126,
      "count": 59915,
      "type": "VEC3"
    },
    {
      "bufferView": 3,
      "componentType": 5126,
      "count": 59915,
      "type": "VEC2"
    }
  ],
  "asset": {
    "generator": "Substance Painter 6.2.2",
    "version": "2.0"
  },
  "bufferViews": [
    {
      "buffer": 0,
      "byteLength": 764532,
      "target": 34963
    },
    {
      "buffer": 0,
      "byteLength": 718980,
      "byteOffset": 764532,
      "target": 34962
    },
    {
      "buffer": 0,
      "byteLength": 718980,
      "byteOffset": 1483512,
      "target": 34962
    },
    {
      "buffer": 0,
      "byteLength": 479320,
      "byteOffset": 2202492,
      "target": 34962
    }
  ],
  "buffers": [
    {
      "byteLength": 2681812,
      "uri": "Tonyo_Receptacle_30_Gallon_PC3.bin"
    }
  ],
  "images": [
    {
      "uri": "./Tonyo_Receptacle_30_Gallon_PC3/Tonyo_Receptacle_30_Gallon_PC3_baseColor.png"
    },
    {
      "uri": "./Tonyo_Receptacle_30_Gallon_PC3/Tonyo_Receptacle_30_Gallon_PC3_occlusionRoughnessMetallic.png"
    },
    {
      "uri": "./Tonyo_Receptacle_30_Gallon_PC3/Tonyo_Receptacle_30_Gallon_PC3_normal.png"
    }
  ],
  "materials": [
    {
      "alphaMode": "OPAQUE",
      "name": "Tonyo_Receptacle_30_Gallon_PC3",
      "normalTexture": {
        "index": 2
      },
      "occlusionTexture": {
        "index": 1
      },
      "pbrMetallicRoughness": {
        "baseColorTexture": {
          "index": 0
        },
        "metallicRoughnessTexture": {
          "index": 1
        }
      }
    }
  ],
  "meshes": [
    {
      "name": "Tonyo_Receptacle_30_Gallon_02",
      "primitives": [
        {
          "attributes": {
            "NORMAL": 2,
            "POSITION": 1,
            "TEXCOORD_0": 3
          },
          "indices": 0,
          "material": 0,
          "mode": 4
        }
      ]
    }
  ],
  "nodes": [
    {
      "children": [
        1
      ],
      "name": "RootNode"
    },
    {
      "children": [
        2
      ],
      "name": "Tonyo_Receptacle_30_Gallon_02",
      "rotation": [
        8.14603424714733e-08,
        0.0,
        0.0,
        1.0
      ],
      "translation": [
        0.0,
        -2.90712563355555e-07,
        0.0002002784749493
      ]
    },
    {
      "mesh": 0,
      "name": "Tonyo_Receptacle_30_Gallon_02"
    }
  ],
  "samplers": [
    {
      "magFilter": 9729,
      "minFilter": 9985,
      "wrapS": 10497,
      "wrapT": 10497
    }
  ],
  "scene": 0,
  "scenes": [
    {
      "name": "Scene",
      "nodes": [
        0
      ]
    }
  ],
  "textures": [
    {
      "sampler": 0,
      "source": 0
    },
    {
      "sampler": 0,
      "source": 1
    },
    {
      "sampler": 0,
      "source": 2
    }
  ]
}