<svg xmlns="http://www.w3.org/2000/svg" viewBox="0 0 520.91 25.92"><defs><style>.cls-1{fill:#e31837;}.cls-2{fill:#aaa;}</style></defs><g id="Layer_2" data-name="Layer 2"><g id="Layer_10" data-name="Layer 10"><path class="cls-1" d="M24.08,12.06h-4l-.9,4h3v4.28h-4l-1.15,5.22H12.28l1.15-5.22H7.81L6.66,25.56H1.94L3.1,20.34H0V16.06H4l.9-4h-3V7.74H5.87L7,2.52h4.75L10.62,7.74H16.2l1.15-5.22h4.79L21,7.74h3.09Zm-9.72,4,.9-4H9.65l-.87,4Z"/><path class="cls-1" d="M32.62,20.59H45v5H27.18V.36h5.44Z"/><path class="cls-1" d="M53.64.36v25.2H48.06V.36Z"/><path class="cls-1" d="M74.05.36h5.4v25.2H73.87L63.65,10.19h-.33V25.56H57.89V.36h5.54l10.3,15.52h.32Z"/><path class="cls-1" d="M89.17,20.74h12.35v4.82H83.73V.36h17.43V5.18h-12V10.4H99.36v4.72H89.17Z"/><path class="cls-1" d="M126.11.36v15.3q0,5-2.94,7.65a11.14,11.14,0,0,1-7.68,2.61,11.29,11.29,0,0,1-7.73-2.61q-3-2.61-3-7.65V.36h5.58V15.55a5.19,5.19,0,0,0,1.42,3.85,5.08,5.08,0,0,0,3.73,1.41,4.85,4.85,0,0,0,3.66-1.39,5.3,5.3,0,0,0,1.35-3.87V.36Z"/><path class="cls-1" d="M140.94.36a8.71,8.71,0,0,1,6.35,2.29,7.87,7.87,0,0,1,2.36,5.92,7.83,7.83,0,0,1-2.4,6,8.9,8.9,0,0,1-6.42,2.27h-5.08v8.75h-5.4V.36ZM140.25,12a3.77,3.77,0,0,0,2.76-.92,3.39,3.39,0,0,0,.91-2.5A3.25,3.25,0,0,0,143,6.12a3.64,3.64,0,0,0-2.64-.94h-4.58V12Z"/><path class="cls-1" d="M171.18,5.47H159v5.8h10.51v4.82H159v9.47h-5.58V.36h17.79Z"/><path class="cls-1" d="M186.84,25.92a12.76,12.76,0,0,1-9.4-3.69A12.55,12.55,0,0,1,173.73,13a12.49,12.49,0,0,1,3.73-9.25,13.73,13.73,0,0,1,18.77,0A12.51,12.51,0,0,1,199.94,13a12.57,12.57,0,0,1-3.69,9.25A12.73,12.73,0,0,1,186.84,25.92Zm0-5.11a6.94,6.94,0,0,0,5.29-2.22A7.83,7.83,0,0,0,194.25,13a7.87,7.87,0,0,0-2.09-5.62,7,7,0,0,0-5.29-2.23,7,7,0,0,0-5.34,2.22A7.8,7.8,0,0,0,179.42,13a7.8,7.8,0,0,0,2.11,5.63A7,7,0,0,0,186.87,20.81Z"/><path class="cls-1" d="M223.34,25.56h-5.83l-4.75-9.4h-3.64v9.4h-5.44V.36h10.59a8.46,8.46,0,0,1,6,2.09,7.12,7.12,0,0,1,2.23,5.47,7.7,7.7,0,0,1-1.2,4.32,7.78,7.78,0,0,1-3.37,2.81ZM209.12,5v6.44h4.5a3.11,3.11,0,0,0,3.31-3.24,3.13,3.13,0,0,0-.88-2.32A3.28,3.28,0,0,0,213.62,5Z"/><path class="cls-1" d="M231.87,20.59h12.35v5H226.44V.36h5.43Z"/><path class="cls-1" d="M252.9.36v25.2h-5.58V.36Z"/><path class="cls-1" d="M273.31.36h5.4v25.2h-5.58L262.9,10.19h-.32V25.56h-5.44V.36h5.55L273,15.88h.33Z"/><path class="cls-1" d="M288.57.36v25.2H283V.36Z"/><path class="cls-1" d="M310.24,25.56l-1.91-5.65h-9.14l-1.91,5.65h-5.94L300.45.36h6.66l9.07,25.2ZM300.7,15.37h6.12l-2.91-8.64h-.33Z"/><path class="cls-2" d="M341,11.59h11.77v14h-4.42l-.51-2.12h-.32a10.41,10.41,0,0,1-7.31,2.48,11.49,11.49,0,0,1-8.77-3.49,12.7,12.7,0,0,1-3.29-9.07,13.21,13.21,0,0,1,3.64-9.62A12.48,12.48,0,0,1,341.17,0a12.35,12.35,0,0,1,7.92,2.38,8.87,8.87,0,0,1,3.45,6h-6.08q-1.12-3.28-5.29-3.28a6.67,6.67,0,0,0-5.31,2.31,8.63,8.63,0,0,0-2,5.9,7.94,7.94,0,0,0,1.89,5.54A6.73,6.73,0,0,0,341,21a8.29,8.29,0,0,0,4.54-1.11,3.61,3.61,0,0,0,1.73-3.21v-.79H341Z"/><path class="cls-2" d="M362.62.36v25.2H357V.36Z"/><path class="cls-2" d="M383,.36h5.94l-8.43,25.2h-6.66L365.39.36h6l5.69,17.71h.32Z"/><path class="cls-2" d="M397.14,20.74h12.35v4.82H391.71V.36h17.42V5.18h-12V10.4h10.19v4.72H397.14Z"/><path class="cls-2" d="M430.19,25.56l-1.91-5.65h-9.14l-1.91,5.65h-5.94L420.4.36h6.66l9.07,25.2Zm-9.54-10.19h6.12l-2.91-8.64h-.33Z"/><path class="cls-2" d="M464.43.36h5.36l-5.4,25.2h-6.08L453.77,9.32h-.32l-4.54,16.24h-6.08L437.43.36h5.36l3.35,16.92h.32l4.25-15.12h5.8l4.21,15.12H461Z"/><path class="cls-2" d="M490,25.56l-1.91-5.65h-9.14L477,25.56h-5.94L480.2.36h6.66l9.07,25.2Zm-9.54-10.19h6.12l-2.92-8.64h-.32Z"/><path class="cls-2" d="M514.32.36h6.59l-9,14.47V25.56h-5.59V14.83L497.22.36h6.56l5.11,8.42h.32Z"/></g></g></svg>