<svg version="1.1" id="fns_icon_back" xmlns="http://www.w3.org/2000/svg" xmlns:xlink="http://www.w3.org/1999/xlink" x="0px" y="0px" viewBox="0 0 45 45" style="enable-background:new 0 0 45 45;" xml:space="preserve">
  <style type="text/css">
	.st0{fill:#aaaaaa;}
</style>
  <g>
    <path class="st0" d="M22.5,1.62c11.51,0,20.88,9.37,20.88,20.88S34.01,43.38,22.5,43.38S1.62,34.01,1.62,22.5S10.99,1.62,22.5,1.62
		 M22.5,0C10.09,0,0,10.09,0,22.5S10.09,45,22.5,45S45,34.91,45,22.5S34.91,0,22.5,0L22.5,0z"/>
  </g>
  <path class="st0" d="M27.94,31.35c0.37,0.37,0.37,0.97,0,1.35c-0.19,0.19-0.43,0.28-0.67,0.28s-0.49-0.09-0.67-0.28l-9.52-9.52
	c-0.37-0.37-0.37-0.97,0-1.35l9.52-9.52c0.37-0.37,0.97-0.37,1.35,0s0.37,0.97,0,1.35l-8.85,8.85L27.94,31.35z"/>
</svg>
