<svg version="1.1" id="fns_icon_lights_show" xmlns="http://www.w3.org/2000/svg" xmlns:xlink="http://www.w3.org/1999/xlink" x="0px" y="0px" viewBox="0 0 80 80" style="enable-background:new 0 0 80 80;" xml:space="preserve">
  <style type="text/css">
	.st0{fill:#ffffff;}
	.st1{fill:#aaaaaa;}
</style>
  <g>
    <circle class="st0" cx="40" cy="40" r="40"/>
    <path class="st1" d="M40.28,17.09c-12.81,0-23.22,10.4-23.22,23.22s10.4,23.22,23.22,23.22c0.12,0,0.24-0.01,0.35-0.01
		c0.07,0,0.14,0.01,0.2,0.01c0.07,0,0.13-0.01,0.2-0.02C53.5,63.1,63.5,52.86,63.5,40.3s-10-22.8-22.46-23.19
		c-0.07-0.01-0.13-0.02-0.2-0.02c-0.07,0-0.13,0.01-0.2,0.01C40.52,17.09,40.4,17.09,40.28,17.09z M40.64,18.95
		c2.53,0.04,4.96,0.53,7.2,1.37c-0.08,0.15-0.13,0.31-0.13,0.48c0,0.51,0.42,0.93,0.93,0.93c0.41,0,0.78-0.28,0.89-0.67
		c4.37,2.1,7.91,5.63,10,9.99c-0.4,0.11-0.68,0.48-0.68,0.9c0,0.51,0.42,0.93,0.93,0.93c0.17,0,0.33-0.05,0.48-0.13
		c0.89,2.35,1.38,4.89,1.38,7.56s-0.49,5.21-1.38,7.56c-0.15-0.08-0.31-0.13-0.48-0.13c-0.51,0-0.93,0.42-0.93,0.93
		c0,0.42,0.28,0.78,0.68,0.9c-2.1,4.36-5.64,7.9-10,10c-0.11-0.4-0.48-0.68-0.89-0.68c-0.51,0-0.93,0.42-0.93,0.93
		c0,0.17,0.05,0.33,0.13,0.48c-2.24,0.85-4.67,1.33-7.2,1.37c-1.09-0.03-2.15-0.35-3.17-0.92c0.01,0,0.02,0,0.03,0
		c0.51,0,0.93-0.42,0.93-0.93s-0.42-0.93-0.93-0.93s-0.93,0.42-0.93,0.93c0,0.14,0.03,0.28,0.09,0.41c-0.88-0.62-1.72-1.44-2.5-2.44
		c0.16,0.11,0.35,0.18,0.55,0.18c0.51,0,0.93-0.42,0.93-0.93c0-0.51-0.42-0.93-0.93-0.93c-0.51,0-0.93,0.42-0.93,0.93
		c0,0.11,0.02,0.21,0.06,0.32c-0.39-0.53-0.77-1.1-1.12-1.72c-0.11-0.19-0.21-0.4-0.31-0.6c0.27-0.17,0.44-0.46,0.44-0.79
		c0-0.51-0.42-0.93-0.93-0.93c-0.1,0-0.21,0.02-0.3,0.05c-0.85-1.99-1.52-4.25-1.94-6.73c0.25-0.17,0.39-0.46,0.39-0.76
		c0-0.4-0.25-0.75-0.63-0.88c-0.15-1.22-0.24-2.47-0.26-3.76c0.5-0.02,0.9-0.43,0.9-0.93c0-0.5-0.4-0.91-0.9-0.93
		c0.03-1.29,0.12-2.55,0.26-3.76c0.38-0.13,0.63-0.48,0.63-0.88c0-0.3-0.15-0.58-0.39-0.76c0.42-2.47,1.1-4.73,1.94-6.73
		c0.1,0.04,0.2,0.05,0.3,0.05c0.51,0,0.93-0.42,0.93-0.93c0-0.32-0.17-0.62-0.44-0.79c0.1-0.2,0.2-0.41,0.31-0.59
		c0.35-0.62,0.73-1.19,1.12-1.72c-0.04,0.11-0.06,0.21-0.06,0.32c0,0.51,0.42,0.93,0.93,0.93c0.51,0,0.93-0.42,0.93-0.93
		s-0.42-0.93-0.93-0.93c-0.2,0-0.38,0.06-0.54,0.18c0.78-1,1.61-1.82,2.5-2.44c-0.06,0.13-0.09,0.26-0.09,0.41
		c0,0.51,0.42,0.93,0.93,0.93s0.93-0.42,0.93-0.93c0-0.51-0.42-0.93-0.93-0.93c-0.01,0-0.02,0-0.03,0
		C38.49,19.31,39.55,18.99,40.64,18.95z M34.5,19.74c-1.28,1.15-2.43,2.62-3.4,4.33c-2.39,4.2-3.82,9.91-3.82,16.23
		s1.44,12.03,3.82,16.23c0.97,1.71,2.12,3.18,3.4,4.33C25.51,58.35,18.92,50.1,18.92,40.3S25.51,22.26,34.5,19.74z M43.07,19.87
		c-0.51,0-0.93,0.42-0.93,0.93c0,0.51,0.42,0.93,0.93,0.93S44,21.31,44,20.8C44,20.29,43.58,19.87,43.07,19.87z M40.28,22.66
		c-0.51,0-0.93,0.42-0.93,0.93s0.42,0.93,0.93,0.93c0.51,0,0.93-0.42,0.93-0.93S40.79,22.66,40.28,22.66z M45.85,22.66
		c-0.51,0-0.93,0.42-0.93,0.93s0.42,0.93,0.93,0.93s0.93-0.42,0.93-0.93S46.36,22.66,45.85,22.66z M51.42,22.66
		c-0.51,0-0.93,0.42-0.93,0.93s0.42,0.93,0.93,0.93s0.93-0.42,0.93-0.93S51.94,22.66,51.42,22.66z M37.49,25.44
		c-0.51,0-0.93,0.42-0.93,0.93c0,0.51,0.42,0.93,0.93,0.93s0.93-0.42,0.93-0.93C38.42,25.86,38.01,25.44,37.49,25.44z M43.07,25.44
		c-0.51,0-0.93,0.42-0.93,0.93c0,0.51,0.42,0.93,0.93,0.93S44,26.88,44,26.37C44,25.86,43.58,25.44,43.07,25.44z M48.64,25.44
		c-0.51,0-0.93,0.42-0.93,0.93c0,0.51,0.42,0.93,0.93,0.93c0.51,0,0.93-0.42,0.93-0.93C49.57,25.86,49.15,25.44,48.64,25.44z
		 M54.21,25.44c-0.51,0-0.93,0.42-0.93,0.93c0,0.51,0.42,0.93,0.93,0.93c0.51,0,0.93-0.42,0.93-0.93
		C55.14,25.86,54.72,25.44,54.21,25.44z M34.71,28.23c-0.51,0-0.93,0.42-0.93,0.93c0,0.51,0.42,0.93,0.93,0.93
		c0.51,0,0.93-0.42,0.93-0.93C35.64,28.65,35.22,28.23,34.71,28.23z M40.28,28.23c-0.51,0-0.93,0.42-0.93,0.93
		c0,0.51,0.42,0.93,0.93,0.93c0.51,0,0.93-0.42,0.93-0.93C41.21,28.65,40.79,28.23,40.28,28.23z M45.85,28.23
		c-0.51,0-0.93,0.42-0.93,0.93c0,0.51,0.42,0.93,0.93,0.93s0.93-0.42,0.93-0.93C46.78,28.65,46.36,28.23,45.85,28.23z M51.42,28.23
		c-0.51,0-0.93,0.42-0.93,0.93c0,0.51,0.42,0.93,0.93,0.93s0.93-0.42,0.93-0.93C52.35,28.65,51.94,28.23,51.42,28.23z M57,28.23
		c-0.51,0-0.93,0.42-0.93,0.93c0,0.51,0.42,0.93,0.93,0.93s0.93-0.42,0.93-0.93C57.92,28.65,57.51,28.23,57,28.23z M31.92,31.02
		c-0.51,0-0.93,0.42-0.93,0.93c0,0.51,0.42,0.93,0.93,0.93s0.93-0.42,0.93-0.93C32.85,31.43,32.43,31.02,31.92,31.02z M37.49,31.02
		c-0.51,0-0.93,0.42-0.93,0.93c0,0.51,0.42,0.93,0.93,0.93s0.93-0.42,0.93-0.93C38.42,31.43,38.01,31.02,37.49,31.02z M43.07,31.02
		c-0.51,0-0.93,0.42-0.93,0.93c0,0.51,0.42,0.93,0.93,0.93S44,32.46,44,31.94C44,31.43,43.58,31.02,43.07,31.02z M48.64,31.02
		c-0.51,0-0.93,0.42-0.93,0.93c0,0.51,0.42,0.93,0.93,0.93c0.51,0,0.93-0.42,0.93-0.93C49.57,31.43,49.15,31.02,48.64,31.02z
		 M54.21,31.02c-0.51,0-0.93,0.42-0.93,0.93c0,0.51,0.42,0.93,0.93,0.93c0.51,0,0.93-0.42,0.93-0.93
		C55.14,31.43,54.72,31.02,54.21,31.02z M34.71,33.8c-0.51,0-0.93,0.42-0.93,0.93s0.42,0.93,0.93,0.93c0.51,0,0.93-0.42,0.93-0.93
		S35.22,33.8,34.71,33.8z M40.28,33.8c-0.51,0-0.93,0.42-0.93,0.93s0.42,0.93,0.93,0.93c0.51,0,0.93-0.42,0.93-0.93
		S40.79,33.8,40.28,33.8z M45.85,33.8c-0.51,0-0.93,0.42-0.93,0.93s0.42,0.93,0.93,0.93s0.93-0.42,0.93-0.93S46.36,33.8,45.85,33.8z
		 M51.42,33.8c-0.51,0-0.93,0.42-0.93,0.93s0.42,0.93,0.93,0.93s0.93-0.42,0.93-0.93S51.94,33.8,51.42,33.8z M57,33.8
		c-0.51,0-0.93,0.42-0.93,0.93s0.42,0.93,0.93,0.93s0.93-0.42,0.93-0.93S57.51,33.8,57,33.8z M31.92,36.59
		c-0.51,0-0.93,0.42-0.93,0.93c0,0.51,0.42,0.93,0.93,0.93s0.93-0.42,0.93-0.93C32.85,37,32.43,36.59,31.92,36.59z M37.49,36.59
		c-0.51,0-0.93,0.42-0.93,0.93c0,0.51,0.42,0.93,0.93,0.93s0.93-0.42,0.93-0.93C38.42,37,38.01,36.59,37.49,36.59z M43.07,36.59
		c-0.51,0-0.93,0.42-0.93,0.93c0,0.51,0.42,0.93,0.93,0.93S44,38.03,44,37.52C44,37,43.58,36.59,43.07,36.59z M48.64,36.59
		c-0.51,0-0.93,0.42-0.93,0.93c0,0.51,0.42,0.93,0.93,0.93c0.51,0,0.93-0.42,0.93-0.93C49.57,37,49.15,36.59,48.64,36.59z
		 M54.21,36.59c-0.51,0-0.93,0.42-0.93,0.93c0,0.51,0.42,0.93,0.93,0.93c0.51,0,0.93-0.42,0.93-0.93
		C55.14,37,54.72,36.59,54.21,36.59z M59.78,36.59c-0.51,0-0.93,0.42-0.93,0.93c0,0.51,0.42,0.93,0.93,0.93
		c0.51,0,0.93-0.42,0.93-0.93C60.71,37,60.29,36.59,59.78,36.59z M34.71,39.37c-0.51,0-0.93,0.42-0.93,0.93s0.42,0.93,0.93,0.93
		c0.51,0,0.93-0.42,0.93-0.93S35.22,39.37,34.71,39.37z M40.28,39.37c-0.51,0-0.93,0.42-0.93,0.93s0.42,0.93,0.93,0.93
		c0.51,0,0.93-0.42,0.93-0.93S40.79,39.37,40.28,39.37z M45.85,39.37c-0.51,0-0.93,0.42-0.93,0.93s0.42,0.93,0.93,0.93
		s0.93-0.42,0.93-0.93S46.36,39.37,45.85,39.37z M51.42,39.37c-0.51,0-0.93,0.42-0.93,0.93s0.42,0.93,0.93,0.93s0.93-0.42,0.93-0.93
		S51.94,39.37,51.42,39.37z M57,39.37c-0.51,0-0.93,0.42-0.93,0.93s0.42,0.93,0.93,0.93s0.93-0.42,0.93-0.93S57.51,39.37,57,39.37z
		 M31.92,42.16c-0.51,0-0.93,0.42-0.93,0.93c0,0.51,0.42,0.93,0.93,0.93s0.93-0.42,0.93-0.93C32.85,42.58,32.43,42.16,31.92,42.16z
		 M37.49,42.16c-0.51,0-0.93,0.42-0.93,0.93c0,0.51,0.42,0.93,0.93,0.93s0.93-0.42,0.93-0.93C38.42,42.58,38.01,42.16,37.49,42.16z
		 M43.07,42.16c-0.51,0-0.93,0.42-0.93,0.93c0,0.51,0.42,0.93,0.93,0.93S44,43.6,44,43.09C44,42.58,43.58,42.16,43.07,42.16z
		 M48.64,42.16c-0.51,0-0.93,0.42-0.93,0.93c0,0.51,0.42,0.93,0.93,0.93c0.51,0,0.93-0.42,0.93-0.93
		C49.57,42.58,49.15,42.16,48.64,42.16z M54.21,42.16c-0.51,0-0.93,0.42-0.93,0.93c0,0.51,0.42,0.93,0.93,0.93
		c0.51,0,0.93-0.42,0.93-0.93C55.14,42.58,54.72,42.16,54.21,42.16z M59.78,42.16c-0.51,0-0.93,0.42-0.93,0.93
		c0,0.51,0.42,0.93,0.93,0.93c0.51,0,0.93-0.42,0.93-0.93C60.71,42.58,60.29,42.16,59.78,42.16z M34.71,44.95
		c-0.51,0-0.93,0.42-0.93,0.93s0.42,0.93,0.93,0.93c0.51,0,0.93-0.42,0.93-0.93S35.22,44.95,34.71,44.95z M40.28,44.95
		c-0.51,0-0.93,0.42-0.93,0.93s0.42,0.93,0.93,0.93c0.51,0,0.93-0.42,0.93-0.93S40.79,44.95,40.28,44.95z M45.85,44.95
		c-0.51,0-0.93,0.42-0.93,0.93s0.42,0.93,0.93,0.93s0.93-0.42,0.93-0.93S46.36,44.95,45.85,44.95z M51.42,44.95
		c-0.51,0-0.93,0.42-0.93,0.93s0.42,0.93,0.93,0.93s0.93-0.42,0.93-0.93S51.94,44.95,51.42,44.95z M57,44.95
		c-0.51,0-0.93,0.42-0.93,0.93S56.48,46.8,57,46.8s0.93-0.42,0.93-0.93S57.51,44.95,57,44.95z M31.92,47.73
		c-0.51,0-0.93,0.42-0.93,0.93s0.42,0.93,0.93,0.93s0.93-0.42,0.93-0.93S32.43,47.73,31.92,47.73z M37.49,47.73
		c-0.51,0-0.93,0.42-0.93,0.93s0.42,0.93,0.93,0.93s0.93-0.42,0.93-0.93S38.01,47.73,37.49,47.73z M43.07,47.73
		c-0.51,0-0.93,0.42-0.93,0.93s0.42,0.93,0.93,0.93S44,49.17,44,48.66S43.58,47.73,43.07,47.73z M48.64,47.73
		c-0.51,0-0.93,0.42-0.93,0.93s0.42,0.93,0.93,0.93c0.51,0,0.93-0.42,0.93-0.93S49.15,47.73,48.64,47.73z M54.21,47.73
		c-0.51,0-0.93,0.42-0.93,0.93s0.42,0.93,0.93,0.93c0.51,0,0.93-0.42,0.93-0.93S54.72,47.73,54.21,47.73z M34.71,50.52
		c-0.51,0-0.93,0.42-0.93,0.93c0,0.51,0.42,0.93,0.93,0.93c0.51,0,0.93-0.42,0.93-0.93C35.64,50.93,35.22,50.52,34.71,50.52z
		 M40.28,50.52c-0.51,0-0.93,0.42-0.93,0.93c0,0.51,0.42,0.93,0.93,0.93c0.51,0,0.93-0.42,0.93-0.93
		C41.21,50.93,40.79,50.52,40.28,50.52z M45.85,50.52c-0.51,0-0.93,0.42-0.93,0.93c0,0.51,0.42,0.93,0.93,0.93s0.93-0.42,0.93-0.93
		C46.78,50.93,46.36,50.52,45.85,50.52z M51.42,50.52c-0.51,0-0.93,0.42-0.93,0.93c0,0.51,0.42,0.93,0.93,0.93s0.93-0.42,0.93-0.93
		C52.35,50.93,51.94,50.52,51.42,50.52z M57,50.52c-0.51,0-0.93,0.42-0.93,0.93c0,0.51,0.42,0.93,0.93,0.93s0.93-0.42,0.93-0.93
		C57.92,50.93,57.51,50.52,57,50.52z M37.49,53.3c-0.51,0-0.93,0.42-0.93,0.93s0.42,0.93,0.93,0.93s0.93-0.42,0.93-0.93
		S38.01,53.3,37.49,53.3z M43.07,53.3c-0.51,0-0.93,0.42-0.93,0.93s0.42,0.93,0.93,0.93S44,54.74,44,54.23S43.58,53.3,43.07,53.3z
		 M48.64,53.3c-0.51,0-0.93,0.42-0.93,0.93s0.42,0.93,0.93,0.93c0.51,0,0.93-0.42,0.93-0.93S49.15,53.3,48.64,53.3z M54.21,53.3
		c-0.51,0-0.93,0.42-0.93,0.93s0.42,0.93,0.93,0.93c0.51,0,0.93-0.42,0.93-0.93S54.72,53.3,54.21,53.3z M40.28,56.09
		c-0.51,0-0.93,0.42-0.93,0.93c0,0.51,0.42,0.93,0.93,0.93c0.51,0,0.93-0.42,0.93-0.93C41.21,56.51,40.79,56.09,40.28,56.09z
		 M45.85,56.09c-0.51,0-0.93,0.42-0.93,0.93c0,0.51,0.42,0.93,0.93,0.93s0.93-0.42,0.93-0.93C46.78,56.51,46.36,56.09,45.85,56.09z
		 M51.42,56.09c-0.51,0-0.93,0.42-0.93,0.93c0,0.51,0.42,0.93,0.93,0.93s0.93-0.42,0.93-0.93C52.35,56.51,51.94,56.09,51.42,56.09z
		 M43.07,58.87c-0.51,0-0.93,0.42-0.93,0.93s0.42,0.93,0.93,0.93S44,60.31,44,59.8S43.58,58.87,43.07,58.87z"/>
  </g>
</svg>
