<svg version="1.1" id="fns_icon_email" xmlns="http://www.w3.org/2000/svg" xmlns:xlink="http://www.w3.org/1999/xlink" x="0px" y="0px" viewBox="0 0 45 45" style="enable-background:new 0 0 45 45;" xml:space="preserve">
  <style type="text/css">
	.st0{fill:#aaaaaa;}
</style>
  <g>
    <g>
      <path class="st0" d="M22.5,1.62c11.51,0,20.88,9.37,20.88,20.88S34.01,43.38,22.5,43.38S1.62,34.01,1.62,22.5
			S10.99,1.62,22.5,1.62 M22.5,0C10.09,0,0,10.09,0,22.5S10.09,45,22.5,45S45,34.91,45,22.5S34.91,0,22.5,0L22.5,0z"/>
    </g>
    <g>
      <g>
        <path class="st0" d="M8.27,11.97v20.49h28.45V11.97H8.27z M9.41,13.11h26.18v18.21H9.41V13.11z M10.55,15.9v1.34l11.95,6.77
				l11.95-6.77V15.9L22.5,22.68L10.55,15.9z"/>
      </g>
    </g>
  </g>
</svg>
