<svg version="1.1" id="fns_icon_ar_ios" xmlns="http://www.w3.org/2000/svg" xmlns:xlink="http://www.w3.org/1999/xlink" x="0px" y="0px" viewBox="0 0 45 45" style="enable-background:new 0 0 45 45;" xml:space="preserve">
  <style type="text/css">
	.st0{fill:#aaaaaa;}
	.st1{opacity:0.2;}
	.st2{fill:#a9aaaa;}
	.st3{fill:none;}
	.st4{fill:#ffffff;}
</style>
<g>
	<g>
		<path class="st0" d="M22.5,1.6C34,1.6,43.4,11,43.4,22.5S34,43.4,22.5,43.4S1.6,34,1.6,22.5S11,1.6,22.5,1.6 M22.5,0
			C10.1,0,0,10.1,0,22.5S10.1,45,22.5,45S45,34.9,45,22.5S34.9,0,22.5,0L22.5,0z"/>
	</g>
	<g>
		<g class="st1">
			<path class="st2" d="M10.7,16.1c-0.1,0-0.2-0.1-0.3-0.2c-0.1-0.2,0-0.4,0.1-0.5l11.6-6.7c0.2-0.1,0.4,0,0.5,0.1
				c0.1,0.2,0,0.4-0.1,0.5l-11.7,6.8H10.7"/>
			<rect x="10.4" y="8.8" class="st3" width="12.2" height="7.3"/>
			<path class="st2" d="M10.7,29.5c-0.1,0-0.2-0.1-0.3-0.2c-0.1-0.2,0-0.4,0.1-0.5l23.1-13.4c0.2-0.1,0.4,0,0.5,0.1
				c0.1,0.2,0,0.4-0.1,0.5L10.8,29.5H10.7"/>
			<rect x="10.4" y="15.5" class="st3" width="23.8" height="14"/>
			<path class="st2" d="M33.8,16.1c-0.1,0-0.1,0-0.2,0L22,9.4c-0.2-0.1-0.2-0.3-0.1-0.5s0.3-0.2,0.5-0.1L34,15.5
				c0.2,0.1,0.2,0.3,0.1,0.5C34,16.1,33.9,16.1,33.8,16.1"/>
			<rect x="21.9" y="8.8" class="st3" width="12.2" height="7.3"/>
			<path class="st2" d="M33.8,29.5c-0.1,0-0.1,0-0.2,0L10.5,16c-0.2-0.1-0.2-0.3-0.1-0.5c0.1-0.2,0.3-0.2,0.5-0.1L34,28.9
				c0.2,0.1,0.2,0.3,0.1,0.5C34,29.5,33.9,29.5,33.8,29.5"/>
			<rect x="10.4" y="15.3" class="st3" width="23.8" height="14.2"/>
			<path class="st2" d="M22.3,36.2c-0.1,0-0.1,0-0.2,0l-11.6-6.7c-0.2-0.1-0.2-0.3-0.1-0.5c0.1-0.2,0.3-0.2,0.5-0.1l11.6,6.7
				c0.2,0.1,0.2,0.3,0.1,0.5C22.5,36.2,22.4,36.2,22.3,36.2"/>
			<rect x="10.4" y="28.9" class="st3" width="12.2" height="7.4"/>
			<path class="st2" d="M22.3,36.2c-0.1,0-0.2-0.1-0.3-0.2c-0.1-0.2,0-0.4,0.1-0.5l11.6-6.7c0.2-0.1,0.4,0,0.5,0.1
				c0.1,0.2,0,0.4-0.1,0.5l-11.6,6.7C22.4,36.2,22.3,36.2,22.3,36.2"/>
			<rect x="21.9" y="28.9" class="st3" width="12.2" height="7.4"/>
			<path class="st2" d="M10.7,29.5c-0.2,0-0.3-0.1-0.3-0.3V15.8c0-0.2,0.1-0.3,0.3-0.3s0.3,0.1,0.3,0.3v13.4
				C11,29.4,10.9,29.5,10.7,29.5"/>
			<path class="st4" d="M33.8,29.5c-0.2,0-0.3-0.1-0.3-0.3V15.8c0-0.2,0.1-0.3,0.3-0.3s0.3,0.1,0.3,0.3v13.4
				C34.1,29.4,34,29.5,33.8,29.5"/>
			<rect x="33.5" y="15.5" class="st2" width="0.7" height="14"/>
			<path class="st4" d="M22.3,36.2c-0.2,0-0.3-0.1-0.3-0.3V9.1c0-0.2,0.1-0.3,0.3-0.3c0.2,0,0.3,0.1,0.3,0.3v26.7
				C22.6,36,22.4,36.2,22.3,36.2"/>
			<rect x="21.9" y="8.8" class="st2" width="0.7" height="27.4"/>
		</g>
		<g>
			<g>
				<path class="st2" d="M25.9,11.7c-0.1,0-0.2,0-0.3-0.1l-3.1-1.8l-3.1,1.8c-0.3,0.2-0.6,0.1-0.8-0.2c-0.2-0.3-0.1-0.6,0.2-0.8
					l3.4-1.9c0.2-0.1,0.4-0.1,0.6,0l3.4,1.9c0.3,0.2,0.4,0.5,0.2,0.8C26.3,11.6,26.1,11.7,25.9,11.7"/>
				<path class="st2" d="M22.5,27c-0.3,0-0.6-0.3-0.6-0.6v-3.9c0-0.3,0.3-0.6,0.6-0.6c0.3,0,0.6,0.3,0.6,0.6v3.9
					C23.1,26.7,22.8,27,22.5,27"/>
				<path class="st2" d="M10.9,20.3c-0.3,0-0.6-0.3-0.6-0.6v-3.9c0-0.3,0.3-0.6,0.6-0.6s0.6,0.3,0.6,0.6v3.9
					C11.5,20,11.3,20.3,10.9,20.3"/>
				<path class="st2" d="M34.1,20.3c-0.3,0-0.6-0.3-0.6-0.6v-3.9c0-0.3,0.3-0.6,0.6-0.6s0.6,0.3,0.6,0.6v3.9
					C34.6,20,34.4,20.3,34.1,20.3"/>
				<path class="st2" d="M34.1,29.8c-0.3,0-0.6-0.3-0.6-0.6v-3.9c0-0.3,0.3-0.6,0.6-0.6l0,0c0.3,0,0.6,0.3,0.6,0.6v3.9
					C34.6,29.5,34.4,29.8,34.1,29.8L34.1,29.8z"/>
				<path class="st2" d="M10.9,29.8c-0.3,0-0.6-0.3-0.6-0.6v-3.9c0-0.3,0.3-0.6,0.6-0.6s0.6,0.3,0.6,0.6v3.9
					C11.5,29.5,11.3,29.8,10.9,29.8"/>
				<path class="st2" d="M22.5,14c-0.3,0-0.6-0.3-0.6-0.6V9.1c0-0.3,0.3-0.6,0.6-0.6c0.3,0,0.6,0.3,0.6,0.6v4.2
					C23.1,13.7,22.8,14,22.5,14"/>
				<path class="st2" d="M22.5,36.5c-0.3,0-0.6-0.3-0.6-0.6V32c0-0.3,0.3-0.6,0.6-0.6c0.3,0,0.6,0.3,0.6,0.6v3.9
					C23.1,36.2,22.8,36.5,22.5,36.5"/>
				<path class="st2" d="M22.5,36.5c-0.1,0-0.2,0-0.3-0.1l-3.4-2c-0.3-0.2-0.4-0.5-0.2-0.8c0.2-0.3,0.5-0.4,0.8-0.2l3.1,1.8l3.1-1.8
					c0.3-0.2,0.6-0.1,0.8,0.2c0.2,0.3,0.1,0.6-0.2,0.8l-3.3,1.9C22.7,36.4,22.6,36.5,22.5,36.5"/>
				<path class="st2" d="M22.5,23.1c-0.1,0-0.2,0-0.3-0.1l-3.4-1.9c-0.3-0.2-0.4-0.5-0.2-0.8c0.2-0.3,0.5-0.4,0.8-0.2l3.1,1.8
					l3.1-1.8c0.3-0.2,0.6-0.1,0.8,0.2c0.2,0.3,0.1,0.6-0.2,0.8L22.8,23C22.7,23,22.6,23.1,22.5,23.1"/>
				<path class="st2" d="M30.7,18.3c-0.2,0-0.4-0.1-0.5-0.3c-0.2-0.3-0.1-0.6,0.2-0.8l3.4-1.9c0.3-0.2,0.6-0.1,0.8,0.2
					c0.2,0.3,0.1,0.6-0.2,0.8l-3.4,2C30.9,18.3,30.8,18.3,30.7,18.3"/>
				<path class="st2" d="M34.1,16.4c-0.1,0-0.2,0-0.3-0.1l-3.4-2c-0.3-0.2-0.4-0.5-0.2-0.8c0.2-0.3,0.5-0.4,0.8-0.2l3.4,2
					c0.3,0.2,0.4,0.5,0.2,0.8C34.5,16.3,34.3,16.4,34.1,16.4"/>
				<path class="st2" d="M14.3,18.3c-0.1,0-0.2,0-0.3-0.1l-3.4-1.9c-0.3-0.2-0.4-0.5-0.2-0.8s0.5-0.4,0.8-0.2l3.4,1.9
					c0.3,0.2,0.4,0.5,0.2,0.8C14.7,18.2,14.5,18.3,14.3,18.3"/>
				<path class="st2" d="M10.9,16.4c-0.2,0-0.4-0.1-0.5-0.3c-0.2-0.3-0.1-0.6,0.2-0.8l3.4-1.9c0.3-0.2,0.6-0.1,0.8,0.2
					s0.1,0.6-0.2,0.8l-3.4,1.9C11.1,16.4,11,16.4,10.9,16.4"/>
				<path class="st2" d="M30.7,31.7c-0.2,0-0.4-0.1-0.5-0.3c-0.2-0.3-0.1-0.6,0.2-0.8l3.4-1.9c0.3-0.2,0.6-0.1,0.8,0.2
					c0.2,0.3,0.1,0.6-0.2,0.8L31,31.6C30.9,31.7,30.8,31.7,30.7,31.7"/>
				<path class="st2" d="M34.1,29.8c-0.1,0-0.2,0-0.3-0.1l-3.4-1.9c-0.3-0.2-0.4-0.5-0.2-0.8c0.2-0.3,0.5-0.4,0.8-0.2l3.4,1.9
					c0.3,0.2,0.4,0.5,0.2,0.8C34.5,29.7,34.3,29.8,34.1,29.8"/>
				<path class="st2" d="M14.3,31.7c-0.1,0-0.2,0-0.3-0.1l-3.4-2c-0.3-0.2-0.4-0.5-0.2-0.8s0.5-0.4,0.8-0.2l3.4,2
					c0.3,0.2,0.4,0.5,0.2,0.8C14.7,31.6,14.5,31.7,14.3,31.7"/>
				<path class="st2" d="M10.9,29.8c-0.2,0-0.4-0.1-0.5-0.3c-0.2-0.3-0.1-0.6,0.2-0.8l3.4-1.9c0.3-0.2,0.6-0.1,0.8,0.2
					c0.2,0.3,0.1,0.6-0.2,0.8l-3.4,1.9C11.1,29.7,11,29.8,10.9,29.8"/>
			</g>
		</g>
	</g>
</g>
</svg>
