<svg version="1.1" id="fns_icon_info" xmlns="http://www.w3.org/2000/svg" xmlns:xlink="http://www.w3.org/1999/xlink" x="0px" y="0px" viewBox="0 0 45 45" style="enable-background:new 0 0 45 45;" xml:space="preserve">
  <style type="text/css">
	.st0{fill:#aaaaaa;}
</style>
  <g>
    <g>
      <path class="st0" d="M22.5,1.62c11.51,0,20.88,9.37,20.88,20.88S34.01,43.38,22.5,43.38S1.62,34.01,1.62,22.5
			S10.99,1.62,22.5,1.62 M22.5,0C10.09,0,0,10.09,0,22.5S10.09,45,22.5,45S45,34.91,45,22.5S34.91,0,22.5,0L22.5,0z"/>
    </g>
    <g>
      <path class="st0" d="M20.95,9.5c-0.27,0-0.45,0.17-0.45,0.43v3.14c0,0.26,0.18,0.43,0.45,0.43v0h3.09c0.27,0,0.46-0.17,0.46-0.43
			V9.93c0-0.26-0.18-0.43-0.46-0.43H20.95z"/>
      <path class="st0" d="M20.97,17.5c-0.28,0-0.47,0.15-0.47,0.38v17.25c0,0.22,0.19,0.38,0.47,0.38v0h3.05
			c0.29,0,0.48-0.15,0.48-0.38V17.88c0-0.23-0.19-0.38-0.48-0.38H20.97z"/>
    </g>
  </g>
</svg>
