<svg version="1.1" id="fns_icon_more_horiz" xmlns="http://www.w3.org/2000/svg" xmlns:xlink="http://www.w3.org/1999/xlink" x="0px" y="0px" viewBox="0 0 80 80" style="enable-background:new 0 0 80 80;" xml:space="preserve">
<style type="text/css">
	.st0{fill:#ffffff;}
	.st1{fill:#aaaaaa;}
</style>
<g>
	<circle class="st0" cx="40" cy="40" r="40"/>
	<path class="st1" d="M56.4,44.8c-2.4,0-4.3-1.9-4.3-4.3s1.9-4.3,4.3-4.3c2.4,0,4.3,1.9,4.3,4.3S58.7,44.8,56.4,44.8z M44.8,40.5
		c0-2.4-1.9-4.3-4.3-4.3s-4.3,1.9-4.3,4.3s1.9,4.3,4.3,4.3S44.8,42.9,44.8,40.5z M28.9,40.5c0-2.4-1.9-4.3-4.3-4.3s-4.3,1.9-4.3,4.3
		s1.9,4.3,4.3,4.3S28.9,42.9,28.9,40.5z"/>
</g>
</svg>
