<svg version="1.1" id="fns_icon_download" xmlns="http://www.w3.org/2000/svg" xmlns:xlink="http://www.w3.org/1999/xlink" x="0px" y="0px" viewBox="0 0 45 45" style="enable-background:new 0 0 45 45;" xml:space="preserve">
  <style type="text/css">
	.st0{fill:#aaaaaa;}
</style>
  <g>
    <g>
      <path class="st0" d="M22.5,1.62c11.51,0,20.88,9.37,20.88,20.88S34.01,43.38,22.5,43.38S1.62,34.01,1.62,22.5
			S10.99,1.62,22.5,1.62 M22.5,0C10.09,0,0,10.09,0,22.5S10.09,45,22.5,45S45,34.91,45,22.5S34.91,0,22.5,0L22.5,0z"/>
    </g>
    <path class="st0" d="M22.44,6.1c-0.03,0.01-0.05,0.01-0.08,0.02c-0.28,0.07-0.48,0.35-0.48,0.66v13.56l-4.44-4.8
		c-0.15-0.16-0.36-0.23-0.57-0.19c-0.23,0.04-0.41,0.22-0.48,0.46c-0.06,0.24,0,0.5,0.17,0.67l5.49,5.94
		c0.11,0.13,0.27,0.2,0.44,0.2s0.32-0.07,0.44-0.2l5.49-5.94c0.24-0.26,0.24-0.69,0-0.95s-0.63-0.26-0.88,0l-4.44,4.8V6.78
		c0.01-0.19-0.06-0.37-0.19-0.5C22.79,6.14,22.62,6.08,22.44,6.1z M13.17,9.41c-0.57,0-1.01,0.42-1.12,1.01h-0.02v0.04L8.56,26.79
		c-0.05,0.14-0.08,0.28-0.08,0.43v6.59c0,0.72,0.55,1.32,1.22,1.32h25.6c0.67,0,1.22-0.6,1.22-1.32v-6.59c0-0.17-0.04-0.33-0.1-0.47
		V26.7c0-0.01-0.02-0.01-0.02-0.02l-3.43-16.22v-0.04h-0.02c-0.11-0.59-0.55-1.01-1.12-1.01h-6.9v1.32h6.84l3.2,15.17H9.98
		l3.24-15.17h6.84V9.41H13.17z M9.7,27.22h25.6v6.59H9.7V27.22z M31.64,29.2c-0.67,0-1.22,0.59-1.22,1.32s0.55,1.32,1.22,1.32
		c0.67,0,1.22-0.59,1.22-1.32S32.32,29.2,31.64,29.2z"/>
  </g>
</svg>
