<svg version="1.1" id="fns_icon_lights_hide" xmlns="http://www.w3.org/2000/svg" xmlns:xlink="http://www.w3.org/1999/xlink" x="0px" y="0px" viewBox="0 0 80 80" style="enable-background:new 0 0 80 80;" xml:space="preserve">
  <style type="text/css">
	.st0{fill:#ffffff;}
	.st1{fill:#aaaaaa;}
</style>
  <g>
    <circle class="st0" cx="40" cy="40" r="40"/>
    <path class="st1" d="M40.25,15.31c-0.05,0.01-0.1,0.02-0.15,0.04c-0.55,0.13-0.94,0.62-0.93,1.19v7.13c0,0.43,0.22,0.83,0.59,1.05
		c0.37,0.21,0.83,0.21,1.2,0c0.37-0.22,0.59-0.62,0.59-1.05v-7.13c0.01-0.34-0.13-0.67-0.37-0.91
		C40.93,15.39,40.59,15.27,40.25,15.31z M23.31,22.29c-0.45,0.08-0.8,0.4-0.93,0.84c-0.13,0.44,0,0.9,0.33,1.21l5.05,5.05
		c0.29,0.35,0.75,0.52,1.19,0.41c0.44-0.1,0.79-0.45,0.89-0.89c0.1-0.45-0.06-0.91-0.41-1.19l-5.05-5.05
		c-0.25-0.26-0.6-0.4-0.97-0.37C23.38,22.29,23.34,22.29,23.31,22.29z M57.05,22.29c-0.27,0.04-0.52,0.17-0.71,0.37l-5.05,5.05
		c-0.35,0.29-0.52,0.75-0.41,1.19c0.1,0.44,0.45,0.79,0.89,0.89c0.45,0.1,0.91-0.06,1.19-0.41l5.05-5.05
		c0.37-0.35,0.48-0.91,0.26-1.37C58.05,22.5,57.56,22.23,57.05,22.29z M40.25,28.42c-0.04,0.01-0.07,0.02-0.11,0.04
		c-0.07,0-0.15,0.02-0.22,0.04c-0.01,0.01-0.02,0.02-0.04,0.04c-6.31,0.27-11.41,5.41-11.41,11.78c0,6.54,5.35,11.89,11.89,11.89
		s11.89-5.35,11.89-11.89c0-6.35-5.06-11.47-11.33-11.78c-0.04,0-0.07-0.04-0.11-0.04c-0.12-0.05-0.25-0.07-0.37-0.07
		c-0.02,0-0.05,0-0.07,0C40.33,28.42,40.29,28.42,40.25,28.42z M40.29,30.8c0.02,0,0.05,0,0.07,0c0.04,0,0.07,0,0.11,0
		c5.2,0.06,9.4,4.3,9.4,9.51c0,5.26-4.25,9.51-9.51,9.51c-5.25,0-9.51-4.25-9.51-9.51C30.85,35.09,35.07,30.84,40.29,30.8z
		 M16.25,39.13c-0.65,0.09-1.11,0.7-1.02,1.36c0.09,0.65,0.7,1.11,1.36,1.02h7.13c0.43,0,0.83-0.22,1.05-0.59
		c0.21-0.37,0.21-0.83,0-1.2c-0.22-0.37-0.62-0.59-1.05-0.59h-7.13c-0.04,0-0.07,0-0.11,0s-0.07,0-0.11,0S16.28,39.13,16.25,39.13z
		 M56.67,39.13c-0.65,0.09-1.11,0.7-1.02,1.36c0.09,0.65,0.7,1.11,1.36,1.02h7.13c0.43,0,0.83-0.22,1.05-0.59
		c0.21-0.37,0.21-0.83,0-1.2c-0.22-0.37-0.62-0.59-1.05-0.59h-7.13c-0.04,0-0.07,0-0.11,0c-0.04,0-0.07,0-0.11,0
		S56.71,39.13,56.67,39.13z M28.47,50.87c-0.27,0.04-0.52,0.17-0.71,0.37l-5.05,5.05c-0.35,0.29-0.52,0.75-0.41,1.19
		c0.1,0.44,0.45,0.79,0.89,0.89c0.45,0.1,0.91-0.06,1.19-0.41l5.05-5.05c0.35-0.34,0.46-0.86,0.27-1.31
		c-0.19-0.45-0.64-0.74-1.12-0.73C28.55,50.87,28.51,50.87,28.47,50.87z M51.88,50.87c-0.45,0.08-0.8,0.4-0.93,0.84
		c-0.13,0.44,0,0.9,0.33,1.21l5.05,5.05c0.29,0.35,0.75,0.52,1.19,0.41c0.44-0.1,0.79-0.45,0.89-0.89c0.1-0.45-0.06-0.91-0.41-1.19
		l-5.05-5.05c-0.22-0.24-0.53-0.37-0.85-0.37c-0.04,0-0.07,0-0.11,0S51.92,50.87,51.88,50.87z M40.25,55.74
		c-0.05,0.01-0.1,0.02-0.15,0.04c-0.55,0.13-0.94,0.62-0.93,1.19v7.13c0,0.43,0.22,0.83,0.59,1.05c0.37,0.21,0.83,0.21,1.2,0
		c0.37-0.22,0.59-0.62,0.59-1.05v-7.13c0.01-0.34-0.13-0.67-0.37-0.91C40.93,55.82,40.59,55.7,40.25,55.74z"/>
  </g>
</svg>
