<svg version="1.1" id="fns_icon_ar_android" xmlns="http://www.w3.org/2000/svg" xmlns:xlink="http://www.w3.org/1999/xlink" x="0px" y="0px" viewBox="0 0 45 45" style="enable-background:new 0 0 45 45;" xml:space="preserve">
<style type="text/css">
	.st0{fill:#aaaaaa;}
</style>
<g>
	<g>
		<path class="st0" d="M22.5,1.6C34,1.6,43.4,11,43.4,22.5S34,43.4,22.5,43.4S1.6,34,1.6,22.5S11,1.6,22.5,1.6 M22.5,0
			C10.1,0,0,10.1,0,22.5S10.1,45,22.5,45S45,34.9,45,22.5S34.9,0,22.5,0L22.5,0z"/>
	</g>
	<g>
		<path class="st0" d="M30.3,18.8c0.1-0.5-0.2-0.9-0.6-1.2c0,0-6.6-3.8-6.6-3.8l0,0c-0.4-0.2-0.8-0.2-1.2,0l0,0c0,0-6.6,3.8-6.6,3.8
			c-0.4,0.2-0.6,0.7-0.6,1.2v7.4c-0.1,0.5,0.2,0.9,0.6,1.2c0,0,6.6,3.8,6.6,3.8l0,0c0.4,0.2,0.8,0.2,1.2,0l0,0c0,0,6.6-3.8,6.6-3.8
			c0.4-0.2,0.6-0.7,0.6-1.2V18.8z M21.3,28.1l-4.3-2.5v-4.9l4.3,2.5V28.1z M22.5,21.1l-4.3-2.5l4.3-2.5l4.3,2.5L22.5,21.1z
			 M27.9,25.6l-4.3,2.5v-4.9l4.3-2.5V25.6z M12.4,15.7H10v-2c0-2,1.6-3.7,3.7-3.7h2.1v2.4h-2.1c-0.7,0-1.3,0.6-1.3,1.3V15.7z
			 M35,13.7v2h-2.4v-2c0-0.7-0.6-1.3-1.3-1.3h-2.1v-2.4h2.1C33.4,10.1,35,11.7,35,13.7z M13.7,32.6h2.1v2.4h-2.1
			c-2,0-3.7-1.6-3.7-3.7v-2h2.4v2C12.4,32,12.9,32.6,13.7,32.6z M32.6,29.3H35v2c0,2-1.6,3.7-3.7,3.7h-2.1v-2.4h2.1
			c0.7,0,1.3-0.6,1.3-1.3V29.3z"/>
	</g>
</g>
</svg>
