<svg version="1.1" id="fns_icon_arrow_left" xmlns="http://www.w3.org/2000/svg" xmlns:xlink="http://www.w3.org/1999/xlink" x="0px" y="0px" viewBox="0 0 45 45" style="enable-background:new 0 0 45 45;" xml:space="preserve">
  <style type="text/css">
	.st0{fill:#aaaaaa;}
</style>
<g>
	<g>
		<path class="st0" d="M22.5,1.6C34,1.6,43.4,11,43.4,22.5S34,43.4,22.5,43.4S1.6,34,1.6,22.5S11,1.6,22.5,1.6 M22.5,0
			C10.1,0,0,10.1,0,22.5S10.1,45,22.5,45S45,34.9,45,22.5S34.9,0,22.5,0L22.5,0z"/>
	</g>
	<g>
		<path class="st0" d="M22.3,12.4c-0.2,0-0.5,0.1-0.6,0.3l-9.8,9.8l9.8,9.8c0.2,0.2,0.6,0.3,0.9,0.3c0.3-0.1,0.6-0.3,0.7-0.7
			c0.1-0.3,0-0.7-0.3-0.9l-8.5-8.5l8.5-8.5c0.3-0.3,0.4-0.7,0.2-1C23,12.6,22.6,12.4,22.3,12.4z"/>
		<path class="st0" d="M30.2,12.4c-0.2,0-0.5,0.1-0.6,0.3l-9.8,9.8l9.8,9.8c0.2,0.2,0.6,0.3,0.9,0.3c0.3-0.1,0.6-0.3,0.7-0.7
			c0.1-0.3,0-0.7-0.3-0.9l-8.5-8.5l8.5-8.5c0.3-0.3,0.4-0.7,0.2-1C30.9,12.6,30.6,12.4,30.2,12.4z"/>
	</g>
</g>
</svg>
