<svg version="1.1" id="fns_icon_socal_linkedin" xmlns="http://www.w3.org/2000/svg" xmlns:xlink="http://www.w3.org/1999/xlink" x="0px" y="0px" viewBox="0 0 45 45" style="enable-background:new 0 0 45 45;" xml:space="preserve">
  <style type="text/css">
	.st0{fill:#aaaaaa;}
</style>
  <g>
    <g>
      <path class="st0" d="M22.5,1.62c11.51,0,20.88,9.37,20.88,20.88S34.01,43.38,22.5,43.38S1.62,34.01,1.62,22.5
			S10.99,1.62,22.5,1.62 M22.5,0C10.09,0,0,10.09,0,22.5S10.09,45,22.5,45S45,34.91,45,22.5S34.91,0,22.5,0L22.5,0z"/>
    </g>
    <g id="Linkedin_3_">
      <path class="st0" d="M23.59,20.6c0.93-0.95,1.87-1.9,3.11-1.9c2.49-0.32,4.67,0.95,5.61,3.8c0,0.63,0.31,1.27,0.31,1.9
			c0,2.22,0,4.75,0,6.97c0,0.32,0,0.63-0.62,0.63c-1.25,0-2.18,0-3.43,0c-0.62,0-0.62,0-0.62-0.63c0-1.9,0-4.43,0-6.34
			c0-0.32,0-0.95,0-1.27c-0.31-0.63-0.62-1.27-1.25-1.58c-0.93-0.32-1.87,0-2.49,0.95c-0.31,0.63-0.62,1.27-0.62,1.58
			c0,2.22,0,4.43,0,6.65c0,0.32,0,0.32,0,0.63h-0.31c-1.25,0-2.18,0-3.74,0c-0.31,0-0.31,0-0.31-0.32c0-4.12,0-8.24,0-12.35
			c0-0.32,0-0.32,0.31-0.32c1.25,0,2.18,0,3.43,0c0.31,0,0.62,0,0.62,0.63C23.59,19.97,23.59,20.28,23.59,20.6z"/>
      <path class="st0" d="M17.05,25.35c0,1.9,0,4.12,0,6.02c0,0.32,0,0.63-0.62,0.63c-1.25,0-2.18,0-3.43,0c-0.31,0-0.62,0-0.62-0.63
			c0-4.12,0-8.24,0-12.35c0-0.32,0-0.63,0.62-0.63c1.25,0,2.18,0,3.43,0c0.31,0,0.62,0.32,0.62,0.63
			C17.05,21.23,17.05,23.45,17.05,25.35z"/>
      <path class="st0" d="M17.36,14.9c0,1.27-1.25,2.22-2.49,2.22s-2.18-0.95-2.18-2.22c-0.31-1.58,0.93-2.22,2.49-2.22
			S17.36,13.63,17.36,14.9z"/>
    </g>
  </g>
</svg>
