<svg version="1.1" id="fns_icon_socal_facebook" xmlns="http://www.w3.org/2000/svg" xmlns:xlink="http://www.w3.org/1999/xlink" x="0px" y="0px" viewBox="0 0 45 45" style="enable-background:new 0 0 45 45;" xml:space="preserve">
  <style type="text/css">
	.st0{fill:#aaaaaa;}
</style>
  <g>
    <g>
      <path class="st0" d="M22.5,1.62c11.51,0,20.88,9.37,20.88,20.88S34.01,43.38,22.5,43.38S1.62,34.01,1.62,22.5
			S10.99,1.62,22.5,1.62 M22.5,0C10.09,0,0,10.09,0,22.5S10.09,45,22.5,45S45,34.91,45,22.5S34.91,0,22.5,0L22.5,0z"/>
    </g>
    <path class="st0" d="M18.61,36.44h4.98V23.77h4.36l0.31-5.07H23.9v-3.17c0,0,0-1.9,2.18-1.9s2.49,0,2.49,0V9.2
		c0,0-3.74-0.63-5.92,0c-2.18,0.32-3.11,2.22-3.74,3.8c0,0-0.31,0.95-0.31,1.9v4.12h-2.18v5.07h2.49L18.61,36.44L18.61,36.44z"/>
  </g>
</svg>
