<svg version="1.1" id="fns_icon_home_env" xmlns="http://www.w3.org/2000/svg" xmlns:xlink="http://www.w3.org/1999/xlink" x="0px" y="0px" viewBox="0 0 45 45" style="enable-background:new 0 0 45 45;" xml:space="preserve">
  <style type="text/css">
	.st0{display:none;opacity:0.5;}
	.st0.active{display:inline;opacity:0.5;}
	.st1{display:inline;fill:#ffffff;}
	.st2{fill:#aaaaaa;}
</style>
<g>
	<g id="fns_icon_home_env_back" class="st0">
		<path class="st1" d="M22.5,0C10.09,0,0,10.09,0,22.5S10.09,45,22.5,45S45,34.91,45,22.5S34.91,0,22.5,0z"/>
	</g>
	<g>
		<path class="st2" d="M22.5,1.62c11.51,0,20.88,9.37,20.88,20.88S34.01,43.38,22.5,43.38S1.62,34.01,1.62,22.5
			S10.99,1.62,22.5,1.62 M22.5,0C10.09,0,0,10.09,0,22.5S10.09,45,22.5,45S45,34.91,45,22.5S34.91,0,22.5,0L22.5,0z"/>
	</g>
	<path class="st2" d="M22.48,7.99c-0.13,0-0.25,0.05-0.36,0.13L7.92,19.2c-0.27,0.21-0.32,0.6-0.11,0.87
		c0.21,0.27,0.6,0.32,0.87,0.11l0.85-0.67v16.23c0,0.34,0.28,0.62,0.62,0.62h8.54c0.07,0.01,0.13,0.01,0.2,0h7.21
		c0.07,0.01,0.13,0.01,0.2,0h8.55c0.34,0,0.62-0.28,0.62-0.62V19.51l0.85,0.67c0.27,0.21,0.66,0.16,0.87-0.11
		c0.21-0.27,0.16-0.66-0.11-0.87l0,0l-4.7-3.67v-4.49h-3.7v1.6l-5.79-4.52C22.76,8.03,22.62,7.98,22.48,7.99z M22.5,9.39l11.73,9.15
		v16.58h-7.41V23.39h-8.64v11.73h-7.41V18.54L22.5,9.39z M29.91,12.28h1.23v2.29l-1.23-0.96V12.28z M19.41,24.63h6.17v10.5h-6.17
		V24.63z"/>
</g>
</svg>