<svg version="1.1" id="fns_icon_socal_twitter" xmlns="http://www.w3.org/2000/svg" xmlns:xlink="http://www.w3.org/1999/xlink" x="0px" y="0px" viewBox="0 0 45 45" style="enable-background:new 0 0 45 45;" xml:space="preserve">
  <style type="text/css">
	.st0{fill:#aaaaaa;}
	.st1{fill-rule:evenodd;clip-rule:evenodd;fill:#aaaaaa;}
</style>
  <g>
    <g>
      <path class="st0" d="M22.5,1.62c11.51,0,20.88,9.37,20.88,20.88S34.01,43.38,22.5,43.38S1.62,34.01,1.62,22.5
			S10.99,1.62,22.5,1.62 M22.5,0C10.09,0,0,10.09,0,22.5S10.09,45,22.5,45S45,34.91,45,22.5S34.91,0,22.5,0L22.5,0z"/>
    </g>
    <path class="st1" d="M26.94,14.12c1.9,0,2.53,0.64,3.49,1.61c0.95,0,1.9-0.64,2.22-0.97c0.32,0,0.63-0.32,0.63-0.32
		c-0.32,0.97-0.95,1.93-1.58,2.26c-0.32,0-0.32,0.32-0.63,0.32l0,0c0.95,0,1.9-0.64,2.53-0.64l0,0c-0.32,0.64-0.95,1.29-1.58,1.93
		c-0.32,0.32-0.63,0.32-0.63,0.64c0,1.29,0,1.93-0.32,2.9c-1.27,5.48-4.12,8.7-9.19,9.99c-1.9,0.64-4.44,0.97-6.34,0.32
		c-0.95-0.32-1.9-0.64-2.53-0.97c-0.63-0.32-0.95-0.64-1.58-0.64h0.32c0.63,0,0.95,0,1.58,0c0.63,0,0.95,0,1.27,0
		c1.27-0.32,1.9-0.64,2.53-0.97c0-0.32,0.63-0.64,0.95-0.97c-0.63,0-0.95,0-1.58-0.32c-1.27-0.64-1.9-1.93-2.53-3.22
		c0.63,0,1.9,0.32,1.9,0c-0.63,0-0.95-0.32-1.58-0.64c-0.95-0.32-1.9-1.93-1.9-3.87c0.32,0,0.32,0.32,0.63,0.32
		c0.32,0,0.63,0.32,0.95,0.32c0.32,0,0.63,0,0.63,0l0,0c-0.32-0.32-0.63-0.64-0.95-0.64c-0.95-0.97-1.58-2.58-1.27-4.19
		c0-0.64,0.63-0.97,0.63-1.29l0,0c0,0.32,0.32,0.32,0.32,0.64c0.32,0.64,0.95,0.97,1.58,0.97c1.58,1.29,3.17,2.26,5.39,2.9
		c0.63,0.32,1.58,0.32,1.9,0.32c-0.32-0.64,0-1.61,0-1.93c0.32-1.61,1.27-2.58,2.53-2.9c0.32,0,0.63-0.32,0.95-0.32
		C26.3,14.12,26.62,14.12,26.94,14.12z"/>
  </g>
</svg>
