<svg version="1.1" id="fns_icon_arrow_right" xmlns="http://www.w3.org/2000/svg" xmlns:xlink="http://www.w3.org/1999/xlink" x="0px" y="0px" viewBox="0 0 45 45" style="enable-background:new 0 0 45 45;" xml:space="preserve">
  <style type="text/css">
	.st0{fill:#aaaaaa;}
</style>
<g>
	<g>
		<path class="st0" d="M22.5,1.6C34,1.6,43.4,11,43.4,22.5S34,43.4,22.5,43.4S1.6,34,1.6,22.5S11,1.6,22.5,1.6 M22.5,0
			C10.1,0,0,10.1,0,22.5S10.1,45,22.5,45S45,34.9,45,22.5S34.9,0,22.5,0L22.5,0z"/>
	</g>
	<g>
		<path class="st0" d="M22.8,32.6c0.2,0,0.5-0.1,0.6-0.3l9.8-9.8l-9.8-9.8c-0.2-0.2-0.6-0.3-0.9-0.3c-0.3,0.1-0.6,0.3-0.7,0.7
			c-0.1,0.3,0,0.7,0.3,0.9l8.5,8.5L22.1,31c-0.3,0.3-0.4,0.7-0.2,1C22,32.4,22.4,32.6,22.8,32.6z"/>
		<path class="st0" d="M14.8,32.6c0.2,0,0.5-0.1,0.6-0.3l9.8-9.8l-9.8-9.8c-0.2-0.2-0.6-0.3-0.9-0.3c-0.3,0.1-0.6,0.3-0.7,0.7
			c-0.1,0.3,0,0.7,0.3,0.9l8.5,8.5L14.2,31c-0.3,0.3-0.4,0.7-0.2,1C14.1,32.4,14.4,32.6,14.8,32.6z"/>
	</g>
</g>
</svg>
