{
  "accessors": [
    {
      "bufferView": 0,
      "componentType": 5125,
      "count": 133788,
      "type": "SCALAR"
    },
    {
      "bufferView": 1,
      "componentType": 5126,
      "count": 23957,
      "max": [
        0.0811294317245483,
        0.0812794640660286,
        0.927559971809387
      ],
      "min": [
        -0.0814286470413208,
        -0.0812786594033241,
        -2.08616256713867e-07
      ],
      "type": "VEC3"
    },
    {
      "bufferView": 2,
      "componentType": 5126,
      "count": 23957,
      "type": "VEC3"
    },
    {
      "bufferView": 3,
      "componentType": 5126,
      "count": 23957,
      "type": "VEC2"
    }
  ],
  "asset": {
    "generator": "Substance Painter 6.2.1",
    "version": "2.0"
  },
  "bufferViews": [
    {
      "buffer": 0,
      "byteLength": 535152,
      "target": 34963
    },
    {
      "buffer": 0,
      "byteLength": 287484,
      "byteOffset": 535152,
      "target": 34962
    },
    {
      "buffer": 0,
      "byteLength": 287484,
      "byteOffset": 822636,
      "target": 34962
    },
    {
      "buffer": 0,
      "byteLength": 191656,
      "byteOffset": 1110120,
      "target": 34962
    }
  ],
  "buffers": [
    {
      "byteLength": 1301776,
      "uri": "Aptos_Bollard_AC.bin"
    }
  ],
  "images": [
    {
      "uri": "Aptos_Bollard_AC_baseColor.png"
    },
    {
      "uri": "Aptos_Bollard_AC_occlusionRoughnessMetallic.png"
    },
    {
      "uri": "Aptos_Bollard_AC_normal.png"
    },
    {
      "uri": "Aptos_Bollard_AC_emissive.png"
    }
  ],
  "materials": [
    {
      "alphaMode": "OPAQUE",
      "emissiveFactor": [
        1.0,
        1.0,
        1.0
      ],
      "emissiveTexture": {
        "index": 3
      },
      "name": "Aptos_Bollard_AC",
      "normalTexture": {
        "index": 2
      },
      "occlusionTexture": {
        "index": 1
      },
      "pbrMetallicRoughness": {
        "baseColorTexture": {
          "index": 0
        },
        "metallicRoughnessTexture": {
          "index": 1
        }
      }
    }
  ],
  "meshes": [
    {
      "name": "Aptos_Bollard_AC",
      "primitives": [
        {
          "attributes": {
            "NORMAL": 2,
            "POSITION": 1,
            "TEXCOORD_0": 3
          },
          "indices": 0,
          "material": 0,
          "mode": 4
        }
      ]
    }
  ],
  "nodes": [
    {
      "children": [
        1
      ],
      "name": "RootNode"
    },
    {
      "children": [
        2
      ],
      "name": "Aptos_Bollard_AC",
      "rotation": [
        -0.70710676908493,
        0.0,
        0.0,
        0.70710676908493
      ]
    },
    {
      "mesh": 0,
      "name": "Aptos_Bollard_AC"
    }
  ],
  "samplers": [
    {
      "magFilter": 9729,
      "minFilter": 9985,
      "wrapS": 10497,
      "wrapT": 10497
    }
  ],
  "scene": 0,
  "scenes": [
    {
      "name": "Scene",
      "nodes": [
        0
      ]
    }
  ],
  "textures": [
    {
      "sampler": 0,
      "source": 0
    },
    {
      "sampler": 0,
      "source": 1
    },
    {
      "sampler": 0,
      "source": 2
    },
    {
      "sampler": 0,
      "source": 3
    }
  ]
}