{
  "accessors": [
    {
      "bufferView": 0,
      "componentType": 5125,
      "count": 3828,
      "type": "SCALAR"
    },
    {
      "bufferView": 1,
      "componentType": 5126,
      "count": 1084,
      "max": [
        0.0777240321040154,
        0.0777241364121437,
        1.04090404510498
      ],
      "min": [
        -0.0777240470051765,
        -0.0777239501476288,
        -0.000496029853820801
      ],
      "type": "VEC3"
    },
    {
      "bufferView": 2,
      "componentType": 5126,
      "count": 1084,
      "type": "VEC3"
    },
    {
      "bufferView": 3,
      "componentType": 5126,
      "count": 1084,
      "type": "VEC2"
    }
  ],
  "asset": {
    "generator": "Substance Painter 6.2.1",
    "version": "2.0"
  },
  "bufferViews": [
    {
      "buffer": 0,
      "byteLength": 15312,
      "target": 34963
    },
    {
      "buffer": 0,
      "byteLength": 13008,
      "byteOffset": 15312,
      "target": 34962
    },
    {
      "buffer": 0,
      "byteLength": 13008,
      "byteOffset": 28320,
      "target": 34962
    },
    {
      "buffer": 0,
      "byteLength": 8672,
      "byteOffset": 41328,
      "target": 34962
    }
  ],
  "buffers": [
    {
      "byteLength": 50000,
      "uri": "Helio_Bollard_SEC_PU40.bin"
    }
  ],
  "images": [
    {
      "uri": "Helio_Bollard_SEC_PU40_baseColor.png"
    },
    {
      "uri": "Helio_Bollard_SEC_PU40_occlusionRoughnessMetallic.png"
    },
    {
      "uri": "Helio_Bollard_SEC_PU40_normal.png"
    },
    {
      "uri": "Helio_Bollard_SEC_PU40_emissive.png"
    }
  ],
  "materials": [
    {
      "alphaMode": "OPAQUE",
      "emissiveFactor": [
        1.0,
        1.0,
        1.0
      ],
      "emissiveTexture": {
        "index": 3
      },
      "name": "Helio_Bollard_SEC_PU40",
      "normalTexture": {
        "index": 2
      },
      "occlusionTexture": {
        "index": 1
      },
      "pbrMetallicRoughness": {
        "baseColorTexture": {
          "index": 0
        },
        "metallicRoughnessTexture": {
          "index": 1
        }
      }
    }
  ],
  "meshes": [
    {
      "name": "Helio_Bollard_SEC_PU40",
      "primitives": [
        {
          "attributes": {
            "NORMAL": 2,
            "POSITION": 1,
            "TEXCOORD_0": 3
          },
          "indices": 0,
          "material": 0,
          "mode": 4
        }
      ]
    }
  ],
  "nodes": [
    {
      "children": [
        1
      ],
      "name": "RootNode"
    },
    {
      "children": [
        2
      ],
      "name": "Helio_Bollard_SEC_PU40",
      "rotation": [
        -0.70710676908493,
        0.0,
        0.0,
        0.70710676908493
      ]
    },
    {
      "mesh": 0,
      "name": "Helio_Bollard_SEC_PU40"
    }
  ],
  "samplers": [
    {
      "magFilter": 9729,
      "minFilter": 9985,
      "wrapS": 10497,
      "wrapT": 10497
    }
  ],
  "scene": 0,
  "scenes": [
    {
      "name": "Scene",
      "nodes": [
        0
      ]
    }
  ],
  "textures": [
    {
      "sampler": 0,
      "source": 0
    },
    {
      "sampler": 0,
      "source": 1
    },
    {
      "sampler": 0,
      "source": 2
    },
    {
      "sampler": 0,
      "source": 3
    }
  ]
}