<svg id="Layer_1" data-name="Layer 1" xmlns="http://www.w3.org/2000/svg" xmlns:xlink="http://www.w3.org/1999/xlink" viewBox="0 0 239.22 40.47"><defs><style>.cls-1{fill:none;}.cls-2,.cls-3,.cls-4,.cls-5{fill:#fff;}.cls-14,.cls-3{opacity:0.2;}.cls-4{opacity:0.4;}.cls-5{opacity:0.5;}.cls-6{opacity:0.2;}.cls-7{clip-path:url(#clip-path);}.cls-8{clip-path:url(#clip-path-2);}.cls-9{clip-path:url(#clip-path-3);}.cls-10{clip-path:url(#clip-path-4);}.cls-11{clip-path:url(#clip-path-5);}.cls-12{clip-path:url(#clip-path-6);}.cls-13{clip-path:url(#clip-path-7);}.cls-15{clip-path:url(#clip-path-8);}</style><clipPath id="clip-path"><rect class="cls-1" x="2.62" y="4.54" width="15.17" height="9.1"/></clipPath><clipPath id="clip-path-2"><rect class="cls-1" x="2.62" y="12.82" width="29.49" height="17.4"/></clipPath><clipPath id="clip-path-3"><rect class="cls-1" x="16.96" y="4.54" width="15.15" height="9.1"/></clipPath><clipPath id="clip-path-4"><rect class="cls-1" x="2.62" y="12.64" width="29.49" height="17.58"/></clipPath><clipPath id="clip-path-5"><rect class="cls-1" x="2.62" y="29.4" width="15.17" height="9.12"/></clipPath><clipPath id="clip-path-6"><rect class="cls-1" x="16.96" y="29.4" width="15.15" height="9.12"/></clipPath><clipPath id="clip-path-7"><rect class="cls-2" x="31.29" y="12.82" width="0.82" height="17.4"/></clipPath><clipPath id="clip-path-8"><rect class="cls-2" x="16.96" y="4.54" width="0.82" height="33.93"/></clipPath></defs><path id="path246" class="cls-3" d="M114.21,35.58c-8.71-5-8.44-4.43-8.71-5s.57-3.33-.1-10.51V9.64h0c.67-.52,4.54-2.72,8.7-5.08,6.11-3.45,7.23-4,8.27-4s2.29.8,8.62,4.4c4.16,2.37,8.49,4.47,8.8,4.74.34.42,0,.41-4.64,3.37-2.74,1.55-4.77,2.72-5.17,3s-2.22.93-3.68,1.73a11.94,11.94,0,0,1-3.65,1.44,11.17,11.17,0,0,1-3.77-1.58,25.84,25.84,0,0,0-4.2-2.13c-1.31.5-1.56,7.26,0,9.83.63,1.51,2.06,2.2,3.62,3a6.23,6.23,0,0,0,3.58,1.22,8.5,8.5,0,0,0,4.67-1,11.12,11.12,0,0,0,2.79-1.76l1.19-1.51a76.93,76.93,0,0,1,8.24,5.94c.46.55.76-.47,0,0-.31.19-3.67,2.34-7.78,4.67-6,3.39-7.72,4.24-8.7,4.23s-3.33-1.91-8.06-4.6Z"/><path id="path244" class="cls-4" d="M113.94,36.1c-4.14-2.37-7.8-4.56-8.13-4.86-.55-.5-.59-1.24-.59-10.89,0-7.8.1-10.47.4-10.85a38.44,38.44,0,0,1,4.59-2.84l7.73-4.36A34.56,34.56,0,0,1,122.36.09c.66-.15,1.51,1,3.54,2.06,6,3.19,13.61,7.18,13.71,7.64s-.28.93-5.83,4.07L130,16l-1.59-1.4a9.89,9.89,0,0,0-6-2.49c-2.89,0-7.24,2.89-8.33,5.54a10.09,10.09,0,0,0-.16,5.6,10,10,0,0,0,4.39,4.85,8.65,8.65,0,0,0,7.56.37,11.49,11.49,0,0,0,3.06-2c.7-.73,1.37-1.5,1.55-1.5.53,0,8,4.76,8.71,5.47.56.55.88.38.47.78-.26.25-4,2.42-8.22,4.83-5.95,3.36-8,4.37-8.86,4.36s-3.12-1.18-8.65-4.35Z"/><path id="path238" class="cls-5" d="M121.61,29.15a8,8,0,0,0,5.47-1.33,25.7,25.7,0,0,0,3.36-2.89c2.71,1.41,2.74,1.41,9.89,5.85.06.2-3.76,2.46-7.36,4.5-8.55,4.86-9.53,5.19-10.33,5.18-1.68-4-1-7.61-1-11.31ZM110.13,12.82a22.8,22.8,0,0,1-4.6-3.25,32.15,32.15,0,0,1,4.9-3c2.61-1.46,6-3.36,7.79-4.39,2-1.17,4-2.4,4.58-2.09,2.65,1.52,4.75,2.47,14.76,8.3l2.23,1.3-.72.58c-.77.63-8.61,5.12-8.92,5.12a2.51,2.51,0,0,1-1.49-.75c-3.6-3.17-6.88-3.43-12,0-.71.64-1.13,1.21-1.28,1.19s-2.86-1.6-5.21-2.95Z"/><path class="cls-2" d="M113.67,36c-4.39-2.52-8.17-4.61-8.08-5.06,0,0,2.31-1.49,4.69-2.92L115,25.16l1.2,1.33a10.24,10.24,0,0,0,5,2.6c2.09.16,1.79,1.22,1.79,1.22l-.15,4.46c-.09,2.33-.16,5.69-.16,5.69-.48,0-.47,0-1.13-.29-.45-.2-3.46-1.7-7.84-4.21Z"/><path class="cls-2" d="M128,14.41c-1.17-1-1.81-1.32-4.7-2.21l-.84-.07,0-6.12c0-5-.25-5.84.35-5.93,7.88,4.45,8.08,4.66,17,9.62,0,.32-.17.62-.66.89-.86.69-8.93,5.44-9.28,5.43a10.24,10.24,0,0,1-1.57-1.36Z"/><path id="path291" class="cls-2" d="M189.81,30.9a9.34,9.34,0,0,1-5.16-2.51,9.73,9.73,0,0,1-2.6-4,8,8,0,0,1-.39-3.34,8,8,0,0,1,.39-3.34,10,10,0,0,1,6.8-6.36,13.72,13.72,0,0,1,5.11,0,9.17,9.17,0,0,1,3.66,2l.84.78-.84.85-.84.84-.57-.56a6.85,6.85,0,0,0-4.9-1.91,7.06,7.06,0,0,0-5.16,2.14A7.22,7.22,0,0,0,184,21.05a7.23,7.23,0,0,0,2.19,5.59,7.39,7.39,0,0,0,10.25.12l.85-.8.86.88.86.88-.76.69a10.09,10.09,0,0,1-8.42,2.49Zm15.42,0a6,6,0,0,1-3.17-1.73,6.4,6.4,0,0,1-1.94-5.05,10.69,10.69,0,0,1,.2-2.08,6.56,6.56,0,0,1,4.17-4.52,8.6,8.6,0,0,1,4.53,0,6.71,6.71,0,0,1,3.67,3.2,7.09,7.09,0,0,1,.72,3.41,6.52,6.52,0,0,1-1.94,5,5.94,5.94,0,0,1-3.23,1.74,6.38,6.38,0,0,1-3,0Zm3.32-2.37c3.44-1.61,3.4-7.18-.05-8.85a4.6,4.6,0,0,0-3.46,0,4.81,4.81,0,0,0-2.58,4.93,4.48,4.48,0,0,0,3.18,4.17,4.77,4.77,0,0,0,2.91-.25ZM228.45,31a6.57,6.57,0,0,1-4.88-5,10.56,10.56,0,0,1,.06-3.76,6.48,6.48,0,0,1,4-4.6,7.06,7.06,0,0,1,5,.2,6.76,6.76,0,0,1,2.54,2.27,9.22,9.22,0,0,1,1,3.45l.09,1.07H225.84V25a4.19,4.19,0,0,0,2.37,3.53,3.23,3.23,0,0,0,1.92.44,3.55,3.55,0,0,0,3-1.35,5.09,5.09,0,0,0,.67-.86c0-.07.48.11,1.08.41l1.08.55-.24.42a7.09,7.09,0,0,1-2.48,2.24,7.2,7.2,0,0,1-4.76.62Zm5.07-8.82a4,4,0,0,0-1-1.87,3.92,3.92,0,0,0-2.73-.9,3.44,3.44,0,0,0-2.6.92,5.8,5.8,0,0,0-1.23,2.18c0,.14.72.18,3.84.18h3.85Zm-58.1,4.69L172.84,23h-2.71v7.73h-2.58V11.36h3.28c1.8,0,3.7.06,4.22.13A5.8,5.8,0,0,1,180,16.24a5.65,5.65,0,0,1-4,6.2c-.28.09-.51.22-.51.3s1.17,1.81,2.59,3.87,2.61,3.81,2.65,3.9-.26.18-1.35.18H178Zm-.09-6.64a3.36,3.36,0,0,0,.93-5.86c-.82-.61-1.29-.7-3.84-.7h-2.29v6.76h2.3a10.74,10.74,0,0,0,2.9-.2ZM148.81,30.52c0-.09,1.67-4.44,3.64-9.66l3.58-9.5,1.31.33h1.37l3.4,9.06c1.87,5,3.49,9.26,3.58,9.5l.18.44h-2.62l-.66-1.87-.91-2.57-.27-.72h-8.15l-.27.72c-.14.39-.56,1.55-.92,2.57l-.66,1.87h-1.33c-1,0-1.32,0-1.27-.17Zm11.7-7.31c0-.1-3-8.31-3.09-8.51s-.13-.13-.17-.07-.71,1.87-1.49,4-1.47,4.06-1.55,4.26l-.15.37h3.23c1.77,0,3.22,0,3.22-.07Zm54.7.71V17.48h2.58v1.08a1.74,1.74,0,0,0-.09,1.08c.06,0,.22-.23.37-.5a4.8,4.8,0,0,1,2.21-1.72,6.09,6.09,0,0,1,2.74-.07l.34.12L223,18.55l-.36,1.07-1.08,0a3.24,3.24,0,0,0-2.88,1.2c-.91,1-.9,5.78-.9,5.78v3.79h-2.58Z"/><path class="cls-2" d="M54.56,25.07H47l-1.9,5.43H42.63l7-19H52l7,19H56.46Zm-6.85-2h6.15l-3-8.46h-.21Z"/><path class="cls-2" d="M64.63,30.5H62.27v-19h7.24c3.65,0,6,2.23,6,5.65a5.41,5.41,0,0,1-3.81,5.44l4.39,7.87H73.36L69.3,23H64.63Zm0-9.61H69.3c2.43,0,3.81-1.3,3.81-3.62s-1.47-3.63-3.92-3.63H64.63Z"/><g class="cls-6"><g class="cls-7"><path class="cls-2" d="M3,13.64a.41.41,0,0,1-.36-.21.42.42,0,0,1,.15-.56L17.17,4.6a.4.4,0,0,1,.56.15.42.42,0,0,1-.15.56L3.23,13.59a.46.46,0,0,1-.2.05"/></g></g><g class="cls-6"><g class="cls-8"><path class="cls-2" d="M3,30.22A.41.41,0,0,1,2.67,30a.42.42,0,0,1,.15-.56L31.49,12.87a.41.41,0,0,1,.41.72L3.23,30.16a.36.36,0,0,1-.2.06"/></g></g><g class="cls-6"><g class="cls-9"><path class="cls-2" d="M31.7,13.64a.54.54,0,0,1-.21-.05L17.17,5.31A.4.4,0,0,1,17,4.75a.4.4,0,0,1,.56-.15L31.9,12.87a.41.41,0,0,1,.15.57.39.39,0,0,1-.35.2"/></g></g><g class="cls-6"><g class="cls-10"><path class="cls-2" d="M31.7,30.22a.36.36,0,0,1-.2-.06L2.82,13.42a.43.43,0,0,1-.15-.57.4.4,0,0,1,.56-.15L31.91,29.45a.42.42,0,0,1-.21.77"/></g></g><g class="cls-6"><g class="cls-11"><path class="cls-2" d="M17.37,38.52a.36.36,0,0,1-.2-.06L2.82,30.16a.42.42,0,0,1-.15-.56.42.42,0,0,1,.56-.15l14.35,8.3a.42.42,0,0,1,.15.56.43.43,0,0,1-.36.21"/></g></g><g class="cls-6"><g class="cls-12"><path class="cls-2" d="M17.37,38.52a.41.41,0,0,1-.2-.77l14.32-8.3a.42.42,0,0,1,.56.15.4.4,0,0,1-.14.56l-14.33,8.3a.42.42,0,0,1-.21.06"/></g></g><path class="cls-3" d="M3,30.22a.41.41,0,0,1-.41-.41V13.23a.41.41,0,0,1,.82,0V29.81a.41.41,0,0,1-.41.41"/><g class="cls-6"><rect class="cls-2" x="31.29" y="12.82" width="0.82" height="17.4"/><g class="cls-13"><path class="cls-2" d="M31.7,30.22a.41.41,0,0,1-.41-.41V13.23a.41.41,0,0,1,.82,0V29.81a.41.41,0,0,1-.41.41"/></g></g><g class="cls-14"><rect class="cls-2" x="16.96" y="4.54" width="0.82" height="33.93"/><g class="cls-15"><path class="cls-2" d="M17.37,38.47a.41.41,0,0,1-.41-.41V5a.42.42,0,0,1,.41-.41.41.41,0,0,1,.41.41V38.06a.41.41,0,0,1-.41.41"/></g></g><path class="cls-2" d="M21.24,8.09a.65.65,0,0,1-.36-.1L17.06,5.78,13.24,8a.72.72,0,1,1-.72-1.25L16.7,4.33a.71.71,0,0,1,.72,0L21.6,6.74a.72.72,0,0,1-.36,1.35"/><path class="cls-2" d="M17.06,27.07a.72.72,0,0,1-.72-.72V21.52a.72.72,0,1,1,1.44,0v4.83a.72.72,0,0,1-.72.72"/><path class="cls-2" d="M2.72,18.78A.72.72,0,0,1,2,18.06V13.23a.72.72,0,0,1,1.44,0v4.83a.72.72,0,0,1-.72.72"/><path class="cls-2" d="M31.39,18.78a.72.72,0,0,1-.72-.72V13.23a.72.72,0,1,1,1.44,0v4.83a.72.72,0,0,1-.72.72"/><rect class="cls-2" x="30.67" y="24.26" width="1.44" height="6.27" rx="0.72"/><path class="cls-2" d="M2.72,30.53A.72.72,0,0,1,2,29.81V25a.72.72,0,0,1,1.44,0v4.83a.72.72,0,0,1-.72.72"/><path class="cls-2" d="M17.06,10.94a.73.73,0,0,1-.72-.72V5a.72.72,0,0,1,1.44,0v5.27a.72.72,0,0,1-.72.72"/><path class="cls-2" d="M17.06,38.83a.72.72,0,0,1-.72-.72V33.28a.72.72,0,1,1,1.44,0v4.83a.72.72,0,0,1-.72.72"/><path class="cls-2" d="M17.06,38.83a.7.7,0,0,1-.36-.1L12.5,36.3a.72.72,0,0,1,.72-1.25l3.84,2.23,3.79-2.2a.72.72,0,1,1,.72,1.25l-4.15,2.4a.65.65,0,0,1-.36.1"/><path class="cls-2" d="M17.06,22.24a.7.7,0,0,1-.36-.1l-4.18-2.41a.72.72,0,1,1,.72-1.25l3.82,2.21,3.82-2.21a.72.72,0,0,1,1,.26.73.73,0,0,1-.26,1l-4.18,2.41a.65.65,0,0,1-.36.1"/><path class="cls-2" d="M27.21,16.37a.71.71,0,0,1-.62-.36.73.73,0,0,1,.26-1L31,12.61a.72.72,0,0,1,.72,1.24l-4.18,2.42a.78.78,0,0,1-.36.1"/><path class="cls-2" d="M31.39,14a.68.68,0,0,1-.36-.1l-4.18-2.41a.72.72,0,1,1,.71-1.25l4.19,2.42A.72.72,0,0,1,31.39,14"/><path class="cls-2" d="M6.9,16.37a.78.78,0,0,1-.36-.1L2.36,13.85a.72.72,0,1,1,.72-1.24L7.26,15a.73.73,0,0,1,.26,1,.71.71,0,0,1-.62.36"/><path class="cls-2" d="M2.72,14a.72.72,0,0,1-.36-1.34L6.54,10.2a.72.72,0,0,1,.72,1.24L3.08,13.85a.68.68,0,0,1-.36.1"/><path class="cls-2" d="M27.2,32.94a.69.69,0,0,1-.62-.36.72.72,0,0,1,.26-1L31,29.18a.72.72,0,0,1,.72,1.25l-4.19,2.42a.74.74,0,0,1-.36.09"/><path class="cls-2" d="M31.39,30.53a.68.68,0,0,1-.36-.1L26.85,28a.73.73,0,0,1-.26-1,.72.72,0,0,1,1-.26l4.18,2.41a.73.73,0,0,1,.26,1,.71.71,0,0,1-.62.36"/><path class="cls-2" d="M6.9,33a.68.68,0,0,1-.36-.1L2.36,30.43a.72.72,0,0,1,.72-1.25L7.26,31.6a.73.73,0,0,1,.26,1A.71.71,0,0,1,6.9,33"/><path class="cls-2" d="M2.72,30.53a.72.72,0,0,1-.36-1.34l4.17-2.42A.72.72,0,1,1,7.25,28L3.08,30.43a.68.68,0,0,1-.36.1"/></svg>