<svg id="Layer_1" data-name="Layer 1" xmlns="http://www.w3.org/2000/svg" viewBox="0 0 25 24.97"><defs><style>.cls-1{fill:#fff;}</style></defs><path class="cls-1" d="M12.52,0A12.49,12.49,0,0,0,1,7.73,1.09,1.09,0,0,0,3,8.6l0,0a10.31,10.31,0,1,1,0,7.85,1.1,1.1,0,0,0-1.41-.62A1.08,1.08,0,0,0,1,17.2v0A12.48,12.48,0,1,0,12.52,0Zm1.05,7.59a1.08,1.08,0,0,0-.75,1.86l1.94,2H1.1a1.09,1.09,0,0,0,0,2.17H14.76l-1.94,1.94a1.09,1.09,0,1,0,1.5,1.57l0,0,3.8-3.8a1.09,1.09,0,0,0,0-1.53l-3.8-3.8A1.07,1.07,0,0,0,13.57,7.59Z"/></svg>