<svg id="Layer_1" data-name="Layer 1" xmlns="http://www.w3.org/2000/svg" viewBox="0 0 89.81 85.38"><defs><style>.cls-1{fill:#fff;}</style></defs><path class="cls-1" d="M56.38,33.39H85.26a5.49,5.49,0,0,1,.84,1.18c.45.71.68,1,1.15,1.86a19.74,19.74,0,0,1,2.38,12.32c-7.39-1.76-10-3.18-18.94-4.6-8.18-1.31-13.9-1.24-21.2-2.35-6.31-1-11.93-5-14.5-9.87a11.13,11.13,0,0,1-1.46-4.63c-.24-3.88,0-8,0-12.19,0-2.06-.28-9.86.46-11.3C35.34,1.22,40,.21,43.6,0A21.82,21.82,0,0,1,51.35.9c2,.63,4.31,1.75,4.9,3.64.48,1.52.13,9,.13,10.76Z"/><path class="cls-1" d="M33.42,52H4.55a5.91,5.91,0,0,1-.85-1.18c-.44-.71-.68-1.05-1.14-1.87A19.64,19.64,0,0,1,.18,36.63c7.39,1.76,10,3.18,18.94,4.6,8.18,1.3,13.9,1.24,21.19,2.35,6.31,1,11.93,5,14.51,9.87a11.23,11.23,0,0,1,1.46,4.63c.24,3.88,0,9.6,0,13.82,0,2,.28,8.23-.47,9.67-1.35,2.59-6,3.6-9.6,3.77a21.76,21.76,0,0,1-7.75-.86c-2-.63-4.31-1.75-4.9-3.64-.49-1.52-.14-7.37-.14-9.14Z"/></svg>