<svg id="Layer_1" data-name="Layer 1" xmlns="http://www.w3.org/2000/svg" xmlns:xlink="http://www.w3.org/1999/xlink" viewBox="0 0 189.26 60"><defs><style>.cls-1{isolation:isolate;}.cls-2{fill:#ce0e2d;}.cls-3{fill:#fff;}.cls-4{fill:url(#linear-gradient);}</style><linearGradient id="linear-gradient" x1="3304.01" y1="10211.15" x2="3304.01" y2="10392.82" gradientTransform="translate(10392.82 -3248.73) rotate(90)" gradientUnits="userSpaceOnUse"><stop offset="0" stop-color="#fff" stop-opacity="0"/><stop offset="0.29" stop-color="#eda5b1" stop-opacity="0.37"/><stop offset="0.59" stop-color="#dc546a" stop-opacity="0.71"/><stop offset="0.79" stop-color="#d2213e" stop-opacity="0.92"/><stop offset="0.9" stop-color="#ce0e2d"/></linearGradient></defs><g id="Layer_2" data-name="Layer 2"><g id="Layer_3" data-name="Layer 3"><g class="cls-1"><g class="cls-1"><path class="cls-2" d="M14.19,9.69H11.86l-.61,2.69h1.81V14.5H10.8l-.71,3.18H7.72l.7-3.18H4.87l-.71,3.18H1.81l.71-3.18H.65V12.38H3l.61-2.69H1.79V7.55H4l.7-3.18H7.09l-.7,3.18H9.94l.71-3.18H13l-.71,3.18h1.88ZM8.88,12.38l.6-2.69H5.93l-.61,2.69Z"/><path class="cls-2" d="M19.09,15.23h7.26v2.45H16.41V3.12h2.68Z"/><path class="cls-2" d="M31,3.12V17.68H28.23V3.12Z"/><path class="cls-2" d="M43.62,3.12H46.3V17.68H43.49L36.94,8h-.17v9.73H34.09V3.12H36.9l6.55,9.8h.17Z"/><path class="cls-2" d="M52.1,15.29h7.28v2.39h-10V3.12h9.76V5.51H52.1V9.13h6.1v2.33H52.1Z"/><path class="cls-2" d="M73.53,3.12V12a5.58,5.58,0,0,1-1.65,4.35,6.12,6.12,0,0,1-4.3,1.5,6.25,6.25,0,0,1-4.35-1.5A5.55,5.55,0,0,1,61.57,12V3.12h2.74V12a3.34,3.34,0,0,0,.91,2.5,3.23,3.23,0,0,0,2.36.89,3.12,3.12,0,0,0,2.33-.88A3.43,3.43,0,0,0,70.78,12V3.12Z"/><path class="cls-2" d="M82.45,3.12A4.91,4.91,0,0,1,86,4.4a4.43,4.43,0,0,1,1.32,3.34A4.44,4.44,0,0,1,86,11.12a5.07,5.07,0,0,1-3.61,1.26h-3.1v5.3H76.6V3.12ZM82.1,10a2.5,2.5,0,0,0,1.79-.6,2.19,2.19,0,0,0,.62-1.64,2.16,2.16,0,0,0-.62-1.62,2.37,2.37,0,0,0-1.73-.61H79.27V10Z"/><path class="cls-2" d="M99.26,5.64H92.21V9.51h6.11V11.9H92.21v5.78H89.46V3.12h9.8Z"/><path class="cls-2" d="M108,17.89a7.2,7.2,0,0,1-5.32-2.13,7.28,7.28,0,0,1-2.12-5.36,7.32,7.32,0,0,1,2.11-5.35,7.71,7.71,0,0,1,10.66,0,7.33,7.33,0,0,1,2.12,5.35,7.34,7.34,0,0,1-2.11,5.35A7.22,7.22,0,0,1,108,17.89Zm0-2.54a4.32,4.32,0,0,0,3.31-1.41,5,5,0,0,0,1.31-3.54,5,5,0,0,0-1.32-3.54,4.61,4.61,0,0,0-6.64,0,5,5,0,0,0-1.32,3.54,5,5,0,0,0,1.32,3.54A4.39,4.39,0,0,0,108,15.35Z"/><path class="cls-2" d="M128.94,17.68H126L123,12h-2.37v5.68h-2.68V3.12h5.76a4.83,4.83,0,0,1,3.43,1.18,4,4,0,0,1,1.27,3.1,4.21,4.21,0,0,1-2.81,4.1ZM120.62,5.45V9.67h2.76A2.31,2.31,0,0,0,125,9.08a2,2,0,0,0,.61-1.53,2,2,0,0,0-.6-1.54,2.37,2.37,0,0,0-1.67-.56Z"/><path class="cls-2" d="M133.74,15.23H141v2.45h-9.94V3.12h2.68Z"/><path class="cls-2" d="M145.62,3.12V17.68h-2.75V3.12Z"/><path class="cls-2" d="M158.27,3.12H161V17.68h-2.81L151.59,8h-.17v9.73h-2.68V3.12h2.81l6.55,9.8h.17Z"/><path class="cls-2" d="M166.81,3.12V17.68h-2.74V3.12Z"/><path class="cls-2" d="M179.31,17.68l-1.18-3.52h-5.45l-1.19,3.52h-2.93l5.2-14.56h3.31l5.18,14.56Zm-5.88-5.78h3.95l-1.89-5.62h-.17Z"/></g><g class="cls-1"><path class="cls-3" d="M8.34,34.74h6.59v7.9H12.75l-.27-1.39h-.17A5.88,5.88,0,0,1,8,42.85a6.53,6.53,0,0,1-5-2,7.42,7.42,0,0,1-1.88-5.25,7.69,7.69,0,0,1,2.06-5.52,7,7,0,0,1,5.33-2.18,6.86,6.86,0,0,1,4.36,1.31,5.14,5.14,0,0,1,2,3.35h-3A2.92,2.92,0,0,0,10.61,31a3.92,3.92,0,0,0-2.14-.56,4.18,4.18,0,0,0-3.33,1.44,5.52,5.52,0,0,0-1.25,3.72,5,5,0,0,0,1.19,3.48,4.08,4.08,0,0,0,3.24,1.34,4.84,4.84,0,0,0,2.8-.75,2.42,2.42,0,0,0,1.09-2.14v-.62H8.34Z"/><path class="cls-3" d="M20.72,28.08V42.64H18V28.08Z"/><path class="cls-3" d="M32.78,28.08h2.93l-5,14.56h-3.3l-5-14.56h3L29,39h.16Z"/><path class="cls-3" d="M40.14,40.25h7.28v2.39h-10V28.08h9.76v2.39H40.14v3.62h6.1v2.33h-6.1Z"/><path class="cls-3" d="M59.61,42.64l-1.18-3.52H53l-1.19,3.52H48.86l5.2-14.56h3.31l5.17,14.56Zm-5.88-5.78h4l-1.9-5.62h-.16Z"/><path class="cls-3" d="M78.29,28.08h2.64L77.77,42.64h-3l-2.87-10H71.7l-2.83,10h-3L62.65,28.08h2.66L67.45,38.6h.17l2.72-9.48h2.92l2.68,9.48h.17Z"/><path class="cls-3" d="M91.81,42.64l-1.19-3.52H85.18L84,42.64H81.06l5.2-14.56h3.3l5.18,14.56Zm-5.89-5.78h4L88,31.24h-.16Z"/><path class="cls-3" d="M103.69,28.08H107l-5.24,8.13v6.43H99V36.21l-5.25-8.13H97l3.29,5.14h.16Z"/></g></g><polyline class="cls-4" points="7.63 60 181.67 60 181.67 50.57 0 50.57 0 60"/><path class="cls-3" d="M173.2,23.85H158.76A1.74,1.74,0,0,0,157,25.57V44.09a1.75,1.75,0,0,0,1.73,1.73h23.12a1.75,1.75,0,0,0,1.73-1.73V25.59a1.75,1.75,0,0,0-1.73-1.73H173.2ZM158.76,25h13.87V44.66H158.76a.56.56,0,0,1-.57-.55V25.59a.56.56,0,0,1,.53-.59Zm15,0h8.09a.58.58,0,0,1,.58.56h0v18.5a.58.58,0,0,1-.57.57h-8.1Zm-6.94,6.35a.58.58,0,0,0-.41,1l1.89,1.9h-7.25a.58.58,0,0,0-.51.29.55.55,0,0,0,0,.58.58.58,0,0,0,.51.29h7.25l-1.89,1.9a.6.6,0,0,0,.26,1,.61.61,0,0,0,.57-.16l3.25-3.3-3.25-3.3a.57.57,0,0,0-.39-.18Z"/></g></g></svg>