<svg xmlns="http://www.w3.org/2000/svg" xmlns:xlink="http://www.w3.org/1999/xlink" viewBox="0 0 189.26 60"><defs><style>.cls-1{font-size:20.8px;fill:#ce0e2d;font-family:Moderat-Black, Moderat;font-weight:800;}.cls-2{fill:#aaa;letter-spacing:0em;}.cls-3{fill:#fff;}.cls-4{fill:url(#linear-gradient);}</style><linearGradient id="linear-gradient" x1="3149.02" y1="-9994.15" x2="3149.02" y2="-10175.82" gradientTransform="matrix(0, 1, 1, 0, 10175.82, -3093.73)" gradientUnits="userSpaceOnUse"><stop offset="0" stop-color="#fff" stop-opacity="0"/><stop offset="0.29" stop-color="#eda5b1" stop-opacity="0.37"/><stop offset="0.59" stop-color="#dc546a" stop-opacity="0.71"/><stop offset="0.79" stop-color="#d2213e" stop-opacity="0.92"/><stop offset="0.9" stop-color="#ce0e2d"/></linearGradient></defs><g id="Layer_2" data-name="Layer 2"><g id="Layer_3" data-name="Layer 3"><text class="cls-1" transform="translate(0 17.68)">#LINEUPFORLINIA<tspan class="cls-2" x="183.64" y="0"> </tspan><tspan class="cls-3"><tspan x="0" y="24.96">GIVEAWAY</tspan></tspan></text><polyline class="cls-4" points="7.63 60 181.67 60 181.67 50.57 0 50.57 0 60"/><path class="cls-3" d="M173.2,23.85H158.76A1.74,1.74,0,0,0,157,25.59v18.5a1.74,1.74,0,0,0,1.73,1.73h23.12a1.74,1.74,0,0,0,1.73-1.73V25.59a1.74,1.74,0,0,0-1.73-1.73H173.2ZM158.76,25h13.87V44.66H158.76a.56.56,0,0,1-.57-.57V25.59A.56.56,0,0,1,158.76,25Zm15,0h8.09a.57.57,0,0,1,.58.57v18.5a.57.57,0,0,1-.58.57h-8.09Zm-6.94,6.35a.58.58,0,0,0-.41,1l1.89,1.9h-7.25a.58.58,0,0,0-.51.29.55.55,0,0,0,0,.58.58.58,0,0,0,.51.29h7.25l-1.89,1.9a.59.59,0,0,0,.26,1,.6.6,0,0,0,.57-.16l3.25-3.3-3.25-3.3A.59.59,0,0,0,166.85,31.37Z"/></g></g></svg>