<?xml version="1.0" encoding="utf-8"?>
<!-- Generator: Adobe Illustrator 26.0.1, SVG Export Plug-In . SVG Version: 6.00 Build 0)  -->
<svg version="1.1" id="Layer_2_00000162345850535952152800000001939951902202440840_"
	 xmlns="http://www.w3.org/2000/svg" xmlns:xlink="http://www.w3.org/1999/xlink" x="0px" y="0px" viewBox="0 0 586.1 955"
	 style="enable-background:new 0 0 586.1 955;" xml:space="preserve">
<style type="text/css">
	.st0{fill:#FFFFFF;}
	.st1{fill:#CE0E2D;}
	.st2{fill:url(#SVGID_1_);}
	.st3{fill:url(#SVGID_00000026868855825773607660000000039812056254392214_);}
</style>
<path class="st0" d="M78.6,272.4v76.1H61.8v-76.1H78.6z"/>
<path class="st0" d="M141.8,272.4h16.3v76.1h-16.9l-30.9-46.4h-1v46.4H93v-76.1h16.8l31.1,46.9h1L141.8,272.4z"/>
<path class="st0" d="M189,334h37.3v14.5h-53.7v-76.1h52.6V287H189v15.8h30.8V317H189V334z"/>
<path class="st1" d="M289.6,294.2v54.3h-14.9l-1.4-6.3h-1c-3.9,4.9-9.3,7.4-16.1,7.4s-12.2-2.1-16-6.2c-3.9-4.1-5.8-9.8-5.8-17
	v-32.2h16.3v28.9c0,4,1,7.1,3.1,9.2c2.1,2.2,5,3.3,8,3.2c3.1,0.1,6-1.1,8.2-3.3c2.2-2.2,3.3-5.3,3.3-9.5v-28.6H289.6z"/>
<path class="st0" d="M358.9,531.2H394v9.3h-45.2v-68.8h10.1V531.2z"/>
<path class="st0" d="M414.9,471.7v68.8h-10.3v-68.8H414.9z"/>
<path class="st0" d="M477.8,471.7H488v68.8h-10.9l-34.7-51h-0.7v51h-10.2v-68.8h10.9l34.6,51.2h0.7L477.8,471.7z"/>
<path class="st0" d="M515,471.7v68.8h-10.3v-68.8H515z"/>
<path class="st0" d="M575,540.5l-6.1-18h-26.8l-6.1,18h-11.2l24.3-68.9h12.7l24.3,68.9H575z M545,513.7h21l-10.1-30h-0.7L545,513.7z
	"/>
<path class="st0" d="M357.8,410v3.4h9.2v7.3h-9.2v28.9h-9.3v-29h-7.6v-7.3h7.6v-3.8c0-3.7,1.1-6.5,3.3-8.4c2.2-1.9,5.1-2.9,8.8-2.9
	c2.4,0,4.7,0.4,7,1.2l-1.6,6.7c-1.2-0.4-2.4-0.6-3.7-0.6C359.3,405.6,357.8,407,357.8,410z"/>
<path class="st0" d="M389.1,450.4c-5.1,0.1-10-1.8-13.7-5.4c-7.3-7.6-7.3-19.5,0-27.1c7.8-7,19.6-7,27.4,0c7.3,7.6,7.3,19.6,0,27.1
	C399.2,448.6,394.2,450.5,389.1,450.4z M389.1,442.4c2.7,0.1,5.4-1.1,7.2-3.1c1.9-2.1,2.8-4.9,2.8-7.8c0.1-2.8-0.9-5.5-2.8-7.6
	c-1.8-2-4.4-3.2-7.2-3.1c-2.7-0.1-5.3,1-7.1,3.1c-3.7,4.5-3.7,10.9,0,15.4C383.8,441.3,386.4,442.4,389.1,442.4L389.1,442.4z"/>
<path class="st0" d="M415,449.6v-36.2h8.4l0.9,5.1h0.6c1-1.8,2.5-3.3,4.2-4.5c2-1.1,4.3-1.5,6.6-1.4h2.6v9.3
	c-1.3-0.2-2.6-0.3-3.9-0.3c-3.6,0-6.2,1.1-7.8,3.2c-1.6,2.3-2.4,5.1-2.3,7.9v16.9L415,449.6z"/>
<path class="st0" d="M16.4,333.5h37.3v15H0v-75.9h16.4V333.5z"/>
<path class="st1" d="M331.6,293.1c7-0.2,13.8,2.6,18.6,7.8c4.9,5.2,7.3,12,7.3,20.6c0,8.7-2.5,15.6-7.5,20.6
	c-4.8,5-11.5,7.7-18.4,7.6c-6.2,0-11.1-1.7-14.9-5.1v31.3h-16.3v-81.7h13.3l1.4,5.6h1C319.6,295.3,324.8,293.1,331.6,293.1z
	 M320,331.6c4.6,4.9,12.3,5.2,17.2,0.6l0.6-0.6c2.3-2.6,3.4-5.9,3.4-10.1c0.1-3.7-1.1-7.4-3.4-10.3c-2.2-2.6-5.5-4-8.9-3.9
	c-3.4-0.1-6.7,1.3-8.9,3.9c-2.2,2.6-3.3,6-3.3,10.3S317.8,329.2,320,331.6z"/>
<linearGradient id="SVGID_1_" gradientUnits="userSpaceOnUse" x1="9.08" y1="1120" x2="9.08" y2="817.46" gradientTransform="matrix(1 0 0 -1 -0.87 1120)">
	<stop  offset="0" style="stop-color:#FFFFFF;stop-opacity:0"/>
	<stop  offset="0.11" style="stop-color:#FFFFFF;stop-opacity:0.14"/>
	<stop  offset="0.4" style="stop-color:#FFFFFF;stop-opacity:0.5"/>
	<stop  offset="0.64" style="stop-color:#FFFFFF;stop-opacity:0.77"/>
	<stop  offset="0.81" style="stop-color:#FFFFFF;stop-opacity:0.94"/>
	<stop  offset="0.9" style="stop-color:#FFFFFF"/>
</linearGradient>
<polyline class="st2" points="0,302.5 0,0 16.4,0 16.4,302.5 "/>
<linearGradient id="SVGID_00000141447815899796492010000012986968503282071999_" gradientUnits="userSpaceOnUse" x1="309.37" y1="165" x2="309.37" y2="825.83" gradientTransform="matrix(1 0 0 -1 -0.87 1120)">
	<stop  offset="0" style="stop-color:#FFFFFF;stop-opacity:0"/>
	<stop  offset="0.29" style="stop-color:#EDA5B1;stop-opacity:0.37"/>
	<stop  offset="0.59" style="stop-color:#DC546A;stop-opacity:0.71"/>
	<stop  offset="0.79" style="stop-color:#D2213E;stop-opacity:0.92"/>
	<stop  offset="0.9" style="stop-color:#CE0E2D"/>
</linearGradient>
<polyline style="fill:url(#SVGID_00000141447815899796492010000012986968503282071999_);" points="316.7,321.9 316.7,955 300.3,955 
	300.3,294.2 316.7,294.2 "/>
</svg>
