<svg id="Layer_2" data-name="Layer 2" xmlns="http://www.w3.org/2000/svg" xmlns:xlink="http://www.w3.org/1999/xlink" viewBox="0 0 586.13 955"><defs><style>.cls-1{fill:#fff;}.cls-2{fill:#ce0e2d;}.cls-3{fill:url(#linear-gradient);}.cls-4{fill:url(#linear-gradient-2);}</style><linearGradient id="linear-gradient" x1="9.08" y1="-164" x2="9.08" y2="138.54" gradientTransform="translate(-0.87 164)" gradientUnits="userSpaceOnUse"><stop offset="0" stop-color="#fff" stop-opacity="0"/><stop offset="0.11" stop-color="#fff" stop-opacity="0.14"/><stop offset="0.4" stop-color="#fff" stop-opacity="0.5"/><stop offset="0.64" stop-color="#fff" stop-opacity="0.77"/><stop offset="0.81" stop-color="#fff" stop-opacity="0.94"/><stop offset="0.9" stop-color="#fff"/></linearGradient><linearGradient id="linear-gradient-2" x1="309.37" y1="791" x2="309.37" y2="130.17" gradientTransform="translate(-0.87 164)" gradientUnits="userSpaceOnUse"><stop offset="0" stop-color="#fff" stop-opacity="0"/><stop offset="0.29" stop-color="#eda5b1" stop-opacity="0.37"/><stop offset="0.59" stop-color="#dc546a" stop-opacity="0.71"/><stop offset="0.79" stop-color="#d2213e" stop-opacity="0.92"/><stop offset="0.9" stop-color="#ce0e2d"/></linearGradient></defs><path class="cls-1" d="M2.41,375.8v15.6H1V375.8Z"/><path class="cls-1" d="M13.86,375.8h1.39v15.6H13.6L7.47,378.63H7.33V391.4H6V375.8H7.62l6.11,12.72h.13Z"/><path class="cls-1" d="M26.41,387.72a3.62,3.62,0,0,1-1.12,2.93,4.28,4.28,0,0,1-2.91,1,4,4,0,0,1-3-1.11,5,5,0,0,1-1.18-3.37h1.42c.15,2.14,1.07,3.21,2.77,3.21a2.73,2.73,0,0,0,1.86-.63,2.49,2.49,0,0,0,.72-2c0-1.39-.84-2.57-2.54-3.55l-.87-.51a10.13,10.13,0,0,1-1-.61,6.82,6.82,0,0,1-.92-.77,3.26,3.26,0,0,1-.79-1.21,4.24,4.24,0,0,1-.27-1.58,3.86,3.86,0,0,1,1.12-2.91,4,4,0,0,1,2.85-1.06,3.68,3.68,0,0,1,2.83,1.14,4.84,4.84,0,0,1,1.14,3.17H25.05c-.15-2-1-3-2.56-3a2.41,2.41,0,0,0-1.83.73A2.69,2.69,0,0,0,20,379.5a3.21,3.21,0,0,0,.22,1.18,2.64,2.64,0,0,0,.66.92,5.42,5.42,0,0,0,.77.59c.22.14.51.3.87.49l.78.45a10,10,0,0,1,1,.58,8.55,8.55,0,0,1,1,.8,3.54,3.54,0,0,1,.91,1.38A5.15,5.15,0,0,1,26.41,387.72Z"/><path class="cls-1" d="M37.67,375.8v1.31H33.75V391.4H32.32V377.11H28.4V375.8Z"/><path class="cls-1" d="M46.27,391.4l-1.14-4.59H40.37l-1.16,4.59H37.67l4.17-15.6h1.8l4.17,15.6Zm-5.59-5.84h4.1l-2-7.85h-.14Z"/><path class="cls-1" d="M54.74,383.51h4.75v7.89H58.38l-.18-1.47h-.13a4.28,4.28,0,0,1-3.59,1.69,4.45,4.45,0,0,1-3.86-2,10.12,10.12,0,0,1-1.38-5.79,10.72,10.72,0,0,1,1.49-6.18,4.72,4.72,0,0,1,4.06-2.12,4.48,4.48,0,0,1,3.14,1.13A5.28,5.28,0,0,1,59.45,380H58a4,4,0,0,0-1.07-2.33,3,3,0,0,0-2.11-.79,3.37,3.37,0,0,0-3,1.75,9.83,9.83,0,0,0-1.1,5.16,9.21,9.21,0,0,0,1,4.86,3.26,3.26,0,0,0,2.89,1.65,3.41,3.41,0,0,0,2.47-1,4,4,0,0,0,1-3v-1.63H54.74Z"/><path class="cls-1" d="M71.31,391.4H69.75l-3-6.87H64.37v6.87H63V375.8h3.94a3.84,3.84,0,0,1,3,1.17A4.48,4.48,0,0,1,71,380.1a4.77,4.77,0,0,1-.74,2.7,3.61,3.61,0,0,1-2,1.47Zm-6.94-14.33v6.19h2.3a2.63,2.63,0,0,0,2.08-.84,3.33,3.33,0,0,0,.75-2.3,3.17,3.17,0,0,0-.75-2.26,2.68,2.68,0,0,0-2.06-.79Z"/><path class="cls-1" d="M81.74,391.4l-1.16-4.59H75.83l-1.16,4.59H73.13l4.17-15.6h1.83l4.16,15.6Zm-5.61-5.84h4.1l-2-7.85h-.1Z"/><path class="cls-1" d="M97.56,375.8v15.6H96.2V378.74h-.13l-3.61,10.88H90.79l-3.66-10.88H87V391.4H85.61V375.8h1.92l4,12h.14l4-12Z"/><path class="cls-1" d="M112.34,383.51h4.79v7.89H116l-.17-1.47h-.14a4.28,4.28,0,0,1-3.59,1.69,4.45,4.45,0,0,1-3.85-2,10,10,0,0,1-1.39-5.79,10.65,10.65,0,0,1,1.5-6.18,4.72,4.72,0,0,1,4-2.12,4.5,4.5,0,0,1,3.15,1.13A5.32,5.32,0,0,1,117,380h-1.49a4,4,0,0,0-1.07-2.33,3,3,0,0,0-2.12-.79,3.4,3.4,0,0,0-3,1.75,9.83,9.83,0,0,0-1.1,5.16,9.21,9.21,0,0,0,1,4.86,3.23,3.23,0,0,0,2.88,1.65,3.39,3.39,0,0,0,2.48-1,4,4,0,0,0,1-3v-1.63h-3.32Z"/><path class="cls-1" d="M122,375.8v15.6h-1.42V375.8Z"/><path class="cls-1" d="M133.07,375.8h1.52l-4.24,15.6h-1.8l-4.22-15.6h1.52l3.52,13.46h.16Z"/><path class="cls-1" d="M138.33,390.11h6.06v1.29h-7.46V375.8h7.2v1.29h-5.8v5.75h5.17v1.29h-5.17Z"/><path class="cls-1" d="M154.89,391.4l-1.16-4.59H149l-1.15,4.59h-1.54l4.17-15.6h1.8l4.17,15.6Zm-5.59-5.84h4.1l-2-7.85h-.13Z"/><path class="cls-1" d="M170.72,375.8h1.41l-2.83,15.6h-1.77l-2.9-11.21h-.13l-2.88,11.21h-1.74l-2.83-15.6h1.43l2.27,13.33h.14l2.85-11.1h1.7l2.8,11.1h.14Z"/><path class="cls-1" d="M181.31,391.4l-1.18-4.59h-4.75l-1.16,4.59h-1.54l4.17-15.6h1.8l4.17,15.6Zm-5.6-5.84h4.1l-2-7.85h-.14Z"/><path class="cls-1" d="M191.05,375.8h1.67l-4.35,7.93v7.67H186.9v-7.67l-4.37-7.93h1.67l3.37,6.24h.11Z"/><path class="cls-1" d="M210.88,386.81a5.44,5.44,0,0,1-1.56,3.59,4.73,4.73,0,0,1-3.32,1.22,4.55,4.55,0,0,1-3.89-2,10.28,10.28,0,0,1-1.41-5.93,10.68,10.68,0,0,1,1.42-6,4.74,4.74,0,0,1,7.09-.88,5.84,5.84,0,0,1,1.5,3.74h-1.5q-.45-3.62-3.21-3.61a3.16,3.16,0,0,0-2.84,1.77,10,10,0,0,0-1,5,9.39,9.39,0,0,0,1,4.91,3.2,3.2,0,0,0,2.83,1.69,3.14,3.14,0,0,0,2.25-.85,4.31,4.31,0,0,0,1.14-2.63Z"/><path class="cls-1" d="M218.51,391.62a4.71,4.71,0,0,1-4-2,12.64,12.64,0,0,1,0-12,4.9,4.9,0,0,1,6.83-1.17,5,5,0,0,1,1.17,1.17,12.58,12.58,0,0,1,0,12A4.69,4.69,0,0,1,218.51,391.62Zm0-1.33a3.36,3.36,0,0,0,2.92-1.7,11.82,11.82,0,0,0,0-10,3.4,3.4,0,0,0-5.88,0,11.67,11.67,0,0,0,0,10A3.43,3.43,0,0,0,218.51,390.29Z"/><path class="cls-1" d="M235,375.8h1.38v15.6h-1.65l-6.13-12.77h-.13V391.4H227V375.8h1.68l6.1,12.72H235Z"/><path class="cls-1" d="M248.13,375.8v1.31h-4V391.4h-1.42V377.11h-3.93V375.8Z"/><path class="cls-1" d="M252,390.11H258v1.29h-7.47V375.8h7.24v1.29H252v5.75h5.17v1.29H252Z"/><path class="cls-1" d="M268.21,387.72a3.62,3.62,0,0,1-1.12,2.93,4.28,4.28,0,0,1-2.91,1,4,4,0,0,1-3-1.11,5,5,0,0,1-1.18-3.37h1.43q.21,3.21,2.76,3.21a2.73,2.73,0,0,0,1.86-.63,2.49,2.49,0,0,0,.72-2c0-1.39-.84-2.57-2.54-3.55l-.87-.51a10.13,10.13,0,0,1-1-.61,6.82,6.82,0,0,1-.92-.77,3.26,3.26,0,0,1-.79-1.21,4.24,4.24,0,0,1-.27-1.58,3.86,3.86,0,0,1,1.12-2.91,4,4,0,0,1,2.85-1.06,3.68,3.68,0,0,1,2.83,1.14,4.84,4.84,0,0,1,1.14,3.17h-1.43c-.14-2-1-3-2.56-3a2.41,2.41,0,0,0-1.83.73,2.69,2.69,0,0,0-.69,1.91,3.21,3.21,0,0,0,.22,1.18,2.64,2.64,0,0,0,.66.92,5.42,5.42,0,0,0,.77.59c.22.14.51.3.87.49l.78.45a10,10,0,0,1,1,.58,8.55,8.55,0,0,1,1,.8,3.54,3.54,0,0,1,.91,1.38A5.13,5.13,0,0,1,268.21,387.72Z"/><path class="cls-1" d="M279.47,375.8v1.31h-3.92V391.4h-1.42V377.11h-3.92V375.8Z"/><path class="cls-1" d="M78.62,272.42V348.5H61.77V272.42Z"/><path class="cls-1" d="M141.8,272.42h16.33V348.5H141.26l-30.88-46.43h-1V348.5H93V272.42h16.75l31.1,46.87h1Z"/><path class="cls-1" d="M189,334h37.29v14.5H172.57V272.42H225.2V287H189v15.77h30.77V317H189Z"/><path class="cls-2" d="M289.58,294.17V348.5h-14.9l-1.41-6.31h-1q-5.86,7.4-16.09,7.4t-16-6.2q-5.82-6.19-5.82-17V294.17h16.31v28.92q0,6,3.1,9.19a10.62,10.62,0,0,0,8,3.21,11.24,11.24,0,0,0,8.21-3.26q3.31-3.27,3.32-9.46v-28.6Z"/><path class="cls-1" d="M358.89,531.18H394v9.32H348.76V471.66h10.13Z"/><path class="cls-1" d="M414.88,471.66V540.5H404.55V471.66Z"/><path class="cls-1" d="M477.84,471.66H488V540.5H477.13l-34.68-51h-.68v51H431.6V471.66h10.92l34.61,51.16h.69Z"/><path class="cls-1" d="M515,471.66V540.5H504.7V471.66Z"/><path class="cls-1" d="M575,540.5l-6.1-18H542.13l-6.1,18H524.87l24.26-68.87h12.69l24.31,68.87Zm-30-26.76h21l-10.14-30h-.68Z"/><path class="cls-1" d="M357.82,410v3.41H367v7.32h-9.21v28.93h-9.28v-29h-7.61v-7.32h7.61V409.5q0-5.52,3.3-8.41c2.2-1.94,5.13-2.9,8.81-2.9a22.26,22.26,0,0,1,7,1.23l-1.6,6.74a11.32,11.32,0,0,0-3.7-.58C359.32,405.56,357.82,407,357.82,410Z"/><path class="cls-1" d="M389.13,450.36a18.82,18.82,0,0,1-13.7-5.36,19.59,19.59,0,0,1,0-27.12,20.5,20.5,0,0,1,27.4,0,19.66,19.66,0,0,1,0,27.15A18.85,18.85,0,0,1,389.13,450.36Zm0-8a9.11,9.11,0,0,0,7.18-3.12,11.31,11.31,0,0,0,2.75-7.76,11.11,11.11,0,0,0-2.75-7.65,9.22,9.22,0,0,0-7.18-3.08,9.06,9.06,0,0,0-7.14,3.08,12.21,12.21,0,0,0,0,15.41,9.06,9.06,0,0,0,7.11,3.08Z"/><path class="cls-1" d="M415,449.64V413.39h8.41l.87,5.15h.58a13.09,13.09,0,0,1,4.2-4.46,12.79,12.79,0,0,1,6.6-1.41h2.61V422a23.44,23.44,0,0,0-3.92-.29c-3.62,0-6.21,1.07-7.75,3.22a13.08,13.08,0,0,0-2.32,7.87v16.89Z"/><path class="cls-1" d="M16.42,333.5h37.3v15H0V272.6H16.42Z"/><path class="cls-2" d="M331.56,293.08a24.42,24.42,0,0,1,18.57,7.78q7.33,7.77,7.34,20.6,0,13.05-7.45,20.61a24.85,24.85,0,0,1-18.43,7.56q-9.25,0-14.9-5.11v31.34H300.35V294.17h13.26l1.42,5.65h1Q321.45,293.08,331.56,293.08ZM320,331.63a12.17,12.17,0,0,0,17.2.58l.58-.58q3.38-3.86,3.38-10.13a15.49,15.49,0,0,0-3.42-10.33,11.26,11.26,0,0,0-8.86-3.91,11,11,0,0,0-8.87,3.91q-3.32,3.91-3.31,10.33T320,331.63Z"/><polyline class="cls-3" points="0 302.54 0 0 16.42 0 16.42 302.54"/><polyline class="cls-4" points="316.66 321.91 316.66 955 300.34 955 300.34 294.17 316.66 294.17"/><path class="cls-1" d="M355.05,584.05h4.75v7.89h-1.11l-.18-1.48h-.13a4.28,4.28,0,0,1-3.59,1.7,4.47,4.47,0,0,1-3.86-2,10.07,10.07,0,0,1-1.38-5.8,10.7,10.7,0,0,1,1.49-6.17,4.73,4.73,0,0,1,4.06-2.12,4.46,4.46,0,0,1,3.14,1.13,5.31,5.31,0,0,1,1.52,3.33h-1.5a4,4,0,0,0-1.07-2.33,2.91,2.91,0,0,0-2.11-.79,3.38,3.38,0,0,0-3,1.75,9.73,9.73,0,0,0-1.1,5.16,9.25,9.25,0,0,0,1,4.86,3.25,3.25,0,0,0,2.89,1.65,3.41,3.41,0,0,0,2.47-1,4,4,0,0,0,1-3v-1.63h-3.33Z"/><path class="cls-1" d="M370.88,586c0,.25,0,.47,0,.64h-6.62Q364.3,591,367,591a2.51,2.51,0,0,0,1.58-.51,2.46,2.46,0,0,0,.87-1.61h1.34a3.71,3.71,0,0,1-1.27,2.46,3.89,3.89,0,0,1-2.52.82,3.61,3.61,0,0,1-3-1.42,6.86,6.86,0,0,1-1.1-4.24,7.35,7.35,0,0,1,1.12-4.43,3.56,3.56,0,0,1,3-1.5,3.44,3.44,0,0,1,2.8,1.33A6.43,6.43,0,0,1,370.88,586ZM367,581.73a2.34,2.34,0,0,0-1.92,1,5,5,0,0,0-.84,2.8h5.3a4.86,4.86,0,0,0-.71-2.84A2.14,2.14,0,0,0,367,581.73Z"/><path class="cls-1" d="M377,592.16a2.35,2.35,0,0,1-1.71-.59,2.24,2.24,0,0,1-.6-1.66v-8h-2.12v-1.16h.89a1.45,1.45,0,0,0,1-.31,1.47,1.47,0,0,0,.32-1.07V577.9h1.25v2.89h2.47V582h-2.47v7.69c0,.89.42,1.34,1.27,1.34a3.31,3.31,0,0,0,1.05-.18v1.14A5,5,0,0,1,377,592.16Z"/><path class="cls-1" d="M388.08,578.47a.94.94,0,0,1-.71.29,1,1,0,0,1-.73-.29.94.94,0,0,1-.3-.71.92.92,0,0,1,.3-.7,1,1,0,0,1,.73-.28,1,1,0,0,1,.71.28,1,1,0,0,1,.29.7A1,1,0,0,1,388.08,578.47Zm-1.4,13.47V580.79H388v11.15Z"/><path class="cls-1" d="M391.13,591.94V580.79h1.21l.15,1.07h.14a3.11,3.11,0,0,1,2.61-1.29,3,3,0,0,1,2.31.95,3.59,3.59,0,0,1,.89,2.59v7.83h-1.38v-7.56a2.77,2.77,0,0,0-.6-1.93,2,2,0,0,0-1.51-.65,2.33,2.33,0,0,0-1.75.72,2.93,2.93,0,0,0-.71,2.13v7.29Z"/><path class="cls-1" d="M407.65,591.94V576.11H409v15.83Z"/><path class="cls-1" d="M413.51,578.47a.94.94,0,0,1-.71.29,1,1,0,0,1-.73-.29.94.94,0,0,1-.3-.71.92.92,0,0,1,.3-.7,1,1,0,0,1,.73-.28,1,1,0,0,1,.71.28,1,1,0,0,1,.29.7A1,1,0,0,1,413.51,578.47Zm-1.4,13.47V580.79h1.35v11.15Z"/><path class="cls-1" d="M416.56,591.94V580.79h1.21l.15,1.07h.14a3.1,3.1,0,0,1,2.6-1.29,3,3,0,0,1,2.32.95,3.59,3.59,0,0,1,.89,2.59v7.83h-1.38v-7.56a2.77,2.77,0,0,0-.6-1.93,2,2,0,0,0-1.52-.65,2.35,2.35,0,0,0-1.75.72,3,3,0,0,0-.7,2.13v7.29Z"/><path class="cls-1" d="M434.57,586c0,.25,0,.47,0,.64h-6.62Q428,591,430.69,591a2.51,2.51,0,0,0,1.58-.51,2.46,2.46,0,0,0,.87-1.61h1.34a3.67,3.67,0,0,1-1.27,2.46,3.87,3.87,0,0,1-2.52.82,3.61,3.61,0,0,1-3-1.42,6.86,6.86,0,0,1-1.1-4.24,7.35,7.35,0,0,1,1.12-4.43,3.56,3.56,0,0,1,3-1.5,3.44,3.44,0,0,1,2.8,1.33A6.43,6.43,0,0,1,434.57,586Zm-3.88-4.28a2.34,2.34,0,0,0-1.92,1,5,5,0,0,0-.84,2.8h5.3a4.86,4.86,0,0,0-.71-2.84A2.14,2.14,0,0,0,430.69,581.73Z"/><path class="cls-1" d="M446.8,592.16a2.35,2.35,0,0,1-1.71-.59,2.24,2.24,0,0,1-.6-1.66v-8h-2.12v-1.16h.89a1.45,1.45,0,0,0,1-.31,1.47,1.47,0,0,0,.32-1.07V577.9h1.25v2.89h2.47V582h-2.47v7.69c0,.89.42,1.34,1.27,1.34a3.31,3.31,0,0,0,1.05-.18v1.14A5,5,0,0,1,446.8,592.16Z"/><path class="cls-1" d="M454.25,592.16a3.65,3.65,0,0,1-3.11-1.56,6.94,6.94,0,0,1-1.15-4.21,7.09,7.09,0,0,1,1.14-4.25,3.62,3.62,0,0,1,3.12-1.57,3.7,3.7,0,0,1,3.12,1.58,7.06,7.06,0,0,1,1.16,4.24,7,7,0,0,1-1.15,4.22A3.7,3.7,0,0,1,454.25,592.16Zm0-1.23a2.41,2.41,0,0,0,2.14-1.26,6.15,6.15,0,0,0,.78-3.28,6.28,6.28,0,0,0-.78-3.34,2.42,2.42,0,0,0-2.14-1.25,2.37,2.37,0,0,0-2.14,1.24,6.39,6.39,0,0,0-.76,3.35,6.24,6.24,0,0,0,.76,3.29A2.36,2.36,0,0,0,454.25,590.93Z"/><path class="cls-1" d="M468.53,591.94l-2.21-11.15h1.32l1.72,9.23h.13l2.21-8.36h1.58l2.16,8.38h.13l1.76-9.25h1.32l-2.23,11.15h-1.65l-2.23-8.52h-.13l-2.23,8.52Z"/><path class="cls-1" d="M482.1,578.47a.94.94,0,0,1-.71.29,1,1,0,0,1-.72-.29.91.91,0,0,1-.3-.71.89.89,0,0,1,.3-.7,1,1,0,0,1,.72-.28,1,1,0,0,1,.71.28.91.91,0,0,1,.29.7A.94.94,0,0,1,482.1,578.47Zm-1.4,13.47V580.79h1.36v11.15Z"/><path class="cls-1" d="M485.16,591.94V580.79h1.2l.16,1.07h.13a3.11,3.11,0,0,1,2.61-1.29,3,3,0,0,1,2.31.95,3.6,3.6,0,0,1,.9,2.59v7.83h-1.39v-7.56a2.77,2.77,0,0,0-.6-1.93,1.94,1.94,0,0,0-1.51-.65,2.35,2.35,0,0,0-1.75.72,2.93,2.93,0,0,0-.7,2.13v7.29Z"/><path class="cls-1" d="M356.9,617.56h.27v1.12h-.62a1.43,1.43,0,0,1-1.56-1.14,3.38,3.38,0,0,1-2.9,1.36,3.13,3.13,0,0,1-2.22-.78,3,3,0,0,1-.83-2.27q0-3,3.61-3.57l2.14-.31v-1.18c0-1.53-.66-2.3-2-2.3s-2,.74-2.13,2.21h-1.36a3.56,3.56,0,0,1,1-2.5,3.86,3.86,0,0,1,4.92,0,3.2,3.2,0,0,1,.93,2.44v6.09C356.17,617.28,356.41,617.56,356.9,617.56Zm-2.11-2.51v-2l-1.85.27c-1.7.26-2.54,1.07-2.54,2.45a1.88,1.88,0,0,0,.52,1.45,1.85,1.85,0,0,0,1.33.49,2.68,2.68,0,0,0,1.79-.63A2.57,2.57,0,0,0,354.79,615.05Z"/><path class="cls-1" d="M367.4,617.36h5.88v1.32H366v-15.6h1.43Z"/><path class="cls-1" d="M377.12,605.22a1,1,0,0,1-.72.29,1,1,0,0,1-.72-.29,1,1,0,0,1-.3-.72.92.92,0,0,1,.3-.7,1,1,0,0,1,.72-.28,1,1,0,0,1,.72.28,1,1,0,0,1,.29.7A1,1,0,0,1,377.12,605.22Zm-1.41,13.46V607.54h1.36v11.14Z"/><path class="cls-1" d="M380.17,618.68V607.54h1.2l.16,1.07h.13a3.11,3.11,0,0,1,2.61-1.3,3,3,0,0,1,2.32,1,3.66,3.66,0,0,1,.89,2.6v7.82H386.1v-7.56a2.74,2.74,0,0,0-.6-1.92,2,2,0,0,0-1.52-.66,2.35,2.35,0,0,0-1.75.72,3,3,0,0,0-.7,2.13v7.29Z"/><path class="cls-1" d="M392,605.22a1,1,0,0,1-.71.29,1,1,0,0,1-.73-.29,1,1,0,0,1-.3-.72.92.92,0,0,1,.3-.7,1.05,1.05,0,0,1,.73-.28,1,1,0,0,1,.71.28,1,1,0,0,1,.29.7A1,1,0,0,1,392,605.22Zm-1.4,13.46V607.54h1.36v11.14Z"/><path class="cls-1" d="M402.28,617.56h.26v1.12h-.62a1.43,1.43,0,0,1-1.56-1.14,3.37,3.37,0,0,1-2.9,1.36,3.09,3.09,0,0,1-2.21-.78,3,3,0,0,1-.84-2.27q0-3,3.61-3.57l2.14-.31v-1.18c0-1.53-.66-2.3-2-2.3s-2,.74-2.14,2.21h-1.36a3.65,3.65,0,0,1,1-2.5,3.88,3.88,0,0,1,4.93,0,3.23,3.23,0,0,1,.92,2.44v6.09C401.54,617.28,401.79,617.56,402.28,617.56Zm-2.12-2.51v-2l-1.85.27c-1.69.26-2.54,1.07-2.54,2.45a1.91,1.91,0,0,0,.52,1.45,1.85,1.85,0,0,0,1.33.49,2.66,2.66,0,0,0,1.79-.63A2.57,2.57,0,0,0,400.16,615.05Z"/><path class="cls-1" d="M419.12,615a3.64,3.64,0,0,1-1.12,2.93,4.28,4.28,0,0,1-2.91,1,4,4,0,0,1-3-1.11,5,5,0,0,1-1.18-3.37h1.43q.23,3.21,2.76,3.21A2.72,2.72,0,0,0,417,617a2.46,2.46,0,0,0,.73-2q0-2.09-2.54-3.55l-.87-.51c-.43-.24-.78-.44-1-.61a6.54,6.54,0,0,1-.91-.77,3.22,3.22,0,0,1-.79-1.2,4.38,4.38,0,0,1-.27-1.59,3.84,3.84,0,0,1,1.11-2.91,4,4,0,0,1,2.86-1,3.66,3.66,0,0,1,2.83,1.13,4.89,4.89,0,0,1,1.13,3.17h-1.42c-.15-2-1-3-2.57-3a2.41,2.41,0,0,0-1.82.72,2.66,2.66,0,0,0-.7,1.91,3,3,0,0,0,.23,1.18,2.6,2.6,0,0,0,.66.92,4.65,4.65,0,0,0,.76.59c.23.14.52.3.87.49l.78.45a10.38,10.38,0,0,1,1,.58,8.64,8.64,0,0,1,1,.8,3.47,3.47,0,0,1,.91,1.38A5.17,5.17,0,0,1,419.12,615Z"/><path class="cls-1" d="M423.63,605.22a1,1,0,0,1-.72.29,1,1,0,0,1-.72-.29,1,1,0,0,1-.3-.72.92.92,0,0,1,.3-.7,1,1,0,0,1,.72-.28,1,1,0,0,1,.72.28,1,1,0,0,1,.29.7A1,1,0,0,1,423.63,605.22Zm-1.41,13.46V607.54h1.36v11.14Z"/><path class="cls-1" d="M433.19,602.86h1.36v15.82h-1.14l-.13-1.36h-.14a3.29,3.29,0,0,1-1.09,1.11,3.06,3.06,0,0,1-1.76.47,3.44,3.44,0,0,1-2.9-1.49,7.34,7.34,0,0,1-1.09-4.33,7.22,7.22,0,0,1,1.09-4.3,3.45,3.45,0,0,1,2.9-1.47,3.07,3.07,0,0,1,2.9,1.61Zm-4.75,13.66a2.31,2.31,0,0,0,4,0,6.38,6.38,0,0,0,.75-3.45,6.22,6.22,0,0,0-.75-3.39,2.27,2.27,0,0,0-2-1.15,2.3,2.3,0,0,0-2,1.15,6.12,6.12,0,0,0-.76,3.39A6.29,6.29,0,0,0,428.44,616.52Z"/><path class="cls-1" d="M445.27,612.75a6,6,0,0,1,0,.65h-6.62q.08,4.33,2.77,4.34a2.51,2.51,0,0,0,1.58-.51,2.46,2.46,0,0,0,.87-1.6h1.34a3.71,3.71,0,0,1-1.27,2.46,4,4,0,0,1-2.52.81,3.62,3.62,0,0,1-3-1.41,6.83,6.83,0,0,1-1.1-4.25,7.3,7.3,0,0,1,1.12-4.42,3.55,3.55,0,0,1,3-1.51,3.45,3.45,0,0,1,2.8,1.33A6.43,6.43,0,0,1,445.27,612.75Zm-3.88-4.28a2.34,2.34,0,0,0-1.92,1,5,5,0,0,0-.85,2.8h5.31a5,5,0,0,0-.71-2.84A2.18,2.18,0,0,0,441.39,608.47Z"/><path class="cls-1" d="M462.76,603.08v1.31h-3.92v14.29h-1.43V604.39h-3.92v-1.31Z"/><path class="cls-1" d="M472.48,617.56h.26v1.12h-.62a1.43,1.43,0,0,1-1.56-1.14,3.38,3.38,0,0,1-2.9,1.36,3.09,3.09,0,0,1-2.21-.78,3,3,0,0,1-.84-2.27q0-3,3.61-3.57l2.14-.31v-1.18c0-1.53-.66-2.3-2-2.3s-2,.74-2.14,2.21h-1.36a3.6,3.6,0,0,1,1-2.5,3.42,3.42,0,0,1,2.46-.89,3.47,3.47,0,0,1,2.47.88,3.23,3.23,0,0,1,.92,2.44v6.09C471.74,617.28,472,617.56,472.48,617.56Zm-2.12-2.51v-2l-1.85.27c-1.69.26-2.54,1.07-2.54,2.45a1.88,1.88,0,0,0,.52,1.45,1.85,1.85,0,0,0,1.33.49,2.68,2.68,0,0,0,1.79-.63A2.57,2.57,0,0,0,470.36,615.05Z"/><path class="cls-1" d="M479.32,607.31a3.42,3.42,0,0,1,2.89,1.47,7.14,7.14,0,0,1,1.1,4.3,7.26,7.26,0,0,1-1.1,4.33,3.41,3.41,0,0,1-2.89,1.49,3.06,3.06,0,0,1-1.76-.47,3.29,3.29,0,0,1-1.09-1.11h-.14l-.13,1.36h-1.14V602.86h1.36v6.06A3.06,3.06,0,0,1,479.32,607.31Zm-2.15,9.22a2.29,2.29,0,0,0,2,1.15,2.32,2.32,0,0,0,2-1.16,6.38,6.38,0,0,0,.76-3.44,6.21,6.21,0,0,0-.76-3.39,2.31,2.31,0,0,0-2-1.15,2.27,2.27,0,0,0-2,1.15,6.22,6.22,0,0,0-.75,3.39A6.38,6.38,0,0,0,477.17,616.53Z"/><path class="cls-1" d="M486,618.68V602.86h1.36v15.82Z"/><path class="cls-1" d="M498.1,612.75a6.33,6.33,0,0,1,0,.65h-6.62q.07,4.33,2.77,4.34a2.35,2.35,0,0,0,2.45-2.11H498a3.66,3.66,0,0,1-1.26,2.46,4,4,0,0,1-2.52.81,3.62,3.62,0,0,1-3-1.41,6.83,6.83,0,0,1-1.11-4.25,7.29,7.29,0,0,1,1.13-4.42,3.55,3.55,0,0,1,3-1.51,3.42,3.42,0,0,1,2.79,1.33A6.43,6.43,0,0,1,498.1,612.75Zm-3.87-4.28a2.31,2.31,0,0,0-1.92,1,4.92,4.92,0,0,0-.85,2.8h5.31a5,5,0,0,0-.72-2.84A2.16,2.16,0,0,0,494.23,608.47Z"/><path class="cls-1" d="M359.94,645.42h-1.59l-1.6-2.21a4.5,4.5,0,0,1-3.86,2.43,3.28,3.28,0,0,1-2.43-.91,3.21,3.21,0,0,1-.91-2.38,4.46,4.46,0,0,1,.36-1.78,4.84,4.84,0,0,1,.76-1.3c.26-.31.63-.69,1.09-1.14l.73-.75-.33-.45c-.39-.53-.69-1-.89-1.29a6.28,6.28,0,0,1-.58-1.24,4.27,4.27,0,0,1-.27-1.46,3.35,3.35,0,0,1,.92-2.4,3.73,3.73,0,0,1,4.88-.06,3,3,0,0,1,.91,2.28,3.42,3.42,0,0,1-.48,1.83,10.84,10.84,0,0,1-1.55,1.85l-1,1,2.45,3.34L358,638h1.41l-2,4Zm-4.13-3.12.11-.22-2.67-3.66-.69.72a4.5,4.5,0,0,0-1.65,3.09,2.19,2.19,0,0,0,.58,1.55,1.94,1.94,0,0,0,1.51.64C354.09,644.42,355,643.71,355.81,642.3Zm-2.72-6.17.27.35.87-.89a4.09,4.09,0,0,0,1.58-2.85,1.84,1.84,0,0,0-.55-1.4,2.25,2.25,0,0,0-3,0,2.12,2.12,0,0,0-.57,1.57A5.7,5.7,0,0,0,353.09,636.13Z"/><path class="cls-1" d="M371.61,645.64a2.31,2.31,0,0,1-1.71-.59,2.21,2.21,0,0,1-.6-1.66v-7.95h-2.12v-1.16h.89a1.52,1.52,0,0,0,1-.31,1.49,1.49,0,0,0,.32-1.07v-1.52h1.25v2.9h2.47v1.16h-2.47v7.68c0,.9.42,1.34,1.27,1.34a3.31,3.31,0,0,0,1.05-.18v1.14A4.62,4.62,0,0,1,371.61,645.64Z"/><path class="cls-1" d="M376.34,645.42l-2.21-11.14h1.32l1.71,9.22h.14l2.2-8.35h1.58l2.17,8.38h.13l1.76-9.25h1.32l-2.23,11.14h-1.65l-2.23-8.51h-.14L378,645.42Z"/><path class="cls-1" d="M392.38,645.64a3.68,3.68,0,0,1-3.11-1.56,7,7,0,0,1-1.14-4.21,7.06,7.06,0,0,1,1.13-4.24,3.88,3.88,0,0,1,6.24,0,8.31,8.31,0,0,1,0,8.45A3.65,3.65,0,0,1,392.38,645.64Zm0-1.22a2.4,2.4,0,0,0,2.14-1.26,6.19,6.19,0,0,0,.78-3.29,6.26,6.26,0,0,0-.78-3.33,2.45,2.45,0,0,0-4.28,0,6.46,6.46,0,0,0-.75,3.34,6.35,6.35,0,0,0,.75,3.3A2.39,2.39,0,0,0,392.38,644.42Z"/><path class="cls-1" d="M407.29,644.11h5.88v1.31h-7.3v-15.6h1.42Z"/><path class="cls-1" d="M417,632a1,1,0,0,1-.72.29,1,1,0,0,1-.72-.29.94.94,0,0,1-.3-.71.93.93,0,0,1,.3-.71,1,1,0,0,1,.72-.27,1,1,0,0,1,.72.27,1,1,0,0,1,.29.71A1,1,0,0,1,417,632Zm-1.41,13.46V634.28H417v11.14Z"/><path class="cls-1" d="M420.06,645.42V634.28h1.2l.16,1.07h.13a3.13,3.13,0,0,1,2.61-1.29,3.05,3.05,0,0,1,2.32.94,3.66,3.66,0,0,1,.89,2.6v7.82H426v-7.55a2.77,2.77,0,0,0-.6-1.93,2,2,0,0,0-1.52-.66,2.35,2.35,0,0,0-1.75.72,3,3,0,0,0-.7,2.13v7.29Z"/><path class="cls-1" d="M431.85,632a1,1,0,0,1-.71.29,1,1,0,0,1-.73-.29.94.94,0,0,1-.3-.71.93.93,0,0,1,.3-.71,1,1,0,0,1,.73-.27,1,1,0,0,1,.71.27,1,1,0,0,1,.29.71A1,1,0,0,1,431.85,632Zm-1.4,13.46V634.28h1.36v11.14Z"/><path class="cls-1" d="M442.17,644.31h.27v1.11h-.63a1.43,1.43,0,0,1-1.56-1.14,3.37,3.37,0,0,1-2.9,1.36,3.09,3.09,0,0,1-2.21-.78,2.94,2.94,0,0,1-.84-2.27c0-2,1.2-3.19,3.61-3.57l2.14-.31v-1.18c0-1.53-.66-2.29-2-2.29s-2,.73-2.14,2.2h-1.36a3.6,3.6,0,0,1,1-2.49,3.88,3.88,0,0,1,4.93,0,3.22,3.22,0,0,1,.92,2.44v6.08C441.43,644,441.68,644.31,442.17,644.31Zm-2.12-2.52v-2l-1.85.26c-1.69.26-2.54,1.07-2.54,2.46a1.91,1.91,0,0,0,.52,1.44,1.88,1.88,0,0,0,1.33.5,2.67,2.67,0,0,0,1.79-.64A2.55,2.55,0,0,0,440.05,641.79Z"/><path class="cls-1" d="M461,640.83a5.55,5.55,0,0,1-1.56,3.59,4.68,4.68,0,0,1-3.32,1.22,4.49,4.49,0,0,1-3.89-2,10.22,10.22,0,0,1-1.42-5.93,10.66,10.66,0,0,1,1.43-6,4.76,4.76,0,0,1,7.09-.88,5.8,5.8,0,0,1,1.49,3.75h-1.49q-.45-3.62-3.21-3.61a3.18,3.18,0,0,0-2.85,1.77,10,10,0,0,0-1,5,9.36,9.36,0,0,0,1,4.91,3.29,3.29,0,0,0,5.08.84,4.32,4.32,0,0,0,1.13-2.63Z"/><path class="cls-1" d="M471,644.31h.27v1.11h-.63a1.44,1.44,0,0,1-1.56-1.14,3.35,3.35,0,0,1-2.89,1.36,3.13,3.13,0,0,1-2.22-.78,2.94,2.94,0,0,1-.84-2.27c0-2,1.21-3.19,3.61-3.57l2.14-.31v-1.18c0-1.53-.66-2.29-2-2.29s-2,.73-2.14,2.2h-1.36a3.57,3.57,0,0,1,1-2.49,3.35,3.35,0,0,1,2.46-.89,3.42,3.42,0,0,1,2.46.88,3.18,3.18,0,0,1,.92,2.44v6.08C470.22,644,470.47,644.31,471,644.31Zm-2.12-2.52v-2l-1.85.26c-1.69.26-2.54,1.07-2.54,2.46A1.87,1.87,0,0,0,465,644a1.85,1.85,0,0,0,1.32.5,2.71,2.71,0,0,0,1.8-.64A2.58,2.58,0,0,0,468.84,641.79Z"/><path class="cls-1" d="M475.91,632.12v2.16h2.36v1.16h-2.36v10h-1.38v-10h-2v-1.16h2v-2.36a2.19,2.19,0,0,1,.67-1.71,2.44,2.44,0,0,1,1.73-.61,3.41,3.41,0,0,1,1.43.29l-.29,1.07a2.5,2.5,0,0,0-.94-.18C476.32,630.78,475.91,631.22,475.91,632.12Z"/><path class="cls-1" d="M488,639.49c0,.26,0,.47,0,.65h-6.62q.06,4.35,2.76,4.35a2.52,2.52,0,0,0,1.58-.52,2.44,2.44,0,0,0,.87-1.6h1.34a3.67,3.67,0,0,1-1.27,2.46,3.93,3.93,0,0,1-2.52.81,3.63,3.63,0,0,1-3-1.41A6.87,6.87,0,0,1,480,640a7.32,7.32,0,0,1,1.12-4.42,3.56,3.56,0,0,1,3-1.5,3.45,3.45,0,0,1,2.8,1.32A6.47,6.47,0,0,1,488,639.49Zm-3.88-4.28a2.32,2.32,0,0,0-1.92,1,5,5,0,0,0-.84,2.79h5.3a4.88,4.88,0,0,0-.71-2.84A2.16,2.16,0,0,0,484.13,635.21Zm1.92-5.39-1.36,3.23h-1.14l1.25-3.23Z"/><path class="cls-1" d="M507,640.83a5.45,5.45,0,0,1-1.56,3.59,4.65,4.65,0,0,1-3.32,1.22,4.5,4.5,0,0,1-3.89-2,10.3,10.3,0,0,1-1.41-5.93,10.66,10.66,0,0,1,1.42-6,4.51,4.51,0,0,1,3.91-2.08,4.39,4.39,0,0,1,3.18,1.2,5.8,5.8,0,0,1,1.49,3.75H505.3q-.45-3.62-3.21-3.61a3.17,3.17,0,0,0-2.84,1.77,10,10,0,0,0-1,5,9.36,9.36,0,0,0,1.05,4.91,3.19,3.19,0,0,0,2.83,1.69,3.14,3.14,0,0,0,2.25-.85,4.26,4.26,0,0,0,1.14-2.63Z"/><path class="cls-1" d="M513.79,634.06a3,3,0,0,1,2.32.94,3.62,3.62,0,0,1,.89,2.6v7.82h-1.38v-7.55a2.77,2.77,0,0,0-.6-1.93,2,2,0,0,0-1.52-.66,2.35,2.35,0,0,0-1.75.72,3,3,0,0,0-.7,2.13v7.29h-1.36V629.6h1.36v5.75h.14A3.1,3.1,0,0,1,513.79,634.06Z"/><path class="cls-1" d="M527.34,644.31h.27v1.11H527a1.43,1.43,0,0,1-1.56-1.14,3.38,3.38,0,0,1-2.9,1.36,3.13,3.13,0,0,1-2.22-.78,2.93,2.93,0,0,1-.83-2.27c0-2,1.2-3.19,3.61-3.57l2.14-.31v-1.18c0-1.53-.67-2.29-2-2.29s-2,.73-2.14,2.2h-1.36a3.57,3.57,0,0,1,1-2.49,3.35,3.35,0,0,1,2.46-.89,3.4,3.4,0,0,1,2.46.88,3.19,3.19,0,0,1,.93,2.44v6.08C526.61,644,526.85,644.31,527.34,644.31Zm-2.11-2.52v-2l-1.85.26c-1.7.26-2.55,1.07-2.55,2.46a1.87,1.87,0,0,0,.53,1.44,1.85,1.85,0,0,0,1.32.5,2.71,2.71,0,0,0,1.8-.64A2.55,2.55,0,0,0,525.23,641.79Z"/><path class="cls-1" d="M531.33,632a1,1,0,0,1-.71.29,1,1,0,0,1-.73-.29.94.94,0,0,1-.3-.71.93.93,0,0,1,.3-.71,1.06,1.06,0,0,1,.73-.27,1,1,0,0,1,.71.27,1,1,0,0,1,.29.71A1,1,0,0,1,531.33,632Zm-1.4,13.46V634.28h1.36v11.14Z"/><path class="cls-1" d="M534.38,645.42V634.28h1.21l.15,1.25h.14a2.85,2.85,0,0,1,2.67-1.47H539v1.4a4.73,4.73,0,0,0-.73,0,2.26,2.26,0,0,0-1.82.86,3.86,3.86,0,0,0-.73,2.52v6.62Z"/><path class="cls-1" d="M544.19,645.64a3.54,3.54,0,0,1-2.6-.9,3.47,3.47,0,0,1-.94-2.46H542c.07,1.48.8,2.23,2.18,2.23a2.4,2.4,0,0,0,1.49-.44,1.48,1.48,0,0,0,.58-1.28,1.89,1.89,0,0,0-.35-1.1,2.72,2.72,0,0,0-.74-.74c-.25-.15-.58-.33-1-.54l-.74-.36-.91-.5a5.87,5.87,0,0,1-.76-.56,2.33,2.33,0,0,1-.67-.88,3.05,3.05,0,0,1-.2-1.14,2.61,2.61,0,0,1,1-2.12,3.46,3.46,0,0,1,2.31-.79,3,3,0,0,1,3.27,3.05h-1.33a2,2,0,0,0-.57-1.41,1.94,1.94,0,0,0-1.37-.51,2,2,0,0,0-1.37.48,1.58,1.58,0,0,0-.55,1.26,1.54,1.54,0,0,0,.48,1.18,5.41,5.41,0,0,0,1.37.87l.74.4a7,7,0,0,1,.92.48,8.19,8.19,0,0,1,.85.64,2.55,2.55,0,0,1,.73,1,3.13,3.13,0,0,1,.26,1.29,2.53,2.53,0,0,1-1,2.13A3.87,3.87,0,0,1,544.19,645.64Z"/></svg>