<svg id="Layer_2" data-name="Layer 2" xmlns="http://www.w3.org/2000/svg" xmlns:xlink="http://www.w3.org/1999/xlink" viewBox="0 0 586.1 955"><defs><style>.cls-1{isolation:isolate;}.cls-2{fill:#fff;}.cls-3{fill:#ce0e2d;}.cls-4{fill:url(#linear-gradient);}.cls-5{fill:url(#linear-gradient-2);}</style><linearGradient id="linear-gradient" x1="9.08" y1="956" x2="9.08" y2="653.46" gradientTransform="matrix(1, 0, 0, -1, -0.87, 956)" gradientUnits="userSpaceOnUse"><stop offset="0" stop-color="#fff" stop-opacity="0"/><stop offset="0.11" stop-color="#fff" stop-opacity="0.14"/><stop offset="0.4" stop-color="#fff" stop-opacity="0.5"/><stop offset="0.64" stop-color="#fff" stop-opacity="0.77"/><stop offset="0.81" stop-color="#fff" stop-opacity="0.94"/><stop offset="0.9" stop-color="#fff"/></linearGradient><linearGradient id="linear-gradient-2" x1="309.37" y1="1" x2="309.37" y2="661.83" gradientTransform="matrix(1, 0, 0, -1, -0.87, 956)" gradientUnits="userSpaceOnUse"><stop offset="0" stop-color="#fff" stop-opacity="0"/><stop offset="0.29" stop-color="#eda5b1" stop-opacity="0.37"/><stop offset="0.59" stop-color="#dc546a" stop-opacity="0.71"/><stop offset="0.79" stop-color="#d2213e" stop-opacity="0.92"/><stop offset="0.9" stop-color="#ce0e2d"/></linearGradient></defs><g class="cls-1"><path class="cls-2" d="M3.28,375.8v15.6H1.85V375.8Z" transform="translate(-0.87)"/><path class="cls-2" d="M14.73,375.8h1.39v15.6H14.47L8.34,378.63H8.2V391.4H6.82V375.8H8.49l6.11,12.72h.13Z" transform="translate(-0.87)"/><path class="cls-2" d="M27.28,387.72a3.64,3.64,0,0,1-1.12,2.93,4.28,4.28,0,0,1-2.91,1,4,4,0,0,1-3-1.11,4.93,4.93,0,0,1-1.18-3.37h1.42c.15,2.14,1.07,3.21,2.77,3.21a2.72,2.72,0,0,0,1.86-.63,2.49,2.49,0,0,0,.72-2c0-1.39-.84-2.57-2.54-3.55l-.87-.51c-.43-.24-.77-.44-1-.61a6.54,6.54,0,0,1-.92-.77,3.3,3.3,0,0,1-.79-1.21,4.29,4.29,0,0,1-.27-1.58,3.85,3.85,0,0,1,1.12-2.91,4,4,0,0,1,2.85-1.06,3.65,3.65,0,0,1,2.83,1.14,4.82,4.82,0,0,1,1.14,3.17H25.92c-.15-2-1-3-2.56-3a2.42,2.42,0,0,0-1.83.73,2.65,2.65,0,0,0-.69,1.91,3.22,3.22,0,0,0,.22,1.18,2.6,2.6,0,0,0,.66.92,5.13,5.13,0,0,0,.77.59c.22.14.51.3.87.49l.78.45a10.38,10.38,0,0,1,1,.58,8.64,8.64,0,0,1,1,.8,3.58,3.58,0,0,1,.91,1.38A5.17,5.17,0,0,1,27.28,387.72Z" transform="translate(-0.87)"/><path class="cls-2" d="M38.54,375.8v1.31H34.62V391.4H33.19V377.11H29.27V375.8Z" transform="translate(-0.87)"/><path class="cls-2" d="M47.14,391.4,46,386.81H41.24l-1.16,4.59H38.54l4.17-15.6h1.8l4.17,15.6Zm-5.59-5.84h4.1l-2-7.85h-.14Z" transform="translate(-0.87)"/><path class="cls-2" d="M55.61,383.51h4.75v7.89H59.25l-.18-1.47h-.13a4.27,4.27,0,0,1-3.59,1.69,4.45,4.45,0,0,1-3.86-2,10.06,10.06,0,0,1-1.38-5.79,10.72,10.72,0,0,1,1.49-6.18,4.73,4.73,0,0,1,4.06-2.12,4.46,4.46,0,0,1,3.14,1.13A5.31,5.31,0,0,1,60.32,380h-1.5a4,4,0,0,0-1.07-2.33,3,3,0,0,0-2.11-.79,3.37,3.37,0,0,0-3,1.75,9.75,9.75,0,0,0-1.1,5.16,9.25,9.25,0,0,0,1,4.86,3.24,3.24,0,0,0,2.89,1.65,3.41,3.41,0,0,0,2.47-1,4,4,0,0,0,1-3v-1.63H55.61Z" transform="translate(-0.87)"/><path class="cls-2" d="M72.18,391.4H70.62l-3-6.87H65.24v6.87h-1.4V375.8h3.94a3.81,3.81,0,0,1,3,1.17,4.47,4.47,0,0,1,1.07,3.13,4.74,4.74,0,0,1-.74,2.7,3.65,3.65,0,0,1-2,1.47Zm-6.94-14.33v6.19h2.3a2.64,2.64,0,0,0,2.08-.84,3.35,3.35,0,0,0,.75-2.3,3.16,3.16,0,0,0-.75-2.26,2.68,2.68,0,0,0-2.06-.79Z" transform="translate(-0.87)"/><path class="cls-2" d="M82.61,391.4l-1.16-4.59H76.7l-1.16,4.59H74l4.17-15.6H80l4.16,15.6ZM77,385.56h4.1l-2-7.85H79Z" transform="translate(-0.87)"/><path class="cls-2" d="M98.43,375.8v15.6H97.07V378.74h-.13l-3.61,10.88H91.66L88,378.74h-.16V391.4H86.48V375.8H88.4l4,12h.14l4-12Z" transform="translate(-0.87)"/><path class="cls-2" d="M113.21,383.51H118v7.89h-1.12l-.17-1.47h-.14a4.26,4.26,0,0,1-3.59,1.69,4.43,4.43,0,0,1-3.85-2,10.06,10.06,0,0,1-1.39-5.79,10.64,10.64,0,0,1,1.5-6.18,4.71,4.71,0,0,1,4-2.12,4.49,4.49,0,0,1,3.15,1.13,5.3,5.3,0,0,1,1.51,3.33h-1.49a4,4,0,0,0-1.07-2.33,3,3,0,0,0-2.12-.79,3.4,3.4,0,0,0-3,1.75,9.85,9.85,0,0,0-1.1,5.16,9.24,9.24,0,0,0,1,4.86,3.23,3.23,0,0,0,2.88,1.65,3.42,3.42,0,0,0,2.48-1,4,4,0,0,0,1-3v-1.63h-3.32Z" transform="translate(-0.87)"/><path class="cls-2" d="M122.86,375.8v15.6h-1.42V375.8Z" transform="translate(-0.87)"/><path class="cls-2" d="M133.94,375.8h1.52l-4.24,15.6h-1.8l-4.22-15.6h1.52l3.52,13.46h.16Z" transform="translate(-0.87)"/><path class="cls-2" d="M139.2,390.11h6.06v1.29H137.8V375.8H145v1.29H139.2v5.75h5.17v1.29H139.2Z" transform="translate(-0.87)"/><path class="cls-2" d="M155.76,391.4l-1.16-4.59h-4.75l-1.15,4.59h-1.54l4.17-15.6h1.8l4.17,15.6Zm-5.59-5.84h4.1l-2-7.85h-.13Z" transform="translate(-0.87)"/><path class="cls-2" d="M171.59,375.8H173l-2.83,15.6H168.4l-2.9-11.21h-.13l-2.88,11.21h-1.74l-2.83-15.6h1.43l2.27,13.33h.14l2.85-11.1h1.7l2.8,11.1h.14Z" transform="translate(-0.87)"/><path class="cls-2" d="M182.18,391.4,181,386.81h-4.75l-1.16,4.59h-1.54l4.17-15.6h1.8l4.17,15.6Zm-5.6-5.84h4.1l-2-7.85h-.14Z" transform="translate(-0.87)"/><path class="cls-2" d="M191.92,375.8h1.67l-4.35,7.93v7.67h-1.47v-7.67l-4.37-7.93h1.67l3.37,6.24h.11Z" transform="translate(-0.87)"/><path class="cls-2" d="M211.75,386.81a5.47,5.47,0,0,1-1.56,3.59,4.69,4.69,0,0,1-3.32,1.22,4.53,4.53,0,0,1-3.89-2,10.32,10.32,0,0,1-1.41-5.93,10.66,10.66,0,0,1,1.42-6,4.49,4.49,0,0,1,3.9-2.09,4.41,4.41,0,0,1,3.19,1.21,5.85,5.85,0,0,1,1.5,3.74h-1.5q-.45-3.61-3.21-3.61a3.17,3.17,0,0,0-2.84,1.77,10,10,0,0,0-1,5,9.36,9.36,0,0,0,1,4.91,3.19,3.19,0,0,0,2.83,1.69,3.14,3.14,0,0,0,2.25-.85,4.29,4.29,0,0,0,1.14-2.63Z" transform="translate(-0.87)"/><path class="cls-2" d="M219.38,391.62a4.72,4.72,0,0,1-4-2,12.62,12.62,0,0,1,0-12,4.9,4.9,0,0,1,8,0,12.6,12.6,0,0,1,0,12A4.7,4.7,0,0,1,219.38,391.62Zm0-1.33a3.38,3.38,0,0,0,2.92-1.7,11.79,11.79,0,0,0,0-10,3.4,3.4,0,0,0-5.88,0,11.7,11.7,0,0,0,0,10A3.42,3.42,0,0,0,219.38,390.29Z" transform="translate(-0.87)"/><path class="cls-2" d="M235.83,375.8h1.38v15.6h-1.65l-6.13-12.77h-.13V391.4h-1.39V375.8h1.68l6.1,12.72h.14Z" transform="translate(-0.87)"/><path class="cls-2" d="M249,375.8v1.31H245V391.4h-1.42V377.11h-3.93V375.8Z" transform="translate(-0.87)"/><path class="cls-2" d="M252.83,390.11h6.07v1.29h-7.47V375.8h7.24v1.29h-5.84v5.75H258v1.29h-5.18Z" transform="translate(-0.87)"/><path class="cls-2" d="M269.08,387.72a3.64,3.64,0,0,1-1.12,2.93,4.28,4.28,0,0,1-2.91,1,4,4,0,0,1-3-1.11,4.93,4.93,0,0,1-1.18-3.37h1.43q.21,3.21,2.76,3.21a2.72,2.72,0,0,0,1.86-.63,2.49,2.49,0,0,0,.72-2c0-1.39-.84-2.57-2.54-3.55l-.87-.51c-.43-.24-.77-.44-1-.61a6.54,6.54,0,0,1-.92-.77,3.3,3.3,0,0,1-.79-1.21,4.29,4.29,0,0,1-.27-1.58,3.85,3.85,0,0,1,1.12-2.91,4,4,0,0,1,2.85-1.06,3.65,3.65,0,0,1,2.83,1.14,4.82,4.82,0,0,1,1.14,3.17h-1.43c-.14-2-1-3-2.56-3a2.42,2.42,0,0,0-1.83.73,2.65,2.65,0,0,0-.69,1.91,3.22,3.22,0,0,0,.22,1.18,2.6,2.6,0,0,0,.66.92,5.13,5.13,0,0,0,.77.59c.22.14.51.3.87.49l.78.45a10.38,10.38,0,0,1,1,.58,8.64,8.64,0,0,1,1,.8,3.58,3.58,0,0,1,.91,1.38A5.17,5.17,0,0,1,269.08,387.72Z" transform="translate(-0.87)"/><path class="cls-2" d="M280.34,375.8v1.31h-3.92V391.4H275V377.11h-3.92V375.8Z" transform="translate(-0.87)"/></g><path class="cls-2" d="M79.49,272.42V348.5H62.64V272.42Z" transform="translate(-0.87)"/><path class="cls-2" d="M142.67,272.42H159V348.5H142.13l-30.88-46.43h-1V348.5H93.84V272.42h16.75l31.1,46.87h1Z" transform="translate(-0.87)"/><path class="cls-2" d="M189.87,334h37.29V348.5H173.44V272.42h52.63V287h-36.2v15.77h30.77V317H189.87Z" transform="translate(-0.87)"/><path class="cls-3" d="M290.45,294.17V348.5h-14.9l-1.41-6.31h-1q-5.86,7.4-16.09,7.4t-16-6.2q-5.82-6.19-5.82-17V294.17h16.31v28.92q0,6,3.1,9.19a10.62,10.62,0,0,0,8,3.21,11.24,11.24,0,0,0,8.21-3.26q3.31-3.27,3.32-9.46v-28.6Z" transform="translate(-0.87)"/><path class="cls-2" d="M359.76,531.18h35.13v9.32H349.63V471.66h10.13Z" transform="translate(-0.87)"/><path class="cls-2" d="M415.75,471.66V540.5H405.42V471.66Z" transform="translate(-0.87)"/><path class="cls-2" d="M478.71,471.66h10.14V540.5H478l-34.68-51h-.68v51H432.47V471.66h10.92L478,522.82h.69Z" transform="translate(-0.87)"/><path class="cls-2" d="M515.9,471.66V540.5H505.57V471.66Z" transform="translate(-0.87)"/><path class="cls-2" d="M575.82,540.5l-6.1-18H543l-6.1,18H525.74L550,471.63h12.69L587,540.5Zm-30-26.76h21l-10.14-30H556Z" transform="translate(-0.87)"/><path class="cls-2" d="M358.69,410v3.41h9.21v7.32h-9.21v28.93h-9.28V420.71H341.8v-7.32h7.61V409.5q0-5.52,3.3-8.41c2.2-1.94,5.13-2.9,8.81-2.9a22.26,22.26,0,0,1,7,1.23l-1.6,6.74a11.32,11.32,0,0,0-3.7-.58C360.19,405.56,358.69,407,358.69,410Z" transform="translate(-0.87)"/><path class="cls-2" d="M390,450.36A18.81,18.81,0,0,1,376.3,445a19.58,19.58,0,0,1,0-27.12,20.5,20.5,0,0,1,27.4,0,19.66,19.66,0,0,1,0,27.15A18.87,18.87,0,0,1,390,450.36Zm0-8a9.11,9.11,0,0,0,7.18-3.12,11.31,11.31,0,0,0,2.75-7.76,11.11,11.11,0,0,0-2.75-7.65,9.22,9.22,0,0,0-7.18-3.08,9.06,9.06,0,0,0-7.14,3.08,12.22,12.22,0,0,0,0,15.41,9.06,9.06,0,0,0,7.11,3.08Z" transform="translate(-0.87)"/><path class="cls-2" d="M415.82,449.64V413.39h8.41l.87,5.15h.58a13.09,13.09,0,0,1,4.2-4.46,12.79,12.79,0,0,1,6.6-1.41h2.61V422a23.44,23.44,0,0,0-3.92-.29c-3.62,0-6.21,1.07-7.75,3.22a13.08,13.08,0,0,0-2.32,7.87v16.89Z" transform="translate(-0.87)"/><path class="cls-2" d="M17.29,333.5h37.3v15H.87V272.6H17.29Z" transform="translate(-0.87)"/><path class="cls-3" d="M332.43,293.08A24.41,24.41,0,0,1,351,300.86q7.33,7.77,7.34,20.6,0,13.05-7.45,20.61a24.85,24.85,0,0,1-18.43,7.56q-9.26,0-14.9-5.11v31.34H301.22V294.17h13.26l1.42,5.65h1Q322.32,293.08,332.43,293.08Zm-11.59,38.55a12.17,12.17,0,0,0,17.2.58l.58-.58Q342,327.78,342,321.5a15.49,15.49,0,0,0-3.42-10.33,11.26,11.26,0,0,0-8.86-3.91,11,11,0,0,0-8.87,3.91q-3.31,3.91-3.31,10.33t3.33,10.13Z" transform="translate(-0.87)"/><polyline class="cls-4" points="0 302.54 0 0 16.42 0 16.42 302.54"/><polyline class="cls-5" points="316.66 321.91 316.66 955 300.34 955 300.34 294.17 316.66 294.17"/></svg>