<svg id="Layer_1" data-name="Layer 1" xmlns="http://www.w3.org/2000/svg" xmlns:xlink="http://www.w3.org/1999/xlink" viewBox="0 0 499.9 799"><defs><style>.cls-1{isolation:isolate;}.cls-2{fill:#fff;}.cls-3{fill:#ce0e2d;}.cls-4{fill:url(#linear-gradient);}.cls-5{fill:url(#linear-gradient-2);}</style><linearGradient id="linear-gradient" x1="7.75" y1="-8" x2="7.75" y2="132.4" gradientTransform="translate(-0.7 8)" gradientUnits="userSpaceOnUse"><stop offset="0" stop-color="#fff" stop-opacity="0"/><stop offset="0.11" stop-color="#fff" stop-opacity="0.14"/><stop offset="0.4" stop-color="#fff" stop-opacity="0.5"/><stop offset="0.64" stop-color="#fff" stop-opacity="0.77"/><stop offset="0.81" stop-color="#fff" stop-opacity="0.94"/><stop offset="0.9" stop-color="#fff"/></linearGradient><linearGradient id="linear-gradient-2" x1="263.9" y1="791" x2="263.9" y2="125.3" gradientTransform="translate(-0.7 8)" gradientUnits="userSpaceOnUse"><stop offset="0" stop-color="#fff" stop-opacity="0"/><stop offset="0.29" stop-color="#eda5b1" stop-opacity="0.37"/><stop offset="0.59" stop-color="#dc546a" stop-opacity="0.71"/><stop offset="0.79" stop-color="#d2213e" stop-opacity="0.92"/><stop offset="0.9" stop-color="#ce0e2d"/></linearGradient></defs><g id="Layer_5" data-name="Layer 5"><g class="cls-1"><path class="cls-2" d="M2.79,198.1v13.31H1.58V198.1Z" transform="translate(-0.7)"/><path class="cls-2" d="M12.57,198.1h1.17v13.31h-1.4L7.11,200.52H7v10.89H5.82V198.1H7.24L12.45,209h.12Z" transform="translate(-0.7)"/><path class="cls-2" d="M23.27,208.27a3.11,3.11,0,0,1-1,2.5,3.68,3.68,0,0,1-2.48.83,3.45,3.45,0,0,1-2.57-.95,4.19,4.19,0,0,1-1-2.87h1.22c.13,1.82.91,2.74,2.36,2.74a2.31,2.31,0,0,0,1.59-.55,2.09,2.09,0,0,0,.61-1.66c0-1.18-.72-2.19-2.16-3l-.75-.44c-.36-.2-.66-.38-.88-.52a6.24,6.24,0,0,1-.78-.66,2.79,2.79,0,0,1-.67-1,3.61,3.61,0,0,1-.23-1.35,3.23,3.23,0,0,1,1-2.48,3.34,3.34,0,0,1,2.43-.91,3.16,3.16,0,0,1,2.42,1,4.21,4.21,0,0,1,1,2.7H22.11q-.2-2.58-2.19-2.58a2.08,2.08,0,0,0-1.56.61,2.3,2.3,0,0,0-.59,1.63,2.75,2.75,0,0,0,.19,1,2.31,2.31,0,0,0,.57.79,3.93,3.93,0,0,0,.65.5l.74.42.67.38c.34.19.61.35.82.49a8,8,0,0,1,.81.69A3,3,0,0,1,23,206.7,4.35,4.35,0,0,1,23.27,208.27Z" transform="translate(-0.7)"/><path class="cls-2" d="M32.87,198.1v1.12H29.52v12.19H28.31V199.22H25V198.1Z" transform="translate(-0.7)"/><path class="cls-2" d="M40.21,211.41l-1-3.92h-4l-1,3.92H32.87l3.55-13.31H38l3.56,13.31Zm-4.78-5h3.5l-1.69-6.69h-.11Z" transform="translate(-0.7)"/><path class="cls-2" d="M47.43,204.68h4v6.73h-.95l-.15-1.25h-.12a3.62,3.62,0,0,1-3.06,1.44,3.82,3.82,0,0,1-3.29-1.67,8.63,8.63,0,0,1-1.18-5A9.07,9.07,0,0,1,44,199.72a4,4,0,0,1,3.46-1.81,3.81,3.81,0,0,1,2.68,1,4.47,4.47,0,0,1,1.29,2.84H50.17a3.46,3.46,0,0,0-.91-2,2.52,2.52,0,0,0-1.81-.68,2.89,2.89,0,0,0-2.56,1.5A8.39,8.39,0,0,0,44,205a7.86,7.86,0,0,0,.89,4.14,2.75,2.75,0,0,0,2.46,1.41,2.9,2.9,0,0,0,2.11-.84,3.43,3.43,0,0,0,.85-2.55v-1.38H47.43Z" transform="translate(-0.7)"/><path class="cls-2" d="M61.55,211.41H60.22l-2.51-5.86H55.64v5.86h-1.2V198.1h3.37a3.26,3.26,0,0,1,2.51,1,3.81,3.81,0,0,1,.91,2.67,4,4,0,0,1-.63,2.3,3,3,0,0,1-1.71,1.26Zm-5.91-12.22v5.28h2a2.26,2.26,0,0,0,1.78-.72,2.87,2.87,0,0,0,.63-2,2.74,2.74,0,0,0-.63-1.93,2.31,2.31,0,0,0-1.76-.67Z" transform="translate(-0.7)"/><path class="cls-2" d="M70.45,211.41l-1-3.92h-4l-1,3.92H63.11l3.56-13.31h1.54l3.55,13.31Zm-4.77-5h3.5l-1.69-6.69h-.12Z" transform="translate(-0.7)"/><path class="cls-2" d="M84,198.1v13.31H82.79v-10.8h-.12l-3.08,9.28H78.17l-3.12-9.28h-.13v10.8H73.76V198.1h1.63l3.42,10.25h.12l3.4-10.25Z" transform="translate(-0.7)"/><path class="cls-2" d="M96.55,204.68h4v6.73h-.95l-.15-1.25h-.12a3.62,3.62,0,0,1-3.06,1.44A3.82,3.82,0,0,1,93,209.93a8.64,8.64,0,0,1-1.17-5,9.08,9.08,0,0,1,1.27-5.26,4,4,0,0,1,3.46-1.81,3.81,3.81,0,0,1,2.68,1,4.47,4.47,0,0,1,1.29,2.84H99.29a3.4,3.4,0,0,0-.91-2,2.51,2.51,0,0,0-1.81-.68,2.89,2.89,0,0,0-2.56,1.5,8.39,8.39,0,0,0-.94,4.4,7.86,7.86,0,0,0,.89,4.14,2.76,2.76,0,0,0,2.46,1.41,2.9,2.9,0,0,0,2.11-.84,3.43,3.43,0,0,0,.85-2.55v-1.38H96.55Z" transform="translate(-0.7)"/><path class="cls-2" d="M104.78,198.1v13.31h-1.21V198.1Z" transform="translate(-0.7)"/><path class="cls-2" d="M114.23,198.1h1.29l-3.61,13.31h-1.54l-3.59-13.31h1.29l3,11.48h.14Z" transform="translate(-0.7)"/><path class="cls-2" d="M118.72,210.31h5.17v1.1h-6.37V198.1h6.18v1.11h-5v4.9h4.41v1.1h-4.41Z" transform="translate(-0.7)"/><path class="cls-2" d="M132.84,211.41l-1-3.92h-4l-1,3.92H125.5l3.56-13.31h1.54l3.55,13.31Zm-4.77-5h3.5l-1.69-6.69h-.12Z" transform="translate(-0.7)"/><path class="cls-2" d="M146.34,198.1h1.18l-2.42,13.31h-1.48l-2.47-9.56H141l-2.45,9.56H137.1l-2.41-13.31h1.21l1.94,11.37H138l2.43-9.47h1.44l2.4,9.47h.11Z" transform="translate(-0.7)"/><path class="cls-2" d="M155.37,211.41l-1-3.92h-4l-1,3.92H148l3.55-13.31h1.54l3.56,13.31Zm-4.77-5h3.49l-1.69-6.69h-.11Z" transform="translate(-0.7)"/><path class="cls-2" d="M163.68,198.1h1.42l-3.71,6.77v6.54h-1.25v-6.54l-3.73-6.77h1.43l2.87,5.33h.09Z" transform="translate(-0.7)"/><path class="cls-2" d="M180.59,207.49a4.64,4.64,0,0,1-1.33,3.06,4,4,0,0,1-2.83,1,3.85,3.85,0,0,1-3.32-1.71,8.81,8.81,0,0,1-1.2-5.06,9.1,9.1,0,0,1,1.21-5.14,3.84,3.84,0,0,1,3.33-1.78,3.74,3.74,0,0,1,2.72,1,5,5,0,0,1,1.27,3.19h-1.27c-.26-2-1.17-3.08-2.74-3.08a2.7,2.7,0,0,0-2.42,1.52,8.47,8.47,0,0,0-.89,4.26A7.93,7.93,0,0,0,174,209a2.72,2.72,0,0,0,2.41,1.44,2.69,2.69,0,0,0,1.92-.72,3.68,3.68,0,0,0,1-2.25Z" transform="translate(-0.7)"/><path class="cls-2" d="M187.1,211.6a4.05,4.05,0,0,1-3.42-1.74,10.82,10.82,0,0,1,0-10.21,4.19,4.19,0,0,1,6.8,0,10.76,10.76,0,0,1,0,10.2A4,4,0,0,1,187.1,211.6Zm0-1.14a2.88,2.88,0,0,0,2.49-1.45,10,10,0,0,0,0-8.51,2.89,2.89,0,0,0-5,0,9.91,9.91,0,0,0,0,8.51A2.9,2.9,0,0,0,187.1,210.46Z" transform="translate(-0.7)"/><path class="cls-2" d="M201.12,198.1h1.18v13.31h-1.4l-5.23-10.89h-.12v10.89h-1.17V198.1h1.42L201,209h.11Z" transform="translate(-0.7)"/><path class="cls-2" d="M212.32,198.1v1.12H209v12.19h-1.22V199.22h-3.35V198.1Z" transform="translate(-0.7)"/><path class="cls-2" d="M215.63,210.31h5.17v1.1h-6.37V198.1h6.18v1.11h-5v4.9H220v1.1h-4.41Z" transform="translate(-0.7)"/><path class="cls-2" d="M229.49,208.27a3.11,3.11,0,0,1-1,2.5,3.68,3.68,0,0,1-2.48.83,3.45,3.45,0,0,1-2.57-.95,4.19,4.19,0,0,1-1-2.87h1.22c.13,1.82.91,2.74,2.36,2.74a2.27,2.27,0,0,0,1.58-.55,2.06,2.06,0,0,0,.62-1.66c0-1.18-.72-2.19-2.17-3l-.74-.44c-.36-.2-.66-.38-.88-.52a6.24,6.24,0,0,1-.78-.66,3,3,0,0,1-.68-1,3.82,3.82,0,0,1-.22-1.35,3.23,3.23,0,0,1,.95-2.48,3.34,3.34,0,0,1,2.43-.91,3.13,3.13,0,0,1,2.41,1,4.1,4.1,0,0,1,1,2.7h-1.21q-.2-2.58-2.19-2.58a2.08,2.08,0,0,0-1.56.61,2.3,2.3,0,0,0-.59,1.63,2.75,2.75,0,0,0,.19,1,2.42,2.42,0,0,0,.56.79,4.4,4.4,0,0,0,.66.5l.74.42.67.38c.34.19.61.35.81.49a6.94,6.94,0,0,1,.82.69,3,3,0,0,1,.78,1.18A4.35,4.35,0,0,1,229.49,208.27Z" transform="translate(-0.7)"/><path class="cls-2" d="M239.09,198.1v1.12h-3.35v12.19h-1.21V199.22h-3.35V198.1Z" transform="translate(-0.7)"/></g><path class="cls-2" d="M67.8,114.7v64.9H53.4V114.7Z" transform="translate(-0.7)"/><path class="cls-2" d="M121.7,114.7h13.9v64.9H121.2L94.9,140h-.8v39.6h-14V114.7H94.4l26.5,40h.8Z" transform="translate(-0.7)"/><path class="cls-2" d="M162,167.2h31.8v12.4H148V114.7h44.9v12.4H162v13.4h26.2v12.1H162Z" transform="translate(-0.7)"/><path class="cls-3" d="M247.8,133.3v46.4H235.1l-1.2-5.4H233c-3.3,4.2-7.9,6.3-13.7,6.3s-10.4-1.8-13.7-5.3-5-8.3-5-14.5V133.2h13.9V158c0,3.4.9,6,2.6,7.8a9.19,9.19,0,0,0,6.8,2.7,9.35,9.35,0,0,0,7-2.8c1.9-1.9,2.8-4.5,2.8-8.1V133.2Z" transform="translate(-0.7)"/><path class="cls-2" d="M306.9,335.5h30v8H298.2V284.7h8.6Z" transform="translate(-0.7)"/><path class="cls-2" d="M354.6,284.7v58.8h-8.8V284.7Z" transform="translate(-0.7)"/><path class="cls-2" d="M408.4,284.7H417v58.8h-9.3l-29.5-43.6h-.6v43.6H369V284.7h9.3l29.5,43.6h.6Z" transform="translate(-0.7)"/><path class="cls-2" d="M440.1,284.7v58.8h-8.8V284.7Z" transform="translate(-0.7)"/><path class="cls-2" d="M491.2,343.5,486,328.1H463.2L458,343.5h-9.5l20.7-58.8H480l20.6,58.8Zm-25.6-22.9h18L474.9,295h-.7Z" transform="translate(-0.7)"/><path class="cls-2" d="M306,232.1V235h7.9v6.2H306v24.7h-7.9V241.2h-6.5V235h6.5v-3.3c0-3.1.9-5.5,2.8-7.2a11.34,11.34,0,0,1,7.5-2.5,17.13,17.13,0,0,1,5.9,1.1l-1.4,5.7a11.27,11.27,0,0,0-3.2-.5C307.3,228.3,306,229.6,306,232.1Z" transform="translate(-0.7)"/><path class="cls-2" d="M332.7,266.5A16.22,16.22,0,0,1,321,262a16.54,16.54,0,0,1,0-23.1,17.46,17.46,0,0,1,23.4,0,15.08,15.08,0,0,1,4.6,11.5,15.3,15.3,0,0,1-4.6,11.6A16,16,0,0,1,332.7,266.5Zm0-6.8a7.58,7.58,0,0,0,6.1-2.7,9.94,9.94,0,0,0,2.4-6.6,9.22,9.22,0,0,0-2.4-6.5,8.46,8.46,0,0,0-12.2,0,9.13,9.13,0,0,0-2.3,6.5,9.46,9.46,0,0,0,2.4,6.6A7.55,7.55,0,0,0,332.7,259.7Z" transform="translate(-0.7)"/><path class="cls-2" d="M354.7,265.9V235h7.2l.7,4.4h.5a11.86,11.86,0,0,1,3.6-3.8,10.91,10.91,0,0,1,5.6-1.2h2.2v7.9a18.29,18.29,0,0,0-3.3-.2c-3.1,0-5.3.9-6.6,2.8a10.79,10.79,0,0,0-2,6.7V266h-7.9Z" transform="translate(-0.7)"/><path class="cls-2" d="M14.8,166.9H46.6v12.8H.7V114.9h14Z" transform="translate(-0.7)"/><path class="cls-3" d="M283.6,132.4a20.92,20.92,0,0,1,15.8,6.6c4.2,4.4,6.3,10.3,6.3,17.6s-2.1,13.3-6.4,17.6a21,21,0,0,1-15.7,6.4c-5.3,0-9.5-1.5-12.7-4.4V203H257V133.3h11.3l1.2,4.8h.8C273.4,134.3,277.8,132.4,283.6,132.4Zm-9.9,32.8a10.4,10.4,0,0,0,15.2,0,14.65,14.65,0,0,0,0-17.5,10.4,10.4,0,0,0-15.2,0,12.75,12.75,0,0,0-2.8,8.8A12.34,12.34,0,0,0,273.7,165.2Z" transform="translate(-0.7)"/><polyline class="cls-4" points="0 140.4 0 0 14.1 0 14.1 140.4"/><polyline class="cls-5" points="270.2 157.7 270.2 799 256.2 799 256.2 133.3 270.2 133.3"/></g></svg>