<?xml version="1.0" encoding="utf-8"?>
<!-- Generator: Adobe Illustrator 26.0.1, SVG Export Plug-In . SVG Version: 6.00 Build 0)  -->
<svg version="1.1" id="Layer_1" xmlns="http://www.w3.org/2000/svg" xmlns:xlink="http://www.w3.org/1999/xlink" x="0px" y="0px"
	 viewBox="0 0 499.9 364" style="enable-background:new 0 0 499.9 364;" xml:space="preserve">
<style type="text/css">
	.st0{fill:#FFFFFF;}
	.st1{fill:#CE0E2D;}
	.st2{fill:url(#SVGID_1_);}
	.st3{fill:url(#SVGID_00000038391821868274620590000000810738382943359158_);}
</style>
<path class="st0" d="M67.1,67.7v64.9H52.7V67.7H67.1z"/>
<path class="st0" d="M121,67.7h13.9v64.9h-14.4L94.2,93.1h-0.8v39.6h-14V67.7h14.3l26.5,40h0.8V67.7z"/>
<path class="st0" d="M161.3,120.2h31.8v12.4h-45.8V67.7h44.9v12.4h-30.9v13.5h26.2v12.2h-26.2V120.2z"/>
<path class="st1" d="M247,86.3v46.4h-12.7l-1.2-5.4h-0.9c-3.3,4.2-7.9,6.3-13.7,6.3c-5.8,0-10.4-1.8-13.7-5.3c-3.3-3.5-5-8.3-5-14.5
	V86.3h13.9V111c0,3.4,0.9,6,2.6,7.8c1.8,1.8,4.3,2.8,6.8,2.7c2.6,0.1,5.1-0.9,7-2.8c1.9-1.9,2.8-4.5,2.8-8.1V86.3H247z"/>
<path class="st0" d="M306.2,288.5h30v8h-38.7v-58.8h8.6L306.2,288.5z"/>
<path class="st0" d="M353.9,237.7v58.8h-8.8v-58.8H353.9z"/>
<path class="st0" d="M407.6,237.7h8.6v58.8h-9.3l-29.5-43.6h-0.6v43.6h-8.6v-58.8h9.3l29.5,43.6h0.6L407.6,237.7z"/>
<path class="st0" d="M439.3,237.7v58.8h-8.8v-58.8H439.3z"/>
<path class="st0" d="M490.5,296.5l-5.2-15.4h-22.8l-5.2,15.4h-9.5l20.7-58.8h10.8l20.6,58.8H490.5z M464.9,273.6h18l-8.7-25.6h-0.7
	L464.9,273.6z"/>
<path class="st0" d="M305.3,185.1v2.9h7.9v6.2h-7.9v24.7h-7.9v-24.7h-6.5V188h6.5v-3.3c0-3.1,0.9-5.5,2.8-7.2
	c2.1-1.7,4.8-2.6,7.5-2.5c2,0,4,0.4,5.9,1.1l-1.4,5.7c-1-0.3-2.1-0.5-3.2-0.5C306.5,181.3,305.3,182.6,305.3,185.1z"/>
<path class="st0" d="M332,219.5c-4.4,0.1-8.6-1.5-11.7-4.5c-3.1-3-4.8-7.2-4.7-11.6c-0.1-4.3,1.6-8.5,4.7-11.5c6.6-6,16.7-6,23.4,0
	c3.1,3,4.8,7.2,4.6,11.5c0.2,4.3-1.5,8.6-4.6,11.6C340.5,218,336.3,219.7,332,219.5z M332,212.7c2.3,0.1,4.6-0.9,6.1-2.7
	c1.6-1.8,2.4-4.2,2.4-6.6c0.1-2.4-0.8-4.7-2.4-6.5c-1.5-1.7-3.8-2.7-6.1-2.6c-2.3-0.1-4.6,0.9-6.1,2.6c-1.6,1.8-2.4,4.1-2.3,6.5
	c-0.1,2.4,0.8,4.8,2.4,6.6C327.4,211.8,329.6,212.7,332,212.7z"/>
<path class="st0" d="M354,218.9V188h7.2l0.7,4.4h0.5c0.9-1.5,2.1-2.8,3.6-3.8c1.7-0.9,3.7-1.3,5.6-1.2h2.2v7.9
	c-1.1-0.2-2.2-0.2-3.3-0.2c-3.1,0-5.3,0.9-6.6,2.8c-1.4,2-2.1,4.3-2,6.7v14.4L354,218.9z"/>
<path class="st0" d="M14,119.9h31.8v12.8H0V67.9h14L14,119.9z"/>
<path class="st1" d="M282.8,85.4c6-0.2,11.7,2.3,15.8,6.6c4.2,4.4,6.3,10.3,6.3,17.6c0,7.4-2.1,13.3-6.4,17.6
	c-4.1,4.2-9.8,6.6-15.7,6.4c-5.3,0-9.5-1.5-12.7-4.4V156h-13.9V86.3h11.3l1.2,4.8h0.8C272.6,87.3,277.1,85.4,282.8,85.4z M273,118.2
	c1.9,2.2,4.7,3.4,7.6,3.3c2.9,0.1,5.7-1.1,7.6-3.3c2-2.4,3-5.5,2.9-8.7c0.2-3.2-0.9-6.3-2.9-8.8c-1.9-2.2-4.7-3.4-7.6-3.3
	c-2.9-0.1-5.7,1.1-7.6,3.3c-2,2.5-3,5.6-2.8,8.8C270,112.7,271,115.8,273,118.2z"/>
<linearGradient id="SVGID_1_" gradientUnits="userSpaceOnUse" x1="7.005" y1="366" x2="7.005" y2="296" gradientTransform="matrix(1 0 0 -1 0 366)">
	<stop  offset="0" style="stop-color:#FFFFFF;stop-opacity:0"/>
	<stop  offset="0.11" style="stop-color:#FFFFFF;stop-opacity:0.14"/>
	<stop  offset="0.4" style="stop-color:#FFFFFF;stop-opacity:0.5"/>
	<stop  offset="0.64" style="stop-color:#FFFFFF;stop-opacity:0.77"/>
	<stop  offset="0.81" style="stop-color:#FFFFFF;stop-opacity:0.94"/>
	<stop  offset="0.9" style="stop-color:#FFFFFF"/>
</linearGradient>
<polyline class="st2" points="0,70 0,0 14,0 14,70 "/>
<linearGradient id="SVGID_00000063619200654045269290000005660722021969246362_" gradientUnits="userSpaceOnUse" x1="263.16" y1="2" x2="263.16" y2="279.71" gradientTransform="matrix(1 0 0 -1 0 366)">
	<stop  offset="0" style="stop-color:#FFFFFF;stop-opacity:0"/>
	<stop  offset="0.29" style="stop-color:#EDA5B1;stop-opacity:0.37"/>
	<stop  offset="0.59" style="stop-color:#DC546A;stop-opacity:0.71"/>
	<stop  offset="0.79" style="stop-color:#D2213E;stop-opacity:0.92"/>
	<stop  offset="0.9" style="stop-color:#CE0E2D"/>
</linearGradient>
<polyline style="fill:url(#SVGID_00000063619200654045269290000005660722021969246362_);" points="270.1,110.7 270.1,364 256.2,364 
	256.2,86.3 270.1,86.3 "/>
</svg>
