<?xml version="1.0" encoding="utf-8"?>
<!-- Generator: Adobe Illustrator 25.4.1, SVG Export Plug-In . SVG Version: 6.00 Build 0)  -->
<svg version="1.1" id="Layer_1" xmlns="http://www.w3.org/2000/svg" xmlns:xlink="http://www.w3.org/1999/xlink" x="0px" y="0px"
	 viewBox="0 0 500.7 799" style="enable-background:new 0 0 500.7 799;" xml:space="preserve">
<style type="text/css">
	.st0{fill:#FFFFFF;}
	.st1{font-family:'Moderat-Condensed-Light';}
	.st2{font-size:19.01px;}
	.st3{fill:#CE0E2D;}
	.st4{fill:url(#SVGID_1_);}
	.st5{fill:url(#SVGID_00000173860874640061932990000017263709257799981220_);}
</style>
<g id="Layer_5">
	<text transform="matrix(1 0 0 1 0 211.41)" class="st0 st1 st2">INSTAGRAM GIVEAWAY CONTEST</text>
	<path class="st0" d="M67.8,114.7v64.9H53.4v-64.9H67.8z"/>
	<path class="st0" d="M121.7,114.7h13.9v64.9h-14.4l-26.3-39.6h-0.8v39.6h-14v-64.9h14.3l26.5,40h0.8V114.7z"/>
	<path class="st0" d="M162,167.2h31.8v12.4H148v-64.9h44.9v12.4H162v13.4h26.2v12.1H162V167.2z"/>
	<path class="st3" d="M247.8,133.3v46.4h-12.7l-1.2-5.4H233c-3.3,4.2-7.9,6.3-13.7,6.3c-5.8,0-10.4-1.8-13.7-5.3
		c-3.3-3.5-5-8.3-5-14.5v-27.6h13.9V158c0,3.4,0.9,6,2.6,7.8c1.8,1.8,4.3,2.8,6.8,2.7c2.6,0.1,5.1-0.9,7-2.8
		c1.9-1.9,2.8-4.5,2.8-8.1v-24.4L247.8,133.3z"/>
	<path class="st0" d="M306.9,335.5h30v8h-38.7v-58.8h8.6L306.9,335.5z"/>
	<path class="st0" d="M354.6,284.7v58.8h-8.8v-58.8H354.6z"/>
	<path class="st0" d="M408.4,284.7h8.6v58.8h-9.3l-29.5-43.6h-0.6v43.6h-8.6v-58.8h9.3l29.5,43.6h0.6L408.4,284.7z"/>
	<path class="st0" d="M440.1,284.7v58.8h-8.8v-58.8H440.1z"/>
	<path class="st0" d="M491.2,343.5l-5.2-15.4h-22.8l-5.2,15.4h-9.5l20.7-58.8H480l20.6,58.8H491.2z M465.6,320.6h18l-8.7-25.6h-0.7
		L465.6,320.6z"/>
	<path class="st0" d="M306,232.1v2.9h7.9v6.2H306v24.7h-7.9v-24.7h-6.5V235h6.5v-3.3c0-3.1,0.9-5.5,2.8-7.2c2.1-1.7,4.8-2.6,7.5-2.5
		c2,0,4,0.4,5.9,1.1l-1.4,5.7c-1-0.3-2.1-0.5-3.2-0.5C307.3,228.3,306,229.6,306,232.1z"/>
	<path class="st0" d="M332.7,266.5c-4.4,0.1-8.6-1.5-11.7-4.5c-3.1-3-4.8-7.2-4.7-11.6c-0.1-4.3,1.6-8.5,4.7-11.5
		c6.6-6,16.7-6,23.4,0c3.1,3,4.8,7.2,4.6,11.5c0.2,4.3-1.5,8.6-4.6,11.6C341.3,265,337,266.7,332.7,266.5z M332.7,259.7
		c2.3,0.1,4.6-0.9,6.1-2.7c1.6-1.8,2.4-4.2,2.4-6.6c0.1-2.4-0.8-4.7-2.4-6.5c-1.5-1.7-3.8-2.7-6.1-2.6c-2.3-0.1-4.6,0.9-6.1,2.6
		c-1.6,1.8-2.4,4.1-2.3,6.5c-0.1,2.4,0.8,4.8,2.4,6.6C328.1,258.8,330.4,259.7,332.7,259.7z"/>
	<path class="st0" d="M354.7,265.9V235h7.2l0.7,4.4h0.5c0.9-1.5,2.1-2.8,3.6-3.8c1.7-0.9,3.7-1.3,5.6-1.2h2.2v7.9
		c-1.1-0.2-2.2-0.2-3.3-0.2c-3.1,0-5.3,0.9-6.6,2.8c-1.4,2-2.1,4.3-2,6.7v14.4H354.7z"/>
	<path class="st0" d="M14.8,166.9h31.8v12.8H0.7v-64.8h14L14.8,166.9z"/>
	<path class="st3" d="M283.6,132.4c6-0.2,11.7,2.3,15.8,6.6c4.2,4.4,6.3,10.3,6.3,17.6c0,7.4-2.1,13.3-6.4,17.6
		c-4.1,4.2-9.8,6.6-15.7,6.4c-5.3,0-9.5-1.5-12.7-4.4V203h-13.9v-69.7h11.3l1.2,4.8h0.8C273.4,134.3,277.8,132.4,283.6,132.4z
		 M273.7,165.2c1.9,2.2,4.7,3.4,7.6,3.3c2.9,0.1,5.7-1.1,7.6-3.3c2-2.4,3-5.5,2.9-8.7c0.2-3.2-0.9-6.3-2.9-8.8
		c-1.9-2.2-4.7-3.4-7.6-3.3c-2.9-0.1-5.7,1.1-7.6,3.3c-2,2.5-3,5.6-2.8,8.8C270.7,159.7,271.7,162.8,273.7,165.2z"/>
	
		<linearGradient id="SVGID_1_" gradientUnits="userSpaceOnUse" x1="7.745" y1="800" x2="7.745" y2="659.56" gradientTransform="matrix(1 0 0 -1 0 800)">
		<stop  offset="0" style="stop-color:#FFFFFF;stop-opacity:0"/>
		<stop  offset="0.11" style="stop-color:#FFFFFF;stop-opacity:0.14"/>
		<stop  offset="0.4" style="stop-color:#FFFFFF;stop-opacity:0.5"/>
		<stop  offset="0.64" style="stop-color:#FFFFFF;stop-opacity:0.77"/>
		<stop  offset="0.81" style="stop-color:#FFFFFF;stop-opacity:0.94"/>
		<stop  offset="0.9" style="stop-color:#FFFFFF"/>
	</linearGradient>
	<polyline class="st4" points="0.7,140.4 0.7,0 14.8,0 14.8,140.4 	"/>
	
		<linearGradient id="SVGID_00000056405197964349751010000010039965167159747979_" gradientUnits="userSpaceOnUse" x1="263.9" y1="1" x2="263.9" y2="666.71" gradientTransform="matrix(1 0 0 -1 0 800)">
		<stop  offset="0" style="stop-color:#FFFFFF;stop-opacity:0"/>
		<stop  offset="0.29" style="stop-color:#EDA5B1;stop-opacity:0.37"/>
		<stop  offset="0.59" style="stop-color:#DC546A;stop-opacity:0.71"/>
		<stop  offset="0.79" style="stop-color:#D2213E;stop-opacity:0.92"/>
		<stop  offset="0.9" style="stop-color:#CE0E2D"/>
	</linearGradient>
	<polyline style="fill:url(#SVGID_00000056405197964349751010000010039965167159747979_);" points="270.9,157.7 270.9,799 
		256.9,799 256.9,133.3 270.9,133.3 	"/>
</g>
</svg>
