<?xml version="1.0" encoding="utf-8"?>
<!-- Generator: Adobe Illustrator 25.4.1, SVG Export Plug-In . SVG Version: 6.00 Build 0)  -->
<svg version="1.1" id="Layer_2_00000032649479260977087480000000602713538885394825_"
	 xmlns="http://www.w3.org/2000/svg" xmlns:xlink="http://www.w3.org/1999/xlink" x="0px" y="0px" viewBox="0 0 586.1 955"
	 style="enable-background:new 0 0 586.1 955;" xml:space="preserve">
<style type="text/css">
	.st0{fill:#FFFFFF;}
	.st1{fill:#CE0E2D;}
	.st2{fill:url(#SVGID_1_);}
	.st3{fill:url(#SVGID_00000099643215425390020610000014701336623894310280_);}
	.st4{font-family:'Moderat-Condensed-Light';}
	.st5{font-size:22.2857px;}
</style>
<g>
	<path class="st0" d="M2.4,375.8v15.6H1v-15.6H2.4z"/>
	<path class="st0" d="M13.9,375.8h1.4v15.6h-1.6l-6.1-12.8H7.3v12.8H6v-15.6h1.7l6.1,12.7h0.1L13.9,375.8z"/>
	<path class="st0" d="M26.4,387.7c0.1,1.1-0.3,2.2-1.1,2.9c-0.8,0.7-1.8,1-2.9,1c-1.1,0.1-2.2-0.3-3-1.1c-0.8-0.9-1.2-2.1-1.2-3.4
		h1.4c0.1,2.1,1.1,3.2,2.8,3.2c0.7,0,1.3-0.2,1.9-0.6c0.5-0.5,0.8-1.3,0.7-2c0-1.4-0.8-2.6-2.5-3.5l-0.9-0.5c-0.4-0.2-0.8-0.4-1-0.6
		c-0.3-0.2-0.6-0.5-0.9-0.8c-0.3-0.3-0.6-0.8-0.8-1.2c-0.2-0.5-0.3-1-0.3-1.6c-0.1-1.1,0.4-2.1,1.1-2.9c0.8-0.7,1.8-1.1,2.9-1.1
		c1.1-0.1,2.1,0.4,2.8,1.1c0.7,0.9,1.2,2,1.1,3.2H25c-0.1-2-1-3-2.6-3c-0.7,0-1.4,0.2-1.8,0.7c-0.5,0.5-0.7,1.2-0.7,1.9
		c0,0.4,0.1,0.8,0.2,1.2c0.1,0.4,0.4,0.7,0.7,0.9c0.2,0.2,0.5,0.4,0.8,0.6c0.2,0.1,0.5,0.3,0.9,0.5l0.8,0.5c0.3,0.2,0.7,0.4,1,0.6
		c0.4,0.2,0.7,0.5,1,0.8c0.4,0.4,0.7,0.9,0.9,1.4C26.4,386.5,26.4,387.1,26.4,387.7z"/>
	<path class="st0" d="M37.7,375.8v1.3h-3.9v14.3h-1.4v-14.3h-3.9v-1.3H37.7z"/>
	<path class="st0" d="M46.3,391.4l-1.1-4.6h-4.8l-1.2,4.6h-1.5l4.2-15.6h1.8l4.2,15.6H46.3z M40.7,385.6h4.1l-2-7.9h-0.1L40.7,385.6
		z"/>
	<path class="st0" d="M54.7,383.5h4.8v7.9h-1.1l-0.2-1.5h-0.1c-0.8,1.1-2.2,1.8-3.6,1.7c-1.5,0-3-0.7-3.9-2c-1-1.7-1.5-3.8-1.4-5.8
		c-0.1-2.2,0.4-4.3,1.5-6.2c0.9-1.4,2.4-2.2,4.1-2.1c1.2,0,2.3,0.4,3.1,1.1c0.9,0.9,1.4,2.1,1.5,3.3H58c-0.1-0.9-0.5-1.7-1.1-2.3
		c-0.6-0.5-1.3-0.8-2.1-0.8c-1.2,0-2.4,0.7-3,1.8c-0.8,1.6-1.2,3.4-1.1,5.2c-0.1,1.7,0.2,3.4,1,4.9c0.6,1,1.7,1.7,2.9,1.6
		c0.9,0,1.8-0.3,2.5-1c0.7-0.8,1.1-1.9,1-3v-1.6h-3.3V383.5z"/>
	<path class="st0" d="M71.3,391.4h-1.6l-3-6.9h-2.4v6.9H63v-15.6h3.9c1.1-0.1,2.2,0.4,3,1.2c0.7,0.9,1.1,2,1.1,3.1
		c0,1-0.2,1.9-0.7,2.7c-0.5,0.7-1.2,1.2-2,1.5L71.3,391.4z M64.4,377.1v6.2h2.3c0.8,0,1.5-0.3,2.1-0.8c0.5-0.6,0.8-1.5,0.8-2.3
		c0.1-0.8-0.2-1.6-0.8-2.3c-0.5-0.5-1.3-0.8-2.1-0.8H64.4z"/>
	<path class="st0" d="M81.7,391.4l-1.2-4.6h-4.8l-1.2,4.6h-1.5l4.2-15.6h1.8l4.2,15.6H81.7z M76.1,385.6h4.1l-2-7.9h-0.1L76.1,385.6
		z"/>
	<path class="st0" d="M97.6,375.8v15.6h-1.4v-12.7h-0.1l-3.6,10.9h-1.7l-3.7-10.9H87v12.7h-1.4v-15.6h1.9l4,12h0.1l4-12H97.6z"/>
	<path class="st0" d="M112.3,383.5h4.8v7.9H116l-0.2-1.5h-0.1c-0.8,1.1-2.2,1.8-3.6,1.7c-1.5,0.1-3-0.7-3.8-2
		c-1-1.7-1.5-3.8-1.4-5.8c-0.1-2.2,0.4-4.3,1.5-6.2c0.9-1.3,2.4-2.1,4-2.1c1.2,0,2.3,0.4,3.2,1.1c0.9,0.9,1.4,2.1,1.5,3.3h-1.5
		c-0.1-0.9-0.5-1.7-1.1-2.3c-0.6-0.5-1.3-0.8-2.1-0.8c-1.2,0-2.4,0.7-3,1.8c-0.8,1.6-1.2,3.4-1.1,5.2c-0.1,1.7,0.2,3.4,1,4.9
		c0.6,1,1.7,1.7,2.9,1.6c0.9,0,1.8-0.3,2.5-1c0.7-0.8,1.1-1.9,1-3v-1.6h-3.3L112.3,383.5z"/>
	<path class="st0" d="M122,375.8v15.6h-1.4v-15.6H122z"/>
	<path class="st0" d="M133.1,375.8h1.5l-4.2,15.6h-1.8l-4.2-15.6h1.5l3.5,13.5h0.2L133.1,375.8z"/>
	<path class="st0" d="M138.3,390.1h6.1v1.3h-7.5v-15.6h7.2v1.3h-5.8v5.8h5.2v1.3h-5.2V390.1z"/>
	<path class="st0" d="M154.9,391.4l-1.2-4.6H149l-1.1,4.6h-1.5l4.2-15.6h1.8l4.2,15.6H154.9z M149.3,385.6h4.1l-2-7.9h-0.1
		L149.3,385.6z"/>
	<path class="st0" d="M170.7,375.8h1.4l-2.8,15.6h-1.8l-2.9-11.2h-0.1l-2.9,11.2h-1.7l-2.8-15.6h1.4l2.3,13.3h0.1l2.9-11.1h1.7
		l2.8,11.1h0.1L170.7,375.8z"/>
	<path class="st0" d="M181.3,391.4l-1.2-4.6h-4.8l-1.2,4.6h-1.5l4.2-15.6h1.8l4.2,15.6H181.3z M175.7,385.6h4.1l-2-7.9h-0.1
		L175.7,385.6z"/>
	<path class="st0" d="M191.1,375.8h1.7l-4.4,7.9v7.7h-1.5v-7.7l-4.4-7.9h1.7l3.4,6.2h0.1L191.1,375.8z"/>
	<path class="st0" d="M210.9,386.8c-0.1,1.3-0.6,2.6-1.6,3.6c-0.9,0.8-2.1,1.3-3.3,1.2c-1.6,0-3-0.7-3.9-2c-1.1-1.8-1.5-3.9-1.4-5.9
		c-0.1-2.1,0.4-4.2,1.4-6c0.8-1.3,2.3-2.1,3.9-2.1c1.2,0,2.3,0.4,3.2,1.2c0.9,1,1.5,2.4,1.5,3.7h-1.5c-0.3-2.4-1.4-3.6-3.2-3.6
		c-1.2,0-2.3,0.7-2.8,1.8c-0.8,1.6-1.1,3.3-1,5c-0.1,1.7,0.2,3.4,1,4.9c0.6,1,1.6,1.7,2.8,1.7c0.8,0,1.6-0.3,2.2-0.9
		c0.7-0.7,1.1-1.6,1.1-2.6L210.9,386.8z"/>
	<path class="st0" d="M218.5,391.6c-1.6,0-3.1-0.7-4-2c-2-3.7-2-8.3,0-12c1.6-2.2,4.6-2.7,6.8-1.2c0.5,0.3,0.8,0.7,1.2,1.2
		c2,3.7,2,8.3,0,12C221.6,390.9,220.1,391.7,218.5,391.6z M218.5,390.3c1.2,0,2.3-0.7,2.9-1.7c1.5-3.2,1.5-6.8,0-10
		c-0.9-1.6-3-2.2-4.6-1.2c-0.5,0.3-0.9,0.7-1.2,1.2c-1.5,3.2-1.5,6.8,0,10C216.2,389.6,217.3,390.3,218.5,390.3z"/>
	<path class="st0" d="M235,375.8h1.4v15.6h-1.6l-6.1-12.8h-0.1v12.8H227v-15.6h1.7l6.1,12.7h0.1V375.8z"/>
	<path class="st0" d="M248.1,375.8v1.3h-4v14.3h-1.4v-14.3h-3.9v-1.3H248.1z"/>
	<path class="st0" d="M252,390.1h6.1v1.3h-7.5v-15.6h7.2v1.3H252v5.8h5.2v1.3H252L252,390.1z"/>
	<path class="st0" d="M268.2,387.7c0.1,1.1-0.3,2.2-1.1,2.9c-0.8,0.7-1.8,1-2.9,1c-1.1,0.1-2.2-0.3-3-1.1c-0.8-0.9-1.2-2.1-1.2-3.4
		h1.4c0.1,2.1,1.1,3.2,2.8,3.2c0.7,0,1.3-0.2,1.9-0.6c0.5-0.5,0.8-1.3,0.7-2c0-1.4-0.8-2.6-2.5-3.5l-0.9-0.5c-0.4-0.2-0.8-0.4-1-0.6
		c-0.3-0.2-0.6-0.5-0.9-0.8c-0.3-0.3-0.6-0.8-0.8-1.2c-0.2-0.5-0.3-1-0.3-1.6c-0.1-1.1,0.4-2.1,1.1-2.9c0.8-0.7,1.8-1.1,2.9-1.1
		c1.1-0.1,2.1,0.4,2.8,1.1c0.7,0.9,1.2,2,1.1,3.2h-1.4c-0.1-2-1-3-2.6-3c-0.7,0-1.4,0.2-1.8,0.7c-0.5,0.5-0.7,1.2-0.7,1.9
		c0,0.4,0.1,0.8,0.2,1.2c0.1,0.4,0.4,0.7,0.7,0.9c0.2,0.2,0.5,0.4,0.8,0.6c0.2,0.1,0.5,0.3,0.9,0.5l0.8,0.5c0.3,0.2,0.7,0.4,1,0.6
		c0.4,0.2,0.7,0.5,1,0.8c0.4,0.4,0.7,0.9,0.9,1.4C268.2,386.5,268.3,387.1,268.2,387.7z"/>
	<path class="st0" d="M279.5,375.8v1.3h-3.9v14.3h-1.4v-14.3h-3.9v-1.3H279.5z"/>
</g>
<path class="st0" d="M78.6,272.4v76.1H61.8v-76.1H78.6z"/>
<path class="st0" d="M141.8,272.4h16.3v76.1h-16.9l-30.9-46.4h-1v46.4H93v-76.1h16.8l31.1,46.9h1L141.8,272.4z"/>
<path class="st0" d="M189,334h37.3v14.5h-53.7v-76.1h52.6V287H189v15.8h30.8V317H189V334z"/>
<path class="st1" d="M289.6,294.2v54.3h-14.9l-1.4-6.3h-1c-3.9,4.9-9.3,7.4-16.1,7.4c-6.8,0-12.2-2.1-16-6.2
	c-3.9-4.1-5.8-9.8-5.8-17v-32.2h16.3v28.9c0,4,1,7.1,3.1,9.2c2.1,2.2,5,3.3,8,3.2c3.1,0.1,6-1.1,8.2-3.3c2.2-2.2,3.3-5.3,3.3-9.5
	v-28.6H289.6z"/>
<path class="st0" d="M358.9,531.2H394v9.3h-45.3v-68.8h10.1V531.2z"/>
<path class="st0" d="M414.9,471.7v68.8h-10.3v-68.8H414.9z"/>
<path class="st0" d="M477.8,471.7H488v68.8h-10.9l-34.7-51h-0.7v51h-10.2v-68.8h10.9l34.6,51.2h0.7L477.8,471.7z"/>
<path class="st0" d="M515,471.7v68.8h-10.3v-68.8H515z"/>
<path class="st0" d="M575,540.5l-6.1-18h-26.7l-6.1,18h-11.2l24.3-68.9h12.7l24.3,68.9H575z M545,513.7h21l-10.1-30h-0.7L545,513.7z
	"/>
<path class="st0" d="M357.8,410v3.4h9.2v7.3h-9.2v28.9h-9.3v-29h-7.6v-7.3h7.6v-3.9c0-3.7,1.1-6.5,3.3-8.4c2.2-1.9,5.1-2.9,8.8-2.9
	c2.4,0,4.7,0.4,7,1.2l-1.6,6.7c-1.2-0.4-2.4-0.6-3.7-0.6C359.3,405.6,357.8,407,357.8,410z"/>
<path class="st0" d="M389.1,450.4c-5.1,0.1-10.1-1.8-13.7-5.4c-7.3-7.6-7.3-19.5,0-27.1c7.8-7,19.6-7,27.4,0
	c7.3,7.6,7.3,19.6,0,27.1C399.2,448.6,394.2,450.5,389.1,450.4z M389.1,442.4c2.7,0.1,5.4-1.1,7.2-3.1c1.9-2.1,2.8-4.9,2.8-7.8
	c0.1-2.8-0.9-5.5-2.8-7.6c-1.8-2-4.4-3.2-7.2-3.1c-2.7-0.1-5.3,1-7.1,3.1c-3.6,4.5-3.6,10.9,0,15.4
	C383.8,441.3,386.4,442.4,389.1,442.4L389.1,442.4z"/>
<path class="st0" d="M415,449.6v-36.2h8.4l0.9,5.1h0.6c1-1.8,2.5-3.3,4.2-4.5c2-1.1,4.3-1.5,6.6-1.4h2.6v9.3
	c-1.3-0.2-2.6-0.3-3.9-0.3c-3.6,0-6.2,1.1-7.8,3.2c-1.6,2.3-2.4,5.1-2.3,7.9v16.9L415,449.6z"/>
<path class="st0" d="M16.4,333.5h37.3v15H0v-75.9h16.4V333.5z"/>
<path class="st1" d="M331.6,293.1c7-0.2,13.8,2.6,18.6,7.8c4.9,5.2,7.3,12,7.3,20.6c0,8.7-2.5,15.6-7.5,20.6
	c-4.8,5-11.5,7.7-18.4,7.6c-6.2,0-11.1-1.7-14.9-5.1v31.3h-16.3v-81.7h13.3l1.4,5.6h1C319.6,295.3,324.8,293.1,331.6,293.1z
	 M320,331.6c4.6,4.9,12.3,5.2,17.2,0.6l0.6-0.6c2.3-2.6,3.4-5.9,3.4-10.1c0.1-3.7-1.1-7.4-3.4-10.3c-2.2-2.6-5.5-4-8.9-3.9
	c-3.4-0.1-6.7,1.3-8.9,3.9c-2.2,2.6-3.3,6-3.3,10.3S317.8,329.2,320,331.6L320,331.6z"/>
<linearGradient id="SVGID_1_" gradientUnits="userSpaceOnUse" x1="9.08" y1="-164" x2="9.08" y2="138.54" gradientTransform="matrix(1 0 0 1 -0.87 164)">
	<stop  offset="0" style="stop-color:#FFFFFF;stop-opacity:0"/>
	<stop  offset="0.11" style="stop-color:#FFFFFF;stop-opacity:0.14"/>
	<stop  offset="0.4" style="stop-color:#FFFFFF;stop-opacity:0.5"/>
	<stop  offset="0.64" style="stop-color:#FFFFFF;stop-opacity:0.77"/>
	<stop  offset="0.81" style="stop-color:#FFFFFF;stop-opacity:0.94"/>
	<stop  offset="0.9" style="stop-color:#FFFFFF"/>
</linearGradient>
<polyline class="st2" points="0,302.5 0,0 16.4,0 16.4,302.5 "/>
<linearGradient id="SVGID_00000176041245494025472000000013446693638222598332_" gradientUnits="userSpaceOnUse" x1="309.37" y1="791" x2="309.37" y2="130.17" gradientTransform="matrix(1 0 0 1 -0.87 164)">
	<stop  offset="0" style="stop-color:#FFFFFF;stop-opacity:0"/>
	<stop  offset="0.29" style="stop-color:#EDA5B1;stop-opacity:0.37"/>
	<stop  offset="0.59" style="stop-color:#DC546A;stop-opacity:0.71"/>
	<stop  offset="0.79" style="stop-color:#D2213E;stop-opacity:0.92"/>
	<stop  offset="0.9" style="stop-color:#CE0E2D"/>
</linearGradient>
<polyline style="fill:url(#SVGID_00000176041245494025472000000013446693638222598332_);" points="316.7,321.9 316.7,955 300.3,955 
	300.3,294.2 316.7,294.2 "/>
<g>
	<text transform="matrix(1 0 0 1 348.1465 591.9353)"><tspan x="0" y="0" class="st0 st4 st5">Get in line to win </tspan><tspan x="0" y="26.7" class="st0 st4 st5">a Linia Side Table </tspan><tspan x="0" y="53.5" class="st0 st4 st5">&amp; two Linia Café Chairs</tspan></text>
</g>
</svg>
