<svg xmlns="http://www.w3.org/2000/svg" xmlns:xlink="http://www.w3.org/1999/xlink" viewBox="0 0 499.93 364"><defs><style>.cls-1{fill:#fff;}.cls-2{fill:#ce0e2d;}.cls-3{fill:url(#linear-gradient);}.cls-4{fill:url(#linear-gradient-2);}</style><linearGradient id="linear-gradient" x1="7" x2="7" y2="70" gradientUnits="userSpaceOnUse"><stop offset="0" stop-color="#fff" stop-opacity="0"/><stop offset="0.11" stop-color="#fff" stop-opacity="0.14"/><stop offset="0.4" stop-color="#fff" stop-opacity="0.5"/><stop offset="0.64" stop-color="#fff" stop-opacity="0.77"/><stop offset="0.81" stop-color="#fff" stop-opacity="0.94"/><stop offset="0.9" stop-color="#fff"/></linearGradient><linearGradient id="linear-gradient-2" x1="263.16" y1="364" x2="263.16" y2="86.29" gradientUnits="userSpaceOnUse"><stop offset="0" stop-color="#fff" stop-opacity="0"/><stop offset="0.29" stop-color="#eda5b1" stop-opacity="0.37"/><stop offset="0.59" stop-color="#dc546a" stop-opacity="0.71"/><stop offset="0.79" stop-color="#d2213e" stop-opacity="0.92"/><stop offset="0.9" stop-color="#ce0e2d"/></linearGradient></defs><g id="Layer_2" data-name="Layer 2"><g id="Layer_5" data-name="Layer 5"><path class="cls-1" d="M2.79,151.1v13.31H1.58V151.1Z" transform="translate(-0.74)"/><path class="cls-1" d="M12.79,151.1H14v13.31h-1.4L7.34,153.52H7.22v10.89H6.05V151.1H7.47L12.68,162h.11Z" transform="translate(-0.74)"/><path class="cls-1" d="M23.86,161.27a3.11,3.11,0,0,1-1,2.5,3.68,3.68,0,0,1-2.48.83,3.45,3.45,0,0,1-2.57-.95,4.19,4.19,0,0,1-1-2.87h1.22c.13,1.82.91,2.74,2.36,2.74A2.31,2.31,0,0,0,22,163a2.1,2.1,0,0,0,.62-1.67c0-1.18-.72-2.18-2.16-3l-.75-.44c-.36-.2-.66-.38-.88-.52a6.24,6.24,0,0,1-.78-.66,2.79,2.79,0,0,1-.67-1,3.61,3.61,0,0,1-.23-1.35,3.22,3.22,0,0,1,1-2.48,3.34,3.34,0,0,1,2.43-.91,3.17,3.17,0,0,1,2.42,1,4.21,4.21,0,0,1,1,2.7H22.7Q22.51,152,20.51,152a2.08,2.08,0,0,0-1.56.61,2.3,2.3,0,0,0-.59,1.63,2.75,2.75,0,0,0,.19,1,2.31,2.31,0,0,0,.57.79,3.93,3.93,0,0,0,.65.5l.74.42.67.38c.34.19.61.35.82.49a8,8,0,0,1,.81.69,3,3,0,0,1,.78,1.18A4.31,4.31,0,0,1,23.86,161.27Z" transform="translate(-0.74)"/><path class="cls-1" d="M33.86,151.1v1.12H30.51v12.19H29.29V152.22H26V151.1Z" transform="translate(-0.74)"/><path class="cls-1" d="M42.49,164.41l-1-3.92h-4l-1,3.92H35.15l3.56-13.31h1.54l3.55,13.31Zm-4.77-5h3.49l-1.69-6.69h-.11Z" transform="translate(-0.74)"/><path class="cls-1" d="M50.26,157.68h4.05v6.73h-1l-.15-1.25h-.12A3.62,3.62,0,0,1,50,164.6a3.79,3.79,0,0,1-3.28-1.67,8.57,8.57,0,0,1-1.18-5,9.08,9.08,0,0,1,1.27-5.26,4,4,0,0,1,3.46-1.81,3.81,3.81,0,0,1,2.68,1,4.47,4.47,0,0,1,1.29,2.84H53a3.4,3.4,0,0,0-.91-2,2.51,2.51,0,0,0-1.81-.68,2.89,2.89,0,0,0-2.56,1.5,8.39,8.39,0,0,0-.94,4.4,7.86,7.86,0,0,0,.89,4.14,2.76,2.76,0,0,0,2.46,1.41,2.89,2.89,0,0,0,2.11-.84,3.43,3.43,0,0,0,.85-2.55v-1.38H50.26Z" transform="translate(-0.74)"/><path class="cls-1" d="M64.67,164.41H63.34l-2.51-5.85H58.76v5.85h-1.2V151.1h3.37a3.26,3.26,0,0,1,2.51,1,3.86,3.86,0,0,1,.91,2.67,4,4,0,0,1-.63,2.3A3.1,3.1,0,0,1,62,158.33Zm-5.91-12.22v5.28h2a2.26,2.26,0,0,0,1.78-.72,2.89,2.89,0,0,0,.63-2,2.72,2.72,0,0,0-.63-1.93,2.32,2.32,0,0,0-1.76-.67Z" transform="translate(-0.74)"/><path class="cls-1" d="M73.28,164.41l-1-3.92h-4l-1,3.92H66L69.5,151.1H71l3.56,13.31Zm-4.77-5H72l-1.69-6.69H70.2Z" transform="translate(-0.74)"/><path class="cls-1" d="M86.93,151.1v13.31H85.77v-10.8h-.11l-3.08,9.28H81.15L78,153.61H77.9v10.8H76.74V151.1h1.64l3.42,10.25h.12l3.4-10.25Z" transform="translate(-0.74)"/><path class="cls-1" d="M99.73,157.68h4v6.73h-1l-.16-1.25h-.11a3.65,3.65,0,0,1-3.06,1.44,3.81,3.81,0,0,1-3.29-1.67A8.57,8.57,0,0,1,95,158a9.07,9.07,0,0,1,1.28-5.26,4,4,0,0,1,3.46-1.81,3.81,3.81,0,0,1,2.68,1,4.58,4.58,0,0,1,1.29,2.84h-1.28a3.34,3.34,0,0,0-.91-2,2.5,2.5,0,0,0-1.8-.68,2.89,2.89,0,0,0-2.56,1.5,8.3,8.3,0,0,0-.94,4.4,7.87,7.87,0,0,0,.88,4.14,2.76,2.76,0,0,0,2.46,1.41,2.89,2.89,0,0,0,2.11-.84,3.43,3.43,0,0,0,.86-2.55v-1.38H99.73Z" transform="translate(-0.74)"/><path class="cls-1" d="M108.24,151.1v13.31H107V151.1Z" transform="translate(-0.74)"/><path class="cls-1" d="M117.84,151.1h1.3l-3.62,13.31H114l-3.59-13.31h1.29l3,11.48h.13Z" transform="translate(-0.74)"/><path class="cls-1" d="M122.48,163.31h5.17v1.1h-6.36V151.1h6.17v1.11h-5v4.9h4.41v1.1h-4.41Z" transform="translate(-0.74)"/><path class="cls-1" d="M136.42,164.41l-1-3.92h-4.05l-1,3.92h-1.31l3.55-13.31h1.54l3.56,13.31Zm-4.77-5h3.49l-1.69-6.69h-.11Z" transform="translate(-0.74)"/><path class="cls-1" d="M150.43,151.1h1.18l-2.42,13.31h-1.48l-2.47-9.56h-.12l-2.45,9.56h-1.48l-2.42-13.31H140l1.94,11.37H142l2.44-9.47h1.44l2.4,9.47h.11Z" transform="translate(-0.74)"/><path class="cls-1" d="M160,164.41l-1-3.92H155l-1,3.92h-1.31l3.56-13.31h1.54l3.55,13.31Zm-4.77-5h3.5l-1.7-6.69h-.11Z" transform="translate(-0.74)"/><path class="cls-1" d="M169.61,151.1H171l-3.7,6.77v6.54h-1.26v-6.54l-3.72-6.77h1.42l2.87,5.33h.1Z" transform="translate(-0.74)"/><path class="cls-1" d="M186.72,160.49a4.69,4.69,0,0,1-1.33,3.06,4,4,0,0,1-2.84,1,3.83,3.83,0,0,1-3.31-1.71,8.73,8.73,0,0,1-1.21-5.06,9.1,9.1,0,0,1,1.22-5.14,3.83,3.83,0,0,1,3.32-1.78,3.73,3.73,0,0,1,2.72,1,5,5,0,0,1,1.28,3.19h-1.28c-.25-2-1.16-3.08-2.74-3.08a2.72,2.72,0,0,0-2.42,1.51,8.55,8.55,0,0,0-.88,4.27,7.94,7.94,0,0,0,.89,4.19,2.73,2.73,0,0,0,2.41,1.44,2.66,2.66,0,0,0,1.92-.72,3.68,3.68,0,0,0,1-2.25Z" transform="translate(-0.74)"/><path class="cls-1" d="M193.66,164.6a4.05,4.05,0,0,1-3.42-1.74,10.82,10.82,0,0,1,0-10.21,4.19,4.19,0,0,1,6.8,0,10.76,10.76,0,0,1,0,10.2A4,4,0,0,1,193.66,164.6Zm0-1.14a2.88,2.88,0,0,0,2.49-1.45,10,10,0,0,0,0-8.51,2.89,2.89,0,0,0-5,0,9.91,9.91,0,0,0,0,8.51A2.9,2.9,0,0,0,193.66,163.46Z" transform="translate(-0.74)"/><path class="cls-1" d="M208,151.1h1.18v13.31h-1.41l-5.22-10.89h-.12v10.89H201.2V151.1h1.43L207.84,162H208Z" transform="translate(-0.74)"/><path class="cls-1" d="M219.43,151.1v1.12h-3.34v12.19h-1.22V152.22h-3.34V151.1Z" transform="translate(-0.74)"/><path class="cls-1" d="M223,163.31h5.17v1.1h-6.37V151.1H228v1.11h-5v4.9h4.41v1.1H223Z" transform="translate(-0.74)"/><path class="cls-1" d="M237.36,161.27a3.11,3.11,0,0,1-1,2.5,3.68,3.68,0,0,1-2.48.83,3.45,3.45,0,0,1-2.57-.95,4.19,4.19,0,0,1-1-2.87h1.21c.13,1.82.92,2.74,2.36,2.74a2.32,2.32,0,0,0,1.59-.54,2.13,2.13,0,0,0,.61-1.67c0-1.18-.72-2.18-2.16-3l-.74-.44c-.37-.2-.67-.38-.89-.52a6.24,6.24,0,0,1-.78-.66,2.79,2.79,0,0,1-.67-1,3.82,3.82,0,0,1-.23-1.35,3.25,3.25,0,0,1,.95-2.48,3.36,3.36,0,0,1,2.43-.91,3.16,3.16,0,0,1,2.42,1,4.16,4.16,0,0,1,1,2.7H236.2c-.13-1.72-.85-2.58-2.19-2.58a2,2,0,0,0-1.55.61,2.25,2.25,0,0,0-.59,1.63,2.56,2.56,0,0,0,.19,1,2.16,2.16,0,0,0,.56.79,4.39,4.39,0,0,0,.65.5l.74.42.67.38c.34.19.61.35.82.49a9.07,9.07,0,0,1,.82.69,2.92,2.92,0,0,1,.77,1.18A4.31,4.31,0,0,1,237.36,161.27Z" transform="translate(-0.74)"/><path class="cls-1" d="M247.36,151.1v1.12H244v12.19H242.8V152.22h-3.35V151.1Z" transform="translate(-0.74)"/><path class="cls-1" d="M67.81,67.74v64.93H53.43V67.74Z" transform="translate(-0.74)"/><path class="cls-1" d="M121.7,67.74h13.91v64.93H121.24L94.89,93.07h-.83v39.6h-14V67.74H94.34l26.52,40h.84Z" transform="translate(-0.74)"/><path class="cls-1" d="M162,120.24h31.81v12.43H148V67.74h44.9V80.17H162V93.62h26.25v12.15H162Z" transform="translate(-0.74)"/><path class="cls-2" d="M247.76,86.29v46.38H235.05l-1.2-5.38H233q-5,6.31-13.73,6.31t-13.68-5.29q-5-5.28-5-14.47V86.29h13.91V111q0,5.1,2.64,7.84a9.09,9.09,0,0,0,6.82,2.73,9.58,9.58,0,0,0,7-2.78c1.88-1.86,2.83-4.54,2.83-8.07V86.29Z" transform="translate(-0.74)"/><path class="cls-1" d="M306.89,288.47h30v8H298.24V237.7h8.65Z" transform="translate(-0.74)"/><path class="cls-1" d="M354.64,237.7v58.75h-8.81V237.7Z" transform="translate(-0.74)"/><path class="cls-1" d="M408.35,237.7H417v58.75h-9.32l-29.54-43.56h-.59v43.56h-8.64V237.7h9.31l29.55,43.64h.58Z" transform="translate(-0.74)"/><path class="cls-1" d="M440.08,237.7v58.75h-8.82V237.7Z" transform="translate(-0.74)"/><path class="cls-1" d="M491.19,296.45,486,281.09H463.16L458,296.45h-9.48L469.2,237.7H480l20.64,58.75Zm-25.6-22.83h18L474.91,248h-.67Z" transform="translate(-0.74)"/><path class="cls-1" d="M306,185.09V188h7.85v6.24H306v24.68h-7.91V194.24h-6.5V188h6.5v-3.34c0-3.14.93-5.53,2.81-7.18a11,11,0,0,1,7.51-2.47,18.82,18.82,0,0,1,5.94,1.05L313,181.81a9.57,9.57,0,0,0-3.16-.49Q306,181.32,306,185.09Z" transform="translate(-0.74)"/><path class="cls-1" d="M332.69,219.54A16.05,16.05,0,0,1,321,215a15.51,15.51,0,0,1-4.67-11.6A15.34,15.34,0,0,1,321,191.86a17.48,17.48,0,0,1,23.37,0A15.3,15.3,0,0,1,349,203.39,15.48,15.48,0,0,1,344.37,215,16.06,16.06,0,0,1,332.69,219.54Zm0-6.87a7.8,7.8,0,0,0,6.12-2.66,9.61,9.61,0,0,0,2.35-6.62,9.41,9.41,0,0,0-2.35-6.52,7.84,7.84,0,0,0-6.12-2.63,7.72,7.72,0,0,0-6.09,2.63,9.48,9.48,0,0,0-2.32,6.52,9.61,9.61,0,0,0,2.35,6.62A7.71,7.71,0,0,0,332.69,212.67Z" transform="translate(-0.74)"/><path class="cls-1" d="M354.7,218.92V188h7.18l.74,4.39h.49a11.33,11.33,0,0,1,3.59-3.81,10.91,10.91,0,0,1,5.63-1.2h2.22v7.91a21,21,0,0,0-3.34-.24c-3.09,0-5.29.91-6.61,2.75a11.17,11.17,0,0,0-2,6.71v14.41Z" transform="translate(-0.74)"/><path class="cls-1" d="M14.75,119.87H46.56v12.8H.74V67.89h14Z" transform="translate(-0.74)"/><path class="cls-2" d="M283.57,85.37A20.82,20.82,0,0,1,299.38,92q6.27,6.63,6.26,17.58,0,11.13-6.35,17.58a21.23,21.23,0,0,1-15.72,6.44q-7.89,0-12.71-4.36V156H256.94V86.29h11.32l1.21,4.83h.83Q274.93,85.36,283.57,85.37Zm-9.88,32.88a9.43,9.43,0,0,0,7.56,3.29,9.57,9.57,0,0,0,7.6-3.29,12.69,12.69,0,0,0,2.88-8.67,12.91,12.91,0,0,0-2.92-8.82,9.6,9.6,0,0,0-7.56-3.33,9.4,9.4,0,0,0-7.56,3.33,13.18,13.18,0,0,0-2.83,8.82A12.82,12.82,0,0,0,273.69,118.25Z" transform="translate(-0.74)"/><polyline class="cls-3" points="0 70 0 0 14.01 0 14.01 70"/><polyline class="cls-4" points="270.12 110.74 270.12 364 256.2 364 256.2 86.29 270.12 86.29"/></g><g id="Layer_10" data-name="Layer 10"><path class="cls-1" d="M6.91,233.37h4.75v7.89H10.54l-.18-1.47h-.13a4.26,4.26,0,0,1-3.59,1.7,4.44,4.44,0,0,1-3.85-2,9.93,9.93,0,0,1-1.39-5.79,10.62,10.62,0,0,1,1.5-6.17A4.7,4.7,0,0,1,7,225.44a4.49,4.49,0,0,1,3.15,1.13,5.3,5.3,0,0,1,1.51,3.33H10.12a4,4,0,0,0-1.07-2.33,2.93,2.93,0,0,0-2.12-.79,3.4,3.4,0,0,0-3,1.75,9.8,9.8,0,0,0-1.1,5.16,9.2,9.2,0,0,0,1,4.85,3.23,3.23,0,0,0,2.88,1.65,3.39,3.39,0,0,0,2.48-1,4,4,0,0,0,1-3V234.6H6.91Z" transform="translate(-0.74)"/><path class="cls-1" d="M22.73,235.33c0,.26,0,.47,0,.65H16.09c0,2.9,1,4.35,2.76,4.35a2.51,2.51,0,0,0,1.59-.52,2.47,2.47,0,0,0,.86-1.6h1.34a3.67,3.67,0,0,1-1.27,2.46,3.93,3.93,0,0,1-2.52.82,3.65,3.65,0,0,1-3-1.42,6.86,6.86,0,0,1-1.1-4.24,7.33,7.33,0,0,1,1.13-4.43,3.56,3.56,0,0,1,3-1.5,3.45,3.45,0,0,1,2.8,1.32A6.47,6.47,0,0,1,22.73,235.33Zm-3.88-4.27a2.3,2.3,0,0,0-1.91,1,4.89,4.89,0,0,0-.85,2.79h5.3a4.88,4.88,0,0,0-.71-2.84A2.15,2.15,0,0,0,18.85,231.06Z" transform="translate(-0.74)"/><path class="cls-1" d="M28.84,241.49a2.32,2.32,0,0,1-1.72-.6,2.21,2.21,0,0,1-.6-1.66v-7.95H24.4v-1.16h.89a1.45,1.45,0,0,0,1-.31,1.49,1.49,0,0,0,.32-1.07v-1.52H27.9v2.9h2.48v1.16H27.9V239c0,.89.42,1.33,1.27,1.33a3.29,3.29,0,0,0,1-.17v1.13A4.64,4.64,0,0,1,28.84,241.49Z" transform="translate(-0.74)"/><path class="cls-1" d="M39.94,227.8a1,1,0,0,1-1.44,0,.94.94,0,0,1-.3-.71.91.91,0,0,1,.3-.7,1.07,1.07,0,0,1,1.44,0,.93.93,0,0,1,.28.7A1,1,0,0,1,39.94,227.8Zm-1.41,13.46V230.12h1.36v11.14Z" transform="translate(-0.74)"/><path class="cls-1" d="M43,241.26V230.12h1.2l.16,1.07h.13a3.11,3.11,0,0,1,2.61-1.29,3.05,3.05,0,0,1,2.32.94,3.68,3.68,0,0,1,.89,2.6v7.82H48.92v-7.55a2.73,2.73,0,0,0-.61-1.93,2,2,0,0,0-1.51-.66,2.32,2.32,0,0,0-1.75.73,2.93,2.93,0,0,0-.7,2.13v7.28Z" transform="translate(-0.74)"/><path class="cls-1" d="M59.5,241.26V225.44h1.36v15.82Z" transform="translate(-0.74)"/><path class="cls-1" d="M65.36,227.8a.94.94,0,0,1-.71.29,1,1,0,0,1-.72-.29.92.92,0,0,1-.31-.71.88.88,0,0,1,.31-.7,1,1,0,0,1,.72-.28,1,1,0,0,1,.71.28.9.9,0,0,1,.29.7A.94.94,0,0,1,65.36,227.8ZM64,241.26V230.12h1.36v11.14Z" transform="translate(-0.74)"/><path class="cls-1" d="M68.42,241.26V230.12h1.2l.16,1.07h.13a3.11,3.11,0,0,1,2.61-1.29,3,3,0,0,1,2.31.94,3.64,3.64,0,0,1,.9,2.6v7.82H74.34v-7.55a2.77,2.77,0,0,0-.6-1.93,2,2,0,0,0-1.51-.66,2.32,2.32,0,0,0-1.75.73,2.93,2.93,0,0,0-.7,2.13v7.28Z" transform="translate(-0.74)"/><path class="cls-1" d="M86.42,235.33a6.23,6.23,0,0,1,0,.65H79.78q.07,4.35,2.76,4.35A2.37,2.37,0,0,0,85,238.21h1.33a3.63,3.63,0,0,1-1.27,2.46,3.93,3.93,0,0,1-2.52.82,3.62,3.62,0,0,1-3-1.42,6.79,6.79,0,0,1-1.11-4.24,7.33,7.33,0,0,1,1.13-4.43,3.56,3.56,0,0,1,3-1.5,3.45,3.45,0,0,1,2.8,1.32A6.47,6.47,0,0,1,86.42,235.33Zm-3.88-4.27a2.3,2.3,0,0,0-1.91,1,4.89,4.89,0,0,0-.85,2.79h5.3a4.88,4.88,0,0,0-.71-2.84A2.15,2.15,0,0,0,82.54,231.06Z" transform="translate(-0.74)"/><path class="cls-1" d="M98.66,241.49a2.32,2.32,0,0,1-1.72-.6,2.21,2.21,0,0,1-.6-1.66v-7.95H94.22v-1.16h.89a1.16,1.16,0,0,0,1.36-1.38v-1.52h1.25v2.9h2.48v1.16H97.72V239c0,.89.42,1.33,1.27,1.33a3.29,3.29,0,0,0,1.05-.17v1.13A4.64,4.64,0,0,1,98.66,241.49Z" transform="translate(-0.74)"/><path class="cls-1" d="M106.1,241.49a3.66,3.66,0,0,1-3.11-1.56,8.39,8.39,0,0,1,0-8.46,3.88,3.88,0,0,1,6.24,0,7,7,0,0,1,1.16,4.23,6.94,6.94,0,0,1-1.15,4.23A3.69,3.69,0,0,1,106.1,241.49Zm0-1.23a2.4,2.4,0,0,0,2.14-1.26,6.16,6.16,0,0,0,.78-3.29,6.26,6.26,0,0,0-.78-3.33,2.45,2.45,0,0,0-4.28,0,6.45,6.45,0,0,0-.76,3.34A6.35,6.35,0,0,0,104,239,2.39,2.39,0,0,0,106.1,240.26Z" transform="translate(-0.74)"/><path class="cls-1" d="M120.38,241.26l-2.2-11.14h1.31l1.72,9.23h.13l2.21-8.36h1.58l2.16,8.38h.14l1.76-9.25h1.31l-2.23,11.14h-1.65l-2.22-8.51h-.14L122,241.26Z" transform="translate(-0.74)"/><path class="cls-1" d="M134,227.8a1,1,0,0,1-.72.29,1,1,0,0,1-.72-.29.94.94,0,0,1-.3-.71.91.91,0,0,1,.3-.7,1,1,0,0,1,.72-.28,1,1,0,0,1,.72.28.93.93,0,0,1,.29.7A1,1,0,0,1,134,227.8Zm-1.41,13.46V230.12h1.36v11.14Z" transform="translate(-0.74)"/><path class="cls-1" d="M137,241.26V230.12h1.2l.16,1.07h.13a3.13,3.13,0,0,1,2.61-1.29,3.05,3.05,0,0,1,2.32.94,3.68,3.68,0,0,1,.89,2.6v7.82h-1.38v-7.55a2.77,2.77,0,0,0-.6-1.93,2,2,0,0,0-1.52-.66,2.32,2.32,0,0,0-1.75.73,2.93,2.93,0,0,0-.7,2.13v7.28Z" transform="translate(-0.74)"/><path class="cls-1" d="M8.76,266.89H9V268H8.4a1.43,1.43,0,0,1-1.56-1.14,3.37,3.37,0,0,1-2.9,1.36,3.09,3.09,0,0,1-2.21-.78,3,3,0,0,1-.84-2.27q0-3,3.61-3.57l2.14-.31v-1.18c0-1.53-.66-2.3-2-2.3s-2,.74-2.14,2.21H1.16a3.65,3.65,0,0,1,1-2.5,3.43,3.43,0,0,1,2.47-.89,3.42,3.42,0,0,1,2.46.88A3.23,3.23,0,0,1,8,260V266C8,266.61,8.27,266.89,8.76,266.89Zm-2.12-2.52v-2l-1.85.27c-1.69.25-2.54,1.07-2.54,2.45a1.93,1.93,0,0,0,.52,1.45,1.87,1.87,0,0,0,1.33.49,2.62,2.62,0,0,0,1.79-.64A2.55,2.55,0,0,0,6.64,264.37Z" transform="translate(-0.74)"/><path class="cls-1" d="M19.25,266.69h5.89V268H17.83v-15.6h1.42Z" transform="translate(-0.74)"/><path class="cls-1" d="M29,254.54a.94.94,0,0,1-.71.29,1,1,0,0,1-.73-.29.94.94,0,0,1-.3-.71.92.92,0,0,1,.3-.7,1,1,0,0,1,.73-.28,1,1,0,0,1,.71.28,1,1,0,0,1,.29.7A1,1,0,0,1,29,254.54ZM27.57,268V256.86h1.36V268Z" transform="translate(-0.74)"/><path class="cls-1" d="M32,268V256.86h1.21l.15,1.07h.14a3.1,3.1,0,0,1,2.6-1.29,3,3,0,0,1,2.32.95,3.59,3.59,0,0,1,.89,2.59V268H38v-7.56a2.77,2.77,0,0,0-.6-1.93,2,2,0,0,0-1.52-.65,2.32,2.32,0,0,0-1.74.72,2.93,2.93,0,0,0-.71,2.13V268Z" transform="translate(-0.74)"/><path class="cls-1" d="M43.81,254.54a.94.94,0,0,1-.71.29,1,1,0,0,1-.72-.29.91.91,0,0,1-.3-.71.89.89,0,0,1,.3-.7,1,1,0,0,1,.72-.28,1,1,0,0,1,.71.28.91.91,0,0,1,.29.7A.94.94,0,0,1,43.81,254.54ZM42.41,268V256.86h1.36V268Z" transform="translate(-0.74)"/><path class="cls-1" d="M54.13,266.89h.27V268h-.63a1.44,1.44,0,0,1-1.56-1.14,3.35,3.35,0,0,1-2.89,1.36,3.13,3.13,0,0,1-2.22-.78,3,3,0,0,1-.84-2.27q0-3,3.62-3.57L52,261.3v-1.18c0-1.53-.66-2.3-2-2.3s-2,.74-2.14,2.21H46.53a3.61,3.61,0,0,1,1-2.5,3.86,3.86,0,0,1,4.92,0A3.2,3.2,0,0,1,53.4,260V266C53.4,266.61,53.64,266.89,54.13,266.89ZM52,264.37v-2l-1.85.27c-1.69.25-2.54,1.07-2.54,2.45a1.9,1.9,0,0,0,.53,1.45,1.84,1.84,0,0,0,1.32.49,2.66,2.66,0,0,0,1.8-.64A2.55,2.55,0,0,0,52,264.37Z" transform="translate(-0.74)"/><path class="cls-1" d="M71,264.33a3.66,3.66,0,0,1-1.13,2.93,4.27,4.27,0,0,1-2.9,1,4,4,0,0,1-3-1.12,4.85,4.85,0,0,1-1.18-3.36h1.42c.15,2.14,1.07,3.21,2.77,3.21a2.71,2.71,0,0,0,1.86-.64,2.46,2.46,0,0,0,.72-1.95q0-2.07-2.54-3.54l-.87-.51c-.43-.24-.78-.44-1-.62a6.37,6.37,0,0,1-.91-.76,3.48,3.48,0,0,1-.79-1.21,4.33,4.33,0,0,1-.27-1.58,3.81,3.81,0,0,1,1.12-2.91,4,4,0,0,1,2.85-1.06,3.65,3.65,0,0,1,2.83,1.14,4.81,4.81,0,0,1,1.14,3.16H69.62c-.15-2-1-3-2.56-3a2.42,2.42,0,0,0-1.83.73,2.64,2.64,0,0,0-.69,1.9,3,3,0,0,0,.22,1.18,2.55,2.55,0,0,0,.66.93,4.67,4.67,0,0,0,.77.59c.22.13.51.3.87.49l.78.45c.4.22.72.41,1,.57a10.36,10.36,0,0,1,1,.81,3.6,3.6,0,0,1,.92,1.38A5.17,5.17,0,0,1,71,264.33Z" transform="translate(-0.74)"/><path class="cls-1" d="M75.48,254.54a.94.94,0,0,1-.71.29,1,1,0,0,1-.73-.29.94.94,0,0,1-.3-.71.92.92,0,0,1,.3-.7,1,1,0,0,1,.73-.28,1,1,0,0,1,.71.28,1,1,0,0,1,.29.7A1,1,0,0,1,75.48,254.54ZM74.08,268V256.86h1.36V268Z" transform="translate(-0.74)"/><path class="cls-1" d="M85,252.18H86.4V268H85.26l-.13-1.36H85a3.42,3.42,0,0,1-1.1,1.11,3.14,3.14,0,0,1-1.76.47,3.41,3.41,0,0,1-2.89-1.49,7.26,7.26,0,0,1-1.1-4.33,7.14,7.14,0,0,1,1.1-4.3,3.42,3.42,0,0,1,2.89-1.47,3,3,0,0,1,2.9,1.61Zm-4.75,13.66a2.3,2.3,0,0,0,2,1.16,2.27,2.27,0,0,0,2-1.14,6.4,6.4,0,0,0,.75-3.45,6.28,6.28,0,0,0-.75-3.4,2.27,2.27,0,0,0-2-1.14,2.33,2.33,0,0,0-2,1.14,6.28,6.28,0,0,0-.75,3.4A6.35,6.35,0,0,0,80.29,265.84Z" transform="translate(-0.74)"/><path class="cls-1" d="M97.12,262.08c0,.25,0,.47,0,.64H90.48q.06,4.35,2.76,4.35a2.51,2.51,0,0,0,1.58-.51,2.46,2.46,0,0,0,.87-1.61H97a3.72,3.72,0,0,1-1.27,2.47,3.93,3.93,0,0,1-2.52.81,3.61,3.61,0,0,1-3-1.42,6.84,6.84,0,0,1-1.1-4.24,7.35,7.35,0,0,1,1.12-4.43,3.58,3.58,0,0,1,3-1.5A3.43,3.43,0,0,1,96,258,6.43,6.43,0,0,1,97.12,262.08Zm-3.88-4.28a2.3,2.3,0,0,0-1.91,1,4.9,4.9,0,0,0-.85,2.8h5.3a4.88,4.88,0,0,0-.71-2.84A2.16,2.16,0,0,0,93.24,257.8Z" transform="translate(-0.74)"/><path class="cls-1" d="M114.61,252.41v1.31h-3.92V268h-1.42V253.72h-3.93v-1.31Z" transform="translate(-0.74)"/><path class="cls-1" d="M124.33,266.89h.27V268H124a1.44,1.44,0,0,1-1.56-1.14,3.36,3.36,0,0,1-2.89,1.36,3.12,3.12,0,0,1-2.22-.78,3,3,0,0,1-.84-2.27c0-2,1.21-3.2,3.61-3.57l2.14-.31v-1.18c0-1.53-.66-2.3-2-2.3s-2,.74-2.14,2.21h-1.36a3.65,3.65,0,0,1,1-2.5,3.88,3.88,0,0,1,4.93,0,3.2,3.2,0,0,1,.92,2.44V266C123.59,266.61,123.84,266.89,124.33,266.89Zm-2.12-2.52v-2l-1.85.27c-1.69.25-2.54,1.07-2.54,2.45a1.9,1.9,0,0,0,.53,1.45,1.83,1.83,0,0,0,1.32.49,2.66,2.66,0,0,0,1.8-.64A2.58,2.58,0,0,0,122.21,264.37Z" transform="translate(-0.74)"/><path class="cls-1" d="M131.17,256.64a3.43,3.43,0,0,1,2.9,1.47,7.14,7.14,0,0,1,1.09,4.3,7.27,7.27,0,0,1-1.09,4.33,3.43,3.43,0,0,1-2.9,1.49,3.16,3.16,0,0,1-1.76-.47,3.39,3.39,0,0,1-1.09-1.11h-.13l-.14,1.36h-1.13V252.18h1.35v6.07A3.06,3.06,0,0,1,131.17,256.64ZM129,265.86a2.31,2.31,0,0,0,4,0,6.25,6.25,0,0,0,.76-3.43A6.18,6.18,0,0,0,133,259a2.32,2.32,0,0,0-4,0,6.28,6.28,0,0,0-.75,3.4A6.4,6.4,0,0,0,129,265.86Z" transform="translate(-0.74)"/><path class="cls-1" d="M137.88,268V252.18h1.36V268Z" transform="translate(-0.74)"/><path class="cls-1" d="M150,262.08c0,.25,0,.47,0,.64h-6.62q.06,4.35,2.76,4.35a2.51,2.51,0,0,0,1.58-.51,2.46,2.46,0,0,0,.87-1.61h1.34a3.72,3.72,0,0,1-1.27,2.47,3.93,3.93,0,0,1-2.52.81,3.61,3.61,0,0,1-3-1.42,6.84,6.84,0,0,1-1.1-4.24,7.35,7.35,0,0,1,1.12-4.43,3.56,3.56,0,0,1,3-1.5,3.44,3.44,0,0,1,2.8,1.33A6.43,6.43,0,0,1,150,262.08Zm-3.88-4.28a2.34,2.34,0,0,0-1.92,1,5,5,0,0,0-.84,2.8h5.3a4.88,4.88,0,0,0-.71-2.84A2.16,2.16,0,0,0,146.08,257.8Z" transform="translate(-0.74)"/><path class="cls-1" d="M11.79,294.75H10.21L8.6,292.54A4.48,4.48,0,0,1,4.75,295a3.28,3.28,0,0,1-2.43-.91,3.24,3.24,0,0,1-.92-2.39,4.45,4.45,0,0,1,.36-1.77,5,5,0,0,1,.76-1.3c.27-.31.63-.69,1.09-1.14l.74-.76L4,286.26c-.39-.54-.68-1-.89-1.3a5.91,5.91,0,0,1-.58-1.23,4.31,4.31,0,0,1-.27-1.46,3.22,3.22,0,0,1,3.39-3.35,3.31,3.31,0,0,1,2.42.89,3,3,0,0,1,.9,2.28,3.42,3.42,0,0,1-.48,1.83A10.76,10.76,0,0,1,7,285.77l-1,1,2.45,3.35,1.43-2.83h1.4l-2,4Zm-4.12-3.12.11-.22L5.1,287.75l-.69.71a4.52,4.52,0,0,0-1.65,3.1,2.24,2.24,0,0,0,.58,1.55,2,2,0,0,0,1.52.64C5.94,293.75,6.88,293,7.67,291.63ZM5,285.46l.26.35.87-.89a4.14,4.14,0,0,0,1.59-2.85,1.88,1.88,0,0,0-.56-1.41,2,2,0,0,0-1.45-.53,2,2,0,0,0-1.5.57,2.12,2.12,0,0,0-.57,1.57A5.66,5.66,0,0,0,5,285.46Z" transform="translate(-0.74)"/><path class="cls-1" d="M23.47,295a2.36,2.36,0,0,1-1.72-.59,2.22,2.22,0,0,1-.6-1.66v-8H19v-1.15h.89a1.45,1.45,0,0,0,1-.32,1.47,1.47,0,0,0,.32-1.07v-1.51h1.25v2.9H25v1.15H22.53v7.69c0,.89.42,1.34,1.27,1.34a3.31,3.31,0,0,0,1.05-.18v1.14A4.61,4.61,0,0,1,23.47,295Z" transform="translate(-0.74)"/><path class="cls-1" d="M28.19,294.75,26,283.61H27.3L29,292.83h.13l2.21-8.36h1.58l2.16,8.38h.13L37,283.61h1.32l-2.23,11.14H34.43l-2.23-8.51h-.13l-2.23,8.51Z" transform="translate(-0.74)"/><path class="cls-1" d="M44.24,295a3.65,3.65,0,0,1-3.11-1.56A6.92,6.92,0,0,1,40,289.2,7.11,7.11,0,0,1,41.12,285a3.64,3.64,0,0,1,3.12-1.57A3.7,3.7,0,0,1,47.36,285a7.05,7.05,0,0,1,1.15,4.24,7,7,0,0,1-1.14,4.22A3.68,3.68,0,0,1,44.24,295Zm0-1.22a2.41,2.41,0,0,0,2.14-1.26,6.19,6.19,0,0,0,.78-3.29,6.26,6.26,0,0,0-.78-3.33,2.41,2.41,0,0,0-2.14-1.26,2.35,2.35,0,0,0-2.14,1.25,6.33,6.33,0,0,0-.76,3.34,6.25,6.25,0,0,0,.76,3.3A2.37,2.37,0,0,0,44.24,293.75Z" transform="translate(-0.74)"/><path class="cls-1" d="M59.15,293.43H65v1.32H57.72v-15.6h1.43Z" transform="translate(-0.74)"/><path class="cls-1" d="M68.86,281.29a1,1,0,0,1-.71.29,1,1,0,0,1-.73-.29,1,1,0,0,1-.3-.72.92.92,0,0,1,.3-.7,1.07,1.07,0,0,1,.73-.28,1,1,0,0,1,.71.28,1,1,0,0,1,.29.7A1,1,0,0,1,68.86,281.29Zm-1.4,13.46V283.61h1.36v11.14Z" transform="translate(-0.74)"/><path class="cls-1" d="M71.91,294.75V283.61h1.21l.15,1.06h.14a3.1,3.1,0,0,1,2.6-1.29,3,3,0,0,1,2.32.95,3.62,3.62,0,0,1,.89,2.6v7.82H77.84v-7.56a2.74,2.74,0,0,0-.6-1.92,2,2,0,0,0-1.52-.66,2.32,2.32,0,0,0-1.74.72,2.94,2.94,0,0,0-.71,2.13v7.29Z" transform="translate(-0.74)"/><path class="cls-1" d="M83.7,281.29a1,1,0,0,1-.71.29,1,1,0,0,1-.72-.29,1,1,0,0,1-.3-.72.92.92,0,0,1,.3-.7,1,1,0,0,1,.72-.28,1,1,0,0,1,.71.28.91.91,0,0,1,.29.7A1,1,0,0,1,83.7,281.29Zm-1.4,13.46V283.61h1.36v11.14Z" transform="translate(-0.74)"/><path class="cls-1" d="M94,293.63h.27v1.12h-.62a1.43,1.43,0,0,1-1.56-1.14,3.38,3.38,0,0,1-2.9,1.36,3.13,3.13,0,0,1-2.22-.78,3,3,0,0,1-.83-2.27q0-3,3.61-3.57l2.14-.31v-1.18c0-1.53-.67-2.3-2-2.3s-2,.74-2.14,2.21H86.42a3.61,3.61,0,0,1,1-2.5,3.39,3.39,0,0,1,2.46-.89,3.44,3.44,0,0,1,2.46.88,3.2,3.2,0,0,1,.93,2.44v6.09C93.29,293.35,93.53,293.63,94,293.63Zm-2.11-2.51v-2l-1.86.27c-1.69.25-2.54,1.07-2.54,2.45a1.88,1.88,0,0,0,.53,1.45,1.84,1.84,0,0,0,1.32.49,2.71,2.71,0,0,0,1.8-.63A2.57,2.57,0,0,0,91.91,291.12Z" transform="translate(-0.74)"/><path class="cls-1" d="M112.83,290.16a5.47,5.47,0,0,1-1.56,3.59A4.71,4.71,0,0,1,108,295a4.5,4.5,0,0,1-3.89-2,10.26,10.26,0,0,1-1.41-5.92,10.66,10.66,0,0,1,1.42-6,4.49,4.49,0,0,1,3.9-2.09,4.43,4.43,0,0,1,3.19,1.21,5.79,5.79,0,0,1,1.49,3.74h-1.49c-.3-2.4-1.37-3.61-3.21-3.61a3.17,3.17,0,0,0-2.84,1.77,10,10,0,0,0-1,5,9.36,9.36,0,0,0,1.05,4.91,3.2,3.2,0,0,0,2.83,1.68,3.14,3.14,0,0,0,2.25-.84,4.41,4.41,0,0,0,1.14-2.63Z" transform="translate(-0.74)"/><path class="cls-1" d="M122.81,293.63h.27v1.12h-.62a1.43,1.43,0,0,1-1.56-1.14A3.38,3.38,0,0,1,118,295a3.13,3.13,0,0,1-2.22-.78,3,3,0,0,1-.83-2.27q0-3,3.61-3.57l2.14-.31v-1.18c0-1.53-.66-2.3-2-2.3s-2,.74-2.14,2.21h-1.36a3.61,3.61,0,0,1,1-2.5,3.86,3.86,0,0,1,4.92,0,3.2,3.2,0,0,1,.93,2.44v6.09C122.08,293.35,122.32,293.63,122.81,293.63Zm-2.11-2.51v-2l-1.85.27c-1.7.25-2.54,1.07-2.54,2.45a1.88,1.88,0,0,0,.52,1.45,1.85,1.85,0,0,0,1.33.49,2.7,2.7,0,0,0,1.79-.63A2.57,2.57,0,0,0,120.7,291.12Z" transform="translate(-0.74)"/><path class="cls-1" d="M127.76,281.44v2.17h2.36v1.15h-2.36v10h-1.38v-10h-2v-1.15h2v-2.37a2.19,2.19,0,0,1,.67-1.7,2.45,2.45,0,0,1,1.74-.62,3.37,3.37,0,0,1,1.42.29l-.29,1.07a2.64,2.64,0,0,0-.93-.17C128.17,280.11,127.76,280.55,127.76,281.44Z" transform="translate(-0.74)"/><path class="cls-1" d="M139.86,288.82a6.33,6.33,0,0,1,0,.65h-6.62q.08,4.33,2.77,4.34a2.35,2.35,0,0,0,2.45-2.11h1.33a3.65,3.65,0,0,1-1.27,2.46A3.92,3.92,0,0,1,136,295a3.62,3.62,0,0,1-3-1.41,6.83,6.83,0,0,1-1.11-4.25,7.29,7.29,0,0,1,1.13-4.42,3.55,3.55,0,0,1,3-1.51,3.42,3.42,0,0,1,2.79,1.33A6.43,6.43,0,0,1,139.86,288.82ZM136,284.54a2.31,2.31,0,0,0-1.92,1,4.92,4.92,0,0,0-.85,2.8h5.31a5,5,0,0,0-.72-2.84A2.16,2.16,0,0,0,136,284.54Zm1.91-5.39-1.36,3.23h-1.13l1.24-3.23Z" transform="translate(-0.74)"/><path class="cls-1" d="M158.83,290.16a5.57,5.57,0,0,1-1.56,3.59A4.72,4.72,0,0,1,154,295a4.5,4.5,0,0,1-3.89-2,10.18,10.18,0,0,1-1.42-5.92,10.66,10.66,0,0,1,1.43-6,4.74,4.74,0,0,1,7.09-.88,5.79,5.79,0,0,1,1.49,3.74h-1.49c-.3-2.4-1.37-3.61-3.21-3.61A3.18,3.18,0,0,0,151.1,282a10,10,0,0,0-1,5,9.36,9.36,0,0,0,1.05,4.91,3.3,3.3,0,0,0,5.08.84,4.34,4.34,0,0,0,1.13-2.63Z" transform="translate(-0.74)"/><path class="cls-1" d="M165.65,283.38a3,3,0,0,1,2.31.95,3.62,3.62,0,0,1,.9,2.6v7.82h-1.39v-7.56a2.74,2.74,0,0,0-.6-1.92,2,2,0,0,0-1.51-.66,2.35,2.35,0,0,0-1.75.72,2.94,2.94,0,0,0-.7,2.13v7.29h-1.36V278.92h1.36v5.75H163A3.11,3.11,0,0,1,165.65,283.38Z" transform="translate(-0.74)"/><path class="cls-1" d="M179.2,293.63h.26v1.12h-.62a1.43,1.43,0,0,1-1.56-1.14,3.38,3.38,0,0,1-2.9,1.36,3.09,3.09,0,0,1-2.21-.78,3,3,0,0,1-.84-2.27q0-3,3.61-3.57l2.14-.31v-1.18c0-1.53-.66-2.3-2-2.3s-2,.74-2.13,2.21H171.6a3.6,3.6,0,0,1,1-2.5,3.42,3.42,0,0,1,2.46-.89,3.47,3.47,0,0,1,2.47.88,3.23,3.23,0,0,1,.92,2.44v6.09C178.46,293.35,178.71,293.63,179.2,293.63Zm-2.12-2.51v-2l-1.85.27c-1.69.25-2.54,1.07-2.54,2.45a1.88,1.88,0,0,0,.52,1.45,1.85,1.85,0,0,0,1.33.49,2.68,2.68,0,0,0,1.79-.63A2.57,2.57,0,0,0,177.08,291.12Z" transform="translate(-0.74)"/><path class="cls-1" d="M183.19,281.29a1,1,0,0,1-1.44,0,1,1,0,0,1-.3-.72.92.92,0,0,1,.3-.7,1.07,1.07,0,0,1,1.44,0,.94.94,0,0,1,.28.7A1,1,0,0,1,183.19,281.29Zm-1.41,13.46V283.61h1.36v11.14Z" transform="translate(-0.74)"/><path class="cls-1" d="M186.24,294.75V283.61h1.2l.16,1.24h.13a2.88,2.88,0,0,1,2.68-1.47h.46v1.41a4.44,4.44,0,0,0-.73-.05,2.27,2.27,0,0,0-1.82.87,3.86,3.86,0,0,0-.72,2.52v6.62Z" transform="translate(-0.74)"/><path class="cls-1" d="M196,295a3.2,3.2,0,0,1-3.54-3.36h1.36c.07,1.48.8,2.22,2.18,2.22a2.45,2.45,0,0,0,1.5-.43,1.52,1.52,0,0,0,.58-1.28,1.83,1.83,0,0,0-.36-1.1,2.59,2.59,0,0,0-.74-.74c-.25-.16-.58-.34-1-.55l-.73-.35-.92-.5a7.09,7.09,0,0,1-.75-.56,2.14,2.14,0,0,1-.67-.88,2.9,2.9,0,0,1-.2-1.14,2.64,2.64,0,0,1,.94-2.13,3.55,3.55,0,0,1,2.31-.79,3,3,0,0,1,3.28,3.06H198a1.86,1.86,0,0,0-.57-1.41,1.92,1.92,0,0,0-1.37-.51,2,2,0,0,0-1.37.48,1.61,1.61,0,0,0-.55,1.26,1.54,1.54,0,0,0,.48,1.18,5.41,5.41,0,0,0,1.37.87l.74.4a5.94,5.94,0,0,1,.92.48,7.94,7.94,0,0,1,.85.63,2.74,2.74,0,0,1,.74,1,3.21,3.21,0,0,1,.25,1.3,2.49,2.49,0,0,1-1,2.12A3.86,3.86,0,0,1,196,295Z" transform="translate(-0.74)"/></g></g></svg>