<svg id="Layer_2" data-name="Layer 2" xmlns="http://www.w3.org/2000/svg" xmlns:xlink="http://www.w3.org/1999/xlink" viewBox="0 0 586.94 955"><defs><style>.cls-1{font-size:22.29px;font-family:Moderat-Condensed-Light, Moderat;font-weight:300;letter-spacing:0em;}.cls-1,.cls-2{fill:#fff;}.cls-3{fill:#ce0e2d;}.cls-4{fill:url(#linear-gradient);}.cls-5{fill:url(#linear-gradient-2);}</style><linearGradient id="linear-gradient" x1="9.08" x2="9.08" y2="302.54" gradientUnits="userSpaceOnUse"><stop offset="0" stop-color="#fff" stop-opacity="0"/><stop offset="0.11" stop-color="#fff" stop-opacity="0.14"/><stop offset="0.4" stop-color="#fff" stop-opacity="0.5"/><stop offset="0.64" stop-color="#fff" stop-opacity="0.77"/><stop offset="0.81" stop-color="#fff" stop-opacity="0.94"/><stop offset="0.9" stop-color="#fff"/></linearGradient><linearGradient id="linear-gradient-2" x1="309.37" y1="955" x2="309.37" y2="294.17" gradientUnits="userSpaceOnUse"><stop offset="0" stop-color="#fff" stop-opacity="0"/><stop offset="0.29" stop-color="#eda5b1" stop-opacity="0.37"/><stop offset="0.59" stop-color="#dc546a" stop-opacity="0.71"/><stop offset="0.79" stop-color="#d2213e" stop-opacity="0.92"/><stop offset="0.9" stop-color="#ce0e2d"/></linearGradient></defs><text class="cls-1" transform="translate(0 391.4)">INSTAGRAM GIVEAWAY CONTEST</text><path class="cls-2" d="M91.52,271.92V348H74.67V271.92Z" transform="translate(-12.03 0.5)"/><path class="cls-2" d="M154.7,271.92H171V348H154.16l-30.88-46.43h-1V348H105.87V271.92h16.75l31.1,46.87h1Z" transform="translate(-12.03 0.5)"/><path class="cls-2" d="M201.9,333.47h37.29V348H185.47V271.92H238.1v14.57H201.9v15.77h30.77V316.5H201.9Z" transform="translate(-12.03 0.5)"/><path class="cls-3" d="M302.48,293.67V348h-14.9l-1.41-6.31h-1q-5.87,7.39-16.09,7.4t-16-6.2q-5.82-6.19-5.82-17V293.67h16.31v28.92q0,6,3.1,9.19a10.61,10.61,0,0,0,8,3.21,11.25,11.25,0,0,0,8.21-3.26q3.31-3.27,3.32-9.46v-28.6Z" transform="translate(-12.03 0.5)"/><path class="cls-2" d="M371.79,530.68h35.13V540H361.66V471.16h10.13Z" transform="translate(-12.03 0.5)"/><path class="cls-2" d="M427.78,471.16V540H417.45V471.16Z" transform="translate(-12.03 0.5)"/><path class="cls-2" d="M490.74,471.16h10.14V540H490L455.32,489h-.68V540H444.5V471.16h10.92l34.63,51.16h.69Z" transform="translate(-12.03 0.5)"/><path class="cls-2" d="M527.93,471.16V540H517.6V471.16Z" transform="translate(-12.03 0.5)"/><path class="cls-2" d="M587.85,540l-6.1-18H555l-6.1,18H537.77l24.3-68.87h12.69L599,540Zm-30-26.76H578.9l-10.14-30H568Z" transform="translate(-12.03 0.5)"/><path class="cls-2" d="M370.72,409.48v3.41h9.21v7.32h-9.21v28.93h-9.28V420.21h-7.61v-7.32h7.61V409q0-5.52,3.3-8.41c2.2-1.94,5.13-2.9,8.81-2.9a22.14,22.14,0,0,1,7,1.23l-1.6,6.74a11.35,11.35,0,0,0-3.7-.58C372.22,405.06,370.72,406.54,370.72,409.48Z" transform="translate(-12.03 0.5)"/><path class="cls-2" d="M402,449.86a18.83,18.83,0,0,1-13.67-5.32,18.17,18.17,0,0,1-5.47-13.6,18,18,0,0,1,5.44-13.52,20.5,20.5,0,0,1,27.4,0,18,18,0,0,1,5.44,13.52,18.19,18.19,0,0,1-5.44,13.63A18.83,18.83,0,0,1,402,449.86Zm0-8a9.13,9.13,0,0,0,7.18-3.12,11.31,11.31,0,0,0,2.75-7.76,11.1,11.1,0,0,0-2.75-7.65,9.2,9.2,0,0,0-7.18-3.08,9.07,9.07,0,0,0-7.14,3.08,11.18,11.18,0,0,0-2.72,7.65,11.31,11.31,0,0,0,2.75,7.76A9.06,9.06,0,0,0,402,441.82Z" transform="translate(-12.03 0.5)"/><path class="cls-2" d="M427.85,449.14V412.89h8.41l.87,5.15h.58a13.07,13.07,0,0,1,4.2-4.46,12.8,12.8,0,0,1,6.6-1.41h2.61v9.28a23.3,23.3,0,0,0-3.92-.29c-3.62,0-6.21,1.07-7.75,3.22a13.11,13.11,0,0,0-2.32,7.87v16.89Z" transform="translate(-12.03 0.5)"/><path class="cls-2" d="M29.32,333h37.3v15H12.9V272.1H29.32Z" transform="translate(-12.03 0.5)"/><path class="cls-3" d="M344.46,292.58A24.41,24.41,0,0,1,363,300.36q7.33,7.77,7.34,20.6,0,13.05-7.45,20.61a24.85,24.85,0,0,1-18.43,7.56q-9.25,0-14.9-5.11v31.34H313.25V293.67h13.26l1.42,5.65h1Q334.34,292.58,344.46,292.58Zm-11.59,38.55a12.17,12.17,0,0,0,17.78,0Q354,327.27,354,321t-3.42-10.33a11.24,11.24,0,0,0-8.86-3.91,11,11,0,0,0-8.87,3.91q-3.31,3.92-3.31,10.33T332.87,331.13Z" transform="translate(-12.03 0.5)"/><polyline class="cls-4" points="0.87 302.54 0.87 0 17.29 0 17.29 302.54"/><polyline class="cls-5" points="317.53 321.91 317.53 955 301.21 955 301.21 294.17 317.53 294.17"/></svg>