<?xml version="1.0" encoding="utf-8"?>
<!-- Generator: Adobe Illustrator 25.4.1, SVG Export Plug-In . SVG Version: 6.00 Build 0)  -->
<svg version="1.1" id="Layer_1" xmlns="http://www.w3.org/2000/svg" xmlns:xlink="http://www.w3.org/1999/xlink" x="0px" y="0px"
	 viewBox="0 0 248.6 248.6" style="enable-background:new 0 0 248.6 248.6;" xml:space="preserve">
<style type="text/css">
	.st0{fill:#E5E6E6;}
	.st1{clip-path:url(#SVGID_00000077317076235119197130000009305075185371249039_);}
	.st2{fill:none;stroke:#808082;stroke-width:1.04;stroke-linecap:round;stroke-linejoin:round;}
	.st3{fill:#CFD1D2;}
	.st4{fill:#FFFFFF;}
	.st5{fill:#808082;}
	.st6{clip-path:url(#SVGID_00000159461533462060093580000004370269440158532771_);}
	.st7{fill:none;}
	.st8{fill:none;stroke:#808082;stroke-width:0.24;stroke-linecap:round;stroke-linejoin:round;}
	.st9{fill:none;stroke:#808082;stroke-width:0.25;stroke-linecap:round;stroke-linejoin:round;}
	.st10{opacity:0.2;}
	.st11{fill:#A9AAAA;}
</style>
<g id="Layer_2_00000175289392976178621620000008382432122580768658_">
	<g id="Layer_3">
		<rect x="-0.2" y="-0.7" class="st0" width="248.7" height="248.7"/>
		<rect x="-0.2" y="-0.7" class="st0" width="248.7" height="248.7"/>
		<g>
			<defs>
				<rect id="SVGID_1_" x="-0.2" y="-0.7" width="248.7" height="248.7"/>
			</defs>
			<clipPath id="SVGID_00000030448324561108446330000016087228888091026824_">
				<use xlink:href="#SVGID_1_"  style="overflow:visible;"/>
			</clipPath>
			<g style="clip-path:url(#SVGID_00000030448324561108446330000016087228888091026824_);">
				<line class="st2" x1="-0.2" y1="123.7" x2="248.5" y2="123.7"/>
				<path class="st3" d="M244.8,232.7c0.2-0.2,0.2-0.4,0-0.6c-3.4-3.9-6.3-7-8.8-9.8c-5.7-6.1-9.5-10.1-11.7-16.6
					c-2.8-8-3.2-8.9-4.9-12c-0.7-1.2-1.5-2.8-2.7-5.2c-3.4-6.5-7.1-12.8-11.2-18.9c-0.4-0.6-0.8-1.2-1.1-1.7c-1.2-1.9-2.3-4-3.4-6
					c-1.3-2.7-2.9-5.4-4.7-7.8l-1.1-1.4c-2.5-3.2-4.5-5.8-7.6-9.1c-3.6-3.9-5.8-6.3-9-10c-2.4-2.9-5.1-5.7-8-8.1
					c-1.2-0.9-2.2-2-3-3.3c-0.7-1.1-1.5-2.1-2.4-3c-1.5-1.6-2.8-3.4-3.9-5.2c-0.9-1.4-2-3-3.4-5.1c-2.1-2.9-3.4-4.4-4.6-5.8
					c-0.9-1-1.8-2.1-3-3.7c-1.6-2-3.3-4-5.1-5.8c-0.7-0.7-1.4-1.4-2.3-2.3c-1.9-2-4.1-3.7-6.6-4.9l-0.9-0.5
					c-2.3-1.2-4.8-2.8-5.5-3.2v-52c0-4.6-1.6-7.9-4.9-9.8c-1.9-1.1-4.1-1.6-6.3-1.6H66.8c-3.6,0-6.5,1-8.4,3
					c-3.2,3.3-3.1,8.2-3.1,8.4v9.5h-1.8v7.1h1.8v7.1h-1.8V59h1.8v8.3h-1.8v4.5h1.8v32.3c-10.7-0.7-12.5,6.1-12.8,8.2
					c-0.6,3.7,1,6.7,4.5,8.9c2.7,1.5,5.5,2.9,8.3,4V138c-0.6,0-1.2,0-1.8,0c-1-0.1-1.9-0.1-2.9,0h-0.1c-2.7,0.2-5.3,0.2-8,0
					c-2.6-0.1-5.1,0.9-7,2.6c-1.7,1.4-2.7,3.5-2.8,5.7c-0.4,5.9,4.7,9,9.8,11.2c4,1.8,9.1,2,11.7,2h1.2v4.6c0,4,1.1,7,3.4,9.1
					c-0.7,0-1.5-0.1-2.1-0.2c-1.9-0.2-3.5-0.3-4.7,0.2s-5.5,3.3-3.6,10.2c1.8,6.4,9,7.9,12.5,8.6H61c3.9,0.8,7.9,1,11.9,0.5
					c1.5-0.2,3.1,0,4.5,0.6c3.9,1.1,7.9,1.7,12,1.7c1.3,0,2.6,0.4,3.7,1.2c0.3,0.2,7.8,4.8,15.1,4.8c0.5,0,0.9,0,1.4-0.1
					c1.3,4,5,7.5,9.8,11.8c1.5,1.4,3.1,2.9,4.8,4.5c1.2,4.4,4.4,7.5,7.5,10.2c1,0.9,2,1.8,2.8,2.7l1.8,1.9
					c4.3,4.6,9.6,10.3,16.9,14.4c2.4,1.4,4.8,2.5,7.4,3.4c2.6,0.8,5,2.3,6.7,4.5c3.1,3.3,6.9,5.7,11.2,7.1c2,1.6,4.3,2.9,6.7,3.8
					c1.1,0.5,2.3,1,3.6,1.6c1.6,0.8,3.1,1.8,4.4,3.1c1.1,1.1,2.3,2.1,3.6,3.1c4.3,3.3,17.4,16.8,17.5,16.9c0.1,0.1,0.2,0.1,0.3,0.1
					c0.2,0,0.4-0.2,0.4-0.4c0-0.1,0-0.2-0.1-0.3"/>
				<path class="st4" d="M249.1,222.3c0.1-0.1,0.2-0.4,0-0.5c0,0,0,0,0,0c-3.3-3.9-6.1-6.9-8.6-9.6c-5.6-5.9-9.3-9.9-11.5-16.3
					c-2.7-7.8-3.2-8.8-4.8-11.8c-0.6-1.2-1.4-2.7-2.6-5.1c-3.3-6.4-7-12.5-11-18.5c-0.4-0.6-0.8-1.1-1.1-1.7
					c-1.2-1.8-2.3-3.9-3.3-5.8c-1.3-2.7-2.8-5.3-4.6-7.7l-1.1-1.4c-2.5-3.2-4.4-5.6-7.4-8.9c-3.5-3.8-5.7-6.1-8.8-9.8
					c-2.4-2.9-5-5.6-7.8-8c-1.1-0.9-2.1-2-2.9-3.2c-0.7-1-1.5-2-2.4-2.9c-1.4-1.6-2.7-3.3-3.8-5.1c-0.9-1.4-1.9-3-3.4-5
					c-2.1-2.8-3.3-4.3-4.5-5.7c-0.9-1-1.7-2.1-2.9-3.6c-1.5-2-3.2-3.9-5.1-5.7c-0.7-0.7-1.4-1.4-2.2-2.3c-1.8-2-4-3.6-6.4-4.8
					l-0.9-0.5c-2.2-1.2-4.7-2.7-5.4-3.1V24.6c0-4.5-1.6-7.7-4.8-9.6c-1.9-1-4-1.6-6.2-1.6H74.9c-3.6,0-6.3,1-8.3,3
					c-3.1,3.2-3,8-3,8.2v9.3h-1.8v7h1.8v7h-1.8v4.4h1.8v8h-1.8v4.4h1.8v31.6c-10.4-0.7-12.3,5.9-12.6,8c-0.5,3.6,1,6.5,4.4,8.7
					c2.6,1.5,5.3,2.8,8.2,3.9v12.6c-0.6,0-1.2,0-1.8,0c-0.9-0.1-1.9-0.1-2.8,0h-0.1c-2.6,0.2-5.2,0.2-7.8,0c-2.5-0.1-5,0.9-6.9,2.5
					c-1.6,1.4-2.7,3.4-2.8,5.6c-0.3,5.8,4.7,8.8,9.6,11c3.9,1.7,8.9,2,11.4,2h1.2v4.5c0,3.9,1.1,6.9,3.3,8.9c-0.7,0-1.4-0.1-2-0.2
					c-1.8-0.2-3.4-0.3-4.6,0.2s-5.3,3.3-3.5,10c1.7,6.2,8.8,7.7,12.2,8.4h0.1c3.8,0.8,7.8,0.9,11.6,0.5c1.5-0.2,3,0,4.4,0.6
					c3.8,1.1,7.7,1.7,11.7,1.7c1.3,0,2.6,0.4,3.6,1.2c0.3,0.2,7.7,4.7,14.8,4.7c0.5,0,0.9,0,1.4-0.1c1.3,4,4.9,7.3,9.6,11.6
					c1.5,1.4,3,2.8,4.7,4.4c1.1,4.3,4.4,7.3,7.3,10c1,0.9,1.9,1.8,2.7,2.6l1.8,1.9c4.2,4.5,9.4,10.1,16.5,14.1
					c2.3,1.3,4.7,2.4,7.2,3.3c2.6,0.8,4.9,2.3,6.6,4.4c3,3.2,6.8,5.6,11,6.9c2,1.6,4.2,2.8,6.6,3.7c1.1,0.5,2.3,0.9,3.6,1.6
					c1.6,0.7,3.1,1.7,4.3,3c1.1,1.1,2.3,2.1,3.5,3c4.2,3.2,17,16.4,17.1,16.5c0.1,0.1,0.2,0.1,0.3,0.1c0.1,0,0.2,0,0.3-0.1
					c0.1-0.2,0.1-0.4,0-0.5h29.6L249.1,222.3z"/>
				<path class="st5" d="M104.4,145.8c-4.4,0-8.5,2.3-9.8,5.5c-2.7,6.5,3.1,11.2,3.2,11.2l0.1,0.1h0.1c1.6,0.4,3.2,0.6,4.8,0.6h0.6
					c1.3,0,2.5-0.2,3.7-0.6l0.2-0.1v-0.2c0.4-5.2,2.3-10.2,5.4-14.4l0.4-0.4l-0.6-0.2C110.4,146.7,104.7,145.9,104.4,145.8z
					 M106.5,162c-1.1,0.3-2.1,0.4-3.2,0.5c-1.7,0-3.4-0.2-5.1-0.6c-0.6-0.5-5.3-4.6-2.9-10.3c1.2-2.9,5-5,9.1-5
					c0.4,0.1,5.1,0.7,7.3,1.3C108.7,152.1,107,156.9,106.5,162z"/>
				<path class="st5" d="M130.2,148.8l-0.3-1.4l-0.4,1.3c-0.4,1.6-1.4,3-2.8,3.9c-0.2,0.1-0.2,0.3-0.2,0.5c0.1,0.2,0.3,0.3,0.5,0.2
					c1-0.6,1.9-1.5,2.4-2.6c-0.2,1.8-0.8,3.6-1.8,5.1c-2.4,4.4-2.3,6.9-2.3,7c0,0.2,0.2,0.4,0.4,0.4l0,0c0.2,0,0.4-0.2,0.4-0.4
					c0,0,0,0,0,0c0,0-0.1-2.4,2.2-6.6C130.8,151.8,130.2,148.9,130.2,148.8z"/>
				<path class="st5" d="M121.1,148.6c-0.1-0.1-0.4-0.2-0.5,0c0,0,0,0,0,0c-2.8,3.5-3.8,8.1-2.7,12.4c0,0.2,0.2,0.3,0.4,0.3h0.1
					c0.2,0,0.3-0.2,0.3-0.4c0,0,0,0,0,0c-1-4.1-0.1-8.4,2.5-11.7C121.3,149,121.3,148.8,121.1,148.6z"/>
				<path class="st5" d="M249.2,221.8c-3.3-3.9-6.1-6.9-8.6-9.6c-5.6-5.9-9.3-9.9-11.5-16.3c-2.7-7.8-3.2-8.8-4.8-11.8
					c-0.6-1.2-1.4-2.7-2.6-5.1c-3.3-6.4-7-12.5-11-18.5c-0.4-0.6-0.8-1.1-1.1-1.7c-1.2-1.8-2.3-3.9-3.3-5.8
					c-1.3-2.7-2.8-5.3-4.6-7.7l-1.1-1.4c-2.5-3.2-4.4-5.6-7.4-8.9c-3.5-3.8-5.7-6.1-8.8-9.8c-2.4-2.9-5-5.6-7.8-8
					c-1.1-0.9-2.1-2-2.9-3.2c-0.7-1-1.5-2-2.4-2.9c-1.4-1.6-2.7-3.3-3.8-5.1c-0.9-1.4-1.9-3-3.4-5c-2.1-2.8-3.3-4.3-4.5-5.7
					c-0.9-1-1.7-2.1-2.9-3.6c-1.5-2-3.2-3.9-5.1-5.7c-0.7-0.7-1.4-1.4-2.2-2.3c-1.8-2-4-3.6-6.4-4.7l-0.9-0.5
					c-2.2-1.2-4.7-2.7-5.4-3.1V24.6c0-4.5-1.6-7.7-4.8-9.6c-1.9-1-4-1.6-6.2-1.6H74.9c-3.6,0-6.3,1-8.3,3c-3.1,3.2-3,8-3,8.2v9.3
					h-1.8v7h1.8v7h-1.8v4.4h1.8v8h-1.8v4.4h1.8v31.6c-10.4-0.7-12.3,5.9-12.6,8c-0.5,3.6,1,6.5,4.4,8.7c2.6,1.5,5.3,2.8,8.2,3.9
					v12.6c-0.6,0-1.2,0-1.8,0c-0.9-0.1-1.9-0.1-2.8,0h-0.1c-2.6,0.2-5.2,0.2-7.8,0c-2.5-0.1-5,0.9-6.9,2.5c-1.6,1.4-2.7,3.4-2.8,5.6
					c-0.3,5.8,4.7,8.8,9.6,11c3.9,1.7,8.9,2,11.4,2h1.2v4.5c0,3.9,1.1,6.9,3.3,8.9c-0.7,0-1.4-0.1-2-0.2c-1.8-0.2-3.4-0.3-4.6,0.2
					s-5.3,3.3-3.5,10c1.7,6.2,8.8,7.7,12.2,8.4h0.1c3.8,0.8,7.8,0.9,11.6,0.5c1.5-0.2,3,0,4.4,0.6c3.8,1.1,7.7,1.7,11.7,1.7
					c1.3,0,2.6,0.4,3.6,1.2c0.3,0.2,7.7,4.7,14.8,4.7c0.5,0,0.9,0,1.4-0.1c1.3,4,4.9,7.3,9.6,11.6c1.5,1.4,3,2.8,4.7,4.4
					c1.1,4.3,4.4,7.3,7.3,10c1,0.9,1.9,1.8,2.7,2.6l1.8,1.9c4.2,4.5,9.4,10.1,16.5,14.1c2.3,1.3,4.7,2.4,7.2,3.3
					c2.6,0.8,4.9,2.3,6.6,4.4c3,3.2,6.8,5.6,11,6.9c2,1.6,4.2,2.8,6.6,3.7c1.1,0.5,2.3,0.9,3.6,1.6c1.6,0.7,3.1,1.7,4.3,3
					c1.1,1.1,2.3,2.1,3.5,3c4.2,3.2,17,16.4,17.1,16.5c0.1,0.1,0.2,0.1,0.3,0.1c0.1,0,0.2,0,0.3-0.1c0.1-0.2,0.1-0.4,0-0.5
					c-0.5-0.5-13-13.4-17.2-16.6c-1.2-0.9-2.4-1.9-3.4-3c-1.3-1.3-2.8-2.4-4.5-3.1c-1.3-0.7-2.5-1.1-3.6-1.6
					c-2.3-0.8-4.5-2.1-6.4-3.6l-0.1-0.1h-0.1c-4.1-1.3-7.7-3.6-10.7-6.7c-1.8-2.2-4.2-3.8-6.9-4.6c-2.5-0.9-4.8-2-7.1-3.3
					c-7-4-12.2-9.5-16.3-14l-1.8-1.9c-0.8-0.9-1.8-1.8-2.8-2.6c-4.2-3.9-9.1-8.3-7-16.6c0.6-3,1.8-5.7,3.6-8.2
					c1.5-2.4,3.3-5,5.2-12.7c0.9,0.2,1.8,0.4,2.6,0.7c2.3,16.2,16.3,26.1,16.4,26.2c0.1,0,0.1,0.1,0.2,0.1c0.1,0,0.2-0.1,0.3-0.2
					c0.1-0.2,0.1-0.4-0.1-0.5c0,0,0,0,0,0c-0.1-0.1-13.6-9.6-16-25.3c0.4,0.1,0.7,0.3,1.1,0.5l1.3,0.7c1.8,1.1,3.7,1.8,5.8,2.2
					c0.7,0.6,4.6,3.7,14.2,3.7c4.4-0.1,8.8-0.6,13.1-1.6c0.2,0,0.3-0.2,0.3-0.4c0,0,0,0,0,0c0-0.2-0.2-0.3-0.4-0.3
					c-15.4,3.4-23,0.4-25.7-1.2l1,0.1l0,0c0.2,0,0.4-0.2,0.4-0.4c0-0.2-0.1-0.4-0.3-0.4c0,0,0,0,0,0c-2.8,0-5.6-0.8-8-2.3
					c-0.4-0.2-0.9-0.5-1.3-0.7c-0.6-0.3-1.2-0.6-1.8-0.8l0,0c-1.1-0.4-2.2-0.7-3.3-0.9l0,0l-1.2-0.2c-1-0.2-2.2-0.4-3.6-0.7
					c-3.1-0.7-5.9-2.1-8.3-4.2l-0.1-0.1H127c-0.1,0-12.5,1-18.7-2.6c-0.7-0.4-1.6-0.9-2.7-1.4c-5.6-2.6-15-6.9-12.1-16.3
					c1.6-5.4,7.7-7.8,18.9-7.4c0,0,3.5,0.3,7.7,0.9c1.7,0.2,3.4,0.3,5.1,0.2c2.1,0,4.2,0,4.7,0.7l0.2,0.3l0.3-0.1
					c1-0.3,2.1-0.3,3.2,0c0.9,0.2,1.8,0.3,2.8,0.4l0,0c1.3,0.1,2.5,0.1,3.8-0.1c2.3,0,4.6,0.2,6.8,0.7c1.2,0.2,2.4,0.4,3.6,0.6
					c4.4,0.6,10,1.3,14.4,0.6l1.8-0.3c2.8-0.6,5.8-0.8,8.7-0.6c0.2,0,0.4-0.2,0.4-0.4c0-0.2-0.1-0.4-0.3-0.4c0,0,0,0,0,0
					c-3-0.2-5.9,0.1-8.8,0.6l-1.7,0.3c-4.3,0.6-9.8,0-14.2-0.6h-0.1c0.3-0.6,0.7-1.2,1.1-1.8c0.7-1,1.1-1.7,2-5.5
					c0.9-3.7,2.7-7.1,5.1-10c0.1-0.1,0.1-0.4,0-0.5c0,0,0,0,0,0c-0.1-0.1-0.4-0.2-0.5,0c0,0,0,0,0,0c-2.5,3-4.3,6.6-5.2,10.4
					c-0.8,3.6-1.2,4.3-1.9,5.2c-0.5,0.7-0.9,1.4-1.2,2.1l-2.7-0.5c-2.3-0.5-4.6-0.7-7-0.7c-1.1,0.1-2.2,0.2-3.3,0.1v-25.8
					c1.8-4.3,4.4-5.7,4.4-5.7c0.2-0.1,0.3-0.3,0.2-0.5c-0.1-0.2-0.3-0.3-0.5-0.2c0,0,0,0,0,0c-1.8,1.1-3.2,2.7-4.1,4.6v-9
					c1.2,1.1,2.6,1.9,4.1,2.4c0,0,0.1,0,0.1,0c0.2,0,0.3-0.1,0.4-0.3c0.1-0.2-0.1-0.4-0.2-0.5c-1.7-0.5-3.2-1.5-4.4-2.7V90.1
					c1-2.5,2.8-4.6,5-6.1c0.2-0.1,0.2-0.3,0.1-0.5c-0.1-0.2-0.3-0.2-0.5-0.1c-1.9,1.2-3.4,2.9-4.6,4.9V76.4c1,0.6,3.1,1.9,5,2.9
					l0.9,0.5c2.4,1.1,4.5,2.7,6.3,4.7c0.8,0.9,1.6,1.6,2.2,2.3c1.8,1.7,3.5,3.6,5,5.6c1.2,1.6,2.1,2.6,2.9,3.6
					c1.2,1.4,2.4,2.8,4.5,5.6c1.4,2,2.5,3.5,3.4,4.9c1.1,1.9,2.4,3.6,3.9,5.2c0.8,0.9,1.6,1.8,2.3,2.8c0.8,1.3,1.8,2.4,3,3.3
					c2.8,2.4,5.4,5,7.7,7.9c3.1,3.6,5.3,6,8.9,9.8c3,3.2,4.9,5.7,7.4,8.9l1.1,1.4c1.7,2.4,3.2,4.9,4.5,7.6c1,2,2.1,4,3.3,5.9
					l1.1,1.7c4,5.9,7.6,12,10.9,18.4c1.2,2.4,2,3.9,2.6,5.1c1.6,3,2.1,3.9,4.8,11.7c2.3,6.6,6,10.6,11.6,16.6
					c2.5,2.7,5.4,5.7,8.6,9.5c0.1,0.1,0.2,0.1,0.3,0.1c0.2,0,0.4-0.2,0.4-0.4C249.3,221.9,249.2,221.8,249.2,221.8L249.2,221.8z
					 M63.6,40.2h-1v-5.5h1V40.2z M63.6,51.5h-1v-2.9h1V51.5z M63.6,63.9h-1v-2.9h1V63.9z M55.8,112.3c-3.2-2-4.6-4.6-4.1-7.9
					c0.4-2.4,2.3-8,11.8-7.4v19C60.9,115,58.3,113.8,55.8,112.3z M51.3,147.8c-4.7-2.1-9.5-4.9-9.1-10.3c0.1-1.9,1.1-3.7,2.5-5
					c1.7-1.5,4-2.4,6.3-2.4c2.6,0.2,5.3,0.2,7.9,0h0.1c0.9-0.1,1.8-0.1,2.7,0c0.6,0,1.2,0,1.8,0v19.5
					C62,149.8,55.8,149.9,51.3,147.8L51.3,147.8z M126.8,173.5c2.5,2.1,5.4,3.6,8.5,4.3c1.5,0.3,2.6,0.5,3.6,0.7l0.8,0.2
					c-1.9,7.5-3.6,10.1-5.1,12.4c-1.8,2.5-3,5.4-3.7,8.4c-0.5,2-0.6,4-0.4,6.1c-1.4-1.3-2.7-2.5-3.9-3.7c-6-5.6-10-9.2-9.9-14.5
					c0.1-4.7-0.2-9.5-0.8-14.2C119.6,173.6,123.2,173.7,126.8,173.5z M107.8,170.7c2.3,1.2,4.8,2,7.4,2.3c0.7,4.7,1,9.5,0.9,14.3
					c0,0.9,0.1,1.9,0.3,2.8c-7.2,0.6-15.4-4.4-15.5-4.5c-1.2-0.9-2.6-1.3-4.1-1.3c-3.9,0-7.7-0.6-11.4-1.6c-1.5-0.6-3.2-0.8-4.8-0.6
					c-3.8,0.4-7.6,0.3-11.3-0.5h-0.1c-3.2-0.7-10-2.1-11.6-7.9c-1.7-6,1.6-8.4,3.1-9.1c1-0.5,2.4-0.4,4.1-0.2c1,0.1,2.1,0.2,3.3,0.2
					h0.2c3.2,0,6,0.1,10,0.3H79c3.5,0.2,6.8,1.3,9.6,3.4c0.2,0.1,0.4,0.1,0.5-0.1s0.1-0.4-0.1-0.5l0,0c-0.5-0.4-1.1-0.8-1.7-1.1
					h12.2c1.8,1,3.6,2,5.5,2.8C106.2,169.9,107.2,170.3,107.8,170.7z M130.2,146.2c-0.9-0.9-2.8-0.9-5.1-0.8c-1.7,0-3.3,0-5-0.2
					c-4.3-0.6-7.7-0.9-7.8-0.9c-7.7-0.2-13,0.8-16.2,3.1h-0.1H68.1v-114h64v112.7C131.4,146,130.8,146.1,130.2,146.2z M133.5,146.3
					c-0.3-0.1-0.5-0.1-0.7-0.1V32.6H67.3v115.4h27.9c-1.2,1.1-2.1,2.5-2.6,4.1c-2,6.6,1.5,10.8,5.8,13.7H85.8
					c-2.2-1-4.5-1.5-6.8-1.6h-0.8c-4-0.2-6.8-0.3-10-0.3h-0.1l0,0c-2.5-1.8-3.8-4.8-3.8-8.9V24.6c0-0.2-0.1-4.7,2.8-7.7
					c1.8-1.8,4.4-2.8,7.7-2.8h50.6c2,0,4,0.5,5.8,1.5c2.9,1.7,4.4,4.7,4.4,8.9v122C135,146.6,134.3,146.5,133.5,146.3L133.5,146.3z"
					/>
				<path class="st5" d="M209.5,215.2c0.1-0.1,0.2-0.4,0-0.5c0,0,0,0,0,0c-0.2-0.1-0.4-0.1-0.5,0c-8.8,9.1-18.3,13.2-27.4,11.8
					c-4.1-0.6-8-2.3-11.3-4.8l-2.1-1.9l1.5,2.4c1.7,2.3,3.8,4.2,6.3,5.7c3.7,2.4,9.8,5,18.8,5c0.7,0,1.4,0,2.2-0.1
					c0.2,0,0.4-0.2,0.4-0.4c0,0,0,0,0,0c0-0.2-0.2-0.4-0.4-0.4c0,0,0,0,0,0c-13.5,0.6-21.2-4.8-24.5-8.1c2.8,1.6,5.8,2.7,9,3.2
					C193.3,229.1,203.2,221.7,209.5,215.2z"/>
				<path class="st5" d="M198.6,252L198.6,252c0.2,0,0.4-0.1,0.4-0.3c0-0.1,1.8-8.4,12.7-16.8c0.2-0.1,0.2-0.4,0.1-0.5c0,0,0,0,0,0
					c-0.1-0.2-0.4-0.2-0.5-0.1c-11.1,8.6-12.9,16.9-13,17.2C198.2,251.8,198.3,252,198.6,252C198.5,252,198.5,252,198.6,252z"/>
				<path class="st5" d="M100,22.5c1.1,0,2.1-0.9,2.1-2.1c0-1.1-0.9-2.1-2.1-2.1S98,19.2,98,20.4c0,0,0,0,0,0
					C98,21.5,98.9,22.5,100,22.5z M100,19.1c0.7,0,1.3,0.6,1.3,1.3s-0.6,1.3-1.3,1.3c-0.7,0-1.3-0.6-1.3-1.3c0,0,0,0,0,0
					C98.7,19.7,99.3,19.1,100,19.1C100,19.1,100,19.1,100,19.1z"/>
				<path class="st5" d="M106.8,24.5H93.2c-1,0.1-1.7,0.9-1.6,1.9c0.1,0.9,0.8,1.6,1.6,1.6h13.6c1-0.1,1.7-0.9,1.6-1.9
					C108.4,25.3,107.7,24.6,106.8,24.5z M106.8,27.3H93.2c-0.6,0-1-0.4-1-1s0.4-1,1-1h13.6c0.6,0,1,0.4,1,1S107.4,27.3,106.8,27.3z"
					/>
				<g>
					<defs>
						<path id="SVGID_00000132785550054566404490000010723188222570568595_" d="M130.2,146.2c-0.9-0.9-2.8-0.9-5.1-0.8
							c-1.7,0-3.3,0-5-0.2c-4.3-0.6-7.7-0.9-7.8-0.9c-7.7-0.2-13,0.8-16.2,3.1h-0.1H68.1v-114h64v112.7
							C131.4,146,130.8,146.1,130.2,146.2z"/>
					</defs>
					<clipPath id="SVGID_00000034788909093254717770000013652598830188010680_">
						<use xlink:href="#SVGID_00000132785550054566404490000010723188222570568595_"  style="overflow:visible;"/>
					</clipPath>
					<g style="clip-path:url(#SVGID_00000034788909093254717770000013652598830188010680_);">
						<path class="st7" d="M62,36.6h73.2v109.8H62V36.6z M106.1,129.3l0.8-0.9l0.9-1c0.4-0.4,0.8-0.9,1.2-1.3l0.1-0.1l0.6-0.7
							c0.2-0.3,0.5-0.5,0.7-0.8l0.5-0.5c0.2-0.2,0.4-0.5,0.7-0.8l0.7-0.8l0.4-0.5c0.2-0.2,0.4-0.5,0.7-0.8s0.4-0.5,0.7-0.7
							s0.3-0.4,0.5-0.6l0.7-0.8c0.2-0.2,0.4-0.5,0.7-0.7c0.4-0.4,0.7-0.8,1.1-1.2l0.7-0.8l0.1-0.1c0.2-0.2,0.4-0.5,0.7-0.7l0.7-0.8
							c0.2-0.2,0.3-0.4,0.5-0.5l0.6-0.7l0.7-0.8l0.5-0.5l0.8-0.9l0.6-0.7c0.1-0.1,0.1-0.1,0.2-0.2c0.1,0,0.2-0.1,0.2-0.2
							c0.1-0.1,0.2-0.3,0.4-0.4l0.7-0.7c0.1-0.1,0.2-0.3,0.2-0.4c0-0.3,0.1-0.7,0.2-1c0-0.1,0-0.3,0-0.4c0-0.1,0-0.1,0-0.2
							c0-0.2,0-0.3,0.1-0.5l0.2-1.6c0.1-0.4,0.1-0.9,0.2-1.3s0.1-0.8,0.2-1.3s0.1-0.9,0.2-1.3s0.1-0.8,0.2-1.3s0.2-1.1,0.2-1.7
							s0.2-1.2,0.3-1.8l0.2-1l0.1-0.8c0.1-0.4,0.1-0.9,0.2-1.3c0-0.3,0.1-0.6,0.1-0.9l0.2-1l0.1-0.8c0.1-0.4,0.1-0.9,0.2-1.3
							c0.1-0.3,0.1-0.6,0.1-0.8c0.1-0.4,0.1-0.9,0.2-1.3s0.1-0.6,0.1-0.9s0.1-0.6,0.1-1c0.1-0.4,0.1-0.6,0.1-0.8
							c0.1-0.4,0.1-0.9,0.2-1.3l0.1-0.8c0.1-0.5,0.1-0.9,0.2-1.4c0-0.3,0.1-0.5,0.1-0.8c0-0.5-0.2-1-0.6-1.3
							c-0.2-0.2-0.5-0.3-0.7-0.4l-6.2-2l-10-3.3l-5.7-1.9l-4.2-1.4l-1.4-0.4c-0.3-0.1-0.7-0.2-1-0.2c-0.3,0-0.6,0.1-0.9,0.2
							l-0.6,0.2c-0.1,0-0.1-0.1-0.1-0.2c0-0.2-0.1-0.4-0.2-0.6c-0.2-0.5-0.3-1.1-0.5-1.6l-0.6-1.9l-0.5-1.9
							c-0.1-0.3-0.2-0.5-0.3-0.8c-0.3-0.5-0.9-0.8-1.5-0.6l-1.3,0.3c-0.6,0.2-1.2,0.3-1.8,0.5c-1.1,0.3-2.3,0.6-3.4,1
							c-0.9,0.3-1.9,0.6-2.8,0.9c-1.3,0.4-2.6,0.9-3.8,1.4l-3,1.2c-0.6,0.2-1.1,0.5-1.7,0.7l-1.4,0.6l-1.4,0.7l-1,0.5
							c-0.3,0.1-0.6,0.3-0.9,0.4c-0.3,0.2-0.6,0.5-0.7,0.8c-0.1,0.4-0.1,0.8-0.1,1.1c0.1,0.2,0.1,0.4,0.2,0.6
							c0.2,0.4,0.3,0.8,0.5,1.2c0.4,1,0.8,2.1,1.2,3.1s0.8,2,1.2,2.9c0,0.1,0.1,0.2,0.1,0.2l-0.2,0.1c-0.3,0.2-0.6,0.3-0.8,0.5
							c-0.4,0.2-0.5,0.8-0.3,1.2c0,0,0.1,0.1,0.1,0.1c0.1,0.1,0.3,0.3,0.4,0.3l1.4,0.8c0.2,0.1,0.4,0.2,0.6,0.3
							c0.1,0.1,0.2,0.2,0.2,0.3l0.1,0.3l0.8,2c0.3,0.8,0.7,1.6,1,2.4c0.3,0.7,0.5,1.3,0.7,2c0.1,0.4,0.2,0.9,0.3,1.3
							c0.1,0.3,0.1,0.5,0.2,0.8c0,0.3,0.1,0.6,0.1,1c0,0.2,0,0.3,0,0.4v0.2l-0.2,0.1c-0.1,0.1-0.2,0.2-0.3,0.3
							c-0.3,0.3-0.2,0.8,0.1,1.1c0,0,0.1,0.1,0.1,0.1l0.2,0.1c0,0.1,0,0.2,0,0.2c0,0.7,0,1.4,0,2.1c0,0.1,0,0.1,0,0.2
							c0,0.2,0,0.4,0,0.7c0,0.8,0,1.5,0,2.3c0,0.1,0,0.2,0,0.3c0,0.3,0,0.7,0,1c0,0.7,0,1.4,0,2.1c0,0.1,0,0.2,0,0.3
							c0,0.2,0,0.4,0,0.6c0,0.8,0,1.6,0,2.4c0,0.1,0,0.2,0,0.3c0,0.1,0,0.3,0,0.4c0,0.5,0,1.1,0,1.6c0,0.1,0,0.2,0,0.3
							c-0.1,0.1-0.1,0.3-0.1,0.4v0.8c0,0,0,0.1,0,0.1c0,0.3,0.2,0.5,0.5,0.5c0.1,0,0.2,0,0.3-0.1l0.1-0.1l1.8-1.3
							c0.1,0,0.1-0.1,0.2-0.2c0-0.1,0.1-0.2,0.2-0.2l2-1.5l2.2-1.6l2.6-1.9l3-2.2l1.5-1.3l0.4-0.3l0.3,0.1l1.9,0.8l2.9,1.2l2.4,1
							l2.8,1.1l0.2,0.1c0,0.1,0,0.1,0,0.2c0,0.6,0,1.2,0,1.8c0.1,0.9,0,1.9,0.1,2.8s0,1.9,0.1,2.9s0,1.9,0.1,2.8s0,1.9,0.1,2.9
							s0,1.9,0.1,2.9s0,2,0.1,2.9s0,1.9,0.1,2.8c0,0.3,0,0.7,0,1c0,0.1,0,0.2-0.1,0.3c-0.1,0.2-0.1,0.3-0.1,0.5c0,0.1,0,0.3,0,0.4
							c0,0.2,0,0.4,0,0.6c0,0.1,0,0.1,0,0.2c0,0.3,0.3,0.6,0.6,0.6c0.1,0,0.1,0,0.2,0c0.1,0,0.1-0.1,0.2-0.1
							c0.2-0.2,0.3-0.4,0.5-0.6c0.4-0.4,0.8-0.9,1.2-1.3C106,129.8,106.1,129.6,106.1,129.3z"/>
						<path class="st8" d="M106.1,129.3c0,0.2-0.1,0.4-0.2,0.5c-0.4,0.4-0.8,0.9-1.2,1.3c-0.2,0.2-0.3,0.4-0.5,0.6
							c-0.1,0.1-0.1,0.1-0.2,0.1c-0.3,0.1-0.7,0-0.8-0.3c0-0.1,0-0.1,0-0.2c0-0.1,0-0.1,0-0.2c0-0.2,0-0.4,0-0.6c0-0.1,0-0.3,0-0.4
							c0-0.2,0-0.4,0.1-0.5c0.1-0.1,0.1-0.2,0.1-0.3c0-0.3,0-0.7,0-1c-0.1-0.9,0-1.9-0.1-2.8s0-2-0.1-2.9s0-1.9-0.1-2.9
							s0-1.9-0.1-2.9s0-1.9-0.1-2.8s0-1.9-0.1-2.9s0-1.9-0.1-2.8c0-0.6,0-1.2,0-1.8c0-0.1,0-0.1,0-0.2l-0.2-0.1l-2.9-1.1l-2.4-1
							l-2.9-1.2l-1.9-0.8l-0.3-0.1l-0.4,0.3l-1.8,1.3l-3,2.2l-2.6,1.9l-2.2,1.6l-2,1.5c-0.1,0-0.1,0.1-0.2,0.2
							c0,0.1-0.1,0.1-0.2,0.2l-1.7,1.3l-0.1,0.1c-0.2,0.2-0.6,0.1-0.7-0.1c-0.1-0.1-0.1-0.2-0.1-0.3c0,0,0-0.1,0-0.1v-0.8
							c0-0.2,0-0.3,0.1-0.4c0-0.1,0-0.2,0-0.3c0-0.5,0-1.1,0-1.6c0-0.1,0-0.3,0-0.4c0-0.1,0-0.2,0-0.3c0-0.8,0-1.6,0-2.4
							c0-0.2,0-0.4,0-0.6c0-0.1,0-0.2,0-0.3c0-0.7,0-1.4,0-2.1c0-0.3,0-0.7,0-1c0-0.1,0-0.2,0-0.3c0-0.8,0-1.5,0-2.3
							c0-0.2,0-0.4,0-0.7c0-0.1,0-0.1,0-0.2c0-0.7,0-1.4,0-2.1c0-0.1,0-0.2,0-0.2l-0.2-0.1c-0.4-0.2-0.5-0.6-0.3-1
							c0-0.1,0.1-0.1,0.1-0.1c0.1-0.1,0.2-0.2,0.3-0.3l0.2-0.1V94c0-0.2,0-0.3,0-0.4c0-0.3-0.1-0.6-0.1-1s-0.1-0.5-0.2-0.8
							c-0.1-0.4-0.2-0.9-0.3-1.3c-0.2-0.7-0.4-1.3-0.7-2c-0.3-0.8-0.6-1.6-1-2.4l-0.8-2l-0.1-0.3c0-0.1-0.1-0.2-0.2-0.3
							c-0.2-0.1-0.4-0.2-0.6-0.3l-1.4-0.8c-0.2-0.1-0.3-0.2-0.4-0.3c-0.3-0.4-0.3-0.9,0.1-1.2c0,0,0.1-0.1,0.1-0.1
							c0.3-0.2,0.6-0.3,0.8-0.5L73,80c0-0.1,0-0.2-0.1-0.2c-0.4-1-0.8-2-1.2-2.9s-0.8-2.1-1.2-3.1c-0.2-0.4-0.3-0.8-0.5-1.2
							c-0.1-0.2-0.1-0.4-0.2-0.6c-0.1-0.4-0.1-0.8,0.1-1.1c0.1-0.4,0.4-0.7,0.7-0.8c0.3-0.2,0.6-0.3,0.9-0.4l1-0.5l1.4-0.7l1.8-0.5
							c0.6-0.2,1.1-0.5,1.7-0.7l3-1.2c1.3-0.5,2.6-0.9,3.8-1.4c0.9-0.3,1.9-0.6,2.8-0.9c1.1-0.3,2.3-0.7,3.4-1
							c0.6-0.2,1.2-0.3,1.8-0.5l1.3-0.3c0.6-0.2,1.2,0.1,1.5,0.6c0.2,0.2,0.3,0.5,0.3,0.8l0.5,1.9l0.6,1.9c0.2,0.5,0.3,1.1,0.5,1.6
							c0.1,0.2,0.1,0.4,0.2,0.6c0,0.1,0.1,0.2,0.1,0.2l0.5-0.1c0.3-0.1,0.6-0.1,0.9-0.2c0.3,0,0.7,0.1,1,0.2l1.4,0.5l4.2,1.4
							l5.7,1.9l10,3.3l6.2,2c0.3,0.1,0.5,0.2,0.7,0.4c0.4,0.3,0.6,0.8,0.6,1.3c0,0.3,0,0.5-0.1,0.8c-0.1,0.5-0.1,0.9-0.2,1.4
							l-0.1,0.8c-0.1,0.4-0.1,0.9-0.2,1.3c-0.1,0.3-0.1,0.6-0.1,0.8s-0.1,0.6-0.1,1s-0.1,0.6-0.1,0.9s-0.1,0.9-0.2,1.3
							c0,0.3-0.1,0.6-0.1,0.8c-0.1,0.4-0.1,0.9-0.2,1.3l-0.1,0.8l-0.2,1c0,0.3-0.1,0.6-0.1,0.9c-0.1,0.4-0.1,0.9-0.2,1.3l-0.1,0.8
							l-0.2,1c-0.1,0.6-0.2,1.2-0.3,1.8s-0.2,1.1-0.2,1.7s-0.1,0.8-0.2,1.3s-0.1,0.9-0.2,1.3s-0.1,0.8-0.2,1.3s-0.1,0.9-0.2,1.3
							l-0.2,1.6c0,0.2,0,0.3-0.1,0.5c0,0.1,0,0.1,0,0.2c0,0.1,0,0.3,0,0.4c0,0.3-0.1,0.7-0.2,1c0,0.2-0.1,0.3-0.2,0.4l-0.7,0.7
							c-0.1,0.1-0.2,0.3-0.4,0.4c-0.1,0.1-0.1,0.1-0.2,0.2c-0.1,0-0.2,0.1-0.2,0.2l-0.6,0.7l-0.8,0.9l-0.5,0.5l-0.7,0.8l-0.6,0.7
							c-0.2,0.2-0.3,0.3-0.5,0.5l-0.7,0.8c-0.2,0.2-0.4,0.5-0.7,0.7l-0.1,0.1l-0.7,0.8c-0.4,0.4-0.7,0.8-1.1,1.2
							c-0.2,0.2-0.4,0.5-0.7,0.7l-0.7,0.8c-0.2,0.2-0.3,0.4-0.5,0.6s-0.4,0.5-0.7,0.7s-0.4,0.5-0.7,0.8l-0.4,0.5l-0.7,0.8
							c-0.2,0.2-0.4,0.5-0.7,0.8l-0.5,0.5c-0.2,0.2-0.5,0.5-0.7,0.8l-0.6,0.7l-0.1,0.1c-0.4,0.4-0.8,0.9-1.2,1.3l-0.9,1L106.1,129.3
							z M123.6,109.7L123.6,109.7L123.6,109.7c0.2-0.1,0.3-0.3,0.4-0.4l0.1-0.1c0.2-0.1,0.3-0.3,0.3-0.5v-0.1c0.1,0,0.1-0.1,0-0.2
							v0.2l-0.3,0.6l-0.1,0.1C123.8,109.4,123.7,109.5,123.6,109.7L123.6,109.7L123.6,109.7L123.6,109.7c-0.1,0.1-0.2,0.2-0.2,0.3
							l0,0C123.4,110,123.5,109.9,123.6,109.7L123.6,109.7z M122.6,109.6L122.6,109.6c0.2-0.2,0.2-0.2,0.3-0.3
							C122.8,109.4,122.6,109.5,122.6,109.6L122.6,109.6L122.6,109.6z M79.1,110.5c0.2,0,0.3-0.1,0.4-0.3l0,0
							C79.3,110.3,79.2,110.4,79.1,110.5L79.1,110.5L79.1,110.5z M99.3,85.1l0.2-0.1l1.8-1.2l1.2-0.8l0.2-0.1l-0.2-0.1
							c-0.5-0.1-1-0.2-1.5-0.3c-0.4-0.1-0.7,0-1.1,0.1c-0.1,0-0.2,0.2-0.2,0.3c-0.1,0.5-0.2,1-0.3,1.4
							C99.4,84.5,99.3,84.8,99.3,85.1C99.3,85.1,99.3,85.1,99.3,85.1z M97,70.1h-0.1l-0.7,0.2c-1.5,0.5-3,1-4.5,1.6
							c-0.5,0.2-1,0.4-1.6,0.6c-1.3,0.5-2.7,1-4,1.6l-1.8,0.8c-0.5,0.2-1,0.5-1.5,0.7s-1.2,0.6-1.8,0.9S80,77,79.6,77.2l-1.1,0.6
							l-0.7,0.4c-0.4,0.2-0.8,0.5-1.2,0.7c-0.7,0.4-1.3,0.8-2,1.2c-0.1,0-0.1,0.1-0.2,0.1c-0.2,0.1-0.4,0-0.5-0.1c0,0,0-0.1,0-0.1
							l-0.3-0.8c-0.3-0.7-0.6-1.4-0.8-2.2L72,75c-0.4-0.9-0.7-1.9-1.1-2.8c-0.1-0.3-0.1-0.6,0-0.9c0-0.5,0.3-0.9,0.7-1.1l1.4-0.7
							l2-0.9l0.7-0.3l0.9-0.4l1.3-0.5l1.1-0.4l1.9-0.7l1-0.4c0.4-0.2,0.8-0.3,1.3-0.5l0.8-0.2c0.4-0.2,0.8-0.3,1.3-0.5
							s0.9-0.3,1.3-0.4c0.6-0.2,1.2-0.4,1.8-0.6c0.8-0.2,1.6-0.5,2.4-0.7s1.6-0.5,2.4-0.7c0.4-0.1,0.9-0.2,1.3-0.3
							C94.2,62,94,62,93.7,62l-0.3,0.1l-1.9,0.5c-0.5,0.1-1,0.2-1.4,0.4c-1,0.3-2,0.6-3,0.9s-1.9,0.6-2.8,0.9s-2,0.6-2.9,1
							c-0.5,0.2-0.9,0.3-1.4,0.5c-0.6,0.2-1.3,0.5-1.9,0.8l-1.5,0.6L75,68.3c-0.6,0.3-1.2,0.5-1.9,0.8c-0.3,0.2-0.6,0.3-0.9,0.4
							L71,70.1c-0.5,0.3-0.8,0.8-0.8,1.4c0,0.3,0.1,0.7,0.2,1l1,2.4c0.4,1,0.8,1.9,1.1,2.9l0.8,1.9c0,0.1,0.1,0.2,0.1,0.2
							c0.2,0.1,0.4,0,0.6,0.2C74,80.3,74,80.3,74,80.3c-0.1,0-0.2-0.1-0.3-0.1c-0.1,0-0.1,0-0.2,0l-1,0.6c-0.1,0.1-0.2,0.1-0.2,0.2
							c-0.2,0.2-0.3,0.5-0.2,0.8c0,0.1,0.1,0.1,0.1,0.2c0.1,0.1,0.3,0.3,0.4,0.3l1.7,0.9c0.1,0,0.2,0.1,0.3,0.2
							c0.4,0.2,0.7,0.4,1.1,0.7l0.2,0.1c0.1,0.1,0.2,0.1,0.4,0.2l0.8,0.5l1.2,0.7l2,1.1l1.8,1l2,1.1l1.9,1c0.6,0.3,1.3,0.7,1.9,1
							c0.5,0.3,1,0.5,1.4,0.8h0.1l1.2,0.7l1.9,1l1.8,1l2,1.1l1.8,1l1.8,1.2l1.5,0.8c0.4,0.2,0.8,0.5,1,0.9c0.1,0.2,0.2,0.4,0.2,0.5
							c0,0.3,0.1,0.6,0.1,0.9c0,0.7,0,1.4,0,2.1c0,0.1,0,0.2,0,0.3s0,0.2,0,0.4c0,0.7,0,1.4,0,2.1c0,0.1,0,0.2,0,0.3
							c0.1,0.4,0,0.8,0.1,1.2c0,1,0,2,0,2.9s0,1.9,0,2.8s0,1.8,0,2.7s0,1.9,0.1,2.9s0,1.9,0.1,2.8s0,1.9,0,2.8s0,1.9,0.1,2.8
							c0,0.3,0,0.7,0,1s0,0.7,0,1c0,0.3,0,0.7,0,1c0,0,0,0.1,0,0.1c0,0,0,0.1,0.1,0.1c0.1,0.1,0.3,0.2,0.5,0.1
							c0.2-0.1,0.2-0.2,0.2-0.4c0-0.2,0-0.4,0-0.6c0-0.5,0-0.9-0.1-1.4c0-1.1,0-2.3,0-3.4c0-0.4,0-0.7,0-1.1c0-1.1,0-2.1,0-3.2
							c0-0.3,0-0.6,0-0.9c0-1.1,0-2.2,0-3.4c0-0.3,0-0.6,0-0.9c0-1.2,0-2.3,0-3.5c0-0.1,0-0.2,0-0.2c0-0.3,0-0.6,0-0.9v-0.7
							c0-0.7,0-1.4,0-2.1c0-0.1,0.1-0.3,0.2-0.4l1.4-1.1l0.8-0.6l1.4-1.1l0.9-0.7l0.7-0.6l1-0.8l0.8-0.7l1-0.8l0.8-0.7l0.8-0.7
							l0.9-0.8l1-0.9l0.5-0.4c0.2-0.2,0.4-0.3,0.6-0.5l0.6-0.5l0.8-0.7l0.8-0.7l0.1-0.1c0.2-0.2,0.4-0.4,0.7-0.6l0.8-0.7l0.1-0.1
							l0.7-0.6c0.3-0.3,0.6-0.6,0.9-0.8s0.6-0.5,0.8-0.8l0.8-0.7l1.2-1.2c0.5-0.5,0.9-0.9,1.4-1.4c0.2-0.2,0.5-0.4,0.7-0.7
							c0.2-0.1,0.3-0.3,0.5-0.5c0-0.1-0.1-0.1-0.1-0.2c-0.1-0.1-0.3-0.1-0.4-0.1c-0.1,0.1-0.2,0.2-0.3,0.3c-0.1,0.2-0.2,0.3-0.3,0.4
							c-0.1,0.1-0.2,0.2-0.3,0.3c-0.5,0.5-1,1-1.5,1.4c-0.4,0.3-0.7,0.7-1,1s-0.8,0.7-1.1,1.1l0,0l-1.1,1l-0.8,0.8c0,0,0,0-0.1,0
							l-0.7,0.6l-0.7,0.6l-0.9,0.8l-0.1,0.1l-0.8,0.7c0,0-0.1,0.1-0.1,0.1l-0.9,0.8l-0.8,0.7l-0.9,0.8l-0.6,0.5l-0.7,0.6
							c-0.4,0.3-0.7,0.6-1.1,0.9l-1.3,1l-1.3,1.1l-1,0.8l-2,1.5l-1.7,1.3c-0.2,0.2-0.5,0.3-0.8,0.2l0,0l0.1,0.1
							c-0.1,0.1-0.2,0.3-0.1,0.4c0,0.1,0,0.2,0,0.2c0,0.1,0,0.2,0,0.3c0,0,0,0-0.1,0.1c0,0,0-0.1-0.1-0.1c0-0.1,0-0.2,0-0.2v-2.6
							c0-0.1,0-0.2,0-0.2c0-0.2,0-0.5,0-0.7c0-0.8,0-1.5,0-2.3c0-0.4,0-0.8,0-1.2c-0.1-0.4-0.2-0.8-0.4-1.2c-0.4-0.5-0.9-0.8-1.4-1
							l-1.5-0.8l-1.6-0.8l-1.4-0.7l-2-1.1l-0.2-0.1l-1.8-1l-1.2-0.7l-0.8-0.4c-0.4-0.2-0.9-0.5-1.3-0.7c-0.3-0.1-0.6-0.3-0.8-0.4
							L88,89.8L86.4,89l-1.6-0.8l-1.9-1l-0.8-0.4c-0.6-0.3-1.2-0.7-1.8-1l-1.2-0.6l-0.9-0.5l-1.9-1c-0.3-0.2-0.6-0.3-0.9-0.5h-0.1
							c-0.3-0.2-0.6-0.4-0.8-0.5c-0.2-0.1-0.3-0.1-0.5-0.2c-0.4-0.2-0.7-0.4-1.1-0.6c-0.1,0-0.1-0.1-0.2-0.2c0,0,0-0.1,0-0.1
							c0.2-0.1,0.3-0.2,0.5-0.3l0.5-0.2c0.1-0.1,0.2-0.2,0.3-0.3c0,0,0-0.1,0.2-0.1s0,0.1,0,0.1s-0.1,0.2-0.1,0.2
							c-0.1,0.2-0.1,0.4,0,0.6c0.1,0.2,0.2,0.5,0.3,0.7c0,0.1,0.1,0.2,0.2,0.3l0.6,0.3c0,0,0.1,0.1,0.2,0c0,0,0-0.1,0-0.1
							c-0.1-0.4-0.3-0.7-0.4-1.1l-0.4-1c0-0.1-0.1-0.1,0-0.2c0.1,0,0.2,0,0.3-0.1c0.2-0.1,0.4-0.2,0.6-0.3c0.9-0.5,1.8-1.1,2.8-1.6
							l0.7-0.4c0.5-0.3,1.1-0.6,1.6-0.9c1.2-0.6,2.4-1.3,3.7-1.8c0.7-0.3,1.3-0.6,2-0.9l2.3-1c0.7-0.3,1.5-0.6,2.2-0.9
							c0.6-0.2,1.1-0.4,1.7-0.6s1.4-0.5,2.1-0.8s1.2-0.4,1.8-0.6c0.2-0.1,0.5-0.1,0.7-0.2c0.1,0,0.1,0,0.2-0.1l0.2-0.2h0.1
							c0,0.2-0.2,0.3-0.2,0.4c0,0,0,0.1,0,0.1l0.4,1.3c0.2,0.7,0.4,1.3,0.6,2l0.8,2.9c0.2,0.7,0.3,1.3,0.4,2c0,0.2,0.1,0.4,0.1,0.7
							c0,0.3,0.1,0.6,0.1,0.9c0,0.4,0,0.7,0,1.1c0,0.3-0.1,0.6-0.1,0.9s-0.2,0.8-0.2,1.3c-0.1,0.6-0.2,1.2-0.3,1.8c0,0,0,0.1,0,0.1
							c0.1,0,0.2-0.1,0.3-0.2c0.1-0.1,0.1-0.2,0.2-0.3l0.3-1.4c0.1-0.3,0.1-0.6,0.2-0.9c0-0.1,0.1-0.2,0.2-0.3
							c0.2-0.1,0.4-0.2,0.7-0.2c0.3,0,0.6,0,0.9,0.1c0.5,0.1,0.9,0.2,1.4,0.3c0.1,0,0.2,0,0.2,0c0.2-0.1,0.3-0.2,0.4-0.3l-0.3-0.1
							c-0.6-0.1-1.3-0.2-1.9-0.4c-0.4-0.1-0.8-0.1-1.1,0l-0.2,0.1c0,0.3,0,0.3-0.2,0.4s0-0.1,0-0.2s0-0.2,0-0.3c0-0.4,0-0.8,0-1.1
							c0-0.1,0-0.1,0-0.2c0-0.2,0-0.3,0-0.5c0-0.1,0-0.2,0-0.3c0-0.1,0-0.2,0-0.3c0-0.3-0.1-0.7-0.2-1c-0.1-0.6-0.2-1.2-0.4-1.7
							c-0.2-0.6-0.3-1.2-0.5-1.8c-0.2-0.8-0.4-1.5-0.7-2.3l-0.6-2.2c0-0.1-0.1-0.3-0.1-0.4c0.1,0.1,0.3,0.1,0.4,0l0.4-0.1
							c0.2-0.1,0.4-0.1,0.6-0.1c0.3,0,0.6,0,0.9,0.1l7.4,2.5l10.2,3.4l7.2,2.4l2.3,0.8l0.7,0.3c0.3,0.2,0.5,0.6,0.4,1
							c0,0.3-0.1,0.5-0.1,0.8l-0.2,1.4c-0.1,0.4-0.1,0.8-0.2,1.3c-0.1,0.6-0.2,1.3-0.3,1.9c0,0.2,0,0.3,0.1,0.5c0,0,0,0,0,0.1
							c0,0.2,0.2,0.2,0.3,0.3c0-0.1,0.1-0.2,0.1-0.3l0.2-1.2l0.2-1.4c0-0.3,0.1-0.6,0.1-0.9s0.1-0.6,0.1-0.9s0.1-0.9,0.2-1.3
							c0.1-0.3,0-0.7-0.2-1c-0.1-0.2-0.2-0.3-0.4-0.5c-0.2-0.2-0.4-0.3-0.7-0.4l-6.5-2.2L110.4,73l-10.6-3.5
							c-0.4-0.1-0.7-0.2-1.1-0.2c-0.4,0-0.9,0.1-1.3,0.3c-0.1,0.1-0.1,0.2-0.2,0.3C97.2,70,97.1,70,97,70.1L97,70.1z M126.6,87.8
							l-0.1,0.1l-0.9,0.9c-0.6,0.6-1.1,1.2-1.7,1.7c-0.2,0.2-0.5,0.5-0.7,0.7l-1,1l-1.2,1.1l-0.6,0.5l-1,0.9l-0.1,0.1
							c-0.3,0.2-0.5,0.4-0.8,0.7l-0.7,0.7c-0.2,0.2-0.3,0.3-0.5,0.4l-1.3,1.1l-1.3,1.2l-0.5,0.4l-0.6,0.5l-0.5,0.4l-1.4,1.1
							c-0.4,0.4-0.9,0.7-1.3,1.1l-1.4,1.1l-1.5,1.2l-1.3,1c-0.6,0.4-1.1,0.9-1.7,1.3l-0.6,0.5c0,0.5,0,1.1,0,1.6c0,0.4,0,0.7,0,1.1
							c0,0.2,0,0.3,0,0.5c0,1,0,2,0,3c0,0.6,0,1.1,0,1.7s0,1,0,1.5s0,1,0,1.5c0,1,0,2,0,3c0,0.4,0,0.8,0,1.1c0,1,0,2.1,0,3.1
							c0,0.3,0,0.7,0,1c0,0.9,0,1.9,0,2.8c0,0.1,0,0.2,0,0.3c0.3-0.2,0.5-0.6,0.9-0.9l0.2,0.2c0.1-0.1,0.2-0.2,0.2-0.3l0.8-0.9
							l0.1-0.1c0.2-0.3,0.5-0.5,0.7-0.8l0.8-0.9l0,0l0.7-0.8c0.3-0.3,0.6-0.6,0.9-0.9s0.4-0.4,0.5-0.6s0.5-0.5,0.7-0.8l0.8-0.9
							l0.5-0.6c0.2-0.3,0.5-0.6,0.8-0.8l0.8-0.9l0.5-0.6l0.7-0.8l1-1.1l1.1-1.2l1-1.1l1.1-1.2l1-1.1l1-1.1l1.1-1.2
							c0.1-0.1,0.2-0.2,0.2-0.4c0-0.1,0-0.3,0.1-0.3c0.2-0.2,0.3-0.3,0.5-0.5c0.3-0.3,0.5-0.7,0.5-1.1c0-0.2,0.1-0.4,0.3-0.6
							c0,0,0.1-0.1,0.1-0.1C124.7,100.8,125.6,94.3,126.6,87.8L126.6,87.8z M126.4,86.7l-0.3-0.1l-1.2-0.2l-2.9-0.6l-2.7-0.5
							l-2.9-0.6l-2.6-0.5l-1.5-0.3l-2.9-0.6l-2.3-0.5l-1.9-0.4l-1.2-0.2c-0.2-0.1-0.5,0-0.7,0.1c-0.2,0.1-0.3,0.2-0.5,0.4
							c-0.2,0.2-0.4,0.3-0.7,0.5l-2.8,1.9c-0.1,0.1-0.1,0.1-0.2,0.1c-0.2,0.1-0.3,0.1-0.4,0.2c-0.2,0.2-0.4,0.3-0.6,0.5l-2.1,1.3
							c-0.3,0.2-0.6,0.4-0.9,0.6L93,89.3l-2,1.2l-0.7,0.4l0,0l1,0.5l1,0.5c0.6,0.3,1.2,0.7,1.8,1l1.2,0.6l0.8,0.4l1.8,1l1.2,0.6
							l0.8,0.4l2,1.1l0.6,0.3c0.1,0.1,0.3,0.2,0.4,0.3c0.4,0.3,0.6,0.7,0.8,1.1c0.2,0.3,0.2,0.7,0.2,1c0,0.1,0,0.2,0,0.3
							c0,0.1,0,0.3,0,0.4v3.5c0,0.1,0,0.2,0,0.3v0.4c0,0.2,0,0.3,0,0.5v0.2c0.2,0.1,0.5,0.1,0.7-0.1c0.5-0.4,1.1-0.8,1.6-1.2
							l1.2-0.9l1.7-1.4c0.6-0.5,1.3-1,1.9-1.5l1.9-1.5l1.3-1.1l0.4-0.3l0.8-0.7l0.9-0.8l0.6-0.6c0.2-0.2,0.3-0.3,0.5-0.4l0.6-0.5
							l0.6-0.5c0.3-0.3,0.7-0.6,1-0.9s0.8-0.8,1.3-1.1s0.8-0.7,1.2-1.1s0.9-0.8,1.4-1.3s1.1-1.1,1.7-1.6l0.6-0.6
							c0.2-0.2,0.3-0.3,0.5-0.5C126.2,86.9,126.3,86.8,126.4,86.7L126.4,86.7z M90.1,90.7c2.8-1.7,5.6-3.3,8.3-5.1
							c0-0.1,0-0.2,0.1-0.2c0.1-0.4,0.1-0.7,0.2-1.1c0.1-0.8,0.3-1.6,0.4-2.3c0-0.3,0.1-0.5,0.1-0.8c0-0.6,0-1.1,0-1.7
							c0-0.3-0.1-0.7-0.1-1s-0.1-0.7-0.2-1s-0.2-0.9-0.4-1.3c-0.3-0.9-0.5-1.9-0.8-2.8s-0.5-1.7-0.8-2.6c0-0.1-0.1-0.2-0.1-0.3h-0.2
							L95,70.9l-2.4,0.8l-1.8,0.8c-0.9,0.3-1.7,0.7-2.6,1l-1.6,0.7c-0.6,0.2-1.1,0.5-1.6,0.7s-1.2,0.5-1.7,0.8
							c-1.7,0.8-3.3,1.6-5,2.5c-0.7,0.4-1.5,0.8-2.2,1.2l-1.5,0.9c-0.1,0-0.1,0.1-0.2,0.2l0.1,0.3c0.2,0.6,0.5,1.2,0.7,1.7
							c0.1,0.2,0.2,0.4,0.4,0.5l0.2,0.1c0.4,0.2,0.8,0.4,1.1,0.6l1.8,1l1.2,0.6l0.8,0.4l1.7,0.9l1.9,1l0.9,0.5l1.8,1l1.2,0.6
							l0.8,0.4L90.1,90.7z M126.5,86.5c0.1,0,0.3-0.1,0.3-0.2c0-0.1,0-0.2,0.1-0.3c0-0.3,0.1-0.6,0.1-0.9s0.1-0.9,0.2-1.3l0.2-1.3
							c0.1-0.7,0.2-1.3,0.3-2c0.1-0.5-0.2-0.9-0.7-1.1l-0.7-0.3l-9.6-3.2l-9.9-3.4l-4.5-1.5l-2.8-0.9C99.3,70,99,70,98.8,70
							c-0.4,0-0.8,0.1-1.2,0.3l0,0l0.1,0.5c0.2,0.5,0.3,1,0.5,1.6l0.4,1.4c0.2,0.5,0.3,1,0.4,1.5s0.3,1,0.4,1.5
							c0.1,0.3,0.2,0.6,0.2,0.9c0.1,0.4,0.2,0.9,0.2,1.3c0.1,0.3,0.1,0.7,0.1,1c0,0.4,0,0.8,0,1.2c0,0.1,0,0.2,0,0.3s0,0.1,0,0.1
							c0.1,0,0.2,0,0.3,0c0.3-0.1,0.7-0.1,1,0c0.6,0.1,1.1,0.2,1.7,0.3c0.3,0.1,0.7,0.1,1,0.1c0.1,0,0.1,0,0.2,0l4.7,0.9l3,0.6
							l3,0.6l3.3,0.7c1,0.2,2,0.4,3,0.6l3.1,0.6L126.5,86.5z M97.2,69.8c0,0,0-0.1,0-0.2c-0.2-0.5-0.3-1-0.4-1.5
							c-0.2-0.8-0.4-1.5-0.7-2.3l-0.7-2.4c-0.1-0.3-0.2-0.7-0.4-1c-0.2-0.3-0.5-0.4-0.8-0.3l-0.5,0.1L91.3,63
							c-0.3,0.1-0.7,0.2-1,0.3c-0.8,0.2-1.6,0.4-2.4,0.7L87,64.3l-1.2,0.4l-0.6,0.2l-1.5,0.5h-0.1l-1.2,0.4l-0.3,0.1L80,66.7
							c-0.8,0.3-1.6,0.6-2.3,0.9s-1.4,0.6-2,0.9l-1.8,0.8L72.5,70l-0.2,0.1l-0.8,0.4c-0.1,0-0.1,0.1-0.2,0.1
							c-0.3,0.3-0.4,0.7-0.3,1.1c0,0.2,0.1,0.5,0.2,0.7c0.1,0.3,0.3,0.6,0.4,0.9c0.4,0.9,0.7,1.9,1.1,2.8l1.1,2.7l0.4,1
							c0.1,0.1,0.1,0.3,0.3,0.3l0.2-0.1l1.1-0.6c0.4-0.2,0.8-0.5,1.2-0.7c0.6-0.3,1.2-0.7,1.8-1s1.2-0.7,1.8-1L84,75h0.1l0.9-0.4
							l0.8-0.3l1.5-0.6c0.8-0.3,1.5-0.6,2.3-0.9s1.5-0.6,2.2-0.8s1.3-0.5,1.9-0.7l1.8-0.6l1.3-0.4C97,70,97.1,69.9,97.2,69.8z
							 M102.8,105c0-0.1,0-0.1,0-0.2c0-0.7,0-1.4,0-2.1c0-0.1,0-0.1,0-0.2s0-0.2,0-0.3c0-0.7,0-1.4,0-2.1c0-0.2,0-0.4-0.1-0.6
							c-0.2-0.5-0.5-0.9-1-1.2c-0.2-0.1-0.4-0.2-0.6-0.3l-1.9-1l-1.7-0.9l-0.7-0.4l-1.5-0.8l-0.9-0.5l-1.9-1l-0.7-0.4l-1.7-1
							l-0.3-0.2c-0.2-0.1-0.4-0.2-0.6-0.3L89,91.5l-1.2,0.8c-0.6,0.3-1.2,0.7-1.8,1l-1.8,1l-0.8,0.4l-1.9,1l-0.6,0.3c0,0,0,0,0,0.1
							l21.7,8.7L102.8,105z M91.6,101.7l-0.2-0.1l-1-0.4l-2.4-1l-3.4-1.4l-3.3-1.4l-2.4-1c-0.1,0-0.2,0-0.3,0c0,0.1,0,0.1,0,0.2
							c0,0.8,0,1.7-0.1,2.5s0,1.6,0,2.4s0,1.6-0.1,2.4s0,1.6-0.1,2.4s0,1.6-0.1,2.4c0,0.6,0,1.2,0,1.8c0,0.1,0,0.1,0,0.2
							c0.4-0.2,0.7-0.5,1.1-0.7l0.2,0.2L91.6,101.7z M89,91.4l-1.8-1l-1.9-1l-2-1.1l-1.5-0.8l-0.8-0.4l-1.4-0.8
							c-0.6-0.3-1.1-0.6-1.6-0.9c-0.2-0.1-0.5-0.2-0.7-0.4l-1.1-0.6c-0.1,0-0.1-0.1-0.2-0.1v0.2l0.4,1c0.3,0.8,0.6,1.5,0.9,2.3
							c0.2,0.5,0.4,1,0.5,1.5c0.3,0.9,0.6,1.9,0.8,2.9c0.1,0.4,0.1,0.7,0.2,1.1c0,0,0,0.1,0,0.1c0,0.2,0,0.5,0,0.7v1
							c0,0.1,0,0.2,0,0.3c0.6,0.3,1.2,0.5,1.8,0.7c0.1-0.1,0.2-0.1,0.3-0.2l1.6-0.9c0.3-0.2,0.5-0.3,0.8-0.4l0.7-0.4l1.7-0.9
							c0.4-0.2,0.8-0.4,1.1-0.6l1.4-0.8L89,91.4z M124.4,107.5c0-0.1,0-0.2,0-0.3l0.1-0.8l0.2-1l0.1-0.8l0.2-1.3l0.2-1.3l0.2-1
							l0.1-0.8c0-0.3,0.1-0.7,0.1-1s0.1-0.9,0.2-1.3l0.2-1l0.1-0.8c0.1-0.3,0.1-0.6,0.1-1s0.1-0.9,0.2-1.3s0.1-0.8,0.2-1.3l0.2-1
							l0.2-1c0-0.3,0.1-0.5,0.1-0.8s0.1-0.6,0.1-1c0.1-0.5,0.2-1,0.2-1.6c0-0.1,0-0.2,0-0.3c-0.3,0.2-0.4,0.5-0.6,0.6
							c-0.1,0.3-0.1,0.7-0.2,1l-0.2,1l-0.2,1.2c0,0.3-0.1,0.6-0.1,1s-0.1,0.6-0.1,0.9s-0.1,0.7-0.2,1.1l-0.1,0.9
							c0,0.3-0.1,0.6-0.1,0.9s-0.1,0.6-0.1,0.9s-0.1,0.9-0.2,1.3s-0.1,0.6-0.1,0.9l-0.2,1.3c-0.1,0.6-0.2,1.2-0.3,1.8l-0.1,0.4
							c0,0.3-0.1,0.6-0.1,0.9s-0.1,0.7-0.1,1s-0.1,0.6-0.1,0.9s-0.1,0.6-0.1,0.9c0,0.4-0.1,0.8-0.2,1.2c0,0,0,0.1,0,0.1
							c0,0.2,0,0.4-0.1,0.6c0,0.3-0.1,0.5-0.3,0.7c-0.1,0.2-0.3,0.3-0.4,0.5c-0.3,0.2-0.5,0.5-0.7,0.8l0,0l-0.5,0.6l-1,1.1l-1.1,1.2
							l-1.1,1.2l-1,1.1l-1,1.2l-1,1.1l-1.1,1.2l-1,1.1l-1,1.1l-1,1.1l-1.4,1.5l-0.1,0.1c-0.2,0.3-0.5,0.6-0.8,0.9l-0.8,0.9
							c-0.2,0.2-0.3,0.4-0.5,0.6c-0.4,0.4-0.8,0.9-1.2,1.3l-1,1.1c-0.3,0.3-0.6,0.6-0.9,0.9c-0.2,0.1-0.3,0.3-0.4,0.5
							c0,0.1,0,0.2,0.1,0.3h0.1c0.3-0.2,0.5-0.4,0.8-0.7c0.2-0.2,0.3-0.3,0.6-0.3c0.1-0.1,0.2-0.2,0.3-0.3s0.4-0.5,0.6-0.7
							c0.3-0.4,0.7-0.7,1-1.1l1.2-1.3l0.5-0.5l0.7-0.8c0.2-0.2,0.4-0.5,0.7-0.7s0.3-0.3,0.5-0.5l0.7-0.8l0.7-0.7l0.4-0.5
							c0.2-0.2,0.4-0.5,0.6-0.7l0.7-0.8l0.5-0.6l0.7-0.8l0.7-0.8l0.5-0.6l0.8-0.9l0.1-0.1c0.2-0.2,0.4-0.5,0.6-0.7l0.8-0.8v-0.1
							c0.2-0.3,0.5-0.6,0.7-0.8l0.2-0.2l0.7-0.8l0.7-0.7l0.5-0.6c0.3-0.3,0.6-0.7,0.9-1c0.1-0.1,0.2-0.2,0.2-0.4
							c0-0.1,0-0.2,0.1-0.3c0.2-0.2,0.3-0.4,0.5-0.6c0,0,0-0.1,0.1-0.1c0.1-0.1,0.2-0.2,0.2-0.4c0.1-0.2,0.1-0.3,0.2-0.5
							C124.2,107.7,124.3,107.6,124.4,107.5L124.4,107.5z M102.8,105.3l-0.2-0.1l-2.5-1l-2.7-1.1l-3.7-1.5l-3.2-1.3L87,98.9
							l-3.7-1.5l-2-0.8c-0.3-0.1-0.5-0.2-0.7-0.3c0,0-0.1,0-0.1,0l-0.9-0.3c-0.5-0.2-0.9-0.4-1.4-0.6l-0.1-0.1c0,0,0-0.1,0-0.1
							l0.3-0.1c0.1,0,0.1-0.1,0.2-0.1s-0.2,0.2-0.2,0.3l0.3,0.1l0,0c0-0.1,0-0.3,0-0.4c0-0.3,0-0.6,0-0.9s-0.1-0.6-0.1-0.9
							s0-0.5-0.1-0.7c-0.1-0.8-0.3-1.6-0.6-2.4c-0.2-0.7-0.5-1.4-0.8-2.2c-0.2-0.5-0.4-0.9-0.6-1.4l-0.7-2.1c0-0.1-0.1-0.2-0.2-0.2
							l-0.5-0.3l-0.2-0.1c0,0.1,0.1,0.2,0.1,0.3c0.2,0.6,0.4,1.1,0.7,1.7c0.3,0.7,0.6,1.4,0.8,2.2c0.2,0.6,0.5,1.2,0.7,1.7
							c0.3,0.8,0.5,1.6,0.6,2.4c0.1,0.6,0.2,1.3,0.2,1.9c0,0,0,0.1,0,0.1s0.2,0.1,0.2,0.2c0.1,0.1,0.2,0.2,0.3,0.3l-0.1,0.1L78,94.4
							c-0.2,0.1-0.4,0.3-0.6,0.5c-0.1,0.2-0.1,0.3,0,0.5c0.1,0.1,0.2,0.3,0.3,0.3c0.2,0.1,0.4,0.3,0.7,0.3c0.2,0.1,0.4,0.1,0.6,0.2
							l2,0.8l2.6,1.1l2,0.8l1.8,0.7l2.7,1.1c0.6,0.2,1.2,0.5,1.8,0.8h0.1l0.8,0.3l0.4,0.2l2.1,0.9l2.4,1l2.1,0.8l2.8,1.2h0.1
							C102.9,105.8,102.9,105.5,102.8,105.3z M78.3,111c0,0,0-0.1,0-0.1c0-0.5,0-1,0-1.5c0.1-0.8,0-1.6,0.1-2.3s0-1.6,0.1-2.4
							s0-1.6,0.1-2.4s0-1.7,0.1-2.5s0-1.5,0.1-2.3c0-0.3,0-0.6,0-0.9c0-0.2-0.1-0.4-0.4-0.4c-0.1,0-0.1,0-0.2,0c0,0,0,0.1,0,0.1
							c0,0.4,0,0.8,0,1.2c0,1.1,0,2.2-0.1,3.2s0,2.2,0,3.3c0,0.9,0,1.8,0,2.7c0,0.1,0,0.2,0,0.2c0,0.2,0,0.4,0,0.6
							c0,0.8,0,1.5,0,2.2c0,0.2,0,0.3,0,0.5s0,0.3,0,0.5c0,0.1,0,0.1,0,0.2C78.1,111,78.2,111,78.3,111L78.3,111z M91.8,101.7
							l-0.5,0.3l-1.4,1l-1.5,1.1l-1.6,1.1l-1.7,1.2l-1.6,1.1l-1.6,1.2l-1.3,1l-0.7,0.5l-0.9,0.6c-0.1,0.1-0.2,0.1-0.2,0.2
							c-0.1,0-0.1,0.1,0,0.2c0.1,0,0.2-0.1,0.3-0.1l0.8-0.5c0.1-0.1,0.2-0.1,0.3-0.1l0.2,0.1l0.2-0.1c0.2-0.2,0.5-0.3,0.7-0.5l1.4-1
							l1.5-1.1l1.6-1.1l1.7-1.2l1.1-0.8l1.9-1.4l1.7-1.2c0,0,0.1-0.1,0.1-0.1L91.8,101.7z M106,129.4l-0.2,0.1l-0.7,0.8
							c-0.1,0.1-0.2,0.1-0.2,0.2c-0.1,0.1-0.2,0-0.3-0.1c0,0,0-0.1,0-0.1c0-0.1,0-0.2,0-0.2l-0.2,0.2c-0.2,0.1-0.5,0.2-0.7,0.1
							l-0.2-0.1c0,0,0,0.1,0,0.1v0.8c0,0.1,0,0.1,0,0.2c0.1,0.2,0.3,0.4,0.6,0.3c0.1,0,0.1-0.1,0.2-0.1l0.1-0.1l0.6-0.7l1-1.1
							C106,129.6,106,129.5,106,129.4L106,129.4z M80.1,110.7l-0.2,0.2l-0.7,0.5c-0.1,0.1-0.2,0.1-0.3,0.1c-0.1,0-0.3-0.1-0.3-0.2
							c0,0,0,0,0,0c0-0.1,0-0.2,0-0.2l-0.2,0.1c-0.2,0.1-0.4,0.1-0.6,0.1h-0.1l0,0c0,0.3,0,0.6,0,0.8c0,0.1,0.1,0.2,0.3,0.2
							c0.1,0,0.2,0,0.2,0c0.1,0,0.2-0.1,0.2-0.2l1.1-0.8L80,111C80.1,110.9,80.2,110.8,80.1,110.7z M72.8,81.6
							c0.4,0.2,0.8,0.4,1.2,0.6c-0.1-0.4-0.2-0.8-0.4-1.1C73.4,81.2,73.1,81.3,72.8,81.6z M104.6,129.5c0.1,0,0.1,0,0.1,0l0.5-0.6
							c0,0,0,0,0-0.1C105,129,104.8,129.2,104.6,129.5C104.6,129.3,104.6,129.4,104.6,129.5L104.6,129.5z M124.4,108.1L124.4,108.1z
							"/>
						<path class="st8" d="M126.6,87.8c-0.9,6.5-1.9,12.9-2.8,19.4c0,0,0,0.1-0.1,0.1c-0.2,0.1-0.3,0.3-0.3,0.6
							c0,0.4-0.2,0.8-0.5,1.1c-0.2,0.2-0.3,0.3-0.5,0.5c-0.1,0.1-0.1,0.2-0.1,0.3c0,0.1-0.1,0.3-0.2,0.4l-1.1,1.1l-1,1.1l-1,1.1
							l-1.1,1.2l-1,1.1l-1.1,1.2l-1,1.1l-0.7,0.8l-0.5,0.6l-0.8,0.9c-0.3,0.3-0.5,0.6-0.8,0.8l-0.5,0.6l-0.8,0.9
							c-0.2,0.3-0.5,0.5-0.7,0.8s-0.3,0.4-0.5,0.6s-0.6,0.6-0.9,0.9l-0.7,0.8l0,0l-0.8,0.9c-0.2,0.3-0.5,0.5-0.7,0.8l-0.1,0.1
							l-0.8,0.9c-0.1,0.1-0.2,0.2-0.2,0.3l-0.2-0.2c-0.3,0.2-0.5,0.6-0.9,0.9c0-0.1,0-0.2,0-0.3c0-0.9,0-1.9,0-2.8c0-0.3,0-0.7,0-1
							c0-1,0-2.1,0-3.1c0-0.4,0-0.8,0-1.1c0-1,0-2,0-3c0-0.5,0-1,0-1.5s0-1,0-1.5s0-1.1,0-1.7c-0.1-1,0-2,0-3c0-0.2,0-0.3,0-0.5
							c0-0.4,0-0.7,0-1.1c0-0.5,0-1,0-1.6l0.6-0.5c0.6-0.4,1.1-0.9,1.7-1.3l1.3-1l1.5-1.2l1.4-1.1c0.4-0.3,0.9-0.7,1.3-1.1l1.4-1.1
							l0.5-0.4l0.6-0.5l0.5-0.4l1.3-1.2l1.3-1.1c0.2-0.1,0.3-0.3,0.5-0.4l0.7-0.7c0.3-0.2,0.5-0.5,0.8-0.7l0.1-0.1l1-0.9l0.6-0.5
							l1.2-1.1l1-1c0.2-0.2,0.5-0.5,0.7-0.7c0.6-0.5,1.2-1.1,1.7-1.7l0.9-0.9L126.6,87.8z"/>
						<path class="st8" d="M126.4,86.8c0,0.1-0.1,0.1-0.1,0.2c-0.2,0.2-0.3,0.3-0.5,0.5l-0.6,0.6c-0.6,0.5-1.1,1.1-1.7,1.6
							s-0.9,0.9-1.4,1.3s-0.8,0.7-1.2,1.1s-0.8,0.8-1.3,1.1s-0.7,0.6-1,0.9l-0.6,0.5l-0.6,0.5c-0.2,0.1-0.3,0.3-0.5,0.4l-0.6,0.6
							l-0.9,0.8l-0.8,0.7l-0.4,0.3l-1.3,1.1l-1.9,1.5c-0.6,0.5-1.3,1-1.9,1.5l-1.7,1.4l-1.2,0.9c-0.5,0.4-1.1,0.8-1.6,1.2
							c-0.2,0.2-0.5,0.2-0.7,0.1v-0.2c0-0.2,0-0.3,0-0.5v-0.4c0-0.1,0-0.2,0-0.3v-3.5c0-0.1,0-0.3,0-0.4c0-0.1,0-0.2,0-0.3
							c0-0.3-0.1-0.7-0.2-1c-0.2-0.4-0.5-0.8-0.8-1.1c-0.1-0.1-0.3-0.2-0.4-0.3l-0.6-0.3l-2-1.1l-0.8-0.4L98,95l-1.8-1l-0.8-0.4
							l-1.2-0.6c-0.6-0.3-1.2-0.7-1.8-1l-1-0.5l-1-0.5l0,0l0.7-0.4l2-1.2l2.3-1.4c0.3-0.2,0.6-0.4,0.9-0.6l2.1-1.3
							c0.2-0.1,0.4-0.3,0.6-0.5c0.1-0.1,0.3-0.2,0.4-0.2c0.1,0,0.1-0.1,0.2-0.1l2.6-1.9c0.2-0.1,0.5-0.3,0.7-0.5
							c0.2-0.1,0.3-0.2,0.5-0.4c0.2-0.2,0.5-0.2,0.7-0.1l1.2,0.2l1.9,0.4l2.3,0.5l2.9,0.6l1.5,0.3l2.7,0.5l2.9,0.6l2.7,0.5l2.9,0.6
							l1.2,0.2L126.4,86.8z"/>
						<path class="st8" d="M90.1,90.8l-0.9-0.5l-0.8-0.4l-1.2-0.6l-1.8-1l-0.9-0.5l-1.9-1l-1.7-0.9l-0.8-0.4l-1.2-0.7l-1.8-1
							c-0.4-0.2-0.8-0.4-1.1-0.6l-0.2-0.1c-0.2-0.1-0.3-0.3-0.4-0.5c-0.2-0.6-0.4-1.2-0.7-1.7l-0.1-0.3c0-0.1,0.1-0.1,0.2-0.2
							l1.5-0.9c0.7-0.4,1.4-0.8,2.2-1.2c1.6-0.9,3.3-1.7,5-2.5c0.6-0.3,1.2-0.5,1.7-0.8s1.1-0.5,1.6-0.7l1.6-0.7
							c0.8-0.3,1.7-0.7,2.6-1l1.8-0.6l2.4-0.8l1.6-0.5h0.2c0,0.1,0.1,0.2,0.1,0.3c0.3,0.9,0.5,1.7,0.8,2.6s0.6,1.9,0.8,2.8
							c0.1,0.4,0.3,0.9,0.4,1.3s0.1,0.6,0.2,1s0.1,0.7,0.1,1c0,0.6,0,1.1,0,1.7c0,0.3,0,0.5-0.1,0.8c-0.1,0.8-0.3,1.5-0.4,2.3
							c-0.1,0.4-0.1,0.7-0.2,1.1c0,0.1,0,0.2-0.1,0.2C95.7,87.5,92.9,89.1,90.1,90.8z"/>
						<path class="st8" d="M126.5,86.6l-2.3-0.5l-3.1-0.6c-1-0.2-2-0.4-3-0.6l-3.3-0.7l-3-0.6l-3-0.6l-4.7-0.9c-0.1,0-0.1,0-0.2,0
							c-0.3,0-0.7-0.1-1-0.1c-0.6-0.1-1.2-0.2-1.7-0.3c-0.3-0.1-0.7-0.1-1,0c-0.1,0-0.2,0-0.3,0c0,0,0-0.1,0-0.1s0-0.2,0-0.3
							c0-0.4,0-0.8,0-1.2c0-0.3,0-0.7-0.1-1c-0.1-0.4-0.2-0.9-0.2-1.3c-0.1-0.3-0.1-0.6-0.2-0.9c-0.1-0.5-0.3-1-0.4-1.5
							s-0.3-1-0.4-1.5l-0.5-1.4c-0.2-0.5-0.3-1.1-0.5-1.6l-0.1-0.4l0,0c0.4-0.2,0.8-0.3,1.2-0.3c0.2,0,0.5,0,0.7,0.1l2.8,0.9
							l4.6,1.4l9.9,3.3l9.6,3.2l0.7,0.3c0.4,0.2,0.7,0.6,0.7,1.1c-0.1,0.7-0.2,1.3-0.3,2l-0.2,1.3c-0.1,0.4-0.1,0.9-0.2,1.3
							s-0.1,0.6-0.1,0.9c0,0.1,0,0.2-0.1,0.3C126.8,86.4,126.7,86.6,126.5,86.6z"/>
						<path class="st8" d="M97.2,69.8c-0.1,0.1-0.2,0.2-0.3,0.2l-1.3,0.4l-1.8,0.6c-0.6,0.2-1.3,0.5-1.9,0.7s-1.5,0.6-2.2,0.8
							s-1.5,0.6-2.3,0.9l-1.5,0.6L85,74.5l-0.9,0.4H84l-3.3,1.7c-0.6,0.3-1.2,0.6-1.8,1s-1.2,0.7-1.8,1c-0.4,0.2-0.8,0.5-1.2,0.7
							l-1.1,0.6l-0.2,0.1c-0.2,0-0.2-0.2-0.3-0.3l-0.4-1L72.7,76c-0.4-0.9-0.7-1.9-1.1-2.8c-0.1-0.3-0.2-0.6-0.4-0.9
							c-0.1-0.2-0.2-0.5-0.2-0.7c-0.1-0.4,0-0.8,0.3-1.1c0-0.1,0.1-0.1,0.2-0.1l0.8-0.4l0.2-0.1l1.4-0.6l1.7-0.8
							c0.7-0.3,1.3-0.6,2-0.9s1.6-0.6,2.3-0.9l2.2-0.8l0.3-0.1l1.2-0.4h0.1l1.4-0.5l0.6-0.2l1.2-0.4l0.9-0.3
							c0.8-0.3,1.6-0.5,2.4-0.7c0.3-0.1,0.7-0.2,1-0.3l2.4-0.7l0.5-0.1c0.3-0.1,0.7,0,0.8,0.3c0.2,0.3,0.3,0.6,0.4,0.9l0.7,2.4
							c0.2,0.8,0.4,1.5,0.7,2.3c0.2,0.5,0.3,1,0.4,1.5C97.1,69.7,97.1,69.8,97.2,69.8z"/>
						<path class="st8" d="M102.8,105l-0.2-0.1l-21.7-8.7c0,0,0,0,0-0.1l0.6-0.3l1.9-1l0.8-0.4l1.8-1c0.6-0.3,1.2-0.7,1.8-1l1.2-0.7
							l0.1-0.1c0.2,0.1,0.4,0.2,0.6,0.3l0.3,0.2l1.7,1l0.7,0.4l1.9,1l0.9,0.5l1.5,0.8l0.7,0.4l1.7,0.9l1.9,1
							c0.2,0.1,0.4,0.2,0.6,0.3c0.5,0.2,0.8,0.7,1,1.2c0.1,0.2,0.1,0.4,0.1,0.6c0,0.7,0,1.4,0,2.1c0,0.1,0,0.2,0,0.3s0,0.1,0,0.2
							C102.8,103.5,102.8,104.2,102.8,105C102.8,104.9,102.8,104.9,102.8,105z"/>
						<path class="st8" d="M91.6,101.7l-11.9,8.5l-0.2-0.2c-0.4,0.2-0.7,0.5-1.1,0.7c0-0.1,0-0.1,0-0.2c0-0.6,0-1.2,0-1.8
							c0.1-0.8,0-1.6,0.1-2.4s0-1.6,0.1-2.4s0-1.6,0.1-2.4s0-1.6,0-2.4s0-1.6,0.1-2.5c0-0.1,0-0.1,0-0.2c0.1,0,0.2,0,0.3,0l2.4,1
							l3.3,1.4l3.4,1.4l2.4,1l1,0.4L91.6,101.7z"/>
						<path class="st8" d="M97.1,70.1l-0.2,0.2c0,0-0.1,0.1-0.2,0.1c-0.2,0.1-0.5,0.1-0.7,0.2c-0.6,0.2-1.2,0.4-1.8,0.6
							s-1.4,0.5-2.1,0.8s-1.1,0.4-1.7,0.6c-0.7,0.3-1.5,0.6-2.2,0.9l-2.3,1c-0.7,0.3-1.3,0.6-2,0.9c-1.3,0.6-2.5,1.2-3.7,1.8
							c-0.6,0.3-1.1,0.6-1.6,0.9l-0.7,0.4c-0.9,0.5-1.8,1-2.8,1.6c-0.2,0.1-0.4,0.2-0.6,0.3c-0.1,0.1-0.2,0.1-0.3,0.1
							c0,0.1,0,0.1,0,0.2l0.4,1c0.2,0.4,0.3,0.7,0.4,1.1c0,0,0,0.1,0,0.1c-0.1,0.1-0.1,0-0.2,0l-0.6-0.3c-0.1-0.1-0.2-0.2-0.2-0.3
							c-0.1-0.2-0.2-0.5-0.3-0.7c-0.1-0.2-0.1-0.4,0-0.6c0-0.1,0.1-0.2,0.1-0.2s0-0.1,0-0.1s-0.1,0.1-0.2,0.1
							c-0.1,0.1-0.2,0.2-0.3,0.3l-0.5,0.2c-0.2,0.1-0.3,0.2-0.5,0.3c0,0,0,0.1,0,0.1c0.1,0.1,0.1,0.1,0.2,0.2
							c0.3,0.2,0.7,0.4,1.1,0.6c0.2,0.1,0.3,0.2,0.5,0.2c0.3,0.1,0.6,0.3,0.8,0.5h0.1c0.3,0.2,0.6,0.3,0.9,0.5l1.9,1L79,85l1.2,0.6
							c0.6,0.3,1.2,0.7,1.8,1l0.8,0.4l1.9,1l1.5,0.8l1.6,0.8l1.5,0.8c0.3,0.2,0.6,0.3,0.8,0.4c0.4,0.2,0.9,0.5,1.3,0.7l0.8,0.4
							l1.2,0.7l1.8,1l0.2,0.1l2,1.1l1.4,0.7l1.6,0.8l1.5,0.8c0.5,0.3,1,0.6,1.3,1.1c0.2,0.3,0.4,0.7,0.4,1.2c0,0.4,0,0.8,0,1.2
							c0,0.8,0,1.5,0,2.3c0,0.2,0,0.5,0,0.7c0,0.1,0,0.2,0,0.2v2.6c0,0.1,0,0.2,0,0.2c0,0.1,0,0.1,0.1,0.1c0,0,0.1-0.1,0.1-0.1
							c0-0.1,0-0.2,0-0.3c0-0.1,0-0.2,0-0.2c0-0.1,0-0.3,0.1-0.4l-0.1-0.1l0,0c0.3,0.1,0.6,0,0.8-0.2l1.6-1.2l2-1.5l1-0.8l1.3-1.1
							l1.3-1c0.4-0.3,0.7-0.6,1.1-0.9l0.7-0.6l0.6-0.5l0.9-0.8l0.8-0.7l0.9-0.8c0,0,0.1-0.1,0.1-0.1l0.8-0.7l0.1-0.1l0.9-0.8
							l0.7-0.6l0.7-0.6c0,0,0,0,0.1,0l0.8-0.8l1.1-1l0,0c0.4-0.4,0.7-0.7,1.1-1.1s0.7-0.7,1-1c0.5-0.4,1-1,1.5-1.4
							c0.1-0.1,0.2-0.2,0.3-0.3c0.1-0.1,0.3-0.3,0.3-0.4c0-0.2,0.2-0.2,0.3-0.3c0.2,0,0.3,0,0.4,0.1c0,0,0.1,0.1,0.1,0.2
							c-0.1,0.2-0.3,0.4-0.5,0.5c-0.2,0.2-0.5,0.4-0.7,0.7c-0.5,0.5-0.9,1-1.4,1.4l-1.2,1.2l-0.8,0.7c-0.3,0.3-0.6,0.5-0.8,0.8
							s-0.6,0.6-0.9,0.8l-0.7,0.6l-0.1,0.1l-0.8,0.7c-0.2,0.2-0.4,0.4-0.7,0.6l-0.1,0.1l-0.8,0.7l-0.8,0.7l-0.6,0.5
							c-0.2,0.2-0.4,0.3-0.6,0.5l-0.5,0.4l-1,0.9l-0.9,0.8l-0.8,0.7l-0.8,0.7l-1,0.8l-0.8,0.7l-1,0.8l-0.7,0.6l-0.9,0.7l-1.4,1.1
							l-0.8,0.6l-1.4,1.1c-0.1,0.1-0.2,0.2-0.2,0.4c0,0.7,0,1.4,0,2.1v0.6c0,0.3,0,0.6,0,0.9c0,0.1,0,0.2,0,0.2c0,1.2,0,2.3,0,3.5
							c0,0.3,0,0.6,0,0.9c0,1.1,0,2.2,0,3.4c0,0.3,0,0.6,0,0.9c0,1,0,2.1,0,3.2c0,0.4,0,0.7,0,1.1c0,1.1,0,2.3,0,3.4
							c0,0.5,0,0.9,0.1,1.4c0,0.2,0,0.4,0,0.6c0,0.2,0,0.3-0.2,0.4c-0.2,0.1-0.4,0-0.5-0.1c0,0,0-0.1-0.1-0.1c0,0,0-0.1,0-0.1
							c0-0.3,0-0.7,0-1c0-0.3,0-0.7,0-1s0-0.7,0-1c-0.1-0.9,0-1.9-0.1-2.8s0-1.9,0-2.8s0-1.9-0.1-2.8s0-1.9-0.1-2.9s0-1.8,0-2.7
							s0-1.9,0-2.8s0-2,0-2.9c-0.1-0.4,0-0.8-0.1-1.2c0-0.1,0-0.2,0-0.3c0-0.7,0-1.4,0-2.1c0-0.1,0-0.2,0-0.4s0-0.2,0-0.3
							c0-0.7,0-1.4,0-2.1c0-0.3,0-0.6-0.1-0.9c0-0.2-0.1-0.4-0.2-0.5c-0.2-0.4-0.6-0.7-1-0.9l-1.1-0.9l-1.9-1l-1.8-1l-2-1.1l-1.8-1
							l-1.9-1l-1.2-0.7h-0.1c-0.5-0.3-1-0.6-1.4-0.8c-0.7-0.3-1.3-0.7-1.9-1l-1.9-1l-2-1.1l-1.8-1l-2-1.1L77,84.9l-0.8-0.6
							c-0.1-0.1-0.2-0.1-0.4-0.2L75.7,84c-0.4-0.2-0.8-0.4-1.1-0.7c-0.1-0.1-0.2-0.1-0.3-0.2l-1.7-0.9c-0.2-0.1-0.3-0.2-0.4-0.3
							c0-0.1-0.1-0.1-0.1-0.2c-0.1-0.3,0-0.6,0.2-0.8c0.1-0.1,0.2-0.1,0.2-0.2l1-0.6c0.1,0,0.1,0,0.2,0c0.1,0,0.2,0,0.3,0.1
							c0,0,0,0,0.1-0.1c-0.2-0.2-0.4-0.1-0.6-0.2c0-0.1-0.1-0.1-0.1-0.2l-0.8-1.9c-0.4-1-0.8-1.9-1.1-2.9l-1-2.4
							c-0.1-0.3-0.2-0.7-0.2-1c-0.1-0.6,0.3-1.1,0.8-1.4l1.2-0.6c0.3-0.1,0.6-0.3,0.9-0.4c0.6-0.3,1.2-0.6,1.9-0.8l1.7-0.7l1.5-0.6
							c0.6-0.3,1.3-0.5,1.9-0.8c0.5-0.2,0.9-0.3,1.4-0.5c1-0.4,1.9-0.7,2.9-1s1.9-0.6,2.8-0.9s2-0.6,3-0.9c0.5-0.1,1-0.3,1.4-0.4
							l1.9-0.5l0.3-0.1c0.2-0.1,0.4,0,0.6,0.1c-0.4,0-0.9,0.1-1.3,0.3c-0.8,0.2-1.6,0.4-2.4,0.7s-1.6,0.5-2.4,0.7
							c-0.6,0.2-1.2,0.4-1.8,0.6c-0.4,0.1-0.9,0.3-1.3,0.4s-0.9,0.3-1.3,0.5l-0.8,0.2c-0.4,0.1-0.8,0.3-1.3,0.5l-1,0.4L78.9,67
							l-1.1,0.4L76.6,68l-0.9,0.4L75,68.7l-2,0.9l-1.4,0.7c-0.4,0.2-0.7,0.6-0.8,1.1c0,0.3,0.1,0.6,0.2,0.9c0.4,0.9,0.7,1.9,1.1,2.8
							l0.7,1.9c0.3,0.7,0.6,1.4,0.8,2.2l0.3,0.8c0,0.2,0.2,0.3,0.4,0.3c0,0,0.1,0,0.1,0c0.1,0,0.1-0.1,0.2-0.1
							c0.7-0.4,1.3-0.8,2-1.2c0.4-0.2,0.8-0.4,1.2-0.7l0.7-0.4l1-0.5c0.5-0.2,0.9-0.5,1.4-0.7s1.2-0.6,1.8-0.9s1-0.5,1.5-0.7
							l1.8-0.8c1.3-0.6,2.6-1.1,4-1.6c0.5-0.2,1-0.4,1.6-0.6c1.5-0.6,3-1.1,4.5-1.6L97.1,70.1L97.1,70.1L97.1,70.1z"/>
						<path class="st8" d="M89,91.4l-0.8,0.4l-1.4,0.8c-0.4,0.2-0.7,0.4-1.1,0.6l-1.6,0.9l-0.7,0.4c-0.3,0.1-0.6,0.3-0.8,0.4
							l-1.6,0.9c-0.1,0.1-0.2,0.1-0.3,0.2c-0.6-0.2-1.2-0.4-1.8-0.7c0-0.1,0-0.2,0-0.3v-1c0-0.2,0-0.5,0-0.7c0,0,0-0.1,0-0.1
							c0-0.4-0.1-0.8-0.1-1.2c-0.2-1-0.5-2-0.9-2.9c-0.2-0.5-0.4-1-0.5-1.5c-0.3-0.8-0.6-1.5-0.9-2.3l-0.4-1v-0.2
							c0.1,0,0.1,0,0.2,0.1l1.1,0.6c0.2,0.1,0.5,0.3,0.7,0.4c0.5,0.3,1.1,0.6,1.6,0.9l1.4,0.8l0.8,0.4l1.5,0.8l1.9,1.1l1.9,1
							L89,91.4z"/>
						<path class="st8" d="M97.1,70.1c0.1-0.1,0.1-0.2,0.2-0.2c0-0.1,0.1-0.2,0.2-0.3c0.4-0.2,0.9-0.3,1.3-0.3
							c0.4,0,0.7,0.1,1.1,0.2l10.6,3.5l10.2,3.4l6.5,2.2c0.3,0.1,0.5,0.2,0.7,0.4c0.2,0.1,0.3,0.3,0.4,0.5c0.2,0.3,0.2,0.7,0.2,1
							c-0.1,0.4-0.1,0.9-0.2,1.3s-0.1,0.6-0.1,0.9s-0.1,0.6-0.1,0.9l-0.2,1.4l-0.2,1.2c0,0.1,0,0.2-0.1,0.3c-0.2,0-0.3-0.1-0.3-0.3
							c0,0,0,0,0-0.1c-0.2-0.1-0.1-0.3-0.1-0.5c0.1-0.6,0.2-1.3,0.3-1.9c0.1-0.4,0.1-0.8,0.2-1.3l0.2-1.4c0-0.3,0.1-0.5,0.1-0.8
							c0.1-0.4-0.1-0.8-0.5-1.1l-0.7-0.3l-2.3-0.8l-7.2-2.4l-10.3-3.4L99.6,70c-0.3-0.1-0.6-0.1-0.9-0.1c-0.2,0-0.4,0-0.6,0.1
							L97.7,70c-0.1,0.1-0.3,0.1-0.4,0c0,0.1,0,0.3,0.1,0.4l0.6,2.2c0.2,0.8,0.4,1.6,0.7,2.3c0.2,0.6,0.3,1.2,0.5,1.8
							c0.2,0.6,0.3,1.1,0.4,1.7c0.1,0.3,0.1,0.7,0.2,1c0,0.1,0,0.2,0,0.3c0,0.1,0,0.2,0,0.3c0,0.2,0,0.3,0,0.5c0,0.1,0,0.1,0,0.2
							c0,0.4,0,0.8,0,1.1c0,0.1,0,0.2,0,0.3s0,0.1,0,0.2s0.1-0.1,0.2-0.4l0.2-0.1c0.4-0.1,0.8-0.1,1.1,0c0.6,0.1,1.3,0.3,1.9,0.4
							l0.3,0.1c-0.1,0.1-0.3,0.2-0.4,0.3c-0.1,0-0.2,0-0.2,0c-0.5-0.1-1-0.2-1.4-0.3c-0.3-0.1-0.6-0.1-0.9-0.1
							c-0.2,0-0.5,0.1-0.7,0.2c-0.1,0.1-0.2,0.1-0.2,0.3c0,0.3-0.1,0.6-0.2,0.9L99.1,85c0,0.1-0.1,0.2-0.2,0.3
							c-0.1,0.1-0.2,0.2-0.3,0.2c0,0,0-0.1,0-0.1c0.1-0.6,0.2-1.2,0.3-1.8c0.1-0.4,0.2-0.8,0.2-1.3s0.1-0.6,0.1-0.9
							c0-0.4,0-0.7,0-1.1c0-0.3,0-0.6-0.1-0.9c0-0.2-0.1-0.4-0.1-0.7c-0.1-0.7-0.2-1.3-0.4-2l-0.8-2.8c-0.2-0.7-0.4-1.3-0.6-2
							l-0.4-1.3c0,0,0-0.1,0-0.1C96.9,70.4,97.1,70.3,97.1,70.1L97.1,70.1L97.1,70.1z"/>
						<path class="st8" d="M124.4,107.5c-0.2,0.2-0.3,0.4-0.4,0.6c0,0.2-0.1,0.3-0.2,0.5c0,0.1-0.1,0.3-0.2,0.4c0,0-0.1,0.1-0.1,0.1
							c-0.1,0.2-0.3,0.4-0.5,0.6c-0.1,0.1-0.1,0.2-0.1,0.3c0,0.1,0,0.3-0.2,0.4c-0.3,0.3-0.6,0.6-0.9,1l-0.5,0.6l-0.7,0.7l-0.7,0.8
							l-0.2,0.2c-0.2,0.3-0.5,0.6-0.7,0.8v0.1l-0.8,0.8c-0.2,0.2-0.4,0.5-0.6,0.7l-0.1,0.1L117,117l-0.5,0.6l-0.7,0.8l-0.7,0.8
							l-0.5,0.6l-0.7,0.8c-0.2,0.2-0.4,0.5-0.6,0.7l-0.4,0.5l-0.7,0.7l-0.7,0.8c-0.2,0.2-0.3,0.4-0.5,0.5s-0.4,0.5-0.7,0.7l-0.7,0.8
							l-0.5,0.5l-1.2,1.3c-0.3,0.4-0.7,0.7-1,1.1c-0.2,0.2-0.4,0.4-0.6,0.7s-0.2,0.2-0.3,0.3c-0.3-0.1-0.4,0.1-0.6,0.3
							c-0.2,0.3-0.5,0.5-0.8,0.7h-0.1c-0.1-0.1,0-0.2-0.1-0.3c0.1-0.2,0.2-0.3,0.4-0.5c0.3-0.3,0.6-0.6,0.9-0.9l1-1.1
							c0.4-0.4,0.8-0.9,1.2-1.3c0.2-0.2,0.3-0.4,0.5-0.6l0.8-0.9c0.3-0.3,0.5-0.6,0.8-0.9l0.1-0.1l1.4-1.5l1-1.1l1-1.1l1-1.1
							l1.1-1.2l1-1.1l1-1.2l1-1.1l1.1-1.2l1.1-1.2l1-1.1l0.5-0.6l0,0c0.2-0.3,0.5-0.6,0.7-0.8c0.1-0.2,0.3-0.3,0.4-0.5
							c0.1-0.2,0.2-0.5,0.3-0.7c0.1-0.2,0.1-0.4,0.1-0.6c0,0,0-0.1,0-0.1c0.1-0.4,0.2-0.8,0.2-1.2c0-0.3,0.1-0.6,0.1-0.9
							s0.1-0.6,0.1-0.9s0.1-0.7,0.1-1s0.1-0.6,0.1-0.9l0.1-0.4c0.1-0.6,0.2-1.2,0.3-1.8l0.2-1.3c0-0.3,0.1-0.6,0.1-0.9
							s0.1-0.9,0.2-1.3s0.1-0.6,0.1-0.9s0.1-0.6,0.1-0.9l0.1-0.9c0.1-0.3,0.1-0.7,0.2-1.1s0.1-0.6,0.1-0.9s0.1-0.6,0.1-1l0.2-1.2
							l0.2-1c0-0.3,0.1-0.7,0.2-1c0.2-0.2,0.3-0.5,0.6-0.6c0,0.1,0,0.2,0,0.3c-0.1,0.5-0.2,1-0.2,1.6c0,0.3-0.1,0.6-0.1,1
							s-0.1,0.5-0.1,0.8l-0.2,1l-0.2,1c-0.1,0.4-0.1,0.8-0.2,1.3s-0.1,0.9-0.2,1.3s-0.1,0.6-0.1,1l-0.1,0.8l-0.2,1
							c-0.1,0.4-0.1,0.9-0.2,1.3s-0.1,0.7-0.1,1l-0.1,0.8l-0.2,1l-0.2,1.3l-0.2,1.3l-0.1,0.8l-0.2,1L124.4,107.5
							C124.4,107.3,124.4,107.4,124.4,107.5z"/>
						<path class="st8" d="M102.8,105.3c0.1,0.3,0.1,0.5,0.1,0.8h-0.1l-2.9-1.2l-2.1-0.8l-2.4-1l-2.1-0.9l-0.4-0.2l-0.8-0.3h-0.1
							c-0.6-0.3-1.2-0.6-1.8-0.8l-2.7-1.1l-1.8-0.7l-2-0.8l-2.6-1.1l-2-0.8c-0.2-0.1-0.4-0.2-0.6-0.2c-0.2-0.1-0.5-0.2-0.7-0.3
							c-0.1-0.1-0.2-0.2-0.3-0.3c-0.1-0.2-0.1-0.3,0-0.5c0.1-0.2,0.3-0.4,0.6-0.5l0.5,0.2l0.1-0.1c-0.1-0.1-0.2-0.2-0.3-0.3
							c0-0.1-0.2-0.1-0.2-0.2s0-0.1,0-0.1c0-0.6-0.1-1.3-0.2-1.9c-0.1-0.8-0.4-1.6-0.6-2.4c-0.2-0.6-0.4-1.2-0.7-1.7
							c-0.3-0.7-0.6-1.4-0.8-2.2c-0.2-0.6-0.4-1.1-0.7-1.7c0-0.1,0-0.2-0.1-0.3l0.2,0.1l0.5,0.3c0.1,0,0.2,0.1,0.3,0.2l0.8,2
							c0.2,0.5,0.4,0.9,0.6,1.4c0.3,0.7,0.6,1.4,0.8,2.2c0.2,0.8,0.4,1.6,0.6,2.4c0,0.2,0,0.4,0.1,0.7s0.1,0.6,0.1,0.9s0,0.6,0,0.9
							c0,0.1,0,0.3,0,0.4l0,0l-0.3-0.1c0.1-0.1,0.2-0.2,0.2-0.3s-0.2,0.1-0.2,0.1l-0.3,0.1c0,0,0,0.1,0,0.1l0.1,0.1
							c0.5,0.2,0.9,0.4,1.4,0.6l0.9,0.3c0,0,0.1,0,0.1,0c0.2,0.2,0.5,0.3,0.7,0.3l2,0.8l3.7,1.5l3.6,1.5l3.1,1.4l3.6,1.5l2.7,1.1
							l2.5,1L102.8,105.3z"/>
						<path class="st8" d="M78.3,110.9c-0.1,0.1-0.3,0.1-0.5,0c0-0.1,0-0.1,0-0.2c0-0.2,0-0.3,0-0.5s0-0.3,0-0.5c0-0.8,0-1.5,0-2.2
							c0-0.2,0-0.4,0-0.6c0-0.1,0-0.2,0-0.2c0-0.9,0-1.8,0-2.7c0-1.1,0-2.2,0-3.3s0-2.2,0.1-3.2c0-0.4,0-0.8,0-1.2c0,0,0-0.1,0-0.1
							c0.2-0.1,0.4,0,0.5,0.2c0,0.1,0,0.1,0,0.2c0,0.3,0,0.6,0,0.9c-0.1,0.8,0,1.5-0.1,2.3s0,1.7-0.1,2.5s0,1.6-0.1,2.4
							s0,1.6-0.1,2.4s0,1.6-0.1,2.3c0,0.5,0,1,0,1.5C78.2,110.8,78.2,110.9,78.3,110.9z"/>
						<path class="st8" d="M91.8,101.7l0.4,0.2c0,0-0.1,0.1-0.1,0.1l-1.7,1.2l-1.9,1.4l-1.1,0.8l-1.7,1.2l-1.6,1.1l-1.5,1.1l-1.4,1
							c-0.2,0.2-0.5,0.4-0.7,0.5l-0.2,0.1l-0.2-0.1c-0.1,0-0.2,0.1-0.3,0.1l-0.8,0.5c-0.1,0.1-0.2,0.1-0.3,0.1
							c-0.1-0.1-0.1-0.1,0-0.2c0.1-0.1,0.1-0.1,0.2-0.2l0.8-0.5l0.7-0.5l1.3-1l1.6-1.2l1.6-1.1l1.8-1.2l1.6-1.1l1.5-1.1l1.4-1
							L91.8,101.7z"/>
						<path class="st8" d="M99.3,85.1c0-0.3,0.1-0.6,0.1-0.9c0.1-0.5,0.2-1,0.3-1.4c0-0.1,0.1-0.3,0.2-0.3c0.4-0.1,0.7-0.2,1.1-0.1
							c0.5,0.1,1,0.2,1.5,0.3l0.2,0.1l-0.2,0.1l-1.2,0.8l-1.8,1.2C99.5,84.9,99.3,85.1,99.3,85.1z"/>
						<path class="st8" d="M106,129.4c0,0.1-0.1,0.2-0.1,0.3l-1,1.1l-0.6,0.7l-0.1,0.1c-0.2,0.2-0.5,0.2-0.6,0c0,0-0.1-0.1-0.1-0.2
							c0-0.1,0-0.1,0-0.2v-0.8c0,0,0-0.1,0-0.1l0.2,0.1c0.2,0.1,0.5,0.1,0.7-0.1l0.2-0.2c0,0.1,0,0.2,0,0.2c0,0.1,0.1,0.2,0.2,0.2
							c0,0,0.1,0,0.1,0c0.1-0.1,0.2-0.1,0.2-0.2l0.7-0.8L106,129.4z"/>
						<path class="st8" d="M80.1,110.7c0,0.1-0.1,0.2-0.2,0.3l-0.4,0.3l-1.1,0.8c-0.1,0.1-0.2,0.1-0.2,0.2c-0.1,0-0.2,0-0.2,0
							c-0.1,0-0.2-0.1-0.3-0.2c0-0.3,0-0.6,0-0.8l0,0h0.1c0.2,0.1,0.4,0,0.6-0.1l0.2-0.1c0.1,0.1,0,0.2,0,0.2c0,0.1,0.1,0.2,0.3,0.2
							c0,0,0,0,0,0c0.1,0,0.2,0,0.3-0.1l0.7-0.5L80.1,110.7z"/>
						<path class="st8" d="M72.8,81.6c0.2-0.2,0.5-0.3,0.8-0.5c0.2,0.3,0.3,0.7,0.4,1.1C73.6,82,73.3,81.8,72.8,81.6z"/>
						<path class="st8" d="M104.6,129.5c0-0.1,0-0.1,0-0.1c0.2-0.2,0.3-0.4,0.5-0.6c0,0.1,0,0.1,0,0.1L104.6,129.5
							C104.6,129.4,104.7,129.4,104.6,129.5z"/>
						<path class="st8" d="M124.3,108.6L124.3,108.6c0,0.3-0.1,0.5-0.3,0.6l0,0L124.3,108.6z"/>
						<path class="st8" d="M123.7,109.6c0.1-0.2,0.2-0.3,0.3-0.4l0,0C123.9,109.4,123.8,109.5,123.7,109.6L123.7,109.6z"/>
						<path class="st8" d="M79.5,110.3c-0.1,0.1-0.2,0.2-0.4,0.3l0,0C79.2,110.4,79.3,110.3,79.5,110.3L79.5,110.3z"/>
						<path class="st8" d="M122.6,109.6c0-0.1,0.1-0.2,0.2-0.3C122.9,109.4,122.9,109.4,122.6,109.6z"/>
						<path class="st8" d="M123.3,110c0-0.1,0.1-0.2,0.2-0.2l0,0C123.5,109.9,123.4,110,123.3,110L123.3,110z"/>
						<path class="st8" d="M124.3,108.6v-0.2C124.3,108.5,124.3,108.5,124.3,108.6z"/>
						<polygon class="st8" points="124.4,108.1 124.4,108.1 124.4,108.1 						"/>
						<polygon class="st8" points="99.3,85.1 99.3,85.1 99.3,85.1 						"/>
						<path class="st8" d="M124.1,109.2L124.1,109.2L124.1,109.2L124.1,109.2z"/>
						<path class="st8" d="M122.6,109.6L122.6,109.6L122.6,109.6L122.6,109.6z"/>
						<polygon class="st8" points="122.6,109.6 122.6,109.6 122.6,109.6 						"/>
						<path class="st8" d="M123.6,109.7L123.6,109.7L123.6,109.7L123.6,109.7L123.6,109.7z"/>
						<path class="st8" d="M123.6,109.7L123.6,109.7L123.6,109.7L123.6,109.7L123.6,109.7z"/>
						<path class="st8" d="M123.6,109.7L123.6,109.7L123.6,109.7L123.6,109.7L123.6,109.7z"/>
						<polygon class="st8" points="123.3,110 123.3,110 123.3,110 						"/>
						<path class="st8" d="M79.5,110.3L79.5,110.3z"/>
						<polygon class="st8" points="79.1,110.6 79.1,110.6 79.1,110.6 						"/>
					</g>
				</g>
				<path class="st9" d="M130.2,146.2c-0.9-0.9-2.8-0.9-5.1-0.8c-1.7,0-3.3,0-5-0.2c-4.3-0.6-7.7-0.9-7.8-0.9
					c-7.7-0.2-13,0.8-16.2,3.1h-0.1H68.1v-114h64v112.7C131.4,146,130.8,146.1,130.2,146.2z"/>
			</g>
		</g>
		<circle class="st4" cx="216.9" cy="32.7" r="9.1"/>
		<path class="st4" d="M212.8,63.6c14.4,0,26-11.6,26-26s-11.6-26-26-26s-26,11.6-26,26S198.5,63.6,212.8,63.6"/>
		<g class="st10">
			<path class="st11" d="M199.4,29.8c-0.2,0-0.4-0.2-0.4-0.4c0-0.1,0.1-0.2,0.2-0.3l13.4-7.7c0.2-0.1,0.4,0,0.5,0.2
				c0.1,0.2,0,0.4-0.1,0.5l-13.4,7.7C199.5,29.8,199.4,29.8,199.4,29.8"/>
			<rect x="199" y="21.4" class="st7" width="14.1" height="8.5"/>
			<path class="st11" d="M199.4,45.3c-0.1,0-0.3-0.1-0.3-0.2c-0.1-0.2,0-0.4,0.1-0.5c0,0,0,0,0,0l26.7-15.5c0.2-0.1,0.4,0,0.5,0.1
				c0.1,0.2,0.1,0.4-0.1,0.5c0,0,0,0,0,0l-26.7,15.4C199.5,45.2,199.4,45.2,199.4,45.3"/>
			<rect x="199" y="29.1" class="st7" width="27.5" height="16.2"/>
			<path class="st11" d="M226.1,29.8c-0.1,0-0.1,0-0.2,0l-13.4-7.7c-0.2-0.1-0.3-0.3-0.2-0.5c0.1-0.2,0.3-0.3,0.5-0.2
				c0,0,0.1,0,0.1,0l13.3,7.7c0.2,0.1,0.2,0.3,0.1,0.5c0,0,0,0,0,0C226.3,29.8,226.2,29.8,226.1,29.8"/>
			<rect x="212.3" y="21.4" class="st7" width="14.1" height="8.5"/>
			<path class="st11" d="M226.1,45.3c-0.1,0-0.1,0-0.2,0l-26.7-15.6c-0.2-0.1-0.2-0.3-0.1-0.5c0.1-0.2,0.3-0.2,0.5-0.1c0,0,0,0,0,0
				l26.7,15.6c0.2,0.1,0.2,0.3,0.1,0.5c0,0,0,0,0,0C226.3,45.3,226.2,45.3,226.1,45.3"/>
			<rect x="199" y="28.9" class="st7" width="27.5" height="16.4"/>
			<path class="st11" d="M212.7,53c-0.1,0-0.1,0-0.2,0l-13.4-7.7c-0.2-0.1-0.2-0.3-0.2-0.5c0,0,0,0,0,0c0.1-0.2,0.3-0.2,0.5-0.1
				l13.4,7.7c0.2,0.1,0.2,0.4,0.1,0.5C213,53,212.9,53.1,212.7,53"/>
			<rect x="199" y="44.5" class="st7" width="14.1" height="8.5"/>
			<path class="st11" d="M212.7,53c-0.1,0-0.3-0.1-0.3-0.2c-0.1-0.2,0-0.4,0.1-0.5l13.3-7.7c0.2-0.1,0.4,0,0.5,0.1c0,0,0,0,0,0
				c0.1,0.2,0.1,0.4-0.1,0.5c0,0,0,0,0,0L212.9,53C212.8,53,212.7,53,212.7,53"/>
			<rect x="212.3" y="44.5" class="st7" width="14.1" height="8.5"/>
			<path class="st11" d="M199.4,45.3c-0.2,0-0.4-0.2-0.4-0.4c0,0,0,0,0,0V29.5c0-0.2,0.2-0.4,0.4-0.4c0.2,0,0.4,0.2,0.4,0.4
				c0,0,0,0,0,0v15.4C199.7,45.1,199.6,45.3,199.4,45.3L199.4,45.3"/>
			<path class="st4" d="M226.1,45.3c-0.2,0-0.4-0.2-0.4-0.4c0,0,0,0,0,0V29.5c0-0.2,0.2-0.4,0.4-0.4c0.2,0,0.4,0.2,0.4,0.4
				c0,0,0,0,0,0v15.4C226.4,45.1,226.3,45.3,226.1,45.3L226.1,45.3"/>
			<rect x="225.7" y="29.1" class="st11" width="0.8" height="16.2"/>
			<path class="st4" d="M212.7,53c-0.2,0-0.4-0.2-0.4-0.4c0,0,0,0,0,0V21.7c0-0.2,0.2-0.4,0.4-0.3c0.2,0,0.3,0.2,0.3,0.3v30.9
				C213.1,52.8,212.9,53,212.7,53C212.7,53,212.7,53,212.7,53"/>
			<rect x="212.3" y="21.4" class="st11" width="0.8" height="31.6"/>
		</g>
		<path class="st5" d="M216.9,24.7c-0.1,0-0.2,0-0.3-0.1l-3.6-2.1l-3.6,2.1c-0.3,0.2-0.7,0.1-0.9-0.2c-0.2-0.3-0.1-0.7,0.2-0.9l0,0
			l3.9-2.2c0.2-0.1,0.5-0.1,0.7,0l3.9,2.2c0.3,0.2,0.4,0.6,0.2,0.9c0,0,0,0,0,0C217.4,24.5,217.1,24.7,216.9,24.7"/>
		<path class="st5" d="M213,42.3c-0.4,0-0.7-0.3-0.7-0.7v-4.5c0-0.4,0.3-0.7,0.7-0.7c0.4,0,0.7,0.3,0.7,0.7c0,0,0,0,0,0v4.5
			C213.7,42,213.4,42.3,213,42.3"/>
		<path class="st5" d="M199.6,34.6c-0.4,0-0.7-0.3-0.7-0.7c0,0,0,0,0,0v-4.5c0-0.4,0.3-0.7,0.7-0.7c0.4,0,0.7,0.3,0.7,0.7
			c0,0,0,0,0,0v4.5C200.3,34.3,200,34.6,199.6,34.6C199.7,34.6,199.7,34.6,199.6,34.6"/>
		<path class="st5" d="M226.4,34.6c-0.4,0-0.7-0.3-0.7-0.7c0,0,0,0,0,0v-4.5c0-0.4,0.3-0.7,0.7-0.7c0.4,0,0.7,0.3,0.7,0.7
			c0,0,0,0,0,0v4.5C227,34.3,226.7,34.6,226.4,34.6C226.4,34.6,226.4,34.6,226.4,34.6"/>
		<path class="st5" d="M226.4,39.7L226.4,39.7c0.4,0,0.7,0.3,0.7,0.7v4.5c0,0.4-0.3,0.7-0.7,0.7l0,0c-0.4,0-0.7-0.3-0.7-0.7v-4.5
			C225.7,40,226,39.7,226.4,39.7z"/>
		<path class="st5" d="M199.6,45.6c-0.4,0-0.7-0.3-0.7-0.7v-4.5c0-0.4,0.3-0.7,0.7-0.7c0.4,0,0.7,0.3,0.7,0.7v4.5
			C200.3,45.3,200,45.6,199.6,45.6"/>
		<path class="st5" d="M213,27.3c-0.4,0-0.7-0.3-0.7-0.7v-4.9c0-0.4,0.3-0.7,0.7-0.7c0.4,0,0.7,0.3,0.7,0.7c0,0,0,0,0,0v4.9
			C213.7,27,213.4,27.3,213,27.3"/>
		<path class="st5" d="M213,53.3c-0.4,0-0.7-0.3-0.7-0.7v-4.5c0-0.4,0.3-0.7,0.7-0.7c0.4,0,0.7,0.3,0.7,0.7c0,0,0,0,0,0v4.5
			C213.7,53,213.4,53.3,213,53.3"/>
		<path class="st5" d="M213,53.3c-0.1,0-0.2,0-0.3-0.1l-3.9-2.3c-0.3-0.2-0.4-0.6-0.2-0.9c0,0,0,0,0,0c0.2-0.3,0.6-0.4,0.9-0.2
			c0,0,0,0,0,0l3.6,2.1l3.5-2c0.3-0.2,0.7-0.1,0.9,0.2s0.1,0.7-0.2,0.9l0,0l-3.9,2.2C213.2,53.3,213.1,53.3,213,53.3"/>
		<path class="st5" d="M213,37.8c-0.1,0-0.2,0-0.3-0.1l-3.9-2.2c-0.3-0.2-0.4-0.6-0.2-0.9c0.2-0.3,0.6-0.4,0.9-0.2c0,0,0,0,0,0
			l3.6,2l3.6-2.1c0.3-0.2,0.7-0.1,0.9,0.2c0.2,0.3,0.1,0.7-0.2,0.9l-3.9,2.2C213.2,37.8,213.1,37.8,213,37.8"/>
		<path class="st5" d="M222.5,32.3c-0.4,0-0.7-0.3-0.7-0.7c0-0.2,0.1-0.5,0.3-0.6l3.9-2.3c0.3-0.2,0.7-0.1,0.9,0.2
			c0.2,0.3,0.1,0.7-0.2,0.9c0,0,0,0,0,0l-3.9,2.3C222.7,32.4,222.6,32.4,222.5,32.3"/>
		<path class="st5" d="M226.4,30.1c-0.1,0-0.2,0-0.3-0.1l-3.9-2.3c-0.3-0.2-0.4-0.6-0.2-0.9c0.2-0.3,0.6-0.4,0.9-0.2l3.9,2.2
			c0.3,0.2,0.4,0.6,0.3,0.9c0,0,0,0,0,0C226.8,30,226.6,30.1,226.4,30.1"/>
		<path class="st5" d="M203.5,32.3c-0.1,0-0.2,0-0.3-0.1l-3.9-2.3c-0.3-0.2-0.4-0.6-0.2-0.9c0.2-0.3,0.6-0.4,0.9-0.2l0,0l3.9,2.3
			c0.3,0.2,0.4,0.6,0.2,0.9C204,32.2,203.8,32.3,203.5,32.3"/>
		<path class="st5" d="M199.6,30.1c-0.2,0-0.5-0.1-0.6-0.3c-0.2-0.3-0.1-0.7,0.2-0.9c0,0,0,0,0,0l3.9-2.2c0.3-0.2,0.7-0.1,0.9,0.2
			c0.2,0.3,0.1,0.7-0.2,0.9c0,0,0,0,0,0L200,30C199.9,30.1,199.8,30.1,199.6,30.1"/>
		<path class="st5" d="M222.5,47.8c-0.4,0-0.7-0.3-0.7-0.7c0-0.2,0.1-0.5,0.3-0.6l3.9-2.2c0.3-0.2,0.7-0.1,0.9,0.2
			c0.2,0.3,0.1,0.7-0.2,0.9c0,0,0,0,0,0l-3.9,2.2C222.7,47.8,222.6,47.8,222.5,47.8"/>
		<path class="st5" d="M226.4,45.6c-0.1,0-0.2,0-0.3-0.1l-3.9-2.2c-0.3-0.2-0.4-0.6-0.2-0.9c0.2-0.3,0.6-0.4,0.9-0.2l3.9,2.2
			c0.3,0.2,0.4,0.6,0.2,0.9C226.8,45.4,226.6,45.6,226.4,45.6"/>
		<path class="st5" d="M203.5,47.8c-0.1,0-0.2,0-0.3-0.1l-3.9-2.3c-0.3-0.2-0.4-0.6-0.2-0.9c0,0,0,0,0,0c0.2-0.3,0.6-0.4,0.9-0.2
			l3.9,2.2c0.3,0.2,0.4,0.6,0.2,0.9c0,0,0,0,0,0C204,47.7,203.8,47.8,203.5,47.8"/>
		<path class="st5" d="M199.6,45.6c-0.4,0-0.7-0.3-0.7-0.7c0-0.2,0.1-0.5,0.3-0.6l3.9-2.2c0.3-0.2,0.7-0.1,0.9,0.2
			c0.2,0.3,0.1,0.7-0.2,0.9c0,0,0,0,0,0l-3.9,2.2C199.9,45.5,199.8,45.6,199.6,45.6"/>
	</g>
</g>
</svg>
