<svg id="Layer_1" data-name="Layer 1" xmlns="http://www.w3.org/2000/svg" xmlns:xlink="http://www.w3.org/1999/xlink" viewBox="0 0 248.58 248.58"><defs><style>.cls-1{fill:none;}.cls-2{fill:#e5e6e6;}.cls-3{clip-path:url(#clip-path);}.cls-4{fill:#d1d2d3;}.cls-5{fill:#fff;}.cls-6{fill:#808082;}.cls-7{isolation:isolate;}</style><clipPath id="clip-path"><rect class="cls-1" y="24.38" width="248.58" height="225.62"/></clipPath></defs><g id="Layer_3" data-name="Layer 3"><rect class="cls-2" width="248.58" height="248.58"/><g class="cls-3"><path class="cls-4" d="M155.18,197.93,26.55,123.67a7,7,0,0,1,0-12.09L84.29,78.24a10,10,0,0,1,10,0L218.4,149.92a10,10,0,0,1,0,17.26l-53.26,30.75a10,10,0,0,1-10,0"/><path class="cls-5" d="M166,194.5a10.42,10.42,0,0,1-5.2-1.4l-119-68.64a10.4,10.4,0,0,1,0-18L91.3,77.88a10.43,10.43,0,0,1,10.45,0l118.88,68.63a10.41,10.41,0,0,1,0,18L171.15,193.1a10.42,10.42,0,0,1-5.2,1.4"/><path class="cls-6" d="M220.85,146.13,102,77.5a10.87,10.87,0,0,0-10.89,0L41.63,106.05a10.84,10.84,0,0,0,0,18.78l118.9,68.64a10.77,10.77,0,0,0,10.84,0l49.48-28.56a10.84,10.84,0,0,0,0-18.78M91.52,78.25a10,10,0,0,1,10,0l113.21,65.36,2.83,1.64,2.83,1.64c.27.16.53.32.78.5h.06a5.2,5.2,0,0,1,.86,7.3A5.26,5.26,0,0,1,220.6,156l-49.68,28.69a10,10,0,0,1-10,0L42.18,116.13a5.42,5.42,0,0,1,0-9.39l1.79-1Zm128.89,85.91-49.47,28.57a10,10,0,0,1-10,0L42.06,124.08a10,10,0,0,1-3.62-13.67,9.52,9.52,0,0,1,1.28-1.74,5.91,5.91,0,0,0-.69,2.76,5.79,5.79,0,0,0,3,5.07l118.79,68.58a10.34,10.34,0,0,0,10.4,0l49.69-28.68a5.59,5.59,0,0,0,2.82-4.88,5.72,5.72,0,0,0-.46-2.27,10,10,0,0,1-1.54,14.06,10.58,10.58,0,0,1-1.25.85"/><path class="cls-6" d="M154.38,178.14a2.18,2.18,0,0,1-1.11-.3l-102.13-59a.87.87,0,0,1-.44-.77.83.83,0,0,1,.44-.76L107,85.1a2.25,2.25,0,0,1,2.22,0l102.13,59a.89.89,0,0,1,0,1.53L155.5,177.87a2.18,2.18,0,0,1-1.11.3m-.89-.67a1.77,1.77,0,0,0,1.78,0l55.85-32.25a.44.44,0,0,0,.23-.38.47.47,0,0,0-.23-.4L109,85.47a1.82,1.82,0,0,0-1.78,0L51.36,117.72a.45.45,0,0,0-.18.61.39.39,0,0,0,.18.18Z"/><path class="cls-6" d="M188.16,169.29a5.44,5.44,0,0,1-2.68-.61l-.43-.25a2,2,0,0,1-1.14-1.68,2.67,2.67,0,0,1,1.56-2.13l3.4-2a6.8,6.8,0,0,1,6.16-.24l.43.24a2,2,0,0,1,1.14,1.68,2.68,2.68,0,0,1-1.57,2.13l-3.4,2a7.14,7.14,0,0,1-3.47.86m4.18-7.07a6.6,6.6,0,0,0-3.25.82l-3.4,2a2.24,2.24,0,0,0-1.35,1.75,1.58,1.58,0,0,0,.92,1.3l.43.25a6.36,6.36,0,0,0,5.73-.25l3.4-2a2.25,2.25,0,0,0,1.34-1.75,1.55,1.55,0,0,0-.92-1.3l-.43-.25a4.93,4.93,0,0,0-2.47-.57"/><path class="cls-6" d="M71.09,95.92c.4.23.4.61,0,.83a1.59,1.59,0,0,1-1.44,0c-.4-.23-.41-.6,0-.83a1.59,1.59,0,0,1,1.44,0"/><path class="cls-6" d="M69.22,102.41a1.73,1.73,0,0,1-.86-.2l-.13-.07a.76.76,0,0,1-.41-.62.94.94,0,0,1,.54-.76l9.9-5.71a2.13,2.13,0,0,1,1.95,0l.12.08a.71.71,0,0,1,.41.62.91.91,0,0,1-.53.75l-9.9,5.72a2.29,2.29,0,0,1-1.09.27M79.35,95.2a1.8,1.8,0,0,0-.88.22l-9.9,5.72c-.2.11-.31.25-.31.38a.31.31,0,0,0,.19.24l.12.08a1.73,1.73,0,0,0,1.52-.08L80,96.05c.2-.12.32-.26.32-.38s-.12-.21-.2-.25L80,95.35a1.31,1.31,0,0,0-.64-.15"/><path class="cls-6" d="M194.55,176.41a.63.63,0,0,1-.33-.09,1,1,0,0,1-.43-.92,2.35,2.35,0,0,1,1-1.91l4.55-2.64a.79.79,0,0,1,.81,0,1,1,0,0,1,.42.91,2.37,2.37,0,0,1-1,1.92L195,176.27a1.07,1.07,0,0,1-.47.14m5.28-5.26a.57.57,0,0,0-.25.08L195,173.86a2,2,0,0,0-.79,1.54.65.65,0,0,0,.2.54.4.4,0,0,0,.38-.05l4.55-2.63a2,2,0,0,0,.8-1.54.65.65,0,0,0-.2-.54h-.13"/><path class="cls-6" d="M131.44,140a20.9,20.9,0,0,1-10.22-2.45c-2.78-1.59-4.3-3.74-4.3-6s1.51-4.38,4.24-6c5.58-3.22,14.7-3.2,20.32,0,2.77,1.6,4.3,3.74,4.3,6s-1.51,4.38-4.24,6a20.66,20.66,0,0,1-10.1,2.41m-.18-16.41a20.17,20.17,0,0,0-9.89,2.36c-2.59,1.49-4,3.48-4,5.58s1.45,4.13,4.09,5.65c5.5,3.18,14.42,3.19,19.88,0,2.6-1.5,4-3.49,4-5.59s-1.46-4.13-4.09-5.65a20.5,20.5,0,0,0-10-2.39"/><path class="cls-6" d="M131.41,137a13.43,13.43,0,0,1-6.6-1.58c-1.81-1-2.8-2.44-2.8-3.93s1-2.86,2.76-3.89a14.51,14.51,0,0,1,13.12,0c1.8,1,2.8,2.44,2.8,3.93s-1,2.87-2.76,3.9a13.35,13.35,0,0,1-6.52,1.55m-.12-10.53A12.91,12.91,0,0,0,125,128c-1.63,1-2.54,2.2-2.54,3.52s.92,2.6,2.59,3.56a14,14,0,0,0,12.68,0c1.65-.94,2.55-2.19,2.55-3.52s-.92-2.59-2.59-3.55a13,13,0,0,0-6.38-1.53"/><path class="cls-6" d="M131.38,134.62a7.38,7.38,0,0,1-3.65-.88,2.35,2.35,0,0,1,0-4.43,8,8,0,0,1,7.26,0,2.69,2.69,0,0,1,1.58,2.23,2.65,2.65,0,0,1-1.56,2.21,7.43,7.43,0,0,1-3.61.86m-.06-5.75a6.9,6.9,0,0,0-3.39.81,2.25,2.25,0,0,0-1.34,1.84,2.29,2.29,0,0,0,1.36,1.85,7.52,7.52,0,0,0,6.82,0,2.24,2.24,0,0,0,1.34-1.83,2.31,2.31,0,0,0-1.36-1.86,7.06,7.06,0,0,0-3.43-.82"/><path class="cls-5" d="M165.81,64.74H96.89a7.46,7.46,0,0,0-7.45,7.45v41a7.46,7.46,0,0,0,7.45,7.45h19.5a3.48,3.48,0,0,1,2.21.79l11.64,9.65a1.75,1.75,0,0,0,2.22,0l11.63-9.65a3.52,3.52,0,0,1,2.22-.79h19.5a7.47,7.47,0,0,0,7.45-7.45v-41a7.47,7.47,0,0,0-7.45-7.45"/><path class="cls-6" d="M131.34,131.89a2.18,2.18,0,0,1-1.38-.49l-11.64-9.65a3,3,0,0,0-1.93-.7H96.89A7.88,7.88,0,0,1,89,113.18h0v-41a7.9,7.9,0,0,1,7.88-7.89H165.8a7.9,7.9,0,0,1,7.88,7.89v41a7.9,7.9,0,0,1-7.88,7.88H146.3a3,3,0,0,0-1.94.7l-11.64,9.65a2.18,2.18,0,0,1-1.39.49M96.89,65.17a7,7,0,0,0-7,7v41a7,7,0,0,0,7,7h19.5a3.9,3.9,0,0,1,2.49.9l11.64,9.65a1.3,1.3,0,0,0,1.66,0l11.64-9.65a3.9,3.9,0,0,1,2.49-.9h19.5a7,7,0,0,0,7-7v-41a7,7,0,0,0-7-7Z"/></g><g class="cls-7"><path class="cls-6" d="M98.21,98.92a2.47,2.47,0,0,0,.74.86,3.19,3.19,0,0,0,1.07.49,5.41,5.41,0,0,0,1.28.16,6.52,6.52,0,0,0,1-.08,3.06,3.06,0,0,0,1-.29,2,2,0,0,0,.75-.58,1.46,1.46,0,0,0,.3-1,1.36,1.36,0,0,0-.4-1,3.13,3.13,0,0,0-1-.64,9.59,9.59,0,0,0-1.45-.44c-.54-.13-1.08-.27-1.64-.43a13.87,13.87,0,0,1-1.66-.52,5.57,5.57,0,0,1-1.44-.8,3.53,3.53,0,0,1-1.43-3,4,4,0,0,1,.5-2A4.51,4.51,0,0,1,97,88.23a5.91,5.91,0,0,1,1.83-.85,8,8,0,0,1,2-.28,9.51,9.51,0,0,1,2.29.27,5.74,5.74,0,0,1,1.95.86,4.38,4.38,0,0,1,1.35,1.52A4.73,4.73,0,0,1,107,92h-3.24a2.61,2.61,0,0,0-.28-1.13,1.91,1.91,0,0,0-.65-.7,2.73,2.73,0,0,0-.93-.36,5.73,5.73,0,0,0-1.14-.11,3.63,3.63,0,0,0-.8.09,2.08,2.08,0,0,0-.74.29,1.85,1.85,0,0,0-.54.54,1.42,1.42,0,0,0-.21.8,1.34,1.34,0,0,0,.17.73,1.52,1.52,0,0,0,.67.51,9.39,9.39,0,0,0,1.38.47l2.31.59c.28.06.68.16,1.18.31a6,6,0,0,1,1.5.71A4.6,4.6,0,0,1,107,96.05a3.76,3.76,0,0,1,.54,2.1,4.76,4.76,0,0,1-.4,1.93,4.12,4.12,0,0,1-1.21,1.55,5.77,5.77,0,0,1-2,1,9.31,9.31,0,0,1-2.73.36,9.44,9.44,0,0,1-2.44-.31,6,6,0,0,1-2.08-1A4.78,4.78,0,0,1,95.21,100a5.11,5.11,0,0,1-.51-2.42h3.24A2.87,2.87,0,0,0,98.21,98.92Z"/><path class="cls-6" d="M112.81,87.47V93.3H119V87.47h3.34v15.19H119V96.11h-6.15v6.55h-3.34V87.47Z"/><path class="cls-6" d="M132.81,87.47l5.68,15.19H135l-1.15-3.38H128.2l-1.2,3.38h-3.36l5.75-15.19Zm.19,9.32-1.91-5.58h0l-2,5.58Z"/><path class="cls-6" d="M148,87.47a4.9,4.9,0,0,1,1.84.33,4.32,4.32,0,0,1,1.4.9,4,4,0,0,1,.9,1.33,4.37,4.37,0,0,1,.3,1.63,4.53,4.53,0,0,1-.56,2.32,3.57,3.57,0,0,1-1.84,1.49v0a2.59,2.59,0,0,1,1,.52,3,3,0,0,1,.66.83,3.6,3.6,0,0,1,.37,1.06,8.93,8.93,0,0,1,.16,1.14c0,.25,0,.53.05.86s0,.66.07,1a6.84,6.84,0,0,0,.17,1,2.34,2.34,0,0,0,.35.78h-3.34a6,6,0,0,1-.34-1.72c0-.67-.11-1.31-.19-1.92a3,3,0,0,0-.73-1.74,2.46,2.46,0,0,0-1.8-.56h-3.34v5.94h-3.35V87.47Zm-1.19,6.87a2.52,2.52,0,0,0,1.72-.51,2.12,2.12,0,0,0,.57-1.66,2,2,0,0,0-.57-1.61,2.58,2.58,0,0,0-1.72-.5h-3.66v4.28Z"/><path class="cls-6" d="M166.54,87.47v2.81h-8v3.25h7.36v2.6h-7.36v3.72h8.19v2.81H155.18V87.47Z"/></g><path class="cls-6" d="M226.79,25.45a2.23,2.23,0,1,1,2.26-2.23,2.23,2.23,0,0,1-2.26,2.23h0M212.07,51.12a13.39,13.39,0,1,1,13.59-13.39,13.39,13.39,0,0,1-13.59,13.39m11.32-39.06H200.74A14.63,14.63,0,0,0,186,26.57V48.89A14.63,14.63,0,0,0,200.74,63.4h22.65a14.63,14.63,0,0,0,14.72-14.51V26.57a14.63,14.63,0,0,0-14.72-14.51"/><path class="cls-5" d="M226.79,25.45a2.23,2.23,0,1,1,2.26-2.23,2.23,2.23,0,0,1-2.26,2.23h0"/></g></svg>