<svg xmlns="http://www.w3.org/2000/svg" xmlns:xlink="http://www.w3.org/1999/xlink" viewBox="0 0 519.6 519.6"><defs><style>.cls-1{fill:none;}.cls-2{fill:#e5e6e6;}.cls-3{clip-path:url(#clip-path);}.cls-4{fill:#d1d2d3;}.cls-5{fill:#fff;}.cls-6{fill:#808082;}</style><clipPath id="clip-path"><rect class="cls-1" y="51" width="519.6" height="471.7"/></clipPath></defs><g id="Layer_2" data-name="Layer 2"><g id="Layer_1-2" data-name="Layer 1"><rect class="cls-2" width="519.6" height="519.6"/><g class="cls-3"><path class="cls-4" d="M324.4,413.8,55.5,258.5a14.64,14.64,0,0,1,0-25.3l120.7-69.7a20.88,20.88,0,0,1,20.8,0L456.5,313.3a20.84,20.84,0,0,1,0,36.1L345.2,413.8a20.88,20.88,0,0,1-20.8,0"/></g><g class="cls-3"><path class="cls-5" d="M346.9,406.6a22,22,0,0,1-10.9-2.9L87.5,260.2a21.75,21.75,0,0,1,0-37.7l103.4-59.7a21.93,21.93,0,0,1,21.8,0L461.2,306.3a21.75,21.75,0,0,1,0,37.7L357.8,403.7a22,22,0,0,1-10.9,2.9"/></g><g class="cls-3"><path class="cls-6" d="M461.7,305.5,213.2,162a22.51,22.51,0,0,0-22.8,0L87,221.7a22.65,22.65,0,0,0,0,39.2L335.6,404.4a22.78,22.78,0,0,0,22.6,0l103.4-59.7a22.35,22.35,0,0,0,11.3-19.6,22.06,22.06,0,0,0-11.2-19.6M191.3,163.6a20.66,20.66,0,0,1,10.5-2.8,20.93,20.93,0,0,1,10.5,2.8L449,300.2l5.9,3.4,5.9,3.4a4.05,4.05,0,0,0,.9.5,4.23,4.23,0,0,1,.7.5l.1.1a10.92,10.92,0,0,1-1.3,18l-103.9,60a20.71,20.71,0,0,1-20.8,0L88.2,242.8a11.27,11.27,0,0,1,0-19.6l3.7-2.2ZM460.8,343.2,357.4,402.9a20.71,20.71,0,0,1-20.8,0L87.9,259.4A20.87,20.87,0,0,1,83,227.2a12.43,12.43,0,0,0-1.4,5.8,12.18,12.18,0,0,0,6.1,10.6L336,386.9a21.93,21.93,0,0,0,21.8,0l103.9-60a11.56,11.56,0,0,0,5.9-10.2,10.44,10.44,0,0,0-1-4.7,21,21,0,0,1-5.8,31.2"/></g><g class="cls-3"><path class="cls-6" d="M322.7,372.4a4.65,4.65,0,0,1-2.3-.6L106.9,248.5a1.87,1.87,0,0,1,0-3.2l116.7-67.4a4.71,4.71,0,0,1,4.6,0L441.7,301.2a1.87,1.87,0,0,1,0,3.2L325,371.8a4.65,4.65,0,0,1-2.3.6m-1.8-1.4a3.52,3.52,0,0,0,3.7,0l116.7-67.4a1,1,0,0,0,.5-.8.79.79,0,0,0-.5-.8L227.8,178.7a3.52,3.52,0,0,0-3.7,0L107.4,246.1a.89.89,0,0,0,0,1.6Z"/></g><g class="cls-3"><path class="cls-6" d="M393.3,353.9a11,11,0,0,1-5.6-1.3l-.9-.5a4.21,4.21,0,0,1-2.4-3.5c0-1.6,1.2-3.2,3.3-4.4l7.1-4.1c3.8-2.2,9.6-2.4,12.9-.5l.9.5a4.21,4.21,0,0,1,2.4,3.5c0,1.6-1.2,3.2-3.3,4.4l-7.1,4.1a14.9,14.9,0,0,1-7.3,1.8m8.8-14.8a14,14,0,0,0-6.8,1.7l-7.1,4.1c-1.8,1-2.8,2.4-2.8,3.7a3.34,3.34,0,0,0,1.9,2.7l.9.5c3.1,1.8,8.4,1.5,12-.5l7.1-4.1c1.8-1,2.8-2.4,2.8-3.7a3.34,3.34,0,0,0-1.9-2.7l-.9-.5a10.79,10.79,0,0,0-5.2-1.2"/></g><g class="cls-3"><path class="cls-6" d="M148.6,200.5c.8.5.8,1.3,0,1.7a3.19,3.19,0,0,1-3,0c-.8-.5-.8-1.3,0-1.7a3.19,3.19,0,0,1,3,0"/></g><g class="cls-3"><path class="cls-6" d="M144.7,214.1a3.42,3.42,0,0,1-1.8-.4l-.3-.2a1.56,1.56,0,0,1-.8-1.3,1.94,1.94,0,0,1,1.1-1.6l20.7-11.9a4.58,4.58,0,0,1,4.1-.2l.3.2a1.48,1.48,0,0,1,.9,1.3,1.94,1.94,0,0,1-1.1,1.6l-20.7,12a6.87,6.87,0,0,1-2.4.5M165.9,199a3.74,3.74,0,0,0-1.8.5l-20.7,12c-.4.2-.7.5-.7.8a.66.66,0,0,0,.4.5l.3.2a3.35,3.35,0,0,0,3.2-.2l20.7-12c.4-.2.7-.5.7-.8s-.3-.4-.4-.5l-.3-.2a3.19,3.19,0,0,0-1.4-.3"/></g><g class="cls-3"><path class="cls-6" d="M406.7,368.8a1.45,1.45,0,0,1-.7-.2,2,2,0,0,1-.9-1.9,4.87,4.87,0,0,1,2.1-4l9.5-5.5a1.74,1.74,0,0,1,1.7-.1,2,2,0,0,1,.9,1.9,4.87,4.87,0,0,1-2.1,4l-9.5,5.5a2.24,2.24,0,0,1-1,.3m11-11a.76.76,0,0,0-.5.2l-9.5,5.5a4.1,4.1,0,0,0-1.7,3.2c0,.6.2,1,.4,1.1a1.06,1.06,0,0,0,.8-.1l9.5-5.5a4.1,4.1,0,0,0,1.7-3.2c0-.6-.2-1-.4-1.1a.37.37,0,0,0-.3-.1"/></g><g class="cls-3"><path class="cls-6" d="M274.8,292.6c-7.7,0-15.5-1.7-21.4-5.1s-9-7.8-9-12.6,3.2-9.1,8.9-12.5c11.7-6.7,30.7-6.7,42.5.1,5.8,3.4,9,7.8,9,12.6s-3.2,9.1-8.9,12.5-13.5,5-21.1,5m-.4-34.3c-7.5,0-15,1.6-20.7,4.9-5.4,3.1-8.4,7.3-8.4,11.7s3,8.6,8.5,11.8c11.5,6.6,30.1,6.7,41.6.1,5.4-3.1,8.4-7.3,8.4-11.7s-3-8.6-8.5-11.8c-5.8-3.4-13.4-5-20.9-5"/></g><g class="cls-3"><path class="cls-6" d="M274.7,286.4a28.17,28.17,0,0,1-13.8-3.3c-3.8-2.2-5.9-5.1-5.9-8.2s2-6,5.8-8.1c7.5-4.4,19.8-4.3,27.4.1,3.8,2.2,5.9,5.1,5.9,8.2s-2,6-5.8,8.1a28.46,28.46,0,0,1-13.6,3.2m-.2-22a26.83,26.83,0,0,0-13.2,3.1c-3.4,2-5.3,4.6-5.3,7.3s1.9,5.4,5.4,7.4c7.3,4.2,19.2,4.3,26.5.1,3.4-2,5.3-4.6,5.3-7.4s-1.9-5.4-5.4-7.4a28.67,28.67,0,0,0-13.3-3.1"/></g><g class="cls-3"><path class="cls-6" d="M274.6,281.4a15.53,15.53,0,0,1-7.6-1.8c-2.1-1.2-3.3-2.9-3.3-4.7s1.2-3.4,3.3-4.6a16.94,16.94,0,0,1,15.2,0c2.1,1.2,3.3,2.9,3.3,4.7s-1.1,3.4-3.3,4.6a15.53,15.53,0,0,1-7.6,1.8m-.1-12a14.9,14.9,0,0,0-7.1,1.7c-1.8,1-2.8,2.4-2.8,3.8s1,2.8,2.9,3.9c3.9,2.3,10.3,2.3,14.3,0,1.8-1,2.8-2.4,2.8-3.8s-1-2.8-2.8-3.9a16,16,0,0,0-7.3-1.7"/></g><g class="cls-3"><path class="cls-5" d="M346.6,135.3H202.5a15.62,15.62,0,0,0-15.6,15.6v85.7a15.62,15.62,0,0,0,15.6,15.6h40.8a7.07,7.07,0,0,1,4.6,1.7l24.3,20.2a3.62,3.62,0,0,0,4.6,0l24.3-20.2a7.07,7.07,0,0,1,4.6-1.7h40.8a15.62,15.62,0,0,0,15.6-15.6V150.9a15.47,15.47,0,0,0-15.5-15.6"/></g><g class="cls-3"><path class="cls-6" d="M274.6,275.7a4.64,4.64,0,0,1-2.9-1l-24.3-20.2a6.65,6.65,0,0,0-4.1-1.5H202.5A16.52,16.52,0,0,1,186,236.5V150.8a16.52,16.52,0,0,1,16.5-16.5H346.6a16.52,16.52,0,0,1,16.5,16.5v85.7A16.52,16.52,0,0,1,346.6,253H305.8a6.29,6.29,0,0,0-4.1,1.5l-24.3,20.2a4.19,4.19,0,0,1-2.8,1M202.5,136.2a14.72,14.72,0,0,0-14.7,14.7v85.7a14.72,14.72,0,0,0,14.7,14.7h40.8a8.32,8.32,0,0,1,5.2,1.9l24.3,20.2a2.85,2.85,0,0,0,3.5,0l24.3-20.2a8.32,8.32,0,0,1,5.2-1.9h40.8a14.72,14.72,0,0,0,14.7-14.7V150.9a14.72,14.72,0,0,0-14.7-14.7Z"/></g><path class="cls-6" d="M225.2,205.6a12.31,12.31,0,0,0,.2,2,2.63,2.63,0,0,0,.7,1.5,4.49,4.49,0,0,0,1.3,1,5.58,5.58,0,0,0,2.1.4,3.76,3.76,0,0,0,3.8-4,4.84,4.84,0,0,0-.3-1.8,3.32,3.32,0,0,0-1-1.4,5,5,0,0,0-1.8-1.1,19.73,19.73,0,0,0-2.7-1,21.59,21.59,0,0,1-3.7-1.6,10.56,10.56,0,0,1-2.6-2,6.81,6.81,0,0,1-1.5-2.6,11.59,11.59,0,0,1-.5-3.4c0-3.1.9-5.5,2.6-7a10.72,10.72,0,0,1,7.2-2.3,16,16,0,0,1,3.9.5,8.14,8.14,0,0,1,3.1,1.5,6,6,0,0,1,2,2.7,11.32,11.32,0,0,1,.7,3.9v.9h-6.1a6.71,6.71,0,0,0-.8-3.5,2.93,2.93,0,0,0-2.7-1.2,4.84,4.84,0,0,0-1.8.3,2.42,2.42,0,0,0-1.1.8,2.28,2.28,0,0,0-.6,1.2,5.9,5.9,0,0,0-.2,1.4,4,4,0,0,0,3.3,4.3l4.9,2.1a13.94,13.94,0,0,1,3,1.7,6.4,6.4,0,0,1,1.8,1.9,6.25,6.25,0,0,1,1,2.2,11.15,11.15,0,0,1,.3,2.7c0,3.4-1,5.8-2.9,7.3s-4.6,2.3-8.1,2.3-6.2-.8-7.8-2.4-2.3-3.8-2.3-6.8v-1.3H225v.8Z"/><path class="cls-6" d="M249.5,182.8v12.1H257V182.8h6.4v31.8H257V200.5h-7.5v14.1h-6.4V182.8Z"/><path class="cls-6" d="M281.9,182.8l8.4,31.8h-6.7l-1.5-6.7h-8.5l-1.5,6.7h-6.7l8.6-31.8Zm-.8,19.8L278,188.3h-.1l-3.1,14.3Z"/><path class="cls-6" d="M304.4,182.8a9.05,9.05,0,0,1,6.2,2c1.5,1.3,2.2,3.4,2.2,6.2a9.12,9.12,0,0,1-1.3,5.2,6.32,6.32,0,0,1-4,2.6v.1a5.48,5.48,0,0,1,3.5,1.6,7.1,7.1,0,0,1,1.4,3.9,11.48,11.48,0,0,1,.1,1.9c0,.7.1,1.5.1,2.3a31,31,0,0,0,.3,3.9,2.45,2.45,0,0,0,1.2,1.8v.3h-6.9a4,4,0,0,1-.6-1.5c-.1-.5-.1-1.2-.2-1.8l-.2-6.1a5.85,5.85,0,0,0-.9-2.9,3.47,3.47,0,0,0-2.8-1.1H299v13.4h-6.4V182.8Zm-2.8,13.9a5.72,5.72,0,0,0,3.6-1.1c.9-.7,1.2-1.9,1.2-3.7,0-2.9-1.5-4.4-4.4-4.4h-3v9.2Z"/><path class="cls-6" d="M335,188.1H323.7v7.5h10.7v5.2H323.7v8.5h11.8v5.2H317.3V182.8H335Z"/><path class="cls-5" d="M474.1,53.2a4.7,4.7,0,1,1,4.7-4.7,4.69,4.69,0,0,1-4.7,4.7m-30.8,53.7a28,28,0,1,1,28.4-28,28.23,28.23,0,0,1-28.4,28M467,25.2H419.7c-17,0-30.8,13.6-30.8,30.3v46.7c0,16.7,13.8,30.3,30.8,30.3H467c17,0,30.8-13.6,30.8-30.3V55.5c0-16.7-13.9-30.3-30.8-30.3"/></g></g></svg>