<svg id="Layer_1" data-name="Layer 1" xmlns="http://www.w3.org/2000/svg" xmlns:xlink="http://www.w3.org/1999/xlink" viewBox="0 0 522.5 519.2"><defs><style>.cls-1,.cls-10,.cls-4,.cls-9{fill:none;}.cls-2{fill:#e5e6e6;}.cls-3{clip-path:url(#clip-path);}.cls-10,.cls-11,.cls-4,.cls-9{stroke:#808082;}.cls-10,.cls-4,.cls-9{stroke-linecap:round;stroke-linejoin:round;}.cls-4{stroke-width:2.17px;}.cls-5{fill:#cfd1d2;}.cls-6{fill:#fff;}.cls-11,.cls-7{fill:#808082;}.cls-8{clip-path:url(#clip-path-4);}.cls-9{stroke-width:0.5px;}.cls-10{stroke-width:0.52px;}.cls-11{stroke-miterlimit:10;stroke-width:1px;}</style><clipPath id="clip-path"><rect class="cls-1" x="1.1" width="519.9" height="519.9"/></clipPath><clipPath id="clip-path-4"><path class="cls-1" d="M273.5,307c-1.8-1.8-5.7-1.8-10.6-1.8a74.56,74.56,0,0,1-10.4-.5c-8.9-1.3-16.1-2-16.2-2-16-.5-27.2,1.6-34,6.6-.1,0-.2-.1-.3-.1H143.7V71.1H277.4V306.7A16.66,16.66,0,0,0,273.5,307Z"/></clipPath></defs><rect class="cls-2" x="1.1" width="519.9" height="519.9"/><rect class="cls-2" x="1.1" width="519.9" height="519.9"/><g class="cls-3"><line class="cls-4" x1="1.1" y1="259.9" x2="521" y2="259.9"/></g><g class="cls-3"><path class="cls-5" d="M513.2,487.9a.79.79,0,0,0,.1-1.1c-7-8.2-13.1-14.7-18.5-20.4-11.9-12.7-19.8-21-24.5-34.8-5.8-16.7-6.8-18.7-10.3-25.2-1.4-2.6-3.1-5.7-5.6-10.8-7.9-15.9-17.2-30-23.4-39.4-.8-1.3-1.6-2.5-2.3-3.6-2.5-3.9-4.8-8.3-7-12.5-3-5.7-6-11.6-9.8-16.4l-2.3-3c-5.3-6.7-9.4-12.1-15.9-19-7.6-8.1-12.2-13.1-18.9-20.9s-10.2-11.5-16.6-17a32.08,32.08,0,0,1-6.2-6.9,47.1,47.1,0,0,0-5.1-6.2,69,69,0,0,1-8.2-10.9c-1.9-3-4.1-6.4-7.2-10.6-4.4-6-7-9.1-9.6-12.1-1.8-2.2-3.7-4.4-6.3-7.7a108.52,108.52,0,0,0-10.8-12.1c-1.5-1.5-3-3-4.8-4.9a48,48,0,0,0-13.9-10.3c-.6-.3-1.3-.7-2-1.1-4.7-2.6-10-5.8-11.5-6.7V65.9c0-9.6-3.4-16.5-10.2-20.5A27.5,27.5,0,0,0,249.2,42H141.1c-7.6,0-13.5,2.1-17.6,6.4C116.8,55.3,117,65.5,117,66V85.8h-3.8v14.9H117v14.9h-3.8v9.3H117v17.3h-3.8v9.3H117v67.6c-22.3-1.4-26.2,12.7-26.9,17.1-1.2,7.7,2,14,9.5,18.5,6.1,3.8,15.2,7.4,17.4,8.3v26.8a24.07,24.07,0,0,1-3.8,0,54.59,54.59,0,0,0-6-.1h-.3a131.87,131.87,0,0,1-16.7,0c-4.8-.3-10.6,1.8-14.7,5.4A16.72,16.72,0,0,0,69.6,307c-.7,12.4,9.9,18.9,20.5,23.5,8.4,3.7,19,4.2,24.4,4.2H117v9.5c0,8.3,2.4,14.7,7.1,18.9-1.6-.1-3-.2-4.4-.4-3.9-.4-7.2-.7-9.7.5-2.7,1.4-11.4,7-7.4,21.3,3.7,13.3,18.8,16.4,26.1,18l.3.1c6.4,1.3,16.8,2.3,24.8,1.1,0,0,3.3-.8,9.4,1.2a90.37,90.37,0,0,0,25,3.6A12.37,12.37,0,0,1,196,411c.7.4,16.4,9.9,31.5,9.9,1,0,2-.1,2.9-.1,2.8,8.4,10.5,15.6,20.5,24.7,3.2,3,6.5,6,10,9.4,2.4,9.3,9.3,15.6,15.7,21.4a78,78,0,0,1,5.8,5.6l3.8,4.1c8.9,9.6,20.1,21.6,35.3,30.2a98.93,98.93,0,0,0,15.4,7.1c5.3,2,8.4,3.1,14.1,9.4a55.48,55.48,0,0,0,23.4,14.8c4.8,4,9.1,5.8,14,7.9,2.4,1,4.8,2,7.6,3.4a29.46,29.46,0,0,1,9.2,6.5,69.69,69.69,0,0,0,7.5,6.4c9,6.9,36.3,35,36.6,35.3a.73.73,0,0,0,.6.2,1.42,1.42,0,0,0,.6-.2.78.78,0,0,0,0-1.1"/></g><g class="cls-3"><path class="cls-6" d="M522.2,466.1a.79.79,0,0,0,.1-1.1c-6.9-8.1-12.8-14.4-18.1-20-11.7-12.4-19.4-20.6-24-34-5.6-16.4-6.7-18.3-10.1-24.7-1.3-2.5-3-5.6-5.5-10.6-7.7-15.5-16.9-29.4-22.9-38.6-.8-1.2-1.6-2.4-2.3-3.5-2.5-3.8-4.7-8.1-6.9-12.2-2.9-5.6-5.9-11.3-9.6-16l-2.3-2.9A226.39,226.39,0,0,0,405,283.9c-7.4-7.9-11.9-12.8-18.5-20.4s-10-11.3-16.3-16.6a33.52,33.52,0,0,1-6.1-6.7,38.46,38.46,0,0,0-5-6.1,60.9,60.9,0,0,1-8-10.7c-1.9-2.9-4-6.2-7.1-10.4-4.3-5.9-6.9-8.9-9.4-11.9-1.8-2.1-3.6-4.3-6.1-7.5A113.85,113.85,0,0,0,318,181.8c-1.4-1.5-2.9-3-4.7-4.8a45.49,45.49,0,0,0-13.6-10c-.6-.3-1.3-.7-1.9-1-4.6-2.5-9.8-5.7-11.2-6.5V52.9c0-9.4-3.4-16.2-10-20.1a27.57,27.57,0,0,0-12.9-3.4H157.9c-7.4,0-13.3,2.1-17.3,6.3-6.5,6.7-6.4,16.8-6.3,17.2V72.3h-3.7V86.9h3.7v14.6h-3.7v9.1h3.7v16.9h-3.7v9.1h3.7v66.2c-21.8-1.4-25.6,12.4-26.3,16.7-1.1,7.6,2,13.7,9.3,18.1,6,3.7,14.8,7.2,17,8.1V272a22.82,22.82,0,0,1-3.7,0,52.69,52.69,0,0,0-5.9-.1h-.3a146.59,146.59,0,0,1-16.3,0c-4.7-.3-10.4,1.8-14.4,5.3a17,17,0,0,0-5.8,11.7c-.7,12.2,9.7,18.5,20,23,8.2,3.6,18.6,4.1,23.8,4.1h2.4v9.3c0,8.2,2.3,14.4,6.9,18.5-1.5-.1-3-.2-4.3-.4-3.8-.4-7.1-.7-9.5.5-2.7,1.3-11.2,6.8-7.3,20.8,3.6,13,18.4,16.1,25.5,17.6l.3.1c6.2,1.3,16.5,2.2,24.3,1,0,0,3.3-.8,9.2,1.2,6.2,2.1,17,3.6,24.5,3.5a12.07,12.07,0,0,1,7.6,2.4c.7.4,16,9.7,30.9,9.7,1,0,1.9-.1,2.9-.1,2.8,8.3,10.3,15.3,20,24.2,3.1,2.9,6.4,5.9,9.8,9.2,2.4,9.1,9.1,15.3,15.3,20.9a75.29,75.29,0,0,1,5.7,5.5l3.7,4c8.8,9.4,19.6,21.1,34.5,29.5a101.59,101.59,0,0,0,15.1,7c5.2,1.9,8.3,3.1,13.8,9.2,9.1,10.1,21.3,14,22.9,14.5,4.7,3.9,8.9,5.7,13.7,7.7,2.3,1,4.7,2,7.4,3.4a31.24,31.24,0,0,1,9,6.3,75.42,75.42,0,0,0,7.3,6.3c8.8,6.8,35.6,34.3,35.9,34.6a.73.73,0,0,0,.6.2,1.42,1.42,0,0,0,.6-.2.78.78,0,0,0,0-1.1h61.8Z"/><path class="cls-7" d="M219.7,306.3c-9.2,0-17.8,4.8-20.6,11.4-5.7,13.6,6.6,23.4,6.7,23.5l.1.1h.2a50.71,50.71,0,0,0,10.1,1.3h1.2a30.93,30.93,0,0,0,7.7-1.2l.4-.2v-.5c1.9-19,11.2-30,11.3-30.1l.8-.9-1.1-.4c-4.1-1.3-16.2-3-16.7-3.1Zm4.3,33.8a34.3,34.3,0,0,1-6.8.9,45.93,45.93,0,0,1-10.6-1.2c-1.3-1.1-11.1-9.6-6.1-21.5,2.5-6,10.6-10.4,19.1-10.5.8.1,10.6,1.5,15.2,2.7A63.38,63.38,0,0,0,224,340.1Z"/><path class="cls-7" d="M273.6,312.4l-.6-2.9-.9,2.8c-1.9,6-5.7,8.1-5.8,8.1a.81.81,0,0,0,.8,1.4,14.27,14.27,0,0,0,5-5.5,29.36,29.36,0,0,1-3.7,10.7c-5.1,9.1-4.9,14.4-4.9,14.6a.86.86,0,0,0,.8.8h0a.86.86,0,0,0,.8-.8s-.2-5,4.7-13.7C274.9,318.7,273.7,312.7,273.6,312.4Z"/><path class="cls-7" d="M254.7,312.1a.78.78,0,0,0-1.1,0c-.4.4-9.2,10.3-5.6,25.9a.76.76,0,0,0,.8.6h.2a.83.83,0,0,0,.6-1,28.21,28.21,0,0,1,5.2-24.5A.78.78,0,0,0,254.7,312.1Z"/><path class="cls-7" d="M522.3,465c-6.9-8.1-12.8-14.4-18.1-20-11.7-12.4-19.4-20.6-24-34-5.6-16.4-6.7-18.3-10.1-24.7-1.3-2.5-3-5.6-5.5-10.6-7.7-15.5-16.9-29.4-22.9-38.6-.8-1.2-1.6-2.4-2.3-3.5-2.5-3.8-4.7-8.1-6.9-12.2-2.9-5.6-5.9-11.3-9.6-16l-2.3-2.9A226.39,226.39,0,0,0,405,283.9c-7.4-7.9-11.9-12.8-18.5-20.4s-10-11.3-16.3-16.6a33.52,33.52,0,0,1-6.1-6.7,38.46,38.46,0,0,0-5-6.1,60.9,60.9,0,0,1-8-10.7c-1.9-2.9-4-6.2-7.1-10.4-4.3-5.9-6.9-8.9-9.4-11.9-1.8-2.1-3.6-4.3-6.1-7.5A113.85,113.85,0,0,0,318,181.8c-1.4-1.5-2.9-3-4.7-4.8a45.49,45.49,0,0,0-13.6-10c-.6-.3-1.3-.7-1.9-1-4.6-2.5-9.8-5.7-11.2-6.5V52.9c0-9.4-3.4-16.2-10-20.1a27.57,27.57,0,0,0-12.9-3.4H157.9c-7.4,0-13.3,2.1-17.3,6.3-6.5,6.7-6.4,16.8-6.3,17.2V72.3h-3.7V86.9h3.7v14.6h-3.7v9.1h3.7v16.9h-3.7v9.1h3.7v66.2c-21.8-1.4-25.6,12.4-26.3,16.7-1.1,7.6,2,13.7,9.3,18.1,6,3.7,14.8,7.2,17,8.1V272a22.82,22.82,0,0,1-3.7,0,52.69,52.69,0,0,0-5.9-.1h-.3a146.59,146.59,0,0,1-16.3,0c-4.7-.3-10.4,1.8-14.4,5.3a17,17,0,0,0-5.8,11.7c-.7,12.2,9.7,18.5,20,23,8.2,3.6,18.6,4.1,23.8,4.1h2.4v9.3c0,8.2,2.3,14.4,6.9,18.5-1.5-.1-3-.2-4.3-.4-3.8-.4-7.1-.7-9.5.5-2.7,1.3-11.2,6.8-7.3,20.8,3.6,13,18.4,16.1,25.5,17.6l.3.1c6.2,1.3,16.5,2.2,24.3,1,0,0,3.3-.8,9.2,1.2,6.2,2.1,17,3.6,24.5,3.5a12.07,12.07,0,0,1,7.6,2.4c.7.4,16,9.7,30.9,9.7,1,0,1.9-.1,2.9-.1,2.8,8.3,10.3,15.3,20,24.2,3.1,2.9,6.4,5.9,9.8,9.2,2.4,9.1,9.1,15.3,15.3,20.9a75.29,75.29,0,0,1,5.7,5.5l3.7,4c8.8,9.4,19.6,21.1,34.5,29.5a101.59,101.59,0,0,0,15.1,7c5.2,1.9,8.3,3.1,13.8,9.2,9.1,10.1,21.3,14,22.9,14.5,4.7,3.9,8.9,5.7,13.7,7.7,2.3,1,4.7,2,7.4,3.4a31.24,31.24,0,0,1,9,6.3,75.42,75.42,0,0,0,7.3,6.3c8.8,6.8,35.6,34.3,35.9,34.6a.73.73,0,0,0,.6.2,1.42,1.42,0,0,0,.6-.2.78.78,0,0,0,0-1.1c-1.1-1.1-27.1-27.9-36-34.7a61.94,61.94,0,0,1-7.2-6.2,31.69,31.69,0,0,0-9.4-6.6c-2.8-1.4-5.2-2.4-7.5-3.4-4.8-2-8.9-3.7-13.4-7.6l-.1-.1h-.2c-.1,0-13.1-3.8-22.4-14-5.8-6.4-9.2-7.7-14.4-9.6a89.38,89.38,0,0,1-14.9-6.9c-14.7-8.3-25.5-19.9-34.1-29.2l-3.7-4c-1.8-1.9-3.7-3.6-5.8-5.5-8.9-8.1-18.9-17.3-14.6-34.8,2.3-9.3,4.7-13,7.4-17.2,3.2-4.9,6.8-10.5,11-26.5a44.14,44.14,0,0,1,5.5,1.5c4.7,33.9,34,54.7,34.3,54.9a.75.75,0,0,0,.5.1.91.91,0,0,0,.7-.3.71.71,0,0,0-.2-1.1c-.3-.2-28.5-20.2-33.5-52.9.7.3,1.5.7,2.3,1.1,1,.5,1.9,1,2.8,1.5,3.9,2.1,6.9,3.8,12.1,4.5,1.4,1.2,9.7,7.8,29.7,7.8a124.63,124.63,0,0,0,27.6-3.4.76.76,0,1,0-.3-1.5c-32.3,7.2-48.2.8-53.7-2.5.7,0,1.3.1,2.1.1h0a.8.8,0,0,0,0-1.6c-8.3-.2-11.8-2.1-16.7-4.8-.9-.5-1.8-1-2.8-1.5a30,30,0,0,0-3.8-1.7h0a35.73,35.73,0,0,0-6.8-1.9h0c-.8-.2-1.6-.3-2.6-.5-2.1-.4-4.5-.9-7.6-1.5a38.39,38.39,0,0,1-17.3-8.8l-.3-.2h-.4c-.3,0-26.2,2.2-39.2-5.4a61.21,61.21,0,0,0-5.7-2.8c-11.7-5.4-31.3-14.5-25.3-34.2,3.4-11.3,16-16.2,39.6-15.5.1,0,7.2.6,16.1,2a77.4,77.4,0,0,0,10.6.5c4.5,0,8.7,0,9.7,1.5l.4.5.6-.3s2.3-.9,6.6,0c2,.4,3.9.7,5.8.9h0a41.49,41.49,0,0,0,7.9-.1c2.9-.4,8.2.5,14.2,1.5q3.6.6,7.5,1.2c9.2,1.3,21,2.7,30.1,1.3,1.3-.2,2.5-.4,3.7-.6,6.9-1,11.4-1.7,18.1-1.3a.75.75,0,0,0,.1-1.5c-6.9-.5-11.5.2-18.4,1.3a36.89,36.89,0,0,1-3.7.5c-8.9,1.3-20.5,0-29.6-1.3h-.2a29.8,29.8,0,0,1,2.2-3.7c1.4-2.1,2.4-3.6,4.1-11.4,2.5-11.5,10.5-20.9,10.6-21a.79.79,0,0,0-.1-1.1.71.71,0,0,0-1.1.1c-.3.4-8.4,9.8-11,21.7-1.6,7.6-2.5,8.9-3.9,10.9a25,25,0,0,0-2.5,4.4c-1.9-.3-3.8-.6-5.6-.9-6.2-1-11.5-1.9-14.7-1.5a32.57,32.57,0,0,1-7,.1V254c3.7-9,9.2-11.9,9.3-11.9a.83.83,0,1,0-.7-1.5c-.2.1-4.8,2.4-8.5,9.6V231.4a23.36,23.36,0,0,0,8.7,5h.2a.84.84,0,0,0,.8-.6.83.83,0,0,0-.5-1,21.6,21.6,0,0,1-9.1-5.7V189.6c2.9-8,10.3-12.6,10.4-12.7a.81.81,0,1,0-.8-1.4,30.34,30.34,0,0,0-9.5,10.2V160.9c2.1,1.3,6.5,3.9,10.5,6.1.7.4,1.3.7,1.9,1,4.6,2.5,8.2,4.4,13.2,9.7,1.7,1.8,3.2,3.4,4.7,4.8a123.38,123.38,0,0,1,10.4,11.7c2.5,3.3,4.4,5.5,6.2,7.6,2.5,2.9,5,6,9.3,11.8,3,4.1,5.1,7.4,7,10.3,2.7,4.2,4.8,7.5,8.2,11a32.57,32.57,0,0,1,4.8,5.9,30.18,30.18,0,0,0,6.3,7c6.2,5.3,9.6,8.9,16.1,16.5s11.1,12.5,18.5,20.5c6.3,6.8,10.4,12,15.5,18.5l2.3,2.9c3.6,4.6,6.6,10.3,9.4,15.8a136.41,136.41,0,0,0,7,12.4c.7,1.1,1.5,2.2,2.3,3.5,6,9.2,15.1,23,22.8,38.4,2.5,5,4.2,8.1,5.5,10.6,3.4,6.3,4.4,8.1,10,24.4,4.7,13.8,12.5,22.1,24.3,34.6,5.2,5.6,11.2,11.9,18,19.9a.86.86,0,0,0,.6.3.76.76,0,0,0,.5-.2A.55.55,0,0,0,522.3,465ZM134.3,85.4h-2.1V73.9h2.1Zm0,23.6h-2.1v-6h2.1Zm0,26.1h-2.1v-6h2.1ZM118.1,236.3c-6.7-4.1-9.6-9.7-8.5-16.5.8-5.1,4.7-16.7,24.7-15.4V244A114.58,114.58,0,0,1,118.1,236.3Zm-9.4,74.2c-9.8-4.3-19.8-10.3-19.1-21.5a15.15,15.15,0,0,1,5.3-10.6c4.2-3.7,9.7-5.2,13.2-4.9a150.24,150.24,0,0,0,16.5,0h.3a49.55,49.55,0,0,1,5.7.1,24.1,24.1,0,0,0,3.8,0v40.8C131.1,314.5,118.2,314.6,108.7,310.5ZM266.6,364a40.27,40.27,0,0,0,17.8,8.9c3.1.7,5.5,1.1,7.6,1.5.6.1,1.2.2,1.7.3-4.1,15.7-7.6,21.1-10.7,25.9-2.7,4.1-5.3,8.1-7.6,17.7a33.21,33.21,0,0,0-.8,12.7c-2.8-2.7-5.6-5.2-8.2-7.7-12.6-11.6-20.9-19.3-20.7-30.3a194.55,194.55,0,0,0-1.7-29.6A114.38,114.38,0,0,0,266.6,364Zm-39.7-5.7c4.3,2.5,9.9,4,15.5,4.9a183.23,183.23,0,0,1,1.8,29.8,22.47,22.47,0,0,0,.7,5.8c-15,1.1-32.2-9.3-32.4-9.4a13.82,13.82,0,0,0-8.6-2.7c-7.2.1-17.9-1.4-23.9-3.4-6.5-2.2-10-1.3-10.1-1.3-7.6,1.1-17.6.2-23.7-1l-.3-.1c-6.8-1.4-21-4.4-24.3-16.5-3.5-12.5,3.4-17.4,6.5-19,2-1,5-.7,8.7-.4a67.38,67.38,0,0,0,6.8.4h.4c6.6,0,12.6.3,20.8.6l1.7.1a38.64,38.64,0,0,1,20.2,6.9.78.78,0,0,0,1-1.2,24.79,24.79,0,0,0-3.6-2.3h25.6a115.91,115.91,0,0,0,11.6,5.9C223.5,356.6,225.5,357.5,226.9,358.3ZM273.5,307c-1.8-1.8-5.7-1.8-10.6-1.8a74.56,74.56,0,0,1-10.4-.5c-8.9-1.3-16.1-2-16.2-2-16-.5-27.2,1.6-34,6.6-.1,0-.2-.1-.3-.1H143.7V71.1H277.4V306.7A16.66,16.66,0,0,0,273.5,307Zm7,.2c-.5-.1-1.1-.2-1.5-.3V69.6H142.1V310.9h58.3a18.69,18.69,0,0,0-5.3,8.6c-4.2,13.8,3.2,22.6,12.1,28.6H180.9a40.58,40.58,0,0,0-14.3-3.4l-1.7-.1c-8.3-.4-14.3-.6-20.9-.6h-.2c-5.2-3.8-7.9-10-7.9-18.6V52.9c0-.4-.2-9.8,5.9-16.1,3.7-3.8,9.1-5.8,16.1-5.8H263.7a25.34,25.34,0,0,1,12.1,3.1c6.1,3.6,9.2,9.9,9.2,18.7V308C283.7,307.8,282.1,307.5,280.5,307.2Z"/><path class="cls-7" d="M439.4,451.3a.78.78,0,1,0-1.1-1.1c-18.4,19-38.2,27.5-57.3,24.7a49.37,49.37,0,0,1-23.6-10.1L353,461l3.2,4.9c.2.3,4.1,6.2,13.1,12,7.7,4.9,20.6,10.5,39.3,10.5,1.5,0,3,0,4.5-.1a.8.8,0,1,0,0-1.6c-28.2,1.3-44.3-10.1-51.3-16.9a53.18,53.18,0,0,0,18.9,6.7C405.4,480.2,426.3,464.9,439.4,451.3Z"/><path class="cls-7" d="M416.5,528.3h.2a.87.87,0,0,0,.8-.6c0-.2,3.7-17.5,26.5-35a.78.78,0,1,0-1-1.2c-23.3,17.9-27,35.2-27.1,35.9A.78.78,0,0,0,416.5,528.3Z"/><path class="cls-7" d="M210.6,48.4a4.3,4.3,0,1,0-4.3-4.3A4.33,4.33,0,0,0,210.6,48.4Zm0-7.1a2.7,2.7,0,1,1-2.7,2.7A2.63,2.63,0,0,1,210.6,41.3Z"/><path class="cls-7" d="M224.8,52.6H196.3a3.7,3.7,0,0,0,0,7.4h28.5a3.7,3.7,0,0,0,0-7.4Zm0,5.8H196.3a2.1,2.1,0,0,1,0-4.2h28.5a2.1,2.1,0,0,1,0,4.2Z"/><g class="cls-8"><path class="cls-1" d="M131,77.9H284V307.5H131Zm92.3,193.9c.6-.7,1.1-1.3,1.7-1.9s1.3-1.4,1.9-2.1c.8-.9,1.6-1.8,2.5-2.7l.2-.2c.4-.5.9-1,1.3-1.5s1-1.1,1.5-1.6c.3-.4.7-.7,1-1.1.5-.5.9-1.1,1.4-1.6a10.7,10.7,0,0,0,1.4-1.6,10,10,0,0,1,1-1.1c.5-.5.9-1.1,1.4-1.6s.9-1,1.4-1.5c.3-.4.7-.8,1-1.2.5-.6,1-1.1,1.5-1.7s.9-1,1.3-1.5c.8-.9,1.5-1.8,2.3-2.6.5-.6,1-1.1,1.5-1.6l.2-.2c.5-.5.9-1,1.4-1.6a10.7,10.7,0,0,0,1.4-1.6c.3-.4.7-.7,1-1.1s.9-1,1.3-1.5,1-1.1,1.5-1.6c.3-.4.7-.7,1-1.1.5-.6,1.1-1.2,1.6-1.8s.9-1,1.3-1.5a1,1,0,0,1,.5-.4c.2-.1.3-.2.5-.3.3-.3.5-.6.8-.9.5-.5.9-1,1.4-1.5a1.49,1.49,0,0,0,.4-.9c.1-.7.2-1.4.3-2a2.72,2.72,0,0,0,0-.9v-.4c0-.3.1-.6.1-1,.2-1.1.3-2.2.5-3.3.1-.9.3-1.8.4-2.7s.3-1.8.4-2.7.3-1.8.4-2.7.3-1.8.4-2.7c.2-1.2.3-2.3.5-3.5s.4-2.5.6-3.7c.1-.7.2-1.4.3-2a8.75,8.75,0,0,0,.2-1.6c.1-.9.3-1.9.4-2.8l.3-1.8.3-2.1.3-1.8c.1-.9.3-1.9.4-2.8l.3-1.8c.1-.9.3-1.9.4-2.8.1-.6.2-1.3.3-1.9s.2-1.3.3-2l.3-1.8c.1-.9.3-1.9.4-2.8l.3-1.8c.1-1,.3-1.9.4-2.9a9.85,9.85,0,0,0,.2-1.7,3.89,3.89,0,0,0-1.3-2.8,3.61,3.61,0,0,0-1.5-.8c-4.3-1.4-8.6-2.9-13-4.3-7-2.3-13.9-4.6-20.9-6.9-4-1.3-7.9-2.6-11.9-3.9-2.9-1-5.9-1.9-8.8-2.9-1-.3-2-.7-2.9-1a5.11,5.11,0,0,0-2.1-.3,5.66,5.66,0,0,0-1.8.3l-1.2.3c-.2-.1-.2-.3-.3-.4a9.29,9.29,0,0,0-.4-1.3c-.3-1.1-.7-2.2-1-3.4-.4-1.4-.8-2.7-1.2-4.1s-.8-2.6-1.1-3.9a4.59,4.59,0,0,0-.7-1.6,2.76,2.76,0,0,0-3.2-1.3c-.9.2-1.8.5-2.7.7-1.2.3-2.5.6-3.7,1-2.4.7-4.7,1.3-7.1,2.1-2,.6-3.9,1.2-5.8,1.9-2.7.9-5.4,1.8-8,2.9l-6.3,2.4c-1.2.5-2.3,1-3.4,1.4s-2,.8-3,1.3-2,.9-3,1.4c-.7.3-1.5.7-2.2,1s-1.3.6-2,.9a3,3,0,0,0-1.5,1.8,3.94,3.94,0,0,0-.1,2.4c.1.4.3.9.4,1.3.3.9.7,1.7,1,2.6.8,2.2,1.7,4.3,2.5,6.5.8,2,1.6,4.1,2.4,6.1a.9.9,0,0,1,.1.5,1.38,1.38,0,0,0-.4.3c-.6.4-1.2.7-1.7,1.1a1.75,1.75,0,0,0-.4,2.7,3.11,3.11,0,0,0,.9.7c1,.5,2,1.1,3,1.6.4.2.8.5,1.3.7.3.1.4.3.5.6s.1.4.2.6c.5,1.4,1.1,2.8,1.6,4.2.7,1.7,1.4,3.4,2,5.1.5,1.4,1,2.7,1.4,4.1.2.9.5,1.8.7,2.7.1.6.2,1.1.3,1.7a13.55,13.55,0,0,1,.2,2c0,.3.1.6.1.9v.6l-.3.3a4.62,4.62,0,0,0-.7.7,1.6,1.6,0,0,0,.5,2.4.76.76,0,0,0,.4.2V207a6.6,6.6,0,0,0-.1,1.4v5.4a13.4,13.4,0,0,0-.1,2v4.9c0,.4-.1.8-.1,1.1v5.6c0,.3-.1.6-.1.9v3.3a1.27,1.27,0,0,1-.1.6,1.49,1.49,0,0,0-.2.9v1.8a1.11,1.11,0,0,0,1.7.9c.1,0,.1-.1.2-.1,1.2-.9,2.4-1.8,3.7-2.7.1-.1.3-.2.3-.4a.78.78,0,0,1,.4-.4c1.4-1,2.8-2,4.2-3.1s3.1-2.2,4.6-3.3c1.8-1.3,3.5-2.6,5.3-3.9l6.3-4.5c1.2-.9,2.5-1.8,3.7-2.7l.9-.6c.2.1.4.1.6.2,1.3.5,2.6,1.1,3.9,1.6,2,.8,4,1.7,6,2.5,1.7.7,3.4,1.4,5,2.1,1.9.8,3.9,1.6,5.8,2.4.1.1.3.1.4.2v.4c0,1.3,0,2.6.1,3.8.1,2,0,3.9.1,5.9s0,4,.1,6,0,3.9.1,5.9,0,4,.1,6,0,4,.1,6.1,0,4.1.1,6.1,0,3.9.1,5.9a14.72,14.72,0,0,1,0,2.1,1.27,1.27,0,0,1-.1.6,2,2,0,0,0-.2,1.1c0,.3.1.5.1.8v1.7a1.27,1.27,0,0,0,1.7,1.1c.1-.1.3-.2.4-.3.4-.4.7-.8,1-1.1.8-.9,1.6-1.8,2.5-2.7C223.1,272.5,223.3,272.2,223.3,271.8Z"/><path class="cls-9" d="M223.3,271.8a1.39,1.39,0,0,1-.5,1c-.8.9-1.6,1.8-2.5,2.7a11,11,0,0,1-1,1.1c-.1.1-.3.2-.4.3a1.27,1.27,0,0,1-1.7-1.1v-1.7a2.2,2.2,0,0,0-.1-.8,1.47,1.47,0,0,1,.2-1.1,1.27,1.27,0,0,0,.1-.6v-2.1c-.2-2,0-3.9-.1-5.9s0-4.1-.1-6.1,0-4.1-.1-6.1,0-4-.1-6,0-3.9-.1-5.9,0-4-.1-6,0-3.9-.1-5.9c-.1-1.3-.1-2.6-.1-3.8v-.4c-.1-.1-.3-.1-.4-.2-1.9-.8-3.9-1.6-5.8-2.4-1.7-.7-3.4-1.4-5-2.1-2-.8-4-1.7-6-2.5-1.3-.5-2.6-1.1-3.9-1.6-.2-.1-.4-.1-.6-.2l-.9.6c-1.2.9-2.5,1.8-3.7,2.7l-6.3,4.5c-1.8,1.3-3.5,2.6-5.3,3.9-1.5,1.1-3.1,2.2-4.6,3.3s-2.8,2-4.2,3.1a.78.78,0,0,0-.4.4c0,.2-.2.3-.3.4-1.2.9-2.4,1.8-3.7,2.7-.1,0-.1.1-.2.1a1.1,1.1,0,0,1-1.7-.9v-1.8a1.34,1.34,0,0,1,.2-.9,1.27,1.27,0,0,0,.1-.6v-3.3a2.77,2.77,0,0,1,.1-.9v-5.6c0-.4.1-.8.1-1.1v-4.9a13.4,13.4,0,0,1,.1-2v-5.4a6.6,6.6,0,0,1,.1-1.4v-5.2a.76.76,0,0,0-.4-.2,1.6,1.6,0,0,1-.5-2.4,2.34,2.34,0,0,1,.7-.7l.3-.3v-.6c0-.3-.1-.6-.1-.9-.1-.7-.1-1.3-.2-2s-.2-1.1-.3-1.7c-.2-.9-.5-1.8-.7-2.7a28.28,28.28,0,0,0-1.4-4.1c-.7-1.7-1.3-3.4-2-5.1-.5-1.4-1.1-2.8-1.6-4.2-.1-.2-.1-.4-.2-.6a1,1,0,0,0-.5-.6c-.4-.2-.8-.5-1.3-.7-1-.5-2-1.1-3-1.6a3.11,3.11,0,0,1-.9-.7,1.75,1.75,0,0,1,.4-2.7c.6-.4,1.2-.7,1.7-1.1.1-.1.3-.2.4-.3a1.09,1.09,0,0,1-.1-.5c-.8-2-1.6-4.1-2.4-6.1-.8-2.2-1.7-4.3-2.5-6.5-.3-.9-.7-1.7-1-2.6a6.47,6.47,0,0,1-.4-1.3,3.94,3.94,0,0,1,.1-2.4,3.35,3.35,0,0,1,1.5-1.8c.6-.3,1.3-.6,2-.9s1.5-.7,2.2-1c1-.5,2-.9,3-1.4s2-.9,3-1.3,2.3-1,3.4-1.4l6.3-2.4c2.7-1,5.4-1.9,8-2.9,1.9-.7,3.9-1.3,5.8-1.9l7.1-2.1c1.2-.4,2.5-.7,3.7-1,.9-.2,1.8-.5,2.7-.7a2.65,2.65,0,0,1,3.2,1.3,7.74,7.74,0,0,1,.7,1.6c.4,1.3.8,2.6,1.1,3.9s.8,2.7,1.2,4.1c.3,1.1.7,2.2,1,3.4a9.29,9.29,0,0,0,.4,1.3.54.54,0,0,0,.3.4l1.2-.3a5.66,5.66,0,0,1,1.8-.3,7.61,7.61,0,0,1,2.1.3c1,.3,2,.7,2.9,1,2.9,1,5.9,1.9,8.8,2.9,4,1.3,7.9,2.6,11.9,3.9,7,2.3,13.9,4.6,20.9,6.9,4.3,1.4,8.6,2.9,13,4.3a3.61,3.61,0,0,1,1.5.8,3.57,3.57,0,0,1,1.3,2.8,9.85,9.85,0,0,1-.2,1.7c-.1,1-.3,1.9-.4,2.9l-.3,1.8c-.1.9-.3,1.9-.4,2.8l-.3,1.8c-.1.7-.2,1.3-.3,2s-.2,1.3-.3,1.9c-.1.9-.3,1.9-.4,2.8l-.3,1.8c-.1.9-.3,1.9-.4,2.8l-.3,1.8-.3,2.1-.3,1.8c-.1.9-.3,1.9-.4,2.8a8.75,8.75,0,0,0-.2,1.6c-.1.7-.2,1.4-.3,2-.2,1.2-.4,2.5-.6,3.7s-.3,2.3-.5,3.5c-.1.9-.3,1.8-.4,2.7s-.3,1.8-.4,2.7-.3,1.8-.4,2.7-.3,1.8-.4,2.7c-.2,1.1-.3,2.2-.5,3.3,0,.3-.1.6-.1,1v.4a1.39,1.39,0,0,1,0,.9c-.1.7-.2,1.4-.3,2a1.49,1.49,0,0,1-.4.9c-.5.5-.9,1-1.4,1.5-.3.3-.5.6-.8.9a.85.85,0,0,1-.5.3,1.76,1.76,0,0,0-.5.4c-.4.5-.9,1-1.3,1.5s-1.1,1.2-1.6,1.8c-.3.4-.7.7-1,1.1-.5.5-1,1.1-1.5,1.6s-.9,1-1.3,1.5-.7.7-1,1.1a10.7,10.7,0,0,0-1.4,1.6c-.5.5-.9,1-1.4,1.6l-.2.2c-.5.5-1,1.1-1.5,1.6-.8.9-1.5,1.8-2.3,2.6-.4.5-.9,1-1.3,1.5s-1,1.1-1.5,1.7c-.3.4-.7.8-1,1.2-.5.5-.9,1-1.4,1.5s-.9,1.1-1.4,1.6a10,10,0,0,1-1,1.1,10.7,10.7,0,0,0-1.4,1.6c-.5.5-.9,1.1-1.4,1.6-.3.4-.7.7-1,1.1-.5.5-1,1.1-1.5,1.6s-.9,1-1.3,1.5l-.2.2c-.8.9-1.6,1.8-2.5,2.7-.6.7-1.3,1.4-1.9,2.1A12.31,12.31,0,0,0,223.3,271.8Zm36.4-41,.1-.1.1-.1a1.39,1.39,0,0,0,.7-.8l.1-.1a1.15,1.15,0,0,0,.6-1.1v-.2c.1-.1.1-.2,0-.4v.5c-.2.4-.4.8-.6,1.3l-.1.1a1.39,1.39,0,0,0-.7.8l-.1.1s0-.1-.1,0l-.1.1a.46.46,0,0,0-.3.5h0a.46.46,0,0,0,.3-.5A.1.1,0,0,1,259.7,230.8Zm-2-.3.1-.1c.4-.3.4-.3.5-.6a2.65,2.65,0,0,0-.5.6l-.1.1Zm-90.9,2a1.56,1.56,0,0,0,.8-.6h0a1.56,1.56,0,0,0-.8.6ZM209,179.2c.2-.1.3-.2.5-.3,1.3-.9,2.6-1.7,3.8-2.6.8-.6,1.7-1.1,2.5-1.7a1.38,1.38,0,0,1,.4-.3c-.2-.1-.3-.1-.5-.2l-3.1-.6a4.53,4.53,0,0,0-2.3.2.67.67,0,0,0-.5.7c-.2,1-.4,2-.5,3-.1.6-.2,1.3-.3,1.8Zm-4.7-31.3H204c-.5.2-1,.3-1.5.5-3.2,1.1-6.4,2.1-9.5,3.3l-3.3,1.2c-2.8,1.1-5.5,2.2-8.3,3.4-1.3.6-2.6,1.1-3.8,1.7-1,.5-2.1,1-3.1,1.5-1.2.6-2.5,1.2-3.7,1.9-1,.5-2,1-2.9,1.5-.7.4-1.5.8-2.2,1.2a10.93,10.93,0,0,1-1.5.8c-.8.5-1.6,1-2.4,1.4-1.4.8-2.7,1.6-4.1,2.4a.76.76,0,0,1-.5.2.78.78,0,0,1-1.1-.5c-.2-.6-.5-1.1-.7-1.7l-1.8-4.5-1.5-3.9c-.8-2-1.5-4-2.3-5.9a5.85,5.85,0,0,1-.4-1.9,2.47,2.47,0,0,1,1.5-2.3c1-.5,1.9-.9,2.9-1.4,1.4-.7,2.8-1.3,4.3-2,.5-.2.9-.4,1.4-.6s1.2-.5,1.8-.8c.9-.4,1.8-.8,2.6-1.1s1.6-.6,2.3-.9l3.9-1.5a19.45,19.45,0,0,1,2.2-.8c.9-.3,1.8-.7,2.6-1,.5-.2,1.1-.3,1.6-.5.9-.3,1.8-.7,2.7-1a27.59,27.59,0,0,1,2.7-.8c1.3-.4,2.5-.9,3.8-1.2,1.7-.5,3.3-1,5-1.5s3.3-.9,5-1.4a12.66,12.66,0,0,1,2.8-.6,1.48,1.48,0,0,0-1.3-.2c-.2,0-.4.1-.6.1-1.3.3-2.6.7-3.9,1-1,.3-2,.5-3,.8-2.1.6-4.2,1.2-6.2,1.8s-3.9,1.2-5.9,1.9-4.1,1.4-6.1,2.1c-1,.4-1.9.7-2.9,1.1-1.3.5-2.7,1-4,1.6-1.1.4-2.1.8-3.2,1.3l-3.6,1.5c-1.3.6-2.6,1.1-3.9,1.7-.6.3-1.3.6-1.9.9-.8.4-1.7.8-2.5,1.2a3.06,3.06,0,0,0-1.7,2.9,5.37,5.37,0,0,0,.5,2.1c.7,1.7,1.3,3.4,2,5.1l2.4,6c.5,1.3,1,2.6,1.6,3.9.1.2.2.3.2.4.4.3.9.1,1.3.5-.2.2-.2.2-.2.1-.2,0-.4-.1-.6-.1a.6.6,0,0,0-.4.1c-.7.4-1.4.9-2.1,1.3-.2.1-.3.3-.5.4a1.42,1.42,0,0,0-.4,1.6c.1.1.1.3.2.4a2.76,2.76,0,0,0,.9.7c1.2.6,2.3,1.2,3.5,1.9l.6.3c.8.5,1.5.9,2.3,1.4.2.1.3.2.5.2a3,3,0,0,1,.8.4c.6.3,1.2.7,1.8,1,.9.5,1.7.9,2.6,1.4,1.4.7,2.7,1.5,4.1,2.2,1.2.7,2.5,1.4,3.7,2,1.4.7,2.7,1.5,4.1,2.2s2.7,1.4,4,2.2,2.7,1.5,4,2.2c1,.6,2.1,1.1,3,1.7l.1.1c.9.5,1.7.9,2.6,1.4,1.3.7,2.7,1.4,4,2.2s2.5,1.4,3.8,2.1,2.8,1.5,4.2,2.3,2.5,1.4,3.8,2.1,2.7,1.5,4,2.2c1.1.6,2.2,1.2,3.2,1.7a5.24,5.24,0,0,1,2,1.9,4.87,4.87,0,0,1,.4,1.1,10.87,10.87,0,0,1,.1,1.8v5.1c0,.2.1.5.1.7v5a21.05,21.05,0,0,0,.2,2.5c0,2,0,4.1.1,6.1s0,3.9.1,5.9,0,3.8.1,5.7,0,4,.1,6,0,4,.1,6,0,4,.1,6,0,3.9.1,5.8a14.72,14.72,0,0,1,0,2.1v2.1a14.72,14.72,0,0,1,0,2.1v.3c0,.1.1.2.1.3a.89.89,0,0,0,1.1.2.63.63,0,0,0,.4-.8,4.87,4.87,0,0,1-.1-1.2c0-1-.1-1.9-.1-2.9v-7.1c0-.8-.1-1.5-.1-2.3v-6.6c0-.6-.1-1.3-.1-1.9v-7.1c0-.6-.1-1.3-.1-1.9v-7.8a10.87,10.87,0,0,1-.1-1.8v-5.9a.91.91,0,0,1,.4-.8c1-.7,1.9-1.5,2.9-2.2a18.26,18.26,0,0,0,1.6-1.3c1-.8,2-1.6,3-2.3.6-.5,1.3-1,1.9-1.5l1.5-1.2c.7-.6,1.4-1.1,2-1.7l1.7-1.4c.7-.6,1.4-1.1,2-1.7a20,20,0,0,0,1.6-1.4c.6-.5,1.2-.9,1.7-1.4.7-.6,1.3-1.2,2-1.7s1.5-1.2,2.2-1.9c.3-.3.7-.6,1-.9s.8-.7,1.2-1,.8-.7,1.2-1c.5-.5,1.1-.9,1.6-1.4s1.1-1,1.6-1.5l.1-.1c.5-.4.9-.8,1.4-1.2s1.1-1,1.7-1.6l.1-.1a17.38,17.38,0,0,0,1.5-1.3c.6-.6,1.2-1.2,1.9-1.8s1.2-1.1,1.8-1.6,1.1-1,1.7-1.6c.9-.8,1.7-1.7,2.6-2.5,1-1,2-2,3-2.9.5-.5,1-.9,1.5-1.4a4.74,4.74,0,0,0,1-1c-.1-.1-.1-.2-.2-.3a1.4,1.4,0,0,0-.9-.3c-.2.2-.5.4-.6.7s-.4.6-.7.9-.5.4-.7.6c-1,1-2,2-3.1,3-.8.7-1.5,1.4-2.2,2.1s-1.6,1.5-2.3,2.2l-.1.1c-.7.7-1.5,1.4-2.2,2s-1.1,1.1-1.7,1.6l-.1.1a17.41,17.41,0,0,0-1.4,1.2c-.5.4-.9.8-1.4,1.2-.6.6-1.3,1.1-1.9,1.7l-.2.2a20,20,0,0,1-1.6,1.4l-.2.2-2,1.7a21,21,0,0,1-1.7,1.4l-2,1.7c-.4.3-.8.7-1.2,1s-.9.8-1.4,1.2c-.7.6-1.5,1.2-2.2,1.8-.9.7-1.8,1.5-2.7,2.2s-1.8,1.5-2.7,2.3c-.7.6-1.5,1.2-2.2,1.7l-4.1,3.2c-1.1.9-2.3,1.7-3.4,2.6a1.61,1.61,0,0,1-1.6.4.1.1,0,0,0-.1.1c.1.1.2.1.2.2-.3.4-.3.4-.3.8,0,.2.1.3.1.5v.6c0,.1-.1.1-.2.2a.37.37,0,0,1-.1-.3V218a7.57,7.57,0,0,1-.1-1.5v-4.8a19.27,19.27,0,0,0-.1-2.4,6.3,6.3,0,0,0-.9-2.4,6.67,6.67,0,0,0-2.7-2.3,30.71,30.71,0,0,1-3.1-1.7l-3.3-1.8c-1-.5-1.9-1-2.9-1.5-1.4-.7-2.8-1.5-4.2-2.2-.1-.1-.2-.1-.4-.2-1.2-.7-2.5-1.4-3.7-2-.9-.5-1.7-.9-2.6-1.4-.5-.3-1.1-.6-1.6-.9-.9-.5-1.8-1-2.8-1.5-.6-.3-1.2-.6-1.7-.9-1-.6-2.1-1.1-3.1-1.7l-3.3-1.8c-1.1-.6-2.1-1.1-3.2-1.7-1.3-.7-2.7-1.4-4.1-2.1-.6-.3-1.1-.6-1.7-.9-1.3-.7-2.5-1.4-3.8-2-.8-.5-1.7-.9-2.5-1.3-.6-.3-1.2-.7-1.9-1l-3.9-2.1c-.6-.3-1.3-.7-1.9-1a.1.1,0,0,1-.1-.1,10.42,10.42,0,0,0-1.8-1c-.3-.2-.7-.3-1-.5-.7-.4-1.5-.8-2.2-1.2a.78.78,0,0,1-.4-.4.31.31,0,0,0-.1-.2c.4-.2.7-.5,1.1-.7a4.67,4.67,0,0,1,1-.5.9.9,0,0,0,.6-.6c.1-.1.1-.3.3-.3,0,.1.1.1,0,.2s-.2.3-.3.5a1.21,1.21,0,0,0-.1,1.3c.2.5.4,1,.6,1.4a1.33,1.33,0,0,0,.5.6l1.2.6c.1,0,.2.2.3.1a.37.37,0,0,0-.1-.3c-.3-.8-.6-1.5-.9-2.3s-.5-1.4-.8-2c0-.1-.1-.2,0-.4a.73.73,0,0,0,.6-.2,7.46,7.46,0,0,0,1.2-.7c1.9-1.1,3.8-2.3,5.8-3.3a10,10,0,0,0,1.4-.8,36.52,36.52,0,0,1,3.4-1.8c2.6-1.3,5.1-2.6,7.8-3.8,1.4-.6,2.7-1.3,4.1-1.9,1.6-.7,3.3-1.4,4.9-2.1s3.1-1.2,4.6-1.8c1.2-.5,2.4-.9,3.5-1.3,1.5-.5,2.9-1.1,4.4-1.6,1.2-.4,2.4-.8,3.7-1.2a8.33,8.33,0,0,1,1.5-.4c.1,0,.2-.1.3-.2.4.2.5.1.6-.1.1,0,.1.1.2.1,0,.4-.4.5-.5.9v.3c.3.9.5,1.8.8,2.6L206,156c.6,2,1.2,4,1.8,6.1a27.13,27.13,0,0,1,.9,4.1c.1.5.1.9.2,1.4a12.1,12.1,0,0,1,.1,1.9,17.7,17.7,0,0,1-.1,2.3c-.1.6-.1,1.2-.2,1.8-.2.9-.3,1.8-.5,2.6-.2,1.2-.4,2.5-.7,3.7v.3a4.35,4.35,0,0,0,.7-.4.6.6,0,0,0,.3-.6l.6-3c.1-.6.2-1.3.3-1.9a.51.51,0,0,1,.4-.5,3.71,3.71,0,0,1,1.4-.4,5.84,5.84,0,0,1,1.9.2l3,.6c.2,0,.3.1.5,0a5.5,5.5,0,0,0,.9-.7,1.27,1.27,0,0,0-.6-.1c-1.3-.3-2.7-.5-4-.8a6.46,6.46,0,0,0-2.4,0,.76.76,0,0,0-.4.2c-.1.7-.1.7-.3.9-.1-.1-.1-.2-.1-.4s.1-.5.1-.7v-2.9a1.7,1.7,0,0,0,0-1v-1.2l-.3-2.1c-.2-1.2-.5-2.4-.8-3.6s-.7-2.5-1.1-3.7c-.5-1.6-.9-3.2-1.4-4.8s-.9-3-1.3-4.6a2,2,0,0,1-.1-.8,1,1,0,0,0,.9,0,2.35,2.35,0,0,1,.8-.2,5.07,5.07,0,0,1,1.3-.2,5.66,5.66,0,0,1,1.8.3c5.1,1.7,10.3,3.4,15.4,5.2,7.1,2.4,14.2,4.8,21.4,7.2,5,1.7,10,3.3,15,5,1.6.5,3.2,1.1,4.8,1.6l1.5.6a2.17,2.17,0,0,1,1,2.2c-.1.5-.2,1.1-.3,1.6a25.35,25.35,0,0,1-.4,2.9c-.1.9-.3,1.8-.4,2.7-.2,1.3-.4,2.6-.6,4,0,.3-.1.7.2,1l.1.1c.1.3.3.4.7.5a2,2,0,0,0,.1-.7,21.66,21.66,0,0,1,.4-2.5c.1-1,.3-2,.4-2.9.1-.6.2-1.2.3-1.9l.3-1.8a27,27,0,0,1,.4-2.8,3.36,3.36,0,0,0-.4-2.2,3.92,3.92,0,0,0-.8-1,4.13,4.13,0,0,0-1.5-.7c-4.5-1.5-9.1-3-13.6-4.5-7.1-2.4-14.2-4.7-21.3-7.1-7.4-2.5-14.8-4.9-22.2-7.4a9.26,9.26,0,0,0-2.3-.4,10.71,10.71,0,0,0-2.7.6c-.2.2-.3.4-.4.5S204.4,147.8,204.3,147.9ZM266,185c-.1.1-.2.1-.2.2-.6.6-1.3,1.2-1.9,1.8-1.2,1.2-2.4,2.4-3.6,3.5a10.7,10.7,0,0,1-1.6,1.4c-.7.7-1.4,1.3-2.1,2a27.25,27.25,0,0,1-2.5,2.3c-.4.4-.8.7-1.2,1.1-.7.6-1.3,1.2-2,1.8l-.2.2a20,20,0,0,1-1.6,1.4c-.5.5-1,.9-1.5,1.4-.3.3-.7.6-1,.9-.9.8-1.8,1.5-2.7,2.2s-1.9,1.6-2.8,2.4a8.74,8.74,0,0,1-1,.8c-.4.3-.8.7-1.2,1s-.7.6-1,.9c-.9.8-1.9,1.5-2.8,2.3s-1.8,1.5-2.7,2.3-1.9,1.6-2.9,2.3-2.1,1.6-3.1,2.5l-2.7,2.1c-1.2.9-2.4,1.9-3.6,2.8a10.59,10.59,0,0,0-1.2,1c0,1.1-.1,2.2,0,3.3,0,.7.1,1.5.1,2.2v1.1c.1,2.1-.1,4.2.1,6.4.1,1.1,0,2.3,0,3.4v3.1c0,1,.1,2.1.1,3.1v6.3c0,.8.1,1.6.1,2.3v6.5c0,.7.1,1.4.1,2.1v5.9a1.27,1.27,0,0,0,.1.6c.7-.5,1.1-1.3,1.8-1.8.2.1.3.2.5.3.2-.2.3-.4.5-.6.6-.6,1.1-1.2,1.7-1.8l.2-.2c.5-.6,1-1.1,1.5-1.7s1.1-1.2,1.7-1.8l.1-.1a20,20,0,0,0,1.4-1.6c.6-.7,1.2-1.3,1.8-1.9.4-.4.7-.8,1.1-1.2.5-.6,1-1.1,1.5-1.7s1.1-1.2,1.7-1.8c.4-.4.7-.8,1.1-1.2.5-.6,1-1.2,1.6-1.8s1.1-1.2,1.7-1.9c.4-.4.7-.8,1.1-1.2s.9-1.1,1.4-1.6c.7-.8,1.4-1.5,2.1-2.3s1.5-1.7,2.3-2.5,1.4-1.6,2.1-2.3,1.5-1.6,2.2-2.5l2.1-2.4c.7-.8,1.4-1.5,2.1-2.3s1.5-1.6,2.2-2.5a1.61,1.61,0,0,0,.4-.7.91.91,0,0,1,.3-.7c.3-.3.6-.7,1-1.1a4.13,4.13,0,0,0,1.1-2.3,1.43,1.43,0,0,1,.5-1.1c.1,0,.1-.1.2-.2C262.1,212.1,264.1,198.6,266,185Zm-.3-2.2c-.3-.1-.5-.1-.6-.2-.9-.2-1.7-.3-2.6-.5l-6-1.2c-1.9-.4-3.7-.7-5.6-1.1l-6-1.2c-1.9-.4-3.7-.7-5.6-1.1l-3.1-.6-6-1.2c-1.6-.3-3.2-.6-4.8-1-1.3-.3-2.6-.5-3.9-.8-.8-.2-1.6-.3-2.4-.5a1.68,1.68,0,0,0-1.5.3c-.3.3-.7.5-1,.8a7.1,7.1,0,0,1-1.4,1l-5.7,3.9c-.1.1-.3.2-.4.3a4.05,4.05,0,0,0-.9.5,14.7,14.7,0,0,0-1.3,1c-1.5.9-2.9,1.9-4.4,2.8l-1.8,1.2c-1.6,1-3.2,1.9-4.8,2.9-1.4.8-2.7,1.7-4.1,2.5a10,10,0,0,1-1.4.8l.1.1c.7.4,1.3.7,2,1.1s1.4.7,2,1.1c1.3.7,2.5,1.4,3.8,2,.8.5,1.7.9,2.5,1.3.5.3,1.1.6,1.6.9,1.3.7,2.5,1.4,3.8,2.1.8.4,1.7.9,2.5,1.3.5.3,1.1.6,1.6.9,1.4.8,2.8,1.5,4.2,2.3a10.91,10.91,0,0,1,1.1.6,6.38,6.38,0,0,1,2.5,3,5.37,5.37,0,0,1,.5,2.1v.6c0,.3.1.6.1.9v7.9c0,.3.1.6.1.9v1a.6.6,0,0,0,.1.4,1.21,1.21,0,0,0,1.5-.2c1.1-.9,2.2-1.7,3.4-2.6.8-.6,1.6-1.2,2.4-1.9,1.2-1,2.4-1.9,3.6-2.9s2.7-2.1,4.1-3.2,2.6-2.2,3.9-3.2c.9-.8,1.8-1.5,2.7-2.3a5,5,0,0,0,.8-.7c.5-.5,1.1-.9,1.6-1.4s1.3-1,1.9-1.6c.4-.4.9-.8,1.3-1.2s.7-.6,1-.9a15,15,0,0,1,1.3-1.1c.4-.4.8-.7,1.2-1.1l2.1-1.8c.9-.8,1.8-1.6,2.6-2.4s1.7-1.5,2.5-2.3c1-.9,1.9-1.8,2.9-2.7,1.2-1.1,2.3-2.3,3.5-3.4l1.2-1.2c.3-.3.7-.6,1.1-1C265.5,183,265.6,182.9,265.7,182.8Zm-75.9,8.4c5.8-3.5,11.6-7,17.3-10.7a4.33,4.33,0,0,1,.1-.5,18.46,18.46,0,0,1,.4-2.3l.9-4.8a4.88,4.88,0,0,0,.1-1.7,20.48,20.48,0,0,0-.1-3.5,12,12,0,0,0-.3-2,11.8,11.8,0,0,0-.4-2c-.2-.9-.5-1.8-.8-2.8-.6-2-1.1-4-1.7-5.9s-1.1-3.6-1.6-5.4a6.37,6.37,0,0,1-.2-.7c-.1,0-.3.1-.4.1-1.1.4-2.2.7-3.3,1.1-1.7.6-3.3,1.1-5,1.7-1.2.4-2.4.9-3.7,1.3-1.8.7-3.6,1.4-5.3,2.1-1.1.5-2.2.9-3.3,1.4s-2.3,1-3.4,1.5-2.4,1.1-3.6,1.7c-3.5,1.7-7,3.4-10.3,5.3-1.5.9-3.1,1.7-4.5,2.6-1.1.6-2.1,1.3-3.2,1.9-.1.1-.3.2-.3.4s.1.4.2.5c.5,1.2,1,2.4,1.4,3.6a2,2,0,0,0,.8,1c.1.1.3.1.4.2.8.4,1.6.8,2.4,1.3,1.3.7,2.6,1.4,3.8,2.1.8.5,1.7.9,2.5,1.3l1.8.9c1.2.6,2.3,1.3,3.5,1.9s2.7,1.4,4,2.2c.6.3,1.2.7,1.9,1,1.3.7,2.5,1.4,3.8,2,.8.5,1.7.9,2.5,1.3.6.3,1.1.6,1.7.9S189.2,190.9,189.8,191.2Zm76.1-8.8c.2-.2.5-.3.5-.6a1.48,1.48,0,0,0,.1-.7c.1-.6.2-1.3.3-1.9.1-.9.3-1.8.4-2.8a27,27,0,0,1,.4-2.8l.6-4.2a1.92,1.92,0,0,0-1.4-2.2,8.8,8.8,0,0,0-1.5-.5c-6.7-2.2-13.4-4.5-20.1-6.7l-20.7-6.9c-3.2-1.1-6.3-2.1-9.5-3.2-1.9-.6-3.9-1.3-5.8-1.9a3.89,3.89,0,0,0-1.5-.2,7.6,7.6,0,0,0-2.6.6l-.1.1c.1.3.2.6.3,1,.3,1.1.6,2.2,1,3.3l.9,3c.3,1,.6,2.1.9,3.1s.6,2.1.9,3.2c.2.6.3,1.3.5,1.9.2.9.3,1.9.5,2.8a13.55,13.55,0,0,1,.2,2v2.5a1.27,1.27,0,0,1-.1.6v.2c.2.1.4,0,.5,0a8.1,8.1,0,0,1,2.2,0c1.2.2,2.4.5,3.6.7a13.8,13.8,0,0,0,2,.3.37.37,0,0,1,.3.1c3.2.6,6.5,1.3,9.7,1.9,2.1.4,4.2.8,6.3,1.3l6.3,1.2c2.3.5,4.6.9,7,1.4l6.3,1.2c2.2.4,4.3.9,6.5,1.3C262.7,181.8,264.3,182.1,265.9,182.4Zm-61.4-35.1c0-.1-.1-.2-.1-.3-.3-1-.6-2.1-.9-3.1-.5-1.6-.9-3.2-1.4-4.8s-1-3.3-1.4-5a7,7,0,0,0-.8-2,1.78,1.78,0,0,0-1.8-.7l-1.1.3c-1.6.4-3.2.9-4.9,1.3l-2.1.6a39.74,39.74,0,0,0-4.9,1.5c-.6.2-1.2.4-1.9.6-.9.3-1.7.6-2.6.9-.4.1-.8.3-1.3.4a24.69,24.69,0,0,0-2.9,1c-.1,0-.1.1-.2.1l-2.4.9c-.2.1-.4.1-.5.2-1.5.6-3.1,1.2-4.6,1.8s-3.3,1.3-4.9,2l-4.2,1.8c-1.2.5-2.4,1.1-3.6,1.6-1,.4-1.9.9-2.9,1.4-.1,0-.2.1-.3.1-.6.3-1.1.5-1.7.8-.1.1-.3.2-.4.3a2.31,2.31,0,0,0-.7,2.2,5.73,5.73,0,0,0,.4,1.4c.3.7.5,1.3.8,2,.8,2,1.5,3.9,2.3,5.9s1.5,3.8,2.2,5.7a18,18,0,0,1,.8,2.1c.1.3.3.6.6.6s.3-.1.5-.2c.7-.4,1.5-.9,2.2-1.3.9-.5,1.7-1.1,2.6-1.5,1.3-.7,2.5-1.4,3.8-2.1s2.5-1.4,3.8-2c2.3-1.2,4.7-2.3,7-3.4.1,0,.1-.1.2-.1a15.39,15.39,0,0,1,1.9-.8c.5-.2,1.1-.5,1.6-.7,1-.4,2-.9,3.1-1.3,1.6-.7,3.2-1.3,4.8-2s3.1-1.2,4.7-1.8c1.3-.5,2.7-1,4-1.4s2.6-.9,3.9-1.3c.9-.3,1.9-.6,2.8-.9C204.1,147.7,204.4,147.7,204.5,147.3Zm11.8,73.5v-5c0-.2-.1-.5-.1-.7v-4.4a5.85,5.85,0,0,0-.2-1.3,4.3,4.3,0,0,0-2.1-2.5c-.4-.2-.8-.5-1.3-.7-1.3-.7-2.7-1.5-4-2.2-1.1-.6-2.3-1.2-3.4-1.8-.5-.3-1-.5-1.5-.8-1.1-.6-2.1-1.2-3.2-1.8-.7-.4-1.3-.7-2-1.1l-3.9-2.1c-.5-.3-1-.5-1.5-.8-1.2-.7-2.4-1.3-3.6-2l-.6-.3a5.17,5.17,0,0,0-1.3-.6c-.1,0-.2.1-.3.1-.8.5-1.7,1-2.5,1.5-1.3.7-2.6,1.5-3.8,2.2l-3.9,2.1c-.5.3-1.1.6-1.6.9-1.3.7-2.7,1.4-4,2.2-.4.2-.8.5-1.2.7,0,.1,0,.1.1.1q22.65,9.15,45.4,18.3Zm-23.4-6.9c-.2-.1-.2-.2-.3-.2a18,18,0,0,0-2.1-.8c-1.6-.7-3.3-1.3-4.9-2-2.3-1-4.7-1.9-7-2.9s-4.7-1.9-7-2.9c-1.7-.7-3.3-1.4-5-2-.2-.1-.3-.2-.5-.1a.6.6,0,0,1-.1.4c0,1.7,0,3.4-.1,5.2s0,3.3-.1,5,0,3.4-.1,5.1,0,3.3-.1,5,0,3.3-.1,5c-.1,1.3,0,2.6,0,3.8v.4c.8-.4,1.5-1.1,2.3-1.5.1.1.3.2.4.3C176.4,225.8,184.6,219.9,192.9,213.9Zm-5.4-21.4c-1.3-.7-2.6-1.4-3.8-2.1l-3.9-2.1c-1.4-.7-2.7-1.5-4.1-2.2-1.1-.6-2.1-1.1-3.2-1.7-.5-.3-1.1-.6-1.6-.9-1-.6-2-1.1-3-1.7s-2.3-1.2-3.4-1.8c-.5-.3-1-.5-1.5-.8-.8-.4-1.6-.9-2.4-1.3-.1-.1-.2-.1-.4-.1,0,.2.1.2.1.3.3.7.5,1.3.8,2l1.8,4.8A28.27,28.27,0,0,1,164,188a42.07,42.07,0,0,1,1.6,6.1,19.67,19.67,0,0,1,.3,2.4v.3a6.6,6.6,0,0,1,.1,1.4v2.1a1.27,1.27,0,0,0,.1.6,27,27,0,0,0,3.8,1.5,4.35,4.35,0,0,1,.7-.4c1.1-.6,2.3-1.2,3.4-1.8.6-.3,1.1-.6,1.7-.9s1-.5,1.5-.8c1.1-.6,2.2-1.2,3.4-1.8.8-.4,1.6-.9,2.4-1.3,1-.6,2-1.1,3-1.7A3.49,3.49,0,0,1,187.5,192.5Zm74,33.7a1.7,1.7,0,0,1,.1-.7,11,11,0,0,0,.2-1.8l.3-2.1a8.75,8.75,0,0,0,.2-1.6c.1-.9.3-1.8.4-2.7s.3-1.8.4-2.7l.3-2.1a8.75,8.75,0,0,0,.2-1.6c.1-.7.2-1.4.3-2,.1-.9.3-1.8.4-2.7l.3-2.1c.1-.6.2-1.1.3-1.7s.2-1.3.3-2c.1-.9.3-1.8.4-2.7a25.12,25.12,0,0,1,.4-2.7c.1-.7.2-1.3.3-2s.2-1.4.3-2,.2-1.1.3-1.7.2-1.3.3-2c.2-1.1.3-2.2.5-3.3,0-.2.1-.4,0-.5-.6.3-.8,1-1.3,1.3a20.69,20.69,0,0,1-.4,2.2c-.1.7-.2,1.5-.3,2.2-.1.9-.3,1.7-.4,2.6-.1.7-.2,1.3-.3,2s-.2,1.3-.3,2-.2,1.5-.3,2.2-.2,1.2-.3,1.9-.2,1.2-.3,1.9-.2,1.3-.3,2c-.1.9-.3,1.8-.4,2.7-.1.7-.2,1.3-.3,2a27,27,0,0,1-.4,2.8c-.2,1.2-.4,2.5-.5,3.7,0,.3-.1.5-.1.8-.1.6-.2,1.3-.3,1.9l-.3,2.1c-.1.6-.2,1.3-.3,1.9l-.3,1.8a23.36,23.36,0,0,1-.4,2.6v.3c0,.4-.1.8-.1,1.2a4.71,4.71,0,0,1-.6,1.5,8.7,8.7,0,0,1-.9,1.1,8.45,8.45,0,0,0-1.5,1.8l-.1.1c-.4.4-.7.8-1.1,1.2-.7.8-1.4,1.6-2.1,2.3s-1.5,1.6-2.2,2.5-1.5,1.7-2.3,2.5-1.4,1.5-2.1,2.3-1.5,1.6-2.2,2.4-1.4,1.5-2.1,2.3-1.5,1.7-2.3,2.5l-2.1,2.4c-.7.8-1.4,1.5-2.1,2.3s-1.4,1.5-2.1,2.3c-1,1-1.9,2.1-2.9,3.1l-.2.2c-.5.6-1.1,1.2-1.6,1.8s-1.1,1.2-1.7,1.8c-.4.4-.7.8-1.1,1.2l-2.4,2.7c-.7.7-1.3,1.5-2,2.2s-1.2,1.3-1.8,1.9a3.92,3.92,0,0,0-.8,1c.1.2,0,.4.2.6a.35.35,0,0,0,.2-.1,11.37,11.37,0,0,0,1.6-1.5,1.29,1.29,0,0,1,1.3-.6l.6-.6a17.41,17.41,0,0,1,1.2-1.4l2-2.3c.8-.9,1.6-1.8,2.5-2.7.3-.4.7-.7,1-1.1.5-.5.9-1.1,1.4-1.6s.9-1,1.4-1.5c.3-.4.7-.7,1-1.1.5-.6,1-1.2,1.6-1.8s.9-1,1.4-1.5c.3-.3.6-.7.9-1a17.38,17.38,0,0,1,1.3-1.5c.5-.6,1-1.1,1.5-1.6.3-.4.7-.8,1-1.2.5-.5.9-1.1,1.4-1.6s1-1.1,1.5-1.6c.3-.4.7-.8,1-1.2.5-.6,1.1-1.2,1.6-1.8.1-.1.2-.2.2-.3a17.38,17.38,0,0,1,1.3-1.5c.5-.6,1.1-1.2,1.6-1.7l.1-.1c.5-.6,1-1.1,1.5-1.7l.3-.3c.5-.5.9-1.1,1.4-1.6s.9-1,1.4-1.5c.3-.4.7-.8,1-1.2a17.11,17.11,0,0,1,1.8-2,.76.76,0,0,0,.3-.8,1.42,1.42,0,0,1,.2-.6,6.42,6.42,0,0,0,1-1.3c0-.1.1-.1.1-.2a2.18,2.18,0,0,0,.5-.8c.1-.3.2-.7.3-1A5.22,5.22,0,0,1,261.5,226.2Zm-45.2-4.7c-.1-.1-.2-.1-.3-.2-1.7-.7-3.4-1.4-5.2-2.1s-3.8-1.5-5.6-2.3l-7.5-3-6.6-2.7c-2.5-1-5.1-2-7.6-3.1s-5.2-2.1-7.8-3.1c-1.4-.6-2.8-1.1-4.3-1.7a4.13,4.13,0,0,1-1.5-.7c-.1,0-.1-.1-.2-.1-.6-.2-1.2-.5-1.9-.7a25.5,25.5,0,0,1-2.9-1.3.35.35,0,0,1-.2-.1c-.1-.1-.1-.1-.1-.2a2.19,2.19,0,0,0,.5-.3c.2-.1.3-.3.5-.2,0,.3-.4.4-.5.7a1.69,1.69,0,0,0,.5.2l.1-.1c0-.3.1-.6.1-.8v-1.9a12.25,12.25,0,0,0-.2-1.9c0-.5-.1-1-.1-1.4a47,47,0,0,0-1.2-5.1c-.4-1.5-1.1-3-1.6-4.5-.4-1-.8-2-1.1-2.9-.5-1.4-1.1-2.7-1.6-4.1a1,1,0,0,0-.4-.5c-.4-.2-.7-.4-1.1-.6-.1-.1-.2-.1-.4-.2.1.2.1.4.2.5.5,1.2.9,2.3,1.4,3.5l1.8,4.5c.5,1.2,1,2.4,1.4,3.6a47.68,47.68,0,0,1,1.3,5.1c.2,1.3.4,2.7.5,4v.2c.2.2.4.2.5.4a4.35,4.35,0,0,0,.6.7l-.2.2c-.4-.2-.7-.3-1.1-.5a2.17,2.17,0,0,0-1.1,1,1.38,1.38,0,0,0-.1,1.1c.1.3.4.5.6.7a3.69,3.69,0,0,0,1.4.7c.5.2.9.3,1.3.5,1.4.6,2.7,1.1,4.1,1.7,1.8.7,3.6,1.5,5.5,2.2,1.4.6,2.9,1.2,4.3,1.8s2.5,1,3.8,1.5c1.9.8,3.8,1.5,5.7,2.3,1.3.5,2.6,1,3.8,1.6.1,0,.1.1.2.1.5.2,1,.4,1.6.6a2,2,0,0,1,.8.4l4.5,1.8,5.1,2.1c1.5.6,2.9,1.2,4.4,1.8,2,.8,4,1.6,5.9,2.4a.37.37,0,0,1,.3.1A10.1,10.1,0,0,0,216.3,221.5ZM165,233.3a.37.37,0,0,1,.1-.3c0-1.1,0-2.1.1-3.2.1-1.6,0-3.2.1-4.9s0-3.3.1-5,0-3.3.1-5,0-3.4.1-5.2c.1-1.6,0-3.2.1-4.8a10.82,10.82,0,0,0,0-1.8.6.6,0,0,0-.1-.4,2.46,2.46,0,0,0-1.1-.4.35.35,0,0,1-.1.2c0,.8-.1,1.6-.1,2.5-.1,2.3,0,4.5-.1,6.8s0,4.6-.1,6.9c-.1,1.9,0,3.8,0,5.7v.5a4.87,4.87,0,0,0-.1,1.2v4.7c0,.4-.1.7-.1,1.1v1c0,.1.1.2.1.4C164.4,233.4,164.7,233.5,165,233.3ZM193.3,214a8.65,8.65,0,0,0-1,.7c-.9.7-1.9,1.3-2.8,2l-3.2,2.3-3.3,2.4c-1.2.9-2.4,1.7-3.6,2.6l-3.3,2.4-3.4,2.5c-.9.7-1.9,1.3-2.8,2a17,17,0,0,0-1.4,1,20.28,20.28,0,0,0-1.8,1.3.78.78,0,0,0-.4.4.3.3,0,0,0,0,.4l.6-.3c.5-.4,1-.7,1.6-1.1a1.49,1.49,0,0,1,.7-.3c.1,0,.2.1.4.2.1-.1.3-.2.4-.3.5-.4,1-.7,1.5-1.1,1-.7,2-1.5,3-2.2s2-1.5,3.1-2.2,2.2-1.6,3.2-2.4l3.4-2.5c.8-.5,1.5-1.1,2.3-1.6,1.4-1,2.7-2,4.1-3,1.2-.9,2.4-1.7,3.6-2.6.1,0,.1-.1.2-.2A2.82,2.82,0,0,1,193.3,214ZM223,271.9l-.3.3c-.5.6-1,1.1-1.5,1.7a1.76,1.76,0,0,1-.5.4c-.4.2-.7,0-.7-.4a.9.9,0,0,0-.1-.5c-.2.1-.3.3-.5.4a1.4,1.4,0,0,1-1.4.2c-.1-.1-.3-.1-.4-.2a.35.35,0,0,1-.1.2v1.7a.6.6,0,0,0,.1.4.88.88,0,0,0,1.5.4l.3-.3a17.41,17.41,0,0,1,1.2-1.4l2.1-2.4A1.07,1.07,0,0,0,223,271.9Zm-54.1-39.1c-.2.2-.4.2-.5.3a7.55,7.55,0,0,0-1.4,1.1l-.6.3c-.4,0-.6-.2-.6-.5a.6.6,0,0,0-.1-.4.76.76,0,0,1-.4.2,1.72,1.72,0,0,1-1.2.2.37.37,0,0,1-.3-.1l-.1.1v1.8a.54.54,0,0,0,.5.5.9.9,0,0,0,.5-.1,2.19,2.19,0,0,0,.5-.3c.8-.5,1.5-1.1,2.3-1.6a5.5,5.5,0,0,0,.9-.7C168.7,233.3,168.9,233.2,168.9,232.8Zm-15.1-60.9c.9.4,1.6.9,2.5,1.3a12.25,12.25,0,0,0-.9-2.3A5.37,5.37,0,0,0,153.8,171.9ZM220.1,272a.31.31,0,0,1,.2-.1c.3-.4.7-.8,1-1.2a.31.31,0,0,0-.1-.2c-.4.4-.7.8-1.1,1.2Zm41.4-44.7Z"/><path class="cls-9" d="M266,185c-2,13.6-3.9,27-5.9,40.5l-.2.2a1.61,1.61,0,0,0-.5,1.1,3.84,3.84,0,0,1-1.1,2.3c-.3.3-.6.7-1,1.1-.2.2-.2.5-.3.7a1,1,0,0,1-.4.7,26.22,26.22,0,0,0-2.2,2.5c-.7.8-1.4,1.5-2.1,2.3l-2.1,2.4c-.7.8-1.5,1.6-2.2,2.5s-1.4,1.6-2.1,2.3-1.5,1.7-2.3,2.5-1.4,1.5-2.1,2.3c-.5.5-.9,1.1-1.4,1.6s-.7.8-1.1,1.2c-.6.6-1.1,1.2-1.7,1.9s-1,1.2-1.6,1.8c-.4.4-.7.8-1.1,1.2-.6.6-1.1,1.2-1.7,1.8s-1,1.1-1.5,1.7c-.4.4-.7.8-1.1,1.2-.6.6-1.2,1.3-1.8,1.9a20,20,0,0,0-1.4,1.6.1.1,0,0,1-.1.1c-.6.6-1.1,1.2-1.7,1.8s-1,1.1-1.5,1.7l-.2.2c-.6.6-1.1,1.2-1.7,1.8-.2.2-.3.4-.5.6-.2-.1-.3-.2-.5-.3-.7.5-1.1,1.3-1.8,1.8a1.27,1.27,0,0,1-.1-.6v-5.9c0-.7-.1-1.4-.1-2.1v-6.5c0-.8-.1-1.6-.1-2.3v-6.3c0-1-.1-2.1-.1-3.1v-3.1c0-1.1.1-2.3,0-3.4-.1-2.1,0-4.2-.1-6.4v-1.1a16.2,16.2,0,0,0-.1-2.2c-.1-1.1,0-2.2,0-3.3a10.59,10.59,0,0,0,1.2-1c1.2-.9,2.4-1.9,3.6-2.8l2.7-2.1c1-.8,2.1-1.6,3.1-2.5s1.9-1.6,2.9-2.3,1.8-1.5,2.7-2.3,1.9-1.5,2.8-2.3a9,9,0,0,0,1-.9c.4-.3.8-.7,1.2-1a8.74,8.74,0,0,1,1-.8c.9-.8,1.9-1.6,2.8-2.4s1.8-1.5,2.7-2.2c.3-.3.7-.6,1-.9.5-.5,1-.9,1.5-1.4a20,20,0,0,1,1.6-1.4l.2-.2c.7-.6,1.3-1.2,2-1.8.4-.4.8-.7,1.2-1.1.8-.8,1.6-1.5,2.5-2.3.7-.7,1.4-1.3,2.1-2a10.7,10.7,0,0,1,1.6-1.4c1.3-1.1,2.4-2.3,3.6-3.5.6-.6,1.3-1.2,1.9-1.8C265.8,185.1,265.9,185.1,266,185Z"/><path class="cls-9" d="M265.7,182.8q-.15.3-.3.3c-.3.3-.7.6-1.1,1l-1.2,1.2c-1.2,1.1-2.3,2.3-3.5,3.4-1,.9-1.9,1.8-2.9,2.7-.8.8-1.7,1.5-2.5,2.3s-1.7,1.6-2.6,2.4l-2.1,1.8a12,12,0,0,0-1.2,1.1,15,15,0,0,1-1.3,1.1c-.3.3-.7.6-1,.9s-.9.8-1.3,1.2l-1.9,1.6c-.5.5-1.1.9-1.6,1.4a5,5,0,0,0-.8.7c-.9.8-1.8,1.5-2.7,2.3-1.3,1.1-2.6,2.2-3.9,3.2s-2.7,2.1-4.1,3.2c-1.2,1-2.4,1.9-3.6,2.9-.8.6-1.6,1.2-2.4,1.9-1.1.9-2.2,1.7-3.4,2.6a1.19,1.19,0,0,1-1.5.2c0-.1-.1-.2-.1-.4v-1c0-.3-.1-.6-.1-.9V212c0-.3-.1-.6-.1-.9v-.6a3.84,3.84,0,0,0-.5-2.1,8.07,8.07,0,0,0-1.7-2.4c-.3-.2-.5-.4-.8-.6a10.91,10.91,0,0,1-1.1-.6c-1.4-.8-2.8-1.5-4.2-2.3-.5-.3-1.1-.6-1.6-.9-.8-.4-1.7-.9-2.5-1.3-1.3-.7-2.6-1.4-3.8-2.1-.5-.3-1.1-.6-1.6-.9-.8-.4-1.7-.9-2.5-1.3-1.3-.7-2.5-1.4-3.8-2-.7-.4-1.3-.7-2-1.1s-1.3-.7-2-1.1l-.1-.1c.5-.3,1-.6,1.4-.8,1.4-.8,2.7-1.7,4.1-2.5,1.6-1,3.2-1.9,4.8-2.9l1.8-1.2c1.5-.9,2.9-1.9,4.4-2.8a6.42,6.42,0,0,0,1.3-1,4.05,4.05,0,0,1,.9-.5,1.38,1.38,0,0,0,.4-.3l5.7-3.9a7.1,7.1,0,0,0,1.4-1c.3-.3.7-.5,1-.8a1.57,1.57,0,0,1,1.5-.3c.8.2,1.6.3,2.4.5,1.3.3,2.6.5,3.9.8,1.6.3,3.2.6,4.8,1l6,1.2,3.1.6c1.9.4,3.7.7,5.6,1.1l6,1.2c1.9.4,3.7.7,5.6,1.1l6,1.2c.9.2,1.7.3,2.6.5C265.2,182.6,265.4,182.7,265.7,182.8Z"/><path class="cls-9" d="M189.8,191.2c-.6-.3-1.2-.7-1.8-1s-1.1-.6-1.7-.9c-.8-.4-1.7-.9-2.5-1.3-1.3-.7-2.5-1.4-3.8-2-.6-.3-1.2-.7-1.9-1-1.3-.7-2.7-1.4-4-2.2-1.2-.6-2.3-1.3-3.5-1.9l-1.8-.9c-.8-.4-1.7-.9-2.5-1.3-1.3-.7-2.6-1.4-3.8-2.1-.8-.4-1.6-.8-2.4-1.3-.1-.1-.3-.1-.4-.2a1.37,1.37,0,0,1-.8-1c-.4-1.2-.9-2.4-1.4-3.6-.1-.2-.1-.4-.2-.5s.2-.3.3-.4c1.1-.6,2.1-1.3,3.2-1.9,1.5-.9,3-1.7,4.5-2.6,3.4-1.9,6.9-3.6,10.3-5.3,1.2-.6,2.4-1.1,3.6-1.7s2.3-1,3.4-1.5,2.2-1,3.3-1.4c1.8-.7,3.5-1.4,5.3-2.1,1.2-.5,2.4-.9,3.7-1.3,1.7-.6,3.3-1.2,5-1.7,1.1-.4,2.2-.7,3.3-1.1.1,0,.2-.1.4-.1a1.45,1.45,0,0,1,.2.7c.5,1.8,1.1,3.6,1.6,5.4.6,2,1.1,4,1.7,5.9.3.9.5,1.8.8,2.8a14.16,14.16,0,0,1,.4,2c.1.7.2,1.4.3,2a20.48,20.48,0,0,1,.1,3.5c0,.6-.1,1.1-.1,1.7l-.9,4.8a18.46,18.46,0,0,1-.4,2.3,4.33,4.33,0,0,1-.1.5C201.5,184.2,195.7,187.7,189.8,191.2Z"/><path class="cls-9" d="M265.9,182.4c-1.6-.3-3.2-.6-4.8-1-2.2-.4-4.3-.9-6.5-1.3l-6.3-1.2c-2.3-.5-4.6-.9-7-1.4l-6.3-1.2c-2.1-.4-4.2-.8-6.3-1.3-3.2-.6-6.5-1.3-9.7-1.9-.1,0-.2-.1-.3-.1a12,12,0,0,1-2-.3c-1.2-.2-2.4-.5-3.6-.7a8.09,8.09,0,0,0-2.2,0c-.2,0-.3.1-.5,0v-.2c0-.2.1-.4.1-.6v-2.5a13.55,13.55,0,0,0-.2-2c-.2-.9-.3-1.9-.5-2.8a13.32,13.32,0,0,0-.5-1.9c-.3-1.1-.6-2.1-.9-3.2s-.6-2.1-.9-3.1l-.9-3c-.3-1.1-.6-2.2-1-3.3-.1-.3-.2-.7-.3-1,0-.1,0-.1.1-.1a7.6,7.6,0,0,1,2.6-.6,7.72,7.72,0,0,1,1.5.2c1.9.7,3.9,1.3,5.8,1.9,3.2,1.1,6.3,2.1,9.5,3.2l20.7,6.9c6.7,2.2,13.4,4.5,20.1,6.7a8.8,8.8,0,0,0,1.5.5,2.09,2.09,0,0,1,1.4,2.2l-.6,4.2a27,27,0,0,1-.4,2.8c-.1.9-.3,1.8-.4,2.8-.1.6-.2,1.3-.3,1.9,0,.2-.1.5-.1.7A1.68,1.68,0,0,1,265.9,182.4Z"/><path class="cls-9" d="M204.5,147.3a1.16,1.16,0,0,1-.7.5c-.9.3-1.9.6-2.8.9-1.3.4-2.6.8-3.9,1.3s-2.7,1-4,1.4c-1.6.6-3.1,1.1-4.7,1.8s-3.2,1.3-4.8,2c-1,.4-2,.9-3.1,1.3-.5.2-1.1.5-1.6.7a15.39,15.39,0,0,1-1.9.8c-.1,0-.1.1-.2.1-2.3,1.1-4.7,2.3-7,3.4-1.3.6-2.5,1.3-3.8,2s-2.5,1.4-3.8,2.1c-.9.5-1.7,1-2.6,1.5-.7.4-1.5.9-2.2,1.3-.2.1-.3.2-.5.2a.74.74,0,0,1-.6-.6c-.3-.7-.5-1.4-.8-2.1-.7-1.9-1.5-3.8-2.2-5.7s-1.5-3.9-2.3-5.9c-.3-.7-.5-1.3-.8-2a7.37,7.37,0,0,1-.4-1.4,2.31,2.31,0,0,1,.7-2.2,1.38,1.38,0,0,1,.4-.3c.5-.3,1.1-.5,1.7-.8.1,0,.2-.1.3-.1,1-.5,1.9-.9,2.9-1.4,1.2-.5,2.4-1.1,3.6-1.6l4.2-1.8c1.6-.7,3.3-1.3,4.9-2s3.1-1.2,4.6-1.8c.2-.1.4-.1.5-.2l2.4-.9c.1,0,.1-.1.2-.1a24.69,24.69,0,0,0,2.9-1c.4-.1.8-.3,1.3-.4.9-.3,1.7-.6,2.6-.9.6-.2,1.2-.4,1.9-.6,1.6-.6,3.3-1,4.9-1.5l2.1-.6c1.6-.4,3.2-.9,4.9-1.3l1.1-.3a1.67,1.67,0,0,1,1.8.7,5,5,0,0,1,.8,2c.5,1.7,1,3.3,1.4,5s.9,3.2,1.4,4.8c.3,1,.6,2.1.9,3.1C204.5,147.1,204.5,147.2,204.5,147.3Z"/><path class="cls-9" d="M216.3,220.8a.9.9,0,0,0-.5-.1q-22.65-9.15-45.4-18.3a.1.1,0,0,0-.1-.1c.4-.2.8-.5,1.2-.7,1.3-.7,2.7-1.4,4-2.2.5-.3,1.1-.6,1.6-.9l3.9-2.1c1.3-.7,2.6-1.4,3.8-2.2.8-.5,1.7-1,2.5-1.5.1,0,.2-.1.3-.1a5.17,5.17,0,0,1,1.3.6l.6.3c1.2.7,2.4,1.3,3.6,2,.5.3,1,.5,1.5.8l3.9,2.1c.7.4,1.3.7,2,1.1,1.1.6,2.1,1.2,3.2,1.8.5.3,1,.5,1.5.8,1.1.6,2.3,1.2,3.4,1.8,1.3.7,2.7,1.5,4,2.2.4.2.8.4,1.3.7a4.7,4.7,0,0,1,2.1,2.5,5.85,5.85,0,0,1,.2,1.3V215a1.7,1.7,0,0,0,.1.7v4.7C216.4,220.6,216.3,220.7,216.3,220.8Z"/><path class="cls-9" d="M192.9,213.9c-8.3,6-16.6,11.9-24.8,17.8-.1-.1-.3-.2-.4-.3-.8.4-1.4,1.1-2.3,1.5v-.4c0-1.3-.1-2.6,0-3.8.1-1.7,0-3.3.1-5s0-3.3.1-5,0-3.4.1-5.1,0-3.3.1-5,.1-3.4.1-5.2a.6.6,0,0,1,.1-.4.44.44,0,0,1,.5.1c1.7.7,3.3,1.4,5,2,2.3,1,4.7,1.9,7,2.9s4.7,1.9,7,2.9c1.6.7,3.3,1.3,4.9,2a18,18,0,0,0,2.1.8C192.7,213.8,192.8,213.8,192.9,213.9Z"/><path class="cls-9" d="M204.3,147.9c-.1.1-.2.3-.3.4s-.2.1-.3.2a8.33,8.33,0,0,1-1.5.4c-1.2.4-2.4.8-3.7,1.2-1.5.5-2.9,1-4.4,1.6-1.2.4-2.4.9-3.5,1.3-1.6.6-3.1,1.2-4.6,1.8s-3.3,1.4-4.9,2.1c-1.4.6-2.7,1.3-4.1,1.9-2.6,1.2-5.2,2.5-7.8,3.8-1.1.6-2.2,1.2-3.4,1.8-.5.3-.9.5-1.4.8-2,1-3.9,2.2-5.8,3.3-.4.2-.8.5-1.2.7a.73.73,0,0,1-.6.2c-.1.1,0,.3,0,.4a11.92,11.92,0,0,0,.8,2c.3.8.6,1.5.9,2.3a.37.37,0,0,0,.1.3c-.1.1-.2,0-.3-.1l-1.2-.6a1,1,0,0,1-.5-.6,5.91,5.91,0,0,0-.6-1.4,1.47,1.47,0,0,1,.1-1.3c.1-.2.2-.3.3-.5v-.2a.27.27,0,0,0-.3.3c-.1.3-.4.4-.6.6s-.7.3-1,.5a6.73,6.73,0,0,0-1.1.7c0,.1,0,.2.1.2l.4.4c.7.4,1.5.8,2.2,1.2.3.2.7.3,1,.5a16.18,16.18,0,0,1,1.8,1l.1.1c.6.3,1.3.7,1.9,1l3.9,2.1c.6.3,1.2.7,1.9,1s1.7.9,2.5,1.3c1.3.7,2.5,1.4,3.8,2,.6.3,1.1.6,1.7.9,1.4.7,2.7,1.4,4.1,2.1,1.1.6,2.1,1.1,3.2,1.7l3.3,1.8c1,.6,2.1,1.1,3.1,1.7.6.3,1.2.6,1.7.9.9.5,1.9,1,2.8,1.5.5.3,1.1.6,1.6.9.9.5,1.7.9,2.6,1.4,1.2.7,2.5,1.3,3.7,2,.1.1.2.1.4.2,1.4.7,2.8,1.5,4.2,2.2,1,.5,1.9,1,2.9,1.5l3.3,1.8c1,.6,2.1,1.1,3.1,1.7a7.54,7.54,0,0,1,2.7,2.3,5,5,0,0,1,.9,2.4,19.27,19.27,0,0,1,.1,2.4v4.8a7.57,7.57,0,0,0,.1,1.5v6.4c0,.1.1.2.1.3.1-.1.2-.1.2-.2v-.6c0-.2-.1-.3-.1-.5,0-.5,0-.5.3-.8l-.2-.2.1-.1a1.61,1.61,0,0,0,1.6-.4c1.1-.9,2.3-1.7,3.4-2.6l4.1-3.2c.7-.6,1.5-1.2,2.2-1.7.9-.7,1.8-1.5,2.7-2.3s1.8-1.5,2.7-2.2c.7-.6,1.5-1.2,2.2-1.8.5-.4.9-.8,1.4-1.2s.8-.7,1.2-1l2-1.7a21,21,0,0,1,1.7-1.4l2-1.7.2-.2a20,20,0,0,1,1.6-1.4l.2-.2c.6-.6,1.3-1.1,1.9-1.7.5-.4.9-.8,1.4-1.2a17.41,17.41,0,0,0,1.4-1.2l.1-.1c.6-.5,1.1-1.1,1.7-1.6.7-.7,1.5-1.4,2.2-2l.1-.1c.8-.7,1.5-1.5,2.3-2.2s1.4-1.4,2.2-2.1c1.1-.9,2-2,3.1-3,.2-.2.5-.4.7-.6s.6-.5.7-.9.4-.5.6-.7a1.61,1.61,0,0,1,.9.3c.1.1.2.2.2.3a9.43,9.43,0,0,1-1,1c-.5.5-1,.9-1.5,1.4-1,1-2,2-3,2.9s-1.7,1.7-2.6,2.5c-.6.5-1.1,1-1.7,1.6s-1.1,1.1-1.8,1.6-1.2,1.2-1.9,1.8c-.5.4-1,.9-1.5,1.3l-.1.1c-.6.5-1.1,1-1.7,1.6-.5.4-.9.8-1.4,1.2l-.1.1c-.5.5-1.1,1-1.6,1.5a20,20,0,0,1-1.6,1.4c-.4.3-.8.7-1.2,1s-.8.7-1.2,1-.7.6-1,.9c-.7.6-1.5,1.2-2.2,1.9s-1.3,1.2-2,1.7l-1.7,1.4c-.5.5-1.1.9-1.6,1.4-.7.6-1.4,1.1-2,1.7l-1.7,1.4c-.7.6-1.4,1.1-2,1.7l-1.5,1.2c-.6.5-1.3,1-1.9,1.5-1,.8-2,1.6-3,2.3a18.26,18.26,0,0,0-1.6,1.3c-1,.7-1.9,1.5-2.9,2.2a.91.91,0,0,0-.4.8v5.9a10.87,10.87,0,0,0,.1,1.8v7.8c0,.6.1,1.3.1,1.9v7.1c0,.6.1,1.3.1,1.9v6.6c0,.8.1,1.5.1,2.3v7.1c0,1,.1,1.9.1,2.9a4.87,4.87,0,0,0,.1,1.2.63.63,0,0,1-.4.8.91.91,0,0,1-1.1-.2.37.37,0,0,1-.1-.3v-.3a14.72,14.72,0,0,0,0-2.1v-4.2c-.2-1.9,0-3.9-.1-5.8s0-4-.1-6,0-4-.1-6,0-4-.1-6,0-3.8-.1-5.7,0-3.9-.1-5.9-.1-4.1-.1-6.1a21.05,21.05,0,0,0-.2-2.5v-5a1.7,1.7,0,0,0-.1-.7v-5.1a10.87,10.87,0,0,0-.1-1.8,3.58,3.58,0,0,0-.4-1.1,3.72,3.72,0,0,0-2-1.9c-1.1-.6-2.2-1.2-3.2-1.7-1.3-.7-2.7-1.5-4-2.2s-2.5-1.4-3.8-2.1-2.8-1.5-4.2-2.3-2.5-1.4-3.8-2.1-2.7-1.4-4-2.2c-.9-.5-1.7-.9-2.6-1.4a.1.1,0,0,1-.1-.1,22.8,22.8,0,0,0-3-1.7c-1.3-.7-2.7-1.5-4-2.2s-2.7-1.4-4-2.2-2.7-1.5-4.1-2.2c-1.2-.7-2.5-1.4-3.7-2-1.4-.7-2.7-1.5-4.1-2.2-.9-.5-1.7-.9-2.6-1.4-.6-.3-1.2-.7-1.8-1-.3-.1-.5-.3-.8-.4s-.4-.1-.5-.2a17.61,17.61,0,0,1-2.3-1.4l-.6-.3c-1.2-.6-2.3-1.2-3.5-1.9a2.18,2.18,0,0,1-.9-.7.52.52,0,0,1-.2-.4,1.38,1.38,0,0,1,.4-1.6c.2-.1.3-.3.5-.4a23.92,23.92,0,0,1,2.1-1.3.6.6,0,0,1,.4-.1c.2,0,.4.1.6.1s.1,0,.2-.1c-.3-.4-.8-.2-1.3-.5a.76.76,0,0,1-.2-.4c-.5-1.3-1.1-2.6-1.6-3.9l-2.4-6c-.7-1.7-1.3-3.4-2-5.1a5,5,0,0,1-.5-2.1,2.83,2.83,0,0,1,1.7-2.9c.8-.4,1.7-.8,2.5-1.2.6-.3,1.3-.6,1.9-.9,1.3-.6,2.6-1.2,3.9-1.7l3.6-1.5c1.1-.4,2.1-.9,3.2-1.3,1.3-.5,2.7-1.1,4-1.6,1-.4,1.9-.7,2.9-1.1,2-.8,4-1.4,6.1-2.1,1.9-.7,3.9-1.3,5.9-1.9s4.1-1.2,6.2-1.8c1-.3,2-.5,3-.8,1.3-.3,2.6-.7,3.9-1,.2,0,.4-.1.6-.1a1.91,1.91,0,0,1,1.3.2,12.66,12.66,0,0,0-2.8.6c-1.7.4-3.4.9-5,1.4l-5,1.5c-1.3.4-2.5.8-3.8,1.2-.9.3-1.8.5-2.7.8s-1.8.7-2.7,1c-.5.2-1.1.3-1.6.5a20,20,0,0,0-2.6,1,19.45,19.45,0,0,1-2.2.8l-3.9,1.5c-.8.3-1.6.6-2.3.9-.9.4-1.8.7-2.6,1.1-.6.3-1.2.5-1.8.8s-1,.4-1.4.6c-1.4.6-2.8,1.3-4.3,2-1,.4-1.9.9-2.9,1.4a2.53,2.53,0,0,0-1.5,2.3,4.06,4.06,0,0,0,.4,1.9c.8,2,1.5,4,2.3,5.9l1.5,3.9,1.8,4.5c.2.6.5,1.1.7,1.7a.78.78,0,0,0,1.1.5c.2-.1.3-.1.5-.2,1.4-.8,2.7-1.7,4.1-2.4.8-.4,1.6-.9,2.4-1.4a10.93,10.93,0,0,1,1.5-.8c.7-.4,1.5-.8,2.2-1.2,1-.5,2-1,2.9-1.5,1.2-.7,2.5-1.2,3.7-1.9,1-.5,2.1-1,3.1-1.5,1.3-.6,2.6-1.1,3.8-1.7,2.7-1.2,5.5-2.3,8.3-3.4l3.3-1.2c3.1-1.2,6.3-2.2,9.5-3.3.5-.2,1-.3,1.5-.5-.2-.3-.1-.3,0-.3Z"/><path class="cls-9" d="M187.5,192.5c-.6.3-1.1.6-1.6.9-1,.6-2,1.1-3,1.7-.8.4-1.6.9-2.4,1.3-1.1.6-2.2,1.2-3.4,1.8-.5.3-1,.5-1.5.8s-1.1.6-1.7.9c-1.1.6-2.3,1.2-3.4,1.8a4.35,4.35,0,0,1-.7.4,32.8,32.8,0,0,1-3.8-1.5,1.27,1.27,0,0,1-.1-.6v-2.1a6.15,6.15,0,0,0-.1-1.4v-.3a9.86,9.86,0,0,0-.3-2.4,32.23,32.23,0,0,0-1.6-6.1,28.27,28.27,0,0,1-1.1-3.1l-1.8-4.8c-.3-.7-.5-1.3-.8-2a.37.37,0,0,0-.1-.3.76.76,0,0,0,.4.1c.8.4,1.6.9,2.4,1.3.5.3,1,.5,1.5.8,1.1.6,2.3,1.2,3.4,1.8s2,1.1,3,1.7c.5.3,1.1.6,1.6.9,1.1.6,2.1,1.1,3.2,1.7,1.4.7,2.7,1.5,4.1,2.2l3.9,2.1A34.4,34.4,0,0,0,187.5,192.5Z"/><path class="cls-9" d="M204.3,147.9c.1-.2.2-.3.3-.5a1.76,1.76,0,0,1,.4-.5,10.71,10.71,0,0,1,2.7-.6,5.87,5.87,0,0,1,2.3.4c7.4,2.5,14.8,4.9,22.2,7.4,7.1,2.4,14.2,4.7,21.3,7.1,4.5,1.5,9.1,3,13.6,4.5a10.09,10.09,0,0,1,1.5.7,2.54,2.54,0,0,1,.8,1,3.36,3.36,0,0,1,.4,2.2,23.58,23.58,0,0,0-.4,2.8l-.3,1.8c-.1.6-.2,1.2-.3,1.9-.1,1-.3,2-.4,2.9a21.66,21.66,0,0,1-.4,2.5c0,.2-.1.4-.1.7-.3-.1-.6-.2-.7-.5,0-.1,0-.1-.1-.1a.92.92,0,0,1-.2-1c.2-1.3.4-2.6.6-4,.1-.9.3-1.8.4-2.7s.3-2,.4-2.9a9,9,0,0,1,.3-1.6,2.35,2.35,0,0,0-1-2.2l-1.5-.6c-1.6-.5-3.2-1.1-4.8-1.6-5-1.7-10-3.3-15-5-7.1-2.4-14.2-4.8-21.4-7.2-5.1-1.7-10.3-3.4-15.4-5.2a5.66,5.66,0,0,0-1.8-.3,5.85,5.85,0,0,0-1.3.2,2.35,2.35,0,0,1-.8.2,1,1,0,0,1-.9,0c0,.3.1.6.1.8.4,1.5.9,3,1.3,4.6s.9,3.2,1.4,4.8c.4,1.2.7,2.5,1.1,3.7a23.25,23.25,0,0,1,.8,3.6l.3,2.1v1.2a1.7,1.7,0,0,1,0,1v2.9c0,.2-.1.5-.1.7s-.1.3.1.4c.2-.2.2-.2.3-.9a.76.76,0,0,0,.4-.2,6.46,6.46,0,0,1,2.4,0c1.3.3,2.7.5,4,.8.2,0,.4.1.6.1a3.11,3.11,0,0,1-.9.7.45.45,0,0,1-.5,0l-3-.6a12.25,12.25,0,0,0-1.9-.2,3.26,3.26,0,0,0-1.4.4,1,1,0,0,0-.4.5c-.1.6-.2,1.3-.3,1.9l-.6,3a.71.71,0,0,1-.3.6,4.35,4.35,0,0,1-.7.4v-.3c.2-1.2.4-2.5.7-3.7.2-.9.3-1.8.5-2.6a11,11,0,0,0,.2-1.8,17.7,17.7,0,0,0,.1-2.3c0-.6-.1-1.3-.1-1.9a6.75,6.75,0,0,0-.2-1.4,30.1,30.1,0,0,0-.9-4.1c-.6-2-1.2-4-1.8-6.1l-1.2-4.2c-.3-.9-.5-1.8-.8-2.6v-.3c.1-.3.5-.5.5-.9,0,.2,0,.2-.1.1Z"/><path class="cls-9" d="M261.5,226.2a1.86,1.86,0,0,0-.7,1.3c-.1.3-.2.7-.3,1a1.37,1.37,0,0,1-.5.8c-.1.1-.1.1-.1.2a6.42,6.42,0,0,1-1,1.3c-.2.2-.3.4-.2.6a1.33,1.33,0,0,1-.3.8,17.11,17.11,0,0,0-1.8,2c-.3.4-.7.8-1,1.2-.5.5-.9,1-1.4,1.5s-.9,1.1-1.4,1.6l-.3.3c-.5.6-1,1.1-1.5,1.7l-.1.1c-.5.6-1.1,1.1-1.6,1.7s-.9,1-1.3,1.5c-.1.1-.2.2-.2.3-.5.6-1.1,1.2-1.6,1.8-.3.4-.7.8-1,1.2-.5.5-1,1.1-1.5,1.6s-.9,1.1-1.4,1.6c-.3.4-.7.8-1,1.2-.5.6-1,1.1-1.5,1.6a17.38,17.38,0,0,1-1.3,1.5c-.3.3-.6.7-.9,1-.5.5-.9,1-1.4,1.5s-1,1.2-1.6,1.8c-.3.4-.7.7-1,1.1-.5.5-.9,1-1.4,1.5a20,20,0,0,0-1.4,1.6c-.3.4-.7.7-1,1.1-.8.9-1.6,1.8-2.5,2.7-.7.8-1.4,1.5-2,2.3a17.41,17.41,0,0,1-1.2,1.4l-.6.6c-.6-.2-.9.2-1.3.6a11.37,11.37,0,0,1-1.6,1.5c-.1,0-.1.1-.2.1-.2-.2-.1-.4-.2-.6a3.92,3.92,0,0,1,.8-1c.6-.6,1.2-1.3,1.8-1.9s1.3-1.5,2-2.2l2.4-2.7c.4-.4.7-.8,1.1-1.2.6-.6,1.1-1.2,1.7-1.8s1.1-1.2,1.6-1.8l.2-.2c1-1,1.9-2.1,2.9-3.1.7-.8,1.4-1.5,2.1-2.3s1.4-1.5,2.1-2.3l2.1-2.4c.8-.8,1.5-1.7,2.3-2.5s1.4-1.5,2.1-2.3,1.5-1.6,2.2-2.4,1.4-1.5,2.1-2.3,1.5-1.7,2.3-2.5,1.5-1.6,2.2-2.5,1.4-1.6,2.1-2.3c.4-.4.7-.8,1.1-1.2l.1-.1A13,13,0,0,1,259,230a10.63,10.63,0,0,0,.9-1.1,9.38,9.38,0,0,0,.6-1.5,2.46,2.46,0,0,0,.1-1.2v-.3a10.87,10.87,0,0,0,.4-2.6l.3-1.8c.1-.6.2-1.3.3-1.9l.3-2.1c.1-.6.2-1.3.3-1.9,0-.3.1-.5.1-.8.2-1.2.4-2.5.5-3.7a27,27,0,0,1,.4-2.8c.1-.7.2-1.3.3-2,.1-.9.3-1.8.4-2.7.1-.7.2-1.3.3-2s.2-1.2.3-1.9.2-1.2.3-1.9.2-1.5.3-2.2.2-1.3.3-2,.2-1.3.3-2c.1-.9.3-1.7.4-2.6.1-.7.2-1.5.3-2.2a20.69,20.69,0,0,1,.4-2.2c.5-.3.7-1,1.3-1.3a.45.45,0,0,1,0,.5c-.2,1.1-.4,2.2-.5,3.3-.1.7-.2,1.3-.3,2s-.2,1.1-.3,1.7-.2,1.4-.3,2-.2,1.3-.3,2a25.12,25.12,0,0,1-.4,2.7c-.1.9-.3,1.8-.4,2.7-.1.7-.2,1.3-.3,2s-.2,1.1-.3,1.7l-.3,2.1c-.1.9-.3,1.8-.4,2.7-.1.7-.2,1.4-.3,2a8.75,8.75,0,0,0-.2,1.6l-.3,2.1c-.1.9-.3,1.8-.4,2.7s-.3,1.8-.4,2.7a8.75,8.75,0,0,0-.2,1.6l-.3,2.1a11,11,0,0,0-.2,1.8A1,1,0,0,0,261.5,226.2Z"/><path class="cls-9" d="M216.3,221.5a3,3,0,0,1,.1,1.6.37.37,0,0,1-.3-.1c-2-.8-4-1.6-5.9-2.4-1.5-.6-2.9-1.2-4.4-1.8l-5.1-2.1-4.5-1.8a2,2,0,0,1-.8-.4c-.5-.2-1-.4-1.6-.6-.1,0-.1,0-.2-.1a25.44,25.44,0,0,0-3.8-1.6c-1.9-.8-3.8-1.6-5.7-2.3-1.3-.5-2.5-1-3.8-1.5s-2.9-1.2-4.3-1.8c-1.8-.7-3.6-1.5-5.5-2.2-1.4-.6-2.7-1.1-4.1-1.7-.4-.2-.9-.3-1.3-.5a9.14,9.14,0,0,1-1.4-.7c-.2-.2-.5-.4-.6-.7a1.42,1.42,0,0,1,.1-1.1,2.66,2.66,0,0,1,1.1-1,11.73,11.73,0,0,0,1.1.5l.2-.2a1.34,1.34,0,0,1-.6-.7,1,1,0,0,0-.5-.4v-.2c-.1-1.4-.3-2.7-.5-4a47.68,47.68,0,0,0-1.3-5.1c-.4-1.2-.9-2.4-1.4-3.6l-1.8-4.5c-.5-1.2-.9-2.3-1.4-3.5-.1-.2-.1-.3-.2-.5.2.1.3.1.4.2.4.2.7.4,1.1.6a.66.66,0,0,1,.4.5c.5,1.4,1.1,2.7,1.6,4.1.4,1,.8,2,1.1,2.9a40.38,40.38,0,0,1,1.6,4.5,47,47,0,0,1,1.2,5.1,6.6,6.6,0,0,1,.1,1.4,12.25,12.25,0,0,1,.2,1.9v1.9c0,.3-.1.6-.1.8l-.1.1c-.2-.1-.4-.1-.5-.2.1-.3.5-.3.5-.7a.76.76,0,0,0-.5.2c-.2.1-.3.2-.5.3a.35.35,0,0,0,.1.2.31.31,0,0,0,.2.1c1,.4,1.9.9,2.9,1.3.6.2,1.2.5,1.9.7.1,0,.2,0,.2.1a4.13,4.13,0,0,0,1.5.7c1.4.6,2.8,1.1,4.3,1.7,2.6,1,5.2,2.1,7.8,3.1s5.1,2,7.6,3.1l6.6,2.7,7.5,3c1.9.8,3.8,1.5,5.6,2.3s3.4,1.4,5.2,2.1C216.1,221.4,216.2,221.5,216.3,221.5Z"/><path class="cls-9" d="M165,233.3a1.15,1.15,0,0,1-1,.1c0-.1-.1-.2-.1-.4v-1c0-.4.1-.7.1-1.1v-4.7a4.87,4.87,0,0,1,.1-1.2v-.5c0-1.9-.1-3.8,0-5.7.1-2.3,0-4.6.1-6.9s0-4.5.1-6.8c0-.8.1-1.6.1-2.5,0-.1,0-.1.1-.2a2.1,2.1,0,0,1,1.1.4c0,.1.1.3.1.4V205c-.2,1.6,0,3.2-.1,4.8s0,3.4-.1,5.2,0,3.3-.1,5,0,3.3-.1,5,0,3.2-.1,4.9c-.1,1.1-.1,2.1-.1,3.2A.35.35,0,0,0,165,233.3Z"/><path class="cls-9" d="M193.3,214a3.55,3.55,0,0,1,.9.4c-.1.1-.1.2-.2.2-1.2.9-2.4,1.7-3.6,2.6-1.4,1-2.7,2-4.1,3-.8.6-1.5,1.1-2.3,1.6l-3.4,2.5c-1.1.8-2.2,1.6-3.2,2.4s-2,1.5-3.1,2.2-2,1.5-3,2.2c-.5.4-1,.7-1.5,1.1-.1.1-.3.2-.4.3-.1-.1-.3-.1-.4-.2a.91.91,0,0,0-.7.3c-.5.4-1,.7-1.6,1.1l-.6.3a.21.21,0,0,1,0-.4l.4-.4a20.28,20.28,0,0,0,1.8-1.3,17,17,0,0,0,1.4-1c.9-.7,1.9-1.3,2.8-2l3.4-2.5,3.3-2.4c1.2-.9,2.4-1.7,3.6-2.6l3.3-2.4,3.2-2.3c.9-.7,1.9-1.4,2.8-2A3.46,3.46,0,0,0,193.3,214Z"/><path class="cls-9" d="M209,179.3l.3-1.8c.2-1,.4-2,.5-3,.1-.3.2-.6.5-.7a4.53,4.53,0,0,1,2.3-.2l3.1.6a1.69,1.69,0,0,1,.5.2c-.2.1-.2.2-.4.3-.8.6-1.7,1.1-2.5,1.7-1.3.9-2.6,1.7-3.8,2.6-.2.1-.3.2-.5.3Z"/><path class="cls-9" d="M223,271.9c0,.3-.2.4-.3.6l-2.1,2.4a17.41,17.41,0,0,1-1.2,1.4l-.3.3a1,1,0,0,1-1.5-.4.6.6,0,0,1-.1-.4v-1.7c0-.1,0-.1.1-.2.2.1.3.1.4.2a1.4,1.4,0,0,0,1.4-.2c.2-.1.3-.3.5-.4a.9.9,0,0,1,.1.5c.1.4.4.6.7.4a2.18,2.18,0,0,0,.5-.4c.5-.5,1-1.1,1.5-1.7C222.7,272.1,222.8,272,223,271.9Z"/><path class="cls-9" d="M168.9,232.8a1,1,0,0,1-.4.6,5.5,5.5,0,0,0-.9.7c-.8.5-1.5,1.1-2.3,1.6-.2.1-.3.2-.5.3a.9.9,0,0,1-.5.1.47.47,0,0,1-.5-.5v-1.8l.1-.1a.37.37,0,0,1,.3.1,1.09,1.09,0,0,0,1.2-.2.76.76,0,0,1,.4-.2.6.6,0,0,1,.1.4c.1.4.3.5.6.5a.86.86,0,0,0,.6-.3l1.4-1.1C168.6,233,168.7,233,168.9,232.8Z"/><path class="cls-9" d="M153.8,171.9a14,14,0,0,1,1.6-1,7.89,7.89,0,0,1,.9,2.3C155.4,172.8,154.6,172.3,153.8,171.9Z"/><path class="cls-9" d="M220.1,272a.35.35,0,0,1,.1-.2c.4-.4.7-.8,1.1-1.2a.35.35,0,0,0,.1.2c-.3.4-.7.8-1,1.2Z"/><path class="cls-9" d="M261.3,228.4v.2a1.25,1.25,0,0,1-.6,1.1h0c.2-.5.4-.9.6-1.3Z"/><path class="cls-9" d="M260,230.5a1.39,1.39,0,0,1,.7-.8h0a2.85,2.85,0,0,1-.7.8Z"/><path class="cls-9" d="M167.6,231.9a1.56,1.56,0,0,1-.8.6h0a1.56,1.56,0,0,1,.8-.6Z"/><path class="cls-9" d="M257.8,230.4c0-.3.3-.4.5-.6-.1.3-.1.3-.5.6Z"/><path class="cls-9" d="M259.3,231.3a.85.85,0,0,1,.3-.5h0a.62.62,0,0,1-.3.5Z"/><path class="cls-9" d="M261.3,228.4v-.5c.1.3.1.4,0,.5Z"/><path class="cls-9" d="M261.5,227.3Z"/><polygon class="cls-9" points="209 179.2 209 179.3 209 179.3 209 179.2"/><path class="cls-9" d="M260.8,229.6l-.1.1h0l.1-.1Z"/><path class="cls-9" d="M257.8,230.4l-.1.1h0l.1-.1Z"/><path class="cls-9" d="M257.7,230.5l-.1.1Z"/><path class="cls-9" d="M259.8,230.7l.1-.1h0l-.1.1Z"/><path class="cls-9" d="M259.7,230.8l.1-.1h0l-.1.1Z"/><path class="cls-9" d="M259.7,230.8l-.1.1h0a.1.1,0,0,1,.1-.1Z"/><path class="cls-9" d="M259.3,231.3l-.1.1Z"/><path class="cls-9" d="M167.6,231.9Z"/><path class="cls-9" d="M166.8,232.5Z"/></g><path id="SVGID" class="cls-10" d="M273.5,307c-1.8-1.8-5.7-1.8-10.6-1.8a74.56,74.56,0,0,1-10.4-.5c-8.9-1.3-16.1-2-16.2-2-16-.5-27.2,1.6-34,6.6-.1,0-.2-.1-.3-.1H143.7V71.1H277.4V306.7A16.66,16.66,0,0,0,273.5,307Z"/></g><circle class="cls-6" cx="454.8" cy="69.8" r="19.1"/><path class="cls-6" d="M446.3,134.3A54.3,54.3,0,1,0,392,80a54.29,54.29,0,0,0,54.3,54.3"/><path class="cls-11" d="M441.3,41.1A18.69,18.69,0,0,1,458,68.2a1.12,1.12,0,0,1-2-1,15.65,15.65,0,0,0,1.7-7.3,16.5,16.5,0,1,0-25,14.1,1.13,1.13,0,0,1,.4,1.5,1.23,1.23,0,0,1-1,.5,1.42,1.42,0,0,1-.6-.2,18.5,18.5,0,0,1-9.1-16A19,19,0,0,1,441.3,41.1Z"/><path class="cls-11" d="M441.3,50.6a9.18,9.18,0,0,0-9.2,9.2,8.68,8.68,0,0,0,1,4.2,1.12,1.12,0,0,1-2,1,11.77,11.77,0,0,1-1.3-5.2,11.5,11.5,0,0,1,23,0,10.93,10.93,0,0,1-1.5,5.6,1.1,1.1,0,0,1-1,.6,4.33,4.33,0,0,1-.5-.1,1.13,1.13,0,0,1-.4-1.5,8.92,8.92,0,0,0,1.2-4.5A9.35,9.35,0,0,0,441.3,50.6Z"/><path class="cls-11" d="M469.5,84.9a138.42,138.42,0,0,1-2.6,26.5,6.79,6.79,0,0,1-6.5,5.6H443.8a7.23,7.23,0,0,1-6.3-3.9l-14-25.4v-.1a4.19,4.19,0,0,1-.1-3.3,4,4,0,0,1,2-2.2,6.3,6.3,0,0,1,7.8,2l3.1,3.9-.1-27.7a5.66,5.66,0,0,1,1.7-4.1,4.75,4.75,0,0,1,3.5-1.4,5.38,5.38,0,0,1,5,5.4V73a5.12,5.12,0,0,1,2.7-.9,4.88,4.88,0,0,1,4.2,2.5,4.79,4.79,0,0,1,3.5-1.6,4.91,4.91,0,0,1,4.3,2.7,4.86,4.86,0,0,1,3.4-1.5,5.21,5.21,0,0,1,5,5.3v5.4Zm-5-8.4a2.92,2.92,0,0,0-2.7,3.1v6.3a1.1,1.1,0,0,1-2.2,0V78.4a2.71,2.71,0,1,0-5.4-.4v6.7a1.1,1.1,0,1,1-2.2,0V77.5a2.73,2.73,0,1,0-5.4,0v6.3a1.1,1.1,0,1,1-2.2,0V60.2a3.09,3.09,0,0,0-2.8-3.2h-.1a2.5,2.5,0,0,0-1.8.8,3.55,3.55,0,0,0-1,2.5l.1,30.9a1.23,1.23,0,0,1-.7,1.1,1,1,0,0,1-1.2-.4l-5.1-6.4a4.1,4.1,0,0,0-5.1-1.3,1.79,1.79,0,0,0-.9,1,2,2,0,0,0,0,1.5l13.9,25.4a5,5,0,0,0,4.4,2.7h16.6A4.64,4.64,0,0,0,465,111a134.31,134.31,0,0,0,2.6-26.1V79.6A3.41,3.41,0,0,0,464.5,76.5Z"/></svg>