<svg id="Layer_1" data-name="Layer 1" xmlns="http://www.w3.org/2000/svg" viewBox="0 0 520 26.35"><defs><style>.cls-1{fill:#e31837;}.cls-2{fill:#aaa;}</style></defs><g id="Layer_3" data-name="Layer 3"><path class="cls-1" d="M24.55,11.74h-4l-1,4.64h3.13v3.67h-4l-1.22,5.51h-4.1l1.22-5.51H8.42L7.2,25.56H3.13l1.23-5.51H1.12V16.38h4l1-4.64h-3V8H7L8.21,2.52h4.07L11.05,8h6.16l1.22-5.51h4.11L21.31,8h3.24Zm-9.18,4.64,1.05-4.64H10.26l-1,4.64Z"/><path class="cls-1" d="M33.05,21.31H45.61v4.25H28.4V.36h4.65Z"/><path class="cls-1" d="M53.6.36v25.2H48.85V.36Z"/><path class="cls-1" d="M75.49.36h4.65v25.2H75.27L63.94,8.71h-.29V25.56H59V.36h4.86l11.34,17h.29Z"/><path class="cls-1" d="M90.18,21.42h12.6v4.14H85.53V.36h16.89V4.5H90.18v6.26h10.55v4H90.18Z"/><path class="cls-1" d="M127.26.36V15.8q0,4.93-2.85,7.53A10.64,10.64,0,0,1,117,26a10.83,10.83,0,0,1-7.52-2.59q-2.88-2.6-2.88-7.53V.36h4.75v15.3a5.78,5.78,0,0,0,1.53,4.3A5.55,5.55,0,0,0,117,21.53,5.43,5.43,0,0,0,121,20a5.92,5.92,0,0,0,1.52-4.34V.36Z"/><path class="cls-1" d="M142.7.36a8.47,8.47,0,0,1,6.14,2.21,7.72,7.72,0,0,1,2.29,5.78,7.65,7.65,0,0,1-2.33,5.85,8.74,8.74,0,0,1-6.24,2.18h-5.37v9.18h-4.6V.36Zm-.61,11.88a4.32,4.32,0,0,0,3.1-1,3.82,3.82,0,0,0,1.08-2.85,3.72,3.72,0,0,0-1.08-2.81,4.12,4.12,0,0,0-3-1h-5v7.74Z"/><path class="cls-1" d="M171.79,4.72h-12.2v6.69h10.58v4.14H159.59v10h-4.76V.36h17Z"/><path class="cls-1" d="M186.91,26A12.61,12.61,0,0,1,174,13a12.64,12.64,0,0,1,3.66-9.25,13.32,13.32,0,0,1,18.45,0A12.65,12.65,0,0,1,199.8,13a12.64,12.64,0,0,1-3.66,9.25A12.44,12.44,0,0,1,186.91,26Zm0-4.39a7.49,7.49,0,0,0,5.72-2.45A8.66,8.66,0,0,0,194.94,13a8.61,8.61,0,0,0-2.29-6.12,8,8,0,0,0-11.24-.24l-.24.24A8.61,8.61,0,0,0,178.88,13a8.61,8.61,0,0,0,2.29,6.12A7.57,7.57,0,0,0,187,21.53Z"/><path class="cls-1" d="M223.16,25.56h-5l-5.25-9.83H208.8v9.83h-4.64V.36h10a8.42,8.42,0,0,1,5.94,2,7,7,0,0,1,2.2,5.39,7.3,7.3,0,0,1-4.86,7.09ZM208.76,4.39V11.7h4.79a4,4,0,0,0,2.86-1,3.49,3.49,0,0,0,1.06-2.64,3.45,3.45,0,0,0-1-2.67,4.11,4.11,0,0,0-2.88-1Z"/><path class="cls-1" d="M231.48,21.31H244v4.25H226.83V.36h4.65Z"/><path class="cls-1" d="M252,.36v25.2h-4.75V.36Z"/><path class="cls-1" d="M273.92.36h4.65v25.2h-4.86L262.37,8.71h-.29V25.56h-4.65V.36h4.86l11.34,17h.29Z"/><path class="cls-1" d="M288.72.36v25.2H284V.36Z"/><path class="cls-1" d="M310.35,25.56l-2.05-6.08h-9.43l-2.05,6.08h-5.08l9-25.2h5.72l9,25.2Zm-10.18-10H307l-3.27-9.72h-.29Z"/><path class="cls-2" d="M342,11.88h11.41V25.56h-3.78l-.47-2.41h-.29A10.14,10.14,0,0,1,341.31,26a11.25,11.25,0,0,1-8.66-3.51,12.82,12.82,0,0,1-3.26-9.09A13.38,13.38,0,0,1,333,3.76,12.11,12.11,0,0,1,342.17,0a11.84,11.84,0,0,1,7.56,2.27A8.82,8.82,0,0,1,353.15,8H348a5,5,0,0,0-2.09-2.7,6.81,6.81,0,0,0-3.71-1,7.28,7.28,0,0,0-5.76,2.5,9.45,9.45,0,0,0-2.16,6.43,8.85,8.85,0,0,0,2.05,6A7.08,7.08,0,0,0,342,21.57a8.42,8.42,0,0,0,4.84-1.29,4.24,4.24,0,0,0,1.89-3.71v-1H342Z"/><path class="cls-2" d="M363.38.36v25.2h-4.76V.36Z"/><path class="cls-2" d="M384.25.36h5.08l-8.6,25.2H375L366.4.36h5.11l6.26,18.83h.29Z"/><path class="cls-2" d="M397,21.42h12.6v4.14H392.35V.36h16.89V4.5H397v6.26h10.55v4H397Z"/><path class="cls-2" d="M430.69,25.56l-2.05-6.08h-9.43l-2,6.08h-5.08l9-25.2h5.73l9,25.2Zm-10.18-10h6.84l-3.28-9.72h-.29Z"/><path class="cls-2" d="M463,.36h4.57l-5.47,25.2h-5.25l-5-17.32h-.29l-4.9,17.32h-5.25L436,.36h4.61l3.71,18.22h.28l4.67-16.42h5L459,18.58h.29Z"/><path class="cls-2" d="M486.42,25.56l-2.05-6.08h-9.43l-2.05,6.08h-5.08l9-25.2h5.72l9,25.2Zm-10.19-10h6.84L479.8,5.84h-.29Z"/><path class="cls-2" d="M507,.36h5.65l-9.07,14.08V25.56h-4.75V14.44L489.73.36h5.62L501,9.25h.29Z"/></g></svg>