<svg id="Layer_1" data-name="Layer 1" xmlns="http://www.w3.org/2000/svg" xmlns:xlink="http://www.w3.org/1999/xlink" viewBox="0 0 248.6 248.6"><defs><style>.cls-1,.cls-10,.cls-4,.cls-9{fill:none;}.cls-2{fill:#e5e6e6;}.cls-3{clip-path:url(#clip-path);}.cls-10,.cls-4,.cls-9{stroke:#808082;stroke-linecap:round;stroke-linejoin:round;}.cls-4{stroke-width:1.04px;}.cls-5{fill:#cfd1d2;}.cls-6{fill:#fff;}.cls-7{fill:#808082;}.cls-8{clip-path:url(#clip-path-2);}.cls-9{stroke-width:0.24px;}.cls-10{stroke-width:0.25px;}.cls-11{opacity:0.2;}.cls-12{fill:#a9aaaa;}</style><clipPath id="clip-path"><rect class="cls-1" x="-0.2" y="-0.7" width="248.7" height="248.7"/></clipPath><clipPath id="clip-path-2"><path class="cls-1" d="M130.2,146.2c-.9-.9-2.8-.9-5.1-.8a41.8,41.8,0,0,1-5-.2c-4.3-.6-7.7-.9-7.8-.9-7.7-.2-13,.8-16.2,3.1h-28V33.4h64V146.1A5.92,5.92,0,0,0,130.2,146.2Z"/></clipPath></defs><g id="Layer_2" data-name="Layer 2"><g id="Layer_3" data-name="Layer 3"><rect class="cls-2" x="-0.2" y="-0.7" width="248.7" height="248.7"/><rect class="cls-2" x="-0.2" y="-0.7" width="248.7" height="248.7"/><g class="cls-3"><line class="cls-4" x1="-0.2" y1="123.7" x2="248.5" y2="123.7"/><path class="cls-5" d="M244.8,232.7a.37.37,0,0,0,0-.6c-3.4-3.9-6.3-7-8.8-9.8-5.7-6.1-9.5-10.1-11.7-16.6-2.8-8-3.2-8.9-4.9-12-.7-1.2-1.5-2.8-2.7-5.2a199.73,199.73,0,0,0-11.2-18.9c-.4-.6-.8-1.2-1.1-1.7-1.2-1.9-2.3-4-3.4-6a47.52,47.52,0,0,0-4.7-7.8l-1.1-1.4a118.17,118.17,0,0,0-7.6-9.1c-3.6-3.9-5.8-6.3-9-10a61.23,61.23,0,0,0-8-8.1,11.84,11.84,0,0,1-3-3.3,17.55,17.55,0,0,0-2.4-3,32.09,32.09,0,0,1-3.9-5.2c-.9-1.4-2-3-3.4-5.1-2.1-2.9-3.4-4.4-4.6-5.8-.9-1-1.8-2.1-3-3.7a70.5,70.5,0,0,0-5.1-5.8l-2.3-2.3a22.71,22.71,0,0,0-6.6-4.9l-.9-.5c-2.3-1.2-4.8-2.8-5.5-3.2v-52c0-4.6-1.6-7.9-4.9-9.8a12.57,12.57,0,0,0-6.3-1.6H66.8c-3.6,0-6.5,1-8.4,3-3.2,3.3-3.1,8.2-3.1,8.4v9.5H53.5v7.1h1.8v7.1H53.5V59h1.8v8.3H53.5v4.5h1.8v32.3c-10.7-.7-12.5,6.1-12.8,8.2-.6,3.7,1,6.7,4.5,8.9a70.16,70.16,0,0,0,8.3,4V138H53.5a14.05,14.05,0,0,0-2.9,0h-.1a53.41,53.41,0,0,1-8,0,10,10,0,0,0-7,2.6,7.85,7.85,0,0,0-2.8,5.7c-.4,5.9,4.7,9,9.8,11.2,4,1.8,9.1,2,11.7,2h1.2v4.6c0,4,1.1,7,3.4,9.1a13.61,13.61,0,0,1-2.1-.2,10.14,10.14,0,0,0-4.7.2c-1.2.5-5.5,3.3-3.6,10.2,1.8,6.4,9,7.9,12.5,8.6H61a36.53,36.53,0,0,0,11.9.5,8.67,8.67,0,0,1,4.5.6,44,44,0,0,0,12,1.7,6.28,6.28,0,0,1,3.7,1.2c.3.2,7.8,4.8,15.1,4.8a6.6,6.6,0,0,0,1.4-.1c1.3,4,5,7.5,9.8,11.8l4.8,4.5c1.2,4.4,4.4,7.5,7.5,10.2a36.33,36.33,0,0,1,2.8,2.7l1.8,1.9c4.3,4.6,9.6,10.3,16.9,14.4a41.2,41.2,0,0,0,7.4,3.4,13.36,13.36,0,0,1,6.7,4.5,26.51,26.51,0,0,0,11.2,7.1,24.68,24.68,0,0,0,6.7,3.8c1.1.5,2.3,1,3.6,1.6a16.71,16.71,0,0,1,4.4,3.1,36.5,36.5,0,0,0,3.6,3.1c4.3,3.3,17.4,16.8,17.5,16.9a.37.37,0,0,0,.3.1.43.43,0,0,0,.4-.4.37.37,0,0,0-.1-.3"/><path class="cls-6" d="M249.1,222.3c.1-.1.2-.4,0-.5h0c-3.3-3.9-6.1-6.9-8.6-9.6-5.6-5.9-9.3-9.9-11.5-16.3-2.7-7.8-3.2-8.8-4.8-11.8-.6-1.2-1.4-2.7-2.6-5.1a191.71,191.71,0,0,0-11-18.5,16.29,16.29,0,0,1-1.1-1.7,66.52,66.52,0,0,1-3.3-5.8,46.1,46.1,0,0,0-4.6-7.7l-1.1-1.4c-2.5-3.2-4.4-5.6-7.4-8.9-3.5-3.8-5.7-6.1-8.8-9.8a65.6,65.6,0,0,0-7.8-8,14.75,14.75,0,0,1-2.9-3.2,21.72,21.72,0,0,0-2.4-2.9,37.51,37.51,0,0,1-3.8-5.1c-.9-1.4-1.9-3-3.4-5-2.1-2.8-3.3-4.3-4.5-5.7-.9-1-1.7-2.1-2.9-3.6a45.27,45.27,0,0,0-5.1-5.7c-.7-.7-1.4-1.4-2.2-2.3a21.52,21.52,0,0,0-6.4-4.8l-.9-.5c-2.2-1.2-4.7-2.7-5.4-3.1V24.6q0-6.75-4.8-9.6a13.3,13.3,0,0,0-6.2-1.6H74.9c-3.6,0-6.3,1-8.3,3-3.1,3.2-3,8-3,8.2v9.3H61.8v7h1.8v7H61.8v4.4h1.8v8H61.8v4.4h1.8V96.3c-10.4-.7-12.3,5.9-12.6,8-.5,3.6,1,6.5,4.4,8.7a56.17,56.17,0,0,0,8.2,3.9v12.6H61.8a13.1,13.1,0,0,0-2.8,0h-.1a50.78,50.78,0,0,1-7.8,0,10.3,10.3,0,0,0-6.9,2.5,8,8,0,0,0-2.8,5.6c-.3,5.8,4.7,8.8,9.6,11,3.9,1.7,8.9,2,11.4,2h1.2v4.5c0,3.9,1.1,6.9,3.3,8.9a12.31,12.31,0,0,1-2-.2,9.8,9.8,0,0,0-4.6.2c-1.2.5-5.3,3.3-3.5,10,1.7,6.2,8.8,7.7,12.2,8.4h.1a37.71,37.71,0,0,0,11.6.5,8.3,8.3,0,0,1,4.4.6,41.91,41.91,0,0,0,11.7,1.7,5.78,5.78,0,0,1,3.6,1.2c.3.2,7.7,4.7,14.8,4.7a6.6,6.6,0,0,0,1.4-.1c1.3,4,4.9,7.3,9.6,11.6l4.7,4.4c1.1,4.3,4.4,7.3,7.3,10,1,.9,1.9,1.8,2.7,2.6l1.8,1.9c4.2,4.5,9.4,10.1,16.5,14.1a46.87,46.87,0,0,0,7.2,3.3,13.56,13.56,0,0,1,6.6,4.4,25.43,25.43,0,0,0,11,6.9,23.82,23.82,0,0,0,6.6,3.7c1.1.5,2.3.9,3.6,1.6a12.85,12.85,0,0,1,4.3,3,32.69,32.69,0,0,0,3.5,3c4.2,3.2,17,16.4,17.1,16.5a.5.5,0,0,0,.6,0,.45.45,0,0,0,0-.5h29.6Z"/><path class="cls-7" d="M104.4,145.8c-4.4,0-8.5,2.3-9.8,5.5-2.7,6.5,3.1,11.2,3.2,11.2l.1.1H98a19.73,19.73,0,0,0,4.8.6h.6a11.48,11.48,0,0,0,3.7-.6l.2-.1v-.2a27.92,27.92,0,0,1,5.4-14.4l.4-.4-.6-.2C110.4,146.7,104.7,145.9,104.4,145.8Zm2.1,16.2a17.73,17.73,0,0,1-3.2.5,22.2,22.2,0,0,1-5.1-.6c-.6-.5-5.3-4.6-2.9-10.3,1.2-2.9,5-5,9.1-5,.4.1,5.1.7,7.3,1.3A28.83,28.83,0,0,0,106.5,162Z"/><path class="cls-7" d="M130.2,148.8l-.3-1.4-.4,1.3a6.52,6.52,0,0,1-2.8,3.9c-.2.1-.2.3-.2.5a.37.37,0,0,0,.5.2,6,6,0,0,0,2.4-2.6,11.57,11.57,0,0,1-1.8,5.1c-2.4,4.4-2.3,6.9-2.3,7a.43.43,0,0,0,.4.4h0a.43.43,0,0,0,.4-.4h0s-.1-2.4,2.2-6.6C130.8,151.8,130.2,148.9,130.2,148.8Z"/><path class="cls-7" d="M121.1,148.6c-.1-.1-.4-.2-.5,0h0a14.23,14.23,0,0,0-2.7,12.4c0,.2.2.3.4.3h.1c.2,0,.3-.2.3-.4h0a13.63,13.63,0,0,1,2.5-11.7A.47.47,0,0,0,121.1,148.6Z"/><path class="cls-7" d="M249.2,221.8c-3.3-3.9-6.1-6.9-8.6-9.6-5.6-5.9-9.3-9.9-11.5-16.3-2.7-7.8-3.2-8.8-4.8-11.8-.6-1.2-1.4-2.7-2.6-5.1a191.71,191.71,0,0,0-11-18.5,16.29,16.29,0,0,1-1.1-1.7,66.52,66.52,0,0,1-3.3-5.8,46.1,46.1,0,0,0-4.6-7.7l-1.1-1.4c-2.5-3.2-4.4-5.6-7.4-8.9-3.5-3.8-5.7-6.1-8.8-9.8a65.6,65.6,0,0,0-7.8-8,14.75,14.75,0,0,1-2.9-3.2,21.72,21.72,0,0,0-2.4-2.9,37.51,37.51,0,0,1-3.8-5.1c-.9-1.4-1.9-3-3.4-5-2.1-2.8-3.3-4.3-4.5-5.7-.9-1-1.7-2.1-2.9-3.6a45.27,45.27,0,0,0-5.1-5.7c-.7-.7-1.4-1.4-2.2-2.3A19.65,19.65,0,0,0,143,79l-.9-.5c-2.2-1.2-4.7-2.7-5.4-3.1V24.6q0-6.75-4.8-9.6a13.3,13.3,0,0,0-6.2-1.6H74.9c-3.6,0-6.3,1-8.3,3-3.1,3.2-3,8-3,8.2v9.3H61.8v7h1.8v7H61.8v4.4h1.8v8H61.8v4.4h1.8V96.3c-10.4-.7-12.3,5.9-12.6,8-.5,3.6,1,6.5,4.4,8.7a56.17,56.17,0,0,0,8.2,3.9v12.6H61.8a13.1,13.1,0,0,0-2.8,0h-.1a50.78,50.78,0,0,1-7.8,0,10.3,10.3,0,0,0-6.9,2.5,8,8,0,0,0-2.8,5.6c-.3,5.8,4.7,8.8,9.6,11,3.9,1.7,8.9,2,11.4,2h1.2v4.5c0,3.9,1.1,6.9,3.3,8.9a12.31,12.31,0,0,1-2-.2,9.8,9.8,0,0,0-4.6.2c-1.2.5-5.3,3.3-3.5,10,1.7,6.2,8.8,7.7,12.2,8.4h.1a37.71,37.71,0,0,0,11.6.5,8.3,8.3,0,0,1,4.4.6,41.91,41.91,0,0,0,11.7,1.7,5.78,5.78,0,0,1,3.6,1.2c.3.2,7.7,4.7,14.8,4.7a6.6,6.6,0,0,0,1.4-.1c1.3,4,4.9,7.3,9.6,11.6l4.7,4.4c1.1,4.3,4.4,7.3,7.3,10,1,.9,1.9,1.8,2.7,2.6l1.8,1.9c4.2,4.5,9.4,10.1,16.5,14.1a46.87,46.87,0,0,0,7.2,3.3,13.56,13.56,0,0,1,6.6,4.4,25.43,25.43,0,0,0,11,6.9,23.82,23.82,0,0,0,6.6,3.7c1.1.5,2.3.9,3.6,1.6a12.85,12.85,0,0,1,4.3,3,32.69,32.69,0,0,0,3.5,3c4.2,3.2,17,16.4,17.1,16.5a.5.5,0,0,0,.6,0,.45.45,0,0,0,0-.5c-.5-.5-13-13.4-17.2-16.6a24.33,24.33,0,0,1-3.4-3,13.94,13.94,0,0,0-4.5-3.1c-1.3-.7-2.5-1.1-3.6-1.6a22.44,22.44,0,0,1-6.4-3.6l-.1-.1h-.1a25.58,25.58,0,0,1-10.7-6.7,14.09,14.09,0,0,0-6.9-4.6,45.79,45.79,0,0,1-7.1-3.3c-7-4-12.2-9.5-16.3-14l-1.8-1.9a23.28,23.28,0,0,0-2.8-2.6c-4.2-3.9-9.1-8.3-7-16.6a20.81,20.81,0,0,1,3.6-8.2c1.5-2.4,3.3-5,5.2-12.7a19.73,19.73,0,0,1,2.6.7c2.3,16.2,16.3,26.1,16.4,26.2s.1.1.2.1.2-.1.3-.2.1-.4-.1-.5h0c-.1-.1-13.6-9.6-16-25.3a5.36,5.36,0,0,1,1.1.5l1.3.7a17,17,0,0,0,5.8,2.2c.7.6,4.6,3.7,14.2,3.7a64.29,64.29,0,0,0,13.1-1.6c.2,0,.3-.2.3-.4h0c0-.2-.2-.3-.4-.3-15.4,3.4-23,.4-25.7-1.2l1,.1h0a.43.43,0,0,0,.4-.4c0-.2-.1-.4-.3-.4h0a15.17,15.17,0,0,1-8-2.3c-.4-.2-.9-.5-1.3-.7a14.17,14.17,0,0,0-1.8-.8h0a20.25,20.25,0,0,0-3.3-.9h0l-1.2-.2c-1-.2-2.2-.4-3.6-.7a18.72,18.72,0,0,1-8.3-4.2l-.1-.1H127c-.1,0-12.5,1-18.7-2.6-.7-.4-1.6-.9-2.7-1.4-5.6-2.6-15-6.9-12.1-16.3,1.6-5.4,7.7-7.8,18.9-7.4,0,0,3.5.3,7.7.9a29,29,0,0,0,5.1.2c2.1,0,4.2,0,4.7.7l.2.3.3-.1a5.8,5.8,0,0,1,3.2,0,23.58,23.58,0,0,0,2.8.4h0a16.12,16.12,0,0,0,3.8-.1,30.78,30.78,0,0,1,6.8.7l3.6.6c4.4.6,10,1.3,14.4.6l1.8-.3a31.64,31.64,0,0,1,8.7-.6.43.43,0,0,0,.4-.4c0-.2-.1-.4-.3-.4h0a36.91,36.91,0,0,0-8.8.6l-1.7.3c-4.3.6-9.8,0-14.2-.6h-.1a17.39,17.39,0,0,1,1.1-1.8c.7-1,1.1-1.7,2-5.5a25,25,0,0,1,5.1-10,.45.45,0,0,0,0-.5h0c-.1-.1-.4-.2-.5,0h0a25.53,25.53,0,0,0-5.2,10.4c-.8,3.6-1.2,4.3-1.9,5.2a11.25,11.25,0,0,0-1.2,2.1l-2.7-.5a32.6,32.6,0,0,0-7-.7,18.21,18.21,0,0,1-3.3.1V121c1.8-4.3,4.4-5.7,4.4-5.7a.38.38,0,1,0-.3-.7h0a10.74,10.74,0,0,0-4.1,4.6v-9a11.36,11.36,0,0,0,4.1,2.4h.1c.2,0,.3-.1.4-.3s-.1-.4-.2-.5a10.51,10.51,0,0,1-4.4-2.7v-19a13.57,13.57,0,0,1,5-6.1c.2-.1.2-.3.1-.5s-.3-.2-.5-.1a14.43,14.43,0,0,0-4.6,4.9V76.4c1,.6,3.1,1.9,5,2.9l.9.5a19.27,19.27,0,0,1,6.3,4.7c.8.9,1.6,1.6,2.2,2.3a44.43,44.43,0,0,1,5,5.6c1.2,1.6,2.1,2.6,2.9,3.6,1.2,1.4,2.4,2.8,4.5,5.6,1.4,2,2.5,3.5,3.4,4.9a28.26,28.26,0,0,0,3.9,5.2,31.12,31.12,0,0,1,2.3,2.8,11.84,11.84,0,0,0,3,3.3,57.51,57.51,0,0,1,7.7,7.9c3.1,3.6,5.3,6,8.9,9.8,3,3.2,4.9,5.7,7.4,8.9l1.1,1.4a52.41,52.41,0,0,1,4.5,7.6c1,2,2.1,4,3.3,5.9l1.1,1.7a178,178,0,0,1,10.9,18.4c1.2,2.4,2,3.9,2.6,5.1,1.6,3,2.1,3.9,4.8,11.7,2.3,6.6,6,10.6,11.6,16.6,2.5,2.7,5.4,5.7,8.6,9.5a.37.37,0,0,0,.3.1.43.43,0,0,0,.4-.4,1.37,1.37,0,0,1-.6-.2ZM63.6,40.2h-1V34.7h1Zm0,11.3h-1V48.6h1Zm0,12.4h-1V61h1Zm-7.8,48.4c-3.2-2-4.6-4.6-4.1-7.9.4-2.4,2.3-8,11.8-7.4v19A49.33,49.33,0,0,1,55.8,112.3Zm-4.5,35.5c-4.7-2.1-9.5-4.9-9.1-10.3a7.55,7.55,0,0,1,2.5-5,9.68,9.68,0,0,1,6.3-2.4,52.08,52.08,0,0,0,7.9,0H59a12.19,12.19,0,0,1,2.7,0h1.8v19.5c-1.5.2-7.7.3-12.2-1.8Zm75.5,25.7a20.18,20.18,0,0,0,8.5,4.3l3.6.7.8.2c-1.9,7.5-3.6,10.1-5.1,12.4a23.47,23.47,0,0,0-3.7,8.4,17.8,17.8,0,0,0-.4,6.1c-1.4-1.3-2.7-2.5-3.9-3.7-6-5.6-10-9.2-9.9-14.5a96.61,96.61,0,0,0-.8-14.2A66.49,66.49,0,0,0,126.8,173.5Zm-19-2.8a21.28,21.28,0,0,0,7.4,2.3,85.19,85.19,0,0,1,.9,14.3,13.33,13.33,0,0,0,.3,2.8c-7.2.6-15.4-4.4-15.5-4.5a6.68,6.68,0,0,0-4.1-1.3,43.58,43.58,0,0,1-11.4-1.6,9.83,9.83,0,0,0-4.8-.6,35.67,35.67,0,0,1-11.3-.5h-.1c-3.2-.7-10-2.1-11.6-7.9-1.7-6,1.6-8.4,3.1-9.1,1-.5,2.4-.4,4.1-.2a32.51,32.51,0,0,0,3.3.2h.2c3.2,0,6,.1,10,.3H79a17.46,17.46,0,0,1,9.6,3.4c.2.1.4.1.5-.1s.1-.4-.1-.5h0a9.91,9.91,0,0,0-1.7-1.1H99.5a56.82,56.82,0,0,0,5.5,2.8A19.25,19.25,0,0,1,107.8,170.7Zm22.4-24.5c-.9-.9-2.8-.9-5.1-.8a41.8,41.8,0,0,1-5-.2c-4.3-.6-7.7-.9-7.8-.9-7.7-.2-13,.8-16.2,3.1h-28V33.4h64V146.1A5.92,5.92,0,0,0,130.2,146.2Zm3.3.1a2,2,0,0,0-.7-.1V32.6H67.3V148H95.2a9.31,9.31,0,0,0-2.6,4.1c-2,6.6,1.5,10.8,5.8,13.7H85.8a18.26,18.26,0,0,0-6.8-1.6h-.8c-4-.2-6.8-.3-10-.3h-.1c-2.5-1.8-3.8-4.8-3.8-8.9V24.6c0-.2-.1-4.7,2.8-7.7a10.52,10.52,0,0,1,7.7-2.8h50.6a11.94,11.94,0,0,1,5.8,1.5c2.9,1.7,4.4,4.7,4.4,8.9v122a5.32,5.32,0,0,1-2.1-.2Z"/><path class="cls-7" d="M209.5,215.2c.1-.1.2-.4,0-.5h0a.45.45,0,0,0-.5,0c-8.8,9.1-18.3,13.2-27.4,11.8a24.76,24.76,0,0,1-11.3-4.8l-2.1-1.9,1.5,2.4a21.5,21.5,0,0,0,6.3,5.7c3.7,2.4,9.8,5,18.8,5a17,17,0,0,0,2.2-.1.43.43,0,0,0,.4-.4h0a.43.43,0,0,0-.4-.4h0c-13.5.6-21.2-4.8-24.5-8.1a26.2,26.2,0,0,0,9,3.2C193.3,229.1,203.2,221.7,209.5,215.2Z"/><path class="cls-7" d="M198.6,252h0c.2,0,.4-.1.4-.3s1.8-8.4,12.7-16.8a.35.35,0,0,0,.1-.5h0a.35.35,0,0,0-.5-.1c-11.1,8.6-12.9,16.9-13,17.2s0,.5.3.5Z"/><path class="cls-7" d="M100,22.5a2.1,2.1,0,0,0,0-4.2,2,2,0,0,0-2,2.1h0A2.09,2.09,0,0,0,100,22.5Zm0-3.4a1.3,1.3,0,1,1-1.3,1.3h0a1.32,1.32,0,0,1,1.3-1.3Z"/><path class="cls-7" d="M106.8,24.5H93.2a1.76,1.76,0,0,0,0,3.5h13.6a1.76,1.76,0,0,0,0-3.5Zm0,2.8H93.2a1,1,0,0,1,0-2h13.6a1,1,0,0,1,0,2Z"/><g class="cls-8"><path class="cls-1" d="M62,36.6h73.2V146.4H62Zm44.1,92.7.8-.9.9-1c.4-.4.8-.9,1.2-1.3l.1-.1.6-.7c.2-.3.5-.5.7-.8l.5-.5c.2-.2.4-.5.7-.8l.7-.8.4-.5c.2-.2.4-.5.7-.8a4.62,4.62,0,0,1,.7-.7c.3-.2.3-.4.5-.6l.7-.8a4.62,4.62,0,0,1,.7-.7c.4-.4.7-.8,1.1-1.2l.7-.8.1-.1a4.62,4.62,0,0,1,.7-.7l.7-.8c.2-.2.3-.4.5-.5l.6-.7.7-.8.5-.5.8-.9.6-.7.2-.2a.22.22,0,0,0,.2-.2c.1-.1.2-.3.4-.4l.7-.7a.76.76,0,0,0,.2-.4,3.55,3.55,0,0,1,.2-1v-.6a.9.9,0,0,1,.1-.5l.2-1.6c.1-.4.1-.9.2-1.3s.1-.8.2-1.3.1-.9.2-1.3.1-.8.2-1.3a8.81,8.81,0,0,0,.2-1.7,11.27,11.27,0,0,1,.3-1.8l.2-1,.1-.8c.1-.4.1-.9.2-1.3s.1-.6.1-.9l.2-1,.1-.8c.1-.4.1-.9.2-1.3a2.49,2.49,0,0,0,.1-.8c.1-.4.1-.9.2-1.3a3.08,3.08,0,0,0,.1-.9c0-.3.1-.6.1-1a2.81,2.81,0,0,0,.1-.8c.1-.4.1-.9.2-1.3l.1-.8c.1-.5.1-.9.2-1.4,0-.3.1-.5.1-.8a1.61,1.61,0,0,0-.6-1.3,2.51,2.51,0,0,0-.7-.4l-6.2-2-10-3.3-5.7-1.9-4.2-1.4-1.4-.4a3.55,3.55,0,0,0-1-.2,2.92,2.92,0,0,0-.9.2l-.6.2c-.1,0-.1-.1-.1-.2a1.42,1.42,0,0,0-.2-.6c-.2-.5-.3-1.1-.5-1.6l-.6-1.9-.5-1.9c-.1-.3-.2-.5-.3-.8a1.29,1.29,0,0,0-1.5-.6l-1.3.3c-.6.2-1.2.3-1.8.5-1.1.3-2.3.6-3.4,1-.9.3-1.9.6-2.8.9-1.3.4-2.6.9-3.8,1.4l-3,1.2c-.6.2-1.1.5-1.7.7l-1.4.6-1.4.7-1,.5c-.3.1-.6.3-.9.4a1.78,1.78,0,0,0-.7.8,4.48,4.48,0,0,0-.1,1.1c.1.2.1.4.2.6.2.4.3.8.5,1.2.4,1,.8,2.1,1.2,3.1s.8,2,1.2,2.9a.35.35,0,0,0,.1.2l-.2.1a5.58,5.58,0,0,0-.8.5.93.93,0,0,0-.3,1.2l.1.1c.1.1.3.3.4.3l1.4.8.6.3c.1.1.2.2.2.3l.1.3.8,2c.3.8.7,1.6,1,2.4a15.87,15.87,0,0,1,.7,2c.1.4.2.9.3,1.3s.1.5.2.8.1.6.1,1v.6l-.2.1-.3.3a.79.79,0,0,0,.1,1.1l.1.1.2.1v14.8a.6.6,0,0,0-.1.4v.9a.47.47,0,0,0,.5.5.37.37,0,0,0,.3-.1l.1-.1,1.8-1.3c.1,0,.1-.1.2-.2a.22.22,0,0,1,.2-.2l2-1.5,2.2-1.6,2.6-1.9,3-2.2,1.5-1.3.4-.3.3.1,1.9.8,2.9,1.2,2.4,1,2.8,1.1.2.1v2c.1.9,0,1.9.1,2.8s0,1.9.1,2.9,0,1.9.1,2.8,0,1.9.1,2.9,0,1.9.1,2.9,0,2,.1,2.9,0,1.9.1,2.8v1a.37.37,0,0,1-.1.3.9.9,0,0,0-.1.5V131a.65.65,0,0,0,.6.6h.2c.1,0,.1-.1.2-.1.2-.2.3-.4.5-.6.4-.4.8-.9,1.2-1.3C106,129.8,106.1,129.6,106.1,129.3Z"/><path class="cls-9" d="M106.1,129.3a.76.76,0,0,1-.2.5c-.4.4-.8.9-1.2,1.3-.2.2-.3.4-.5.6s-.1.1-.2.1a.63.63,0,0,1-.8-.3v-1.4a.75.75,0,0,1,.1-.5.37.37,0,0,0,.1-.3v-1c-.1-.9,0-1.9-.1-2.8s0-2-.1-2.9,0-1.9-.1-2.9,0-1.9-.1-2.9,0-1.9-.1-2.8,0-1.9-.1-2.9,0-1.9-.1-2.8v-2l-.2-.1-2.9-1.1-2.4-1-2.9-1.2-1.9-.8-.3-.1-.4.3-1.8,1.3-3,2.2-2.6,1.9-2.2,1.6-2,1.5c-.1,0-.1.1-.2.2s-.1.1-.2.2L78,112.5l-.1.1a.48.48,0,0,1-.7-.1.37.37,0,0,1-.1-.3v-.9c0-.2,0-.3.1-.4V96.1L77,96a.69.69,0,0,1-.3-1,.1.1,0,0,1,.1-.1l.3-.3.2-.1v-.9c0-.3-.1-.6-.1-1a1.88,1.88,0,0,0-.2-.8c-.1-.4-.2-.9-.3-1.3a15.87,15.87,0,0,0-.7-2,24.43,24.43,0,0,0-1-2.4l-.8-2-.1-.3c0-.1-.1-.2-.2-.3l-.6-.3-1.4-.8a1.38,1.38,0,0,1-.4-.3.82.82,0,0,1,.1-1.2l.1-.1a5.58,5.58,0,0,0,.8-.5L73,80c0-.1,0-.2-.1-.2-.4-1-.8-2-1.2-2.9s-.8-2.1-1.2-3.1c-.2-.4-.3-.8-.5-1.2-.1-.2-.1-.4-.2-.6a1.38,1.38,0,0,1,.1-1.1,1.14,1.14,0,0,1,.7-.8,3.55,3.55,0,0,1,.9-.4l1-.5,1.4-.7,1.8-.5c.6-.2,1.1-.5,1.7-.7l3-1.2c1.3-.5,2.6-.9,3.8-1.4.9-.3,1.9-.6,2.8-.9,1.1-.3,2.3-.7,3.4-1,.6-.2,1.2-.3,1.8-.5l1.3-.3a1.29,1.29,0,0,1,1.5.6,1.14,1.14,0,0,1,.3.8l.5,1.9.6,1.9c.2.5.3,1.1.5,1.6.1.2.1.4.2.6a.35.35,0,0,0,.1.2l.5-.1c.3-.1.6-.1.9-.2a3.55,3.55,0,0,1,1,.2l1.4.5,4.2,1.4,5.7,1.9,10,3.3,6.2,2a1.84,1.84,0,0,1,1.3,1.7,2.2,2.2,0,0,1-.1.8c-.1.5-.1.9-.2,1.4l-.1.8c-.1.4-.1.9-.2,1.3a2.49,2.49,0,0,0-.1.8c0,.2-.1.6-.1,1s-.1.6-.1.9a6.88,6.88,0,0,1-.2,1.3c0,.3-.1.6-.1.8-.1.4-.1.9-.2,1.3l-.1.8-.2,1c0,.3-.1.6-.1.9s-.1.9-.2,1.3l-.1.8-.2,1-.3,1.8a9.85,9.85,0,0,0-.2,1.7,5.07,5.07,0,0,1-.2,1.3c-.1.5-.1.9-.2,1.3s-.1.8-.2,1.3-.1.9-.2,1.3l-.2,1.6a.9.9,0,0,1-.1.5v.6a3.55,3.55,0,0,1-.2,1,.52.52,0,0,1-.2.4l-.7.7c-.1.1-.2.3-.4.4l-.2.2a.22.22,0,0,0-.2.2l-.6.7-.8.9-.5.5-.7.8-.6.7-.5.5-.7.8a4.62,4.62,0,0,1-.7.7l-.1.1-.7.8c-.4.4-.7.8-1.1,1.2a4.62,4.62,0,0,1-.7.7l-.7.8c-.2.2-.3.4-.5.6a4.62,4.62,0,0,1-.7.7c-.3.2-.4.5-.7.8l-.4.5-.7.8c-.2.2-.4.5-.7.8l-.5.5a5.72,5.72,0,0,0-.7.8l-.6.7-.1.1c-.4.4-.8.9-1.2,1.3l-.9,1Zm17.5-19.6h0c.2-.1.3-.3.4-.4l.1-.1a.55.55,0,0,0,.3-.5v-.1c.1,0,.1-.1,0-.2v.2l-.3.6-.1.1a.78.78,0,0,0-.4.4h0c-.1.1-.2.2-.2.3h0a1.24,1.24,0,0,0,.2-.3Zm-1-.1h0l.3-.3c-.1.1-.3.2-.3.3Zm-43.5.9c.2,0,.3-.1.4-.3h0a1.38,1.38,0,0,0-.4.3ZM99.3,85.1l.2-.1,1.8-1.2,1.2-.8.2-.1-.2-.1-1.5-.3a2.08,2.08,0,0,0-1.1.1c-.1,0-.2.2-.2.3-.1.5-.2,1-.3,1.4,0,.2-.1.5-.1.8ZM97,70.1h-.1l-.7.2c-1.5.5-3,1-4.5,1.6-.5.2-1,.4-1.6.6-1.3.5-2.7,1-4,1.6l-1.8.8c-.5.2-1,.5-1.5.7s-1.2.6-1.8.9l-1.4.7-1.1.6-.7.4c-.4.2-.8.5-1.2.7-.7.4-1.3.8-2,1.2-.1,0-.1.1-.2.1a.44.44,0,0,1-.5-.1V80l-.3-.8a14.27,14.27,0,0,1-.8-2.2L72,75c-.4-.9-.7-1.9-1.1-2.8a1.39,1.39,0,0,1,0-.9,1.23,1.23,0,0,1,.7-1.1l1.4-.7,2-.9.7-.3.9-.4,1.3-.5L79,67l1.9-.7,1-.4c.4-.2.8-.3,1.3-.5l.8-.2c.4-.2.8-.3,1.3-.5a9.29,9.29,0,0,1,1.3-.4l1.8-.6c.8-.2,1.6-.5,2.4-.7s1.6-.5,2.4-.7l1.3-.3h-.8l-.3.1-1.9.5a5.73,5.73,0,0,0-1.4.4l-3,.9c-1,.3-1.9.6-2.8.9s-2,.6-2.9,1c-.5.2-.9.3-1.4.5a15.39,15.39,0,0,0-1.9.8l-1.5.6-1.6.6c-.6.3-1.2.5-1.9.8a3.55,3.55,0,0,1-.9.4l-1.2.6a1.6,1.6,0,0,0-.8,1.4,3.55,3.55,0,0,0,.2,1l1,2.4c.4,1,.8,1.9,1.1,2.9l.8,1.9a.35.35,0,0,0,.1.2c.2.1.4,0,.6.2v.2c-.1,0-.2-.1-.3-.1h-.2l-1,.6c-.1.1-.2.1-.2.2a.78.78,0,0,0-.2.8c0,.1.1.1.1.2s.3.3.4.3l1.7.9c.1,0,.2.1.3.2a6.73,6.73,0,0,1,1.1.7l.2.1c.1.1.2.1.4.2l.8.5,1.2.7,2,1.1,1.8,1,2,1.1,1.9,1c.6.3,1.3.7,1.9,1s1,.5,1.4.8h.1l1.2.7,1.9,1,1.8,1,2,1.1,1.8,1,1.8,1.2,1.5.8a2.19,2.19,0,0,1,1,.9,1.69,1.69,0,0,1,.2.5c0,.3.1.6.1.9v5.2c.1.4,0,.8.1,1.2v8.4c0,.9,0,1.9.1,2.9s0,1.9.1,2.8a26.15,26.15,0,0,1,0,2.8,26.2,26.2,0,0,0,.1,2.8v3.1a.1.1,0,0,0,.1.1.44.44,0,0,0,.5.1c.2-.1.2-.2.2-.4v-.6a6.6,6.6,0,0,0-.1-1.4V107.4a.76.76,0,0,1,.2-.4l1.4-1.1.8-.6,1.4-1.1.9-.7.7-.6,1-.8.8-.7,1-.8.8-.7.8-.7.9-.8,1-.9.5-.4c.2-.2.4-.3.6-.5l.6-.5.8-.7.8-.7.1-.1a4.35,4.35,0,0,1,.7-.6l.8-.7.1-.1.7-.6a6.47,6.47,0,0,1,.9-.8,3,3,0,0,0,.8-.8l.8-.7,1.2-1.2,1.4-1.4a4.62,4.62,0,0,0,.7-.7c.2-.1.3-.3.5-.5,0-.1-.1-.1-.1-.2a.6.6,0,0,0-.4-.1l-.3.3a1.38,1.38,0,0,1-.3.4l-.3.3a19.2,19.2,0,0,1-1.5,1.4,9.43,9.43,0,0,0-1,1,11.41,11.41,0,0,0-1.1,1.1h0l-1.1,1-.8.8h-.1l-.7.6-.7.6-.9.8-.1.1-.8.7-.1.1-.9.8-.8.7-.9.8-.6.5-.7.6c-.4.3-.7.6-1.1.9l-1.3,1-1.3,1.1-1,.8-2,1.5-1.7,1.3a.78.78,0,0,1-.8.2h0l.1.1c-.1.1-.2.3-.1.4v.5l-.1.1a.1.1,0,0,0-.1-.1V99.4a5.64,5.64,0,0,0-.4-1.2,3.32,3.32,0,0,0-1.4-1l-1.5-.8L99,95.6l-1.4-.7-2-1.1-.2-.1-1.8-1L92.4,92l-.8-.4c-.4-.2-.9-.5-1.3-.7a5.94,5.94,0,0,1-.8-.4L88,89.8,86.4,89l-1.6-.8-1.9-1-.8-.4c-.6-.3-1.2-.7-1.8-1l-1.2-.6-.9-.5-1.9-1c-.3-.2-.6-.3-.9-.5h-.1a9.22,9.22,0,0,0-.8-.5c-.2-.1-.3-.1-.5-.2-.4-.2-.7-.4-1.1-.6-.1,0-.1-.1-.2-.2v-.1c.2-.1.3-.2.5-.3l.5-.2.3-.3s0-.1.2-.1,0,.1,0,.1l-.1.2a.64.64,0,0,0,0,.6c.1.2.2.5.3.7s.1.2.2.3l.6.3a.14.14,0,0,0,.2,0v-.1c-.1-.4-.3-.7-.4-1.1l-.4-1c0-.1-.1-.1,0-.2a.37.37,0,0,0,.3-.1l.6-.3c.9-.5,1.8-1.1,2.8-1.6l.7-.4c.5-.3,1.1-.6,1.6-.9,1.2-.6,2.4-1.3,3.7-1.8.7-.3,1.3-.6,2-.9l2.3-1c.7-.3,1.5-.6,2.2-.9s1.1-.4,1.7-.6,1.4-.5,2.1-.8a18.94,18.94,0,0,1,1.8-.6c.2-.1.5-.1.7-.2s.1,0,.2-.1l.2-.2h.1c0,.2-.2.3-.2.4v.1l.4,1.3c.2.7.4,1.3.6,2l.8,2.9a14.16,14.16,0,0,1,.4,2c0,.2.1.4.1.7s.1.6.1.9v1.1c0,.3-.1.6-.1.9s-.2.8-.2,1.3l-.3,1.8v.1c.1,0,.2-.1.3-.2s.1-.2.2-.3l.3-1.4c.1-.3.1-.6.2-.9,0-.1.1-.2.2-.3a1.45,1.45,0,0,1,.7-.2,2.77,2.77,0,0,1,.9.1l1.4.3h.2a1.38,1.38,0,0,0,.4-.3l-.3-.1a12.86,12.86,0,0,1-1.9-.4,2,2,0,0,0-1.1,0l-.2.1c0,.3,0,.3-.2.4s0-.1,0-.2V79.5a3.55,3.55,0,0,0-.2-1,8.47,8.47,0,0,0-.4-1.7c-.2-.6-.3-1.2-.5-1.8a20.16,20.16,0,0,0-.7-2.3l-.6-2.2c0-.1-.1-.3-.1-.4a.3.3,0,0,0,.4,0l.4-.1a1.27,1.27,0,0,1,.6-.1,2.77,2.77,0,0,1,.9.1l7.4,2.5,10.2,3.4,7.2,2.4,2.3.8.7.3a1,1,0,0,1,.4,1c0,.3-.1.5-.1.8l-.2,1.4c-.1.4-.1.8-.2,1.3s-.2,1.3-.3,1.9a.9.9,0,0,0,.1.5v.1c0,.2.2.2.3.3,0-.1.1-.2.1-.3l.2-1.2.2-1.4c0-.3.1-.6.1-.9s.1-.6.1-.9a6.88,6.88,0,0,1,.2-1.3,1.23,1.23,0,0,0-.2-1,1.76,1.76,0,0,0-.4-.5,1.61,1.61,0,0,0-.7-.4L121,76.6,110.4,73,99.8,69.5a4.25,4.25,0,0,0-1.1-.2,3.08,3.08,0,0,0-1.3.3c-.1.1-.1.2-.2.3s-.1.1-.2.2Zm29.6,17.7-.1.1-.9.9c-.6.6-1.1,1.2-1.7,1.7l-.7.7-1,1L121,93.3l-.6.5-1,.9-.1.1a5,5,0,0,0-.8.7l-.7.7a1.76,1.76,0,0,1-.5.4L116,97.7l-1.3,1.2-.5.4-.6.5-.5.4-1.4,1.1c-.4.4-.9.7-1.3,1.1l-1.4,1.1-1.5,1.2-1.3,1c-.6.4-1.1.9-1.7,1.3l-.6.5v22.2c.3-.2.5-.6.9-.9l.2.2c.1-.1.2-.2.2-.3l.8-.9.1-.1c.2-.3.5-.5.7-.8l.8-.9h0l.7-.8.9-.9a2.2,2.2,0,0,0,.5-.6c.1-.2.5-.5.7-.8l.8-.9.5-.6a3,3,0,0,1,.8-.8l.8-.9.5-.6.7-.8,1-1.1,1.1-1.2,1-1.1,1.1-1.2,1-1.1,1-1.1,1.1-1.2a.52.52,0,0,0,.2-.4c0-.1,0-.3.1-.3l.5-.5a1.61,1.61,0,0,0,.5-1.1.86.86,0,0,1,.3-.6l.1-.1c1.2-6.5,2.1-13,3.1-19.5Zm-.2-1.1-.3-.1-1.2-.2-2.9-.6-2.7-.5-2.9-.6-2.6-.5-1.5-.3-2.9-.6-2.3-.5-1.9-.4-1.2-.2a.88.88,0,0,0-.7.1,1.76,1.76,0,0,0-.5.4,4.23,4.23,0,0,1-.7.5l-2.8,1.9c-.1.1-.1.1-.2.1s-.3.1-.4.2-.4.3-.6.5L96,87.2l-.9.6L93,89.3l-2,1.2-.7.4h0l1,.5,1,.5c.6.3,1.2.7,1.8,1l1.2.6.8.4,1.8,1,1.2.6.8.4,2,1.1.6.3c.1.1.3.2.4.3a2.84,2.84,0,0,1,.8,1.1,1.8,1.8,0,0,1,.2,1v5.6a.62.62,0,0,0,.7-.1c.5-.4,1.1-.8,1.6-1.2l1.2-.9,1.7-1.4c.6-.5,1.3-1,1.9-1.5l1.9-1.5,1.3-1.1.4-.3.8-.7.9-.8.6-.6a1.76,1.76,0,0,1,.5-.4l.6-.5.6-.5c.3-.3.7-.6,1-.9a7.47,7.47,0,0,1,1.3-1.1,6.28,6.28,0,0,0,1.2-1.1c.4-.4.9-.8,1.4-1.3s1.1-1.1,1.7-1.6l.6-.6.5-.5c-.1.2,0,.1.1,0Zm-36.3,4c2.8-1.7,5.6-3.3,8.3-5.1,0-.1,0-.2.1-.2.1-.4.1-.7.2-1.1.1-.8.3-1.6.4-2.3,0-.3.1-.5.1-.8V79.5c0-.3-.1-.7-.1-1a3.55,3.55,0,0,0-.2-1,9.29,9.29,0,0,0-.4-1.3c-.3-.9-.5-1.9-.8-2.8s-.5-1.7-.8-2.6c0-.1-.1-.2-.1-.3h-.2l-1.6.4-2.4.8-1.8.8c-.9.3-1.7.7-2.6,1l-1.6.7c-.6.2-1.1.5-1.6.7a13,13,0,0,0-1.7.8c-1.7.8-3.3,1.6-5,2.5-.7.4-1.5.8-2.2,1.2l-1.5.9c-.1,0-.1.1-.2.2l.1.3c.2.6.5,1.2.7,1.7a1,1,0,0,0,.4.5l.2.1a10.91,10.91,0,0,1,1.1.6l1.8,1,1.2.6.8.4,1.7.9,1.9,1,.9.5,1.8,1,1.2.6.8.4Zm36.4-4.2c.1,0,.3-.1.3-.2a.37.37,0,0,1,.1-.3c0-.3.1-.6.1-.9a6.88,6.88,0,0,1,.2-1.3l.2-1.3c.1-.7.2-1.3.3-2a1,1,0,0,0-.7-1.1l-.7-.3-9.6-3.2-9.9-3.4L102.3,71l-2.8-.9a1.7,1.7,0,0,0-.7-.1,2.66,2.66,0,0,0-1.2.3h0l.1.5c.2.5.3,1,.5,1.6l.4,1.4a8.33,8.33,0,0,1,.4,1.5c.1.5.3,1,.4,1.5a2.92,2.92,0,0,1,.2.9,5.85,5.85,0,0,1,.2,1.3,3.4,3.4,0,0,1,.1,1v1.6h.3a1.7,1.7,0,0,1,1,0l1.7.3a3.4,3.4,0,0,0,1,.1h.2l4.7.9,3,.6,3,.6,3.3.7,3,.6,3.1.6ZM97.2,69.8v-.2a8.33,8.33,0,0,1-.4-1.5,20.16,20.16,0,0,0-.7-2.3l-.7-2.4a4.18,4.18,0,0,0-.4-1,.67.67,0,0,0-.8-.3l-.5.1-2.4.8c-.3.1-.7.2-1,.3a21.72,21.72,0,0,0-2.4.7l-.9.3-1.2.4-.6.2-1.5.5h-.1l-1.2.4-.3.1-2.1.8c-.8.3-1.6.6-2.3.9s-1.4.6-2,.9l-1.8.8-1.4.7-.2.1-.8.4c-.1,0-.1.1-.2.1a1.13,1.13,0,0,0-.3,1.1,1.85,1.85,0,0,0,.2.7c.1.3.3.6.4.9.4.9.7,1.9,1.1,2.8l1.1,2.7.4,1c.1.1.1.3.3.3l.2-.1,1.1-.6c.4-.2.8-.5,1.2-.7.6-.3,1.2-.7,1.8-1s1.2-.7,1.8-1L84,75h.1l.9-.4.8-.3,1.5-.6c.8-.3,1.5-.6,2.3-.9s1.5-.6,2.2-.8,1.3-.5,1.9-.7l1.8-.6,1.3-.4A2.74,2.74,0,0,1,97.2,69.8Zm5.6,35.2v-4.9a1.27,1.27,0,0,0-.1-.6,2.34,2.34,0,0,0-1-1.2l-.6-.3-1.9-1-1.7-.9-.7-.4-1.5-.8-.9-.5-1.9-1-.7-.4-1.7-1-.3-.2-.6-.3H89l-1.2.8c-.6.3-1.2.7-1.8,1l-1.8,1-.8.4-1.9,1-.6.3v.1l21.7,8.7Zm-11.2-3.3-.2-.1-1-.4-2.4-1-3.4-1.4-3.3-1.4-2.4-1h-.3v.2a20.9,20.9,0,0,1-.1,2.5,19.22,19.22,0,0,0,0,2.4,19.27,19.27,0,0,1-.1,2.4c-.1.8,0,1.6-.1,2.4s0,1.6-.1,2.4v2c.4-.2.7-.5,1.1-.7l.2.2ZM89,91.4l-1.8-1-1.9-1-2-1.1-1.5-.8-.8-.4-1.4-.8c-.6-.3-1.1-.6-1.6-.9a2.51,2.51,0,0,1-.7-.4l-1.1-.6c-.1,0-.1-.1-.2-.1v.2l.4,1c.3.8.6,1.5.9,2.3a8.8,8.8,0,0,1,.5,1.5,24.54,24.54,0,0,1,.8,2.9c.1.4.1.7.2,1.1v2.1a13.36,13.36,0,0,0,1.8.7c.1-.1.2-.1.3-.2l1.6-.9a3,3,0,0,1,.8-.4l.7-.4,1.7-.9a10.91,10.91,0,0,0,1.1-.6l1.4-.8Zm35.4,16.1v-.3l.1-.8.2-1,.1-.8.2-1.3.2-1.3.2-1,.1-.8c0-.3.1-.7.1-1a6.88,6.88,0,0,1,.2-1.3l.2-1,.1-.8a3.08,3.08,0,0,0,.1-1,5.85,5.85,0,0,1,.2-1.3c.1-.4.1-.8.2-1.3l.2-1,.2-1c0-.3.1-.5.1-.8s.1-.6.1-1a7.77,7.77,0,0,0,.2-1.6v-.3c-.3.2-.4.5-.6.6-.1.3-.1.7-.2,1l-.2,1-.2,1.2c0,.3-.1.6-.1,1s-.1.6-.1.9a5.16,5.16,0,0,1-.2,1.1l-.1.9c0,.3-.1.6-.1.9s-.1.6-.1.9a6.88,6.88,0,0,1-.2,1.3,3.08,3.08,0,0,0-.1.9l-.2,1.3-.3,1.8-.1.4c0,.3-.1.6-.1.9s-.1.7-.1,1-.1.6-.1.9-.1.6-.1.9a5,5,0,0,1-.2,1.2v.1a1.27,1.27,0,0,1-.1.6.91.91,0,0,1-.3.7c-.1.2-.3.3-.4.5a2.7,2.7,0,0,0-.7.8h0l-.5.6-1,1.1-1.1,1.2-1.1,1.2-1,1.1-1,1.2-1,1.1-1.1,1.2-1,1.1-1,1.1-1,1.1-1.4,1.5-.1.1a6.47,6.47,0,0,1-.8.9l-.8.9c-.2.2-.3.4-.5.6-.4.4-.8.9-1.2,1.3l-1,1.1-.9.9a1,1,0,0,0-.4.5.37.37,0,0,0,.1.3h.1a5,5,0,0,0,.8-.7.71.71,0,0,1,.6-.3l.3-.3c.1-.1.4-.5.6-.7.3-.4.7-.7,1-1.1l1.2-1.3.5-.5.7-.8a4.62,4.62,0,0,1,.7-.7c.3-.2.3-.3.5-.5l.7-.8.7-.7.4-.5c.2-.2.4-.5.6-.7l.7-.8.5-.6.7-.8.7-.8.5-.6.8-.9.1-.1c.2-.2.4-.5.6-.7l.8-.8v-.1a5.72,5.72,0,0,1,.7-.8l.2-.2.7-.8.7-.7.5-.6c.3-.3.6-.7.9-1a.52.52,0,0,0,.2-.4.37.37,0,0,1,.1-.3c.2-.2.3-.4.5-.6a.1.1,0,0,1,.1-.1.52.52,0,0,0,.2-.4c.1-.2.1-.3.2-.5-.3.2-.2.1-.1,0Zm-21.6-2.2-.2-.1-2.5-1-2.7-1.1-3.7-1.5-3.2-1.3L87,98.9l-3.7-1.5-2-.8a4.88,4.88,0,0,1-.7-.3h-.1l-.9-.3c-.5-.2-.9-.4-1.4-.6l-.1-.1v-.1l.3-.1c.1,0,.1-.1.2-.1s-.2.2-.2.3l.3.1h0V94.1c0-.3-.1-.6-.1-.9a1.48,1.48,0,0,0-.1-.7,10.55,10.55,0,0,0-.6-2.4c-.2-.7-.5-1.4-.8-2.2-.2-.5-.4-.9-.6-1.4l-.7-2.1a.22.22,0,0,0-.2-.2l-.5-.3-.2-.1c0,.1.1.2.1.3a12.2,12.2,0,0,0,.7,1.7,14.27,14.27,0,0,1,.8,2.2c.2.6.5,1.2.7,1.7a10.55,10.55,0,0,1,.6,2.4A12.25,12.25,0,0,1,78,94v.1s.2.1.2.2l.3.3-.1.1-.4-.3a2.65,2.65,0,0,0-.6.5.45.45,0,0,0,0,.5c.1.1.2.3.3.3a1.49,1.49,0,0,0,.7.3c.2.1.4.1.6.2l2,.8,2.6,1.1,2,.8,1.8.7,2.7,1.1a14.17,14.17,0,0,1,1.8.8H92l.8.3.4.2,2.1.9,2.4,1,2.1.8,2.8,1.2h.1C102.9,105.8,102.9,105.5,102.8,105.3ZM78.3,111v-1.6c.1-.8,0-1.6.1-2.3s0-1.6.1-2.4,0-1.6.1-2.4,0-1.7.1-2.5,0-1.5.1-2.3v-.9a.37.37,0,0,0-.4-.4h-.2v1.3c0,1.1,0,2.2-.1,3.2s0,2.2,0,3.3v6.9c0,.1.1.1.2.1Zm13.5-9.3-.5.3-1.4,1-1.5,1.1-1.6,1.1-1.7,1.2-1.6,1.1-1.6,1.2-1.3,1-.7.5-.9.6c-.1.1-.2.1-.2.2s-.1.1,0,.2.2-.1.3-.1l.8-.5a.37.37,0,0,1,.3-.1l.2.1.2-.1c.2-.2.5-.3.7-.5l1.4-1,1.5-1.1,1.6-1.1,1.7-1.2,1.1-.8,1.9-1.4,1.7-1.2.1-.1ZM106,129.4l-.2.1-.7.8c-.1.1-.2.1-.2.2s-.2,0-.3-.1v-.3l-.2.2a.88.88,0,0,1-.7.1l-.2-.1v1.1a.49.49,0,0,0,.6.3c.1,0,.1-.1.2-.1l.1-.1.6-.7,1-1.1v-.3ZM80.1,110.7l-.2.2-.7.5a.37.37,0,0,1-.3.1c-.1,0-.3-.1-.3-.2h0v-.2l-.2.1a1.27,1.27,0,0,1-.6.1h-.1v.8c0,.1.1.2.3.2h.2a.22.22,0,0,0,.2-.2l1.1-.8.5-.3C80.1,110.9,80.2,110.8,80.1,110.7ZM72.8,81.6l1.2.6a3.58,3.58,0,0,0-.4-1.1A2.51,2.51,0,0,0,72.8,81.6Zm31.8,47.9h.1l.5-.6v-.1a4.35,4.35,0,0,0-.6.7Zm19.8-21.4Z"/><path class="cls-9" d="M126.6,87.8c-.9,6.5-1.9,12.9-2.8,19.4a.1.1,0,0,1-.1.1.6.6,0,0,0-.3.6,1.61,1.61,0,0,1-.5,1.1l-.5.5a.37.37,0,0,0-.1.3.76.76,0,0,1-.2.4l-1.1,1.1-1,1.1-1,1.1-1.1,1.2-1,1.1-1.1,1.2-1,1.1-.7.8-.5.6-.8.9a6,6,0,0,1-.8.8l-.5.6-.8.9c-.2.3-.5.5-.7.8a3.17,3.17,0,0,1-.5.6l-.9.9-.7.8h0l-.8.9c-.2.3-.5.5-.7.8l-.1.1-.8.9c-.1.1-.2.2-.2.3l-.2-.2c-.3.2-.5.6-.9.9v-16c-.1-1,0-2,0-3v-3.2l.6-.5c.6-.4,1.1-.9,1.7-1.3l1.3-1,1.5-1.2,1.4-1.1a12.67,12.67,0,0,0,1.3-1.1l1.4-1.1.5-.4.6-.5.5-.4,1.3-1.2,1.3-1.1c.2-.1.3-.3.5-.4l.7-.7c.3-.2.5-.5.8-.7l.1-.1,1-.9.6-.5,1.2-1.1,1-1,.7-.7a13.65,13.65,0,0,0,1.7-1.7l.9-.9Z"/><path class="cls-9" d="M126.4,86.8c0,.1-.1.1-.1.2l-.5.5-.6.6c-.6.5-1.1,1.1-1.7,1.6s-.9.9-1.4,1.3a13.07,13.07,0,0,0-1.2,1.1,6.89,6.89,0,0,1-1.3,1.1,4.5,4.5,0,0,0-1,.9l-.6.5-.6.5c-.2.1-.3.3-.5.4l-.6.6-.9.8-.8.7-.4.3L112.9,99l-1.9,1.5c-.6.5-1.3,1-1.9,1.5l-1.7,1.4-1.2.9c-.5.4-1.1.8-1.6,1.2a.62.62,0,0,1-.7.1V100a3.55,3.55,0,0,0-.2-1,4.44,4.44,0,0,0-.8-1.1c-.1-.1-.3-.2-.4-.3l-.6-.3-2-1.1-.8-.4L98,95l-1.8-1-.8-.4L94.2,93c-.6-.3-1.2-.7-1.8-1l-1-.5-1-.5h0l.7-.4,2-1.2L95.4,88l.9-.6,2.1-1.3a2.65,2.65,0,0,0,.6-.5.76.76,0,0,1,.4-.2c.1,0,.1-.1.2-.1l2.6-1.9a3,3,0,0,0,.7-.5,1.76,1.76,0,0,0,.5-.4.62.62,0,0,1,.7-.1l1.2.2,1.9.4,2.3.5,2.9.6,1.5.3,2.7.5,2.9.6,2.7.5,2.9.6,1.2.2Z"/><path class="cls-9" d="M90.1,90.8l-.9-.5-.8-.4-1.2-.6-1.8-1-.9-.5-1.9-1-1.7-.9-.8-.4-1.2-.7-1.8-1a10.91,10.91,0,0,1-1.1-.6l-.2-.1a1,1,0,0,1-.4-.5,8.65,8.65,0,0,0-.7-1.7l-.1-.3c0-.1.1-.1.2-.2l1.5-.9c.7-.4,1.4-.8,2.2-1.2,1.6-.9,3.3-1.7,5-2.5.6-.3,1.2-.5,1.7-.8a11.11,11.11,0,0,1,1.6-.7l1.6-.7c.8-.3,1.7-.7,2.6-1l1.8-.6,2.4-.8,1.6-.5H97c0,.1.1.2.1.3.3.9.5,1.7.8,2.6s.6,1.9.8,2.8c.1.4.3.9.4,1.3s.1.6.2,1a3.75,3.75,0,0,1,.1,1v1.7a2.2,2.2,0,0,1-.1.8c-.1.8-.3,1.5-.4,2.3-.1.4-.1.7-.2,1.1,0,.1,0,.2-.1.2C95.7,87.5,92.9,89.1,90.1,90.8Z"/><path class="cls-9" d="M126.5,86.6l-2.3-.5-3.1-.6-3-.6-3.3-.7-3-.6-3-.6-4.7-.9h-.2c-.3,0-.7-.1-1-.1-.6-.1-1.2-.2-1.7-.3a1.7,1.7,0,0,0-1,0h-.3V80.1a3.4,3.4,0,0,0-.1-1,5.85,5.85,0,0,1-.2-1.3c-.1-.3-.1-.6-.2-.9-.1-.5-.3-1-.4-1.5s-.3-1-.4-1.5l-.5-1.4c-.2-.5-.3-1.1-.5-1.6l-.1-.4h0a2.66,2.66,0,0,1,1.2-.3,1.7,1.7,0,0,1,.7.1l2.8.9,4.6,1.4,9.9,3.3,9.6,3.2.7.3a1.23,1.23,0,0,1,.7,1.1c-.1.7-.2,1.3-.3,2l-.2,1.3c-.1.4-.1.9-.2,1.3a3.08,3.08,0,0,0-.1.9.37.37,0,0,1-.1.3A.32.32,0,0,1,126.5,86.6Z"/><path class="cls-9" d="M97.2,69.8c-.1.1-.2.2-.3.2l-1.3.4-1.8.6c-.6.2-1.3.5-1.9.7s-1.5.6-2.2.8-1.5.6-2.3.9l-1.5.6-.9.5-.9.4H84l-3.3,1.7a16.18,16.18,0,0,0-1.8,1,16.18,16.18,0,0,1-1.8,1c-.4.2-.8.5-1.2.7l-1.1.6-.2.1c-.2,0-.2-.2-.3-.3l-.4-1L72.7,76c-.4-.9-.7-1.9-1.1-2.8a3.55,3.55,0,0,0-.4-.9,1.85,1.85,0,0,1-.2-.7,1.13,1.13,0,0,1,.3-1.1c0-.1.1-.1.2-.1l.8-.4.2-.1,1.4-.6,1.7-.8c.7-.3,1.3-.6,2-.9s1.6-.6,2.3-.9l2.2-.8.3-.1,1.2-.4h.1l1.4-.5.6-.2,1.2-.4.9-.3a21.72,21.72,0,0,1,2.4-.7c.3-.1.7-.2,1-.3l2.4-.7.5-.1a.63.63,0,0,1,.8.3,3.55,3.55,0,0,1,.4.9l.7,2.4a20.16,20.16,0,0,0,.7,2.3,8.33,8.33,0,0,1,.4,1.5C97.1,69.7,97.1,69.8,97.2,69.8Z"/><path class="cls-9" d="M102.8,105l-.2-.1L80.9,96.2v-.1l.6-.3,1.9-1,.8-.4,1.8-1c.6-.3,1.2-.7,1.8-1l1.2-.7.1-.1.6.3.3.2,1.7,1,.7.4,1.9,1,.9.5,1.5.8.7.4,1.7.9,1.9,1,.6.3a2,2,0,0,1,1,1.2,1.27,1.27,0,0,1,.1.6v2.6a15.48,15.48,0,0,1,.1,2.2Z"/><path class="cls-9" d="M91.6,101.7l-11.9,8.5-.2-.2c-.4.2-.7.5-1.1.7v-2c.1-.8,0-1.6.1-2.4s0-1.6.1-2.4,0-1.6.1-2.4a19.22,19.22,0,0,0,0-2.4,21.75,21.75,0,0,1,.1-2.5v-.2h.3l2.4,1,3.3,1.4,3.4,1.4,2.4,1,1,.4Z"/><path class="cls-9" d="M97.1,70.1l-.2.2a.35.35,0,0,1-.2.1c-.2.1-.5.1-.7.2l-1.8.6c-.6.2-1.4.5-2.1.8a17.72,17.72,0,0,1-1.7.6c-.7.3-1.5.6-2.2.9l-2.3,1c-.7.3-1.3.6-2,.9-1.3.6-2.5,1.2-3.7,1.8-.6.3-1.1.6-1.6.9l-.7.4c-.9.5-1.8,1-2.8,1.6l-.6.3a.37.37,0,0,1-.3.1v.2l.4,1a4.87,4.87,0,0,1,.4,1.1v.1c-.1.1-.1,0-.2,0l-.6-.3c-.1-.1-.2-.2-.2-.3s-.2-.5-.3-.7a.64.64,0,0,1,0-.6.35.35,0,0,1,.1-.2v-.1a.35.35,0,0,1-.2.1l-.3.3-.5.2c-.2.1-.3.2-.5.3v.1l.2.2a10.91,10.91,0,0,0,1.1.6c.2.1.3.2.5.2a2.18,2.18,0,0,1,.8.5H75c.3.2.6.3.9.5l1.9,1L79,85l1.2.6c.6.3,1.2.7,1.8,1l.8.4,1.9,1,1.5.8,1.6.8,1.5.8a5.9,5.9,0,0,0,.8.4c.4.2.9.5,1.3.7l.8.4,1.2.7,1.8,1,.2.1,2,1.1,1.4.7,1.6.8,1.5.8a3.48,3.48,0,0,1,1.3,1.1,2.14,2.14,0,0,1,.4,1.2v7.2c0,.1,0,.1.1.1l.1-.1v-.5a.6.6,0,0,1,.1-.4l-.1-.1h0a.78.78,0,0,0,.8-.2l1.6-1.2,2-1.5,1-.8,1.3-1.1,1.3-1c.4-.3.7-.6,1.1-.9l.7-.6.6-.5.9-.8.8-.7.9-.8.1-.1.8-.7.1-.1.9-.8.7-.6.7-.6h.1l.8-.8,1.1-1h0l1.1-1.1,1-1c.5-.4,1-1,1.5-1.4l.3-.3c.1-.1.3-.3.3-.4s.2-.2.3-.3.3,0,.4.1a.35.35,0,0,1,.1.2,1.21,1.21,0,0,1-.5.5,4.62,4.62,0,0,0-.7.7,18.48,18.48,0,0,1-1.4,1.4l-1.2,1.2-.8.7a6,6,0,0,0-.8.8,3.45,3.45,0,0,1-.9.8l-.7.6-.1.1-.8.7a4.35,4.35,0,0,1-.7.6l-.1.1-.8.7-.8.7-.6.5c-.2.2-.4.3-.6.5l-.5.4-1,.9-.9.8-.8.7-.8.7-1,.8-.8.7-1,.8-.7.6-.9.7-1.4,1.1-.8.6-1.4,1.1a.52.52,0,0,0-.2.4v20.2a6.6,6.6,0,0,0,.1,1.4v.6c0,.2,0,.3-.2.4a.44.44,0,0,1-.5-.1.1.1,0,0,0-.1-.1v-3.1c-.1-.9,0-1.9-.1-2.8a26.15,26.15,0,0,1,0-2.8,26.2,26.2,0,0,0-.1-2.8c-.1-.9,0-1.9-.1-2.9a24.3,24.3,0,0,1,0-2.7v-5.7c-.1-.4,0-.8-.1-1.2v-5.2a2.77,2.77,0,0,0-.1-.9.76.76,0,0,0-.2-.5,2.19,2.19,0,0,0-1-.9l-1.1-.9-1.9-1-1.8-1-2-1.1-1.8-1-1.9-1-1.2-.7h-.1c-.5-.3-1-.6-1.4-.8-.7-.3-1.3-.7-1.9-1l-1.9-1-2-1.1-1.8-1-2-1.1L77,84.9l-.8-.6c-.1-.1-.2-.1-.4-.2l-.1-.1a4.13,4.13,0,0,1-1.1-.7c-.1-.1-.2-.1-.3-.2l-1.7-.9a1.38,1.38,0,0,1-.4-.3c0-.1-.1-.1-.1-.2a.78.78,0,0,1,.2-.8c.1-.1.2-.1.2-.2l1-.6h.2a.37.37,0,0,1,.3.1l.1-.1c-.2-.2-.4-.1-.6-.2,0-.1-.1-.1-.1-.2l-.8-1.9c-.4-1-.8-1.9-1.1-2.9l-1-2.4a3.55,3.55,0,0,1-.2-1,1.42,1.42,0,0,1,.8-1.4l1.2-.6c.3-.1.6-.3.9-.4a10.84,10.84,0,0,1,1.9-.8l1.7-.7,1.5-.6c.6-.3,1.3-.5,1.9-.8s.9-.3,1.4-.5c1-.4,1.9-.7,2.9-1s1.9-.6,2.8-.9,2-.6,3-.9c.5-.1,1-.3,1.4-.4l1.9-.5.3-.1a.66.66,0,0,1,.6.1,3.08,3.08,0,0,0-1.3.3,21.72,21.72,0,0,0-2.4.7,21.72,21.72,0,0,1-2.4.7l-1.8.6c-.4.1-.9.3-1.3.4a6.94,6.94,0,0,0-1.3.5l-.8.2a11.22,11.22,0,0,0-1.3.5l-1,.4-2,.7-1.1.4-1.2.6-.9.4-.7.3-2,.9-1.4.7a1.55,1.55,0,0,0-.8,1.1,2.92,2.92,0,0,0,.2.9c.4.9.7,1.9,1.1,2.8l.7,1.9a14.27,14.27,0,0,1,.8,2.2l.3.8c0,.2.2.3.4.3h.1c.1,0,.1-.1.2-.1.7-.4,1.3-.8,2-1.2a7.46,7.46,0,0,0,1.2-.7l.7-.4,1-.5c.5-.2.9-.5,1.4-.7s1.2-.6,1.8-.9,1-.5,1.5-.7l1.8-.8c1.3-.6,2.6-1.1,4-1.6.5-.2,1-.4,1.6-.6,1.5-.6,3-1.1,4.5-1.6l1-.4Z"/><path class="cls-9" d="M89,91.4l-.8.4-1.4.8c-.4.2-.7.4-1.1.6l-1.6.9-.7.4a5.94,5.94,0,0,0-.8.4l-1.6.9c-.1.1-.2.1-.3.2a13.36,13.36,0,0,1-1.8-.7V93.2c0-.4-.1-.8-.1-1.2a14,14,0,0,0-.9-2.9,8.8,8.8,0,0,1-.5-1.5c-.3-.8-.6-1.5-.9-2.3l-.4-1v-.2c.1,0,.1,0,.2.1l1.1.6c.2.1.5.3.7.4.5.3,1.1.6,1.6.9l1.4.8.8.4,1.5.8,1.9,1.1,1.9,1Z"/><path class="cls-9" d="M97.1,70.1c.1-.1.1-.2.2-.2s.1-.2.2-.3a3.08,3.08,0,0,1,1.3-.3,4.25,4.25,0,0,1,1.1.2L110.5,73l10.2,3.4,6.5,2.2a1.61,1.61,0,0,1,.7.4,1,1,0,0,1,.4.5,1.8,1.8,0,0,1,.2,1c-.1.4-.1.9-.2,1.3a3.08,3.08,0,0,0-.1.9c0,.3-.1.6-.1.9l-.2,1.4-.2,1.2a.37.37,0,0,1-.1.3.27.27,0,0,1-.3-.3v-.1c-.2-.1-.1-.3-.1-.5.1-.6.2-1.3.3-1.9.1-.4.1-.8.2-1.3l.2-1.4c0-.3.1-.5.1-.8a1.07,1.07,0,0,0-.5-1.1l-.7-.3-2.3-.8-7.2-2.4L107,72.2,99.6,70a2.77,2.77,0,0,0-.9-.1,1.27,1.27,0,0,0-.6.1h-.4a.3.3,0,0,1-.4,0,.6.6,0,0,0,.1.4l.6,2.2a15.46,15.46,0,0,0,.7,2.3c.2.6.3,1.2.5,1.8a10.46,10.46,0,0,1,.4,1.7c.1.3.1.7.2,1v2.9c0,.1.1-.1.2-.4l.2-.1a2,2,0,0,1,1.1,0c.6.1,1.3.3,1.9.4l.3.1c-.1.1-.3.2-.4.3h-.2c-.5-.1-1-.2-1.4-.3a2.77,2.77,0,0,0-.9-.1,1.85,1.85,0,0,0-.7.2c-.1.1-.2.1-.2.3a2.92,2.92,0,0,1-.2.9L99.1,85c0,.1-.1.2-.2.3s-.2.2-.3.2v-.1l.3-1.8a5.07,5.07,0,0,0,.2-1.3c0-.5.1-.6.1-.9V80.3a2.77,2.77,0,0,0-.1-.9c0-.2-.1-.4-.1-.7a14.16,14.16,0,0,0-.4-2l-.8-2.8c-.2-.7-.4-1.3-.6-2l-.4-1.3v-.1c.1-.1.3-.2.3-.4Z"/><path class="cls-9" d="M124.4,107.5a2.09,2.09,0,0,0-.4.6c0,.2-.1.3-.2.5a.76.76,0,0,1-.2.4l-.1.1a2.65,2.65,0,0,1-.5.6.37.37,0,0,0-.1.3.4.4,0,0,1-.2.4,9,9,0,0,0-.9,1l-.5.6-.7.7-.7.8-.2.2a5.72,5.72,0,0,1-.7.8v.1l-.8.8c-.2.2-.4.5-.6.7l-.1.1-.5.8-.5.6-.7.8-.7.8-.5.6-.7.8c-.2.2-.4.5-.6.7l-.4.5-.7.7-.7.8c-.2.2-.3.4-.5.5s-.4.5-.7.7l-.7.8-.5.5-1.2,1.3c-.3.4-.7.7-1,1.1a4.35,4.35,0,0,0-.6.7c-.2.3-.2.2-.3.3-.3-.1-.4.1-.6.3a2.7,2.7,0,0,1-.8.7h-.1c-.1-.1,0-.2-.1-.3a1.76,1.76,0,0,1,.4-.5l.9-.9,1-1.1c.4-.4.8-.9,1.2-1.3.2-.2.3-.4.5-.6l.8-.9c.3-.3.5-.6.8-.9l.1-.1,1.4-1.5,1-1.1,1-1.1,1-1.1,1.1-1.2,1-1.1,1-1.2,1-1.1,1.1-1.2,1.1-1.2,1-1.1.5-.6h0a5.72,5.72,0,0,1,.7-.8c.1-.2.3-.3.4-.5s.2-.5.3-.7a1.27,1.27,0,0,0,.1-.6v-.1a5,5,0,0,0,.2-1.2c0-.3.1-.6.1-.9s.1-.6.1-.9.1-.7.1-1,.1-.6.1-.9l.1-.4.3-1.8L125,99c0-.3.1-.6.1-.9a6.88,6.88,0,0,1,.2-1.3,3.08,3.08,0,0,0,.1-.9c0-.3.1-.6.1-.9l.1-.9c.1-.3.1-.7.2-1.1a3.08,3.08,0,0,0,.1-.9c0-.3.1-.6.1-1l.2-1.2.2-1a3.55,3.55,0,0,1,.2-1c.2-.2.3-.5.6-.6v.3a7.77,7.77,0,0,0-.2,1.6c0,.3-.1.6-.1,1s-.1.5-.1.8l-.2,1-.2,1c-.1.4-.1.8-.2,1.3s-.1.9-.2,1.3a3.4,3.4,0,0,0-.1,1l-.1.8-.2,1c-.1.4-.1.9-.2,1.3a3.75,3.75,0,0,0-.1,1l-.1.8-.2,1-.2,1.3-.2,1.3-.1.8-.2,1,.1.6Z"/><path class="cls-9" d="M102.8,105.3a2.2,2.2,0,0,1,.1.8h-.1l-2.9-1.2-2.1-.8-2.4-1-2.1-.9-.4-.2-.8-.3H92a14.17,14.17,0,0,0-1.8-.8l-2.7-1.1-1.8-.7-2-.8-2.6-1.1-2-.8a1.42,1.42,0,0,0-.6-.2c-.2-.1-.5-.2-.7-.3l-.3-.3a.45.45,0,0,1,0-.5,1,1,0,0,1,.6-.5l.5.2.1-.1-.3-.3c0-.1-.2-.1-.2-.2v-.1a12.25,12.25,0,0,0-.2-1.9,21,21,0,0,0-.6-2.4,8.65,8.65,0,0,0-.7-1.7,14.27,14.27,0,0,1-.8-2.2,12.2,12.2,0,0,0-.7-1.7.37.37,0,0,0-.1-.3l.2.1.5.3c.1,0,.2.1.3.2l.8,2c.2.5.4.9.6,1.4a14.27,14.27,0,0,1,.8,2.2l.6,2.4a2,2,0,0,0,.1.7,2.77,2.77,0,0,1,.1.9v1.3h0l-.3-.1c.1-.1.2-.2.2-.3s-.2.1-.2.1l-.3.1v.1l.1.1c.5.2.9.4,1.4.6l.9.3H81a1.08,1.08,0,0,0,.7.3l2,.8,3.7,1.5,3.6,1.5,3.1,1.4,3.6,1.5,2.7,1.1,2.5,1Z"/><path class="cls-9" d="M78.3,110.9a.45.45,0,0,1-.5,0V100.7c0-1.1,0-2.2.1-3.2V96.2a.37.37,0,0,1,.5.2v1.1c-.1.8,0,1.5-.1,2.3s0,1.7-.1,2.5,0,1.6-.1,2.4,0,1.6-.1,2.4,0,1.6-.1,2.3v1.5C78.2,110.8,78.2,110.9,78.3,110.9Z"/><path class="cls-9" d="M91.8,101.7l.4.2-.1.1-1.7,1.2-1.9,1.4-1.1.8-1.7,1.2-1.6,1.1-1.5,1.1-1.4,1a3,3,0,0,1-.7.5l-.2.1-.2-.1c-.1,0-.2.1-.3.1l-.8.5a.37.37,0,0,1-.3.1c-.1-.1-.1-.1,0-.2l.2-.2.8-.5.7-.5,1.3-1,1.6-1.2,1.6-1.1,1.8-1.2,1.6-1.1,1.5-1.1,1.4-1Z"/><path class="cls-9" d="M99.3,85.1c0-.3.1-.6.1-.9.1-.5.2-1,.3-1.4,0-.1.1-.3.2-.3a2.08,2.08,0,0,1,1.1-.1l1.5.3.2.1-.2.1-1.2.8-1.8,1.2Z"/><path class="cls-9" d="M106,129.4c0,.1-.1.2-.1.3l-1,1.1-.6.7-.1.1c-.2.2-.5.2-.6,0a.35.35,0,0,1-.1-.2v-1.1l.2.1a.62.62,0,0,0,.7-.1l.2-.2v.2a.22.22,0,0,0,.2.2h.1c.1-.1.2-.1.2-.2l.7-.8Z"/><path class="cls-9" d="M80.1,110.7c0,.1-.1.2-.2.3l-.4.3-1.1.8c-.1.1-.2.1-.2.2H78c-.1,0-.2-.1-.3-.2v-.8h.1a.66.66,0,0,0,.6-.1l.2-.1a.14.14,0,0,1,0,.2c0,.1.1.2.3.2h0a.37.37,0,0,0,.3-.1l.7-.5Z"/><path class="cls-9" d="M72.8,81.6a5.58,5.58,0,0,1,.8-.5,3.58,3.58,0,0,1,.4,1.1A13.39,13.39,0,0,0,72.8,81.6Z"/><path class="cls-9" d="M104.6,129.5v-.1c.2-.2.3-.4.5-.6v.1l-.5.6C104.6,129.4,104.7,129.4,104.6,129.5Z"/><path class="cls-9" d="M124.3,108.6h0a.6.6,0,0,1-.3.6h0Z"/><path class="cls-9" d="M123.7,109.6a1.38,1.38,0,0,1,.3-.4h0a1.38,1.38,0,0,1-.3.4Z"/><path class="cls-9" d="M79.5,110.3a1.38,1.38,0,0,1-.4.3h0c.1-.2.2-.3.4-.3Z"/><path class="cls-9" d="M122.6,109.6c0-.1.1-.2.2-.3C122.9,109.4,122.9,109.4,122.6,109.6Z"/><path class="cls-9" d="M123.3,110a.22.22,0,0,1,.2-.2h0a.22.22,0,0,1-.2.2Z"/><path class="cls-9" d="M124.3,108.6v0Z"/><path class="cls-9" d="M124.4,108.1Z"/><path class="cls-9" d="M99.3,85.1Z"/><path class="cls-9" d="M124.1,109.2Z"/><path class="cls-9" d="M122.6,109.6Z"/><path class="cls-9" d="M122.6,109.6Z"/><path class="cls-9" d="M123.6,109.7Z"/><path class="cls-9" d="M123.6,109.7Z"/><path class="cls-9" d="M123.6,109.7Z"/><path class="cls-9" d="M123.3,110Z"/><path class="cls-9" d="M79.1,110.6Z"/></g><path class="cls-10" d="M130.2,146.2c-.9-.9-2.8-.9-5.1-.8a41.8,41.8,0,0,1-5-.2c-4.3-.6-7.7-.9-7.8-.9-7.7-.2-13,.8-16.2,3.1h-28V33.4h64V146.1A5.92,5.92,0,0,0,130.2,146.2Z"/></g><circle class="cls-6" cx="216.9" cy="32.7" r="9.1"/><path class="cls-6" d="M212.8,63.6a26,26,0,1,0-26-26,25.95,25.95,0,0,0,26,26"/><g class="cls-11"><path class="cls-12" d="M199.4,29.8a.43.43,0,0,1-.4-.4c0-.1.1-.2.2-.3l13.4-7.7a.37.37,0,0,1,.5.2.44.44,0,0,1-.1.5l-13.4,7.7h-.2"/><rect class="cls-1" x="199" y="21.4" width="14.1" height="8.5"/><path class="cls-12" d="M199.4,45.3c-.1,0-.3-.1-.3-.2a.44.44,0,0,1,.1-.5h0l26.7-15.5a.44.44,0,0,1,.5.1c.1.2.1.4-.1.5h0L199.6,45.1c-.1.1-.2.1-.2.2"/><rect class="cls-1" x="199" y="29.1" width="27.5" height="16.2"/><path class="cls-12" d="M226.1,29.8h-.2l-13.4-7.7a.38.38,0,0,1,.3-.7h.1l13.3,7.7c.2.1.2.3.1.5h0c0,.2-.1.2-.2.2"/><rect class="cls-1" x="212.3" y="21.4" width="14.1" height="8.5"/><path class="cls-12" d="M226.1,45.3h-.2L199.2,29.7c-.2-.1-.2-.3-.1-.5s.3-.2.5-.1h0l26.7,15.6c.2.1.2.3.1.5h0a.37.37,0,0,1-.3.1"/><rect class="cls-1" x="199" y="28.9" width="27.5" height="16.4"/><path class="cls-12" d="M212.7,53h-.2l-13.4-7.7c-.2-.1-.2-.3-.2-.5h0c.1-.2.3-.2.5-.1l13.4,7.7a.35.35,0,0,1,.1.5c.1.1,0,.2-.2.1"/><rect class="cls-1" x="199" y="44.5" width="14.1" height="8.5"/><path class="cls-12" d="M212.7,53c-.1,0-.3-.1-.3-.2a.44.44,0,0,1,.1-.5l13.3-7.7a.44.44,0,0,1,.5.1h0c.1.2.1.4-.1.5h0L212.9,53h-.2"/><rect class="cls-1" x="212.3" y="44.5" width="14.1" height="8.5"/><path class="cls-12" d="M199.4,45.3a.43.43,0,0,1-.4-.4h0V29.5a.4.4,0,0,1,.8,0h0V44.9c-.1.2-.2.4-.4.4h0"/><path class="cls-6" d="M226.1,45.3a.43.43,0,0,1-.4-.4h0V29.5a.4.4,0,0,1,.8,0h0V44.9c-.1.2-.2.4-.4.4h0"/><rect class="cls-12" x="225.7" y="29.1" width="0.8" height="16.2"/><path class="cls-6" d="M212.7,53a.43.43,0,0,1-.4-.4h0V21.7c0-.2.2-.4.4-.3a.32.32,0,0,1,.3.3V52.6c.1.2-.1.4-.3.4h0"/><rect class="cls-12" x="212.3" y="21.4" width="0.8" height="31.6"/></g><path class="cls-7" d="M216.9,24.7a.37.37,0,0,1-.3-.1L213,22.5l-3.6,2.1a.65.65,0,1,1-.7-1.1h0l3.9-2.2a.85.85,0,0,1,.7,0l3.9,2.2a.65.65,0,0,1,.2.9h0c0,.1-.3.3-.5.3"/><path class="cls-7" d="M213,42.3a.68.68,0,0,1-.7-.7V37.1a.7.7,0,1,1,1.4,0h0v4.5a.68.68,0,0,1-.7.7"/><path class="cls-7" d="M199.6,34.6a.68.68,0,0,1-.7-.7h0V29.4a.7.7,0,1,1,1.4,0h0v4.5a.68.68,0,0,1-.7.7h0"/><path class="cls-7" d="M226.4,34.6a.68.68,0,0,1-.7-.7h0V29.4a.7.7,0,0,1,1.4,0h0v4.5a.84.84,0,0,1-.7.7h0"/><path class="cls-7" d="M226.4,39.7h0a.68.68,0,0,1,.7.7v4.5a.68.68,0,0,1-.7.7h0a.68.68,0,0,1-.7-.7V40.4A.68.68,0,0,1,226.4,39.7Z"/><path class="cls-7" d="M199.6,45.6a.68.68,0,0,1-.7-.7V40.4a.7.7,0,0,1,1.4,0v4.5a.68.68,0,0,1-.7.7"/><path class="cls-7" d="M213,27.3a.68.68,0,0,1-.7-.7V21.7a.7.7,0,1,1,1.4,0h0v4.9a.68.68,0,0,1-.7.7"/><path class="cls-7" d="M213,53.3a.68.68,0,0,1-.7-.7V48.1a.7.7,0,1,1,1.4,0h0v4.5a.68.68,0,0,1-.7.7"/><path class="cls-7" d="M213,53.3a.37.37,0,0,1-.3-.1l-3.9-2.3a.65.65,0,0,1-.2-.9h0a.65.65,0,0,1,.9-.2h0l3.6,2.1,3.5-2a.65.65,0,0,1,.7,1.1h0l-3.9,2.2a.76.76,0,0,1-.4.1"/><path class="cls-7" d="M213,37.8a.37.37,0,0,1-.3-.1l-3.9-2.2a.65.65,0,1,1,.7-1.1h0l3.6,2,3.6-2.1a.65.65,0,0,1,.7,1.1l-3.9,2.2c-.3.2-.4.2-.5.2"/><path class="cls-7" d="M222.5,32.3a.68.68,0,0,1-.7-.7.71.71,0,0,1,.3-.6l3.9-2.3a.65.65,0,1,1,.7,1.1h0l-3.9,2.3c-.1.3-.2.3-.3.2"/><path class="cls-7" d="M226.4,30.1a.37.37,0,0,1-.3-.1l-3.9-2.3a.65.65,0,0,1,.7-1.1l3.9,2.2a.81.81,0,0,1,.3.9h0c-.3.3-.5.4-.7.4"/><path class="cls-7" d="M203.5,32.3a.37.37,0,0,1-.3-.1l-3.9-2.3a.65.65,0,0,1,.7-1.1h0l3.9,2.3a.65.65,0,0,1,.2.9.6.6,0,0,1-.6.3"/><path class="cls-7" d="M199.6,30.1a.71.71,0,0,1-.6-.3.65.65,0,0,1,.2-.9h0l3.9-2.2a.65.65,0,1,1,.7,1.1h0L200,30c-.1.1-.2.1-.4.1"/><path class="cls-7" d="M222.5,47.8a.68.68,0,0,1-.7-.7.71.71,0,0,1,.3-.6l3.9-2.2a.65.65,0,0,1,.7,1.1h0l-3.9,2.2c-.1.2-.2.2-.3.2"/><path class="cls-7" d="M226.4,45.6a.37.37,0,0,1-.3-.1l-3.9-2.2a.65.65,0,1,1,.7-1.1l3.9,2.2a.65.65,0,0,1,.2.9c-.2.1-.4.3-.6.3"/><path class="cls-7" d="M203.5,47.8a.37.37,0,0,1-.3-.1l-3.9-2.3a.65.65,0,0,1-.2-.9h0a.65.65,0,0,1,.9-.2l3.9,2.2a.65.65,0,0,1,.2.9h0a.55.55,0,0,1-.6.4"/><path class="cls-7" d="M199.6,45.6a.68.68,0,0,1-.7-.7.71.71,0,0,1,.3-.6l3.9-2.2a.65.65,0,1,1,.7,1.1h0l-3.9,2.2c0,.1-.1.2-.3.2"/></g></g></svg>