<svg id="Layer_1" data-name="Layer 1" xmlns="http://www.w3.org/2000/svg" xmlns:xlink="http://www.w3.org/1999/xlink" viewBox="0 0 900 61.83"><defs><style>.cls-1{isolation:isolate;}.cls-2{fill:#e31837;}.cls-3{fill:#fff;}.cls-4{fill:url(#linear-gradient);}</style><linearGradient id="linear-gradient" x1="-1518.51" y1="9794.27" x2="-1518.51" y2="10694.27" gradientTransform="matrix(0, 1, 1, 0, -9794.27, 1572.19)" gradientUnits="userSpaceOnUse"><stop offset="0" stop-color="#fff" stop-opacity="0"/><stop offset="0.29" stop-color="#eda5b1" stop-opacity="0.37"/><stop offset="0.59" stop-color="#dc546a" stop-opacity="0.71"/><stop offset="0.79" stop-color="#d2213e" stop-opacity="0.92"/><stop offset="0.9" stop-color="#ce0e2d"/></linearGradient></defs><g id="Layer_2" data-name="Layer 2"><g id="Layer_3" data-name="Layer 3"><g class="cls-1"><g class="cls-1"><path class="cls-2" d="M24.55,16.78h-4l-1,4.64h3.13v3.67H18.68L17.46,30.6h-4.1l1.22-5.51H8.42L7.2,30.6H3.13l1.23-5.51H1.12V21.42h4l1-4.64H3.1V13.07H7L8.21,7.56h4.07l-1.23,5.51h6.16l1.22-5.51h4.11l-1.23,5.51h3.24Zm-9.18,4.64,1.05-4.64H10.26l-1,4.64Z"/><path class="cls-2" d="M33.05,26.35H45.61V30.6H28.4V5.4h4.65Z"/><path class="cls-2" d="M53.6,5.4V30.6H48.85V5.4Z"/><path class="cls-2" d="M75.49,5.4h4.65V30.6H75.27L63.94,13.75h-.29V30.6H59V5.4h4.86l11.34,17h.29Z"/><path class="cls-2" d="M90.18,26.46h12.6V30.6H85.53V5.4h16.89V9.54H90.18V15.8h10.55v4H90.18Z"/><path class="cls-2" d="M127.26,5.4V20.84q0,4.93-2.85,7.53A10.61,10.61,0,0,1,117,31a10.81,10.81,0,0,1-7.52-2.59q-2.88-2.6-2.88-7.53V5.4h4.75V20.7A5.77,5.77,0,0,0,112.88,25,5.55,5.55,0,0,0,117,26.57,5.4,5.4,0,0,0,121,25a5.91,5.91,0,0,0,1.52-4.34V5.4Z"/><path class="cls-2" d="M142.7,5.4a8.47,8.47,0,0,1,6.14,2.21,7.72,7.72,0,0,1,2.29,5.78,7.63,7.63,0,0,1-2.33,5.85,8.75,8.75,0,0,1-6.24,2.18h-5.37V30.6h-4.6V5.4Zm-.61,11.88a4.32,4.32,0,0,0,3.1-1,3.79,3.79,0,0,0,1.08-2.85,3.74,3.74,0,0,0-1.08-2.81,4.15,4.15,0,0,0-3-1h-5v7.74Z"/><path class="cls-2" d="M171.79,9.76h-12.2v6.69h10.58v4.14H159.59v10h-4.76V5.4h17Z"/><path class="cls-2" d="M186.91,31a12.47,12.47,0,0,1-9.22-3.69A12.63,12.63,0,0,1,174,18a12.63,12.63,0,0,1,3.66-9.25,13.32,13.32,0,0,1,18.45,0A12.64,12.64,0,0,1,199.8,18a12.63,12.63,0,0,1-3.66,9.25A12.41,12.41,0,0,1,186.91,31Zm0-4.39a7.47,7.47,0,0,0,5.72-2.45A8.66,8.66,0,0,0,194.94,18a8.59,8.59,0,0,0-2.29-6.12,7.95,7.95,0,0,0-11.48,0A8.59,8.59,0,0,0,178.88,18a8.59,8.59,0,0,0,2.29,6.12A7.57,7.57,0,0,0,187,26.57Z"/><path class="cls-2" d="M223.16,30.6h-5l-5.25-9.83h-4.11V30.6h-4.64V5.4h10a8.41,8.41,0,0,1,5.94,2,7,7,0,0,1,2.2,5.39,7.3,7.3,0,0,1-4.86,7.09ZM208.76,9.43v7.31h4.79a3.92,3.92,0,0,0,2.86-1,3.49,3.49,0,0,0,1.06-2.64,3.46,3.46,0,0,0-1-2.67,4.11,4.11,0,0,0-2.88-1Z"/><path class="cls-2" d="M231.48,26.35H244V30.6H226.83V5.4h4.65Z"/><path class="cls-2" d="M252,5.4V30.6h-4.75V5.4Z"/><path class="cls-2" d="M273.92,5.4h4.65V30.6h-4.86L262.37,13.75h-.29V30.6h-4.65V5.4h4.86l11.34,17h.29Z"/><path class="cls-2" d="M288.72,5.4V30.6H284V5.4Z"/><path class="cls-2" d="M310.35,30.6l-2.05-6.08h-9.43l-2.05,6.08h-5.08l9-25.2h5.72l9,25.2Zm-10.18-10H307l-3.27-9.72h-.29Z"/></g><g class="cls-1"><path class="cls-3" d="M342,16.92h11.41V30.6h-3.78l-.47-2.41h-.29A10.15,10.15,0,0,1,341.31,31a11.25,11.25,0,0,1-8.66-3.51,12.84,12.84,0,0,1-3.26-9.09A13.34,13.34,0,0,1,333,8.8,12.09,12.09,0,0,1,342.17,5a11.88,11.88,0,0,1,7.56,2.27,8.85,8.85,0,0,1,3.42,5.79H348a5,5,0,0,0-2.09-2.7,6.78,6.78,0,0,0-3.71-1,7.25,7.25,0,0,0-5.76,2.5,9.49,9.49,0,0,0-2.16,6.43,8.81,8.81,0,0,0,2.05,6,7.11,7.11,0,0,0,5.62,2.32,8.4,8.4,0,0,0,4.84-1.29,4.23,4.23,0,0,0,1.89-3.71V20.63H342Z"/><path class="cls-3" d="M363.38,5.4V30.6h-4.76V5.4Z"/><path class="cls-3" d="M384.25,5.4h5.08l-8.6,25.2H375L366.4,5.4h5.11l6.26,18.83h.29Z"/><path class="cls-3" d="M397,26.46h12.6V30.6H392.35V5.4h16.89V9.54H397V15.8h10.55v4H397Z"/><path class="cls-3" d="M430.69,30.6l-2.05-6.08h-9.43l-2,6.08h-5.08l9-25.2h5.73l9,25.2Zm-10.18-10h6.84l-3.28-9.72h-.29Z"/><path class="cls-3" d="M463,5.4h4.57l-5.47,25.2h-5.25l-5-17.32h-.29l-4.9,17.32h-5.25L436,5.4h4.61l3.71,18.22h.28L449.27,7.2h5L459,23.62h.29Z"/><path class="cls-3" d="M486.42,30.6l-2.05-6.08h-9.43l-2.05,6.08h-5.08l9-25.2h5.72l9,25.2Zm-10.19-10h6.84l-3.27-9.72h-.29Z"/><path class="cls-3" d="M507,5.4h5.65l-9.07,14.08V30.6h-4.75V19.48L489.73,5.4h5.62L501,14.29h.29Z"/></g></g><polyline class="cls-4" points="862.22 61.83 0 61.83 0 45.52 900 45.52 900 61.83"/></g></g></svg>