<svg xmlns="http://www.w3.org/2000/svg" xmlns:xlink="http://www.w3.org/1999/xlink" viewBox="0 0 248.58 248.58"><defs><style>.cls-1{fill:none;}.cls-2{fill:#dadcdc;}.cls-3{fill:#e5e6e6;}.cls-4{clip-path:url(#clip-path);}.cls-5{fill:#d1d2d3;}.cls-6{fill:#fff;}.cls-7,.cls-8{fill:#808082;}.cls-8{font-size:21.28px;font-family:HelveticaNeue-CondensedBold, Helvetica Neue;font-weight:700;}</style><clipPath id="clip-path"><rect class="cls-1" y="24.38" width="248.58" height="225.62"/></clipPath></defs><g id="Layer_2" data-name="Layer 2"><g id="Layer_3" data-name="Layer 3"><polygon class="cls-2" points="136.95 52.49 105.56 52.49 105.56 21.1 118.48 21.1 118.48 14.17 105.56 14.17 98.63 14.17 98.63 21.1 98.63 52.49 98.63 59.42 105.56 59.42 136.95 59.42 143.88 59.42 143.88 52.49 143.88 40.9 136.95 40.9 136.95 52.49"/><polygon class="cls-2" points="127.93 24.29 119.97 32.24 125.81 38.08 133.76 30.12 138.53 34.89 144.38 13.66 123.16 19.53 127.93 24.29"/><rect class="cls-3" width="248.58" height="248.58"/><g class="cls-4"><path class="cls-5" d="M155.18,197.93,26.55,123.67a7,7,0,0,1,0-12.09L84.29,78.24a10,10,0,0,1,10,0L218.4,149.92a10,10,0,0,1,0,17.26l-53.26,30.75a10,10,0,0,1-10,0"/><path class="cls-6" d="M166,194.5a10.45,10.45,0,0,1-5.2-1.4L41.85,124.46a10.4,10.4,0,0,1,0-18L91.3,77.88a10.45,10.45,0,0,1,10.45,0l118.88,68.63a10.41,10.41,0,0,1,0,18L171.15,193.1a10.45,10.45,0,0,1-5.2,1.4"/><path class="cls-7" d="M220.85,146.13,102,77.5a10.88,10.88,0,0,0-10.89,0L41.63,106.05a10.84,10.84,0,0,0,0,18.78l118.9,68.64a10.79,10.79,0,0,0,10.84,0l49.48-28.56a10.84,10.84,0,0,0,0-18.78M91.52,78.25a10,10,0,0,1,10,0l113.21,65.36,2.83,1.64,2.83,1.64a13.75,13.75,0,0,1,.78.5l.06,0a5.2,5.2,0,0,1-.63,8.59l-49.68,28.69a10,10,0,0,1-10,0L42.18,116.13a5.42,5.42,0,0,1,0-9.39l1.79-1Zm128.89,85.91-49.47,28.57a10,10,0,0,1-10,0L42.06,124.08a10,10,0,0,1-2.34-15.41,5.88,5.88,0,0,0-.69,2.76A5.79,5.79,0,0,0,42,116.5l118.79,68.58a10.36,10.36,0,0,0,10.4,0l49.69-28.68a5.57,5.57,0,0,0,2.82-4.88,5.75,5.75,0,0,0-.46-2.27,10,10,0,0,1-2.79,14.91"/><path class="cls-7" d="M154.38,178.14a2.18,2.18,0,0,1-1.11-.3l-102.13-59a.87.87,0,0,1-.44-.77.85.85,0,0,1,.44-.76L107,85.1a2.25,2.25,0,0,1,2.22,0l102.13,59a.87.87,0,0,1,.44.77.86.86,0,0,1-.44.76l-55.85,32.24a2.18,2.18,0,0,1-1.11.3m-.89-.67a1.77,1.77,0,0,0,1.78,0l55.85-32.25a.44.44,0,0,0,.23-.38.46.46,0,0,0-.23-.4L109,85.47a1.82,1.82,0,0,0-1.78,0L51.36,117.72a.45.45,0,0,0,0,.79Z"/><path class="cls-7" d="M188.16,169.29a5.53,5.53,0,0,1-2.68-.61l-.43-.25a2,2,0,0,1-1.14-1.68,2.67,2.67,0,0,1,1.56-2.13l3.4-2a6.82,6.82,0,0,1,6.16-.24l.43.24a2,2,0,0,1,1.14,1.68,2.69,2.69,0,0,1-1.57,2.13l-3.4,2a7.14,7.14,0,0,1-3.47.86m4.18-7.07a6.65,6.65,0,0,0-3.25.82l-3.4,2a2.25,2.25,0,0,0-1.35,1.75,1.58,1.58,0,0,0,.92,1.3l.43.25a6.36,6.36,0,0,0,5.73-.25l3.4-2a2.25,2.25,0,0,0,1.34-1.75,1.55,1.55,0,0,0-.92-1.3l-.43-.25a5,5,0,0,0-2.47-.57"/><path class="cls-7" d="M71.09,95.92c.4.23.4.61,0,.83a1.59,1.59,0,0,1-1.44,0c-.4-.23-.41-.6,0-.83a1.59,1.59,0,0,1,1.44,0"/><path class="cls-7" d="M69.22,102.41a1.79,1.79,0,0,1-.86-.2l-.13-.07a.75.75,0,0,1-.41-.62.92.92,0,0,1,.54-.76l9.9-5.71A2.14,2.14,0,0,1,80.21,95l.12.08a.71.71,0,0,1,.41.62.92.92,0,0,1-.53.75l-9.9,5.72a2.26,2.26,0,0,1-1.09.27M79.35,95.2a1.77,1.77,0,0,0-.88.22l-9.9,5.72c-.2.11-.31.25-.31.38a.31.31,0,0,0,.19.24l.12.08a1.74,1.74,0,0,0,1.52-.08L80,96.05c.2-.12.32-.26.32-.38s-.12-.21-.2-.25L80,95.35a1.29,1.29,0,0,0-.64-.15"/><path class="cls-7" d="M194.55,176.41a.63.63,0,0,1-.33-.09,1,1,0,0,1-.43-.92,2.35,2.35,0,0,1,1-1.91l4.55-2.64a.79.79,0,0,1,.81,0,1,1,0,0,1,.42.91,2.37,2.37,0,0,1-1,1.92L195,176.27a1,1,0,0,1-.47.14m5.28-5.26a.53.53,0,0,0-.25.08L195,173.86a2,2,0,0,0-.79,1.54.64.64,0,0,0,.2.54.38.38,0,0,0,.38-.05l4.55-2.63a2,2,0,0,0,.8-1.54.64.64,0,0,0-.2-.54l-.13,0"/><path class="cls-7" d="M131.44,140a20.91,20.91,0,0,1-10.22-2.45c-2.78-1.59-4.3-3.74-4.3-6s1.51-4.38,4.24-6c5.58-3.22,14.7-3.2,20.32,0,2.77,1.6,4.3,3.74,4.3,6s-1.51,4.38-4.24,6a20.61,20.61,0,0,1-10.1,2.41m-.18-16.41a20.23,20.23,0,0,0-9.89,2.36c-2.59,1.49-4,3.48-4,5.58s1.45,4.13,4.09,5.65c5.5,3.18,14.42,3.19,19.88,0,2.6-1.5,4-3.49,4-5.59s-1.46-4.13-4.09-5.65a20.48,20.48,0,0,0-10-2.39"/><path class="cls-7" d="M131.41,137a13.4,13.4,0,0,1-6.6-1.58c-1.81-1-2.8-2.44-2.8-3.93s1-2.86,2.76-3.89a14.54,14.54,0,0,1,13.12,0c1.8,1,2.8,2.44,2.8,3.93s-1,2.87-2.76,3.9a13.32,13.32,0,0,1-6.52,1.55m-.12-10.53A12.94,12.94,0,0,0,125,128c-1.63,1-2.54,2.2-2.54,3.52s.92,2.6,2.59,3.56a14,14,0,0,0,12.68,0c1.65-.94,2.55-2.19,2.55-3.52s-.92-2.59-2.59-3.55a13,13,0,0,0-6.38-1.53"/><path class="cls-7" d="M131.38,134.62a7.39,7.39,0,0,1-3.65-.88,2.35,2.35,0,0,1,0-4.43,8,8,0,0,1,7.26,0,2.69,2.69,0,0,1,1.58,2.23,2.65,2.65,0,0,1-1.56,2.21,7.41,7.41,0,0,1-3.61.86m-.06-5.75a6.91,6.91,0,0,0-3.39.81,2.25,2.25,0,0,0-1.34,1.84,2.29,2.29,0,0,0,1.36,1.85,7.52,7.52,0,0,0,6.82,0,2.25,2.25,0,0,0,1.34-1.83,2.29,2.29,0,0,0-1.36-1.86,7,7,0,0,0-3.43-.82"/><path class="cls-6" d="M165.81,64.74H96.89a7.45,7.45,0,0,0-7.45,7.45v41a7.45,7.45,0,0,0,7.45,7.45h19.5a3.48,3.48,0,0,1,2.21.79l11.64,9.65a1.75,1.75,0,0,0,2.22,0l11.63-9.65a3.52,3.52,0,0,1,2.22-.79h19.5a7.46,7.46,0,0,0,7.45-7.45v-41a7.46,7.46,0,0,0-7.45-7.45"/><path class="cls-7" d="M131.34,131.89a2.2,2.2,0,0,1-1.38-.49l-11.64-9.65a3,3,0,0,0-1.93-.7H96.89A7.88,7.88,0,0,1,89,113.17v-41a7.89,7.89,0,0,1,7.88-7.89h68.92a7.9,7.9,0,0,1,7.88,7.89v41a7.89,7.89,0,0,1-7.88,7.88h-19.5a3,3,0,0,0-1.94.7l-11.64,9.65a2.17,2.17,0,0,1-1.39.49M96.89,65.17a7,7,0,0,0-7,7v41a7,7,0,0,0,7,7h19.5a3.92,3.92,0,0,1,2.49.9l11.64,9.65a1.3,1.3,0,0,0,1.66,0l11.64-9.65a3.9,3.9,0,0,1,2.49-.9h19.5a7,7,0,0,0,7-7v-41a7,7,0,0,0-7-7Z"/></g><text class="cls-8" transform="translate(104.19 102.66)">SHARE</text><path class="cls-7" d="M226.79,25.45a2.23,2.23,0,1,1,2.26-2.23,2.24,2.24,0,0,1-2.26,2.23M212.07,51.12a13.39,13.39,0,1,1,13.59-13.39,13.5,13.5,0,0,1-13.59,13.39m11.32-39.06H200.74A14.63,14.63,0,0,0,186,26.57V48.89A14.63,14.63,0,0,0,200.74,63.4h22.65a14.63,14.63,0,0,0,14.72-14.51V26.57a14.63,14.63,0,0,0-14.72-14.51"/><path class="cls-6" d="M226.79,25.45a2.23,2.23,0,1,1,2.26-2.23,2.24,2.24,0,0,1-2.26,2.23"/></g></g></svg>