<svg id="Layer_1" data-name="Layer 1" xmlns="http://www.w3.org/2000/svg" viewBox="0 0 900 35.04"><defs><style>.cls-1{fill:#e31837;}.cls-2{fill:#fff;}</style></defs><g id="Layer_3" data-name="Layer 3"><path class="cls-1" d="M24.55,16.78h-4l-1,4.64h3.13v3.67h-4L17.46,30.6h-4.1l1.22-5.51H8.42L7.2,30.6H3.13l1.23-5.51H1.12V21.42h4l1-4.64h-3V13.07H7L8.21,7.56h4.07l-1.23,5.51h6.16l1.22-5.51h4.11l-1.23,5.51h3.24Zm-9.18,4.64,1.05-4.64H10.26l-1,4.64Z"/><path class="cls-1" d="M33.05,26.35H45.61V30.6H28.4V5.4h4.65Z"/><path class="cls-1" d="M53.6,5.4V30.6H48.85V5.4Z"/><path class="cls-1" d="M75.49,5.4h4.65V30.6H75.27L63.94,13.75h-.29V30.6H59V5.4h4.86l11.34,17h.29Z"/><path class="cls-1" d="M90.18,26.46h12.6V30.6H85.53V5.4h16.89V9.54H90.18V15.8h10.55v4H90.18Z"/><path class="cls-1" d="M127.26,5.4V20.84q0,4.93-2.85,7.53A10.64,10.64,0,0,1,117,31a10.83,10.83,0,0,1-7.52-2.59q-2.88-2.6-2.88-7.53V5.4h4.75V20.7a5.78,5.78,0,0,0,1.53,4.3A5.55,5.55,0,0,0,117,26.57,5.43,5.43,0,0,0,121,25a5.92,5.92,0,0,0,1.52-4.34V5.4Z"/><path class="cls-1" d="M142.7,5.4a8.47,8.47,0,0,1,6.14,2.21,7.72,7.72,0,0,1,2.29,5.78,7.65,7.65,0,0,1-2.33,5.85,8.74,8.74,0,0,1-6.24,2.18h-5.37V30.6h-4.6V5.4Zm-.61,11.88a4.32,4.32,0,0,0,3.1-1,3.82,3.82,0,0,0,1.08-2.85,3.72,3.72,0,0,0-1.08-2.81,4.12,4.12,0,0,0-3-1h-5v7.74Z"/><path class="cls-1" d="M171.79,9.76h-12.2v6.69h10.58v4.14H159.59v10h-4.76V5.4h17Z"/><path class="cls-1" d="M186.91,31A12.61,12.61,0,0,1,174,18a12.64,12.64,0,0,1,3.66-9.25,13.32,13.32,0,0,1,18.45,0A12.65,12.65,0,0,1,199.8,18a12.64,12.64,0,0,1-3.66,9.25A12.44,12.44,0,0,1,186.91,31Zm0-4.39a7.49,7.49,0,0,0,5.72-2.45A8.66,8.66,0,0,0,194.94,18a8.61,8.61,0,0,0-2.29-6.12,8,8,0,0,0-11.24-.24l-.24.24A8.61,8.61,0,0,0,178.88,18a8.61,8.61,0,0,0,2.29,6.12A7.57,7.57,0,0,0,187,26.57Z"/><path class="cls-1" d="M223.16,30.6h-5l-5.25-9.83H208.8V30.6h-4.64V5.4h10a8.42,8.42,0,0,1,5.94,2,7,7,0,0,1,2.2,5.39,7.3,7.3,0,0,1-4.86,7.09ZM208.76,9.43v7.31h4.79a4,4,0,0,0,2.86-1,3.49,3.49,0,0,0,1.06-2.64,3.45,3.45,0,0,0-1-2.67,4.11,4.11,0,0,0-2.88-1Z"/><path class="cls-1" d="M231.48,26.35H244V30.6H226.83V5.4h4.65Z"/><path class="cls-1" d="M252,5.4V30.6h-4.75V5.4Z"/><path class="cls-1" d="M273.92,5.4h4.65V30.6h-4.86L262.37,13.75h-.29V30.6h-4.65V5.4h4.86l11.34,17h.29Z"/><path class="cls-1" d="M288.72,5.4V30.6H284V5.4Z"/><path class="cls-1" d="M310.35,30.6l-2.05-6.08h-9.43l-2.05,6.08h-5.08l9-25.2h5.72l9,25.2Zm-10.18-10H307l-3.27-9.72h-.29Z"/><path class="cls-2" d="M342,16.92h11.41V30.6h-3.78l-.47-2.41h-.29A10.14,10.14,0,0,1,341.31,31a11.25,11.25,0,0,1-8.66-3.51,12.82,12.82,0,0,1-3.26-9.09A13.38,13.38,0,0,1,333,8.8,12.11,12.11,0,0,1,342.17,5a11.84,11.84,0,0,1,7.56,2.27,8.82,8.82,0,0,1,3.42,5.79H348a5,5,0,0,0-2.09-2.7,6.81,6.81,0,0,0-3.71-1,7.28,7.28,0,0,0-5.76,2.5,9.45,9.45,0,0,0-2.16,6.43,8.85,8.85,0,0,0,2.05,6A7.08,7.08,0,0,0,342,26.61a8.42,8.42,0,0,0,4.84-1.29,4.24,4.24,0,0,0,1.89-3.71v-1H342Z"/><path class="cls-2" d="M363.38,5.4V30.6h-4.76V5.4Z"/><path class="cls-2" d="M384.25,5.4h5.08l-8.6,25.2H375L366.4,5.4h5.11l6.26,18.83h.29Z"/><path class="cls-2" d="M397,26.46h12.6V30.6H392.35V5.4h16.89V9.54H397V15.8h10.55v4H397Z"/><path class="cls-2" d="M430.69,30.6l-2.05-6.08h-9.43l-2,6.08h-5.08l9-25.2h5.73l9,25.2Zm-10.18-10h6.84l-3.28-9.72h-.29Z"/><path class="cls-2" d="M463,5.4h4.57L462.1,30.6h-5.25l-5-17.32h-.29l-4.9,17.32h-5.25L436,5.4h4.61l3.71,18.22h.28L449.27,7.2h5L459,23.62h.29Z"/><path class="cls-2" d="M486.42,30.6l-2.05-6.08h-9.43l-2.05,6.08h-5.08l9-25.2h5.72l9,25.2Zm-10.19-10h6.84l-3.27-9.72h-.29Z"/><path class="cls-2" d="M507,5.4h5.65l-9.07,14.08V30.6h-4.75V19.48L489.73,5.4h5.62L501,14.29h.29Z"/></g></svg>