<svg id="Layer_1" data-name="Layer 1" xmlns="http://www.w3.org/2000/svg" viewBox="0 0 27.41 27.89"><defs><style>.cls-1{fill:none;stroke:#fff;stroke-miterlimit:10;stroke-width:0.95px;}.cls-2{fill:#fff;}</style></defs><ellipse class="cls-1" cx="13.71" cy="13.95" rx="13.23" ry="13.47"/><g id="Linkedin"><path class="cls-2" d="M15,12.84a2.75,2.75,0,0,1,1.82-1.11A2.92,2.92,0,0,1,20.05,14c0,.36.18.73.18,1.1v4.06c0,.19,0,.37-.36.37h-2c-.36,0-.36,0-.36-.37V14.68a1.85,1.85,0,0,0-.72-.92,1.21,1.21,0,0,0-1.45.55,3.23,3.23,0,0,0-.37.93v4.24H12.62c-.18,0-.18,0-.18-.18V12.1c0-.18,0-.18.18-.18h2c.18,0,.36,0,.36.36Z"/><path class="cls-2" d="M11.17,15.61v3.5c0,.19,0,.37-.36.37h-2c-.18,0-.36,0-.36-.37V11.92c0-.19,0-.37.36-.37h2a.39.39,0,0,1,.36.37Z"/><path class="cls-2" d="M11.35,9.52A1.41,1.41,0,0,1,9.9,10.81,1.25,1.25,0,0,1,8.63,9.52c-.18-.93.54-1.29,1.45-1.29A1.15,1.15,0,0,1,11.35,9.52Z"/></g></svg>