<svg id="Layer_1" data-name="Layer 1" xmlns="http://www.w3.org/2000/svg" viewBox="0 0 481.89 198.43"><defs><style>.cls-1{fill:#fff;stroke:#fff;}</style></defs><path class="cls-1" d="M256,175.61c25.56,0,46.28-22.12,46.28-46.27h0v-37a9.26,9.26,0,1,0-18.51,0v3.07H277.6V80a9.26,9.26,0,1,0-18.51,0v9.21h-6.17V73.86a9.26,9.26,0,0,0-18.51,0V95.42h-6.17V30.67a9.26,9.26,0,0,0-18.51,0v69.68C197,86.78,180.28,71.84,173.43,78.73s10.58,25.32,34.71,65.93C219,163,232.77,175.61,256,175.61Zm52.44-46.27A52.44,52.44,0,0,1,256,181.78h0c-19.2,0-39.47-9-53.42-34.37-20.13-36.68-45.88-60.73-33.62-73,8.77-8.77,22.54-.36,34.6,10.92h0V30.69a15.43,15.43,0,1,1,30.85,0V61.48A15.45,15.45,0,0,1,256,64.63a15.15,15.15,0,0,1,2.1,3.85A15.41,15.41,0,0,1,283.73,80v.08A15.44,15.44,0,0,1,308.4,92.42v36.93Z"/><path class="cls-1" d="M145.2,102.32h-89V82.62c.11-3.12-2.9-4.13-5.86-1.91l-49,36.62a3,3,0,0,0-.84,4.16,3.05,3.05,0,0,0,.84.84l48.45,36.28c3,2.31,6.44,1.57,6.32-1.57V137.31h89c2.58,0,4.68-1.58,4.68-3.5v-28C149.88,103.89,147.77,102.32,145.2,102.32Zm-.31,30.34h-94v19.6L7.59,119.8,50.93,87.34v19.58h94Z"/><path class="cls-1" d="M332,105.82v28c0,1.92,2.11,3.5,4.68,3.5h89V157c-.12,3.14,3.35,3.88,6.32,1.57l48.45-36.28a3,3,0,0,0,.84-4.16,3.05,3.05,0,0,0-.84-.84L431.6,80.7c-3-2.22-6-1.21-5.86,1.91v19.71h-89C334.12,102.32,332,103.89,332,105.82Zm5,1.1h94V87.34l43.3,32.46L431,152.26v-19.6H337Z"/></svg>