<svg id="Layer_1" data-name="Layer 1" xmlns="http://www.w3.org/2000/svg" viewBox="0 0 27.87 28.36"><defs><style>.cls-1{fill:none;stroke:#fff;stroke-miterlimit:10;stroke-width:0.95px;}.cls-2{fill:#fff;fill-rule:evenodd;}</style></defs><ellipse class="cls-1" cx="13.93" cy="14.18" rx="13.46" ry="13.71"/><path class="cls-2" d="M17.07,9.3a2.35,2.35,0,0,1,2,.94,2.1,2.1,0,0,0,1.29-.57.67.67,0,0,0,.37-.18,2.43,2.43,0,0,1-.93,1.31c-.18,0-.18.19-.36.19h0c.55,0,1.1-.38,1.47-.38h0A4.81,4.81,0,0,1,20,11.74c-.19.19-.37.19-.37.38a4.87,4.87,0,0,1-.18,1.69c-.74,3.19-2.4,5.06-5.35,5.82a6.21,6.21,0,0,1-3.69.18A11.18,11.18,0,0,1,9,19.25c-.37-.19-.56-.38-.93-.38H9.88a5.72,5.72,0,0,0,1.47-.56c0-.19.37-.37.56-.56a1.65,1.65,0,0,1-.93-.19,3.81,3.81,0,0,1-1.47-1.88c.37,0,1.11.19,1.11,0-.37,0-.56-.19-.93-.37a2.43,2.43,0,0,1-1.1-2.26c.18,0,.18.19.37.19s.37.19.55.19h.37c-.19-.19-.37-.38-.55-.38a2.77,2.77,0,0,1-.74-2.44c0-.37.37-.56.37-.75H9c0,.19.18.19.18.38a1,1,0,0,0,.92.56,8.4,8.4,0,0,0,3.14,1.69,2.65,2.65,0,0,0,1.1.19,2.36,2.36,0,0,1,0-1.13,2,2,0,0,1,1.48-1.69c.18,0,.37-.19.55-.19C16.7,9.3,16.88,9.3,17.07,9.3Z"/></svg>