{
  "accessors": [
    {
      "bufferView": 0,
      "componentType": 5125,
      "count": 3156,
      "type": "SCALAR"
    },
    {
      "bufferView": 1,
      "componentType": 5126,
      "count": 883,
      "max": [
        0.152398556470871,
        0.152398556470871,
        1.04090392589569
      ],
      "min": [
        -0.15239854156971,
        -0.152398556470871,
        -0.000496149063110352
      ],
      "type": "VEC3"
    },
    {
      "bufferView": 2,
      "componentType": 5126,
      "count": 883,
      "type": "VEC3"
    },
    {
      "bufferView": 3,
      "componentType": 5126,
      "count": 883,
      "type": "VEC2"
    }
  ],
  "asset": {
    "generator": "Substance Painter 6.2.1",
    "version": "2.0"
  },
  "bufferViews": [
    {
      "buffer": 0,
      "byteLength": 12624,
      "target": 34963
    },
    {
      "buffer": 0,
      "byteLength": 10596,
      "byteOffset": 12624,
      "target": 34962
    },
    {
      "buffer": 0,
      "byteLength": 10596,
      "byteOffset": 23220,
      "target": 34962
    },
    {
      "buffer": 0,
      "byteLength": 7064,
      "byteOffset": 33816,
      "target": 34962
    }
  ],
  "buffers": [
    {
      "byteLength": 40880,
      "uri": "Helio_Bollard_SEC_M50.bin"
    }
  ],
  "images": [
    {
      "uri": "Helio_Bollard_SEC_M50_baseColor.png"
    },
    {
      "uri": "Helio_Bollard_SEC_M50_occlusionRoughnessMetallic.png"
    },
    {
      "uri": "Helio_Bollard_SEC_M50_normal.png"
    },
    {
      "uri": "Helio_Bollard_SEC_M50_emissive.png"
    }
  ],
  "materials": [
    {
      "alphaMode": "OPAQUE",
      "emissiveFactor": [
        1.0,
        1.0,
        1.0
      ],
      "emissiveTexture": {
        "index": 3
      },
      "name": "Helio_Bollard_SEC_M50",
      "normalTexture": {
        "index": 2
      },
      "occlusionTexture": {
        "index": 1
      },
      "pbrMetallicRoughness": {
        "baseColorTexture": {
          "index": 0
        },
        "metallicRoughnessTexture": {
          "index": 1
        }
      }
    }
  ],
  "meshes": [
    {
      "name": "Helio_Bollard_SEC_M50",
      "primitives": [
        {
          "attributes": {
            "NORMAL": 2,
            "POSITION": 1,
            "TEXCOORD_0": 3
          },
          "indices": 0,
          "material": 0,
          "mode": 4
        }
      ]
    }
  ],
  "nodes": [
    {
      "children": [
        1
      ],
      "name": "RootNode"
    },
    {
      "children": [
        2
      ],
      "name": "Helio_Bollard_SEC_M50",
      "rotation": [
        -0.70710676908493,
        0.0,
        0.0,
        0.70710676908493
      ]
    },
    {
      "mesh": 0,
      "name": "Helio_Bollard_SEC_M50"
    }
  ],
  "samplers": [
    {
      "magFilter": 9729,
      "minFilter": 9985,
      "wrapS": 10497,
      "wrapT": 10497
    }
  ],
  "scene": 0,
  "scenes": [
    {
      "name": "Scene",
      "nodes": [
        0
      ]
    }
  ],
  "textures": [
    {
      "sampler": 0,
      "source": 0
    },
    {
      "sampler": 0,
      "source": 1
    },
    {
      "sampler": 0,
      "source": 2
    },
    {
      "sampler": 0,
      "source": 3
    }
  ]
}