{
  "accessors": [
    {
      "bufferView": 0,
      "componentType": 5125,
      "count": 123309,
      "type": "SCALAR"
    },
    {
      "bufferView": 1,
      "componentType": 5126,
      "count": 32017,
      "max": [
        0.320549011230469,
        0.295430064201355,
        0.836406648159027
      ],
      "min": [
        -0.320549577474594,
        -0.294916301965714,
        -9.07182693481445e-05
      ],
      "type": "VEC3"
    },
    {
      "bufferView": 2,
      "componentType": 5126,
      "count": 32017,
      "type": "VEC3"
    },
    {
      "bufferView": 3,
      "componentType": 5126,
      "count": 32017,
      "type": "VEC2"
    }
  ],
  "asset": {
    "generator": "Substance Painter 6.2.2",
    "version": "2.0"
  },
  "bufferViews": [
    {
      "buffer": 0,
      "byteLength": 493236,
      "target": 34963
    },
    {
      "buffer": 0,
      "byteLength": 384204,
      "byteOffset": 493236,
      "target": 34962
    },
    {
      "buffer": 0,
      "byteLength": 384204,
      "byteOffset": 877440,
      "target": 34962
    },
    {
      "buffer": 0,
      "byteLength": 256136,
      "byteOffset": 1261644,
      "target": 34962
    }
  ],
  "buffers": [
    {
      "byteLength": 1517780,
      "uri": "Factor_Chair_Armed_Perforated.bin"
    }
  ],
  "images": [
    {
      "uri": "Factor_Chair_Armed_Perforated_baseColor.png"
    },
    {
      "uri": "Factor_Chair_Armed_Perforated_occlusionRoughnessMetallic.png"
    },
    {
      "uri": "Factor_Chair_Armed_Perforated_normal.png"
    }
  ],
  "materials": [
    {
      "alphaMode": "OPAQUE",
      "name": "Factor_Chair_Armed_Perforated",
      "normalTexture": {
        "index": 2
      },
      "occlusionTexture": {
        "index": 1
      },
      "pbrMetallicRoughness": {
        "baseColorTexture": {
          "index": 0
        },
        "metallicRoughnessTexture": {
          "index": 1
        }
      }
    }
  ],
  "meshes": [
    {
      "name": "Factor_Chair_Armed_Perforated",
      "primitives": [
        {
          "attributes": {
            "NORMAL": 2,
            "POSITION": 1,
            "TEXCOORD_0": 3
          },
          "indices": 0,
          "material": 0,
          "mode": 4
        }
      ]
    }
  ],
  "nodes": [
    {
      "children": [
        1
      ],
      "name": "RootNode"
    },
    {
      "children": [
        2
      ],
      "name": "Factor_Chair_Armed_Perforated",
      "rotation": [
        -0.70710676908493,
        0.0,
        0.0,
        0.70710676908493
      ]
    },
    {
      "mesh": 0,
      "name": "Factor_Chair_Armed_Perforated"
    }
  ],
  "samplers": [
    {
      "magFilter": 9729,
      "minFilter": 9985,
      "wrapS": 10497,
      "wrapT": 10497
    }
  ],
  "scene": 0,
  "scenes": [
    {
      "name": "Scene",
      "nodes": [
        0
      ]
    }
  ],
  "textures": [
    {
      "sampler": 0,
      "source": 0
    },
    {
      "sampler": 0,
      "source": 1
    },
    {
      "sampler": 0,
      "source": 2
    }
  ]
}