{
  "accessors": [
    {
      "bufferView": 0,
      "componentType": 5125,
      "count": 12786,
      "type": "SCALAR"
    },
    {
      "bufferView": 1,
      "componentType": 5126,
      "count": 3291,
      "max": [
        0.533388316631317,
        0.53338885307312,
        0.723772764205933
      ],
      "min": [
        -0.533389389514923,
        -0.53338885307312,
        1.19209289550781e-07
      ],
      "type": "VEC3"
    },
    {
      "bufferView": 2,
      "componentType": 5126,
      "count": 3291,
      "type": "VEC3"
    },
    {
      "bufferView": 3,
      "componentType": 5126,
      "count": 3291,
      "type": "VEC2"
    }
  ],
  "asset": {
    "generator": "Substance Painter 6.2.2",
    "version": "2.0"
  },
  "bufferViews": [
    {
      "buffer": 0,
      "byteLength": 51144,
      "target": 34963
    },
    {
      "buffer": 0,
      "byteLength": 39492,
      "byteOffset": 51144,
      "target": 34962
    },
    {
      "buffer": 0,
      "byteLength": 39492,
      "byteOffset": 90636,
      "target": 34962
    },
    {
      "buffer": 0,
      "byteLength": 26328,
      "byteOffset": 130128,
      "target": 34962
    }
  ],
  "buffers": [
    {
      "byteLength": 156456,
      "uri": "Parker_Cafe_Ensemble.bin"
    }
  ],
  "images": [
    {
      "uri": "Parker_Cafe_Ensemble_baseColor.png"
    },
    {
      "uri": "Parker_Cafe_Ensemble_occlusionRoughnessMetallic.png"
    },
    {
      "uri": "Parker_Cafe_Ensemble_normal.png"
    }
  ],
  "materials": [
    {
      "alphaMode": "OPAQUE",
      "name": "Parker_Cafe_Ensemble",
      "normalTexture": {
        "index": 2
      },
      "occlusionTexture": {
        "index": 1
      },
      "pbrMetallicRoughness": {
        "baseColorTexture": {
          "index": 0
        },
        "metallicRoughnessTexture": {
          "index": 1
        }
      }
    }
  ],
  "meshes": [
    {
      "name": "Parker_Cafe_Ensemble",
      "primitives": [
        {
          "attributes": {
            "NORMAL": 2,
            "POSITION": 1,
            "TEXCOORD_0": 3
          },
          "indices": 0,
          "material": 0,
          "mode": 4
        }
      ]
    }
  ],
  "nodes": [
    {
      "children": [
        1
      ],
      "name": "RootNode"
    },
    {
      "children": [
        2
      ],
      "name": "Parker_Cafe_Ensemble",
      "rotation": [
        -0.70710676908493,
        0.0,
        0.0,
        0.70710676908493
      ]
    },
    {
      "mesh": 0,
      "name": "Parker_Cafe_Ensemble"
    }
  ],
  "samplers": [
    {
      "magFilter": 9729,
      "minFilter": 9985,
      "wrapS": 10497,
      "wrapT": 10497
    }
  ],
  "scene": 0,
  "scenes": [
    {
      "name": "Scene",
      "nodes": [
        0
      ]
    }
  ],
  "textures": [
    {
      "sampler": 0,
      "source": 0
    },
    {
      "sampler": 0,
      "source": 1
    },
    {
      "sampler": 0,
      "source": 2
    }
  ]
}