{
  "accessors": [
    {
      "bufferView": 0,
      "componentType": 5125,
      "count": 64497,
      "type": "SCALAR"
    },
    {
      "bufferView": 1,
      "componentType": 5126,
      "count": 18618,
      "max": [
        0.293960958719254,
        0.301019340753555,
        1.19948768615723
      ],
      "min": [
        -0.293835192918777,
        -0.292702823877335,
        0.0
      ],
      "type": "VEC3"
    },
    {
      "bufferView": 2,
      "componentType": 5126,
      "count": 18618,
      "type": "VEC3"
    },
    {
      "bufferView": 3,
      "componentType": 5126,
      "count": 18618,
      "type": "VEC2"
    }
  ],
  "asset": {
    "generator": "Substance Painter 6.2.2",
    "version": "2.0"
  },
  "bufferViews": [
    {
      "buffer": 0,
      "byteLength": 257988,
      "target": 34963
    },
    {
      "buffer": 0,
      "byteLength": 223416,
      "byteOffset": 257988,
      "target": 34962
    },
    {
      "buffer": 0,
      "byteLength": 223416,
      "byteOffset": 481404,
      "target": 34962
    },
    {
      "buffer": 0,
      "byteLength": 148944,
      "byteOffset": 704820,
      "target": 34962
    }
  ],
  "buffers": [
    {
      "byteLength": 853764,
      "uri": "Tonyo_Receptacle_36_Gallon.bin"
    }
  ],
  "images": [
    {
      "uri": "Tonyo_Receptacle_36_Gallon_baseColor.png"
    },
    {
      "uri": "Tonyo_Receptacle_36_Gallon_occlusionRoughnessMetallic.png"
    },
    {
      "uri": "Tonyo_Receptacle_36_Gallon_normal.png"
    }
  ],
  "materials": [
    {
      "alphaMode": "OPAQUE",
      "name": "Tonyo_Receptacle_36_Gallon",
      "normalTexture": {
        "index": 2
      },
      "occlusionTexture": {
        "index": 1
      },
      "pbrMetallicRoughness": {
        "baseColorTexture": {
          "index": 0
        },
        "metallicRoughnessTexture": {
          "index": 1
        }
      }
    }
  ],
  "meshes": [
    {
      "name": "Tonyo_Receptacle_36_Gallon",
      "primitives": [
        {
          "attributes": {
            "NORMAL": 2,
            "POSITION": 1,
            "TEXCOORD_0": 3
          },
          "indices": 0,
          "material": 0,
          "mode": 4
        }
      ]
    }
  ],
  "nodes": [
    {
      "children": [
        1
      ],
      "name": "RootNode"
    },
    {
      "children": [
        2
      ],
      "name": "Tonyo_Receptacle_36_Gallon",
      "rotation": [
        -0.70710676908493,
        0.0,
        0.0,
        0.70710676908493
      ]
    },
    {
      "mesh": 0,
      "name": "Tonyo_Receptacle_36_Gallon"
    }
  ],
  "samplers": [
    {
      "magFilter": 9729,
      "minFilter": 9985,
      "wrapS": 10497,
      "wrapT": 10497
    }
  ],
  "scene": 0,
  "scenes": [
    {
      "name": "Scene",
      "nodes": [
        0
      ]
    }
  ],
  "textures": [
    {
      "sampler": 0,
      "source": 0
    },
    {
      "sampler": 0,
      "source": 1
    },
    {
      "sampler": 0,
      "source": 2
    }
  ]
}