{
  "accessors": [
    {
      "bufferView": 0,
      "componentType": 5125,
      "count": 687864,
      "type": "SCALAR"
    },
    {
      "bufferView": 1,
      "componentType": 5126,
      "count": 127233,
      "max": [
        0.541337549686432,
        0.541337490081787,
        0.748780250549316
      ],
      "min": [
        -0.541337490081787,
        -0.541337490081787,
        -7.01844692230225e-05
      ],
      "type": "VEC3"
    },
    {
      "bufferView": 2,
      "componentType": 5126,
      "count": 127233,
      "type": "VEC3"
    },
    {
      "bufferView": 3,
      "componentType": 5126,
      "count": 127233,
      "type": "VEC2"
    }
  ],
  "asset": {
    "generator": "Substance Painter 6.2.2",
    "version": "2.0"
  },
  "bufferViews": [
    {
      "buffer": 0,
      "byteLength": 2751456,
      "target": 34963
    },
    {
      "buffer": 0,
      "byteLength": 1526796,
      "byteOffset": 2751456,
      "target": 34962
    },
    {
      "buffer": 0,
      "byteLength": 1526796,
      "byteOffset": 4278252,
      "target": 34962
    },
    {
      "buffer": 0,
      "byteLength": 1017864,
      "byteOffset": 5805048,
      "target": 34962
    }
  ],
  "buffers": [
    {
      "byteLength": 6822912,
      "uri": "Factor_Chair_Armless_Teak Top.bin"
    }
  ],
  "images": [
    {
      "uri": "Factor_Chair_Armless_Teak Top_baseColor.png"
    },
    {
      "uri": "Factor_Chair_Armless_Teak Top_occlusionRoughnessMetallic.png"
    },
    {
      "uri": "Factor_Chair_Armless_Teak Top_normal.png"
    }
  ],
  "materials": [
    {
      "alphaMode": "OPAQUE",
      "name": "Factor_Chair_Armless_Teak Top",
      "normalTexture": {
        "index": 2
      },
      "occlusionTexture": {
        "index": 1
      },
      "pbrMetallicRoughness": {
        "baseColorTexture": {
          "index": 0
        },
        "metallicRoughnessTexture": {
          "index": 1
        }
      }
    }
  ],
  "meshes": [
    {
      "name": "Factor_Chair_Armless_Teak Top",
      "primitives": [
        {
          "attributes": {
            "NORMAL": 2,
            "POSITION": 1,
            "TEXCOORD_0": 3
          },
          "indices": 0,
          "material": 0,
          "mode": 4
        }
      ]
    }
  ],
  "nodes": [
    {
      "children": [
        1
      ],
      "name": "RootNode"
    },
    {
      "children": [
        2
      ],
      "name": "Factor_Chair_Armless_Teak Top",
      "rotation": [
        -0.70710676908493,
        0.0,
        0.0,
        0.70710676908493
      ]
    },
    {
      "mesh": 0,
      "name": "Factor_Chair_Armless_Teak Top"
    }
  ],
  "samplers": [
    {
      "magFilter": 9729,
      "minFilter": 9985,
      "wrapS": 10497,
      "wrapT": 10497
    }
  ],
  "scene": 0,
  "scenes": [
    {
      "name": "Scene",
      "nodes": [
        0
      ]
    }
  ],
  "textures": [
    {
      "sampler": 0,
      "source": 0
    },
    {
      "sampler": 0,
      "source": 1
    },
    {
      "sampler": 0,
      "source": 2
    }
  ]
}