{
  "accessors": [
    {
      "bufferView": 0,
      "componentType": 5125,
      "count": 11976,
      "type": "SCALAR"
    },
    {
      "bufferView": 1,
      "componentType": 5126,
      "count": 3080,
      "max": [
        0.270877122879028,
        0.254606008529663,
        0.800399959087372
      ],
      "min": [
        -0.270877182483673,
        -0.291548848152161,
        -0.00116568803787231
      ],
      "type": "VEC3"
    },
    {
      "bufferView": 2,
      "componentType": 5126,
      "count": 3080,
      "type": "VEC3"
    },
    {
      "bufferView": 3,
      "componentType": 5126,
      "count": 3080,
      "type": "VEC2"
    }
  ],
  "asset": {
    "generator": "Substance Painter 6.2.2",
    "version": "2.0"
  },
  "bufferViews": [
    {
      "buffer": 0,
      "byteLength": 47904,
      "target": 34963
    },
    {
      "buffer": 0,
      "byteLength": 36960,
      "byteOffset": 47904,
      "target": 34962
    },
    {
      "buffer": 0,
      "byteLength": 36960,
      "byteOffset": 84864,
      "target": 34962
    },
    {
      "buffer": 0,
      "byteLength": 24640,
      "byteOffset": 121824,
      "target": 34962
    }
  ],
  "buffers": [
    {
      "byteLength": 146464,
      "uri": "Parker_Cafe_Armed_Solid.bin"
    }
  ],
  "images": [
    {
      "uri": "Parker_Cafe_Armed_Solid_baseColor.png"
    },
    {
      "uri": "Parker_Cafe_Armed_Solid_occlusionRoughnessMetallic.png"
    },
    {
      "uri": "Parker_Cafe_Armed_Solid_normal.png"
    }
  ],
  "materials": [
    {
      "alphaMode": "OPAQUE",
      "name": "Parker_Cafe_Armed_Solid",
      "normalTexture": {
        "index": 2
      },
      "occlusionTexture": {
        "index": 1
      },
      "pbrMetallicRoughness": {
        "baseColorTexture": {
          "index": 0
        },
        "metallicRoughnessTexture": {
          "index": 1
        }
      }
    }
  ],
  "meshes": [
    {
      "name": "Parker_Cafe_Armed_Solid",
      "primitives": [
        {
          "attributes": {
            "NORMAL": 2,
            "POSITION": 1,
            "TEXCOORD_0": 3
          },
          "indices": 0,
          "material": 0,
          "mode": 4
        }
      ]
    }
  ],
  "nodes": [
    {
      "children": [
        1
      ],
      "name": "RootNode"
    },
    {
      "children": [
        2
      ],
      "name": "Parker_Cafe_Armed_Solid",
      "rotation": [
        -0.70710676908493,
        0.0,
        0.0,
        0.70710676908493
      ],
      "translation": [
        0.0,
        0.00102144456468523,
        4.46487638527948e-11
      ]
    },
    {
      "mesh": 0,
      "name": "Parker_Cafe_Armed_Solid"
    }
  ],
  "samplers": [
    {
      "magFilter": 9729,
      "minFilter": 9985,
      "wrapS": 10497,
      "wrapT": 10497
    }
  ],
  "scene": 0,
  "scenes": [
    {
      "name": "Scene",
      "nodes": [
        0
      ]
    }
  ],
  "textures": [
    {
      "sampler": 0,
      "source": 0
    },
    {
      "sampler": 0,
      "source": 1
    },
    {
      "sampler": 0,
      "source": 2
    }
  ]
}