{
  "accessors": [
    {
      "bufferView": 0,
      "componentType": 5125,
      "count": 185592,
      "type": "SCALAR"
    },
    {
      "bufferView": 1,
      "componentType": 5126,
      "count": 54904,
      "max": [
        0.451294779777527,
        0.302189886569977,
        1.23850798606873
      ],
      "min": [
        -0.451055407524109,
        -0.305298805236816,
        -0.00365704298019409
      ],
      "type": "VEC3"
    },
    {
      "bufferView": 2,
      "componentType": 5126,
      "count": 54904,
      "type": "VEC3"
    },
    {
      "bufferView": 3,
      "componentType": 5126,
      "count": 54904,
      "type": "VEC2"
    }
  ],
  "asset": {
    "generator": "Substance Painter 6.2.2",
    "version": "2.0"
  },
  "bufferViews": [
    {
      "buffer": 0,
      "byteLength": 742368,
      "target": 34963
    },
    {
      "buffer": 0,
      "byteLength": 658848,
      "byteOffset": 742368,
      "target": 34962
    },
    {
      "buffer": 0,
      "byteLength": 658848,
      "byteOffset": 1401216,
      "target": 34962
    },
    {
      "buffer": 0,
      "byteLength": 439232,
      "byteOffset": 2060064,
      "target": 34962
    }
  ],
  "buffers": [
    {
      "byteLength": 2499296,
      "uri": "Tonyo_Receptacle_60_Gallon_PC2.bin"
    }
  ],
  "images": [
    {
      "uri": "./Tonyo_Receptacle_60_Gallon_PC2/Tonyo_Receptacle_60_Gallon_PC2_baseColor.png"
    },
    {
      "uri": "./Tonyo_Receptacle_60_Gallon_PC2/Tonyo_Receptacle_60_Gallon_PC2_occlusionRoughnessMetallic.png"
    },
    {
      "uri": "./Tonyo_Receptacle_60_Gallon_PC2/Tonyo_Receptacle_60_Gallon_PC2_normal.png"
    }
  ],
  "materials": [
    {
      "alphaMode": "OPAQUE",
      "name": "Tonyo_Receptacle_60_Gallon_PC2",
      "normalTexture": {
        "index": 2
      },
      "occlusionTexture": {
        "index": 1
      },
      "pbrMetallicRoughness": {
        "baseColorTexture": {
          "index": 0
        },
        "metallicRoughnessTexture": {
          "index": 1
        }
      }
    }
  ],
  "meshes": [
    {
      "name": "Tonyo_Receptacle_60_Gallon_02",
      "primitives": [
        {
          "attributes": {
            "NORMAL": 2,
            "POSITION": 1,
            "TEXCOORD_0": 3
          },
          "indices": 0,
          "material": 0,
          "mode": 4
        }
      ]
    }
  ],
  "nodes": [
    {
      "children": [
        1
      ],
      "name": "RootNode"
    },
    {
      "children": [
        2
      ],
      "name": "Tonyo_Receptacle_60_Gallon_02",
      "rotation": [
        -0.70710676908493,
        0.0,
        0.0,
        0.70710676908493
      ],
      "translation": [
        0.0,
        0.00365704298019409,
        -0.0122299790382385
      ]
    },
    {
      "mesh": 0,
      "name": "Tonyo_Receptacle_60_Gallon_02"
    }
  ],
  "samplers": [
    {
      "magFilter": 9729,
      "minFilter": 9985,
      "wrapS": 10497,
      "wrapT": 10497
    }
  ],
  "scene": 0,
  "scenes": [
    {
      "name": "Scene",
      "nodes": [
        0
      ]
    }
  ],
  "textures": [
    {
      "sampler": 0,
      "source": 0
    },
    {
      "sampler": 0,
      "source": 1
    },
    {
      "sampler": 0,
      "source": 2
    }
  ]
}