{
  "accessors": [
    {
      "bufferView": 0,
      "componentType": 5125,
      "count": 751614,
      "type": "SCALAR"
    },
    {
      "bufferView": 1,
      "componentType": 5126,
      "count": 143685,
      "max": [
        0.541337549686432,
        0.541337490081787,
        0.748780250549316
      ],
      "min": [
        -0.541337490081787,
        -0.541337490081787,
        -7.01844692230225e-05
      ],
      "type": "VEC3"
    },
    {
      "bufferView": 2,
      "componentType": 5126,
      "count": 143685,
      "type": "VEC3"
    },
    {
      "bufferView": 3,
      "componentType": 5126,
      "count": 143685,
      "type": "VEC2"
    }
  ],
  "asset": {
    "generator": "Substance Painter 6.2.2",
    "version": "2.0"
  },
  "bufferViews": [
    {
      "buffer": 0,
      "byteLength": 3006456,
      "target": 34963
    },
    {
      "buffer": 0,
      "byteLength": 1724220,
      "byteOffset": 3006456,
      "target": 34962
    },
    {
      "buffer": 0,
      "byteLength": 1724220,
      "byteOffset": 4730676,
      "target": 34962
    },
    {
      "buffer": 0,
      "byteLength": 1149480,
      "byteOffset": 6454896,
      "target": 34962
    }
  ],
  "buffers": [
    {
      "byteLength": 7604376,
      "uri": "Factor_Table_Aluminum_Perforated.bin"
    }
  ],
  "images": [
    {
      "uri": "Factor_Table_Aluminum_Perforated_baseColor.png"
    },
    {
      "uri": "Factor_Table_Aluminum_Perforated_occlusionRoughnessMetallic.png"
    },
    {
      "uri": "Factor_Table_Aluminum_Perforated_normal.png"
    }
  ],
  "materials": [
    {
      "alphaMode": "OPAQUE",
      "name": "Factor_Table_Aluminum_Perforated",
      "normalTexture": {
        "index": 2
      },
      "occlusionTexture": {
        "index": 1
      },
      "pbrMetallicRoughness": {
        "baseColorTexture": {
          "index": 0
        },
        "metallicRoughnessTexture": {
          "index": 1
        }
      }
    }
  ],
  "meshes": [
    {
      "name": "Factor_Table_Aluminum_Perforated",
      "primitives": [
        {
          "attributes": {
            "NORMAL": 2,
            "POSITION": 1,
            "TEXCOORD_0": 3
          },
          "indices": 0,
          "material": 0,
          "mode": 4
        }
      ]
    }
  ],
  "nodes": [
    {
      "children": [
        1
      ],
      "name": "RootNode"
    },
    {
      "children": [
        2
      ],
      "name": "Factor_Table_Aluminum_Perforated",
      "rotation": [
        -0.70710676908493,
        0.0,
        0.0,
        0.70710676908493
      ]
    },
    {
      "mesh": 0,
      "name": "Factor_Table_Aluminum_Perforated"
    }
  ],
  "samplers": [
    {
      "magFilter": 9729,
      "minFilter": 9985,
      "wrapS": 10497,
      "wrapT": 10497
    }
  ],
  "scene": 0,
  "scenes": [
    {
      "name": "Scene",
      "nodes": [
        0
      ]
    }
  ],
  "textures": [
    {
      "sampler": 0,
      "source": 0
    },
    {
      "sampler": 0,
      "source": 1
    },
    {
      "sampler": 0,
      "source": 2
    }
  ]
}